  0
SECTION
  2
HEADER
  9
$ACADVER
  1
AC1009
  9
$EXTMIN
 10
0.00041380
 20
-0.00024753
 30
0.0
  9
$EXTMAX
 10
309.58758109
 20
310.14964961
 30
0.0
  0
ENDSEC
  0
SECTION
  2
ENTITIES
  0
POLYLINE
  8
0
 66
   1
 70
    1
  0
VERTEX
  8
0
 10
56.46479019
 20
83.27072404
  0
VERTEX
  8
0
 10
56.90753103
 20
84.02267734
  0
VERTEX
  8
0
 10
57.16046986
 20
84.40766312
  0
VERTEX
  8
0
 10
57.43686266
 20
84.79625071
  0
VERTEX
  8
0
 10
57.73851571
 20
85.18663690
  0
VERTEX
  8
0
 10
58.06723528
 20
85.57701849
  0
VERTEX
  8
0
 10
58.42482765
 20
85.96559227
  0
VERTEX
  8
0
 10
58.81309911
 20
86.35055502
  0
VERTEX
  8
0
 10
59.23270135
 20
86.73049054
  0
VERTEX
  8
0
 10
59.67937318
 20
87.10523589
  0
VERTEX
  8
0
 10
60.63226260
 20
87.84005233
  0
VERTEX
  8
0
 10
61.62844127
 20
88.55679678
  0
VERTEX
  8
0
 10
62.62458310
 20
89.25726173
  0
VERTEX
  8
0
 10
63.57861225
 20
89.94514874
  0
VERTEX
  8
0
 10
64.02811525
 20
90.28761514
  0
VERTEX
  8
0
 10
64.45325730
 20
90.63120644
  0
VERTEX
  8
0
 10
64.84952348
 20
90.97750486
  0
VERTEX
  8
0
 10
65.21239887
 20
91.32809260
  0
VERTEX
  8
0
 10
65.53736854
 20
91.68455190
  0
VERTEX
  8
0
 10
65.81991756
 20
92.04846496
  0
VERTEX
  8
0
 10
66.05701554
 20
92.42143908
  0
VERTEX
  8
0
 10
66.25125089
 20
92.80523090
  0
VERTEX
  8
0
 10
66.40668428
 20
93.20164671
  0
VERTEX
  8
0
 10
66.52737640
 20
93.61249278
  0
VERTEX
  8
0
 10
66.61738790
 20
94.03957540
  0
VERTEX
  8
0
 10
66.68077946
 20
94.48470082
  0
VERTEX
  8
0
 10
66.72161175
 20
94.94967534
  0
VERTEX
  8
0
 10
66.74394543
 20
95.43630523
  0
VERTEX
  8
0
 10
66.75090121
 20
95.94549976
  0
VERTEX
  8
0
 10
66.74183990
 20
96.47431012
  0
VERTEX
  8
0
 10
66.71518236
 20
97.01890276
  0
VERTEX
  8
0
 10
66.66934943
 20
97.57544415
  0
VERTEX
  8
0
 10
66.60276198
 20
98.14010073
  0
VERTEX
  8
0
 10
66.51384084
 20
98.70903898
  0
VERTEX
  8
0
 10
66.40100687
 20
99.27842533
  0
VERTEX
  8
0
 10
66.26268092
 20
99.84442627
  0
VERTEX
  8
0
 10
66.09755266
 20
100.40377759
  0
VERTEX
  8
0
 10
65.90536248
 20
100.95546796
  0
VERTEX
  8
0
 10
65.68610731
 20
101.49904313
  0
VERTEX
  8
0
 10
65.43978408
 20
102.03404885
  0
VERTEX
  8
0
 10
65.16638972
 20
102.56003086
  0
VERTEX
  8
0
 10
64.86592116
 20
103.07653490
  0
VERTEX
  8
0
 10
64.53837533
 20
103.58310673
  0
VERTEX
  8
0
 10
64.18374917
 20
104.07929208
  0
VERTEX
  8
0
 10
63.80242813
 20
104.56461164
  0
VERTEX
  8
0
 10
63.39605708
 20
105.03819116
  0
VERTEX
  8
0
 10
62.96666943
 20
105.49913136
  0
VERTEX
  8
0
 10
62.51629859
 20
105.94653292
  0
VERTEX
  8
0
 10
62.04697795
 20
106.37949654
  0
VERTEX
  8
0
 10
61.56074094
 20
106.79712293
  0
VERTEX
  8
0
 10
61.05962094
 20
107.19851278
  0
VERTEX
  8
0
 10
60.54565136
 20
107.58276679
  0
VERTEX
  8
0
 10
60.02010135
 20
107.94863499
  0
VERTEX
  8
0
 10
59.48123216
 20
108.29351386
  0
VERTEX
  8
0
 10
58.92656535
 20
108.61447375
  0
VERTEX
  8
0
 10
58.35362245
 20
108.90858505
  0
VERTEX
  8
0
 10
57.75992502
 20
109.17291810
  0
VERTEX
  8
0
 10
57.14299461
 20
109.40454327
  0
VERTEX
  8
0
 10
56.50035276
 20
109.60053093
  0
VERTEX
  8
0
 10
55.82952103
 20
109.75795144
  0
VERTEX
  8
0
 10
55.12880389
 20
109.87458288
  0
VERTEX
  8
0
 10
54.39966206
 20
109.95105882
  0
VERTEX
  8
0
 10
53.64435147
 20
109.98873281
  0
VERTEX
  8
0
 10
52.86512806
 20
109.98895840
  0
VERTEX
  8
0
 10
52.06424774
 20
109.95308916
  0
VERTEX
  8
0
 10
51.24396644
 20
109.88247863
  0
VERTEX
  8
0
 10
50.40654010
 20
109.77848038
  0
VERTEX
  8
0
 10
49.55422463
 20
109.64244795
  0
VERTEX
  8
0
 10
48.69021594
 20
109.47585334
  0
VERTEX
  8
0
 10
47.82146981
 20
109.28061766
  0
VERTEX
  8
0
 10
46.95588197
 20
109.05876817
  0
VERTEX
  8
0
 10
46.10134818
 20
108.81233214
  0
VERTEX
  8
0
 10
45.26576417
 20
108.54333684
  0
VERTEX
  8
0
 10
44.45702571
 20
108.25380953
  0
VERTEX
  8
0
 10
43.68302852
 20
107.94577748
  0
VERTEX
  8
0
 10
42.95166836
 20
107.62126795
  0
VERTEX
  8
0
 10
42.26850423
 20
107.28201969
  0
VERTEX
  8
0
 10
41.62977266
 20
106.92856830
  0
VERTEX
  8
0
 10
41.02938571
 20
106.56113630
  0
VERTEX
  8
0
 10
40.46125546
 20
106.17994621
  0
VERTEX
  8
0
 10
39.91929396
 20
105.78522055
  0
VERTEX
  8
0
 10
39.39741329
 20
105.37718186
  0
VERTEX
  8
0
 10
38.88952551
 20
104.95605264
  0
VERTEX
  8
0
 10
38.38954268
 20
104.52205543
  0
VERTEX
  8
0
 10
37.39971949
 20
103.61615274
  0
VERTEX
  8
0
 10
36.91258010
 20
103.14424086
  0
VERTEX
  8
0
 10
36.43333339
 20
102.65969272
  0
VERTEX
  8
0
 10
35.96401275
 20
102.16251138
  0
VERTEX
  8
0
 10
35.50665161
 20
101.65269992
  0
VERTEX
  8
0
 10
35.06328335
 20
101.13026141
  0
VERTEX
  8
0
 10
34.63594138
 20
100.59519891
  0
VERTEX
  8
0
 10
34.22645858
 20
100.04780401
  0
VERTEX
  8
0
 10
33.83616038
 20
99.48957144
  0
VERTEX
  8
0
 10
33.46617166
 20
98.92230903
  0
VERTEX
  8
0
 10
33.11761732
 20
98.34782458
  0
VERTEX
  8
0
 10
32.79162225
 20
97.76792591
  0
VERTEX
  8
0
 10
32.48931135
 20
97.18442082
  0
VERTEX
  8
0
 10
32.21180952
 20
96.59911713
  0
VERTEX
  8
0
 10
31.96024164
 20
96.01382265
  0
VERTEX
  8
0
 10
31.73544410
 20
95.42954896
  0
VERTEX
  8
0
 10
31.53705012
 20
94.84414730
  0
VERTEX
  8
0
 10
31.36437985
 20
94.25468498
  0
VERTEX
  8
0
 10
31.21675344
 20
93.65822928
  0
VERTEX
  8
0
 10
31.09349105
 20
93.05184750
  0
VERTEX
  8
0
 10
30.99391283
 20
92.43260694
  0
VERTEX
  8
0
 10
30.91733893
 20
91.79757488
  0
VERTEX
  8
0
 10
30.86308950
 20
91.14381863
  0
VERTEX
  8
0
 10
30.83045375
 20
90.46922702
  0
VERTEX
  8
0
 10
30.81857253
 20
89.77499963
  0
VERTEX
  8
0
 10
30.82654348
 20
89.06316987
  0
VERTEX
  8
0
 10
30.85346421
 20
88.33577115
  0
VERTEX
  8
0
 10
30.89843236
 20
87.59483685
  0
VERTEX
  8
0
 10
30.96054557
 20
86.84240040
  0
VERTEX
  8
0
 10
31.13259763
 20
85.31115463
  0
VERTEX
  8
0
 10
31.24140290
 20
84.53595428
  0
VERTEX
  8
0
 10
31.36779520
 20
83.75466293
  0
VERTEX
  8
0
 10
31.51493589
 20
82.96660380
  0
VERTEX
  8
0
 10
31.68598634
 20
82.17110011
  0
VERTEX
  8
0
 10
31.88410792
 20
81.36747508
  0
VERTEX
  8
0
 10
32.11246200
 20
80.55505193
  0
VERTEX
  8
0
 10
32.37420994
 20
79.73315388
  0
VERTEX
  8
0
 10
32.67251312
 20
78.90110417
  0
VERTEX
  8
0
 10
33.00935480
 20
78.05872041
  0
VERTEX
  8
0
 10
33.38230052
 20
77.20777334
  0
VERTEX
  8
0
 10
33.78773774
 20
76.35051581
  0
VERTEX
  8
0
 10
34.22205390
 20
75.48920067
  0
VERTEX
  8
0
 10
34.68163644
 20
74.62608080
  0
VERTEX
  8
0
 10
35.16287282
 20
73.76340904
  0
VERTEX
  8
0
 10
35.66215048
 20
72.90343826
  0
VERTEX
  8
0
 10
36.17585687
 20
72.04842131
  0
VERTEX
  8
0
 10
37.23696737
 20
70.35988266
  0
VERTEX
  8
0
 10
38.34141623
 20
68.70382937
  0
VERTEX
  8
0
 10
39.48917889
 20
67.08387091
  0
VERTEX
  8
0
 10
40.68023081
 20
65.50361678
  0
VERTEX
  8
0
 10
41.29184445
 20
64.72995773
  0
VERTEX
  8
0
 10
41.91339337
 20
63.97028390
  0
VERTEX
  8
0
 10
42.54397215
 20
63.22775204
  0
VERTEX
  8
0
 10
43.18267533
 20
62.50551892
  0
VERTEX
  8
0
 10
43.82859748
 20
61.80674132
  0
VERTEX
  8
0
 10
44.48083316
 20
61.13457598
  0
VERTEX
  8
0
 10
45.13847692
 20
60.49217967
  0
VERTEX
  8
0
 10
45.80062333
 20
59.88270917
  0
VERTEX
  8
0
 10
46.46611041
 20
59.30869969
  0
VERTEX
  8
0
 10
47.13272545
 20
58.76988115
  0
VERTEX
  8
0
 10
47.79798693
 20
58.26534963
  0
VERTEX
  8
0
 10
48.45941334
 20
57.79420124
  0
VERTEX
  8
0
 10
49.11452315
 20
57.35553206
  0
VERTEX
  8
0
 10
49.76083484
 20
56.94843820
  0
VERTEX
  8
0
 10
50.39586690
 20
56.57201573
  0
VERTEX
  8
0
 10
51.01713780
 20
56.22536077
  0
VERTEX
  8
0
 10
51.62322441
 20
55.90784462
  0
VERTEX
  8
0
 10
52.21691264
 20
55.61989032
  0
VERTEX
  8
0
 10
52.80203447
 20
55.36217158
  0
VERTEX
  8
0
 10
53.38242193
 20
55.13536213
  0
VERTEX
  8
0
 10
53.96190702
 20
54.94013565
  0
VERTEX
  8
0
 10
54.54432174
 20
54.77716587
  0
VERTEX
  8
0
 10
55.13349811
 20
54.64712649
  0
VERTEX
  8
0
 10
55.73326813
 20
54.55069122
  0
VERTEX
  8
0
 10
56.34638571
 20
54.48831483
  0
VERTEX
  8
0
 10
56.97124333
 20
54.45955175
  0
VERTEX
  8
0
 10
57.60513080
 20
54.46372522
  0
VERTEX
  8
0
 10
58.24533793
 20
54.50015844
  0
VERTEX
  8
0
 10
58.88915455
 20
54.56817466
  0
VERTEX
  8
0
 10
59.53387047
 20
54.66709707
  0
VERTEX
  8
0
 10
60.17677551
 20
54.79624892
  0
VERTEX
  8
0
 10
60.81515948
 20
54.95495341
  0
VERTEX
  8
0
 10
61.44583008
 20
55.14207696
  0
VERTEX
  8
0
 10
62.06364189
 20
55.35468329
  0
VERTEX
  8
0
 10
62.66295510
 20
55.58939156
  0
VERTEX
  8
0
 10
63.23812988
 20
55.84282096
  0
VERTEX
  8
0
 10
63.78352642
 20
56.11159067
  0
VERTEX
  8
0
 10
64.29350490
 20
56.39231986
  0
VERTEX
  8
0
 10
64.76242550
 20
56.68162772
  0
VERTEX
  8
0
 10
65.18464841
 20
56.97613341
  0
VERTEX
  8
0
 10
65.55638764
 20
57.27338357
  0
VERTEX
  8
0
 10
65.88097800
 20
57.57468365
  0
VERTEX
  8
0
 10
66.16360811
 20
57.88229111
  0
VERTEX
  8
0
 10
66.40946659
 20
58.19846343
  0
VERTEX
  8
0
 10
66.62374210
 20
58.52545807
  0
VERTEX
  8
0
 10
66.81162325
 20
58.86553247
  0
VERTEX
  8
0
 10
66.97829869
 20
59.22094412
  0
VERTEX
  8
0
 10
67.12895704
 20
59.59395046
  0
VERTEX
  8
0
 10
67.26761575
 20
59.98569200
  0
VERTEX
  8
0
 10
67.39363206
 20
60.39254672
  0
VERTEX
  8
0
 10
67.50520430
 20
60.80977563
  0
VERTEX
  8
0
 10
67.60053079
 20
61.23263976
  0
VERTEX
  8
0
 10
67.67780986
 20
61.65640012
  0
VERTEX
  8
0
 10
67.73523984
 20
62.07631774
  0
VERTEX
  8
0
 10
67.77101905
 20
62.48765362
  0
VERTEX
  8
0
 10
67.78334583
 20
62.88566878
  0
VERTEX
  8
0
 10
67.77034227
 20
63.26691463
  0
VERTEX
  8
0
 10
67.72982561
 20
63.63280943
  0
VERTEX
  8
0
 10
67.65953685
 20
63.98606183
  0
VERTEX
  8
0
 10
67.55721698
 20
64.32938048
  0
VERTEX
  8
0
 10
67.42060702
 20
64.66547402
  0
VERTEX
  8
0
 10
67.24744797
 20
64.99705110
  0
VERTEX
  8
0
 10
67.03548082
 20
65.32682037
  0
VERTEX
  8
0
 10
66.78244659
 20
65.65749047
  0
VERTEX
  8
0
 10
66.48670014
 20
65.99204425
  0
VERTEX
  8
0
 10
66.14900264
 20
66.33426665
  0
VERTEX
  8
0
 10
65.77070458
 20
66.68821680
  0
VERTEX
  8
0
 10
65.35315646
 20
67.05795384
  0
VERTEX
  8
0
 10
64.40571197
 20
67.86102512
  0
VERTEX
  8
0
 10
63.31747305
 20
68.77595357
  0
VERTEX
  8
0
 10
62.11170082
 20
69.81781349
  0
VERTEX
  8
0
 10
60.86079777
 20
70.93188764
  0
VERTEX
  8
0
 10
59.64957448
 20
72.04596179
  0
VERTEX
  8
0
 10
58.56284156
 20
73.08782170
  0
VERTEX
  8
0
 10
58.09046161
 20
73.56189897
  0
VERTEX
  8
0
 10
57.66748494
 20
74.00731521
  0
VERTEX
  8
0
 10
57.29097731
 20
74.43151652
  0
VERTEX
  8
0
 10
56.95800447
 20
74.84194901
  0
VERTEX
  8
0
 10
56.66563218
 20
75.24605876
  0
VERTEX
  8
0
 10
56.41092621
 20
75.65129187
  0
VERTEX
  8
0
 10
56.19095232
 20
76.06509444
  0
VERTEX
  8
0
 10
56.00277625
 20
76.49491255
  0
VERTEX
  8
0
 10
55.84384617
 20
76.94598498
  0
VERTEX
  8
0
 10
55.71311517
 20
77.41442652
  0
VERTEX
  8
0
 10
55.60990650
 20
77.89414462
  0
VERTEX
  8
0
 10
55.53354335
 20
78.37904676
  0
VERTEX
  8
0
 10
55.48334897
 20
78.86304038
  0
VERTEX
  8
0
 10
55.45864656
 20
79.34003296
  0
VERTEX
  8
0
 10
55.45875936
 20
79.80393194
  0
VERTEX
  8
0
 10
55.48301058
 20
80.24864481
  0
VERTEX
  8
0
 10
55.53072344
 20
80.66982057
  0
VERTEX
  8
0
 10
55.60122117
 20
81.07002542
  0
VERTEX
  8
0
 10
55.69382700
 20
81.45354254
  0
VERTEX
  8
0
 10
55.80786413
 20
81.82465514
  0
VERTEX
  8
0
 10
55.94265579
 20
82.18764639
  0
VERTEX
  8
0
 10
56.09752521
 20
82.54679950
  0
VERTEX
  8
0
 10
56.27179560
 20
82.90639765
  0
VERTEX
  8
0
 10
56.46479019
 20
83.27072404
  0
SEQEND
  0
POLYLINE
  8
0
 66
   1
 70
    1
  0
VERTEX
  8
0
 10
29.40502172
 20
99.39707944
  0
VERTEX
  8
0
 10
29.06137798
 20
99.71471198
  0
VERTEX
  8
0
 10
28.63740482
 20
100.05757406
  0
VERTEX
  8
0
 10
28.39896634
 20
100.22663025
  0
VERTEX
  8
0
 10
28.14485146
 20
100.38779068
  0
VERTEX
  8
0
 10
27.87652884
 20
100.53632099
  0
VERTEX
  8
0
 10
27.59546714
 20
100.66748680
  0
VERTEX
  8
0
 10
27.30340690
 20
100.77748347
  0
VERTEX
  8
0
 10
27.00317622
 20
100.86622531
  0
VERTEX
  8
0
 10
26.69787506
 20
100.93455638
  0
VERTEX
  8
0
 10
26.39060343
 20
100.98332073
  0
VERTEX
  8
0
 10
26.08446129
 20
101.01336242
  0
VERTEX
  8
0
 10
25.78254863
 20
101.02552550
  0
VERTEX
  8
0
 10
25.48796543
 20
101.02065403
  0
VERTEX
  8
0
 10
25.20381168
 20
100.99959206
  0
VERTEX
  8
0
 10
24.93262389
 20
100.96311842
  0
VERTEX
  8
0
 10
24.67493022
 20
100.91175105
  0
VERTEX
  8
0
 10
24.43067083
 20
100.84594268
  0
VERTEX
  8
0
 10
24.19978587
 20
100.76614603
  0
VERTEX
  8
0
 10
23.98221548
 20
100.67281381
  0
VERTEX
  8
0
 10
23.77789982
 20
100.56639875
  0
VERTEX
  8
0
 10
23.58677903
 20
100.44735356
  0
VERTEX
  8
0
 10
23.40879326
 20
100.31613097
  0
VERTEX
  8
0
 10
23.24382716
 20
100.17339931
  0
VERTEX
  8
0
 10
23.09154337
 20
100.02044385
  0
VERTEX
  8
0
 10
22.82345120
 20
99.68996328
  0
VERTEX
  8
0
 10
22.60137382
 20
99.33689273
  0
VERTEX
  8
0
 10
22.42216827
 20
98.97343571
  0
VERTEX
  8
0
 10
22.28494240
 20
98.60835402
  0
VERTEX
  8
0
 10
22.19780733
 20
98.23605336
  0
VERTEX
  8
0
 10
22.17626195
 20
98.04437217
  0
VERTEX
  8
0
 10
22.17112498
 20
97.84749774
  0
VERTEX
  8
0
 10
22.18369167
 20
97.64430058
  0
VERTEX
  8
0
 10
22.21525727
 20
97.43365118
  0
VERTEX
  8
0
 10
22.26674740
 20
97.21496587
  0
VERTEX
  8
0
 10
22.33758480
 20
96.98984427
  0
VERTEX
  8
0
 10
22.42681031
 20
96.76043180
  0
VERTEX
  8
0
 10
22.53346478
 20
96.52887389
  0
VERTEX
  8
0
 10
22.79522398
 20
96.06790352
  0
VERTEX
  8
0
 10
23.11518917
 20
95.62409661
  0
VERTEX
  8
0
 10
23.48388717
 20
95.21428446
  0
VERTEX
  8
0
 10
23.88474313
 20
94.85396971
  0
VERTEX
  8
0
 10
24.09150357
 20
94.69711463
  0
VERTEX
  8
0
 10
24.29943136
 20
94.55832284
  0
VERTEX
  8
0
 10
24.50623579
 20
94.43949062
  0
VERTEX
  8
0
 10
24.70962614
 20
94.34251431
  0
VERTEX
  8
0
 10
25.10829012
 20
94.18342035
  0
VERTEX
  8
0
 10
25.49931055
 20
94.04725348
  0
VERTEX
  8
0
 10
25.88074866
 20
93.93318855
  0
VERTEX
  8
0
 10
26.25066567
 20
93.84040045
  0
VERTEX
  8
0
 10
26.60712284
 20
93.76806405
  0
VERTEX
  8
0
 10
26.94818138
 20
93.71535421
  0
VERTEX
  8
0
 10
27.27190253
 20
93.68144581
  0
VERTEX
  8
0
 10
27.57634752
 20
93.66551373
  0
VERTEX
  8
0
 10
27.86008922
 20
93.66673838
  0
VERTEX
  8
0
 10
28.12374703
 20
93.68432233
  0
VERTEX
  8
0
 10
28.36845198
 20
93.71747372
  0
VERTEX
  8
0
 10
28.59533510
 20
93.76540067
  0
VERTEX
  8
0
 10
28.80552742
 20
93.82731130
  0
VERTEX
  8
0
 10
29.00015999
 20
93.90241373
  0
VERTEX
  8
0
 10
29.18036383
 20
93.98991609
  0
VERTEX
  8
0
 10
29.34726998
 20
94.08902650
  0
VERTEX
  8
0
 10
29.50179026
 20
94.19895590
  0
VERTEX
  8
0
 10
29.64425438
 20
94.31887737
  0
VERTEX
  8
0
 10
29.89345609
 20
94.58530189
  0
VERTEX
  8
0
 10
30.09575907
 20
94.88151078
  0
VERTEX
  8
0
 10
30.25204726
 20
95.20071479
  0
VERTEX
  8
0
 10
30.36328444
 20
95.53793553
  0
VERTEX
  8
0
 10
30.43124463
 20
95.89543812
  0
VERTEX
  8
0
 10
30.45773260
 20
96.27729860
  0
VERTEX
  8
0
 10
30.44455307
 20
96.68759297
  0
VERTEX
  8
0
 10
30.39459323
 20
97.12505463
  0
VERTEX
  8
0
 10
30.31575752
 20
97.56655549
  0
VERTEX
  8
0
 10
30.21708192
 20
97.98367391
  0
VERTEX
  8
0
 10
30.10760243
 20
98.34798828
  0
VERTEX
  8
0
 10
29.99106562
 20
98.64185019
  0
VERTEX
  8
0
 10
29.85015866
 20
98.89060583
  0
VERTEX
  8
0
 10
29.66232840
 20
99.13032549
  0
VERTEX
  8
0
 10
29.40502172
 20
99.39707944
  0
SEQEND
  0
POLYLINE
  8
0
 66
   1
 70
    1
  0
VERTEX
  8
0
 10
34.05907875
 20
108.90149704
  0
VERTEX
  8
0
 10
33.68892045
 20
109.30412227
  0
VERTEX
  8
0
 10
33.48732776
 20
109.49487040
  0
VERTEX
  8
0
 10
33.27096718
 20
109.67512156
  0
VERTEX
  8
0
 10
33.03701958
 20
109.84228527
  0
VERTEX
  8
0
 10
32.78266581
 20
109.99377105
  0
VERTEX
  8
0
 10
32.50508673
 20
110.12698842
  0
VERTEX
  8
0
 10
32.20146320
 20
110.23934691
  0
VERTEX
  8
0
 10
31.87051890
 20
110.32879443
  0
VERTEX
  8
0
 10
31.51746805
 20
110.39545708
  0
VERTEX
  8
0
 10
31.14907997
 20
110.44001165
  0
VERTEX
  8
0
 10
30.77212396
 20
110.46313491
  0
VERTEX
  8
0
 10
30.39336935
 20
110.46550363
  0
VERTEX
  8
0
 10
30.01958545
 20
110.44779460
  0
VERTEX
  8
0
 10
29.65754159
 20
110.41068459
  0
VERTEX
  8
0
 10
29.31400707
 20
110.35485039
  0
VERTEX
  8
0
 10
28.99432911
 20
110.28083730
  0
VERTEX
  8
0
 10
28.69846116
 20
110.18866476
  0
VERTEX
  8
0
 10
28.42493457
 20
110.07822075
  0
VERTEX
  8
0
 10
28.17228067
 20
109.94939322
  0
VERTEX
  8
0
 10
27.93903082
 20
109.80207016
  0
VERTEX
  8
0
 10
27.72371636
 20
109.63613954
  0
VERTEX
  8
0
 10
27.52486864
 20
109.45148933
  0
VERTEX
  8
0
 10
27.34101899
 20
109.24800749
  0
VERTEX
  8
0
 10
27.17106965
 20
109.02591425
  0
VERTEX
  8
0
 10
27.01567641
 20
108.78678338
  0
VERTEX
  8
0
 10
26.87585367
 20
108.53253320
  0
VERTEX
  8
0
 10
26.75261583
 20
108.26508201
  0
VERTEX
  8
0
 10
26.64697730
 20
107.98634811
  0
VERTEX
  8
0
 10
26.55995247
 20
107.69824981
  0
VERTEX
  8
0
 10
26.49255574
 20
107.40270542
  0
VERTEX
  8
0
 10
26.44580152
 20
107.10163323
  0
VERTEX
  8
0
 10
26.42051646
 20
106.79701909
  0
VERTEX
  8
0
 10
26.41677628
 20
106.49082426
  0
VERTEX
  8
0
 10
26.43446894
 20
106.18507755
  0
VERTEX
  8
0
 10
26.47348241
 20
105.88180775
  0
VERTEX
  8
0
 10
26.53370468
 20
105.58304367
  0
VERTEX
  8
0
 10
26.61502370
 20
105.29081411
  0
VERTEX
  8
0
 10
26.71732745
 20
105.00714786
  0
VERTEX
  8
0
 10
26.84050390
 20
104.73407373
  0
VERTEX
  8
0
 10
26.98417936
 20
104.47318136
  0
VERTEX
  8
0
 10
27.14725273
 20
104.22425460
  0
VERTEX
  8
0
 10
27.32837352
 20
103.98661362
  0
VERTEX
  8
0
 10
27.52619125
 20
103.75957857
  0
VERTEX
  8
0
 10
27.73935541
 20
103.54246960
  0
VERTEX
  8
0
 10
27.96651554
 20
103.33460686
  0
VERTEX
  8
0
 10
28.45742171
 20
102.94390070
  0
VERTEX
  8
0
 10
28.98976329
 20
102.58565942
  0
VERTEX
  8
0
 10
29.27082166
 20
102.42244308
  0
VERTEX
  8
0
 10
29.56180919
 20
102.27253670
  0
VERTEX
  8
0
 10
29.86272893
 20
102.13797063
  0
VERTEX
  8
0
 10
30.17358396
 20
102.02077520
  0
VERTEX
  8
0
 10
30.49437735
 20
101.92298075
  0
VERTEX
  8
0
 10
30.82511217
 20
101.84661760
  0
VERTEX
  8
0
 10
31.16501572
 20
101.79347159
  0
VERTEX
  8
0
 10
31.51055602
 20
101.76435043
  0
VERTEX
  8
0
 10
31.85744987
 20
101.75981734
  0
VERTEX
  8
0
 10
32.20141409
 20
101.78043555
  0
VERTEX
  8
0
 10
32.53816548
 20
101.82676826
  0
VERTEX
  8
0
 10
32.86342085
 20
101.89937868
  0
VERTEX
  8
0
 10
33.17289700
 20
101.99883004
  0
VERTEX
  8
0
 10
33.46231075
 20
102.12568554
  0
VERTEX
  8
0
 10
33.72821988
 20
102.27983777
  0
VERTEX
  8
0
 10
33.97088989
 20
102.45822664
  0
VERTEX
  8
0
 10
34.19145181
 20
102.65713370
  0
VERTEX
  8
0
 10
34.39103667
 20
102.87284052
  0
VERTEX
  8
0
 10
34.57077552
 20
103.10162864
  0
VERTEX
  8
0
 10
34.73179937
 20
103.33977964
  0
VERTEX
  8
0
 10
34.87523927
 20
103.58357505
  0
VERTEX
  8
0
 10
35.00222624
 20
103.82929645
  0
VERTEX
  8
0
 10
35.21033631
 20
104.31565393
  0
VERTEX
  8
0
 10
35.36071919
 20
104.78935367
  0
VERTEX
  8
0
 10
35.45698437
 20
105.24500599
  0
VERTEX
  8
0
 10
35.50274133
 20
105.67722122
  0
VERTEX
  8
0
 10
35.50044755
 20
106.08343753
  0
VERTEX
  8
0
 10
35.44854178
 20
106.47250265
  0
VERTEX
  8
0
 10
35.34431077
 20
106.85614127
  0
VERTEX
  8
0
 10
35.18504127
 20
107.24607806
  0
VERTEX
  8
0
 10
34.96984728
 20
107.65095821
  0
VERTEX
  8
0
 10
34.70505358
 20
108.06661769
  0
VERTEX
  8
0
 10
34.39876310
 20
108.48586211
  0
VERTEX
  8
0
 10
34.05907875
 20
108.90149704
  0
SEQEND
  0
POLYLINE
  8
0
 66
   1
 70
    1
  0
VERTEX
  8
0
 10
40.81577061
 20
116.37962733
  0
VERTEX
  8
0
 10
41.06594452
 20
116.13330461
  0
VERTEX
  8
0
 10
41.30314301
 20
115.87086199
  0
VERTEX
  8
0
 10
41.52612763
 20
115.59240995
  0
VERTEX
  8
0
 10
41.73365990
 20
115.29805900
  0
VERTEX
  8
0
 10
41.92450139
 20
114.98791962
  0
VERTEX
  8
0
 10
42.09741362
 20
114.66210232
  0
VERTEX
  8
0
 10
42.25115814
 20
114.32071758
  0
VERTEX
  8
0
 10
42.38449650
 20
113.96387590
  0
VERTEX
  8
0
 10
42.49639050
 20
113.59242160
  0
VERTEX
  8
0
 10
42.58662759
 20
113.21013423
  0
VERTEX
  8
0
 10
42.65520779
 20
112.82152721
  0
VERTEX
  8
0
 10
42.70213108
 20
112.43111390
  0
VERTEX
  8
0
 10
42.72739746
 20
112.04340771
  0
VERTEX
  8
0
 10
42.73100695
 20
111.66292202
  0
VERTEX
  8
0
 10
42.71295953
 20
111.29417022
  0
VERTEX
  8
0
 10
42.67325521
 20
110.94166571
  0
VERTEX
  8
0
 10
42.61225692
 20
110.60905632
  0
VERTEX
  8
0
 10
42.53175484
 20
110.29652776
  0
VERTEX
  8
0
 10
42.43388980
 20
110.00340018
  0
VERTEX
  8
0
 10
42.32080261
 20
109.72899372
  0
VERTEX
  8
0
 10
42.19463412
 20
109.47262854
  0
VERTEX
  8
0
 10
42.05752514
 20
109.23362480
  0
VERTEX
  8
0
 10
41.91161651
 20
109.01130264
  0
VERTEX
  8
0
 10
41.75904906
 20
108.80498222
  0
VERTEX
  8
0
 10
41.60131932
 20
108.61417680
  0
VERTEX
  8
0
 10
41.43761675
 20
108.43882832
  0
VERTEX
  8
0
 10
41.26647422
 20
108.27904727
  0
VERTEX
  8
0
 10
41.08642461
 20
108.13494416
  0
VERTEX
  8
0
 10
40.89600081
 20
108.00662946
  0
VERTEX
  8
0
 10
40.69373568
 20
107.89421368
  0
VERTEX
  8
0
 10
40.47816213
 20
107.79780731
  0
VERTEX
  8
0
 10
40.24781301
 20
107.71752085
  0
VERTEX
  8
0
 10
40.00214814
 20
107.65339599
  0
VERTEX
  8
0
 10
39.74431047
 20
107.60517464
  0
VERTEX
  8
0
 10
39.47835760
 20
107.57251767
  0
VERTEX
  8
0
 10
39.20834714
 20
107.55508589
  0
VERTEX
  8
0
 10
38.67238380
 20
107.56454135
  0
VERTEX
  8
0
 10
38.41454613
 20
107.59075027
  0
VERTEX
  8
0
 10
38.16888126
 20
107.63082776
  0
VERTEX
  8
0
 10
37.93818071
 20
107.68472269
  0
VERTEX
  8
0
 10
37.72012257
 20
107.75326579
  0
VERTEX
  8
0
 10
37.51109427
 20
107.83758811
  0
VERTEX
  8
0
 10
37.30748326
 20
107.93882068
  0
VERTEX
  8
0
 10
37.10567700
 20
108.05809453
  0
VERTEX
  8
0
 10
36.90206292
 20
108.19654069
  0
VERTEX
  8
0
 10
36.47496113
 20
108.53547409
  0
VERTEX
  8
0
 10
36.00815501
 20
108.95945544
  0
VERTEX
  8
0
 10
35.52693551
 20
109.45107165
  0
VERTEX
  8
0
 10
35.06737292
 20
109.98779412
  0
VERTEX
  8
0
 10
34.85698492
 20
110.26603003
  0
VERTEX
  8
0
 10
34.66553751
 20
110.54709428
  0
VERTEX
  8
0
 10
34.49653095
 20
110.82870360
  0
VERTEX
  8
0
 10
34.34940688
 20
111.11075489
  0
VERTEX
  8
0
 10
34.22258616
 20
111.39370241
  0
VERTEX
  8
0
 10
34.11448964
 20
111.67800042
  0
VERTEX
  8
0
 10
34.02353817
 20
111.96410317
  0
VERTEX
  8
0
 10
33.94815260
 20
112.25246491
  0
VERTEX
  8
0
 10
33.83776255
 20
112.83778242
  0
VERTEX
  8
0
 10
33.77429579
 20
113.43422916
  0
VERTEX
  8
0
 10
33.76316655
 20
114.02884661
  0
VERTEX
  8
0
 10
33.78004840
 20
114.32040119
  0
VERTEX
  8
0
 10
33.81339853
 20
114.60541664
  0
VERTEX
  8
0
 10
33.86434489
 20
114.88186571
  0
VERTEX
  8
0
 10
33.93401545
 20
115.14772113
  0
VERTEX
  8
0
 10
34.02303071
 20
115.40131934
  0
VERTEX
  8
0
 10
34.12998137
 20
115.64250075
  0
VERTEX
  8
0
 10
34.25295064
 20
115.87149400
  0
VERTEX
  8
0
 10
34.39002176
 20
116.08852778
  0
VERTEX
  8
0
 10
34.53927796
 20
116.29383073
  0
VERTEX
  8
0
 10
34.69880247
 20
116.48763152
  0
VERTEX
  8
0
 10
35.04098931
 20
116.84164126
  0
VERTEX
  8
0
 10
35.40398594
 20
117.15128341
  0
VERTEX
  8
0
 10
35.78683472
 20
117.41306921
  0
VERTEX
  8
0
 10
36.19136497
 20
117.62250521
  0
VERTEX
  8
0
 10
36.40233229
 20
117.70618784
  0
VERTEX
  8
0
 10
36.61940596
 20
117.77509799
  0
VERTEX
  8
0
 10
36.84273434
 20
117.82867908
  0
VERTEX
  8
0
 10
37.07248826
 20
117.86612491
  0
VERTEX
  8
0
 10
37.30878285
 20
117.88664669
  0
VERTEX
  8
0
 10
37.55173319
 20
117.88945560
  0
VERTEX
  8
0
 10
37.80145438
 20
117.87376284
  0
VERTEX
  8
0
 10
38.05806152
 20
117.83877959
  0
VERTEX
  8
0
 10
38.32166970
 20
117.78371706
  0
VERTEX
  8
0
 10
38.59239404
 20
117.70778643
  0
VERTEX
  8
0
 10
38.86992401
 20
117.61044879
  0
VERTEX
  8
0
 10
39.15229578
 20
117.49214023
  0
VERTEX
  8
0
 10
39.43714447
 20
117.35353447
  0
VERTEX
  8
0
 10
39.72210519
 20
117.19530520
  0
VERTEX
  8
0
 10
40.00481305
 20
117.01812615
  0
VERTEX
  8
0
 10
40.28290317
 20
116.82267101
  0
VERTEX
  8
0
 10
40.55401065
 20
116.60961350
  0
VERTEX
  8
0
 10
40.81577061
 20
116.37962733
  0
SEQEND
  0
POLYLINE
  8
0
 66
   1
 70
    1
  0
VERTEX
  8
0
 10
43.98229468
 20
119.52690082
  0
VERTEX
  8
0
 10
43.87872894
 20
119.29022487
  0
VERTEX
  8
0
 10
43.78542844
 20
119.03561814
  0
VERTEX
  8
0
 10
43.70363470
 20
118.76409349
  0
VERTEX
  8
0
 10
43.63458926
 20
118.47666379
  0
VERTEX
  8
0
 10
43.57953363
 20
118.17434189
  0
VERTEX
  8
0
 10
43.53970935
 20
117.85814067
  0
VERTEX
  8
0
 10
43.51635794
 20
117.52907299
  0
VERTEX
  8
0
 10
43.51072094
 20
117.18815171
  0
VERTEX
  8
0
 10
43.52372731
 20
116.83675905
  0
VERTEX
  8
0
 10
43.55535045
 20
116.47770544
  0
VERTEX
  8
0
 10
43.60525120
 20
116.11414611
  0
VERTEX
  8
0
 10
43.67309042
 20
115.74923629
  0
VERTEX
  8
0
 10
43.75852894
 20
115.38613122
  0
VERTEX
  8
0
 10
43.86122760
 20
115.02798612
  0
VERTEX
  8
0
 10
43.98084726
 20
114.67795622
  0
VERTEX
  8
0
 10
44.11704875
 20
114.33919674
  0
VERTEX
  8
0
 10
44.26943102
 20
114.01455549
  0
VERTEX
  8
0
 10
44.43736998
 20
113.70560137
  0
VERTEX
  8
0
 10
44.62019192
 20
113.41357131
  0
VERTEX
  8
0
 10
44.81722314
 20
113.13970224
  0
VERTEX
  8
0
 10
45.02778992
 20
112.88523107
  0
VERTEX
  8
0
 10
45.25121856
 20
112.65139473
  0
VERTEX
  8
0
 10
45.48683534
 20
112.43943014
  0
VERTEX
  8
0
 10
45.73396656
 20
112.25057423
  0
VERTEX
  8
0
 10
45.99177584
 20
112.08559918
  0
VERTEX
  8
0
 10
46.25882521
 20
111.94307444
  0
VERTEX
  8
0
 10
46.53353860
 20
111.82108018
  0
VERTEX
  8
0
 10
46.81433992
 20
111.71769655
  0
VERTEX
  8
0
 10
47.09965309
 20
111.63100372
  0
VERTEX
  8
0
 10
47.38790204
 20
111.55908184
  0
VERTEX
  8
0
 10
47.96690295
 20
111.45187157
  0
VERTEX
  8
0
 10
48.53958726
 20
111.38554628
  0
VERTEX
  8
0
 10
49.09780908
 20
111.36884526
  0
VERTEX
  8
0
 10
49.36924830
 20
111.38333179
  0
VERTEX
  8
0
 10
49.63437400
 20
111.41529792
  0
VERTEX
  8
0
 10
49.89228686
 20
111.46643484
  0
VERTEX
  8
0
 10
50.14208760
 20
111.53843371
  0
VERTEX
  8
0
 10
50.38301502
 20
111.63254066
  0
VERTEX
  8
0
 10
50.61490952
 20
111.74795156
  0
VERTEX
  8
0
 10
50.83777418
 20
111.88342946
  0
VERTEX
  8
0
 10
51.05161205
 20
112.03773745
  0
VERTEX
  8
0
 10
51.25642622
 20
112.20963861
  0
VERTEX
  8
0
 10
51.45221974
 20
112.39789601
  0
VERTEX
  8
0
 10
51.63899570
 20
112.60127273
  0
VERTEX
  8
0
 10
51.81675715
 20
112.81853184
  0
VERTEX
  8
0
 10
51.98525063
 20
113.04863055
  0
VERTEX
  8
0
 10
52.14324561
 20
113.29135171
  0
VERTEX
  8
0
 10
52.28927956
 20
113.54669686
  0
VERTEX
  8
0
 10
52.42188999
 20
113.81466753
  0
VERTEX
  8
0
 10
52.53961436
 20
114.09526526
  0
VERTEX
  8
0
 10
52.64099016
 20
114.38849157
  0
VERTEX
  8
0
 10
52.72455488
 20
114.69434801
  0
VERTEX
  8
0
 10
52.78884599
 20
115.01283611
  0
VERTEX
  8
0
 10
52.83283939
 20
115.34338574
  0
VERTEX
  8
0
 10
52.85755919
 20
115.68284553
  0
VERTEX
  8
0
 10
52.86446790
 20
116.02749241
  0
VERTEX
  8
0
 10
52.85502805
 20
116.37360334
  0
VERTEX
  8
0
 10
52.79295270
 20
117.05532516
  0
VERTEX
  8
0
 10
52.68303328
 20
117.69822662
  0
VERTEX
  8
0
 10
52.53534523
 20
118.27976685
  0
VERTEX
  8
0
 10
52.35336709
 20
118.80628087
  0
VERTEX
  8
0
 10
52.13890359
 20
119.29129810
  0
VERTEX
  8
0
 10
51.89375947
 20
119.74834797
  0
VERTEX
  8
0
 10
51.61870821
 20
120.18627822
  0
VERTEX
  8
0
 10
51.31029991
 20
120.59530804
  0
VERTEX
  8
0
 10
51.14217117
 20
120.78448111
  0
VERTEX
  8
0
 10
50.96400431
 20
120.96102405
  0
VERTEX
  8
0
 10
50.77523307
 20
121.12313520
  0
VERTEX
  8
0
 10
50.57529114
 20
121.26901288
  0
VERTEX
  8
0
 10
50.36392685
 20
121.39735060
  0
VERTEX
  8
0
 10
50.14241704
 20
121.50887168
  0
VERTEX
  8
0
 10
49.91234083
 20
121.60481919
  0
VERTEX
  8
0
 10
49.67527739
 20
121.68643619
  0
VERTEX
  8
0
 10
49.18650539
 20
121.81165090
  0
VERTEX
  8
0
 10
48.68873424
 20
121.89446032
  0
VERTEX
  8
0
 10
48.19301542
 20
121.94187265
  0
VERTEX
  8
0
 10
47.70456468
 20
121.94865987
  0
VERTEX
  8
0
 10
47.22696694
 20
121.90670678
  0
VERTEX
  8
0
 10
46.99335824
 20
121.86491662
  0
VERTEX
  8
0
 10
46.76380714
 20
121.80789818
  0
VERTEX
  8
0
 10
46.53872493
 20
121.73509362
  0
VERTEX
  8
0
 10
46.31862110
 20
121.64774677
  0
VERTEX
  8
0
 10
45.89514106
 20
121.43617864
  0
VERTEX
  8
0
 10
45.49695197
 20
121.18669864
  0
VERTEX
  8
0
 10
45.12763875
 20
120.91281166
  0
VERTEX
  8
0
 10
44.79028501
 20
120.62320788
  0
VERTEX
  8
0
 10
44.48636197
 20
120.30653296
  0
VERTEX
  8
0
 10
44.34720936
 20
120.13296032
  0
VERTEX
  8
0
 10
44.21674130
 20
119.94651969
  0
VERTEX
  8
0
 10
44.09506676
 20
119.74517765
  0
VERTEX
  8
0
 10
43.98229468
 20
119.52690082
  0
SEQEND
  0
POLYLINE
  8
0
 66
   1
 70
    1
  0
VERTEX
  8
0
 10
56.07087355
 20
123.23244114
  0
VERTEX
  8
0
 10
55.96337860
 20
122.84360008
  0
VERTEX
  8
0
 10
55.87144956
 20
122.44258622
  0
VERTEX
  8
0
 10
55.79440964
 20
122.02984768
  0
VERTEX
  8
0
 10
55.73158206
 20
121.60583256
  0
VERTEX
  8
0
 10
55.64585682
 20
120.72576510
  0
VERTEX
  8
0
 10
55.60885961
 20
119.80596876
  0
VERTEX
  8
0
 10
55.61728174
 20
118.85509689
  0
VERTEX
  8
0
 10
55.67623664
 20
117.90148721
  0
VERTEX
  8
0
 10
55.72691981
 20
117.43409512
  0
VERTEX
  8
0
 10
55.79294329
 20
116.97854588
  0
VERTEX
  8
0
 10
55.87520944
 20
116.53901525
  0
VERTEX
  8
0
 10
55.97462064
 20
116.11967901
  0
VERTEX
  8
0
 10
56.09177847
 20
115.72379112
  0
VERTEX
  8
0
 10
56.22608135
 20
115.35067275
  0
VERTEX
  8
0
 10
56.37662691
 20
114.99874782
  0
VERTEX
  8
0
 10
56.54251277
 20
114.66644025
  0
VERTEX
  8
0
 10
56.72283657
 20
114.35217395
  0
VERTEX
  8
0
 10
56.91669593
 20
114.05437286
  0
VERTEX
  8
0
 10
57.12318849
 20
113.77146090
  0
VERTEX
  8
0
 10
57.34141186
 20
113.50186197
  0
VERTEX
  8
0
 10
57.57053301
 20
113.24418697
  0
VERTEX
  8
0
 10
57.81002068
 20
112.99779468
  0
VERTEX
  8
0
 10
58.31829698
 20
112.53704120
  0
VERTEX
  8
0
 10
58.86264357
 20
112.11596749
  0
VERTEX
  8
0
 10
59.43946323
 20
111.73093951
  0
VERTEX
  8
0
 10
60.04705764
 20
111.38010546
  0
VERTEX
  8
0
 10
60.69073460
 20
111.06805494
  0
VERTEX
  8
0
 10
61.02835613
 20
110.92854936
  0
VERTEX
  8
0
 10
61.37770082
 20
110.80111069
  0
VERTEX
  8
0
 10
61.73966949
 20
110.68652927
  0
VERTEX
  8
0
 10
62.11516298
 20
110.58559545
  0
VERTEX
  8
0
 10
62.50421070
 20
110.49906170
  0
VERTEX
  8
0
 10
62.90306174
 20
110.42752911
  0
VERTEX
  8
0
 10
63.30709373
 20
110.37156088
  0
VERTEX
  8
0
 10
63.71168434
 20
110.33172023
  0
VERTEX
  8
0
 10
64.11221121
 20
110.30857037
  0
VERTEX
  8
0
 10
64.50405199
 20
110.30267452
  0
VERTEX
  8
0
 10
64.88258433
 20
110.31459590
  0
VERTEX
  8
0
 10
65.24318589
 20
110.34489771
  0
VERTEX
  8
0
 10
65.58288789
 20
110.39438028
  0
VERTEX
  8
0
 10
65.90509033
 20
110.46449767
  0
VERTEX
  8
0
 10
66.21487137
 20
110.55694108
  0
VERTEX
  8
0
 10
66.51730913
 20
110.67340167
  0
VERTEX
  8
0
 10
66.81748176
 20
110.81557062
  0
VERTEX
  8
0
 10
67.12046739
 20
110.98513912
  0
VERTEX
  8
0
 10
67.43134416
 20
111.18379834
  0
VERTEX
  8
0
 10
67.75519022
 20
111.41323945
  0
VERTEX
  8
0
 10
68.09517715
 20
111.67436280
  0
VERTEX
  8
0
 10
68.44655575
 20
111.96458607
  0
VERTEX
  8
0
 10
68.80267026
 20
112.28052384
  0
VERTEX
  8
0
 10
69.15686493
 20
112.61879069
  0
VERTEX
  8
0
 10
69.50248401
 20
112.97600120
  0
VERTEX
  8
0
 10
69.83287174
 20
113.34876993
  0
VERTEX
  8
0
 10
70.14137237
 20
113.73371145
  0
VERTEX
  8
0
 10
70.42133015
 20
114.12744036
  0
VERTEX
  8
0
 10
70.66786260
 20
114.52673388
  0
VERTEX
  8
0
 10
70.88315583
 20
114.92872531
  0
VERTEX
  8
0
 10
71.07115694
 20
115.33071060
  0
VERTEX
  8
0
 10
71.23581304
 20
115.72998571
  0
VERTEX
  8
0
 10
71.51087863
 20
116.50958921
  0
VERTEX
  8
0
 10
71.73992944
 20
117.24590346
  0
VERTEX
  8
0
 10
71.94642097
 20
117.92626865
  0
VERTEX
  8
0
 10
72.12132338
 20
118.57411167
  0
VERTEX
  8
0
 10
72.19156892
 20
118.89599286
  0
VERTEX
  8
0
 10
72.24748548
 20
119.22193013
  0
VERTEX
  8
0
 10
72.28692917
 20
119.55598566
  0
VERTEX
  8
0
 10
72.30775609
 20
119.90222166
  0
VERTEX
  8
0
 10
72.30858607
 20
120.26348951
  0
VERTEX
  8
0
 10
72.29079929
 20
120.63750258
  0
VERTEX
  8
0
 10
72.20795099
 20
121.40977457
  0
VERTEX
  8
0
 10
72.07636239
 20
122.19105799
  0
VERTEX
  8
0
 10
71.91318466
 20
122.95337320
  0
VERTEX
  8
0
 10
71.73105510
 20
123.67400747
  0
VERTEX
  8
0
 10
71.52455538
 20
124.35131566
  0
VERTEX
  8
0
 10
71.28375329
 20
124.98891953
  0
VERTEX
  8
0
 10
71.14738504
 20
125.29396414
  0
VERTEX
  8
0
 10
70.99871661
 20
125.59044083
  0
VERTEX
  8
0
 10
70.83678706
 20
125.87870794
  0
VERTEX
  8
0
 10
70.66143858
 20
126.15850074
  0
VERTEX
  8
0
 10
70.47278166
 20
126.42948469
  0
VERTEX
  8
0
 10
70.27092680
 20
126.69132522
  0
VERTEX
  8
0
 10
70.05598449
 20
126.94368779
  0
VERTEX
  8
0
 10
69.82806523
 20
127.18623784
  0
VERTEX
  8
0
 10
69.58727951
 20
127.41864082
  0
VERTEX
  8
0
 10
69.33373782
 20
127.64056218
  0
VERTEX
  8
0
 10
69.06754402
 20
127.85165484
  0
VERTEX
  8
0
 10
68.78872622
 20
128.05157067
  0
VERTEX
  8
0
 10
68.49728137
 20
128.23997361
  0
VERTEX
  8
0
 10
68.19320640
 20
128.41652755
  0
VERTEX
  8
0
 10
67.87649824
 20
128.58089642
  0
VERTEX
  8
0
 10
67.54715381
 20
128.73274412
  0
VERTEX
  8
0
 10
67.20517005
 20
128.87173457
  0
VERTEX
  8
0
 10
66.85054389
 20
128.99753168
  0
VERTEX
  8
0
 10
66.48377331
 20
129.10978555
  0
VERTEX
  8
0
 10
66.10706592
 20
129.20782094
  0
VERTEX
  8
0
 10
65.72313035
 20
129.29096108
  0
VERTEX
  8
0
 10
65.33467525
 20
129.35852917
  0
VERTEX
  8
0
 10
64.94440927
 20
129.40984845
  0
VERTEX
  8
0
 10
64.55504106
 20
129.44424214
  0
VERTEX
  8
0
 10
64.16927927
 20
129.46103345
  0
VERTEX
  8
0
 10
63.78983253
 20
129.45954561
  0
VERTEX
  8
0
 10
63.41902559
 20
129.43939547
  0
VERTEX
  8
0
 10
63.05735285
 20
129.40107975
  0
VERTEX
  8
0
 10
62.70492481
 20
129.34538878
  0
VERTEX
  8
0
 10
62.36185196
 20
129.27311291
  0
VERTEX
  8
0
 10
62.02824480
 20
129.18504247
  0
VERTEX
  8
0
 10
61.70421383
 20
129.08196782
  0
VERTEX
  8
0
 10
61.38986953
 20
128.96467929
  0
VERTEX
  8
0
 10
61.08532239
 20
128.83396722
  0
VERTEX
  8
0
 10
60.50575674
 20
128.53665543
  0
VERTEX
  8
0
 10
59.96409066
 20
128.20236484
  0
VERTEX
  8
0
 10
59.45849487
 20
127.84460033
  0
VERTEX
  8
0
 10
58.98714007
 20
127.47686677
  0
VERTEX
  8
0
 10
58.54759333
 20
127.10725276
  0
VERTEX
  8
0
 10
58.13422149
 20
126.72139607
  0
VERTEX
  8
0
 10
57.74068953
 20
126.29941999
  0
VERTEX
  8
0
 10
57.36066244
 20
125.82144780
  0
VERTEX
  8
0
 10
56.99129193
 20
125.27211259
  0
VERTEX
  8
0
 10
56.64357832
 20
124.65330096
  0
VERTEX
  8
0
 10
56.48235471
 20
124.31980967
  0
VERTEX
  8
0
 10
56.33195954
 20
123.97131108
  0
VERTEX
  8
0
 10
56.19419758
 20
123.60859249
  0
VERTEX
  8
0
 10
56.07087355
 20
123.23244114
  0
SEQEND
  0
POLYLINE
  8
0
 66
   1
 70
    1
  0
VERTEX
  8
0
 10
94.63409000
 20
44.37041057
  0
VERTEX
  8
0
 10
94.19134916
 20
45.12236387
  0
VERTEX
  8
0
 10
93.93841033
 20
45.50734965
  0
VERTEX
  8
0
 10
93.66201753
 20
45.89593724
  0
VERTEX
  8
0
 10
93.36036448
 20
46.28632343
  0
VERTEX
  8
0
 10
93.03164491
 20
46.67670502
  0
VERTEX
  8
0
 10
92.67405254
 20
47.06527879
  0
VERTEX
  8
0
 10
92.28578109
 20
47.45024155
  0
VERTEX
  8
0
 10
91.86617884
 20
47.83017707
  0
VERTEX
  8
0
 10
91.41950701
 20
48.20492242
  0
VERTEX
  8
0
 10
90.46661759
 20
48.93973886
  0
VERTEX
  8
0
 10
89.47043892
 20
49.65648331
  0
VERTEX
  8
0
 10
88.47429709
 20
50.35694826
  0
VERTEX
  8
0
 10
87.52026794
 20
51.04483527
  0
VERTEX
  8
0
 10
87.07076494
 20
51.38730167
  0
VERTEX
  8
0
 10
86.64562289
 20
51.73089297
  0
VERTEX
  8
0
 10
86.24935671
 20
52.07719139
  0
VERTEX
  8
0
 10
85.88648132
 20
52.42777913
  0
VERTEX
  8
0
 10
85.56151165
 20
52.78423843
  0
VERTEX
  8
0
 10
85.27896263
 20
53.14815149
  0
VERTEX
  8
0
 10
85.04186466
 20
53.52112561
  0
VERTEX
  8
0
 10
84.84762931
 20
53.90491743
  0
VERTEX
  8
0
 10
84.69219591
 20
54.30133324
  0
VERTEX
  8
0
 10
84.57150379
 20
54.71217931
  0
VERTEX
  8
0
 10
84.48149229
 20
55.13926193
  0
VERTEX
  8
0
 10
84.41810073
 20
55.58438735
  0
VERTEX
  8
0
 10
84.37726844
 20
56.04936187
  0
VERTEX
  8
0
 10
84.35493476
 20
56.53599176
  0
VERTEX
  8
0
 10
84.34797898
 20
57.04518629
  0
VERTEX
  8
0
 10
84.35704029
 20
57.57399665
  0
VERTEX
  8
0
 10
84.38369783
 20
58.11858929
  0
VERTEX
  8
0
 10
84.42953076
 20
58.67513068
  0
VERTEX
  8
0
 10
84.49611822
 20
59.23978726
  0
VERTEX
  8
0
 10
84.58503935
 20
59.80872550
  0
VERTEX
  8
0
 10
84.69787332
 20
60.37811186
  0
VERTEX
  8
0
 10
84.83619927
 20
60.94411280
  0
VERTEX
  8
0
 10
85.00132753
 20
61.50346412
  0
VERTEX
  8
0
 10
85.19351771
 20
62.05515449
  0
VERTEX
  8
0
 10
85.41277288
 20
62.59872966
  0
VERTEX
  8
0
 10
85.65909611
 20
63.13373538
  0
VERTEX
  8
0
 10
85.93249047
 20
63.65971739
  0
VERTEX
  8
0
 10
86.23295903
 20
64.17622143
  0
VERTEX
  8
0
 10
86.56050486
 20
64.68279326
  0
VERTEX
  8
0
 10
86.91513102
 20
65.17897861
  0
VERTEX
  8
0
 10
87.29645207
 20
65.66429817
  0
VERTEX
  8
0
 10
87.70282312
 20
66.13787769
  0
VERTEX
  8
0
 10
88.13221076
 20
66.59881789
  0
VERTEX
  8
0
 10
88.58258160
 20
67.04621945
  0
VERTEX
  8
0
 10
89.05190224
 20
67.47918307
  0
VERTEX
  8
0
 10
89.53813925
 20
67.89680946
  0
VERTEX
  8
0
 10
90.03925926
 20
68.29819931
  0
VERTEX
  8
0
 10
90.55322883
 20
68.68245332
  0
VERTEX
  8
0
 10
91.07877884
 20
69.04832152
  0
VERTEX
  8
0
 10
91.61764803
 20
69.39320039
  0
VERTEX
  8
0
 10
92.17231484
 20
69.71416028
  0
VERTEX
  8
0
 10
92.74525774
 20
70.00827158
  0
VERTEX
  8
0
 10
93.33895517
 20
70.27260463
  0
VERTEX
  8
0
 10
93.95588558
 20
70.50422980
  0
VERTEX
  8
0
 10
94.59852743
 20
70.70021746
  0
VERTEX
  8
0
 10
95.26935916
 20
70.85763797
  0
VERTEX
  8
0
 10
95.97007630
 20
70.97426941
  0
VERTEX
  8
0
 10
96.69921813
 20
71.05074535
  0
VERTEX
  8
0
 10
97.45452872
 20
71.08841934
  0
VERTEX
  8
0
 10
98.23375214
 20
71.08864493
  0
VERTEX
  8
0
 10
99.03463246
 20
71.05277569
  0
VERTEX
  8
0
 10
99.85491375
 20
70.98216516
  0
VERTEX
  8
0
 10
100.69234010
 20
70.87816691
  0
VERTEX
  8
0
 10
101.54465556
 20
70.74213448
  0
VERTEX
  8
0
 10
102.40866425
 20
70.57553987
  0
VERTEX
  8
0
 10
103.27741038
 20
70.38030419
  0
VERTEX
  8
0
 10
104.14299822
 20
70.15845470
  0
VERTEX
  8
0
 10
104.99753202
 20
69.91201867
  0
VERTEX
  8
0
 10
105.83311602
 20
69.64302337
  0
VERTEX
  8
0
 10
106.64185449
 20
69.35349606
  0
VERTEX
  8
0
 10
107.41585167
 20
69.04546401
  0
VERTEX
  8
0
 10
108.14721183
 20
68.72095448
  0
VERTEX
  8
0
 10
108.83037596
 20
68.38170622
  0
VERTEX
  8
0
 10
109.46910753
 20
68.02825483
  0
VERTEX
  8
0
 10
110.06949448
 20
67.66082283
  0
VERTEX
  8
0
 10
110.63762473
 20
67.27963274
  0
VERTEX
  8
0
 10
111.17958623
 20
66.88490708
  0
VERTEX
  8
0
 10
111.70146690
 20
66.47686839
  0
VERTEX
  8
0
 10
112.20935468
 20
66.05573917
  0
VERTEX
  8
0
 10
112.70933751
 20
65.62174196
  0
VERTEX
  8
0
 10
113.69916070
 20
64.71583927
  0
VERTEX
  8
0
 10
114.18630009
 20
64.24392739
  0
VERTEX
  8
0
 10
114.66554681
 20
63.75937925
  0
VERTEX
  8
0
 10
115.13486744
 20
63.26219791
  0
VERTEX
  8
0
 10
115.59222858
 20
62.75238645
  0
VERTEX
  8
0
 10
116.03559684
 20
62.22994794
  0
VERTEX
  8
0
 10
116.46293881
 20
61.69488544
  0
VERTEX
  8
0
 10
116.87242161
 20
61.14749054
  0
VERTEX
  8
0
 10
117.26271981
 20
60.58925797
  0
VERTEX
  8
0
 10
117.63270853
 20
60.02199556
  0
VERTEX
  8
0
 10
117.98126287
 20
59.44751111
  0
VERTEX
  8
0
 10
118.30725794
 20
58.86761244
  0
VERTEX
  8
0
 10
118.60956884
 20
58.28410735
  0
VERTEX
  8
0
 10
118.88707067
 20
57.69880366
  0
VERTEX
  8
0
 10
119.13863855
 20
57.11350918
  0
VERTEX
  8
0
 10
119.36343609
 20
56.52923549
  0
VERTEX
  8
0
 10
119.56183007
 20
55.94383383
  0
VERTEX
  8
0
 10
119.73450034
 20
55.35437151
  0
VERTEX
  8
0
 10
119.88212675
 20
54.75791581
  0
VERTEX
  8
0
 10
120.00538914
 20
54.15153403
  0
VERTEX
  8
0
 10
120.10496736
 20
53.53229347
  0
VERTEX
  8
0
 10
120.18154126
 20
52.89726141
  0
VERTEX
  8
0
 10
120.23579069
 20
52.24350516
  0
VERTEX
  8
0
 10
120.26842644
 20
51.56891355
  0
VERTEX
  8
0
 10
120.28030766
 20
50.87468616
  0
VERTEX
  8
0
 10
120.27233671
 20
50.16285640
  0
VERTEX
  8
0
 10
120.24541598
 20
49.43545767
  0
VERTEX
  8
0
 10
120.20044783
 20
48.69452338
  0
VERTEX
  8
0
 10
120.13833463
 20
47.94208693
  0
VERTEX
  8
0
 10
119.96628256
 20
46.41084116
  0
VERTEX
  8
0
 10
119.85747729
 20
45.63564081
  0
VERTEX
  8
0
 10
119.73108499
 20
44.85434946
  0
VERTEX
  8
0
 10
119.58394430
 20
44.06629033
  0
VERTEX
  8
0
 10
119.41289385
 20
43.27078664
  0
VERTEX
  8
0
 10
119.21477227
 20
42.46716161
  0
VERTEX
  8
0
 10
118.98641819
 20
41.65473846
  0
VERTEX
  8
0
 10
118.72467025
 20
40.83284041
  0
VERTEX
  8
0
 10
118.42636707
 20
40.00079070
  0
VERTEX
  8
0
 10
118.08952539
 20
39.15840694
  0
VERTEX
  8
0
 10
117.71657967
 20
38.30745987
  0
VERTEX
  8
0
 10
117.31114245
 20
37.45020233
  0
VERTEX
  8
0
 10
116.87682629
 20
36.58888720
  0
VERTEX
  8
0
 10
116.41724375
 20
35.72576733
  0
VERTEX
  8
0
 10
115.93600737
 20
34.86309557
  0
VERTEX
  8
0
 10
115.43672971
 20
34.00312479
  0
VERTEX
  8
0
 10
114.92302332
 20
33.14810784
  0
VERTEX
  8
0
 10
113.86191282
 20
31.45956919
  0
VERTEX
  8
0
 10
112.75746396
 20
29.80351590
  0
VERTEX
  8
0
 10
111.60970130
 20
28.18355744
  0
VERTEX
  8
0
 10
110.41864938
 20
26.60330331
  0
VERTEX
  8
0
 10
109.80703574
 20
25.82964426
  0
VERTEX
  8
0
 10
109.18548682
 20
25.06997042
  0
VERTEX
  8
0
 10
108.55490804
 20
24.32743857
  0
VERTEX
  8
0
 10
107.91620486
 20
23.60520545
  0
VERTEX
  8
0
 10
107.27028271
 20
22.90642785
  0
VERTEX
  8
0
 10
106.61804703
 20
22.23426251
  0
VERTEX
  8
0
 10
105.96040327
 20
21.59186620
  0
VERTEX
  8
0
 10
105.29825686
 20
20.98239570
  0
VERTEX
  8
0
 10
104.63276978
 20
20.40838622
  0
VERTEX
  8
0
 10
103.96615474
 20
19.86956768
  0
VERTEX
  8
0
 10
103.30089326
 20
19.36503616
  0
VERTEX
  8
0
 10
102.63946685
 20
18.89388777
  0
VERTEX
  8
0
 10
101.98435704
 20
18.45521859
  0
VERTEX
  8
0
 10
101.33804535
 20
18.04812473
  0
VERTEX
  8
0
 10
100.70301329
 20
17.67170226
  0
VERTEX
  8
0
 10
100.08174239
 20
17.32504730
  0
VERTEX
  8
0
 10
99.47565578
 20
17.00753115
  0
VERTEX
  8
0
 10
98.88196756
 20
16.71957685
  0
VERTEX
  8
0
 10
98.29684572
 20
16.46185811
  0
VERTEX
  8
0
 10
97.71645826
 20
16.23504865
  0
VERTEX
  8
0
 10
97.13697317
 20
16.03982218
  0
VERTEX
  8
0
 10
96.55455845
 20
15.87685240
  0
VERTEX
  8
0
 10
95.96538208
 20
15.74681302
  0
VERTEX
  8
0
 10
95.36561206
 20
15.65037775
  0
VERTEX
  8
0
 10
94.75249448
 20
15.58800135
  0
VERTEX
  8
0
 10
94.12763686
 20
15.55923828
  0
VERTEX
  8
0
 10
93.49374939
 20
15.56341175
  0
VERTEX
  8
0
 10
92.85354226
 20
15.59984497
  0
VERTEX
  8
0
 10
92.20972564
 20
15.66786119
  0
VERTEX
  8
0
 10
91.56500972
 20
15.76678360
  0
VERTEX
  8
0
 10
90.92210468
 20
15.89593545
  0
VERTEX
  8
0
 10
90.28372071
 20
16.05463994
  0
VERTEX
  8
0
 10
89.65305011
 20
16.24176349
  0
VERTEX
  8
0
 10
89.03523830
 20
16.45436982
  0
VERTEX
  8
0
 10
88.43592509
 20
16.68907809
  0
VERTEX
  8
0
 10
87.86075031
 20
16.94250749
  0
VERTEX
  8
0
 10
87.31535377
 20
17.21127720
  0
VERTEX
  8
0
 10
86.80537529
 20
17.49200639
  0
VERTEX
  8
0
 10
86.33645469
 20
17.78131425
  0
VERTEX
  8
0
 10
85.91423179
 20
18.07581994
  0
VERTEX
  8
0
 10
85.54249255
 20
18.37307010
  0
VERTEX
  8
0
 10
85.21790219
 20
18.67437018
  0
VERTEX
  8
0
 10
84.93527209
 20
18.98197764
  0
VERTEX
  8
0
 10
84.68941360
 20
19.29814996
  0
VERTEX
  8
0
 10
84.47513809
 20
19.62514459
  0
VERTEX
  8
0
 10
84.28725694
 20
19.96521900
  0
VERTEX
  8
0
 10
84.12058150
 20
20.32063065
  0
VERTEX
  8
0
 10
83.96992315
 20
20.69363699
  0
VERTEX
  8
0
 10
83.83126444
 20
21.08537853
  0
VERTEX
  8
0
 10
83.70524813
 20
21.49223325
  0
VERTEX
  8
0
 10
83.59367589
 20
21.90946216
  0
VERTEX
  8
0
 10
83.49834940
 20
22.33232629
  0
VERTEX
  8
0
 10
83.42107033
 20
22.75608665
  0
VERTEX
  8
0
 10
83.36364035
 20
23.17600426
  0
VERTEX
  8
0
 10
83.32786114
 20
23.58734014
  0
VERTEX
  8
0
 10
83.31553436
 20
23.98535531
  0
VERTEX
  8
0
 10
83.32853792
 20
24.36660116
  0
VERTEX
  8
0
 10
83.36905458
 20
24.73249596
  0
VERTEX
  8
0
 10
83.43934334
 20
25.08574836
  0
VERTEX
  8
0
 10
83.54166321
 20
25.42906701
  0
VERTEX
  8
0
 10
83.67827317
 20
25.76516055
  0
VERTEX
  8
0
 10
83.85143222
 20
26.09673763
  0
VERTEX
  8
0
 10
84.06339937
 20
26.42650689
  0
VERTEX
  8
0
 10
84.31643360
 20
26.75717700
  0
VERTEX
  8
0
 10
84.61218005
 20
27.09173078
  0
VERTEX
  8
0
 10
84.94987755
 20
27.43395318
  0
VERTEX
  8
0
 10
85.32817561
 20
27.78790333
  0
VERTEX
  8
0
 10
85.74572373
 20
28.15764037
  0
VERTEX
  8
0
 10
86.69316822
 20
28.96071165
  0
VERTEX
  8
0
 10
87.78140714
 20
29.87564010
  0
VERTEX
  8
0
 10
88.98717937
 20
30.91750002
  0
VERTEX
  8
0
 10
90.23808243
 20
32.03157416
  0
VERTEX
  8
0
 10
91.44930571
 20
33.14564831
  0
VERTEX
  8
0
 10
92.53603863
 20
34.18750823
  0
VERTEX
  8
0
 10
93.00841858
 20
34.66158550
  0
VERTEX
  8
0
 10
93.43139525
 20
35.10700174
  0
VERTEX
  8
0
 10
93.80790288
 20
35.53120305
  0
VERTEX
  8
0
 10
94.14087572
 20
35.94163554
  0
VERTEX
  8
0
 10
94.43324801
 20
36.34574529
  0
VERTEX
  8
0
 10
94.68795398
 20
36.75097840
  0
VERTEX
  8
0
 10
94.90792787
 20
37.16478097
  0
VERTEX
  8
0
 10
95.09610394
 20
37.59459908
  0
VERTEX
  8
0
 10
95.25503402
 20
38.04567151
  0
VERTEX
  8
0
 10
95.38576502
 20
38.51411305
  0
VERTEX
  8
0
 10
95.48897370
 20
38.99383115
  0
VERTEX
  8
0
 10
95.56533684
 20
39.47873329
  0
VERTEX
  8
0
 10
95.61553122
 20
39.96272691
  0
VERTEX
  8
0
 10
95.64023363
 20
40.43971948
  0
VERTEX
  8
0
 10
95.64012083
 20
40.90361847
  0
VERTEX
  8
0
 10
95.61586961
 20
41.34833134
  0
VERTEX
  8
0
 10
95.56815675
 20
41.76950710
  0
VERTEX
  8
0
 10
95.49765902
 20
42.16971195
  0
VERTEX
  8
0
 10
95.40505320
 20
42.55322907
  0
VERTEX
  8
0
 10
95.29101607
 20
42.92434167
  0
VERTEX
  8
0
 10
95.15622440
 20
43.28733292
  0
VERTEX
  8
0
 10
95.00135499
 20
43.64648603
  0
VERTEX
  8
0
 10
94.82708459
 20
44.00608418
  0
VERTEX
  8
0
 10
94.63409000
 20
44.37041057
  0
SEQEND
  0
POLYLINE
  8
0
 66
   1
 70
    1
  0
VERTEX
  8
0
 10
121.69385847
 20
60.49676597
  0
VERTEX
  8
0
 10
122.03750221
 20
60.81439851
  0
VERTEX
  8
0
 10
122.46147537
 20
61.15726059
  0
VERTEX
  8
0
 10
122.69991386
 20
61.32631678
  0
VERTEX
  8
0
 10
122.95402873
 20
61.48747721
  0
VERTEX
  8
0
 10
123.22235135
 20
61.63600752
  0
VERTEX
  8
0
 10
123.50341305
 20
61.76717333
  0
VERTEX
  8
0
 10
123.79547329
 20
61.87717000
  0
VERTEX
  8
0
 10
124.09570397
 20
61.96591184
  0
VERTEX
  8
0
 10
124.40100513
 20
62.03424291
  0
VERTEX
  8
0
 10
124.70827676
 20
62.08300726
  0
VERTEX
  8
0
 10
125.01441890
 20
62.11304895
  0
VERTEX
  8
0
 10
125.31633156
 20
62.12521203
  0
VERTEX
  8
0
 10
125.61091476
 20
62.12034056
  0
VERTEX
  8
0
 10
125.89506851
 20
62.09927859
  0
VERTEX
  8
0
 10
126.16625631
 20
62.06280495
  0
VERTEX
  8
0
 10
126.42394997
 20
62.01143758
  0
VERTEX
  8
0
 10
126.66820936
 20
61.94562921
  0
VERTEX
  8
0
 10
126.89909432
 20
61.86583256
  0
VERTEX
  8
0
 10
127.11666471
 20
61.77250034
  0
VERTEX
  8
0
 10
127.32098037
 20
61.66608528
  0
VERTEX
  8
0
 10
127.51210116
 20
61.54704009
  0
VERTEX
  8
0
 10
127.69008693
 20
61.41581750
  0
VERTEX
  8
0
 10
127.85505303
 20
61.27308584
  0
VERTEX
  8
0
 10
128.00733683
 20
61.12013038
  0
VERTEX
  8
0
 10
128.27542899
 20
60.78964981
  0
VERTEX
  8
0
 10
128.49750637
 20
60.43657926
  0
VERTEX
  8
0
 10
128.67671192
 20
60.07312224
  0
VERTEX
  8
0
 10
128.81393779
 20
59.70804055
  0
VERTEX
  8
0
 10
128.90107286
 20
59.33573989
  0
VERTEX
  8
0
 10
128.92261824
 20
59.14405870
  0
VERTEX
  8
0
 10
128.92775521
 20
58.94718427
  0
VERTEX
  8
0
 10
128.91518852
 20
58.74398711
  0
VERTEX
  8
0
 10
128.88362293
 20
58.53333771
  0
VERTEX
  8
0
 10
128.83213279
 20
58.31465240
  0
VERTEX
  8
0
 10
128.76129539
 20
58.08953080
  0
VERTEX
  8
0
 10
128.67206988
 20
57.86011833
  0
VERTEX
  8
0
 10
128.56541541
 20
57.62856042
  0
VERTEX
  8
0
 10
128.30365622
 20
57.16759005
  0
VERTEX
  8
0
 10
127.98369102
 20
56.72378314
  0
VERTEX
  8
0
 10
127.61499302
 20
56.31397099
  0
VERTEX
  8
0
 10
127.21413706
 20
55.95365624
  0
VERTEX
  8
0
 10
127.00737662
 20
55.79680116
  0
VERTEX
  8
0
 10
126.79944883
 20
55.65800936
  0
VERTEX
  8
0
 10
126.59264440
 20
55.53917715
  0
VERTEX
  8
0
 10
126.38925405
 20
55.44220083
  0
VERTEX
  8
0
 10
125.99059007
 20
55.28310688
  0
VERTEX
  8
0
 10
125.59956964
 20
55.14694001
  0
VERTEX
  8
0
 10
125.21813154
 20
55.03287508
  0
VERTEX
  8
0
 10
124.84821452
 20
54.94008698
  0
VERTEX
  8
0
 10
124.49175735
 20
54.86775057
  0
VERTEX
  8
0
 10
124.15069881
 20
54.81504074
  0
VERTEX
  8
0
 10
123.82697766
 20
54.78113234
  0
VERTEX
  8
0
 10
123.52253267
 20
54.76520026
  0
VERTEX
  8
0
 10
123.23879097
 20
54.76642490
  0
VERTEX
  8
0
 10
122.97513316
 20
54.78400886
  0
VERTEX
  8
0
 10
122.73042822
 20
54.81716025
  0
VERTEX
  8
0
 10
122.50354509
 20
54.86508720
  0
VERTEX
  8
0
 10
122.29335277
 20
54.92699783
  0
VERTEX
  8
0
 10
122.09872020
 20
55.00210026
  0
VERTEX
  8
0
 10
121.91851636
 20
55.08960262
  0
VERTEX
  8
0
 10
121.75161021
 20
55.18871303
  0
VERTEX
  8
0
 10
121.59708993
 20
55.29864243
  0
VERTEX
  8
0
 10
121.45462581
 20
55.41856390
  0
VERTEX
  8
0
 10
121.20542410
 20
55.68498841
  0
VERTEX
  8
0
 10
121.00312112
 20
55.98119731
  0
VERTEX
  8
0
 10
120.84683293
 20
56.30040132
  0
VERTEX
  8
0
 10
120.73559576
 20
56.63762206
  0
VERTEX
  8
0
 10
120.66763556
 20
56.99512465
  0
VERTEX
  8
0
 10
120.64114759
 20
57.37698513
  0
VERTEX
  8
0
 10
120.65432712
 20
57.78727950
  0
VERTEX
  8
0
 10
120.70428696
 20
58.22474116
  0
VERTEX
  8
0
 10
120.78312267
 20
58.66624202
  0
VERTEX
  8
0
 10
120.88179827
 20
59.08336044
  0
VERTEX
  8
0
 10
120.99127776
 20
59.44767481
  0
VERTEX
  8
0
 10
121.10781457
 20
59.74153672
  0
VERTEX
  8
0
 10
121.24872154
 20
59.99029236
  0
VERTEX
  8
0
 10
121.43655179
 20
60.23001202
  0
VERTEX
  8
0
 10
121.69385847
 20
60.49676597
  0
SEQEND
  0
POLYLINE
  8
0
 66
   1
 70
    1
  0
VERTEX
  8
0
 10
117.03980145
 20
70.00118357
  0
VERTEX
  8
0
 10
117.40995974
 20
70.40380880
  0
VERTEX
  8
0
 10
117.61155244
 20
70.59455693
  0
VERTEX
  8
0
 10
117.82791301
 20
70.77480809
  0
VERTEX
  8
0
 10
118.06186061
 20
70.94197180
  0
VERTEX
  8
0
 10
118.31621438
 20
71.09345758
  0
VERTEX
  8
0
 10
118.59379346
 20
71.22667495
  0
VERTEX
  8
0
 10
118.89741699
 20
71.33903344
  0
VERTEX
  8
0
 10
119.22836129
 20
71.42848096
  0
VERTEX
  8
0
 10
119.58141214
 20
71.49514361
  0
VERTEX
  8
0
 10
119.94980022
 20
71.53969818
  0
VERTEX
  8
0
 10
120.32675623
 20
71.56282144
  0
VERTEX
  8
0
 10
120.70551084
 20
71.56519016
  0
VERTEX
  8
0
 10
121.07929474
 20
71.54748113
  0
VERTEX
  8
0
 10
121.44133860
 20
71.51037112
  0
VERTEX
  8
0
 10
121.78487312
 20
71.45453692
  0
VERTEX
  8
0
 10
122.10455108
 20
71.38052383
  0
VERTEX
  8
0
 10
122.40041903
 20
71.28835129
  0
VERTEX
  8
0
 10
122.67394562
 20
71.17790728
  0
VERTEX
  8
0
 10
122.92659952
 20
71.04907975
  0
VERTEX
  8
0
 10
123.15984937
 20
70.90175669
  0
VERTEX
  8
0
 10
123.37516383
 20
70.73582607
  0
VERTEX
  8
0
 10
123.57401155
 20
70.55117586
  0
VERTEX
  8
0
 10
123.75786120
 20
70.34769402
  0
VERTEX
  8
0
 10
123.92781054
 20
70.12560078
  0
VERTEX
  8
0
 10
124.08320378
 20
69.88646991
  0
VERTEX
  8
0
 10
124.22302652
 20
69.63221973
  0
VERTEX
  8
0
 10
124.34626436
 20
69.36476854
  0
VERTEX
  8
0
 10
124.45190289
 20
69.08603464
  0
VERTEX
  8
0
 10
124.53892772
 20
68.79793634
  0
VERTEX
  8
0
 10
124.60632445
 20
68.50239194
  0
VERTEX
  8
0
 10
124.65307867
 20
68.20131976
  0
VERTEX
  8
0
 10
124.67836373
 20
67.89670562
  0
VERTEX
  8
0
 10
124.68210391
 20
67.59051079
  0
VERTEX
  8
0
 10
124.66441125
 20
67.28476408
  0
VERTEX
  8
0
 10
124.62539778
 20
66.98149428
  0
VERTEX
  8
0
 10
124.56517551
 20
66.68273020
  0
VERTEX
  8
0
 10
124.48385649
 20
66.39050064
  0
VERTEX
  8
0
 10
124.38155274
 20
66.10683439
  0
VERTEX
  8
0
 10
124.25837629
 20
65.83376026
  0
VERTEX
  8
0
 10
124.11470083
 20
65.57286788
  0
VERTEX
  8
0
 10
123.95162746
 20
65.32394113
  0
VERTEX
  8
0
 10
123.77050667
 20
65.08630015
  0
VERTEX
  8
0
 10
123.57268895
 20
64.85926510
  0
VERTEX
  8
0
 10
123.35952478
 20
64.64215613
  0
VERTEX
  8
0
 10
123.13236465
 20
64.43429339
  0
VERTEX
  8
0
 10
122.64145848
 20
64.04358723
  0
VERTEX
  8
0
 10
122.10911690
 20
63.68534595
  0
VERTEX
  8
0
 10
121.82805853
 20
63.52212960
  0
VERTEX
  8
0
 10
121.53707101
 20
63.37222323
  0
VERTEX
  8
0
 10
121.23615126
 20
63.23765716
  0
VERTEX
  8
0
 10
120.92529623
 20
63.12046173
  0
VERTEX
  8
0
 10
120.60450284
 20
63.02266728
  0
VERTEX
  8
0
 10
120.27376803
 20
62.94630413
  0
VERTEX
  8
0
 10
119.93386448
 20
62.89315812
  0
VERTEX
  8
0
 10
119.58832418
 20
62.86403696
  0
VERTEX
  8
0
 10
119.24143032
 20
62.85950387
  0
VERTEX
  8
0
 10
118.89746610
 20
62.88012208
  0
VERTEX
  8
0
 10
118.56071471
 20
62.92645479
  0
VERTEX
  8
0
 10
118.23545934
 20
62.99906521
  0
VERTEX
  8
0
 10
117.92598319
 20
63.09851657
  0
VERTEX
  8
0
 10
117.63656944
 20
63.22537207
  0
VERTEX
  8
0
 10
117.37066031
 20
63.37952430
  0
VERTEX
  8
0
 10
117.12799030
 20
63.55791317
  0
VERTEX
  8
0
 10
116.90742838
 20
63.75682023
  0
VERTEX
  8
0
 10
116.70784352
 20
63.97252705
  0
VERTEX
  8
0
 10
116.52810467
 20
64.20131517
  0
VERTEX
  8
0
 10
116.36708082
 20
64.43946617
  0
VERTEX
  8
0
 10
116.22364093
 20
64.68326158
  0
VERTEX
  8
0
 10
116.09665395
 20
64.92898298
  0
VERTEX
  8
0
 10
115.88854388
 20
65.41534046
  0
VERTEX
  8
0
 10
115.73816100
 20
65.88904020
  0
VERTEX
  8
0
 10
115.64189582
 20
66.34469252
  0
VERTEX
  8
0
 10
115.59613886
 20
66.77690775
  0
VERTEX
  8
0
 10
115.59843264
 20
67.18312406
  0
VERTEX
  8
0
 10
115.65033841
 20
67.57218918
  0
VERTEX
  8
0
 10
115.75456942
 20
67.95582780
  0
VERTEX
  8
0
 10
115.91383892
 20
68.34576459
  0
VERTEX
  8
0
 10
116.12903291
 20
68.75064474
  0
VERTEX
  8
0
 10
116.39382661
 20
69.16630422
  0
VERTEX
  8
0
 10
116.70011709
 20
69.58554863
  0
VERTEX
  8
0
 10
117.03980145
 20
70.00118357
  0
SEQEND
  0
POLYLINE
  8
0
 66
   1
 70
    1
  0
VERTEX
  8
0
 10
110.28310958
 20
77.47931386
  0
VERTEX
  8
0
 10
110.03293567
 20
77.23299114
  0
VERTEX
  8
0
 10
109.79573718
 20
76.97054851
  0
VERTEX
  8
0
 10
109.57275256
 20
76.69209648
  0
VERTEX
  8
0
 10
109.36522029
 20
76.39774553
  0
VERTEX
  8
0
 10
109.17437880
 20
76.08760615
  0
VERTEX
  8
0
 10
109.00146657
 20
75.76178885
  0
VERTEX
  8
0
 10
108.84772205
 20
75.42040411
  0
VERTEX
  8
0
 10
108.71438369
 20
75.06356243
  0
VERTEX
  8
0
 10
108.60248969
 20
74.69210813
  0
VERTEX
  8
0
 10
108.51225260
 20
74.30982076
  0
VERTEX
  8
0
 10
108.44367241
 20
73.92121374
  0
VERTEX
  8
0
 10
108.39674912
 20
73.53080043
  0
VERTEX
  8
0
 10
108.37148273
 20
73.14309424
  0
VERTEX
  8
0
 10
108.36787324
 20
72.76260855
  0
VERTEX
  8
0
 10
108.38592066
 20
72.39385675
  0
VERTEX
  8
0
 10
108.42562499
 20
72.04135224
  0
VERTEX
  8
0
 10
108.48662327
 20
71.70874285
  0
VERTEX
  8
0
 10
108.56712535
 20
71.39621429
  0
VERTEX
  8
0
 10
108.66499039
 20
71.10308671
  0
VERTEX
  8
0
 10
108.77807758
 20
70.82868025
  0
VERTEX
  8
0
 10
108.90424608
 20
70.57231507
  0
VERTEX
  8
0
 10
109.04135505
 20
70.33331133
  0
VERTEX
  8
0
 10
109.18726368
 20
70.11098917
  0
VERTEX
  8
0
 10
109.33983113
 20
69.90466875
  0
VERTEX
  8
0
 10
109.49756087
 20
69.71386333
  0
VERTEX
  8
0
 10
109.66126344
 20
69.53851485
  0
VERTEX
  8
0
 10
109.83240597
 20
69.37873380
  0
VERTEX
  8
0
 10
110.01245558
 20
69.23463069
  0
VERTEX
  8
0
 10
110.20287939
 20
69.10631599
  0
VERTEX
  8
0
 10
110.40514451
 20
68.99390021
  0
VERTEX
  8
0
 10
110.62071807
 20
68.89749384
  0
VERTEX
  8
0
 10
110.85106718
 20
68.81720738
  0
VERTEX
  8
0
 10
111.09673205
 20
68.75308252
  0
VERTEX
  8
0
 10
111.35456972
 20
68.70486117
  0
VERTEX
  8
0
 10
111.62052259
 20
68.67220420
  0
VERTEX
  8
0
 10
111.89053305
 20
68.65477242
  0
VERTEX
  8
0
 10
112.42649639
 20
68.66422788
  0
VERTEX
  8
0
 10
112.68433406
 20
68.69043679
  0
VERTEX
  8
0
 10
112.92999893
 20
68.73051429
  0
VERTEX
  8
0
 10
113.16069948
 20
68.78440922
  0
VERTEX
  8
0
 10
113.37875763
 20
68.85295232
  0
VERTEX
  8
0
 10
113.58778592
 20
68.93727464
  0
VERTEX
  8
0
 10
113.79139693
 20
69.03850721
  0
VERTEX
  8
0
 10
113.99320319
 20
69.15778106
  0
VERTEX
  8
0
 10
114.19681727
 20
69.29622722
  0
VERTEX
  8
0
 10
114.62391906
 20
69.63516062
  0
VERTEX
  8
0
 10
115.09072518
 20
70.05914197
  0
VERTEX
  8
0
 10
115.57194468
 20
70.55075818
  0
VERTEX
  8
0
 10
116.03150727
 20
71.08748065
  0
VERTEX
  8
0
 10
116.24189527
 20
71.36571656
  0
VERTEX
  8
0
 10
116.43334268
 20
71.64678081
  0
VERTEX
  8
0
 10
116.60234924
 20
71.92839013
  0
VERTEX
  8
0
 10
116.74947331
 20
72.21044141
  0
VERTEX
  8
0
 10
116.87629403
 20
72.49338894
  0
VERTEX
  8
0
 10
116.98439055
 20
72.77768694
  0
VERTEX
  8
0
 10
117.07534202
 20
73.06378970
  0
VERTEX
  8
0
 10
117.15072760
 20
73.35215144
  0
VERTEX
  8
0
 10
117.26111764
 20
73.93746895
  0
VERTEX
  8
0
 10
117.32458440
 20
74.53391569
  0
VERTEX
  8
0
 10
117.33571364
 20
75.12853314
  0
VERTEX
  8
0
 10
117.31883179
 20
75.42008772
  0
VERTEX
  8
0
 10
117.28548166
 20
75.70510317
  0
VERTEX
  8
0
 10
117.23453530
 20
75.98155224
  0
VERTEX
  8
0
 10
117.16486474
 20
76.24740766
  0
VERTEX
  8
0
 10
117.07584948
 20
76.50100587
  0
VERTEX
  8
0
 10
116.96889882
 20
76.74218728
  0
VERTEX
  8
0
 10
116.84592955
 20
76.97118053
  0
VERTEX
  8
0
 10
116.70885843
 20
77.18821431
  0
VERTEX
  8
0
 10
116.55960223
 20
77.39351726
  0
VERTEX
  8
0
 10
116.40007772
 20
77.58731805
  0
VERTEX
  8
0
 10
116.05789088
 20
77.94132779
  0
VERTEX
  8
0
 10
115.69489426
 20
78.25096994
  0
VERTEX
  8
0
 10
115.31204547
 20
78.51275574
  0
VERTEX
  8
0
 10
114.90751523
 20
78.72219174
  0
VERTEX
  8
0
 10
114.69654790
 20
78.80587437
  0
VERTEX
  8
0
 10
114.47947423
 20
78.87478452
  0
VERTEX
  8
0
 10
114.25614586
 20
78.92836561
  0
VERTEX
  8
0
 10
114.02639193
 20
78.96581144
  0
VERTEX
  8
0
 10
113.79009734
 20
78.98633322
  0
VERTEX
  8
0
 10
113.54714700
 20
78.98914213
  0
VERTEX
  8
0
 10
113.29742581
 20
78.97344937
  0
VERTEX
  8
0
 10
113.04081868
 20
78.93846612
  0
VERTEX
  8
0
 10
112.77721049
 20
78.88340359
  0
VERTEX
  8
0
 10
112.50648615
 20
78.80747296
  0
VERTEX
  8
0
 10
112.22895618
 20
78.71013532
  0
VERTEX
  8
0
 10
111.94658441
 20
78.59182676
  0
VERTEX
  8
0
 10
111.66173572
 20
78.45322100
  0
VERTEX
  8
0
 10
111.37677500
 20
78.29499173
  0
VERTEX
  8
0
 10
111.09406714
 20
78.11781268
  0
VERTEX
  8
0
 10
110.81597702
 20
77.92235754
  0
VERTEX
  8
0
 10
110.54486954
 20
77.70930003
  0
VERTEX
  8
0
 10
110.28310958
 20
77.47931386
  0
SEQEND
  0
POLYLINE
  8
0
 66
   1
 70
    1
  0
VERTEX
  8
0
 10
107.11658551
 20
80.62658735
  0
VERTEX
  8
0
 10
107.22015125
 20
80.38991140
  0
VERTEX
  8
0
 10
107.31345175
 20
80.13530467
  0
VERTEX
  8
0
 10
107.39524549
 20
79.86378002
  0
VERTEX
  8
0
 10
107.46429093
 20
79.57635032
  0
VERTEX
  8
0
 10
107.51934656
 20
79.27402842
  0
VERTEX
  8
0
 10
107.55917084
 20
78.95782720
  0
VERTEX
  8
0
 10
107.58252225
 20
78.62875952
  0
VERTEX
  8
0
 10
107.58815925
 20
78.28783824
  0
VERTEX
  8
0
 10
107.57515288
 20
77.93644558
  0
VERTEX
  8
0
 10
107.54352974
 20
77.57739197
  0
VERTEX
  8
0
 10
107.49362899
 20
77.21383264
  0
VERTEX
  8
0
 10
107.42578977
 20
76.84892282
  0
VERTEX
  8
0
 10
107.34035125
 20
76.48581775
  0
VERTEX
  8
0
 10
107.23765259
 20
76.12767265
  0
VERTEX
  8
0
 10
107.11803293
 20
75.77764275
  0
VERTEX
  8
0
 10
106.98183144
 20
75.43888327
  0
VERTEX
  8
0
 10
106.82944917
 20
75.11424202
  0
VERTEX
  8
0
 10
106.66151021
 20
74.80528790
  0
VERTEX
  8
0
 10
106.47868827
 20
74.51325784
  0
VERTEX
  8
0
 10
106.28165705
 20
74.23938877
  0
VERTEX
  8
0
 10
106.07109027
 20
73.98491760
  0
VERTEX
  8
0
 10
105.84766164
 20
73.75108126
  0
VERTEX
  8
0
 10
105.61204485
 20
73.53911667
  0
VERTEX
  8
0
 10
105.36491363
 20
73.35026076
  0
VERTEX
  8
0
 10
105.10710435
 20
73.18528571
  0
VERTEX
  8
0
 10
104.84005498
 20
73.04276097
  0
VERTEX
  8
0
 10
104.56534160
 20
72.92076671
  0
VERTEX
  8
0
 10
104.28454027
 20
72.81738308
  0
VERTEX
  8
0
 10
103.99922710
 20
72.73069025
  0
VERTEX
  8
0
 10
103.71097815
 20
72.65876837
  0
VERTEX
  8
0
 10
103.13197724
 20
72.55155810
  0
VERTEX
  8
0
 10
102.55929293
 20
72.48523281
  0
VERTEX
  8
0
 10
102.00107111
 20
72.46853179
  0
VERTEX
  8
0
 10
101.72963189
 20
72.48301832
  0
VERTEX
  8
0
 10
101.46450619
 20
72.51498445
  0
VERTEX
  8
0
 10
101.20659333
 20
72.56612137
  0
VERTEX
  8
0
 10
100.95679259
 20
72.63812024
  0
VERTEX
  8
0
 10
100.71586517
 20
72.73222719
  0
VERTEX
  8
0
 10
100.48397067
 20
72.84763809
  0
VERTEX
  8
0
 10
100.26110601
 20
72.98311599
  0
VERTEX
  8
0
 10
100.04726814
 20
73.13742398
  0
VERTEX
  8
0
 10
99.84245397
 20
73.30932514
  0
VERTEX
  8
0
 10
99.64666045
 20
73.49758254
  0
VERTEX
  8
0
 10
99.45988449
 20
73.70095926
  0
VERTEX
  8
0
 10
99.28212304
 20
73.91821837
  0
VERTEX
  8
0
 10
99.11362956
 20
74.14831708
  0
VERTEX
  8
0
 10
98.95563458
 20
74.39103824
  0
VERTEX
  8
0
 10
98.80960063
 20
74.64638339
  0
VERTEX
  8
0
 10
98.67699021
 20
74.91435406
  0
VERTEX
  8
0
 10
98.55926584
 20
75.19495179
  0
VERTEX
  8
0
 10
98.45789003
 20
75.48817810
  0
VERTEX
  8
0
 10
98.37432532
 20
75.79403454
  0
VERTEX
  8
0
 10
98.31003420
 20
76.11252264
  0
VERTEX
  8
0
 10
98.26604080
 20
76.44307227
  0
VERTEX
  8
0
 10
98.24132100
 20
76.78253206
  0
VERTEX
  8
0
 10
98.23441229
 20
77.12717894
  0
VERTEX
  8
0
 10
98.24385214
 20
77.47328987
  0
VERTEX
  8
0
 10
98.30592749
 20
78.15501169
  0
VERTEX
  8
0
 10
98.41584691
 20
78.79791315
  0
VERTEX
  8
0
 10
98.56353496
 20
79.37945338
  0
VERTEX
  8
0
 10
98.74551311
 20
79.90596740
  0
VERTEX
  8
0
 10
98.95997660
 20
80.39098463
  0
VERTEX
  8
0
 10
99.20512072
 20
80.84803450
  0
VERTEX
  8
0
 10
99.48017198
 20
81.28596475
  0
VERTEX
  8
0
 10
99.78858028
 20
81.69499457
  0
VERTEX
  8
0
 10
99.95670902
 20
81.88416764
  0
VERTEX
  8
0
 10
100.13487588
 20
82.06071058
  0
VERTEX
  8
0
 10
100.32364713
 20
82.22282173
  0
VERTEX
  8
0
 10
100.52358905
 20
82.36869941
  0
VERTEX
  8
0
 10
100.73495334
 20
82.49703713
  0
VERTEX
  8
0
 10
100.95646316
 20
82.60855821
  0
VERTEX
  8
0
 10
101.18653936
 20
82.70450572
  0
VERTEX
  8
0
 10
101.42360280
 20
82.78612271
  0
VERTEX
  8
0
 10
101.91237480
 20
82.91133743
  0
VERTEX
  8
0
 10
102.41014595
 20
82.99414685
  0
VERTEX
  8
0
 10
102.90586477
 20
83.04155918
  0
VERTEX
  8
0
 10
103.39431551
 20
83.04834640
  0
VERTEX
  8
0
 10
103.87191325
 20
83.00639331
  0
VERTEX
  8
0
 10
104.10552195
 20
82.96460315
  0
VERTEX
  8
0
 10
104.33507305
 20
82.90758471
  0
VERTEX
  8
0
 10
104.56015526
 20
82.83478015
  0
VERTEX
  8
0
 10
104.78025909
 20
82.74743330
  0
VERTEX
  8
0
 10
105.20373913
 20
82.53586517
  0
VERTEX
  8
0
 10
105.60192822
 20
82.28638517
  0
VERTEX
  8
0
 10
105.97124144
 20
82.01249819
  0
VERTEX
  8
0
 10
106.30859518
 20
81.72289441
  0
VERTEX
  8
0
 10
106.61251822
 20
81.40621949
  0
VERTEX
  8
0
 10
106.75167083
 20
81.23264685
  0
VERTEX
  8
0
 10
106.88213889
 20
81.04620622
  0
VERTEX
  8
0
 10
107.00381343
 20
80.84486418
  0
VERTEX
  8
0
 10
107.11658551
 20
80.62658735
  0
SEQEND
  0
POLYLINE
  8
0
 66
   1
 70
    1
  0
VERTEX
  8
0
 10
95.02800665
 20
84.33212767
  0
VERTEX
  8
0
 10
95.13550159
 20
83.94328661
  0
VERTEX
  8
0
 10
95.22743063
 20
83.54227275
  0
VERTEX
  8
0
 10
95.30447055
 20
83.12953421
  0
VERTEX
  8
0
 10
95.36729813
 20
82.70551909
  0
VERTEX
  8
0
 10
95.45302337
 20
81.82545163
  0
VERTEX
  8
0
 10
95.49002058
 20
80.90565529
  0
VERTEX
  8
0
 10
95.48159845
 20
79.95478342
  0
VERTEX
  8
0
 10
95.42264355
 20
79.00117374
  0
VERTEX
  8
0
 10
95.37196038
 20
78.53378165
  0
VERTEX
  8
0
 10
95.30593690
 20
78.07823240
  0
VERTEX
  8
0
 10
95.22367075
 20
77.63870178
  0
VERTEX
  8
0
 10
95.12425955
 20
77.21936554
  0
VERTEX
  8
0
 10
95.00710172
 20
76.82347765
  0
VERTEX
  8
0
 10
94.87279884
 20
76.45035928
  0
VERTEX
  8
0
 10
94.72225328
 20
76.09843435
  0
VERTEX
  8
0
 10
94.55636742
 20
75.76612677
  0
VERTEX
  8
0
 10
94.37604362
 20
75.45186048
  0
VERTEX
  8
0
 10
94.18218426
 20
75.15405939
  0
VERTEX
  8
0
 10
93.97569171
 20
74.87114743
  0
VERTEX
  8
0
 10
93.75746833
 20
74.60154850
  0
VERTEX
  8
0
 10
93.52834718
 20
74.34387350
  0
VERTEX
  8
0
 10
93.28885951
 20
74.09748121
  0
VERTEX
  8
0
 10
92.78058321
 20
73.63672773
  0
VERTEX
  8
0
 10
92.23623662
 20
73.21565402
  0
VERTEX
  8
0
 10
91.65941696
 20
72.83062604
  0
VERTEX
  8
0
 10
91.05182255
 20
72.47979199
  0
VERTEX
  8
0
 10
90.40814559
 20
72.16774147
  0
VERTEX
  8
0
 10
90.07052406
 20
72.02823589
  0
VERTEX
  8
0
 10
89.72117937
 20
71.90079722
  0
VERTEX
  8
0
 10
89.35921070
 20
71.78621580
  0
VERTEX
  8
0
 10
88.98371721
 20
71.68528198
  0
VERTEX
  8
0
 10
88.59466949
 20
71.59874823
  0
VERTEX
  8
0
 10
88.19581845
 20
71.52721564
  0
VERTEX
  8
0
 10
87.79178646
 20
71.47124741
  0
VERTEX
  8
0
 10
87.38719585
 20
71.43140676
  0
VERTEX
  8
0
 10
86.98666898
 20
71.40825690
  0
VERTEX
  8
0
 10
86.59482820
 20
71.40236105
  0
VERTEX
  8
0
 10
86.21629586
 20
71.41428243
  0
VERTEX
  8
0
 10
85.85569431
 20
71.44458424
  0
VERTEX
  8
0
 10
85.51599231
 20
71.49406681
  0
VERTEX
  8
0
 10
85.19378986
 20
71.56418420
  0
VERTEX
  8
0
 10
84.88400882
 20
71.65662760
  0
VERTEX
  8
0
 10
84.58157106
 20
71.77308819
  0
VERTEX
  8
0
 10
84.28139843
 20
71.91525715
  0
VERTEX
  8
0
 10
83.97841280
 20
72.08482565
  0
VERTEX
  8
0
 10
83.66753603
 20
72.28348487
  0
VERTEX
  8
0
 10
83.34368998
 20
72.51292598
  0
VERTEX
  8
0
 10
83.00370304
 20
72.77404933
  0
VERTEX
  8
0
 10
82.65232444
 20
73.06427260
  0
VERTEX
  8
0
 10
82.29620993
 20
73.38021037
  0
VERTEX
  8
0
 10
81.94201526
 20
73.71847722
  0
VERTEX
  8
0
 10
81.59639618
 20
74.07568773
  0
VERTEX
  8
0
 10
81.26600845
 20
74.44845645
  0
VERTEX
  8
0
 10
80.95750782
 20
74.83339798
  0
VERTEX
  8
0
 10
80.67755004
 20
75.22712689
  0
VERTEX
  8
0
 10
80.43101759
 20
75.62642041
  0
VERTEX
  8
0
 10
80.21572436
 20
76.02841184
  0
VERTEX
  8
0
 10
80.02772325
 20
76.43039713
  0
VERTEX
  8
0
 10
79.86306715
 20
76.82967224
  0
VERTEX
  8
0
 10
79.58800156
 20
77.60927574
  0
VERTEX
  8
0
 10
79.35895075
 20
78.34558998
  0
VERTEX
  8
0
 10
79.15245922
 20
79.02595518
  0
VERTEX
  8
0
 10
78.97755681
 20
79.67379820
  0
VERTEX
  8
0
 10
78.90731127
 20
79.99567939
  0
VERTEX
  8
0
 10
78.85139471
 20
80.32161665
  0
VERTEX
  8
0
 10
78.81195102
 20
80.65567219
  0
VERTEX
  8
0
 10
78.79112410
 20
81.00190819
  0
VERTEX
  8
0
 10
78.79029412
 20
81.36317604
  0
VERTEX
  8
0
 10
78.80808090
 20
81.73718911
  0
VERTEX
  8
0
 10
78.89092920
 20
82.50946110
  0
VERTEX
  8
0
 10
79.02251780
 20
83.29074452
  0
VERTEX
  8
0
 10
79.18569553
 20
84.05305973
  0
VERTEX
  8
0
 10
79.36782509
 20
84.77369400
  0
VERTEX
  8
0
 10
79.57432481
 20
85.45100219
  0
VERTEX
  8
0
 10
79.81512690
 20
86.08860606
  0
VERTEX
  8
0
 10
79.95149515
 20
86.39365067
  0
VERTEX
  8
0
 10
80.10016358
 20
86.69012736
  0
VERTEX
  8
0
 10
80.26209313
 20
86.97839447
  0
VERTEX
  8
0
 10
80.43744161
 20
87.25818727
  0
VERTEX
  8
0
 10
80.62609853
 20
87.52917122
  0
VERTEX
  8
0
 10
80.82795339
 20
87.79101175
  0
VERTEX
  8
0
 10
81.04289570
 20
88.04337432
  0
VERTEX
  8
0
 10
81.27081496
 20
88.28592437
  0
VERTEX
  8
0
 10
81.51160068
 20
88.51832735
  0
VERTEX
  8
0
 10
81.76514237
 20
88.74024871
  0
VERTEX
  8
0
 10
82.03133618
 20
88.95134136
  0
VERTEX
  8
0
 10
82.31015397
 20
89.15125720
  0
VERTEX
  8
0
 10
82.60159882
 20
89.33966014
  0
VERTEX
  8
0
 10
82.90567379
 20
89.51621408
  0
VERTEX
  8
0
 10
83.22238195
 20
89.68058294
  0
VERTEX
  8
0
 10
83.55172638
 20
89.83243065
  0
VERTEX
  8
0
 10
83.89371014
 20
89.97142110
  0
VERTEX
  8
0
 10
84.24833631
 20
90.09721821
  0
VERTEX
  8
0
 10
84.61510688
 20
90.20947208
  0
VERTEX
  8
0
 10
84.99181427
 20
90.30750747
  0
VERTEX
  8
0
 10
85.37574984
 20
90.39064761
  0
VERTEX
  8
0
 10
85.76420494
 20
90.45821570
  0
VERTEX
  8
0
 10
86.15447092
 20
90.50953498
  0
VERTEX
  8
0
 10
86.54383913
 20
90.54392867
  0
VERTEX
  8
0
 10
86.92960093
 20
90.56071998
  0
VERTEX
  8
0
 10
87.30904766
 20
90.55923214
  0
VERTEX
  8
0
 10
87.67985460
 20
90.53908200
  0
VERTEX
  8
0
 10
88.04152734
 20
90.50076628
  0
VERTEX
  8
0
 10
88.39395538
 20
90.44507531
  0
VERTEX
  8
0
 10
88.73702823
 20
90.37279944
  0
VERTEX
  8
0
 10
89.07063539
 20
90.28472900
  0
VERTEX
  8
0
 10
89.39466636
 20
90.18165435
  0
VERTEX
  8
0
 10
89.70901067
 20
90.06436582
  0
VERTEX
  8
0
 10
90.01355780
 20
89.93365375
  0
VERTEX
  8
0
 10
90.59312345
 20
89.63634196
  0
VERTEX
  8
0
 10
91.13478953
 20
89.30205137
  0
VERTEX
  8
0
 10
91.64038532
 20
88.94428686
  0
VERTEX
  8
0
 10
92.11174012
 20
88.57655330
  0
VERTEX
  8
0
 10
92.55128686
 20
88.20693929
  0
VERTEX
  8
0
 10
92.96465870
 20
87.82108260
  0
VERTEX
  8
0
 10
93.35819066
 20
87.39910652
  0
VERTEX
  8
0
 10
93.73821775
 20
86.92113433
  0
VERTEX
  8
0
 10
94.10758826
 20
86.37179912
  0
VERTEX
  8
0
 10
94.45530187
 20
85.75298749
  0
VERTEX
  8
0
 10
94.61652549
 20
85.41949620
  0
VERTEX
  8
0
 10
94.76692065
 20
85.07099761
  0
VERTEX
  8
0
 10
94.90468261
 20
84.70827902
  0
VERTEX
  8
0
 10
95.02800665
 20
84.33212767
  0
SEQEND
  0
POLYLINE
  8
0
 66
   1
 70
    1
  0
VERTEX
  8
0
 10
36.24797621
 20
29.40263256
  0
VERTEX
  8
0
 10
38.01047621
 20
23.66155131
  0
VERTEX
  8
0
 10
43.74797621
 20
23.67315756
  0
VERTEX
  8
0
 10
39.09975746
 20
20.13655131
  0
VERTEX
  8
0
 10
40.88321996
 20
14.40263256
  0
VERTEX
  8
0
 10
36.24797621
 20
17.95797006
  0
VERTEX
  8
0
 10
31.61273246
 20
14.40263256
  0
VERTEX
  8
0
 10
33.39619496
 20
20.13655131
  0
VERTEX
  8
0
 10
28.74797621
 20
23.67315756
  0
VERTEX
  8
0
 10
34.48547621
 20
23.66155131
  0
VERTEX
  8
0
 10
36.24797621
 20
29.40263256
  0
SEQEND
  0
POLYLINE
  8
0
 66
   1
 70
    1
  0
VERTEX
  8
0
 10
0.00041380
 20
30.74643081
 42
0.41421356
  0
VERTEX
  8
0
 10
30.00041380
 20
0.74643081
  0
VERTEX
  8
0
 10
120.00041380
 20
0.74643081
 42
0.41421356
  0
VERTEX
  8
0
 10
150.00041380
 20
30.74643081
  0
VERTEX
  8
0
 10
150.00041380
 20
120.74643081
 42
0.41421356
  0
VERTEX
  8
0
 10
120.00041380
 20
150.74643081
  0
VERTEX
  8
0
 10
30.00041380
 20
150.74643081
 42
0.41421356
  0
VERTEX
  8
0
 10
0.00041380
 20
120.74643081
  0
VERTEX
  8
0
 10
0.00041380
 20
30.74643081
  0
SEQEND
  0
POLYLINE
  8
0
 66
   1
 70
    1
  0
VERTEX
  8
0
 10
12.45884858
 20
87.24910424
  0
VERTEX
  8
0
 10
14.22134858
 20
81.50802299
  0
VERTEX
  8
0
 10
19.95884858
 20
81.51962924
  0
VERTEX
  8
0
 10
15.31062983
 20
77.98302299
  0
VERTEX
  8
0
 10
17.09409233
 20
72.24910424
  0
VERTEX
  8
0
 10
12.45884858
 20
75.80444174
  0
VERTEX
  8
0
 10
7.82360483
 20
72.24910424
  0
VERTEX
  8
0
 10
9.60706733
 20
77.98302299
  0
VERTEX
  8
0
 10
4.95884858
 20
81.51962924
  0
VERTEX
  8
0
 10
10.69634858
 20
81.50802299
  0
VERTEX
  8
0
 10
12.45884858
 20
87.24910424
  0
SEQEND
  0
POLYLINE
  8
0
 66
   1
 70
    1
  0
VERTEX
  8
0
 10
57.17207961
 20
51.20833905
  0
VERTEX
  8
0
 10
60.10957961
 20
41.63987030
  0
VERTEX
  8
0
 10
69.67207961
 20
41.65921405
  0
VERTEX
  8
0
 10
61.92504836
 20
35.76487030
  0
VERTEX
  8
0
 10
64.89748586
 20
26.20833905
  0
VERTEX
  8
0
 10
57.17207961
 20
32.13390155
  0
VERTEX
  8
0
 10
49.44667336
 20
26.20833905
  0
VERTEX
  8
0
 10
52.41911086
 20
35.76487030
  0
VERTEX
  8
0
 10
44.67207961
 20
41.65921405
  0
VERTEX
  8
0
 10
54.23457961
 20
41.63987030
  0
VERTEX
  8
0
 10
57.17207961
 20
51.20833905
  0
SEQEND
  0
POLYLINE
  8
0
 66
   1
 70
    1
  0
VERTEX
  8
0
 10
27.70119728
 20
63.90153484
  0
VERTEX
  8
0
 10
30.05119728
 20
56.24675984
  0
VERTEX
  8
0
 10
37.70119728
 20
56.26223484
  0
VERTEX
  8
0
 10
31.50357228
 20
51.54675984
  0
VERTEX
  8
0
 10
33.88152228
 20
43.90153484
  0
VERTEX
  8
0
 10
27.70119728
 20
48.64198484
  0
VERTEX
  8
0
 10
21.52087228
 20
43.90153484
  0
VERTEX
  8
0
 10
23.89882228
 20
51.54675984
  0
VERTEX
  8
0
 10
17.70119728
 20
56.26223484
  0
VERTEX
  8
0
 10
25.35119728
 20
56.24675984
  0
VERTEX
  8
0
 10
27.70119728
 20
63.90153484
  0
SEQEND
  0
POLYLINE
  8
0
 66
   1
 70
    1
  0
VERTEX
  8
0
 10
25.03689745
 20
136.20393700
  0
VERTEX
  8
0
 10
27.38689745
 20
128.54916200
  0
VERTEX
  8
0
 10
35.03689745
 20
128.56463700
  0
VERTEX
  8
0
 10
28.83927245
 20
123.84916200
  0
VERTEX
  8
0
 10
31.21722245
 20
116.20393700
  0
VERTEX
  8
0
 10
25.03689745
 20
120.94438700
  0
VERTEX
  8
0
 10
18.85657245
 20
116.20393700
  0
VERTEX
  8
0
 10
21.23452245
 20
123.84916200
  0
VERTEX
  8
0
 10
15.03689745
 20
128.56463700
  0
VERTEX
  8
0
 10
22.68689745
 20
128.54916200
  0
VERTEX
  8
0
 10
25.03689745
 20
136.20393700
  0
SEQEND
  0
POLYLINE
  8
0
 66
   1
 70
    1
  0
VERTEX
  8
0
 10
124.42387965
 20
14.40263256
  0
VERTEX
  8
0
 10
122.07387965
 20
22.05740756
  0
VERTEX
  8
0
 10
114.42387965
 20
22.04193256
  0
VERTEX
  8
0
 10
120.62150465
 20
26.75740756
  0
VERTEX
  8
0
 10
118.24355465
 20
34.40263256
  0
VERTEX
  8
0
 10
124.42387965
 20
29.66218256
  0
VERTEX
  8
0
 10
130.60420465
 20
34.40263256
  0
VERTEX
  8
0
 10
128.22625465
 20
26.75740756
  0
VERTEX
  8
0
 10
134.42387965
 20
22.04193256
  0
VERTEX
  8
0
 10
126.77387965
 20
22.05740756
  0
VERTEX
  8
0
 10
124.42387965
 20
14.40263256
  0
SEQEND
  0
POLYLINE
  8
0
 66
   1
 70
    1
  0
VERTEX
  8
0
 10
137.00192853
 20
63.35746532
  0
VERTEX
  8
0
 10
135.23942853
 20
69.09854657
  0
VERTEX
  8
0
 10
129.50192853
 20
69.08694032
  0
VERTEX
  8
0
 10
134.15014728
 20
72.62354657
  0
VERTEX
  8
0
 10
132.36668478
 20
78.35746532
  0
VERTEX
  8
0
 10
137.00192853
 20
74.80212782
  0
VERTEX
  8
0
 10
141.63717228
 20
78.35746532
  0
VERTEX
  8
0
 10
139.85370978
 20
72.62354657
  0
VERTEX
  8
0
 10
144.50192853
 20
69.08694032
  0
VERTEX
  8
0
 10
138.76442853
 20
69.09854657
  0
VERTEX
  8
0
 10
137.00192853
 20
63.35746532
  0
SEQEND
  0
POLYLINE
  8
0
 66
   1
 70
    1
  0
VERTEX
  8
0
 10
121.75957982
 20
86.70503471
  0
VERTEX
  8
0
 10
119.40957982
 20
94.35980971
  0
VERTEX
  8
0
 10
111.75957982
 20
94.34433471
  0
VERTEX
  8
0
 10
117.95720482
 20
99.05980971
  0
VERTEX
  8
0
 10
115.57925482
 20
106.70503471
  0
VERTEX
  8
0
 10
121.75957982
 20
101.96458471
  0
VERTEX
  8
0
 10
127.93990482
 20
106.70503471
  0
VERTEX
  8
0
 10
125.56195482
 20
99.05980971
  0
VERTEX
  8
0
 10
131.75957982
 20
94.34433471
  0
VERTEX
  8
0
 10
124.10957982
 20
94.35980971
  0
VERTEX
  8
0
 10
121.75957982
 20
86.70503471
  0
SEQEND
  0
POLYLINE
  8
0
 66
   1
 70
    1
  0
VERTEX
  8
0
 10
92.28869750
 20
99.39823051
  0
VERTEX
  8
0
 10
89.35119750
 20
108.96669926
  0
VERTEX
  8
0
 10
79.78869750
 20
108.94735551
  0
VERTEX
  8
0
 10
87.53572875
 20
114.84169926
  0
VERTEX
  8
0
 10
84.56329125
 20
124.39823051
  0
VERTEX
  8
0
 10
92.28869750
 20
118.47266801
  0
VERTEX
  8
0
 10
100.01410375
 20
124.39823051
  0
VERTEX
  8
0
 10
97.04166625
 20
114.84169926
  0
VERTEX
  8
0
 10
104.78869750
 20
108.94735551
  0
VERTEX
  8
0
 10
95.22619750
 20
108.96669926
  0
VERTEX
  8
0
 10
92.28869750
 20
99.39823051
  0
SEQEND
  0
POLYLINE
  8
0
 66
   1
 70
    1
  0
VERTEX
  8
0
 10
113.21280090
 20
121.20393700
  0
VERTEX
  8
0
 10
111.45030090
 20
126.94501825
  0
VERTEX
  8
0
 10
105.71280090
 20
126.93341200
  0
VERTEX
  8
0
 10
110.36101965
 20
130.47001825
  0
VERTEX
  8
0
 10
108.57755715
 20
136.20393700
  0
VERTEX
  8
0
 10
113.21280090
 20
132.64859950
  0
VERTEX
  8
0
 10
117.84804465
 20
136.20393700
  0
VERTEX
  8
0
 10
116.06458215
 20
130.47001825
  0
VERTEX
  8
0
 10
120.71280090
 20
126.93341200
  0
VERTEX
  8
0
 10
114.97530090
 20
126.94501825
  0
VERTEX
  8
0
 10
113.21280090
 20
121.20393700
  0
SEQEND
  0
POLYLINE
  8
0
 66
   1
 70
    1
  0
VERTEX
  8
0
 10
212.95387184
 20
82.52404570
  0
VERTEX
  8
0
 10
213.39661268
 20
83.27599900
  0
VERTEX
  8
0
 10
213.64955151
 20
83.66098478
  0
VERTEX
  8
0
 10
213.92594431
 20
84.04957237
  0
VERTEX
  8
0
 10
214.22759736
 20
84.43995856
  0
VERTEX
  8
0
 10
214.55631693
 20
84.83034015
  0
VERTEX
  8
0
 10
214.91390930
 20
85.21891392
  0
VERTEX
  8
0
 10
215.30218076
 20
85.60387668
  0
VERTEX
  8
0
 10
215.72178300
 20
85.98381220
  0
VERTEX
  8
0
 10
216.16845483
 20
86.35855755
  0
VERTEX
  8
0
 10
217.12134425
 20
87.09337399
  0
VERTEX
  8
0
 10
218.11752292
 20
87.81011844
  0
VERTEX
  8
0
 10
219.11366475
 20
88.51058339
  0
VERTEX
  8
0
 10
220.06769390
 20
89.19847040
  0
VERTEX
  8
0
 10
220.51719690
 20
89.54093680
  0
VERTEX
  8
0
 10
220.94233895
 20
89.88452810
  0
VERTEX
  8
0
 10
221.33860513
 20
90.23082652
  0
VERTEX
  8
0
 10
221.70148052
 20
90.58141426
  0
VERTEX
  8
0
 10
222.02645019
 20
90.93787356
  0
VERTEX
  8
0
 10
222.30899921
 20
91.30178662
  0
VERTEX
  8
0
 10
222.54609719
 20
91.67476074
  0
VERTEX
  8
0
 10
222.74033254
 20
92.05855256
  0
VERTEX
  8
0
 10
222.89576593
 20
92.45496837
  0
VERTEX
  8
0
 10
223.01645805
 20
92.86581444
  0
VERTEX
  8
0
 10
223.10646955
 20
93.29289706
  0
VERTEX
  8
0
 10
223.16986111
 20
93.73802248
  0
VERTEX
  8
0
 10
223.21069340
 20
94.20299700
  0
VERTEX
  8
0
 10
223.23302708
 20
94.68962689
  0
VERTEX
  8
0
 10
223.23998286
 20
95.19882142
  0
VERTEX
  8
0
 10
223.23092155
 20
95.72763178
  0
VERTEX
  8
0
 10
223.20426401
 20
96.27222442
  0
VERTEX
  8
0
 10
223.15843108
 20
96.82876581
  0
VERTEX
  8
0
 10
223.09184363
 20
97.39342239
  0
VERTEX
  8
0
 10
223.00292249
 20
97.96236063
  0
VERTEX
  8
0
 10
222.89008852
 20
98.53174699
  0
VERTEX
  8
0
 10
222.75176257
 20
99.09774793
  0
VERTEX
  8
0
 10
222.58663431
 20
99.65709925
  0
VERTEX
  8
0
 10
222.39444413
 20
100.20878962
  0
VERTEX
  8
0
 10
222.17518896
 20
100.75236479
  0
VERTEX
  8
0
 10
221.92886573
 20
101.28737051
  0
VERTEX
  8
0
 10
221.65547137
 20
101.81335252
  0
VERTEX
  8
0
 10
221.35500281
 20
102.32985656
  0
VERTEX
  8
0
 10
221.02745698
 20
102.83642839
  0
VERTEX
  8
0
 10
220.67283082
 20
103.33261374
  0
VERTEX
  8
0
 10
220.29150978
 20
103.81793330
  0
VERTEX
  8
0
 10
219.88513873
 20
104.29151282
  0
VERTEX
  8
0
 10
219.45575108
 20
104.75245302
  0
VERTEX
  8
0
 10
219.00538024
 20
105.19985458
  0
VERTEX
  8
0
 10
218.53605960
 20
105.63281820
  0
VERTEX
  8
0
 10
218.04982259
 20
106.05044459
  0
VERTEX
  8
0
 10
217.54870259
 20
106.45183444
  0
VERTEX
  8
0
 10
217.03473301
 20
106.83608845
  0
VERTEX
  8
0
 10
216.50918300
 20
107.20195665
  0
VERTEX
  8
0
 10
215.97031381
 20
107.54683552
  0
VERTEX
  8
0
 10
215.41564700
 20
107.86779541
  0
VERTEX
  8
0
 10
214.84270410
 20
108.16190671
  0
VERTEX
  8
0
 10
214.24900667
 20
108.42623976
  0
VERTEX
  8
0
 10
213.63207626
 20
108.65786493
  0
VERTEX
  8
0
 10
212.98943441
 20
108.85385259
  0
VERTEX
  8
0
 10
212.31860268
 20
109.01127310
  0
VERTEX
  8
0
 10
211.61788554
 20
109.12790454
  0
VERTEX
  8
0
 10
210.88874371
 20
109.20438048
  0
VERTEX
  8
0
 10
210.13343312
 20
109.24205447
  0
VERTEX
  8
0
 10
209.35420971
 20
109.24228006
  0
VERTEX
  8
0
 10
208.55332939
 20
109.20641082
  0
VERTEX
  8
0
 10
207.73304809
 20
109.13580029
  0
VERTEX
  8
0
 10
206.89562175
 20
109.03180204
  0
VERTEX
  8
0
 10
206.04330628
 20
108.89576961
  0
VERTEX
  8
0
 10
205.17929759
 20
108.72917500
  0
VERTEX
  8
0
 10
204.31055146
 20
108.53393932
  0
VERTEX
  8
0
 10
203.44496362
 20
108.31208983
  0
VERTEX
  8
0
 10
202.59042983
 20
108.06565380
  0
VERTEX
  8
0
 10
201.75484582
 20
107.79665850
  0
VERTEX
  8
0
 10
200.94610736
 20
107.50713119
  0
VERTEX
  8
0
 10
200.17211017
 20
107.19909914
  0
VERTEX
  8
0
 10
199.44075001
 20
106.87458961
  0
VERTEX
  8
0
 10
198.75758588
 20
106.53534135
  0
VERTEX
  8
0
 10
198.11885431
 20
106.18188996
  0
VERTEX
  8
0
 10
197.51846736
 20
105.81445796
  0
VERTEX
  8
0
 10
196.95033711
 20
105.43326787
  0
VERTEX
  8
0
 10
196.40837561
 20
105.03854221
  0
VERTEX
  8
0
 10
195.88649494
 20
104.63050352
  0
VERTEX
  8
0
 10
195.37860716
 20
104.20937430
  0
VERTEX
  8
0
 10
194.87862433
 20
103.77537709
  0
VERTEX
  8
0
 10
193.88880114
 20
102.86947440
  0
VERTEX
  8
0
 10
193.40166175
 20
102.39756252
  0
VERTEX
  8
0
 10
192.92241504
 20
101.91301438
  0
VERTEX
  8
0
 10
192.45309440
 20
101.41583304
  0
VERTEX
  8
0
 10
191.99573326
 20
100.90602158
  0
VERTEX
  8
0
 10
191.55236500
 20
100.38358307
  0
VERTEX
  8
0
 10
191.12502303
 20
99.84852057
  0
VERTEX
  8
0
 10
190.71554023
 20
99.30112567
  0
VERTEX
  8
0
 10
190.32524203
 20
98.74289310
  0
VERTEX
  8
0
 10
189.95525331
 20
98.17563069
  0
VERTEX
  8
0
 10
189.60669897
 20
97.60114624
  0
VERTEX
  8
0
 10
189.28070390
 20
97.02124757
  0
VERTEX
  8
0
 10
188.97839300
 20
96.43774248
  0
VERTEX
  8
0
 10
188.70089117
 20
95.85243879
  0
VERTEX
  8
0
 10
188.44932329
 20
95.26714431
  0
VERTEX
  8
0
 10
188.22452575
 20
94.68287062
  0
VERTEX
  8
0
 10
188.02613177
 20
94.09746896
  0
VERTEX
  8
0
 10
187.85346150
 20
93.50800664
  0
VERTEX
  8
0
 10
187.70583509
 20
92.91155094
  0
VERTEX
  8
0
 10
187.58257270
 20
92.30516916
  0
VERTEX
  8
0
 10
187.48299448
 20
91.68592860
  0
VERTEX
  8
0
 10
187.40642058
 20
91.05089654
  0
VERTEX
  8
0
 10
187.35217115
 20
90.39714029
  0
VERTEX
  8
0
 10
187.31953540
 20
89.72254868
  0
VERTEX
  8
0
 10
187.30765418
 20
89.02832129
  0
VERTEX
  8
0
 10
187.31562513
 20
88.31649153
  0
VERTEX
  8
0
 10
187.34254586
 20
87.58909281
  0
VERTEX
  8
0
 10
187.38751401
 20
86.84815851
  0
VERTEX
  8
0
 10
187.44962722
 20
86.09572206
  0
VERTEX
  8
0
 10
187.62167928
 20
84.56447629
  0
VERTEX
  8
0
 10
187.73048455
 20
83.78927594
  0
VERTEX
  8
0
 10
187.85687685
 20
83.00798459
  0
VERTEX
  8
0
 10
188.00401754
 20
82.21992546
  0
VERTEX
  8
0
 10
188.17506799
 20
81.42442177
  0
VERTEX
  8
0
 10
188.37318957
 20
80.62079674
  0
VERTEX
  8
0
 10
188.60154365
 20
79.80837359
  0
VERTEX
  8
0
 10
188.86329160
 20
78.98647554
  0
VERTEX
  8
0
 10
189.16159477
 20
78.15442583
  0
VERTEX
  8
0
 10
189.49843645
 20
77.31204207
  0
VERTEX
  8
0
 10
189.87138217
 20
76.46109500
  0
VERTEX
  8
0
 10
190.27681939
 20
75.60383746
  0
VERTEX
  8
0
 10
190.71113555
 20
74.74252233
  0
VERTEX
  8
0
 10
191.17071809
 20
73.87940246
  0
VERTEX
  8
0
 10
191.65195447
 20
73.01673070
  0
VERTEX
  8
0
 10
192.15123213
 20
72.15675992
  0
VERTEX
  8
0
 10
192.66493852
 20
71.30174297
  0
VERTEX
  8
0
 10
193.72604902
 20
69.61320432
  0
VERTEX
  8
0
 10
194.83049788
 20
67.95715103
  0
VERTEX
  8
0
 10
195.97826054
 20
66.33719257
  0
VERTEX
  8
0
 10
197.16931246
 20
64.75693844
  0
VERTEX
  8
0
 10
197.78092610
 20
63.98327939
  0
VERTEX
  8
0
 10
198.40247503
 20
63.22360555
  0
VERTEX
  8
0
 10
199.03305380
 20
62.48107370
  0
VERTEX
  8
0
 10
199.67175698
 20
61.75884058
  0
VERTEX
  8
0
 10
200.31767913
 20
61.06006298
  0
VERTEX
  8
0
 10
200.96991481
 20
60.38789764
  0
VERTEX
  8
0
 10
201.62755857
 20
59.74550133
  0
VERTEX
  8
0
 10
202.28970498
 20
59.13603083
  0
VERTEX
  8
0
 10
202.95519206
 20
58.56202135
  0
VERTEX
  8
0
 10
203.62180710
 20
58.02320281
  0
VERTEX
  8
0
 10
204.28706858
 20
57.51867129
  0
VERTEX
  8
0
 10
204.94849499
 20
57.04752290
  0
VERTEX
  8
0
 10
205.60360480
 20
56.60885372
  0
VERTEX
  8
0
 10
206.24991649
 20
56.20175986
  0
VERTEX
  8
0
 10
206.88494855
 20
55.82533739
  0
VERTEX
  8
0
 10
207.50621945
 20
55.47868243
  0
VERTEX
  8
0
 10
208.11230606
 20
55.16116628
  0
VERTEX
  8
0
 10
208.70599429
 20
54.87321198
  0
VERTEX
  8
0
 10
209.29111612
 20
54.61549324
  0
VERTEX
  8
0
 10
209.87150358
 20
54.38868378
  0
VERTEX
  8
0
 10
210.45098867
 20
54.19345731
  0
VERTEX
  8
0
 10
211.03340339
 20
54.03048753
  0
VERTEX
  8
0
 10
211.62257976
 20
53.90044815
  0
VERTEX
  8
0
 10
212.22234978
 20
53.80401288
  0
VERTEX
  8
0
 10
212.83546736
 20
53.74163649
  0
VERTEX
  8
0
 10
213.46032498
 20
53.71287341
  0
VERTEX
  8
0
 10
214.09421245
 20
53.71704688
  0
VERTEX
  8
0
 10
214.73441958
 20
53.75348010
  0
VERTEX
  8
0
 10
215.37823620
 20
53.82149632
  0
VERTEX
  8
0
 10
216.02295212
 20
53.92041873
  0
VERTEX
  8
0
 10
216.66585716
 20
54.04957058
  0
VERTEX
  8
0
 10
217.30424113
 20
54.20827507
  0
VERTEX
  8
0
 10
217.93491173
 20
54.39539862
  0
VERTEX
  8
0
 10
218.55272354
 20
54.60800495
  0
VERTEX
  8
0
 10
219.15203675
 20
54.84271322
  0
VERTEX
  8
0
 10
219.72721153
 20
55.09614262
  0
VERTEX
  8
0
 10
220.27260807
 20
55.36491233
  0
VERTEX
  8
0
 10
220.78258655
 20
55.64564152
  0
VERTEX
  8
0
 10
221.25150715
 20
55.93494938
  0
VERTEX
  8
0
 10
221.67373006
 20
56.22945507
  0
VERTEX
  8
0
 10
222.04546929
 20
56.52670523
  0
VERTEX
  8
0
 10
222.37005965
 20
56.82800531
  0
VERTEX
  8
0
 10
222.65268976
 20
57.13561277
  0
VERTEX
  8
0
 10
222.89854824
 20
57.45178509
  0
VERTEX
  8
0
 10
223.11282375
 20
57.77877972
  0
VERTEX
  8
0
 10
223.30070490
 20
58.11885413
  0
VERTEX
  8
0
 10
223.46738034
 20
58.47426578
  0
VERTEX
  8
0
 10
223.61803869
 20
58.84727212
  0
VERTEX
  8
0
 10
223.75669741
 20
59.23901366
  0
VERTEX
  8
0
 10
223.88271371
 20
59.64586838
  0
VERTEX
  8
0
 10
223.99428595
 20
60.06309729
  0
VERTEX
  8
0
 10
224.08961244
 20
60.48596142
  0
VERTEX
  8
0
 10
224.16689151
 20
60.90972178
  0
VERTEX
  8
0
 10
224.22432149
 20
61.32963939
  0
VERTEX
  8
0
 10
224.26010070
 20
61.74097528
  0
VERTEX
  8
0
 10
224.27242748
 20
62.13899044
  0
VERTEX
  8
0
 10
224.25942392
 20
62.52023629
  0
VERTEX
  8
0
 10
224.21890726
 20
62.88613109
  0
VERTEX
  8
0
 10
224.14861850
 20
63.23938349
  0
VERTEX
  8
0
 10
224.04629863
 20
63.58270214
  0
VERTEX
  8
0
 10
223.90968867
 20
63.91879568
  0
VERTEX
  8
0
 10
223.73652962
 20
64.25037276
  0
VERTEX
  8
0
 10
223.52456247
 20
64.58014203
  0
VERTEX
  8
0
 10
223.27152824
 20
64.91081213
  0
VERTEX
  8
0
 10
222.97578179
 20
65.24536591
  0
VERTEX
  8
0
 10
222.63808429
 20
65.58758831
  0
VERTEX
  8
0
 10
222.25978624
 20
65.94153846
  0
VERTEX
  8
0
 10
221.84223811
 20
66.31127550
  0
VERTEX
  8
0
 10
220.89479362
 20
67.11434678
  0
VERTEX
  8
0
 10
219.80655470
 20
68.02927523
  0
VERTEX
  8
0
 10
218.60078247
 20
69.07113515
  0
VERTEX
  8
0
 10
217.34987942
 20
70.18520930
  0
VERTEX
  8
0
 10
216.13865613
 20
71.29928344
  0
VERTEX
  8
0
 10
215.05192321
 20
72.34114336
  0
VERTEX
  8
0
 10
214.57954326
 20
72.81522063
  0
VERTEX
  8
0
 10
214.15656659
 20
73.26063687
  0
VERTEX
  8
0
 10
213.78005896
 20
73.68483818
  0
VERTEX
  8
0
 10
213.44708612
 20
74.09527067
  0
VERTEX
  8
0
 10
213.15471383
 20
74.49938042
  0
VERTEX
  8
0
 10
212.90000786
 20
74.90461353
  0
VERTEX
  8
0
 10
212.68003397
 20
75.31841610
  0
VERTEX
  8
0
 10
212.49185790
 20
75.74823421
  0
VERTEX
  8
0
 10
212.33292782
 20
76.19930664
  0
VERTEX
  8
0
 10
212.20219682
 20
76.66774818
  0
VERTEX
  8
0
 10
212.09898815
 20
77.14746628
  0
VERTEX
  8
0
 10
212.02262500
 20
77.63236842
  0
VERTEX
  8
0
 10
211.97243062
 20
78.11636204
  0
VERTEX
  8
0
 10
211.94772821
 20
78.59335462
  0
VERTEX
  8
0
 10
211.94784101
 20
79.05725360
  0
VERTEX
  8
0
 10
211.97209223
 20
79.50196647
  0
VERTEX
  8
0
 10
212.01980509
 20
79.92314223
  0
VERTEX
  8
0
 10
212.09030283
 20
80.32334708
  0
VERTEX
  8
0
 10
212.18290865
 20
80.70686420
  0
VERTEX
  8
0
 10
212.29694578
 20
81.07797680
  0
VERTEX
  8
0
 10
212.43173744
 20
81.44096805
  0
VERTEX
  8
0
 10
212.58660686
 20
81.80012116
  0
VERTEX
  8
0
 10
212.76087725
 20
82.15971931
  0
VERTEX
  8
0
 10
212.95387184
 20
82.52404570
  0
SEQEND
  0
POLYLINE
  8
0
 66
   1
 70
    1
  0
VERTEX
  8
0
 10
185.89410337
 20
98.65040110
  0
VERTEX
  8
0
 10
185.55045963
 20
98.96803364
  0
VERTEX
  8
0
 10
185.12648647
 20
99.31089572
  0
VERTEX
  8
0
 10
184.88804799
 20
99.47995191
  0
VERTEX
  8
0
 10
184.63393311
 20
99.64111234
  0
VERTEX
  8
0
 10
184.36561049
 20
99.78964265
  0
VERTEX
  8
0
 10
184.08454880
 20
99.92080846
  0
VERTEX
  8
0
 10
183.79248855
 20
100.03080513
  0
VERTEX
  8
0
 10
183.49225787
 20
100.11954697
  0
VERTEX
  8
0
 10
183.18695671
 20
100.18787804
  0
VERTEX
  8
0
 10
182.87968508
 20
100.23664239
  0
VERTEX
  8
0
 10
182.57354294
 20
100.26668408
  0
VERTEX
  8
0
 10
182.27163028
 20
100.27884716
  0
VERTEX
  8
0
 10
181.97704708
 20
100.27397569
  0
VERTEX
  8
0
 10
181.69289333
 20
100.25291372
  0
VERTEX
  8
0
 10
181.42170554
 20
100.21644008
  0
VERTEX
  8
0
 10
181.16401187
 20
100.16507271
  0
VERTEX
  8
0
 10
180.91975248
 20
100.09926434
  0
VERTEX
  8
0
 10
180.68886752
 20
100.01946769
  0
VERTEX
  8
0
 10
180.47129713
 20
99.92613547
  0
VERTEX
  8
0
 10
180.26698147
 20
99.81972041
  0
VERTEX
  8
0
 10
180.07586068
 20
99.70067522
  0
VERTEX
  8
0
 10
179.89787491
 20
99.56945263
  0
VERTEX
  8
0
 10
179.73290881
 20
99.42672097
  0
VERTEX
  8
0
 10
179.58062502
 20
99.27376551
  0
VERTEX
  8
0
 10
179.31253285
 20
98.94328494
  0
VERTEX
  8
0
 10
179.09045547
 20
98.59021439
  0
VERTEX
  8
0
 10
178.91124992
 20
98.22675737
  0
VERTEX
  8
0
 10
178.77402405
 20
97.86167568
  0
VERTEX
  8
0
 10
178.68688898
 20
97.48937502
  0
VERTEX
  8
0
 10
178.66534360
 20
97.29769383
  0
VERTEX
  8
0
 10
178.66020663
 20
97.10081940
  0
VERTEX
  8
0
 10
178.67277332
 20
96.89762224
  0
VERTEX
  8
0
 10
178.70433892
 20
96.68697284
  0
VERTEX
  8
0
 10
178.75582905
 20
96.46828753
  0
VERTEX
  8
0
 10
178.82666645
 20
96.24316593
  0
VERTEX
  8
0
 10
178.91589196
 20
96.01375346
  0
VERTEX
  8
0
 10
179.02254643
 20
95.78219555
  0
VERTEX
  8
0
 10
179.28430563
 20
95.32122518
  0
VERTEX
  8
0
 10
179.60427082
 20
94.87741827
  0
VERTEX
  8
0
 10
179.97296882
 20
94.46760612
  0
VERTEX
  8
0
 10
180.37382478
 20
94.10729137
  0
VERTEX
  8
0
 10
180.58058522
 20
93.95043629
  0
VERTEX
  8
0
 10
180.78851301
 20
93.81164449
  0
VERTEX
  8
0
 10
180.99531744
 20
93.69281228
  0
VERTEX
  8
0
 10
181.19870779
 20
93.59583596
  0
VERTEX
  8
0
 10
181.59737177
 20
93.43674201
  0
VERTEX
  8
0
 10
181.98839220
 20
93.30057514
  0
VERTEX
  8
0
 10
182.36983031
 20
93.18651021
  0
VERTEX
  8
0
 10
182.73974732
 20
93.09372211
  0
VERTEX
  8
0
 10
183.09620449
 20
93.02138571
  0
VERTEX
  8
0
 10
183.43726303
 20
92.96867587
  0
VERTEX
  8
0
 10
183.76098418
 20
92.93476747
  0
VERTEX
  8
0
 10
184.06542917
 20
92.91883539
  0
VERTEX
  8
0
 10
184.34917087
 20
92.92006003
  0
VERTEX
  8
0
 10
184.61282868
 20
92.93764399
  0
VERTEX
  8
0
 10
184.85753363
 20
92.97079538
  0
VERTEX
  8
0
 10
185.08441675
 20
93.01872233
  0
VERTEX
  8
0
 10
185.29460908
 20
93.08063296
  0
VERTEX
  8
0
 10
185.48924164
 20
93.15573539
  0
VERTEX
  8
0
 10
185.66944548
 20
93.24323775
  0
VERTEX
  8
0
 10
185.83635163
 20
93.34234816
  0
VERTEX
  8
0
 10
185.99087191
 20
93.45227756
  0
VERTEX
  8
0
 10
186.13333603
 20
93.57219903
  0
VERTEX
  8
0
 10
186.38253774
 20
93.83862354
  0
VERTEX
  8
0
 10
186.58484072
 20
94.13483244
  0
VERTEX
  8
0
 10
186.74112891
 20
94.45403645
  0
VERTEX
  8
0
 10
186.85236609
 20
94.79125719
  0
VERTEX
  8
0
 10
186.92032628
 20
95.14875978
  0
VERTEX
  8
0
 10
186.94681425
 20
95.53062026
  0
VERTEX
  8
0
 10
186.93363472
 20
95.94091463
  0
VERTEX
  8
0
 10
186.88367488
 20
96.37837629
  0
VERTEX
  8
0
 10
186.80483917
 20
96.81987715
  0
VERTEX
  8
0
 10
186.70616357
 20
97.23699557
  0
VERTEX
  8
0
 10
186.59668408
 20
97.60130994
  0
VERTEX
  8
0
 10
186.48014727
 20
97.89517185
  0
VERTEX
  8
0
 10
186.33924031
 20
98.14392749
  0
VERTEX
  8
0
 10
186.15141005
 20
98.38364715
  0
VERTEX
  8
0
 10
185.89410337
 20
98.65040110
  0
SEQEND
  0
POLYLINE
  8
0
 66
   1
 70
    1
  0
VERTEX
  8
0
 10
190.54816040
 20
108.15481870
  0
VERTEX
  8
0
 10
190.17800210
 20
108.55744393
  0
VERTEX
  8
0
 10
189.97640941
 20
108.74819206
  0
VERTEX
  8
0
 10
189.76004883
 20
108.92844322
  0
VERTEX
  8
0
 10
189.52610123
 20
109.09560693
  0
VERTEX
  8
0
 10
189.27174746
 20
109.24709271
  0
VERTEX
  8
0
 10
188.99416838
 20
109.38031008
  0
VERTEX
  8
0
 10
188.69054485
 20
109.49266857
  0
VERTEX
  8
0
 10
188.35960055
 20
109.58211609
  0
VERTEX
  8
0
 10
188.00654970
 20
109.64877874
  0
VERTEX
  8
0
 10
187.63816162
 20
109.69333331
  0
VERTEX
  8
0
 10
187.26120561
 20
109.71645657
  0
VERTEX
  8
0
 10
186.88245100
 20
109.71882529
  0
VERTEX
  8
0
 10
186.50866710
 20
109.70111626
  0
VERTEX
  8
0
 10
186.14662324
 20
109.66400625
  0
VERTEX
  8
0
 10
185.80308872
 20
109.60817205
  0
VERTEX
  8
0
 10
185.48341076
 20
109.53415896
  0
VERTEX
  8
0
 10
185.18754281
 20
109.44198642
  0
VERTEX
  8
0
 10
184.91401622
 20
109.33154241
  0
VERTEX
  8
0
 10
184.66136232
 20
109.20271488
  0
VERTEX
  8
0
 10
184.42811247
 20
109.05539182
  0
VERTEX
  8
0
 10
184.21279801
 20
108.88946120
  0
VERTEX
  8
0
 10
184.01395029
 20
108.70481099
  0
VERTEX
  8
0
 10
183.83010064
 20
108.50132915
  0
VERTEX
  8
0
 10
183.66015130
 20
108.27923591
  0
VERTEX
  8
0
 10
183.50475806
 20
108.04010504
  0
VERTEX
  8
0
 10
183.36493532
 20
107.78585486
  0
VERTEX
  8
0
 10
183.24169748
 20
107.51840367
  0
VERTEX
  8
0
 10
183.13605895
 20
107.23966977
  0
VERTEX
  8
0
 10
183.04903412
 20
106.95157147
  0
VERTEX
  8
0
 10
182.98163739
 20
106.65602708
  0
VERTEX
  8
0
 10
182.93488317
 20
106.35495489
  0
VERTEX
  8
0
 10
182.90959811
 20
106.05034075
  0
VERTEX
  8
0
 10
182.90585793
 20
105.74414592
  0
VERTEX
  8
0
 10
182.92355059
 20
105.43839921
  0
VERTEX
  8
0
 10
182.96256406
 20
105.13512941
  0
VERTEX
  8
0
 10
183.02278633
 20
104.83636533
  0
VERTEX
  8
0
 10
183.10410535
 20
104.54413577
  0
VERTEX
  8
0
 10
183.20640910
 20
104.26046952
  0
VERTEX
  8
0
 10
183.32958555
 20
103.98739539
  0
VERTEX
  8
0
 10
183.47326101
 20
103.72650301
  0
VERTEX
  8
0
 10
183.63633438
 20
103.47757626
  0
VERTEX
  8
0
 10
183.81745517
 20
103.23993528
  0
VERTEX
  8
0
 10
184.01527290
 20
103.01290023
  0
VERTEX
  8
0
 10
184.22843706
 20
102.79579126
  0
VERTEX
  8
0
 10
184.45559719
 20
102.58792852
  0
VERTEX
  8
0
 10
184.94650336
 20
102.19722236
  0
VERTEX
  8
0
 10
185.47884494
 20
101.83898108
  0
VERTEX
  8
0
 10
185.75990331
 20
101.67576473
  0
VERTEX
  8
0
 10
186.05089084
 20
101.52585836
  0
VERTEX
  8
0
 10
186.35181058
 20
101.39129229
  0
VERTEX
  8
0
 10
186.66266561
 20
101.27409686
  0
VERTEX
  8
0
 10
186.98345900
 20
101.17630241
  0
VERTEX
  8
0
 10
187.31419382
 20
101.09993926
  0
VERTEX
  8
0
 10
187.65409737
 20
101.04679325
  0
VERTEX
  8
0
 10
187.99963767
 20
101.01767209
  0
VERTEX
  8
0
 10
188.34653152
 20
101.01313900
  0
VERTEX
  8
0
 10
188.69049574
 20
101.03375721
  0
VERTEX
  8
0
 10
189.02724713
 20
101.08008992
  0
VERTEX
  8
0
 10
189.35250250
 20
101.15270034
  0
VERTEX
  8
0
 10
189.66197865
 20
101.25215170
  0
VERTEX
  8
0
 10
189.95139240
 20
101.37900720
  0
VERTEX
  8
0
 10
190.21730153
 20
101.53315943
  0
VERTEX
  8
0
 10
190.45997154
 20
101.71154830
  0
VERTEX
  8
0
 10
190.68053346
 20
101.91045536
  0
VERTEX
  8
0
 10
190.88011832
 20
102.12616218
  0
VERTEX
  8
0
 10
191.05985717
 20
102.35495030
  0
VERTEX
  8
0
 10
191.22088102
 20
102.59310130
  0
VERTEX
  8
0
 10
191.36432092
 20
102.83689671
  0
VERTEX
  8
0
 10
191.49130789
 20
103.08261811
  0
VERTEX
  8
0
 10
191.69941796
 20
103.56897559
  0
VERTEX
  8
0
 10
191.84980084
 20
104.04267533
  0
VERTEX
  8
0
 10
191.94606602
 20
104.49832765
  0
VERTEX
  8
0
 10
191.99182298
 20
104.93054288
  0
VERTEX
  8
0
 10
191.98952920
 20
105.33675919
  0
VERTEX
  8
0
 10
191.93762343
 20
105.72582431
  0
VERTEX
  8
0
 10
191.83339242
 20
106.10946293
  0
VERTEX
  8
0
 10
191.67412293
 20
106.49939972
  0
VERTEX
  8
0
 10
191.45892894
 20
106.90427987
  0
VERTEX
  8
0
 10
191.19413523
 20
107.31993935
  0
VERTEX
  8
0
 10
190.88784475
 20
107.73918377
  0
VERTEX
  8
0
 10
190.54816040
 20
108.15481870
  0
SEQEND
  0
POLYLINE
  8
0
 66
   1
 70
    1
  0
VERTEX
  8
0
 10
197.30485226
 20
115.63294899
  0
VERTEX
  8
0
 10
197.55502617
 20
115.38662627
  0
VERTEX
  8
0
 10
197.79222466
 20
115.12418365
  0
VERTEX
  8
0
 10
198.01520928
 20
114.84573161
  0
VERTEX
  8
0
 10
198.22274155
 20
114.55138066
  0
VERTEX
  8
0
 10
198.41358304
 20
114.24124128
  0
VERTEX
  8
0
 10
198.58649527
 20
113.91542398
  0
VERTEX
  8
0
 10
198.74023979
 20
113.57403924
  0
VERTEX
  8
0
 10
198.87357815
 20
113.21719756
  0
VERTEX
  8
0
 10
198.98547215
 20
112.84574326
  0
VERTEX
  8
0
 10
199.07570924
 20
112.46345589
  0
VERTEX
  8
0
 10
199.14428944
 20
112.07484887
  0
VERTEX
  8
0
 10
199.19121273
 20
111.68443556
  0
VERTEX
  8
0
 10
199.21647911
 20
111.29672937
  0
VERTEX
  8
0
 10
199.22008860
 20
110.91624368
  0
VERTEX
  8
0
 10
199.20204118
 20
110.54749188
  0
VERTEX
  8
0
 10
199.16233686
 20
110.19498737
  0
VERTEX
  8
0
 10
199.10133857
 20
109.86237798
  0
VERTEX
  8
0
 10
199.02083649
 20
109.54984942
  0
VERTEX
  8
0
 10
198.92297145
 20
109.25672184
  0
VERTEX
  8
0
 10
198.80988426
 20
108.98231538
  0
VERTEX
  8
0
 10
198.68371577
 20
108.72595020
  0
VERTEX
  8
0
 10
198.54660679
 20
108.48694646
  0
VERTEX
  8
0
 10
198.40069816
 20
108.26462430
  0
VERTEX
  8
0
 10
198.24813071
 20
108.05830388
  0
VERTEX
  8
0
 10
198.09040097
 20
107.86749846
  0
VERTEX
  8
0
 10
197.92669840
 20
107.69214998
  0
VERTEX
  8
0
 10
197.75555587
 20
107.53236893
  0
VERTEX
  8
0
 10
197.57550626
 20
107.38826582
  0
VERTEX
  8
0
 10
197.38508246
 20
107.25995112
  0
VERTEX
  8
0
 10
197.18281733
 20
107.14753534
  0
VERTEX
  8
0
 10
196.96724378
 20
107.05112897
  0
VERTEX
  8
0
 10
196.73689466
 20
106.97084251
  0
VERTEX
  8
0
 10
196.49122979
 20
106.90671765
  0
VERTEX
  8
0
 10
196.23339212
 20
106.85849630
  0
VERTEX
  8
0
 10
195.96743925
 20
106.82583933
  0
VERTEX
  8
0
 10
195.69742879
 20
106.80840755
  0
VERTEX
  8
0
 10
195.16146545
 20
106.81786301
  0
VERTEX
  8
0
 10
194.90362778
 20
106.84407193
  0
VERTEX
  8
0
 10
194.65796291
 20
106.88414942
  0
VERTEX
  8
0
 10
194.42726236
 20
106.93804435
  0
VERTEX
  8
0
 10
194.20920422
 20
107.00658745
  0
VERTEX
  8
0
 10
194.00017592
 20
107.09090977
  0
VERTEX
  8
0
 10
193.79656491
 20
107.19214234
  0
VERTEX
  8
0
 10
193.59475865
 20
107.31141619
  0
VERTEX
  8
0
 10
193.39114457
 20
107.44986235
  0
VERTEX
  8
0
 10
192.96404278
 20
107.78879575
  0
VERTEX
  8
0
 10
192.49723666
 20
108.21277710
  0
VERTEX
  8
0
 10
192.01601716
 20
108.70439331
  0
VERTEX
  8
0
 10
191.55645457
 20
109.24111578
  0
VERTEX
  8
0
 10
191.34606657
 20
109.51935169
  0
VERTEX
  8
0
 10
191.15461916
 20
109.80041594
  0
VERTEX
  8
0
 10
190.98561260
 20
110.08202526
  0
VERTEX
  8
0
 10
190.83848853
 20
110.36407654
  0
VERTEX
  8
0
 10
190.71166782
 20
110.64702407
  0
VERTEX
  8
0
 10
190.60357129
 20
110.93132207
  0
VERTEX
  8
0
 10
190.51261982
 20
111.21742483
  0
VERTEX
  8
0
 10
190.43723425
 20
111.50578657
  0
VERTEX
  8
0
 10
190.32684420
 20
112.09110408
  0
VERTEX
  8
0
 10
190.26337744
 20
112.68755082
  0
VERTEX
  8
0
 10
190.25224820
 20
113.28216827
  0
VERTEX
  8
0
 10
190.26913005
 20
113.57372285
  0
VERTEX
  8
0
 10
190.30248018
 20
113.85873830
  0
VERTEX
  8
0
 10
190.35342654
 20
114.13518737
  0
VERTEX
  8
0
 10
190.42309710
 20
114.40104279
  0
VERTEX
  8
0
 10
190.51211236
 20
114.65464100
  0
VERTEX
  8
0
 10
190.61906302
 20
114.89582241
  0
VERTEX
  8
0
 10
190.74203229
 20
115.12481566
  0
VERTEX
  8
0
 10
190.87910341
 20
115.34184944
  0
VERTEX
  8
0
 10
191.02835961
 20
115.54715239
  0
VERTEX
  8
0
 10
191.18788412
 20
115.74095318
  0
VERTEX
  8
0
 10
191.53007096
 20
116.09496292
  0
VERTEX
  8
0
 10
191.89306759
 20
116.40460507
  0
VERTEX
  8
0
 10
192.27591637
 20
116.66639087
  0
VERTEX
  8
0
 10
192.68044662
 20
116.87582687
  0
VERTEX
  8
0
 10
192.89141394
 20
116.95950950
  0
VERTEX
  8
0
 10
193.10848761
 20
117.02841965
  0
VERTEX
  8
0
 10
193.33181599
 20
117.08200074
  0
VERTEX
  8
0
 10
193.56156991
 20
117.11944657
  0
VERTEX
  8
0
 10
193.79786450
 20
117.13996835
  0
VERTEX
  8
0
 10
194.04081484
 20
117.14277726
  0
VERTEX
  8
0
 10
194.29053603
 20
117.12708450
  0
VERTEX
  8
0
 10
194.54714317
 20
117.09210125
  0
VERTEX
  8
0
 10
194.81075135
 20
117.03703872
  0
VERTEX
  8
0
 10
195.08147569
 20
116.96110809
  0
VERTEX
  8
0
 10
195.35900566
 20
116.86377045
  0
VERTEX
  8
0
 10
195.64137743
 20
116.74546189
  0
VERTEX
  8
0
 10
195.92622612
 20
116.60685613
  0
VERTEX
  8
0
 10
196.21118684
 20
116.44862686
  0
VERTEX
  8
0
 10
196.49389470
 20
116.27144781
  0
VERTEX
  8
0
 10
196.77198482
 20
116.07599267
  0
VERTEX
  8
0
 10
197.04309230
 20
115.86293516
  0
VERTEX
  8
0
 10
197.30485226
 20
115.63294899
  0
SEQEND
  0
POLYLINE
  8
0
 66
   1
 70
    1
  0
VERTEX
  8
0
 10
200.47137633
 20
118.78022248
  0
VERTEX
  8
0
 10
200.36781059
 20
118.54354653
  0
VERTEX
  8
0
 10
200.27451009
 20
118.28893980
  0
VERTEX
  8
0
 10
200.19271635
 20
118.01741515
  0
VERTEX
  8
0
 10
200.12367091
 20
117.72998545
  0
VERTEX
  8
0
 10
200.06861528
 20
117.42766355
  0
VERTEX
  8
0
 10
200.02879100
 20
117.11146233
  0
VERTEX
  8
0
 10
200.00543959
 20
116.78239465
  0
VERTEX
  8
0
 10
199.99980259
 20
116.44147337
  0
VERTEX
  8
0
 10
200.01280896
 20
116.09008071
  0
VERTEX
  8
0
 10
200.04443210
 20
115.73102710
  0
VERTEX
  8
0
 10
200.09433285
 20
115.36746777
  0
VERTEX
  8
0
 10
200.16217207
 20
115.00255795
  0
VERTEX
  8
0
 10
200.24761059
 20
114.63945288
  0
VERTEX
  8
0
 10
200.35030925
 20
114.28130778
  0
VERTEX
  8
0
 10
200.46992891
 20
113.93127788
  0
VERTEX
  8
0
 10
200.60613040
 20
113.59251840
  0
VERTEX
  8
0
 10
200.75851267
 20
113.26787715
  0
VERTEX
  8
0
 10
200.92645163
 20
112.95892303
  0
VERTEX
  8
0
 10
201.10927357
 20
112.66689297
  0
VERTEX
  8
0
 10
201.30630479
 20
112.39302390
  0
VERTEX
  8
0
 10
201.51687157
 20
112.13855273
  0
VERTEX
  8
0
 10
201.74030021
 20
111.90471639
  0
VERTEX
  8
0
 10
201.97591699
 20
111.69275180
  0
VERTEX
  8
0
 10
202.22304821
 20
111.50389589
  0
VERTEX
  8
0
 10
202.48085749
 20
111.33892084
  0
VERTEX
  8
0
 10
202.74790686
 20
111.19639610
  0
VERTEX
  8
0
 10
203.02262025
 20
111.07440184
  0
VERTEX
  8
0
 10
203.30342157
 20
110.97101821
  0
VERTEX
  8
0
 10
203.58873474
 20
110.88432538
  0
VERTEX
  8
0
 10
203.87698369
 20
110.81240350
  0
VERTEX
  8
0
 10
204.45598460
 20
110.70519323
  0
VERTEX
  8
0
 10
205.02866891
 20
110.63886794
  0
VERTEX
  8
0
 10
205.58689073
 20
110.62216692
  0
VERTEX
  8
0
 10
205.85832995
 20
110.63665345
  0
VERTEX
  8
0
 10
206.12345565
 20
110.66861958
  0
VERTEX
  8
0
 10
206.38136851
 20
110.71975650
  0
VERTEX
  8
0
 10
206.63116925
 20
110.79175537
  0
VERTEX
  8
0
 10
206.87209667
 20
110.88586232
  0
VERTEX
  8
0
 10
207.10399117
 20
111.00127322
  0
VERTEX
  8
0
 10
207.32685583
 20
111.13675112
  0
VERTEX
  8
0
 10
207.54069370
 20
111.29105911
  0
VERTEX
  8
0
 10
207.74550787
 20
111.46296027
  0
VERTEX
  8
0
 10
207.94130139
 20
111.65121767
  0
VERTEX
  8
0
 10
208.12807735
 20
111.85459439
  0
VERTEX
  8
0
 10
208.30583880
 20
112.07185350
  0
VERTEX
  8
0
 10
208.47433228
 20
112.30195221
  0
VERTEX
  8
0
 10
208.63232726
 20
112.54467337
  0
VERTEX
  8
0
 10
208.77836121
 20
112.80001852
  0
VERTEX
  8
0
 10
208.91097164
 20
113.06798919
  0
VERTEX
  8
0
 10
209.02869601
 20
113.34858692
  0
VERTEX
  8
0
 10
209.13007181
 20
113.64181323
  0
VERTEX
  8
0
 10
209.21363653
 20
113.94766967
  0
VERTEX
  8
0
 10
209.27792764
 20
114.26615777
  0
VERTEX
  8
0
 10
209.32192104
 20
114.59670740
  0
VERTEX
  8
0
 10
209.34664084
 20
114.93616719
  0
VERTEX
  8
0
 10
209.35354955
 20
115.28081407
  0
VERTEX
  8
0
 10
209.34410970
 20
115.62692500
  0
VERTEX
  8
0
 10
209.28203435
 20
116.30864682
  0
VERTEX
  8
0
 10
209.17211493
 20
116.95154828
  0
VERTEX
  8
0
 10
209.02442688
 20
117.53308851
  0
VERTEX
  8
0
 10
208.84244874
 20
118.05960253
  0
VERTEX
  8
0
 10
208.62798524
 20
118.54461976
  0
VERTEX
  8
0
 10
208.38284112
 20
119.00166963
  0
VERTEX
  8
0
 10
208.10778986
 20
119.43959988
  0
VERTEX
  8
0
 10
207.79938156
 20
119.84862970
  0
VERTEX
  8
0
 10
207.63125282
 20
120.03780277
  0
VERTEX
  8
0
 10
207.45308596
 20
120.21434571
  0
VERTEX
  8
0
 10
207.26431472
 20
120.37645686
  0
VERTEX
  8
0
 10
207.06437279
 20
120.52233454
  0
VERTEX
  8
0
 10
206.85300851
 20
120.65067226
  0
VERTEX
  8
0
 10
206.63149869
 20
120.76219334
  0
VERTEX
  8
0
 10
206.40142248
 20
120.85814085
  0
VERTEX
  8
0
 10
206.16435904
 20
120.93975784
  0
VERTEX
  8
0
 10
205.67558704
 20
121.06497256
  0
VERTEX
  8
0
 10
205.17781589
 20
121.14778198
  0
VERTEX
  8
0
 10
204.68209707
 20
121.19519431
  0
VERTEX
  8
0
 10
204.19364633
 20
121.20198153
  0
VERTEX
  8
0
 10
203.71604859
 20
121.16002844
  0
VERTEX
  8
0
 10
203.48243989
 20
121.11823828
  0
VERTEX
  8
0
 10
203.25288879
 20
121.06121984
  0
VERTEX
  8
0
 10
203.02780658
 20
120.98841528
  0
VERTEX
  8
0
 10
202.80770275
 20
120.90106843
  0
VERTEX
  8
0
 10
202.38422271
 20
120.68950030
  0
VERTEX
  8
0
 10
201.98603362
 20
120.44002030
  0
VERTEX
  8
0
 10
201.61672040
 20
120.16613332
  0
VERTEX
  8
0
 10
201.27936666
 20
119.87652954
  0
VERTEX
  8
0
 10
200.97544362
 20
119.55985462
  0
VERTEX
  8
0
 10
200.83629101
 20
119.38628198
  0
VERTEX
  8
0
 10
200.70582295
 20
119.19984135
  0
VERTEX
  8
0
 10
200.58414841
 20
118.99849931
  0
VERTEX
  8
0
 10
200.47137633
 20
118.78022248
  0
SEQEND
  0
POLYLINE
  8
0
 66
   1
 70
    1
  0
VERTEX
  8
0
 10
212.55995520
 20
122.48576280
  0
VERTEX
  8
0
 10
212.45246026
 20
122.09692174
  0
VERTEX
  8
0
 10
212.36053121
 20
121.69590788
  0
VERTEX
  8
0
 10
212.28349129
 20
121.28316934
  0
VERTEX
  8
0
 10
212.22066371
 20
120.85915422
  0
VERTEX
  8
0
 10
212.13493847
 20
119.97908676
  0
VERTEX
  8
0
 10
212.09794126
 20
119.05929042
  0
VERTEX
  8
0
 10
212.10636339
 20
118.10841855
  0
VERTEX
  8
0
 10
212.16531829
 20
117.15480887
  0
VERTEX
  8
0
 10
212.21600146
 20
116.68741678
  0
VERTEX
  8
0
 10
212.28202494
 20
116.23186754
  0
VERTEX
  8
0
 10
212.36429109
 20
115.79233691
  0
VERTEX
  8
0
 10
212.46370229
 20
115.37300067
  0
VERTEX
  8
0
 10
212.58086012
 20
114.97711278
  0
VERTEX
  8
0
 10
212.71516300
 20
114.60399441
  0
VERTEX
  8
0
 10
212.86570856
 20
114.25206948
  0
VERTEX
  8
0
 10
213.03159442
 20
113.91976190
  0
VERTEX
  8
0
 10
213.21191822
 20
113.60549561
  0
VERTEX
  8
0
 10
213.40577758
 20
113.30769452
  0
VERTEX
  8
0
 10
213.61227014
 20
113.02478256
  0
VERTEX
  8
0
 10
213.83049351
 20
112.75518363
  0
VERTEX
  8
0
 10
214.05961466
 20
112.49750863
  0
VERTEX
  8
0
 10
214.29910233
 20
112.25111634
  0
VERTEX
  8
0
 10
214.80737863
 20
111.79036286
  0
VERTEX
  8
0
 10
215.35172522
 20
111.36928915
  0
VERTEX
  8
0
 10
215.92854488
 20
110.98426117
  0
VERTEX
  8
0
 10
216.53613929
 20
110.63342712
  0
VERTEX
  8
0
 10
217.17981625
 20
110.32137660
  0
VERTEX
  8
0
 10
217.51743779
 20
110.18187102
  0
VERTEX
  8
0
 10
217.86678247
 20
110.05443235
  0
VERTEX
  8
0
 10
218.22875114
 20
109.93985093
  0
VERTEX
  8
0
 10
218.60424463
 20
109.83891711
  0
VERTEX
  8
0
 10
218.99329235
 20
109.75238336
  0
VERTEX
  8
0
 10
219.39214339
 20
109.68085077
  0
VERTEX
  8
0
 10
219.79617538
 20
109.62488254
  0
VERTEX
  8
0
 10
220.20076599
 20
109.58504189
  0
VERTEX
  8
0
 10
220.60129286
 20
109.56189203
  0
VERTEX
  8
0
 10
220.99313364
 20
109.55599618
  0
VERTEX
  8
0
 10
221.37166598
 20
109.56791756
  0
VERTEX
  8
0
 10
221.73226754
 20
109.59821937
  0
VERTEX
  8
0
 10
222.07196954
 20
109.64770194
  0
VERTEX
  8
0
 10
222.39417198
 20
109.71781933
  0
VERTEX
  8
0
 10
222.70395302
 20
109.81026273
  0
VERTEX
  8
0
 10
223.00639078
 20
109.92672332
  0
VERTEX
  8
0
 10
223.30656341
 20
110.06889228
  0
VERTEX
  8
0
 10
223.60954904
 20
110.23846078
  0
VERTEX
  8
0
 10
223.92042581
 20
110.43712000
  0
VERTEX
  8
0
 10
224.24427187
 20
110.66656111
  0
VERTEX
  8
0
 10
224.58425880
 20
110.92768446
  0
VERTEX
  8
0
 10
224.93563740
 20
111.21790773
  0
VERTEX
  8
0
 10
225.29175191
 20
111.53384550
  0
VERTEX
  8
0
 10
225.64594658
 20
111.87211235
  0
VERTEX
  8
0
 10
225.99156566
 20
112.22932286
  0
VERTEX
  8
0
 10
226.32195339
 20
112.60209158
  0
VERTEX
  8
0
 10
226.63045402
 20
112.98703311
  0
VERTEX
  8
0
 10
226.91041180
 20
113.38076202
  0
VERTEX
  8
0
 10
227.15694425
 20
113.78005554
  0
VERTEX
  8
0
 10
227.37223748
 20
114.18204697
  0
VERTEX
  8
0
 10
227.56023859
 20
114.58403226
  0
VERTEX
  8
0
 10
227.72489469
 20
114.98330737
  0
VERTEX
  8
0
 10
227.99996028
 20
115.76291087
  0
VERTEX
  8
0
 10
228.22901109
 20
116.49922511
  0
VERTEX
  8
0
 10
228.43550262
 20
117.17959031
  0
VERTEX
  8
0
 10
228.61040503
 20
117.82743333
  0
VERTEX
  8
0
 10
228.68065057
 20
118.14931452
  0
VERTEX
  8
0
 10
228.73656713
 20
118.47525178
  0
VERTEX
  8
0
 10
228.77601082
 20
118.80930732
  0
VERTEX
  8
0
 10
228.79683774
 20
119.15554332
  0
VERTEX
  8
0
 10
228.79766772
 20
119.51681117
  0
VERTEX
  8
0
 10
228.77988094
 20
119.89082424
  0
VERTEX
  8
0
 10
228.69703264
 20
120.66309623
  0
VERTEX
  8
0
 10
228.56544404
 20
121.44437965
  0
VERTEX
  8
0
 10
228.40226631
 20
122.20669486
  0
VERTEX
  8
0
 10
228.22013675
 20
122.92732913
  0
VERTEX
  8
0
 10
228.01363703
 20
123.60463732
  0
VERTEX
  8
0
 10
227.77283494
 20
124.24224119
  0
VERTEX
  8
0
 10
227.63646669
 20
124.54728580
  0
VERTEX
  8
0
 10
227.48779826
 20
124.84376249
  0
VERTEX
  8
0
 10
227.32586871
 20
125.13202960
  0
VERTEX
  8
0
 10
227.15052023
 20
125.41182240
  0
VERTEX
  8
0
 10
226.96186331
 20
125.68280635
  0
VERTEX
  8
0
 10
226.76000845
 20
125.94464688
  0
VERTEX
  8
0
 10
226.54506614
 20
126.19700945
  0
VERTEX
  8
0
 10
226.31714688
 20
126.43955950
  0
VERTEX
  8
0
 10
226.07636116
 20
126.67196248
  0
VERTEX
  8
0
 10
225.82281947
 20
126.89388384
  0
VERTEX
  8
0
 10
225.55662567
 20
127.10497649
  0
VERTEX
  8
0
 10
225.27780787
 20
127.30489233
  0
VERTEX
  8
0
 10
224.98636302
 20
127.49329527
  0
VERTEX
  8
0
 10
224.68228805
 20
127.66984921
  0
VERTEX
  8
0
 10
224.36557989
 20
127.83421808
  0
VERTEX
  8
0
 10
224.03623546
 20
127.98606578
  0
VERTEX
  8
0
 10
223.69425170
 20
128.12505623
  0
VERTEX
  8
0
 10
223.33962554
 20
128.25085334
  0
VERTEX
  8
0
 10
222.97285496
 20
128.36310721
  0
VERTEX
  8
0
 10
222.59614757
 20
128.46114260
  0
VERTEX
  8
0
 10
222.21221200
 20
128.54428274
  0
VERTEX
  8
0
 10
221.82375690
 20
128.61185083
  0
VERTEX
  8
0
 10
221.43349092
 20
128.66317011
  0
VERTEX
  8
0
 10
221.04412271
 20
128.69756380
  0
VERTEX
  8
0
 10
220.65836092
 20
128.71435511
  0
VERTEX
  8
0
 10
220.27891418
 20
128.71286727
  0
VERTEX
  8
0
 10
219.90810724
 20
128.69271713
  0
VERTEX
  8
0
 10
219.54643450
 20
128.65440141
  0
VERTEX
  8
0
 10
219.19400646
 20
128.59871044
  0
VERTEX
  8
0
 10
218.85093361
 20
128.52643457
  0
VERTEX
  8
0
 10
218.51732646
 20
128.43836413
  0
VERTEX
  8
0
 10
218.19329548
 20
128.33528948
  0
VERTEX
  8
0
 10
217.87895118
 20
128.21800095
  0
VERTEX
  8
0
 10
217.57440404
 20
128.08728888
  0
VERTEX
  8
0
 10
216.99483839
 20
127.78997709
  0
VERTEX
  8
0
 10
216.45317231
 20
127.45568650
  0
VERTEX
  8
0
 10
215.94757652
 20
127.09792199
  0
VERTEX
  8
0
 10
215.47622172
 20
126.73018843
  0
VERTEX
  8
0
 10
215.03667498
 20
126.36057442
  0
VERTEX
  8
0
 10
214.62330314
 20
125.97471773
  0
VERTEX
  8
0
 10
214.22977118
 20
125.55274165
  0
VERTEX
  8
0
 10
213.84974409
 20
125.07476946
  0
VERTEX
  8
0
 10
213.48037358
 20
124.52543425
  0
VERTEX
  8
0
 10
213.13265997
 20
123.90662262
  0
VERTEX
  8
0
 10
212.97143636
 20
123.57313133
  0
VERTEX
  8
0
 10
212.82104120
 20
123.22463274
  0
VERTEX
  8
0
 10
212.68327923
 20
122.86191415
  0
VERTEX
  8
0
 10
212.55995520
 20
122.48576280
  0
SEQEND
  0
POLYLINE
  8
0
 66
   1
 70
    1
  0
VERTEX
  8
0
 10
251.12317165
 20
43.62373223
  0
VERTEX
  8
0
 10
250.68043081
 20
44.37568553
  0
VERTEX
  8
0
 10
250.42749198
 20
44.76067131
  0
VERTEX
  8
0
 10
250.15109918
 20
45.14925890
  0
VERTEX
  8
0
 10
249.84944613
 20
45.53964509
  0
VERTEX
  8
0
 10
249.52072656
 20
45.93002668
  0
VERTEX
  8
0
 10
249.16313419
 20
46.31860045
  0
VERTEX
  8
0
 10
248.77486274
 20
46.70356321
  0
VERTEX
  8
0
 10
248.35526049
 20
47.08349873
  0
VERTEX
  8
0
 10
247.90858866
 20
47.45824408
  0
VERTEX
  8
0
 10
246.95569924
 20
48.19306052
  0
VERTEX
  8
0
 10
245.95952057
 20
48.90980497
  0
VERTEX
  8
0
 10
244.96337874
 20
49.61026992
  0
VERTEX
  8
0
 10
244.00934959
 20
50.29815693
  0
VERTEX
  8
0
 10
243.55984659
 20
50.64062333
  0
VERTEX
  8
0
 10
243.13470454
 20
50.98421463
  0
VERTEX
  8
0
 10
242.73843836
 20
51.33051305
  0
VERTEX
  8
0
 10
242.37556297
 20
51.68110079
  0
VERTEX
  8
0
 10
242.05059330
 20
52.03756009
  0
VERTEX
  8
0
 10
241.76804428
 20
52.40147315
  0
VERTEX
  8
0
 10
241.53094631
 20
52.77444727
  0
VERTEX
  8
0
 10
241.33671096
 20
53.15823909
  0
VERTEX
  8
0
 10
241.18127756
 20
53.55465490
  0
VERTEX
  8
0
 10
241.06058544
 20
53.96550097
  0
VERTEX
  8
0
 10
240.97057394
 20
54.39258359
  0
VERTEX
  8
0
 10
240.90718238
 20
54.83770901
  0
VERTEX
  8
0
 10
240.86635009
 20
55.30268353
  0
VERTEX
  8
0
 10
240.84401641
 20
55.78931342
  0
VERTEX
  8
0
 10
240.83706063
 20
56.29850795
  0
VERTEX
  8
0
 10
240.84612194
 20
56.82731831
  0
VERTEX
  8
0
 10
240.87277948
 20
57.37191095
  0
VERTEX
  8
0
 10
240.91861241
 20
57.92845234
  0
VERTEX
  8
0
 10
240.98519987
 20
58.49310892
  0
VERTEX
  8
0
 10
241.07412100
 20
59.06204716
  0
VERTEX
  8
0
 10
241.18695497
 20
59.63143352
  0
VERTEX
  8
0
 10
241.32528092
 20
60.19743446
  0
VERTEX
  8
0
 10
241.49040918
 20
60.75678578
  0
VERTEX
  8
0
 10
241.68259936
 20
61.30847615
  0
VERTEX
  8
0
 10
241.90185453
 20
61.85205132
  0
VERTEX
  8
0
 10
242.14817776
 20
62.38705704
  0
VERTEX
  8
0
 10
242.42157212
 20
62.91303905
  0
VERTEX
  8
0
 10
242.72204068
 20
63.42954309
  0
VERTEX
  8
0
 10
243.04958651
 20
63.93611492
  0
VERTEX
  8
0
 10
243.40421267
 20
64.43230027
  0
VERTEX
  8
0
 10
243.78553372
 20
64.91761983
  0
VERTEX
  8
0
 10
244.19190477
 20
65.39119935
  0
VERTEX
  8
0
 10
244.62129241
 20
65.85213955
  0
VERTEX
  8
0
 10
245.07166325
 20
66.29954111
  0
VERTEX
  8
0
 10
245.54098389
 20
66.73250473
  0
VERTEX
  8
0
 10
246.02722090
 20
67.15013112
  0
VERTEX
  8
0
 10
246.52834091
 20
67.55152097
  0
VERTEX
  8
0
 10
247.04231048
 20
67.93577498
  0
VERTEX
  8
0
 10
247.56786049
 20
68.30164318
  0
VERTEX
  8
0
 10
248.10672968
 20
68.64652205
  0
VERTEX
  8
0
 10
248.66139649
 20
68.96748194
  0
VERTEX
  8
0
 10
249.23433939
 20
69.26159324
  0
VERTEX
  8
0
 10
249.82803682
 20
69.52592629
  0
VERTEX
  8
0
 10
250.44496723
 20
69.75755146
  0
VERTEX
  8
0
 10
251.08760908
 20
69.95353912
  0
VERTEX
  8
0
 10
251.75844081
 20
70.11095963
  0
VERTEX
  8
0
 10
252.45915796
 20
70.22759107
  0
VERTEX
  8
0
 10
253.18829978
 20
70.30406701
  0
VERTEX
  8
0
 10
253.94361037
 20
70.34174100
  0
VERTEX
  8
0
 10
254.72283379
 20
70.34196659
  0
VERTEX
  8
0
 10
255.52371411
 20
70.30609735
  0
VERTEX
  8
0
 10
256.34399540
 20
70.23548682
  0
VERTEX
  8
0
 10
257.18142175
 20
70.13148857
  0
VERTEX
  8
0
 10
258.03373721
 20
69.99545614
  0
VERTEX
  8
0
 10
258.89774590
 20
69.82886153
  0
VERTEX
  8
0
 10
259.76649203
 20
69.63362585
  0
VERTEX
  8
0
 10
260.63207987
 20
69.41177636
  0
VERTEX
  8
0
 10
261.48661367
 20
69.16534033
  0
VERTEX
  8
0
 10
262.32219767
 20
68.89634503
  0
VERTEX
  8
0
 10
263.13093614
 20
68.60681772
  0
VERTEX
  8
0
 10
263.90493332
 20
68.29878567
  0
VERTEX
  8
0
 10
264.63629348
 20
67.97427614
  0
VERTEX
  8
0
 10
265.31945761
 20
67.63502788
  0
VERTEX
  8
0
 10
265.95818919
 20
67.28157649
  0
VERTEX
  8
0
 10
266.55857613
 20
66.91414449
  0
VERTEX
  8
0
 10
267.12670638
 20
66.53295440
  0
VERTEX
  8
0
 10
267.66866788
 20
66.13822874
  0
VERTEX
  8
0
 10
268.19054855
 20
65.73019005
  0
VERTEX
  8
0
 10
268.69843633
 20
65.30906083
  0
VERTEX
  8
0
 10
269.19841916
 20
64.87506362
  0
VERTEX
  8
0
 10
270.18824235
 20
63.96916093
  0
VERTEX
  8
0
 10
270.67538174
 20
63.49724905
  0
VERTEX
  8
0
 10
271.15462846
 20
63.01270091
  0
VERTEX
  8
0
 10
271.62394909
 20
62.51551957
  0
VERTEX
  8
0
 10
272.08131023
 20
62.00570811
  0
VERTEX
  8
0
 10
272.52467849
 20
61.48326960
  0
VERTEX
  8
0
 10
272.95202046
 20
60.94820710
  0
VERTEX
  8
0
 10
273.36150326
 20
60.40081220
  0
VERTEX
  8
0
 10
273.75180146
 20
59.84257963
  0
VERTEX
  8
0
 10
274.12179018
 20
59.27531722
  0
VERTEX
  8
0
 10
274.47034452
 20
58.70083277
  0
VERTEX
  8
0
 10
274.79633959
 20
58.12093410
  0
VERTEX
  8
0
 10
275.09865049
 20
57.53742901
  0
VERTEX
  8
0
 10
275.37615233
 20
56.95212532
  0
VERTEX
  8
0
 10
275.62772020
 20
56.36683084
  0
VERTEX
  8
0
 10
275.85251774
 20
55.78255715
  0
VERTEX
  8
0
 10
276.05091172
 20
55.19715549
  0
VERTEX
  8
0
 10
276.22358199
 20
54.60769317
  0
VERTEX
  8
0
 10
276.37120840
 20
54.01123747
  0
VERTEX
  8
0
 10
276.49447079
 20
53.40485569
  0
VERTEX
  8
0
 10
276.59404901
 20
52.78561513
  0
VERTEX
  8
0
 10
276.67062291
 20
52.15058307
  0
VERTEX
  8
0
 10
276.72487234
 20
51.49682682
  0
VERTEX
  8
0
 10
276.75750809
 20
50.82223521
  0
VERTEX
  8
0
 10
276.76938931
 20
50.12800782
  0
VERTEX
  8
0
 10
276.76141836
 20
49.41617806
  0
VERTEX
  8
0
 10
276.73449763
 20
48.68877933
  0
VERTEX
  8
0
 10
276.68952948
 20
47.94784504
  0
VERTEX
  8
0
 10
276.62741628
 20
47.19540859
  0
VERTEX
  8
0
 10
276.45536421
 20
45.66416282
  0
VERTEX
  8
0
 10
276.34655894
 20
44.88896247
  0
VERTEX
  8
0
 10
276.22016664
 20
44.10767112
  0
VERTEX
  8
0
 10
276.07302595
 20
43.31961199
  0
VERTEX
  8
0
 10
275.90197550
 20
42.52410830
  0
VERTEX
  8
0
 10
275.70385392
 20
41.72048327
  0
VERTEX
  8
0
 10
275.47549984
 20
40.90806012
  0
VERTEX
  8
0
 10
275.21375190
 20
40.08616207
  0
VERTEX
  8
0
 10
274.91544872
 20
39.25411236
  0
VERTEX
  8
0
 10
274.57860704
 20
38.41172860
  0
VERTEX
  8
0
 10
274.20566132
 20
37.56078153
  0
VERTEX
  8
0
 10
273.80022410
 20
36.70352399
  0
VERTEX
  8
0
 10
273.36590794
 20
35.84220886
  0
VERTEX
  8
0
 10
272.90632540
 20
34.97908899
  0
VERTEX
  8
0
 10
272.42508902
 20
34.11641723
  0
VERTEX
  8
0
 10
271.92581136
 20
33.25644645
  0
VERTEX
  8
0
 10
271.41210497
 20
32.40142950
  0
VERTEX
  8
0
 10
270.35099447
 20
30.71289085
  0
VERTEX
  8
0
 10
269.24654561
 20
29.05683756
  0
VERTEX
  8
0
 10
268.09878295
 20
27.43687910
  0
VERTEX
  8
0
 10
266.90773103
 20
25.85662497
  0
VERTEX
  8
0
 10
266.29611739
 20
25.08296592
  0
VERTEX
  8
0
 10
265.67456847
 20
24.32329208
  0
VERTEX
  8
0
 10
265.04398969
 20
23.58076023
  0
VERTEX
  8
0
 10
264.40528651
 20
22.85852711
  0
VERTEX
  8
0
 10
263.75936436
 20
22.15974950
  0
VERTEX
  8
0
 10
263.10712868
 20
21.48758417
  0
VERTEX
  8
0
 10
262.44948492
 20
20.84518786
  0
VERTEX
  8
0
 10
261.78733851
 20
20.23571736
  0
VERTEX
  8
0
 10
261.12185143
 20
19.66170788
  0
VERTEX
  8
0
 10
260.45523639
 20
19.12288934
  0
VERTEX
  8
0
 10
259.78997491
 20
18.61835782
  0
VERTEX
  8
0
 10
259.12854850
 20
18.14720943
  0
VERTEX
  8
0
 10
258.47343869
 20
17.70854025
  0
VERTEX
  8
0
 10
257.82712700
 20
17.30144639
  0
VERTEX
  8
0
 10
257.19209494
 20
16.92502392
  0
VERTEX
  8
0
 10
256.57082404
 20
16.57836896
  0
VERTEX
  8
0
 10
255.96473743
 20
16.26085280
  0
VERTEX
  8
0
 10
255.37104921
 20
15.97289851
  0
VERTEX
  8
0
 10
254.78592737
 20
15.71517977
  0
VERTEX
  8
0
 10
254.20553991
 20
15.48837031
  0
VERTEX
  8
0
 10
253.62605482
 20
15.29314384
  0
VERTEX
  8
0
 10
253.04364010
 20
15.13017406
  0
VERTEX
  8
0
 10
252.45446373
 20
15.00013468
  0
VERTEX
  8
0
 10
251.85469372
 20
14.90369941
  0
VERTEX
  8
0
 10
251.24157613
 20
14.84132301
  0
VERTEX
  8
0
 10
250.61671851
 20
14.81255994
  0
VERTEX
  8
0
 10
249.98283104
 20
14.81673341
  0
VERTEX
  8
0
 10
249.34262391
 20
14.85316663
  0
VERTEX
  8
0
 10
248.69880729
 20
14.92118284
  0
VERTEX
  8
0
 10
248.05409137
 20
15.02010526
  0
VERTEX
  8
0
 10
247.41118633
 20
15.14925711
  0
VERTEX
  8
0
 10
246.77280236
 20
15.30796160
  0
VERTEX
  8
0
 10
246.14213176
 20
15.49508515
  0
VERTEX
  8
0
 10
245.52431995
 20
15.70769147
  0
VERTEX
  8
0
 10
244.92500674
 20
15.94239975
  0
VERTEX
  8
0
 10
244.34983196
 20
16.19582915
  0
VERTEX
  8
0
 10
243.80443542
 20
16.46459886
  0
VERTEX
  8
0
 10
243.29445694
 20
16.74532805
  0
VERTEX
  8
0
 10
242.82553634
 20
17.03463591
  0
VERTEX
  8
0
 10
242.40331344
 20
17.32914160
  0
VERTEX
  8
0
 10
242.03157420
 20
17.62639176
  0
VERTEX
  8
0
 10
241.70698384
 20
17.92769183
  0
VERTEX
  8
0
 10
241.42435374
 20
18.23529930
  0
VERTEX
  8
0
 10
241.17849525
 20
18.55147162
  0
VERTEX
  8
0
 10
240.96421974
 20
18.87846625
  0
VERTEX
  8
0
 10
240.77633859
 20
19.21854066
  0
VERTEX
  8
0
 10
240.60966315
 20
19.57395231
  0
VERTEX
  8
0
 10
240.45900480
 20
19.94695865
  0
VERTEX
  8
0
 10
240.32034609
 20
20.33870019
  0
VERTEX
  8
0
 10
240.19432978
 20
20.74555491
  0
VERTEX
  8
0
 10
240.08275754
 20
21.16278382
  0
VERTEX
  8
0
 10
239.98743105
 20
21.58564795
  0
VERTEX
  8
0
 10
239.91015198
 20
22.00940831
  0
VERTEX
  8
0
 10
239.85272200
 20
22.42932592
  0
VERTEX
  8
0
 10
239.81694279
 20
22.84066180
  0
VERTEX
  8
0
 10
239.80461601
 20
23.23867697
  0
VERTEX
  8
0
 10
239.81761957
 20
23.61992282
  0
VERTEX
  8
0
 10
239.85813623
 20
23.98581762
  0
VERTEX
  8
0
 10
239.92842499
 20
24.33907002
  0
VERTEX
  8
0
 10
240.03074486
 20
24.68238867
  0
VERTEX
  8
0
 10
240.16735482
 20
25.01848220
  0
VERTEX
  8
0
 10
240.34051387
 20
25.35005929
  0
VERTEX
  8
0
 10
240.55248102
 20
25.67982855
  0
VERTEX
  8
0
 10
240.80551525
 20
26.01049866
  0
VERTEX
  8
0
 10
241.10126170
 20
26.34505244
  0
VERTEX
  8
0
 10
241.43895920
 20
26.68727484
  0
VERTEX
  8
0
 10
241.81725726
 20
27.04122499
  0
VERTEX
  8
0
 10
242.23480538
 20
27.41096203
  0
VERTEX
  8
0
 10
243.18224987
 20
28.21403331
  0
VERTEX
  8
0
 10
244.27048879
 20
29.12896176
  0
VERTEX
  8
0
 10
245.47626102
 20
30.17082167
  0
VERTEX
  8
0
 10
246.72716408
 20
31.28489582
  0
VERTEX
  8
0
 10
247.93838736
 20
32.39896997
  0
VERTEX
  8
0
 10
249.02512028
 20
33.44082989
  0
VERTEX
  8
0
 10
249.49750023
 20
33.91490715
  0
VERTEX
  8
0
 10
249.92047690
 20
34.36032340
  0
VERTEX
  8
0
 10
250.29698453
 20
34.78452471
  0
VERTEX
  8
0
 10
250.62995737
 20
35.19495720
  0
VERTEX
  8
0
 10
250.92232966
 20
35.59906695
  0
VERTEX
  8
0
 10
251.17703563
 20
36.00430006
  0
VERTEX
  8
0
 10
251.39700953
 20
36.41810263
  0
VERTEX
  8
0
 10
251.58518559
 20
36.84792074
  0
VERTEX
  8
0
 10
251.74411567
 20
37.29899317
  0
VERTEX
  8
0
 10
251.87484667
 20
37.76743471
  0
VERTEX
  8
0
 10
251.97805535
 20
38.24715281
  0
VERTEX
  8
0
 10
252.05441849
 20
38.73205495
  0
VERTEX
  8
0
 10
252.10461287
 20
39.21604857
  0
VERTEX
  8
0
 10
252.12931528
 20
39.69304114
  0
VERTEX
  8
0
 10
252.12920248
 20
40.15694013
  0
VERTEX
  8
0
 10
252.10495126
 20
40.60165300
  0
VERTEX
  8
0
 10
252.05723840
 20
41.02282876
  0
VERTEX
  8
0
 10
251.98674067
 20
41.42303361
  0
VERTEX
  8
0
 10
251.89413485
 20
41.80655073
  0
VERTEX
  8
0
 10
251.78009772
 20
42.17766332
  0
VERTEX
  8
0
 10
251.64530605
 20
42.54065458
  0
VERTEX
  8
0
 10
251.49043664
 20
42.89980769
  0
VERTEX
  8
0
 10
251.31616624
 20
43.25940584
  0
VERTEX
  8
0
 10
251.12317165
 20
43.62373223
  0
SEQEND
  0
POLYLINE
  8
0
 66
   1
 70
    1
  0
VERTEX
  8
0
 10
278.18294012
 20
59.75008763
  0
VERTEX
  8
0
 10
278.52658386
 20
60.06772017
  0
VERTEX
  8
0
 10
278.95055702
 20
60.41058225
  0
VERTEX
  8
0
 10
279.18899551
 20
60.57963844
  0
VERTEX
  8
0
 10
279.44311038
 20
60.74079887
  0
VERTEX
  8
0
 10
279.71143300
 20
60.88932918
  0
VERTEX
  8
0
 10
279.99249470
 20
61.02049499
  0
VERTEX
  8
0
 10
280.28455494
 20
61.13049166
  0
VERTEX
  8
0
 10
280.58478562
 20
61.21923350
  0
VERTEX
  8
0
 10
280.89008678
 20
61.28756457
  0
VERTEX
  8
0
 10
281.19735841
 20
61.33632892
  0
VERTEX
  8
0
 10
281.50350055
 20
61.36637061
  0
VERTEX
  8
0
 10
281.80541321
 20
61.37853369
  0
VERTEX
  8
0
 10
282.09999641
 20
61.37366222
  0
VERTEX
  8
0
 10
282.38415016
 20
61.35260025
  0
VERTEX
  8
0
 10
282.65533796
 20
61.31612661
  0
VERTEX
  8
0
 10
282.91303162
 20
61.26475924
  0
VERTEX
  8
0
 10
283.15729101
 20
61.19895087
  0
VERTEX
  8
0
 10
283.38817597
 20
61.11915422
  0
VERTEX
  8
0
 10
283.60574636
 20
61.02582200
  0
VERTEX
  8
0
 10
283.81006202
 20
60.91940694
  0
VERTEX
  8
0
 10
284.00118281
 20
60.80036175
  0
VERTEX
  8
0
 10
284.17916858
 20
60.66913916
  0
VERTEX
  8
0
 10
284.34413468
 20
60.52640750
  0
VERTEX
  8
0
 10
284.49641848
 20
60.37345204
  0
VERTEX
  8
0
 10
284.76451064
 20
60.04297146
  0
VERTEX
  8
0
 10
284.98658802
 20
59.68990092
  0
VERTEX
  8
0
 10
285.16579357
 20
59.32644390
  0
VERTEX
  8
0
 10
285.30301944
 20
58.96136221
  0
VERTEX
  8
0
 10
285.39015451
 20
58.58906155
  0
VERTEX
  8
0
 10
285.41169989
 20
58.39738036
  0
VERTEX
  8
0
 10
285.41683686
 20
58.20050593
  0
VERTEX
  8
0
 10
285.40427017
 20
57.99730877
  0
VERTEX
  8
0
 10
285.37270458
 20
57.78665937
  0
VERTEX
  8
0
 10
285.32121444
 20
57.56797406
  0
VERTEX
  8
0
 10
285.25037704
 20
57.34285246
  0
VERTEX
  8
0
 10
285.16115153
 20
57.11343999
  0
VERTEX
  8
0
 10
285.05449706
 20
56.88188208
  0
VERTEX
  8
0
 10
284.79273787
 20
56.42091171
  0
VERTEX
  8
0
 10
284.47277267
 20
55.97710480
  0
VERTEX
  8
0
 10
284.10407467
 20
55.56729265
  0
VERTEX
  8
0
 10
283.70321871
 20
55.20697790
  0
VERTEX
  8
0
 10
283.49645827
 20
55.05012282
  0
VERTEX
  8
0
 10
283.28853048
 20
54.91133102
  0
VERTEX
  8
0
 10
283.08172606
 20
54.79249881
  0
VERTEX
  8
0
 10
282.87833570
 20
54.69552249
  0
VERTEX
  8
0
 10
282.47967172
 20
54.53642854
  0
VERTEX
  8
0
 10
282.08865129
 20
54.40026167
  0
VERTEX
  8
0
 10
281.70721319
 20
54.28619674
  0
VERTEX
  8
0
 10
281.33729617
 20
54.19340864
  0
VERTEX
  8
0
 10
280.98083900
 20
54.12107223
  0
VERTEX
  8
0
 10
280.63978046
 20
54.06836240
  0
VERTEX
  8
0
 10
280.31605931
 20
54.03445400
  0
VERTEX
  8
0
 10
280.01161432
 20
54.01852192
  0
VERTEX
  8
0
 10
279.72787262
 20
54.01974656
  0
VERTEX
  8
0
 10
279.46421481
 20
54.03733052
  0
VERTEX
  8
0
 10
279.21950987
 20
54.07048191
  0
VERTEX
  8
0
 10
278.99262674
 20
54.11840886
  0
VERTEX
  8
0
 10
278.78243442
 20
54.18031949
  0
VERTEX
  8
0
 10
278.58780185
 20
54.25542192
  0
VERTEX
  8
0
 10
278.40759801
 20
54.34292428
  0
VERTEX
  8
0
 10
278.24069186
 20
54.44203469
  0
VERTEX
  8
0
 10
278.08617158
 20
54.55196409
  0
VERTEX
  8
0
 10
277.94370746
 20
54.67188556
  0
VERTEX
  8
0
 10
277.69450575
 20
54.93831007
  0
VERTEX
  8
0
 10
277.49220277
 20
55.23451897
  0
VERTEX
  8
0
 10
277.33591458
 20
55.55372298
  0
VERTEX
  8
0
 10
277.22467741
 20
55.89094372
  0
VERTEX
  8
0
 10
277.15671721
 20
56.24844631
  0
VERTEX
  8
0
 10
277.13022924
 20
56.63030679
  0
VERTEX
  8
0
 10
277.14340877
 20
57.04060116
  0
VERTEX
  8
0
 10
277.19336861
 20
57.47806282
  0
VERTEX
  8
0
 10
277.27220432
 20
57.91956368
  0
VERTEX
  8
0
 10
277.37087992
 20
58.33668210
  0
VERTEX
  8
0
 10
277.48035941
 20
58.70099647
  0
VERTEX
  8
0
 10
277.59689622
 20
58.99485838
  0
VERTEX
  8
0
 10
277.73780319
 20
59.24361402
  0
VERTEX
  8
0
 10
277.92563344
 20
59.48333368
  0
VERTEX
  8
0
 10
278.18294012
 20
59.75008763
  0
SEQEND
  0
POLYLINE
  8
0
 66
   1
 70
    1
  0
VERTEX
  8
0
 10
273.52888310
 20
69.25450523
  0
VERTEX
  8
0
 10
273.89904139
 20
69.65713046
  0
VERTEX
  8
0
 10
274.10063409
 20
69.84787859
  0
VERTEX
  8
0
 10
274.31699466
 20
70.02812975
  0
VERTEX
  8
0
 10
274.55094226
 20
70.19529346
  0
VERTEX
  8
0
 10
274.80529603
 20
70.34677924
  0
VERTEX
  8
0
 10
275.08287511
 20
70.47999661
  0
VERTEX
  8
0
 10
275.38649864
 20
70.59235510
  0
VERTEX
  8
0
 10
275.71744294
 20
70.68180262
  0
VERTEX
  8
0
 10
276.07049379
 20
70.74846527
  0
VERTEX
  8
0
 10
276.43888187
 20
70.79301984
  0
VERTEX
  8
0
 10
276.81583788
 20
70.81614310
  0
VERTEX
  8
0
 10
277.19459249
 20
70.81851182
  0
VERTEX
  8
0
 10
277.56837639
 20
70.80080279
  0
VERTEX
  8
0
 10
277.93042025
 20
70.76369278
  0
VERTEX
  8
0
 10
278.27395477
 20
70.70785858
  0
VERTEX
  8
0
 10
278.59363273
 20
70.63384549
  0
VERTEX
  8
0
 10
278.88950068
 20
70.54167295
  0
VERTEX
  8
0
 10
279.16302727
 20
70.43122893
  0
VERTEX
  8
0
 10
279.41568117
 20
70.30240141
  0
VERTEX
  8
0
 10
279.64893102
 20
70.15507835
  0
VERTEX
  8
0
 10
279.86424548
 20
69.98914773
  0
VERTEX
  8
0
 10
280.06309320
 20
69.80449751
  0
VERTEX
  8
0
 10
280.24694285
 20
69.60101568
  0
VERTEX
  8
0
 10
280.41689219
 20
69.37892244
  0
VERTEX
  8
0
 10
280.57228543
 20
69.13979157
  0
VERTEX
  8
0
 10
280.71210817
 20
68.88554139
  0
VERTEX
  8
0
 10
280.83534601
 20
68.61809020
  0
VERTEX
  8
0
 10
280.94098454
 20
68.33935630
  0
VERTEX
  8
0
 10
281.02800937
 20
68.05125800
  0
VERTEX
  8
0
 10
281.09540610
 20
67.75571360
  0
VERTEX
  8
0
 10
281.14216032
 20
67.45464142
  0
VERTEX
  8
0
 10
281.16744538
 20
67.15002728
  0
VERTEX
  8
0
 10
281.17118556
 20
66.84383245
  0
VERTEX
  8
0
 10
281.15349290
 20
66.53808574
  0
VERTEX
  8
0
 10
281.11447943
 20
66.23481594
  0
VERTEX
  8
0
 10
281.05425716
 20
65.93605186
  0
VERTEX
  8
0
 10
280.97293814
 20
65.64382230
  0
VERTEX
  8
0
 10
280.87063439
 20
65.36015605
  0
VERTEX
  8
0
 10
280.74745794
 20
65.08708192
  0
VERTEX
  8
0
 10
280.60378248
 20
64.82618954
  0
VERTEX
  8
0
 10
280.44070911
 20
64.57726279
  0
VERTEX
  8
0
 10
280.25958832
 20
64.33962181
  0
VERTEX
  8
0
 10
280.06177060
 20
64.11258676
  0
VERTEX
  8
0
 10
279.84860643
 20
63.89547779
  0
VERTEX
  8
0
 10
279.62144630
 20
63.68761505
  0
VERTEX
  8
0
 10
279.13054013
 20
63.29690889
  0
VERTEX
  8
0
 10
278.59819855
 20
62.93866761
  0
VERTEX
  8
0
 10
278.31714018
 20
62.77545126
  0
VERTEX
  8
0
 10
278.02615266
 20
62.62554489
  0
VERTEX
  8
0
 10
277.72523291
 20
62.49097882
  0
VERTEX
  8
0
 10
277.41437788
 20
62.37378339
  0
VERTEX
  8
0
 10
277.09358449
 20
62.27598894
  0
VERTEX
  8
0
 10
276.76284968
 20
62.19962579
  0
VERTEX
  8
0
 10
276.42294613
 20
62.14647977
  0
VERTEX
  8
0
 10
276.07740583
 20
62.11735862
  0
VERTEX
  8
0
 10
275.73051197
 20
62.11282553
  0
VERTEX
  8
0
 10
275.38654775
 20
62.13344374
  0
VERTEX
  8
0
 10
275.04979636
 20
62.17977644
  0
VERTEX
  8
0
 10
274.72454099
 20
62.25238687
  0
VERTEX
  8
0
 10
274.41506484
 20
62.35183823
  0
VERTEX
  8
0
 10
274.12565109
 20
62.47869373
  0
VERTEX
  8
0
 10
273.85974196
 20
62.63284596
  0
VERTEX
  8
0
 10
273.61707195
 20
62.81123483
  0
VERTEX
  8
0
 10
273.39651003
 20
63.01014189
  0
VERTEX
  8
0
 10
273.19692517
 20
63.22584871
  0
VERTEX
  8
0
 10
273.01718632
 20
63.45463683
  0
VERTEX
  8
0
 10
272.85616247
 20
63.69278783
  0
VERTEX
  8
0
 10
272.71272258
 20
63.93658324
  0
VERTEX
  8
0
 10
272.58573560
 20
64.18230464
  0
VERTEX
  8
0
 10
272.37762553
 20
64.66866212
  0
VERTEX
  8
0
 10
272.22724265
 20
65.14236186
  0
VERTEX
  8
0
 10
272.13097747
 20
65.59801418
  0
VERTEX
  8
0
 10
272.08522051
 20
66.03022941
  0
VERTEX
  8
0
 10
272.08751429
 20
66.43644572
  0
VERTEX
  8
0
 10
272.13942006
 20
66.82551084
  0
VERTEX
  8
0
 10
272.24365107
 20
67.20914946
  0
VERTEX
  8
0
 10
272.40292057
 20
67.59908625
  0
VERTEX
  8
0
 10
272.61811456
 20
68.00396639
  0
VERTEX
  8
0
 10
272.88290826
 20
68.41962588
  0
VERTEX
  8
0
 10
273.18919874
 20
68.83887029
  0
VERTEX
  8
0
 10
273.52888310
 20
69.25450523
  0
SEQEND
  0
POLYLINE
  8
0
 66
   1
 70
    1
  0
VERTEX
  8
0
 10
266.77219123
 20
76.73263552
  0
VERTEX
  8
0
 10
266.52201732
 20
76.48631280
  0
VERTEX
  8
0
 10
266.28481883
 20
76.22387017
  0
VERTEX
  8
0
 10
266.06183421
 20
75.94541814
  0
VERTEX
  8
0
 10
265.85430194
 20
75.65106719
  0
VERTEX
  8
0
 10
265.66346045
 20
75.34092781
  0
VERTEX
  8
0
 10
265.49054822
 20
75.01511051
  0
VERTEX
  8
0
 10
265.33680370
 20
74.67372577
  0
VERTEX
  8
0
 10
265.20346534
 20
74.31688409
  0
VERTEX
  8
0
 10
265.09157135
 20
73.94542978
  0
VERTEX
  8
0
 10
265.00133425
 20
73.56314242
  0
VERTEX
  8
0
 10
264.93275406
 20
73.17453540
  0
VERTEX
  8
0
 10
264.88583077
 20
72.78412209
  0
VERTEX
  8
0
 10
264.86056438
 20
72.39641590
  0
VERTEX
  8
0
 10
264.85695489
 20
72.01593021
  0
VERTEX
  8
0
 10
264.87500231
 20
71.64717841
  0
VERTEX
  8
0
 10
264.91470664
 20
71.29467390
  0
VERTEX
  8
0
 10
264.97570492
 20
70.96206451
  0
VERTEX
  8
0
 10
265.05620700
 20
70.64953595
  0
VERTEX
  8
0
 10
265.15407204
 20
70.35640837
  0
VERTEX
  8
0
 10
265.26715923
 20
70.08200191
  0
VERTEX
  8
0
 10
265.39332773
 20
69.82563673
  0
VERTEX
  8
0
 10
265.53043670
 20
69.58663299
  0
VERTEX
  8
0
 10
265.67634533
 20
69.36431083
  0
VERTEX
  8
0
 10
265.82891278
 20
69.15799041
  0
VERTEX
  8
0
 10
265.98664252
 20
68.96718499
  0
VERTEX
  8
0
 10
266.15034509
 20
68.79183651
  0
VERTEX
  8
0
 10
266.32148762
 20
68.63205546
  0
VERTEX
  8
0
 10
266.50153723
 20
68.48795235
  0
VERTEX
  8
0
 10
266.69196104
 20
68.35963765
  0
VERTEX
  8
0
 10
266.89422616
 20
68.24722187
  0
VERTEX
  8
0
 10
267.10979972
 20
68.15081550
  0
VERTEX
  8
0
 10
267.34014883
 20
68.07052904
  0
VERTEX
  8
0
 10
267.58581370
 20
68.00640418
  0
VERTEX
  8
0
 10
267.84365137
 20
67.95818283
  0
VERTEX
  8
0
 10
268.10960424
 20
67.92552585
  0
VERTEX
  8
0
 10
268.37961470
 20
67.90809408
  0
VERTEX
  8
0
 10
268.91557804
 20
67.91754954
  0
VERTEX
  8
0
 10
269.17341571
 20
67.94375845
  0
VERTEX
  8
0
 10
269.41908058
 20
67.98383595
  0
VERTEX
  8
0
 10
269.64978113
 20
68.03773088
  0
VERTEX
  8
0
 10
269.86783928
 20
68.10627398
  0
VERTEX
  8
0
 10
270.07686758
 20
68.19059630
  0
VERTEX
  8
0
 10
270.28047858
 20
68.29182887
  0
VERTEX
  8
0
 10
270.48228484
 20
68.41110272
  0
VERTEX
  8
0
 10
270.68589892
 20
68.54954888
  0
VERTEX
  8
0
 10
271.11300071
 20
68.88848228
  0
VERTEX
  8
0
 10
271.57980683
 20
69.31246363
  0
VERTEX
  8
0
 10
272.06102633
 20
69.80407984
  0
VERTEX
  8
0
 10
272.52058892
 20
70.34080231
  0
VERTEX
  8
0
 10
272.73097692
 20
70.61903822
  0
VERTEX
  8
0
 10
272.92242433
 20
70.90010247
  0
VERTEX
  8
0
 10
273.09143089
 20
71.18171178
  0
VERTEX
  8
0
 10
273.23855496
 20
71.46376307
  0
VERTEX
  8
0
 10
273.36537568
 20
71.74671060
  0
VERTEX
  8
0
 10
273.47347220
 20
72.03100860
  0
VERTEX
  8
0
 10
273.56442367
 20
72.31711135
  0
VERTEX
  8
0
 10
273.63980925
 20
72.60547310
  0
VERTEX
  8
0
 10
273.75019929
 20
73.19079061
  0
VERTEX
  8
0
 10
273.81366605
 20
73.78723735
  0
VERTEX
  8
0
 10
273.82479529
 20
74.38185480
  0
VERTEX
  8
0
 10
273.80791344
 20
74.67340938
  0
VERTEX
  8
0
 10
273.77456331
 20
74.95842483
  0
VERTEX
  8
0
 10
273.72361695
 20
75.23487390
  0
VERTEX
  8
0
 10
273.65394639
 20
75.50072932
  0
VERTEX
  8
0
 10
273.56493113
 20
75.75432753
  0
VERTEX
  8
0
 10
273.45798047
 20
75.99550893
  0
VERTEX
  8
0
 10
273.33501120
 20
76.22450219
  0
VERTEX
  8
0
 10
273.19794008
 20
76.44153597
  0
VERTEX
  8
0
 10
273.04868388
 20
76.64683892
  0
VERTEX
  8
0
 10
272.88915938
 20
76.84063971
  0
VERTEX
  8
0
 10
272.54697253
 20
77.19464945
  0
VERTEX
  8
0
 10
272.18397591
 20
77.50429160
  0
VERTEX
  8
0
 10
271.80112712
 20
77.76607740
  0
VERTEX
  8
0
 10
271.39659688
 20
77.97551340
  0
VERTEX
  8
0
 10
271.18562955
 20
78.05919603
  0
VERTEX
  8
0
 10
270.96855588
 20
78.12810618
  0
VERTEX
  8
0
 10
270.74522751
 20
78.18168726
  0
VERTEX
  8
0
 10
270.51547358
 20
78.21913310
  0
VERTEX
  8
0
 10
270.27917899
 20
78.23965488
  0
VERTEX
  8
0
 10
270.03622865
 20
78.24246379
  0
VERTEX
  8
0
 10
269.78650747
 20
78.22677103
  0
VERTEX
  8
0
 10
269.52990033
 20
78.19178778
  0
VERTEX
  8
0
 10
269.26629214
 20
78.13672525
  0
VERTEX
  8
0
 10
268.99556780
 20
78.06079462
  0
VERTEX
  8
0
 10
268.71803783
 20
77.96345698
  0
VERTEX
  8
0
 10
268.43566606
 20
77.84514842
  0
VERTEX
  8
0
 10
268.15081737
 20
77.70654266
  0
VERTEX
  8
0
 10
267.86585665
 20
77.54831339
  0
VERTEX
  8
0
 10
267.58314879
 20
77.37113434
  0
VERTEX
  8
0
 10
267.30505867
 20
77.17567920
  0
VERTEX
  8
0
 10
267.03395119
 20
76.96262169
  0
VERTEX
  8
0
 10
266.77219123
 20
76.73263552
  0
SEQEND
  0
POLYLINE
  8
0
 66
   1
 70
    1
  0
VERTEX
  8
0
 10
263.60566716
 20
79.87990901
  0
VERTEX
  8
0
 10
263.70923290
 20
79.64323306
  0
VERTEX
  8
0
 10
263.80253340
 20
79.38862633
  0
VERTEX
  8
0
 10
263.88432714
 20
79.11710168
  0
VERTEX
  8
0
 10
263.95337258
 20
78.82967198
  0
VERTEX
  8
0
 10
264.00842821
 20
78.52735008
  0
VERTEX
  8
0
 10
264.04825249
 20
78.21114886
  0
VERTEX
  8
0
 10
264.07160390
 20
77.88208118
  0
VERTEX
  8
0
 10
264.07724090
 20
77.54115990
  0
VERTEX
  8
0
 10
264.06423454
 20
77.18976724
  0
VERTEX
  8
0
 10
264.03261139
 20
76.83071362
  0
VERTEX
  8
0
 10
263.98271064
 20
76.46715430
  0
VERTEX
  8
0
 10
263.91487142
 20
76.10224448
  0
VERTEX
  8
0
 10
263.82943290
 20
75.73913941
  0
VERTEX
  8
0
 10
263.72673424
 20
75.38099431
  0
VERTEX
  8
0
 10
263.60711458
 20
75.03096441
  0
VERTEX
  8
0
 10
263.47091309
 20
74.69220493
  0
VERTEX
  8
0
 10
263.31853082
 20
74.36756368
  0
VERTEX
  8
0
 10
263.15059186
 20
74.05860956
  0
VERTEX
  8
0
 10
262.96776992
 20
73.76657950
  0
VERTEX
  8
0
 10
262.77073870
 20
73.49271043
  0
VERTEX
  8
0
 10
262.56017192
 20
73.23823926
  0
VERTEX
  8
0
 10
262.33674329
 20
73.00440292
  0
VERTEX
  8
0
 10
262.10112650
 20
72.79243833
  0
VERTEX
  8
0
 10
261.85399528
 20
72.60358242
  0
VERTEX
  8
0
 10
261.59618600
 20
72.43860737
  0
VERTEX
  8
0
 10
261.32913663
 20
72.29608263
  0
VERTEX
  8
0
 10
261.05442325
 20
72.17408837
  0
VERTEX
  8
0
 10
260.77362192
 20
72.07070474
  0
VERTEX
  8
0
 10
260.48830875
 20
71.98401191
  0
VERTEX
  8
0
 10
260.20005980
 20
71.91209003
  0
VERTEX
  8
0
 10
259.62105889
 20
71.80487976
  0
VERTEX
  8
0
 10
259.04837458
 20
71.73855447
  0
VERTEX
  8
0
 10
258.49015276
 20
71.72185345
  0
VERTEX
  8
0
 10
258.21871354
 20
71.73633998
  0
VERTEX
  8
0
 10
257.95358784
 20
71.76830611
  0
VERTEX
  8
0
 10
257.69567498
 20
71.81944303
  0
VERTEX
  8
0
 10
257.44587424
 20
71.89144189
  0
VERTEX
  8
0
 10
257.20494682
 20
71.98554885
  0
VERTEX
  8
0
 10
256.97305232
 20
72.10095975
  0
VERTEX
  8
0
 10
256.75018766
 20
72.23643765
  0
VERTEX
  8
0
 10
256.53634979
 20
72.39074564
  0
VERTEX
  8
0
 10
256.33153562
 20
72.56264680
  0
VERTEX
  8
0
 10
256.13574210
 20
72.75090420
  0
VERTEX
  8
0
 10
255.94896614
 20
72.95428091
  0
VERTEX
  8
0
 10
255.77120469
 20
73.17154002
  0
VERTEX
  8
0
 10
255.60271121
 20
73.40163874
  0
VERTEX
  8
0
 10
255.44471623
 20
73.64435990
  0
VERTEX
  8
0
 10
255.29868228
 20
73.89970505
  0
VERTEX
  8
0
 10
255.16607186
 20
74.16767572
  0
VERTEX
  8
0
 10
255.04834749
 20
74.44827345
  0
VERTEX
  8
0
 10
254.94697168
 20
74.74149976
  0
VERTEX
  8
0
 10
254.86340697
 20
75.04735620
  0
VERTEX
  8
0
 10
254.79911585
 20
75.36584430
  0
VERTEX
  8
0
 10
254.75512245
 20
75.69639393
  0
VERTEX
  8
0
 10
254.73040265
 20
76.03585372
  0
VERTEX
  8
0
 10
254.72349394
 20
76.38050060
  0
VERTEX
  8
0
 10
254.73293379
 20
76.72661153
  0
VERTEX
  8
0
 10
254.79500914
 20
77.40833335
  0
VERTEX
  8
0
 10
254.90492856
 20
78.05123481
  0
VERTEX
  8
0
 10
255.05261661
 20
78.63277504
  0
VERTEX
  8
0
 10
255.23459476
 20
79.15928906
  0
VERTEX
  8
0
 10
255.44905826
 20
79.64430629
  0
VERTEX
  8
0
 10
255.69420237
 20
80.10135616
  0
VERTEX
  8
0
 10
255.96925363
 20
80.53928641
  0
VERTEX
  8
0
 10
256.27766193
 20
80.94831623
  0
VERTEX
  8
0
 10
256.44579067
 20
81.13748930
  0
VERTEX
  8
0
 10
256.62395753
 20
81.31403224
  0
VERTEX
  8
0
 10
256.81272878
 20
81.47614339
  0
VERTEX
  8
0
 10
257.01267070
 20
81.62202107
  0
VERTEX
  8
0
 10
257.22403499
 20
81.75035879
  0
VERTEX
  8
0
 10
257.44554481
 20
81.86187987
  0
VERTEX
  8
0
 10
257.67562101
 20
81.95782738
  0
VERTEX
  8
0
 10
257.91268445
 20
82.03944437
  0
VERTEX
  8
0
 10
258.40145645
 20
82.16465909
  0
VERTEX
  8
0
 10
258.89922760
 20
82.24746851
  0
VERTEX
  8
0
 10
259.39494642
 20
82.29488084
  0
VERTEX
  8
0
 10
259.88339716
 20
82.30166806
  0
VERTEX
  8
0
 10
260.36099490
 20
82.25971497
  0
VERTEX
  8
0
 10
260.59460360
 20
82.21792481
  0
VERTEX
  8
0
 10
260.82415470
 20
82.16090637
  0
VERTEX
  8
0
 10
261.04923691
 20
82.08810181
  0
VERTEX
  8
0
 10
261.26934074
 20
82.00075496
  0
VERTEX
  8
0
 10
261.69282078
 20
81.78918683
  0
VERTEX
  8
0
 10
262.09100987
 20
81.53970683
  0
VERTEX
  8
0
 10
262.46032309
 20
81.26581985
  0
VERTEX
  8
0
 10
262.79767683
 20
80.97621607
  0
VERTEX
  8
0
 10
263.10159987
 20
80.65954115
  0
VERTEX
  8
0
 10
263.24075248
 20
80.48596851
  0
VERTEX
  8
0
 10
263.37122054
 20
80.29952788
  0
VERTEX
  8
0
 10
263.49289509
 20
80.09818584
  0
VERTEX
  8
0
 10
263.60566716
 20
79.87990901
  0
SEQEND
  0
POLYLINE
  8
0
 66
   1
 70
    1
  0
VERTEX
  8
0
 10
251.51708830
 20
83.58544933
  0
VERTEX
  8
0
 10
251.62458324
 20
83.19660827
  0
VERTEX
  8
0
 10
251.71651228
 20
82.79559441
  0
VERTEX
  8
0
 10
251.79355220
 20
82.38285587
  0
VERTEX
  8
0
 10
251.85637978
 20
81.95884075
  0
VERTEX
  8
0
 10
251.94210502
 20
81.07877329
  0
VERTEX
  8
0
 10
251.97910223
 20
80.15897695
  0
VERTEX
  8
0
 10
251.97068010
 20
79.20810508
  0
VERTEX
  8
0
 10
251.91172520
 20
78.25449540
  0
VERTEX
  8
0
 10
251.86104203
 20
77.78710331
  0
VERTEX
  8
0
 10
251.79501855
 20
77.33155406
  0
VERTEX
  8
0
 10
251.71275240
 20
76.89202344
  0
VERTEX
  8
0
 10
251.61334120
 20
76.47268720
  0
VERTEX
  8
0
 10
251.49618337
 20
76.07679931
  0
VERTEX
  8
0
 10
251.36188049
 20
75.70368094
  0
VERTEX
  8
0
 10
251.21133493
 20
75.35175601
  0
VERTEX
  8
0
 10
251.04544907
 20
75.01944843
  0
VERTEX
  8
0
 10
250.86512527
 20
74.70518214
  0
VERTEX
  8
0
 10
250.67126591
 20
74.40738105
  0
VERTEX
  8
0
 10
250.46477336
 20
74.12446908
  0
VERTEX
  8
0
 10
250.24654998
 20
73.85487016
  0
VERTEX
  8
0
 10
250.01742883
 20
73.59719516
  0
VERTEX
  8
0
 10
249.77794116
 20
73.35080287
  0
VERTEX
  8
0
 10
249.26966486
 20
72.89004939
  0
VERTEX
  8
0
 10
248.72531827
 20
72.46897568
  0
VERTEX
  8
0
 10
248.14849861
 20
72.08394770
  0
VERTEX
  8
0
 10
247.54090420
 20
71.73311365
  0
VERTEX
  8
0
 10
246.89722724
 20
71.42106313
  0
VERTEX
  8
0
 10
246.55960571
 20
71.28155755
  0
VERTEX
  8
0
 10
246.21026102
 20
71.15411888
  0
VERTEX
  8
0
 10
245.84829235
 20
71.03953746
  0
VERTEX
  8
0
 10
245.47279886
 20
70.93860363
  0
VERTEX
  8
0
 10
245.08375114
 20
70.85206989
  0
VERTEX
  8
0
 10
244.68490010
 20
70.78053730
  0
VERTEX
  8
0
 10
244.28086811
 20
70.72456907
  0
VERTEX
  8
0
 10
243.87627750
 20
70.68472842
  0
VERTEX
  8
0
 10
243.47575063
 20
70.66157856
  0
VERTEX
  8
0
 10
243.08390985
 20
70.65568271
  0
VERTEX
  8
0
 10
242.70537751
 20
70.66760409
  0
VERTEX
  8
0
 10
242.34477596
 20
70.69790590
  0
VERTEX
  8
0
 10
242.00507396
 20
70.74738846
  0
VERTEX
  8
0
 10
241.68287151
 20
70.81750586
  0
VERTEX
  8
0
 10
241.37309047
 20
70.90994926
  0
VERTEX
  8
0
 10
241.07065271
 20
71.02640985
  0
VERTEX
  8
0
 10
240.77048008
 20
71.16857881
  0
VERTEX
  8
0
 10
240.46749445
 20
71.33814731
  0
VERTEX
  8
0
 10
240.15661768
 20
71.53680653
  0
VERTEX
  8
0
 10
239.83277163
 20
71.76624764
  0
VERTEX
  8
0
 10
239.49278469
 20
72.02737099
  0
VERTEX
  8
0
 10
239.14140609
 20
72.31759426
  0
VERTEX
  8
0
 10
238.78529158
 20
72.63353203
  0
VERTEX
  8
0
 10
238.43109691
 20
72.97179888
  0
VERTEX
  8
0
 10
238.08547783
 20
73.32900939
  0
VERTEX
  8
0
 10
237.75509010
 20
73.70177811
  0
VERTEX
  8
0
 10
237.44658947
 20
74.08671964
  0
VERTEX
  8
0
 10
237.16663169
 20
74.48044855
  0
VERTEX
  8
0
 10
236.92009924
 20
74.87974207
  0
VERTEX
  8
0
 10
236.70480601
 20
75.28173350
  0
VERTEX
  8
0
 10
236.51680490
 20
75.68371879
  0
VERTEX
  8
0
 10
236.35214880
 20
76.08299390
  0
VERTEX
  8
0
 10
236.07708321
 20
76.86259740
  0
VERTEX
  8
0
 10
235.84803240
 20
77.59891164
  0
VERTEX
  8
0
 10
235.64154087
 20
78.27927684
  0
VERTEX
  8
0
 10
235.46663846
 20
78.92711986
  0
VERTEX
  8
0
 10
235.39639292
 20
79.24900105
  0
VERTEX
  8
0
 10
235.34047636
 20
79.57493831
  0
VERTEX
  8
0
 10
235.30103267
 20
79.90899385
  0
VERTEX
  8
0
 10
235.28020575
 20
80.25522985
  0
VERTEX
  8
0
 10
235.27937577
 20
80.61649770
  0
VERTEX
  8
0
 10
235.29716255
 20
80.99051077
  0
VERTEX
  8
0
 10
235.38001085
 20
81.76278276
  0
VERTEX
  8
0
 10
235.51159945
 20
82.54406618
  0
VERTEX
  8
0
 10
235.67477718
 20
83.30638139
  0
VERTEX
  8
0
 10
235.85690674
 20
84.02701566
  0
VERTEX
  8
0
 10
236.06340646
 20
84.70432385
  0
VERTEX
  8
0
 10
236.30420855
 20
85.34192772
  0
VERTEX
  8
0
 10
236.44057680
 20
85.64697233
  0
VERTEX
  8
0
 10
236.58924523
 20
85.94344902
  0
VERTEX
  8
0
 10
236.75117478
 20
86.23171613
  0
VERTEX
  8
0
 10
236.92652326
 20
86.51150893
  0
VERTEX
  8
0
 10
237.11518018
 20
86.78249288
  0
VERTEX
  8
0
 10
237.31703504
 20
87.04433341
  0
VERTEX
  8
0
 10
237.53197735
 20
87.29669598
  0
VERTEX
  8
0
 10
237.75989661
 20
87.53924603
  0
VERTEX
  8
0
 10
238.00068233
 20
87.77164901
  0
VERTEX
  8
0
 10
238.25422402
 20
87.99357037
  0
VERTEX
  8
0
 10
238.52041783
 20
88.20466302
  0
VERTEX
  8
0
 10
238.79923562
 20
88.40457886
  0
VERTEX
  8
0
 10
239.09068047
 20
88.59298179
  0
VERTEX
  8
0
 10
239.39475544
 20
88.76953574
  0
VERTEX
  8
0
 10
239.71146360
 20
88.93390460
  0
VERTEX
  8
0
 10
240.04080803
 20
89.08575231
  0
VERTEX
  8
0
 10
240.38279179
 20
89.22474276
  0
VERTEX
  8
0
 10
240.73741796
 20
89.35053987
  0
VERTEX
  8
0
 10
241.10418853
 20
89.46279374
  0
VERTEX
  8
0
 10
241.48089592
 20
89.56082913
  0
VERTEX
  8
0
 10
241.86483149
 20
89.64396927
  0
VERTEX
  8
0
 10
242.25328659
 20
89.71153736
  0
VERTEX
  8
0
 10
242.64355257
 20
89.76285664
  0
VERTEX
  8
0
 10
243.03292078
 20
89.79725033
  0
VERTEX
  8
0
 10
243.41868258
 20
89.81404164
  0
VERTEX
  8
0
 10
243.79812931
 20
89.81255380
  0
VERTEX
  8
0
 10
244.16893625
 20
89.79240366
  0
VERTEX
  8
0
 10
244.53060899
 20
89.75408794
  0
VERTEX
  8
0
 10
244.88303703
 20
89.69839697
  0
VERTEX
  8
0
 10
245.22610988
 20
89.62612110
  0
VERTEX
  8
0
 10
245.55971704
 20
89.53805066
  0
VERTEX
  8
0
 10
245.88374801
 20
89.43497601
  0
VERTEX
  8
0
 10
246.19809232
 20
89.31768748
  0
VERTEX
  8
0
 10
246.50263945
 20
89.18697541
  0
VERTEX
  8
0
 10
247.08220510
 20
88.88966362
  0
VERTEX
  8
0
 10
247.62387118
 20
88.55537303
  0
VERTEX
  8
0
 10
248.12946697
 20
88.19760852
  0
VERTEX
  8
0
 10
248.60082177
 20
87.82987496
  0
VERTEX
  8
0
 10
249.04036851
 20
87.46026095
  0
VERTEX
  8
0
 10
249.45374035
 20
87.07440426
  0
VERTEX
  8
0
 10
249.84727231
 20
86.65242818
  0
VERTEX
  8
0
 10
250.22729940
 20
86.17445599
  0
VERTEX
  8
0
 10
250.59666991
 20
85.62512078
  0
VERTEX
  8
0
 10
250.94438352
 20
85.00630915
  0
VERTEX
  8
0
 10
251.10560714
 20
84.67281786
  0
VERTEX
  8
0
 10
251.25600230
 20
84.32431927
  0
VERTEX
  8
0
 10
251.39376426
 20
83.96160067
  0
VERTEX
  8
0
 10
251.51708830
 20
83.58544933
  0
SEQEND
  0
POLYLINE
  8
0
 66
   1
 70
    1
  0
VERTEX
  8
0
 10
192.73705786
 20
28.65595422
  0
VERTEX
  8
0
 10
194.49955786
 20
22.91487297
  0
VERTEX
  8
0
 10
200.23705786
 20
22.92647922
  0
VERTEX
  8
0
 10
195.58883911
 20
19.38987297
  0
VERTEX
  8
0
 10
197.37230161
 20
13.65595422
  0
VERTEX
  8
0
 10
192.73705786
 20
17.21129172
  0
VERTEX
  8
0
 10
188.10181411
 20
13.65595422
  0
VERTEX
  8
0
 10
189.88527661
 20
19.38987297
  0
VERTEX
  8
0
 10
185.23705786
 20
22.92647922
  0
VERTEX
  8
0
 10
190.97455786
 20
22.91487297
  0
VERTEX
  8
0
 10
192.73705786
 20
28.65595422
  0
SEQEND
  0
POLYLINE
  8
0
 66
   1
 70
    1
  0
VERTEX
  8
0
 10
156.48949545
 20
29.99975247
 42
0.41421356
  0
VERTEX
  8
0
 10
186.48949545
 20
-0.00024753
  0
VERTEX
  8
0
 10
276.48949545
 20
-0.00024753
 42
0.41421356
  0
VERTEX
  8
0
 10
306.48949545
 20
29.99975247
  0
VERTEX
  8
0
 10
306.48949545
 20
119.99975247
 42
0.41421356
  0
VERTEX
  8
0
 10
276.48949545
 20
149.99975247
  0
VERTEX
  8
0
 10
186.48949545
 20
149.99975247
 42
0.41421356
  0
VERTEX
  8
0
 10
156.48949545
 20
119.99975247
  0
VERTEX
  8
0
 10
156.48949545
 20
29.99975247
  0
SEQEND
  0
POLYLINE
  8
0
 66
   1
 70
    1
  0
VERTEX
  8
0
 10
168.94793023
 20
86.50242590
  0
VERTEX
  8
0
 10
170.71043023
 20
80.76134465
  0
VERTEX
  8
0
 10
176.44793023
 20
80.77295090
  0
VERTEX
  8
0
 10
171.79971148
 20
77.23634465
  0
VERTEX
  8
0
 10
173.58317398
 20
71.50242590
  0
VERTEX
  8
0
 10
168.94793023
 20
75.05776340
  0
VERTEX
  8
0
 10
164.31268648
 20
71.50242590
  0
VERTEX
  8
0
 10
166.09614898
 20
77.23634465
  0
VERTEX
  8
0
 10
161.44793023
 20
80.77295090
  0
VERTEX
  8
0
 10
167.18543023
 20
80.76134465
  0
VERTEX
  8
0
 10
168.94793023
 20
86.50242590
  0
SEQEND
  0
POLYLINE
  8
0
 66
   1
 70
    1
  0
VERTEX
  8
0
 10
213.66116126
 20
50.46166071
  0
VERTEX
  8
0
 10
216.59866126
 20
40.89319196
  0
VERTEX
  8
0
 10
226.16116126
 20
40.91253571
  0
VERTEX
  8
0
 10
218.41413001
 20
35.01819196
  0
VERTEX
  8
0
 10
221.38656751
 20
25.46166071
  0
VERTEX
  8
0
 10
213.66116126
 20
31.38722321
  0
VERTEX
  8
0
 10
205.93575501
 20
25.46166071
  0
VERTEX
  8
0
 10
208.90819251
 20
35.01819196
  0
VERTEX
  8
0
 10
201.16116126
 20
40.91253571
  0
VERTEX
  8
0
 10
210.72366126
 20
40.89319196
  0
VERTEX
  8
0
 10
213.66116126
 20
50.46166071
  0
SEQEND
  0
POLYLINE
  8
0
 66
   1
 70
    1
  0
VERTEX
  8
0
 10
184.19027893
 20
63.15485650
  0
VERTEX
  8
0
 10
186.54027893
 20
55.50008150
  0
VERTEX
  8
0
 10
194.19027893
 20
55.51555650
  0
VERTEX
  8
0
 10
187.99265393
 20
50.80008150
  0
VERTEX
  8
0
 10
190.37060393
 20
43.15485650
  0
VERTEX
  8
0
 10
184.19027893
 20
47.89530650
  0
VERTEX
  8
0
 10
178.00995393
 20
43.15485650
  0
VERTEX
  8
0
 10
180.38790393
 20
50.80008150
  0
VERTEX
  8
0
 10
174.19027893
 20
55.51555650
  0
VERTEX
  8
0
 10
181.84027893
 20
55.50008150
  0
VERTEX
  8
0
 10
184.19027893
 20
63.15485650
  0
SEQEND
  0
POLYLINE
  8
0
 66
   1
 70
    1
  0
VERTEX
  8
0
 10
181.52597910
 20
135.45725866
  0
VERTEX
  8
0
 10
183.87597910
 20
127.80248366
  0
VERTEX
  8
0
 10
191.52597910
 20
127.81795866
  0
VERTEX
  8
0
 10
185.32835410
 20
123.10248366
  0
VERTEX
  8
0
 10
187.70630410
 20
115.45725866
  0
VERTEX
  8
0
 10
181.52597910
 20
120.19770866
  0
VERTEX
  8
0
 10
175.34565410
 20
115.45725866
  0
VERTEX
  8
0
 10
177.72360410
 20
123.10248366
  0
VERTEX
  8
0
 10
171.52597910
 20
127.81795866
  0
VERTEX
  8
0
 10
179.17597910
 20
127.80248366
  0
VERTEX
  8
0
 10
181.52597910
 20
135.45725866
  0
SEQEND
  0
POLYLINE
  8
0
 66
   1
 70
    1
  0
VERTEX
  8
0
 10
280.91296130
 20
13.65595422
  0
VERTEX
  8
0
 10
278.56296130
 20
21.31072922
  0
VERTEX
  8
0
 10
270.91296130
 20
21.29525422
  0
VERTEX
  8
0
 10
277.11058630
 20
26.01072922
  0
VERTEX
  8
0
 10
274.73263630
 20
33.65595422
  0
VERTEX
  8
0
 10
280.91296130
 20
28.91550422
  0
VERTEX
  8
0
 10
287.09328630
 20
33.65595422
  0
VERTEX
  8
0
 10
284.71533630
 20
26.01072922
  0
VERTEX
  8
0
 10
290.91296130
 20
21.29525422
  0
VERTEX
  8
0
 10
283.26296130
 20
21.31072922
  0
VERTEX
  8
0
 10
280.91296130
 20
13.65595422
  0
SEQEND
  0
POLYLINE
  8
0
 66
   1
 70
    1
  0
VERTEX
  8
0
 10
293.49101018
 20
62.61078697
  0
VERTEX
  8
0
 10
291.72851018
 20
68.35186822
  0
VERTEX
  8
0
 10
285.99101018
 20
68.34026197
  0
VERTEX
  8
0
 10
290.63922893
 20
71.87686822
  0
VERTEX
  8
0
 10
288.85576643
 20
77.61078697
  0
VERTEX
  8
0
 10
293.49101018
 20
74.05544947
  0
VERTEX
  8
0
 10
298.12625393
 20
77.61078697
  0
VERTEX
  8
0
 10
296.34279143
 20
71.87686822
  0
VERTEX
  8
0
 10
300.99101018
 20
68.34026197
  0
VERTEX
  8
0
 10
295.25351018
 20
68.35186822
  0
VERTEX
  8
0
 10
293.49101018
 20
62.61078697
  0
SEQEND
  0
POLYLINE
  8
0
 66
   1
 70
    1
  0
VERTEX
  8
0
 10
278.24866147
 20
85.95835637
  0
VERTEX
  8
0
 10
275.89866147
 20
93.61313137
  0
VERTEX
  8
0
 10
268.24866147
 20
93.59765637
  0
VERTEX
  8
0
 10
274.44628647
 20
98.31313137
  0
VERTEX
  8
0
 10
272.06833647
 20
105.95835637
  0
VERTEX
  8
0
 10
278.24866147
 20
101.21790637
  0
VERTEX
  8
0
 10
284.42898647
 20
105.95835637
  0
VERTEX
  8
0
 10
282.05103647
 20
98.31313137
  0
VERTEX
  8
0
 10
288.24866147
 20
93.59765637
  0
VERTEX
  8
0
 10
280.59866147
 20
93.61313137
  0
VERTEX
  8
0
 10
278.24866147
 20
85.95835637
  0
SEQEND
  0
POLYLINE
  8
0
 66
   1
 70
    1
  0
VERTEX
  8
0
 10
248.77777915
 20
98.65155217
  0
VERTEX
  8
0
 10
245.84027915
 20
108.22002092
  0
VERTEX
  8
0
 10
236.27777915
 20
108.20067717
  0
VERTEX
  8
0
 10
244.02481040
 20
114.09502092
  0
VERTEX
  8
0
 10
241.05237290
 20
123.65155217
  0
VERTEX
  8
0
 10
248.77777915
 20
117.72598967
  0
VERTEX
  8
0
 10
256.50318540
 20
123.65155217
  0
VERTEX
  8
0
 10
253.53074790
 20
114.09502092
  0
VERTEX
  8
0
 10
261.27777915
 20
108.20067717
  0
VERTEX
  8
0
 10
251.71527915
 20
108.22002092
  0
VERTEX
  8
0
 10
248.77777915
 20
98.65155217
  0
SEQEND
  0
POLYLINE
  8
0
 66
   1
 70
    1
  0
VERTEX
  8
0
 10
269.70188255
 20
120.45725866
  0
VERTEX
  8
0
 10
267.93938255
 20
126.19833991
  0
VERTEX
  8
0
 10
262.20188255
 20
126.18673366
  0
VERTEX
  8
0
 10
266.85010130
 20
129.72333991
  0
VERTEX
  8
0
 10
265.06663880
 20
135.45725866
  0
VERTEX
  8
0
 10
269.70188255
 20
131.90192116
  0
VERTEX
  8
0
 10
274.33712630
 20
135.45725866
  0
VERTEX
  8
0
 10
272.55366380
 20
129.72333991
  0
VERTEX
  8
0
 10
277.20188255
 20
126.18673366
  0
VERTEX
  8
0
 10
271.46438255
 20
126.19833991
  0
VERTEX
  8
0
 10
269.70188255
 20
120.45725866
  0
SEQEND
  0
POLYLINE
  8
0
 66
   1
 70
    1
  0
VERTEX
  8
0
 10
7.61441473
 20
190.16258058
 42
0.16627136
  0
VERTEX
  8
0
 10
12.84297701
 20
174.84978959
 42
0.22663481
  0
VERTEX
  8
0
 10
32.09617359
 20
165.15508941
 42
0.00518339
  0
VERTEX
  8
0
 10
32.62734570
 20
165.14964961
  0
VERTEX
  8
0
 10
122.60148376
 20
165.14964961
 42
0.16627136
  0
VERTEX
  8
0
 10
137.91427474
 20
170.37821189
 42
0.22663481
  0
VERTEX
  8
0
 10
147.60897492
 20
189.63140847
 42
0.00518339
  0
VERTEX
  8
0
 10
147.61441473
 20
190.16258058
  0
VERTEX
  8
0
 10
147.61441473
 20
280.13671864
 42
0.16627136
  0
VERTEX
  8
0
 10
142.38585245
 20
295.44950962
 42
0.22663481
  0
VERTEX
  8
0
 10
123.13265587
 20
305.14420980
 42
0.00518339
  0
VERTEX
  8
0
 10
122.60148376
 20
305.14964961
  0
VERTEX
  8
0
 10
32.62734570
 20
305.14964961
 42
0.16627136
  0
VERTEX
  8
0
 10
17.31455471
 20
299.92108733
 42
0.22663481
  0
VERTEX
  8
0
 10
7.61985453
 20
280.66789075
 42
0.00518339
  0
VERTEX
  8
0
 10
7.61441473
 20
280.13671864
  0
VERTEX
  8
0
 10
7.61441473
 20
190.16258058
  0
SEQEND
  0
POLYLINE
  8
0
 66
   1
 70
    1
  0
VERTEX
  8
0
 10
164.58758109
 20
190.09723706
 42
0.16627136
  0
VERTEX
  8
0
 10
169.81614337
 20
174.78444608
 42
0.22663481
  0
VERTEX
  8
0
 10
189.06933995
 20
165.08974590
 42
0.00518339
  0
VERTEX
  8
0
 10
189.60051206
 20
165.08430610
  0
VERTEX
  8
0
 10
279.57465013
 20
165.08430610
 42
0.16627136
  0
VERTEX
  8
0
 10
294.88744111
 20
170.31286837
 42
0.22663481
  0
VERTEX
  8
0
 10
304.58214129
 20
189.56606495
 42
0.00518339
  0
VERTEX
  8
0
 10
304.58758109
 20
190.09723706
  0
VERTEX
  8
0
 10
304.58758109
 20
280.07137513
 42
0.16627136
  0
VERTEX
  8
0
 10
299.35901881
 20
295.38416611
 42
0.22663481
  0
VERTEX
  8
0
 10
280.10582224
 20
305.07886629
 42
0.00518339
  0
VERTEX
  8
0
 10
279.57465013
 20
305.08430610
  0
VERTEX
  8
0
 10
189.60051206
 20
305.08430610
 42
0.16627136
  0
VERTEX
  8
0
 10
174.28772108
 20
299.85574382
 42
0.22663481
  0
VERTEX
  8
0
 10
164.59302090
 20
280.60254724
 42
0.00518339
  0
VERTEX
  8
0
 10
164.58758109
 20
280.07137513
  0
VERTEX
  8
0
 10
164.58758109
 20
190.09723706
  0
SEQEND
  0
POLYLINE
  8
0
 66
   1
 70
    1
  0
VERTEX
  8
0
 10
159.58758109
 20
190.08430610
 42
0.41421356
  0
VERTEX
  8
0
 10
189.58758109
 20
160.08430610
  0
VERTEX
  8
0
 10
279.58758109
 20
160.08430610
 42
0.41421356
  0
VERTEX
  8
0
 10
309.58758109
 20
190.08430610
  0
VERTEX
  8
0
 10
309.58758109
 20
280.08430610
 42
0.41421356
  0
VERTEX
  8
0
 10
279.58758109
 20
310.08430610
  0
VERTEX
  8
0
 10
189.58758109
 20
310.08430610
 42
0.41421356
  0
VERTEX
  8
0
 10
159.58758109
 20
280.08430610
  0
VERTEX
  8
0
 10
159.58758109
 20
190.08430610
  0
SEQEND
  0
POLYLINE
  8
0
 66
   1
 70
    1
  0
VERTEX
  8
0
 10
2.61441473
 20
190.14964961
 42
0.41421356
  0
VERTEX
  8
0
 10
32.61441473
 20
160.14964961
  0
VERTEX
  8
0
 10
122.61441473
 20
160.14964961
 42
0.41421356
  0
VERTEX
  8
0
 10
152.61441473
 20
190.14964961
  0
VERTEX
  8
0
 10
152.61441473
 20
280.14964961
 42
0.41421356
  0
VERTEX
  8
0
 10
122.61441473
 20
310.14964961
  0
VERTEX
  8
0
 10
32.61441473
 20
310.14964961
 42
0.41421356
  0
VERTEX
  8
0
 10
2.61441473
 20
280.14964961
  0
VERTEX
  8
0
 10
2.61441473
 20
190.14964961
  0
SEQEND
  0
ENDSEC
  0
EOF