  0
SECTION
  2
HEADER
  9
$ACADVER
  1
AC1006
  0
ENDSEC
  0
SECTION
  2
TABLES
  0
TABLE
  2
LTYPE
 70
    25
  0
LTYPE
  2
CONTINUOUS
 70
    64
  3
Solid line
 72
    64
 73
     0
 40
0.000000
  0
LTYPE
  2
DASHDOT
 70
    64
  3
__ . __ . __ . __ . __ . __ . __ . __ . __ . __
 72
    65
 73
     4
 40
1.000000
 49
0.500000
 49
-0.250000
 49
0.000000
 49
-0.250000
  0
LTYPE
  2
DASHED
 70
    64
  3
__ __ __ __ __ __ __ __ __ __ __ __ __ __ __ __
 72
    65
 73
     2
 40
0.750000
 49
0.500000
 49
-0.250000
  0
LTYPE
  2
DIVIDE
 70
    64
  3
____ . . ____ . . ____ . . ____ . . ____ . . __
 72
    65
 73
     6
 40
1.250000
 49
0.500000
 49
-0.250000
 49
0.000000
 49
-0.250000
 49
0.000000
 49
-0.250000
  0
LTYPE
  2
DOT
 70
    64
  3
. . . . . . . . . . . . . . . . . . . . . . . . 
 72
    65
 73
     2
 40
0.250000
 49
0.000000
 49
-0.250000
  0
ENDTAB
  0
ENDSEC
  0
SECTION
  2
ENTITIES
  0
ARC
  8
Default
 62
     5
  6
CONTINUOUS
 10
3.201186
 20
3.633442
 30
0.000000
 40
4.031643
 50
51.878665
 51
58.665207
  0
ARC
  8
Default
 62
     5
  6
CONTINUOUS
 10
4.275650
 20
5.398209
 30
0.000000
 40
1.965517
 50
58.665207
 51
70.327062
  0
ARC
  8
Default
 62
     5
  6
CONTINUOUS
 10
4.351995
 20
5.611752
 30
0.000000
 40
1.738737
 50
70.327062
 51
94.446190
  0
ARC
  8
Default
 62
     5
  6
CONTINUOUS
 10
4.300837
 20
5.859955
 30
0.000000
 40
1.487655
 50
93.222756
 51
112.743905
  0
ARC
  8
Default
 62
     5
  6
CONTINUOUS
 10
3.754686
 20
7.162764
 30
0.000000
 40
0.075000
 50
112.743905
 51
114.290727
  0
ARC
  8
Default
 62
     5
  6
CONTINUOUS
 10
4.421895
 20
5.684424
 30
0.000000
 40
1.696930
 50
114.290727
 51
131.521675
  0
ARC
  8
Default
 62
     5
  6
CONTINUOUS
 10
3.346712
 20
6.898771
 30
0.000000
 40
0.075000
 50
131.521675
 51
142.956953
  0
LINE
  8
Default
 62
     5
  6
CONTINUOUS
 10
3.286848
 20
6.943952
 30
0.000000
 11
3.207517
 21
6.838841
 31
0.000000
  0
LINE
  8
Default
 62
     5
  6
CONTINUOUS
 10
3.207517
 20
6.838841
 30
0.000000
 11
3.166850
 21
6.795489
 31
0.000000
  0
LINE
  8
Default
 62
     5
  6
CONTINUOUS
 10
3.166850
 20
6.795489
 30
0.000000
 11
3.112609
 21
6.757297
 31
0.000000
  0
ARC
  8
Default
 62
     5
  6
CONTINUOUS
 10
2.274945
 20
8.100431
 30
0.000000
 40
1.582938
 50
291.576609
 51
301.950287
  0
LINE
  8
Default
 62
     5
  6
CONTINUOUS
 10
2.857062
 20
6.628415
 30
0.000000
 11
2.606775
 21
6.529438
 31
0.000000
  0
ARC
  8
Default
 62
     5
  6
CONTINUOUS
 10
2.634356
 20
6.459693
 30
0.000000
 40
0.075000
 50
111.576609
 51
120.228831
  0
ARC
  8
Default
 62
     5
  6
CONTINUOUS
 10
2.210234
 20
7.187565
 30
0.000000
 40
0.767423
 50
280.834673
 51
300.228831
  0
LINE
  8
Default
 62
     5
  6
CONTINUOUS
 10
2.354491
 20
6.433822
 30
0.000000
 11
2.160964
 21
6.396784
 31
0.000000
  0
ARC
  8
Default
 62
     5
  6
CONTINUOUS
 10
2.175062
 20
6.323121
 30
0.000000
 40
0.075000
 50
100.834673
 51
103.631922
  0
LINE
  8
Default
 62
     5
  6
CONTINUOUS
 10
2.157386
 20
6.396008
 30
0.000000
 11
1.974276
 21
6.351601
 31
0.000000
  0
ARC
  8
Default
 62
     5
  6
CONTINUOUS
 10
1.991952
 20
6.278714
 30
0.000000
 40
0.075000
 50
103.631922
 51
108.229631
  0
LINE
  8
Default
 62
     5
  6
CONTINUOUS
 10
1.968490
 20
6.349950
 30
0.000000
 11
1.894854
 21
6.325697
 31
0.000000
  0
ARC
  8
Default
 62
     5
  6
CONTINUOUS
 10
1.918316
 20
6.254461
 30
0.000000
 40
0.075000
 50
108.229631
 51
118.282815
  0
ARC
  8
Default
 62
     5
  6
CONTINUOUS
 10
1.955825
 20
6.184750
 30
0.000000
 40
0.154162
 50
118.282815
 51
158.441573
  0
ARC
  8
Default
 62
     5
  6
CONTINUOUS
 10
1.956795
 20
6.169191
 30
0.000000
 40
0.161399
 50
153.424956
 51
203.054132
  0
LINE
  8
Default
 62
     5
  6
CONTINUOUS
 10
1.808286
 20
6.105987
 30
0.000000
 11
1.812900
 21
6.092222
 31
0.000000
  0
ARC
  8
Default
 62
     5
  6
CONTINUOUS
 10
1.998815
 20
6.064637
 30
0.000000
 40
0.187950
 50
171.560257
 51
191.112219
  0
ARC
  8
Default
 62
     5
  6
CONTINUOUS
 10
1.887982
 20
6.042868
 30
0.000000
 40
0.075000
 50
191.112219
 51
218.148846
  0
ARC
  8
Default
 62
     5
  6
CONTINUOUS
 10
1.937207
 20
6.081533
 30
0.000000
 40
0.137594
 50
218.148846
 51
268.291547
  0
LINE
  8
Default
 62
     5
  6
CONTINUOUS
 10
1.933105
 20
5.943999
 30
0.000000
 11
1.998457
 21
5.933021
 31
0.000000
  0
ARC
  8
Default
 62
     5
  6
CONTINUOUS
 10
2.010882
 20
6.006985
 30
0.000000
 40
0.075000
 50
260.464176
 51
262.815025
  0
LINE
  8
Default
 62
     5
  6
CONTINUOUS
 10
2.001501
 20
5.932574
 30
0.000000
 11
2.161195
 21
5.912442
 31
0.000000
  0
ARC
  8
Default
 62
     5
  6
CONTINUOUS
 10
2.170576
 20
5.986853
 30
0.000000
 40
0.075000
 50
262.815025
 51
266.153332
  0
LINE
  8
Default
 62
     5
  6
CONTINUOUS
 10
2.165544
 20
5.912022
 30
0.000000
 11
2.514947
 21
5.888529
 31
0.000000
  0
ARC
  8
Default
 62
     5
  6
CONTINUOUS
 10
2.812267
 20
9.073904
 30
0.000000
 40
3.199221
 50
264.667526
 51
271.669601
  0
ARC
  8
Default
 62
     5
  6
CONTINUOUS
 10
2.903294
 20
5.951010
 30
0.000000
 40
0.075000
 50
271.669601
 51
277.872185
  0
ARC
  8
Default
 62
     5
  6
CONTINUOUS
 10
3.460635
 20
1.920091
 30
0.000000
 40
3.994267
 50
91.924929
 51
97.872185
  0
ARC
  8
Default
 62
     5
  6
CONTINUOUS
 10
3.331907
 20
5.750271
 30
0.000000
 40
0.161924
 50
57.291787
 51
91.924929
  0
ARC
  8
Default
 62
     5
  6
CONTINUOUS
 10
3.605181
 20
6.175805
 30
0.000000
 40
0.343800
 50
237.291787
 51
268.440694
  0
ARC
  8
Default
 62
     5
  6
CONTINUOUS
 10
4.820362
 20
15.129433
 30
0.000000
 40
9.377595
 50
262.496829
 51
264.149802
  0
ARC
  8
Default
 62
     5
  6
CONTINUOUS
 10
4.449920
 20
9.301051
 30
0.000000
 40
3.548986
 50
260.505803
 51
269.995707
  0
ARC
  8
Default
 62
     5
  6
CONTINUOUS
 10
4.384679
 20
3.076255
 30
0.000000
 40
2.676599
 50
80.647342
 51
88.608995
  0
ARC
  8
Default
 62
     5
  6
CONTINUOUS
 10
4.513854
 20
4.215288
 30
0.000000
 40
1.532800
 50
68.477696
 51
78.491988
  0
ARC
  8
Default
 62
     5
  6
CONTINUOUS
 10
5.103697
 20
5.710983
 30
0.000000
 40
0.075000
 50
248.477696
 51
250.018418
  0
LINE
  8
Default
 62
     5
  6
CONTINUOUS
 10
5.078068
 20
5.640498
 30
0.000000
 11
5.369969
 21
5.534361
 31
0.000000
  0
LINE
  8
Default
 62
     5
  6
CONTINUOUS
 10
5.369969
 20
5.534361
 30
0.000000
 11
5.646835
 21
5.422790
 31
0.000000
  0
ARC
  8
Default
 62
     5
  6
CONTINUOUS
 10
5.225690
 20
4.577450
 30
0.000000
 40
0.944438
 50
33.531770
 51
63.517743
  0
LINE
  8
Default
 62
     5
  6
CONTINUOUS
 10
6.012954
 20
5.099156
 30
0.000000
 11
6.085696
 21
4.989388
 31
0.000000
  0
LINE
  8
Default
 62
     5
  6
CONTINUOUS
 10
6.085696
 20
4.989388
 30
0.000000
 11
5.847809
 21
4.873823
 31
0.000000
  0
ARC
  8
Default
 62
     5
  6
CONTINUOUS
 10
5.880581
 20
4.806362
 30
0.000000
 40
0.075000
 50
115.910338
 51
116.138294
  0
LINE
  8
Default
 62
     5
  6
CONTINUOUS
 10
5.847540
 20
4.873692
 30
0.000000
 11
5.296286
 21
4.603178
 31
0.000000
  0
ARC
  8
Default
 62
     5
  6
CONTINUOUS
 10
5.329326
 20
4.535848
 30
0.000000
 40
0.075000
 50
116.138294
 51
119.732904
  0
ARC
  8
Default
 62
     5
  6
CONTINUOUS
 10
5.032135
 20
5.056186
 30
0.000000
 40
0.524227
 50
284.466225
 51
299.732904
  0
ARC
  8
Default
 62
     5
  6
CONTINUOUS
 10
5.181828
 20
4.475957
 30
0.000000
 40
0.075000
 50
104.466225
 51
107.566080
  0
ARC
  8
Default
 62
     5
  6
CONTINUOUS
 10
5.319706
 20
4.040414
 30
0.000000
 40
0.531846
 50
107.566080
 51
126.090925
  0
LINE
  8
Default
 62
     5
  6
CONTINUOUS
 10
5.006413
 20
4.470189
 30
0.000000
 11
4.951547
 21
4.433860
 31
0.000000
  0
ARC
  8
Default
 62
     5
  6
CONTINUOUS
 10
4.992953
 20
4.371326
 30
0.000000
 40
0.075000
 50
123.510384
 51
146.353122
  0
LINE
  8
Default
 62
     5
  6
CONTINUOUS
 10
4.930518
 20
4.412882
 30
0.000000
 11
4.912420
 21
4.385690
 31
0.000000
  0
ARC
  8
Default
 62
     5
  6
CONTINUOUS
 10
4.994749
 20
4.330894
 30
0.000000
 40
0.098897
 50
146.353122
 51
175.967350
  0
LINE
  8
Default
 62
     5
  6
CONTINUOUS
 10
4.896097
 20
4.337849
 30
0.000000
 11
4.892816
 21
4.337085
 31
0.000000
  0
ARC
  8
Default
 62
     5
  6
CONTINUOUS
 10
4.909816
 20
4.264038
 30
0.000000
 40
0.075000
 50
103.100998
 51
105.523451
  0
ARC
  8
Default
 62
     5
  6
CONTINUOUS
 10
3.264609
 20
10.187047
 30
0.000000
 40
6.072255
 50
279.484698
 51
285.523451
  0
ARC
  8
Default
 62
     5
  6
CONTINUOUS
 10
4.277579
 20
4.123827
 30
0.000000
 40
0.075000
 50
99.484698
 51
102.370576
  0
ARC
  8
Default
 62
     5
  6
CONTINUOUS
 10
3.538919
 20
7.491693
 30
0.000000
 40
3.372918
 50
269.483476
 51
282.370576
  0
ARC
  8
Default
 62
     5
  6
CONTINUOUS
 10
3.524504
 20
5.892762
 30
0.000000
 40
1.773923
 50
257.760972
 51
269.483476
  0
LINE
  8
Default
 62
     5
  6
CONTINUOUS
 10
3.148449
 20
4.159158
 30
0.000000
 11
2.907197
 21
4.277556
 31
0.000000
  0
ARC
  8
Default
 62
     5
  6
CONTINUOUS
 10
2.874154
 20
4.210227
 30
0.000000
 40
0.075000
 50
63.859802
 51
69.421461
  0
LINE
  8
Default
 62
     5
  6
CONTINUOUS
 10
2.900516
 20
4.280441
 30
0.000000
 11
2.832465
 21
4.305991
 31
0.000000
  0
ARC
  8
Default
 62
     5
  6
CONTINUOUS
 10
2.806103
 20
4.235777
 30
0.000000
 40
0.075000
 50
69.421461
 51
71.942771
  0
LINE
  8
Default
 62
     5
  6
CONTINUOUS
 10
2.829350
 20
4.307083
 30
0.000000
 11
2.793522
 21
4.318764
 31
0.000000
  0
ARC
  8
Default
 62
     5
  6
CONTINUOUS
 10
2.770274
 20
4.247458
 30
0.000000
 40
0.075000
 50
71.942771
 51
88.785400
  0
LINE
  8
Default
 62
     5
  6
CONTINUOUS
 10
2.771864
 20
4.322441
 30
0.000000
 11
2.745508
 21
4.323000
 31
0.000000
  0
ARC
  8
Default
 62
     5
  6
CONTINUOUS
 10
2.743918
 20
4.248017
 30
0.000000
 40
0.075000
 50
88.785400
 51
136.349241
  0
LINE
  8
Default
 62
     5
  6
CONTINUOUS
 10
2.689651
 20
4.299786
 30
0.000000
 11
2.677957
 21
4.287528
 31
0.000000
  0
ARC
  8
Default
 62
     5
  6
CONTINUOUS
 10
2.732224
 20
4.235758
 30
0.000000
 40
0.075000
 50
136.349241
 51
144.926706
  0
ARC
  8
Default
 62
     5
  6
CONTINUOUS
 10
2.807730
 20
4.182745
 30
0.000000
 40
0.167258
 50
144.926706
 51
193.186941
  0
ARC
  8
Default
 62
     5
  6
CONTINUOUS
 10
2.717904
 20
4.161698
 30
0.000000
 40
0.075000
 50
193.186941
 51
210.204048
  0
LINE
  8
Default
 62
     5
  6
CONTINUOUS
 10
2.653086
 20
4.123967
 30
0.000000
 11
2.693861
 21
4.053920
 31
0.000000
  0
ARC
  8
Default
 62
     5
  6
CONTINUOUS
 10
2.758679
 20
4.091651
 30
0.000000
 40
0.075000
 50
210.204048
 51
224.747321
  0
LINE
  8
Default
 62
     5
  6
CONTINUOUS
 10
2.705413
 20
4.038852
 30
0.000000
 11
2.744208
 21
3.999714
 31
0.000000
  0
ARC
  8
Default
 62
     5
  6
CONTINUOUS
 10
2.875220
 20
4.072980
 30
0.000000
 40
0.150107
 50
209.215300
 51
241.971635
  0
LINE
  8
Default
 62
     5
  6
CONTINUOUS
 10
2.804684
 20
3.940478
 30
0.000000
 11
2.884953
 21
3.871345
 31
0.000000
  0
ARC
  8
Default
 62
     5
  6
CONTINUOUS
 10
2.933897
 20
3.928173
 30
0.000000
 40
0.075000
 50
229.262946
 51
243.527687
  0
LINE
  8
Default
 62
     5
  6
CONTINUOUS
 10
2.900465
 20
3.861037
 30
0.000000
 11
3.021418
 21
3.800805
 31
0.000000
  0
ARC
  8
Default
 62
     5
  6
CONTINUOUS
 10
3.054850
 20
3.867941
 30
0.000000
 40
0.075000
 50
243.527687
 51
253.924216
  0
LINE
  8
Default
 62
     5
  6
CONTINUOUS
 10
3.034082
 20
3.795874
 30
0.000000
 11
3.173727
 21
3.755632
 31
0.000000
  0
ARC
  8
Default
 62
     5
  6
CONTINUOUS
 10
3.194495
 20
3.827699
 30
0.000000
 40
0.075000
 50
253.924216
 51
261.667685
  0
ARC
  8
Default
 62
     5
  6
CONTINUOUS
 10
3.888769
 20
8.568051
 30
0.000000
 40
4.865924
 50
261.667685
 51
265.507852
  0
ARC
  8
Default
 62
     5
  6
CONTINUOUS
 10
2.943468
 20
5.259832
 30
0.000000
 40
1.642683
 50
283.384858
 51
290.087570
  0
ARC
  8
Default
 62
     5
  6
CONTINUOUS
 10
2.851531
 20
6.907403
 30
0.000000
 40
3.279805
 50
272.656151
 51
278.277806
  0
LINE
  8
Default
 62
     5
  6
CONTINUOUS
 10
3.003524
 20
3.631122
 30
0.000000
 11
2.844509
 21
3.634892
 31
0.000000
  0
ARC
  8
Default
 62
     5
  6
CONTINUOUS
 10
2.763038
 20
3.233949
 30
0.000000
 40
0.409137
 50
78.513963
 51
99.429602
  0
ARC
  8
Default
 62
     5
  6
CONTINUOUS
 10
2.711226
 20
3.498916
 30
0.000000
 40
0.139475
 50
96.264362
 51
161.263401
  0
ARC
  8
Default
 62
     5
  6
CONTINUOUS
 10
2.650168
 20
3.519626
 30
0.000000
 40
0.075000
 50
161.263401
 51
187.520845
  0
ARC
  8
Default
 62
     5
  6
CONTINUOUS
 10
2.716547
 20
3.528390
 30
0.000000
 40
0.141954
 50
187.520845
 51
248.978077
  0
LINE
  8
Default
 62
     5
  6
CONTINUOUS
 10
2.665624
 20
3.395883
 30
0.000000
 11
2.693243
 21
3.383600
 31
0.000000
  0
ARC
  8
Default
 62
     5
  6
CONTINUOUS
 10
2.723722
 20
3.452127
 30
0.000000
 40
0.075000
 50
246.022087
 51
249.593645
  0
LINE
  8
Default
 62
     5
  6
CONTINUOUS
 10
2.697571
 20
3.381834
 30
0.000000
 11
2.730288
 21
3.369663
 31
0.000000
  0
ARC
  8
Default
 62
     5
  6
CONTINUOUS
 10
2.756438
 20
3.439956
 30
0.000000
 40
0.075000
 50
249.593645
 51
249.826744
  0
LINE
  8
Default
 62
     5
  6
CONTINUOUS
 10
2.730574
 20
3.369557
 30
0.000000
 11
2.687449
 21
3.346727
 31
0.000000
  0
LINE
  8
Default
 62
     5
  6
CONTINUOUS
 10
2.687449
 20
3.346727
 30
0.000000
 11
2.591046
 21
3.295977
 31
0.000000
  0
ARC
  8
Default
 62
     5
  6
CONTINUOUS
 10
1.063171
 20
6.718620
 30
0.000000
 40
3.748184
 50
284.537650
 51
294.056080
  0
LINE
  8
Default
 62
     5
  6
CONTINUOUS
 10
2.004026
 20
3.090442
 30
0.000000
 11
1.801683
 21
3.037971
 31
0.000000
  0
LINE
  8
Default
 62
     5
  6
CONTINUOUS
 10
1.801683
 20
3.037971
 30
0.000000
 11
1.512961
 21
2.978036
 31
0.000000
  0
ARC
  8
Default
 62
     5
  6
CONTINUOUS
 10
1.243143
 20
4.510659
 30
0.000000
 40
1.556193
 50
267.947999
 51
279.984563
  0
LINE
  8
Default
 62
     5
  6
CONTINUOUS
 10
1.187422
 20
2.955464
 30
0.000000
 11
0.859254
 21
2.967223
 31
0.000000
  0
LINE
  8
Default
 62
     5
  6
CONTINUOUS
 10
0.859254
 20
2.967223
 30
0.000000
 11
0.620874
 21
2.994866
 31
0.000000
  0
ARC
  8
Default
 62
     5
  6
CONTINUOUS
 10
0.612234
 20
2.920365
 30
0.000000
 40
0.075000
 50
83.385343
 51
86.686774
  0
LINE
  8
Default
 62
     5
  6
CONTINUOUS
 10
0.616569
 20
2.995240
 30
0.000000
 11
0.553441
 21
2.998894
 31
0.000000
  0
ARC
  8
Default
 62
     5
  6
CONTINUOUS
 10
0.509175
 20
2.781929
 30
0.000000
 40
0.221435
 50
78.468457
 51
102.398199
  0
ARC
  8
Default
 62
     5
  6
CONTINUOUS
 10
0.517632
 20
2.608794
 30
0.000000
 40
0.393412
 50
98.183633
 51
115.809983
  0
ARC
  8
Default
 62
     5
  6
CONTINUOUS
 10
0.379000
 20
2.895442
 30
0.000000
 40
0.075000
 50
115.809983
 51
151.902229
  0
LINE
  8
Default
 62
     5
  6
CONTINUOUS
 10
0.312839
 20
2.930765
 30
0.000000
 11
0.281055
 21
2.871235
 31
0.000000
  0
ARC
  8
Default
 62
     5
  6
CONTINUOUS
 10
0.347216
 20
2.835911
 30
0.000000
 40
0.075000
 50
151.902229
 51
154.564752
  0
ARC
  8
Default
 62
     5
  6
CONTINUOUS
 10
0.422371
 20
2.800168
 30
0.000000
 40
0.158222
 50
154.564752
 51
205.632091
  0
ARC
  8
Default
 62
     5
  6
CONTINUOUS
 10
0.347339
 20
2.764167
 30
0.000000
 40
0.075000
 50
205.632091
 51
212.233485
  0
ARC
  8
Default
 62
     5
  6
CONTINUOUS
 10
0.569155
 20
2.904033
 30
0.000000
 40
0.337230
 50
212.233485
 51
239.275829
  0
ARC
  8
Default
 62
     5
  6
CONTINUOUS
 10
0.435180
 20
2.678610
 30
0.000000
 40
0.075000
 50
239.275829
 51
240.479457
  0
ARC
  8
Default
 62
     5
  6
CONTINUOUS
 10
0.858646
 20
3.426458
 30
0.000000
 40
0.934418
 50
240.479457
 51
256.005469
  0
ARC
  8
Default
 62
     5
  6
CONTINUOUS
 10
1.122614
 20
4.214626
 30
0.000000
 40
1.764245
 50
253.876779
 51
271.093996
  0
ARC
  8
Default
 62
     5
  6
CONTINUOUS
 10
-0.229873
 20
6.041174
 30
0.000000
 40
3.848760
 50
284.701792
 51
291.110045
  0
LINE
  8
Default
 62
     5
  6
CONTINUOUS
 10
0.746897
 20
2.318423
 30
0.000000
 11
0.545295
 21
2.265527
 31
0.000000
  0
ARC
  8
Default
 62
     5
  6
CONTINUOUS
 10
0.564329
 20
2.192982
 30
0.000000
 40
0.075000
 50
104.701792
 51
106.520331
  0
LINE
  8
Default
 62
     5
  6
CONTINUOUS
 10
0.543002
 20
2.264886
 30
0.000000
 11
0.412005
 21
2.226033
 31
0.000000
  0
ARC
  8
Default
 62
     5
  6
CONTINUOUS
 10
0.741208
 20
1.116110
 30
0.000000
 40
1.157714
 50
106.520331
 51
120.149672
  0
ARC
  8
Default
 62
     5
  6
CONTINUOUS
 10
0.208890
 20
2.021093
 30
0.000000
 40
0.107952
 50
117.087816
 51
206.602102
  0
ARC
  8
Default
 62
     5
  6
CONTINUOUS
 10
0.179426
 20
2.006338
 30
0.000000
 40
0.075000
 50
206.602102
 51
213.460084
  0
ARC
  8
Default
 62
     5
  6
CONTINUOUS
 10
0.245586
 20
2.050061
 30
0.000000
 40
0.154302
 50
213.460084
 51
247.504786
  0
ARC
  8
Default
 62
     5
  6
CONTINUOUS
 10
0.215244
 20
1.976793
 30
0.000000
 40
0.075000
 50
247.504786
 51
258.082070
  0
LINE
  8
Default
 62
     5
  6
CONTINUOUS
 10
0.199756
 20
1.903410
 30
0.000000
 11
0.294503
 21
1.883413
 31
0.000000
  0
ARC
  8
Default
 62
     5
  6
CONTINUOUS
 10
0.309992
 20
1.956796
 30
0.000000
 40
0.075000
 50
258.082070
 51
266.642638
  0
LINE
  8
Default
 62
     5
  6
CONTINUOUS
 10
0.305599
 20
1.881925
 30
0.000000
 11
0.507192
 21
1.870098
 31
0.000000
  0
ARC
  8
Default
 62
     5
  6
CONTINUOUS
 10
0.731328
 20
3.528116
 30
0.000000
 40
1.673099
 50
262.301244
 51
275.282597
  0
ARC
  8
Default
 62
     5
  6
CONTINUOUS
 10
0.878462
 20
1.936805
 30
0.000000
 40
0.075000
 50
275.282597
 51
279.186953
  0
ARC
  8
Default
 62
     5
  6
CONTINUOUS
 10
-1.102651
 20
14.186236
 30
0.000000
 40
12.483600
 50
279.186953
 51
282.179334
  0
LINE
  8
Default
 62
     5
  6
CONTINUOUS
 10
1.531042
 20
1.983616
 30
0.000000
 11
1.613283
 21
2.000069
 31
0.000000
  0
LINE
  8
Default
 62
     5
  6
CONTINUOUS
 10
1.613283
 20
2.000069
 30
0.000000
 11
1.416012
 21
1.867770
 31
0.000000
  0
LINE
  8
Default
 62
     5
  6
CONTINUOUS
 10
1.416012
 20
1.867770
 30
0.000000
 11
1.246253
 21
1.759191
 31
0.000000
  0
ARC
  8
Default
 62
     5
  6
CONTINUOUS
 10
-0.302118
 20
4.952069
 30
0.000000
 40
3.548510
 50
292.200186
 51
295.870840
  0
ARC
  8
Default
 62
     5
  6
CONTINUOUS
 10
1.067003
 20
1.597172
 30
0.000000
 40
0.075000
 50
112.200186
 51
119.336038
  0
LINE
  8
Default
 62
     5
  6
CONTINUOUS
 10
1.030258
 20
1.662554
 30
0.000000
 11
0.921099
 21
1.601206
 31
0.000000
  0
ARC
  8
Default
 62
     5
  6
CONTINUOUS
 10
1.002730
 20
1.426039
 30
0.000000
 40
0.193254
 50
114.986485
 51
143.775816
  0
LINE
  8
Default
 62
     5
  6
CONTINUOUS
 10
0.846830
 20
1.540242
 30
0.000000
 11
0.827481
 21
1.515075
 31
0.000000
  0
ARC
  8
Default
 62
     5
  6
CONTINUOUS
 10
0.886939
 20
1.469362
 30
0.000000
 40
0.075000
 50
142.446136
 51
147.206749
  0
ARC
  8
Default
 62
     5
  6
CONTINUOUS
 10
0.913200
 20
1.452442
 30
0.000000
 40
0.106240
 50
147.206749
 51
214.140808
  0
ARC
  8
Default
 62
     5
  6
CONTINUOUS
 10
0.941346
 20
1.445644
 30
0.000000
 40
0.127532
 50
204.470721
 51
257.007276
  0
LINE
  8
Default
 62
     5
  6
CONTINUOUS
 10
0.912673
 20
1.321377
 30
0.000000
 11
0.982740
 21
1.301976
 31
0.000000
  0
ARC
  8
Default
 62
     5
  6
CONTINUOUS
 10
1.002755
 20
1.374256
 30
0.000000
 40
0.075000
 50
254.522852
 51
265.560148
  0
LINE
  8
Default
 62
     5
  6
CONTINUOUS
 10
0.996949
 20
1.299481
 30
0.000000
 11
1.166874
 21
1.286287
 31
0.000000
  0
ARC
  8
Default
 62
     5
  6
CONTINUOUS
 10
1.172680
 20
1.361062
 30
0.000000
 40
0.075000
 50
265.560148
 51
267.707826
  0
ARC
  8
Default
 62
     5
  6
CONTINUOUS
 10
1.223491
 20
2.630475
 30
0.000000
 40
1.345429
 50
267.707826
 51
281.956197
  0
ARC
  8
Default
 62
     5
  6
CONTINUOUS
 10
0.928245
 20
4.024741
 30
0.000000
 40
2.770612
 50
281.956197
 51
287.681614
  0
ARC
  8
Default
 62
     5
  6
CONTINUOUS
 10
4.350165
 20
-8.309051
 30
0.000000
 40
10.031621
 50
102.608630
 51
104.905618
  0
LINE
  8
Default
 62
     5
  6
CONTINUOUS
 10
2.160360
 20
1.480647
 30
0.000000
 11
2.053881
 21
1.380344
 31
0.000000
  0
ARC
  8
Default
 62
     5
  6
CONTINUOUS
 10
4.192360
 20
-1.017109
 30
0.000000
 40
3.212612
 50
131.732303
 51
140.623949
  0
ARC
  8
Default
 62
     5
  6
CONTINUOUS
 10
1.766989
 20
0.973415
 30
0.000000
 40
0.075000
 50
140.623949
 51
147.021392
  0
ARC
  8
Default
 62
     5
  6
CONTINUOUS
 10
1.977415
 20
0.836875
 30
0.000000
 40
0.325843
 50
147.021392
 51
179.645291
  0
ARC
  8
Default
 62
     5
  6
CONTINUOUS
 10
1.813291
 20
0.837891
 30
0.000000
 40
0.161716
 50
179.645291
 51
256.445707
  0
ARC
  8
Default
 62
     5
  6
CONTINUOUS
 10
1.930602
 20
1.324493
 30
0.000000
 40
0.662260
 50
256.445707
 51
283.792876
  0
ARC
  8
Default
 62
     5
  6
CONTINUOUS
 10
2.070612
 20
0.754168
 30
0.000000
 40
0.075000
 50
283.792876
 51
292.525789
  0
ARC
  8
Default
 62
     5
  6
CONTINUOUS
 10
-0.197555
 20
6.223043
 30
0.000000
 40
5.995573
 50
292.525789
 51
297.479309
  0
ARC
  8
Default
 62
     5
  6
CONTINUOUS
 10
2.534365
 20
0.970444
 30
0.000000
 40
0.075000
 50
297.479309
 51
298.839575
  0
LINE
  8
Default
 62
     5
  6
CONTINUOUS
 10
2.570542
 20
0.904746
 30
0.000000
 11
2.982144
 21
1.131397
 31
0.000000
  0
LINE
  8
Default
 62
     5
  6
CONTINUOUS
 10
2.982144
 20
1.131397
 30
0.000000
 11
3.002353
 21
1.142141
 31
0.000000
  0
LINE
  8
Default
 62
     5
  6
CONTINUOUS
 10
3.002353
 20
1.142141
 30
0.000000
 11
2.828312
 21
0.843250
 31
0.000000
  0
LINE
  8
Default
 62
     5
  6
CONTINUOUS
 10
2.828312
 20
0.843250
 30
0.000000
 11
2.713740
 21
0.651328
 31
0.000000
  0
ARC
  8
Default
 62
     5
  6
CONTINUOUS
 10
2.778138
 20
0.612884
 30
0.000000
 40
0.075000
 50
149.163946
 51
157.145395
  0
LINE
  8
Default
 62
     5
  6
CONTINUOUS
 10
2.709026
 20
0.642014
 30
0.000000
 11
2.664753
 21
0.536975
 31
0.000000
  0
ARC
  8
Default
 62
     5
  6
CONTINUOUS
 10
2.733865
 20
0.507845
 30
0.000000
 40
0.075000
 50
157.145395
 51
164.042602
  0
ARC
  8
Default
 62
     5
  6
CONTINUOUS
 10
2.926796
 20
0.452679
 30
0.000000
 40
0.275663
 50
164.042602
 51
196.181133
  0
ARC
  8
Default
 62
     5
  6
CONTINUOUS
 10
2.734082
 20
0.396759
 30
0.000000
 40
0.075000
 50
196.181133
 51
200.747982
  0
ARC
  8
Default
 62
     5
  6
CONTINUOUS
 10
2.864738
 20
0.446254
 30
0.000000
 40
0.214716
 50
200.747982
 51
247.436419
  0
ARC
  8
Default
 62
     5
  6
CONTINUOUS
 10
2.811127
 20
0.317233
 30
0.000000
 40
0.075000
 50
247.436419
 51
250.531948
  0
ARC
  8
Default
 62
     5
  6
CONTINUOUS
 10
2.885621
 20
0.527969
 30
0.000000
 40
0.298515
 50
250.531948
 51
280.749201
  0
ARC
  8
Default
 62
     5
  6
CONTINUOUS
 10
2.933591
 20
0.419038
 30
0.000000
 40
0.184507
 50
272.393664
 51
298.999686
  0
LINE
  8
Default
 62
     5
  6
CONTINUOUS
 10
3.023041
 20
0.257664
 30
0.000000
 11
3.065304
 21
0.275270
 31
0.000000
  0
ARC
  8
Default
 62
     5
  6
CONTINUOUS
 10
2.873841
 20
0.788466
 30
0.000000
 40
0.547748
 50
290.459541
 51
305.501896
  0
ARC
  8
Default
 62
     5
  6
CONTINUOUS
 10
1.294739
 20
3.284573
 30
0.000000
 40
3.500696
 50
302.816364
 51
311.057247
  0
LINE
  8
Default
 62
     5
  6
CONTINUOUS
 10
3.594041
 20
0.644860
 30
0.000000
 11
3.578481
 21
0.585100
 31
0.000000
  0
LINE
  8
Default
 62
     5
  6
CONTINUOUS
 10
3.578481
 20
0.585100
 30
0.000000
 11
3.539890
 21
0.484468
 31
0.000000
  0
ARC
  8
Default
 62
     5
  6
CONTINUOUS
 10
3.810689
 20
0.343680
 30
0.000000
 40
0.305211
 50
152.530148
 51
185.292260
  0
ARC
  8
Default
 62
     5
  6
CONTINUOUS
 10
3.581460
 20
0.322446
 30
0.000000
 40
0.075000
 50
185.292260
 51
195.536359
  0
ARC
  8
Default
 62
     5
  6
CONTINUOUS
 10
3.792588
 20
0.381141
 30
0.000000
 40
0.294135
 50
195.536359
 51
225.337175
  0
ARC
  8
Default
 62
     5
  6
CONTINUOUS
 10
3.638551
 20
0.225280
 30
0.000000
 40
0.075000
 50
225.337175
 51
240.286848
  0
ARC
  8
Default
 62
     5
  6
CONTINUOUS
 10
3.837668
 20
0.574185
 30
0.000000
 40
0.476724
 50
240.286848
 51
260.833060
  0
ARC
  8
Default
 62
     5
  6
CONTINUOUS
 10
3.773669
 20
0.177592
 30
0.000000
 40
0.075000
 50
260.833060
 51
274.284242
  0
ARC
  8
Default
 62
     5
  6
CONTINUOUS
 10
3.756824
 20
0.402451
 30
0.000000
 40
0.300489
 50
274.284242
 51
306.230190
  0
LINE
  8
Default
 62
     5
  6
CONTINUOUS
 10
3.934422
 20
0.160061
 30
0.000000
 11
4.019051
 21
0.214742
 31
0.000000
  0
ARC
  8
Default
 62
     5
  6
CONTINUOUS
 10
3.978349
 20
0.277736
 30
0.000000
 40
0.075000
 50
302.867377
 51
305.351140
  0
LINE
  8
Default
 62
     5
  6
CONTINUOUS
 10
4.021743
 20
0.216565
 30
0.000000
 11
4.173896
 21
0.324499
 31
0.000000
  0
ARC
  8
Default
 62
     5
  6
CONTINUOUS
 10
4.130502
 20
0.385671
 30
0.000000
 40
0.075000
 50
305.351140
 51
308.151526
  0
LINE
  8
Default
 62
     5
  6
CONTINUOUS
 10
4.176833
 20
0.326693
 30
0.000000
 11
4.511538
 21
0.589621
 31
0.000000
  0
LINE
  8
Default
 62
     5
  6
CONTINUOUS
 10
4.511538
 20
0.589621
 30
0.000000
 11
4.510342
 21
0.549566
 31
0.000000
  0
ARC
  8
Default
 62
     5
  6
CONTINUOUS
 10
4.585308
 20
0.547327
 30
0.000000
 40
0.075000
 50
178.289814
 51
182.843085
  0
LINE
  8
Default
 62
     5
  6
CONTINUOUS
 10
4.510401
 20
0.543607
 30
0.000000
 11
4.514399
 21
0.463098
 31
0.000000
  0
ARC
  8
Default
 62
     5
  6
CONTINUOUS
 10
4.589307
 20
0.466819
 30
0.000000
 40
0.075000
 50
182.843085
 51
189.529829
  0
LINE
  8
Default
 62
     5
  6
CONTINUOUS
 10
4.515342
 20
0.454401
 30
0.000000
 11
4.527169
 21
0.383952
 31
0.000000
  0
ARC
  8
Default
 62
     5
  6
CONTINUOUS
 10
4.829990
 20
0.434789
 30
0.000000
 40
0.307059
 50
189.529829
 51
244.534834
  0
ARC
  8
Default
 62
     5
  6
CONTINUOUS
 10
4.730214
 20
0.225275
 30
0.000000
 40
0.075000
 50
244.534834
 51
254.397807
  0
ARC
  8
Default
 62
     5
  6
CONTINUOUS
 10
4.774669
 20
0.384474
 30
0.000000
 40
0.240290
 50
254.397807
 51
296.868354
  0
LINE
  8
Default
 62
     5
  6
CONTINUOUS
 10
4.883267
 20
0.170124
 30
0.000000
 11
4.976636
 21
0.213424
 31
0.000000
  0
ARC
  8
Default
 62
     5
  6
CONTINUOUS
 10
4.945083
 20
0.281463
 30
0.000000
 40
0.075000
 50
294.879408
 51
297.732141
  0
ARC
  8
Default
 62
     5
  6
CONTINUOUS
 10
4.562185
 20
1.009783
 30
0.000000
 40
0.897837
 50
297.732141
 51
323.476775
  0
LINE
  8
Default
 62
     5
  6
CONTINUOUS
 10
5.283701
 20
0.475437
 30
0.000000
 11
5.379404
 21
0.604663
 31
0.000000
  0
LINE
  8
Default
 62
     5
  6
CONTINUOUS
 10
5.379404
 20
0.604663
 30
0.000000
 11
5.400688
 21
0.502061
 31
0.000000
  0
ARC
  8
Default
 62
     5
  6
CONTINUOUS
 10
5.474124
 20
0.517295
 30
0.000000
 40
0.075000
 50
191.719361
 51
199.488872
  0
ARC
  8
Default
 62
     5
  6
CONTINUOUS
 10
5.621613
 20
0.569492
 30
0.000000
 40
0.231453
 50
199.488872
 51
298.168519
  0
ARC
  8
Default
 62
     5
  6
CONTINUOUS
 10
5.634077
 20
0.610629
 30
0.000000
 40
0.263594
 50
291.544331
 51
321.093322
  0
LINE
  8
Default
 62
     5
  6
CONTINUOUS
 10
5.839198
 20
0.445078
 30
0.000000
 11
5.908258
 21
0.521973
 31
0.000000
  0
ARC
  8
Default
 62
     5
  6
CONTINUOUS
 10
5.852458
 20
0.572087
 30
0.000000
 40
0.075000
 50
318.072779
 51
319.025490
  0
ARC
  8
Default
 62
     5
  6
CONTINUOUS
 10
3.278687
 20
2.807422
 30
0.000000
 40
3.483962
 50
319.025490
 51
322.348374
  0
LINE
  8
Default
 62
     5
  6
CONTINUOUS
 10
6.037078
 20
0.679214
 30
0.000000
 11
6.093942
 21
0.750681
 31
0.000000
  0
ARC
  8
Default
 62
     5
  6
CONTINUOUS
 10
6.289097
 20
0.855087
 30
0.000000
 40
0.221328
 50
208.146206
 51
256.068405
  0
ARC
  8
Default
 62
     5
  6
CONTINUOUS
 10
6.253866
 20
0.713063
 30
0.000000
 40
0.075000
 50
256.068405
 51
274.259439
  0
ARC
  8
Default
 62
     5
  6
CONTINUOUS
 10
6.230167
 20
1.031274
 30
0.000000
 40
0.394092
 50
274.259439
 51
309.113417
  0
LINE
  8
Default
 62
     5
  6
CONTINUOUS
 10
6.478782
 20
0.725499
 30
0.000000
 11
6.636750
 21
0.812403
 31
0.000000
  0
ARC
  8
Default
 62
     5
  6
CONTINUOUS
 10
6.600599
 20
0.878115
 30
0.000000
 40
0.075000
 50
298.817057
 51
298.927831
  0
LINE
  8
Default
 62
     5
  6
CONTINUOUS
 10
6.636877
 20
0.812473
 30
0.000000
 11
6.699969
 21
0.847342
 31
0.000000
  0
ARC
  8
Default
 62
     5
  6
CONTINUOUS
 10
6.663691
 20
0.912984
 30
0.000000
 40
0.075000
 50
298.927831
 51
310.035759
  0
LINE
  8
Default
 62
     5
  6
CONTINUOUS
 10
6.711936
 20
0.855561
 30
0.000000
 11
6.774221
 21
0.907891
 31
0.000000
  0
ARC
  8
Default
 62
     5
  6
CONTINUOUS
 10
6.725976
 20
0.965314
 30
0.000000
 40
0.075000
 50
310.035759
 51
317.799491
  0
ARC
  8
Default
 62
     5
  6
CONTINUOUS
 10
6.501200
 20
1.169133
 30
0.000000
 40
0.378425
 50
317.799491
 51
349.341707
  0
ARC
  8
Default
 62
     5
  6
CONTINUOUS
 10
7.020013
 20
1.307705
 30
0.000000
 40
0.255114
 50
234.837983
 51
244.596732
  0
ARC
  8
Default
 62
     5
  6
CONTINUOUS
 10
6.942747
 20
1.145006
 30
0.000000
 40
0.075000
 50
244.596732
 51
256.739041
  0
ARC
  8
Default
 62
     5
  6
CONTINUOUS
 10
7.011338
 20
1.436055
 30
0.000000
 40
0.374022
 50
256.739041
 51
278.656216
  0
ARC
  8
Default
 62
     5
  6
CONTINUOUS
 10
6.962825
 20
1.754718
 30
0.000000
 40
0.696357
 50
278.656216
 51
296.998982
  0
ARC
  8
Default
 62
     5
  6
CONTINUOUS
 10
7.244905
 20
1.201080
 30
0.000000
 40
0.075000
 50
296.998982
 51
302.971628
  0
ARC
  8
Default
 62
     5
  6
CONTINUOUS
 10
7.017398
 20
1.551791
 30
0.000000
 40
0.493040
 50
302.971628
 51
327.978885
  0
LINE
  8
Default
 62
     5
  6
CONTINUOUS
 10
7.435423
 20
1.290365
 30
0.000000
 11
7.449191
 21
1.304145
 31
0.000000
  0
ARC
  8
Default
 62
     5
  6
CONTINUOUS
 10
7.396137
 20
1.357156
 30
0.000000
 40
0.075000
 50
315.023502
 51
333.874521
  0
LINE
  8
Default
 62
     5
  6
CONTINUOUS
 10
7.463474
 20
1.324130
 30
0.000000
 11
7.467192
 21
1.331711
 31
0.000000
  0
LINE
  8
Default
 62
     5
  6
CONTINUOUS
 10
7.467192
 20
1.331711
 30
0.000000
 11
7.490182
 21
1.317882
 31
0.000000
  0
ARC
  8
Default
 62
     5
  6
CONTINUOUS
 10
7.721894
 20
1.703099
 30
0.000000
 40
0.449536
 50
238.972621
 51
272.738856
  0
LINE
  8
Default
 62
     5
  6
CONTINUOUS
 10
7.743375
 20
1.254077
 30
0.000000
 11
7.823382
 21
1.254077
 31
0.000000
  0
ARC
  8
Default
 62
     5
  6
CONTINUOUS
 10
7.823382
 20
1.329077
 30
0.000000
 40
0.075000
 50
270.000000
 51
271.689545
  0
ARC
  8
Default
 62
     5
  6
CONTINUOUS
 10
7.821026
 20
1.408952
 30
0.000000
 40
0.154910
 50
271.689545
 51
317.625500
  0
ARC
  8
Default
 62
     5
  6
CONTINUOUS
 10
7.880060
 20
1.355095
 30
0.000000
 40
0.075000
 50
317.625500
 51
340.971442
  0
LINE
  8
Default
 62
     5
  6
CONTINUOUS
 10
7.950962
 20
1.330642
 30
0.000000
 11
7.967308
 21
1.322195
 31
0.000000
  0
ARC
  8
Default
 62
     5
  6
CONTINUOUS
 10
8.001740
 20
1.388824
 30
0.000000
 40
0.075000
 50
242.671374
 51
249.301197
  0
ARC
  8
Default
 62
     5
  6
CONTINUOUS
 10
8.171680
 20
1.838586
 30
0.000000
 40
0.555797
 50
249.301197
 51
263.211540
  0
ARC
  8
Default
 62
     5
  6
CONTINUOUS
 10
8.150427
 20
1.602240
 30
0.000000
 40
0.318669
 50
261.982983
 51
290.000176
  0
ARC
  8
Default
 62
     5
  6
CONTINUOUS
 10
8.233767
 20
1.373266
 30
0.000000
 40
0.075000
 50
290.000176
 51
292.791599
  0
ARC
  8
Default
 62
     5
  6
CONTINUOUS
 10
8.204851
 20
1.442083
 30
0.000000
 40
0.149645
 50
292.791599
 51
327.612404
  0
ARC
  8
Default
 62
     5
  6
CONTINUOUS
 10
8.182322
 20
1.456373
 30
0.000000
 40
0.176324
 50
327.612404
 51
331.619667
  0
ARC
  8
Default
 62
     5
  6
CONTINUOUS
 10
8.623802
 20
1.972713
 30
0.000000
 40
0.664963
 50
244.492909
 51
257.379400
  0
ARC
  8
Default
 62
     5
  6
CONTINUOUS
 10
8.494898
 20
1.397004
 30
0.000000
 40
0.075000
 50
257.379400
 51
267.222022
  0
LINE
  8
Default
 62
     5
  6
CONTINUOUS
 10
8.491263
 20
1.322093
 30
0.000000
 11
8.572800
 21
1.318136
 31
0.000000
  0
ARC
  8
Default
 62
     5
  6
CONTINUOUS
 10
8.576434
 20
1.393048
 30
0.000000
 40
0.075000
 50
267.222022
 51
281.508496
  0
LINE
  8
Default
 62
     5
  6
CONTINUOUS
 10
8.591398
 20
1.319556
 30
0.000000
 11
8.630425
 21
1.327502
 31
0.000000
  0
ARC
  8
Default
 62
     5
  6
CONTINUOUS
 10
8.615461
 20
1.400994
 30
0.000000
 40
0.075000
 50
281.508496
 51
321.315799
  0
LINE
  8
Default
 62
     5
  6
CONTINUOUS
 10
8.674006
 20
1.354117
 30
0.000000
 11
8.694339
 21
1.379510
 31
0.000000
  0
ARC
  8
Default
 62
     5
  6
CONTINUOUS
 10
8.635794
 20
1.426387
 30
0.000000
 40
0.075000
 50
321.315799
 51
346.901736
  0
ARC
  8
Default
 62
     5
  6
CONTINUOUS
 10
8.033452
 20
1.566537
 30
0.000000
 40
0.693431
 50
346.901736
 51
348.507814
  0
ARC
  8
Default
 62
     5
  6
CONTINUOUS
 10
8.873940
 20
1.978314
 30
0.000000
 40
0.573003
 50
253.685818
 51
266.965876
  0
ARC
  8
Default
 62
     5
  6
CONTINUOUS
 10
8.847581
 20
1.481009
 30
0.000000
 40
0.075000
 50
266.965876
 51
276.326146
  0
ARC
  8
Default
 62
     5
  6
CONTINUOUS
 10
8.865359
 20
1.320649
 30
0.000000
 40
0.086342
 50
70.795226
 51
96.326146
  0
ARC
  8
Default
 62
     5
  6
CONTINUOUS
 10
8.918432
 20
1.473012
 30
0.000000
 40
0.075000
 50
250.795226
 51
256.131092
  0
ARC
  8
Default
 62
     5
  6
CONTINUOUS
 10
8.937699
 20
1.551051
 30
0.000000
 40
0.155382
 50
256.131092
 51
304.500273
  0
ARC
  8
Default
 62
     5
  6
CONTINUOUS
 10
8.983228
 20
1.484806
 30
0.000000
 40
0.075000
 50
304.500273
 51
324.434659
  0
ARC
  8
Default
 62
     5
  6
CONTINUOUS
 10
8.870114
 20
1.565685
 30
0.000000
 40
0.214055
 50
324.434659
 51
337.794913
  0
ARC
  8
Default
 62
     5
  6
CONTINUOUS
 10
9.733380
 20
2.945541
 30
0.000000
 40
1.605035
 50
245.520024
 51
248.613541
  0
ARC
  8
Default
 62
     5
  6
CONTINUOUS
 10
9.175443
 20
1.520861
 30
0.000000
 40
0.075000
 50
248.613541
 51
259.524106
  0
LINE
  8
Default
 62
     5
  6
CONTINUOUS
 10
9.161806
 20
1.447111
 30
0.000000
 11
9.269275
 21
1.427240
 31
0.000000
  0
ARC
  8
Default
 62
     5
  6
CONTINUOUS
 10
9.282912
 20
1.500990
 30
0.000000
 40
0.075000
 50
259.524106
 51
272.580319
  0
LINE
  8
Default
 62
     5
  6
CONTINUOUS
 10
9.286288
 20
1.426066
 30
0.000000
 11
9.354389
 21
1.429135
 31
0.000000
  0
ARC
  8
Default
 62
     5
  6
CONTINUOUS
 10
9.351013
 20
1.504059
 30
0.000000
 40
0.075000
 50
272.580319
 51
288.423393
  0
ARC
  8
Default
 62
     5
  6
CONTINUOUS
 10
9.335064
 20
1.551938
 30
0.000000
 40
0.125466
 50
288.423393
 51
333.941580
  0
LINE
  8
Default
 62
     5
  6
CONTINUOUS
 10
9.447775
 20
1.496822
 30
0.000000
 11
9.453415
 21
1.493983
 31
0.000000
  0
ARC
  8
Default
 62
     5
  6
CONTINUOUS
 10
9.487139
 20
1.560973
 30
0.000000
 40
0.075000
 50
243.277845
 51
252.007391
  0
ARC
  8
Default
 62
     5
  6
CONTINUOUS
 10
9.588510
 20
1.873097
 30
0.000000
 40
0.403173
 50
252.007391
 51
267.367779
  0
ARC
  8
Default
 62
     5
  6
CONTINUOUS
 10
9.621420
 20
1.710361
 30
0.000000
 40
0.245459
 50
257.906522
 51
292.330220
  0
ARC
  8
Default
 62
     5
  6
CONTINUOUS
 10
9.686185
 20
1.552685
 30
0.000000
 40
0.075000
 50
292.330220
 51
297.020434
  0
ARC
  8
Default
 62
     5
  6
CONTINUOUS
 10
9.656941
 20
1.610029
 30
0.000000
 40
0.139370
 50
297.020434
 51
337.390695
  0
ARC
  8
Default
 62
     5
  6
CONTINUOUS
 10
9.942488
 20
2.016122
 30
0.000000
 40
0.485709
 50
251.155095
 51
277.286945
  0
ARC
  8
Default
 62
     5
  6
CONTINUOUS
 10
9.993707
 20
1.650170
 30
0.000000
 40
0.116299
 50
275.124279
 51
342.364823
  0
LINE
  8
Default
 62
     5
  6
CONTINUOUS
 10
10.104541
 20
1.614937
 30
0.000000
 11
10.152913
 21
1.600896
 31
0.000000
  0
ARC
  8
Default
 62
     5
  6
CONTINUOUS
 10
10.173820
 20
1.672923
 30
0.000000
 40
0.075000
 50
253.813399
 51
260.943775
  0
LINE
  8
Default
 62
     5
  6
CONTINUOUS
 10
10.162015
 20
1.598858
 30
0.000000
 11
10.287191
 21
1.578906
 31
0.000000
  0
ARC
  8
Default
 62
     5
  6
CONTINUOUS
 10
10.312495
 20
1.723056
 30
0.000000
 40
0.146355
 50
260.043714
 51
367.296624
  0
ARC
  8
Default
 62
     5
  6
CONTINUOUS
 10
10.520429
 20
1.740344
 30
0.000000
 40
0.062777
 50
153.264272
 51
178.813173
  0
ARC
  8
Default
 62
     5
  6
CONTINUOUS
 10
10.273313
 20
1.878728
 30
0.000000
 40
0.220525
 50
330.036181
 51
361.908510
  0
LINE
  8
Default
 62
     5
  6
CONTINUOUS
 10
10.493716
 20
1.886072
 30
0.000000
 11
10.493716
 21
1.964746
 31
0.000000
  0
ARC
  8
Default
 62
     5
  6
CONTINUOUS
 10
10.418716
 20
1.964746
 30
0.000000
 40
0.075000
 50
0.000000
 51
13.498326
  0
ARC
  8
Default
 62
     5
  6
CONTINUOUS
 10
10.564961
 20
1.999852
 30
0.000000
 40
0.075399
 50
188.932841
 51
193.498326
  0
LINE
  8
Default
 62
     5
  6
CONTINUOUS
 10
10.490476
 20
1.988144
 30
0.000000
 11
10.563658
 21
1.968358
 31
0.000000
  0
ARC
  8
Default
 62
     5
  6
CONTINUOUS
 10
10.583233
 20
2.040758
 30
0.000000
 40
0.075000
 50
254.870864
 51
256.189787
  0
LINE
  8
Default
 62
     5
  6
CONTINUOUS
 10
10.565330
 20
1.967927
 30
0.000000
 11
10.744888
 21
1.923789
 31
0.000000
  0
ARC
  8
Default
 62
     5
  6
CONTINUOUS
 10
10.762791
 20
1.996621
 30
0.000000
 40
0.075000
 50
256.189787
 51
260.334136
  0
LINE
  8
Default
 62
     5
  6
CONTINUOUS
 10
10.750198
 20
1.922686
 30
0.000000
 11
11.026768
 21
1.875580
 31
0.000000
  0
ARC
  8
Default
 62
     5
  6
CONTINUOUS
 10
11.089693
 20
2.107912
 30
0.000000
 40
0.240702
 50
254.845535
 51
300.853335
  0
ARC
  8
Default
 62
     5
  6
CONTINUOUS
 10
11.174672
 20
1.965659
 30
0.000000
 40
0.075000
 50
300.853335
 51
337.464067
  0
LINE
  8
Default
 62
     5
  6
CONTINUOUS
 10
11.243945
 20
1.936915
 30
0.000000
 11
11.267807
 21
1.994421
 31
0.000000
  0
ARC
  8
Default
 62
     5
  6
CONTINUOUS
 10
11.198534
 20
2.023166
 30
0.000000
 40
0.075000
 50
337.464067
 51
349.911024
  0
LINE
  8
Default
 62
     5
  6
CONTINUOUS
 10
11.272375
 20
2.010027
 30
0.000000
 11
11.284020
 21
2.075480
 31
0.000000
  0
ARC
  8
Default
 62
     5
  6
CONTINUOUS
 10
11.210180
 20
2.088618
 30
0.000000
 40
0.075000
 50
349.911024
 51
358.399438
  0
LINE
  8
Default
 62
     5
  6
CONTINUOUS
 10
11.285151
 20
2.086524
 30
0.000000
 11
11.289522
 21
2.242973
 31
0.000000
  0
ARC
  8
Default
 62
     5
  6
CONTINUOUS
 10
10.476169
 20
2.265700
 30
0.000000
 40
0.813671
 50
358.399438
 51
358.778036
  0
LINE
  8
Default
 62
     5
  6
CONTINUOUS
 10
11.289655
 20
2.248348
 30
0.000000
 11
11.333107
 21
2.210502
 31
0.000000
  0
ARC
  8
Default
 62
     5
  6
CONTINUOUS
 10
11.382366
 20
2.267058
 30
0.000000
 40
0.075000
 50
228.944849
 51
231.003247
  0
LINE
  8
Default
 62
     5
  6
CONTINUOUS
 10
11.335170
 20
2.208770
 30
0.000000
 11
11.432314
 21
2.130113
 31
0.000000
  0
ARC
  8
Default
 62
     5
  6
CONTINUOUS
 10
11.479510
 20
2.188402
 30
0.000000
 40
0.075000
 50
231.003247
 51
240.990466
  0
LINE
  8
Default
 62
     5
  6
CONTINUOUS
 10
11.443138
 20
2.122812
 30
0.000000
 11
11.551269
 21
2.062850
 31
0.000000
  0
ARC
  8
Default
 62
     5
  6
CONTINUOUS
 10
11.587641
 20
2.128440
 30
0.000000
 40
0.075000
 50
240.990466
 51
244.431440
  0
ARC
  8
Default
 62
     5
  6
CONTINUOUS
 10
11.661421
 20
2.282648
 30
0.000000
 40
0.245949
 50
244.431440
 51
320.870586
  0
LINE
  8
Default
 62
     5
  6
CONTINUOUS
 10
11.852209
 20
2.127436
 30
0.000000
 11
11.900120
 21
2.075896
 31
0.000000
  0
ARC
  8
Default
 62
     5
  6
CONTINUOUS
 10
12.671935
 20
2.631143
 30
0.000000
 40
0.950788
 50
215.731435
 51
228.079690
  0
ARC
  8
Default
 62
     5
  6
CONTINUOUS
 10
12.967241
 20
2.741945
 30
0.000000
 40
1.239122
 50
221.326874
 51
231.601845
  0
ARC
  8
Default
 62
     5
  6
CONTINUOUS
 10
12.691906
 20
2.318181
 30
0.000000
 40
0.737522
 50
227.915000
 51
249.237541
  0
LINE
  8
Default
 62
     5
  6
CONTINUOUS
 10
12.430458
 20
1.628556
 30
0.000000
 11
12.630108
 21
1.518973
 31
0.000000
  0
ARC
  8
Default
 62
     5
  6
CONTINUOUS
 10
12.666195
 20
1.584720
 30
0.000000
 40
0.075000
 50
241.238683
 51
249.089627
  0
ARC
  8
Default
 62
     5
  6
CONTINUOUS
 10
13.054658
 20
2.601452
 30
0.000000
 40
1.163415
 50
249.089627
 51
265.011047
  0
LINE
  8
Default
 62
     5
  6
CONTINUOUS
 10
12.953483
 20
1.442445
 30
0.000000
 11
13.198856
 21
1.407873
 31
0.000000
  0
ARC
  8
Default
 62
     5
  6
CONTINUOUS
 10
13.209320
 20
1.482140
 30
0.000000
 40
0.075000
 50
261.980226
 51
262.328029
  0
LINE
  8
Default
 62
     5
  6
CONTINUOUS
 10
13.199307
 20
1.407811
 30
0.000000
 11
13.356108
 21
1.386689
 31
0.000000
  0
ARC
  8
Default
 62
     5
  6
CONTINUOUS
 10
13.366121
 20
1.461018
 30
0.000000
 40
0.075000
 50
262.328029
 51
263.835635
  0
ARC
  8
Default
 62
     5
  6
CONTINUOUS
 10
13.440382
 20
2.148587
 30
0.000000
 40
0.766568
 50
263.835635
 51
275.424486
  0
ARC
  8
Default
 62
     5
  6
CONTINUOUS
 10
13.523167
 20
1.495079
 30
0.000000
 40
0.110112
 50
264.623196
 51
342.592830
  0
ARC
  8
Default
 62
     5
  6
CONTINUOUS
 10
13.466063
 20
1.514378
 30
0.000000
 40
0.170379
 50
342.145021
 51
374.406633
  0
ARC
  8
Default
 62
     5
  6
CONTINUOUS
 10
13.524133
 20
1.540032
 30
0.000000
 40
0.108253
 50
8.893759
 51
81.608544
  0
LINE
  8
Default
 62
     5
  6
CONTINUOUS
 10
13.539931
 20
1.647126
 30
0.000000
 11
13.518238
 21
1.660345
 31
0.000000
  0
ARC
  8
Default
 62
     5
  6
CONTINUOUS
 10
13.850376
 20
2.174880
 30
0.000000
 40
0.612423
 50
220.190805
 51
237.157336
  0
ARC
  8
Default
 62
     5
  6
CONTINUOUS
 10
13.325254
 20
1.731262
 30
0.000000
 40
0.075000
 50
40.190805
 51
46.574292
  0
ARC
  8
Default
 62
     5
  6
CONTINUOUS
 10
13.499160
 20
1.914997
 30
0.000000
 40
0.177986
 50
185.633915
 51
226.574292
  0
ARC
  8
Default
 62
     5
  6
CONTINUOUS
 10
13.564462
 20
2.245278
 30
0.000000
 40
0.423915
 50
235.118633
 51
243.751310
  0
LINE
  8
Default
 62
     5
  6
CONTINUOUS
 10
13.376978
 20
1.865076
 30
0.000000
 11
13.448559
 21
1.820327
 31
0.000000
  0
ARC
  8
Default
 62
     5
  6
CONTINUOUS
 10
13.908210
 20
2.350017
 30
0.000000
 40
0.701320
 50
229.049468
 51
265.999242
  0
ARC
  8
Default
 62
     5
  6
CONTINUOUS
 10
13.956338
 20
2.135671
 30
0.000000
 40
0.494877
 50
258.689310
 51
274.686024
  0
LINE
  8
Default
 62
     5
  6
CONTINUOUS
 10
13.996768
 20
1.642448
 30
0.000000
 11
14.038426
 21
1.645863
 31
0.000000
  0
ARC
  8
Default
 62
     5
  6
CONTINUOUS
 10
14.032299
 20
1.720613
 30
0.000000
 40
0.075000
 50
274.686024
 51
278.162460
  0
ARC
  8
Default
 62
     5
  6
CONTINUOUS
 10
14.028181
 20
1.749322
 30
0.000000
 40
0.104003
 50
278.162460
 51
364.398585
  0
ARC
  8
Default
 62
     5
  6
CONTINUOUS
 10
14.057099
 20
1.751546
 30
0.000000
 40
0.075000
 50
4.398585
 51
18.902684
  0
ARC
  8
Default
 62
     5
  6
CONTINUOUS
 10
13.825605
 20
1.672276
 30
0.000000
 40
0.319689
 50
18.902684
 51
37.902981
  0
LINE
  8
Default
 62
     5
  6
CONTINUOUS
 10
14.077857
 20
1.868670
 30
0.000000
 11
14.166546
 21
1.809115
 31
0.000000
  0
ARC
  8
Default
 62
     5
  6
CONTINUOUS
 10
14.801989
 20
2.543716
 30
0.000000
 40
0.971300
 50
229.139614
 51
245.379915
  0
ARC
  8
Default
 62
     5
  6
CONTINUOUS
 10
14.428590
 20
1.728898
 30
0.000000
 40
0.075000
 50
245.379915
 51
258.019331
  0
ARC
  8
Default
 62
     5
  6
CONTINUOUS
 10
14.443278
 20
1.798114
 30
0.000000
 40
0.145757
 50
258.019331
 51
329.609274
  0
LINE
  8
Default
 62
     5
  6
CONTINUOUS
 10
14.569007
 20
1.724376
 30
0.000000
 11
14.609250
 21
1.698224
 31
0.000000
  0
ARC
  8
Default
 62
     5
  6
CONTINUOUS
 10
14.705638
 20
1.846543
 30
0.000000
 40
0.176888
 50
236.981524
 51
273.184376
  0
ARC
  8
Default
 62
     5
  6
CONTINUOUS
 10
14.712089
 20
1.814479
 30
0.000000
 40
0.144590
 50
271.337552
 51
350.766639
  0
ARC
  8
Default
 62
     5
  6
CONTINUOUS
 10
14.780777
 20
1.803313
 30
0.000000
 40
0.075000
 50
350.766639
 51
365.333982
  0
ARC
  8
Default
 62
     5
  6
CONTINUOUS
 10
14.160005
 20
1.745354
 30
0.000000
 40
0.698472
 50
5.333982
 51
13.673374
  0
ARC
  8
Default
 62
     5
  6
CONTINUOUS
 10
15.267929
 20
3.093923
 30
0.000000
 40
1.258900
 50
250.063980
 51
259.874156
  0
ARC
  8
Default
 62
     5
  6
CONTINUOUS
 10
15.104408
 20
2.178311
 30
0.000000
 40
0.328800
 50
259.874156
 51
284.246828
  0
ARC
  8
Default
 62
     5
  6
CONTINUOUS
 10
15.144915
 20
2.060266
 30
0.000000
 40
0.204673
 50
281.387352
 51
317.450334
  0
ARC
  8
Default
 62
     5
  6
CONTINUOUS
 10
15.240444
 20
1.972578
 30
0.000000
 40
0.075000
 50
317.450334
 51
319.403605
  0
ARC
  8
Default
 62
     5
  6
CONTINUOUS
 10
15.171557
 20
2.031613
 30
0.000000
 40
0.165723
 50
319.403605
 51
375.022576
  0
LINE
  8
Default
 62
     5
  6
CONTINUOUS
 10
15.331616
 20
2.074569
 30
0.000000
 11
15.331831
 21
2.123790
 31
0.000000
  0
ARC
  8
Default
 62
     5
  6
CONTINUOUS
 10
15.256832
 20
2.124118
 30
0.000000
 40
0.075000
 50
359.749261
 51
389.539948
  0
LINE
  8
Default
 62
     5
  6
CONTINUOUS
 10
15.322083
 20
2.161095
 30
0.000000
 11
15.303410
 21
2.194045
 31
0.000000
  0
ARC
  8
Default
 62
     5
  6
CONTINUOUS
 10
15.269528
 20
2.260956
 30
0.000000
 40
0.075000
 50
296.856720
 51
302.099475
  0
ARC
  8
Default
 62
     5
  6
CONTINUOUS
 10
15.220736
 20
2.338739
 30
0.000000
 40
0.166820
 50
302.099475
 51
361.034957
  0
ARC
  8
Default
 62
     5
  6
CONTINUOUS
 10
15.312541
 20
2.340397
 30
0.000000
 40
0.075000
 50
1.034957
 51
20.193217
  0
LINE
  8
Default
 62
     5
  6
CONTINUOUS
 10
15.382931
 20
2.366286
 30
0.000000
 11
15.355237
 21
2.441584
 31
0.000000
  0
ARC
  8
Default
 62
     5
  6
CONTINUOUS
 10
15.284847
 20
2.415695
 30
0.000000
 40
0.075000
 50
20.193217
 51
30.463975
  0
ARC
  8
Default
 62
     5
  6
CONTINUOUS
 10
14.309390
 20
1.841933
 30
0.000000
 40
1.206688
 50
30.463975
 51
39.807070
  0
ARC
  8
Default
 62
     5
  6
CONTINUOUS
 10
13.483918
 20
1.424421
 30
0.000000
 40
2.118323
 50
34.179229
 51
45.276351
  0
ARC
  8
Default
 62
     5
  6
CONTINUOUS
 10
14.921780
 20
2.876221
 30
0.000000
 40
0.075000
 50
45.276351
 51
52.157340
  0
ARC
  8
Default
 62
     5
  6
CONTINUOUS
 10
16.444856
 20
4.836742
 30
0.000000
 40
2.407620
 50
212.931273
 51
232.157340
  0
ARC
  8
Default
 62
     5
  6
CONTINUOUS
 10
14.361135
 20
3.487109
 30
0.000000
 40
0.075000
 50
32.931273
 51
34.251144
  0
LINE
  8
Default
 62
     5
  6
CONTINUOUS
 10
14.423128
 20
3.529320
 30
0.000000
 11
14.153539
 21
3.925248
 31
0.000000
  0
ARC
  8
Default
 62
     5
  6
CONTINUOUS
 10
12.558170
 20
2.838953
 30
0.000000
 40
1.930088
 50
34.251144
 51
46.062583
  0
ARC
  8
Default
 62
     5
  6
CONTINUOUS
 10
13.845364
 20
4.174799
 30
0.000000
 40
0.075000
 50
46.062583
 51
47.250046
  0
ARC
  8
Default
 62
     5
  6
CONTINUOUS
 10
30.844899
 20
22.564822
 30
0.000000
 40
24.968505
 50
225.188530
 51
227.250046
  0
ARC
  8
Default
 62
     5
  6
CONTINUOUS
 10
8.093841
 20
-0.336455
 30
0.000000
 40
7.312745
 50
45.188530
 51
51.181908
  0
ARC
  8
Default
 62
     5
  6
CONTINUOUS
 10
9.931446
 20
1.947588
 30
0.000000
 40
4.381254
 50
51.181908
 51
71.324417
  0
LINE
  8
Default
 62
     5
  6
CONTINUOUS
 10
11.334364
 20
6.098154
 30
0.000000
 11
10.933525
 21
6.233641
 31
0.000000
  0
ARC
  8
Default
 62
     5
  6
CONTINUOUS
 10
13.284149
 20
12.356315
 30
0.000000
 40
6.558398
 50
244.875208
 51
248.997147
  0
ARC
  8
Default
 62
     5
  6
CONTINUOUS
 10
10.467667
 20
6.350535
 30
0.000000
 40
0.075000
 50
64.875208
 51
67.368869
  0
LINE
  8
Default
 62
     5
  6
CONTINUOUS
 10
10.496526
 20
6.419761
 30
0.000000
 11
10.452060
 21
6.438299
 31
0.000000
  0
LINE
  8
Default
 62
     5
  6
CONTINUOUS
 10
10.452060
 20
6.438299
 30
0.000000
 11
10.410126
 21
6.460967
 31
0.000000
  0
ARC
  8
Default
 62
     5
  6
CONTINUOUS
 10
10.374461
 20
6.394989
 30
0.000000
 40
0.075000
 50
61.605821
 51
69.290531
  0
LINE
  8
Default
 62
     5
  6
CONTINUOUS
 10
10.400983
 20
6.465143
 30
0.000000
 11
10.317427
 21
6.496732
 31
0.000000
  0
ARC
  8
Default
 62
     5
  6
CONTINUOUS
 10
10.290904
 20
6.426578
 30
0.000000
 40
0.075000
 50
69.290531
 51
73.994161
  0
LINE
  8
Default
 62
     5
  6
CONTINUOUS
 10
10.311585
 20
6.498671
 30
0.000000
 11
10.129079
 21
6.551024
 31
0.000000
  0
ARC
  8
Default
 62
     5
  6
CONTINUOUS
 10
10.108399
 20
6.478931
 30
0.000000
 40
0.075000
 50
73.994161
 51
77.483555
  0
ARC
  8
Default
 62
     5
  6
CONTINUOUS
 10
8.729729
 20
0.268586
 30
0.000000
 40
6.436534
 50
77.483555
 51
84.254831
  0
ARC
  8
Default
 62
     5
  6
CONTINUOUS
 10
8.662351
 20
-0.401109
 30
0.000000
 40
7.109610
 50
84.254831
 51
85.509754
  0
ARC
  8
Default
 62
     5
  6
CONTINUOUS
 10
8.932005
 20
3.032646
 30
0.000000
 40
3.665284
 50
85.509754
 51
94.701582
  0
ARC
  8
Default
 62
     5
  6
CONTINUOUS
 10
8.738648
 20
3.924603
 30
0.000000
 40
2.763069
 50
92.220831
 51
105.511947
  0
ARC
  8
Default
 62
     5
  6
CONTINUOUS
 10
8.019753
 20
6.514758
 30
0.000000
 40
0.075000
 50
105.511947
 51
112.441669
  0
ARC
  8
Default
 62
     5
  6
CONTINUOUS
 10
6.818569
 20
9.423043
 30
0.000000
 40
3.071580
 50
282.074904
 51
292.441669
  0
ARC
  8
Default
 62
     5
  6
CONTINUOUS
 10
6.349344
 20
11.616472
 30
0.000000
 40
5.314636
 50
276.653734
 51
282.074904
  0
ARC
  8
Default
 62
     5
  6
CONTINUOUS
 10
6.973834
 20
6.263137
 30
0.000000
 40
0.075000
 50
96.653734
 51
99.546252
  0
ARC
  8
Default
 62
     5
  6
CONTINUOUS
 10
6.826826
 20
7.137285
 30
0.000000
 40
0.811423
 50
260.663074
 51
279.546252
  0
ARC
  8
Default
 62
     5
  6
CONTINUOUS
 10
7.074472
 20
8.154667
 30
0.000000
 40
1.857199
 50
250.720128
 51
258.215719
  0
ARC
  8
Default
 62
     5
  6
CONTINUOUS
 10
6.436493
 20
6.330832
 30
0.000000
 40
0.075000
 50
70.720128
 51
72.255084
  0
ARC
  8
Default
 62
     5
  6
CONTINUOUS
 10
7.566650
 20
9.862519
 30
0.000000
 40
3.633108
 50
244.732189
 51
252.255084
  0
ARC
  8
Default
 62
     5
  6
CONTINUOUS
 10
7.944374
 20
9.678018
 30
0.000000
 40
3.651763
 50
231.878665
 51
238.122457
  0
LINE
  8
Default
 62
     5
  6
CONTINUOUS
 10
12.379915
 20
2.594367
 30
0.000000
 11
12.371830
 21
2.698372
 31
0.000000
  0
ARC
  8
Default
 62
     5
  6
CONTINUOUS
 10
12.337184
 20
2.532731
 30
0.000000
 40
0.075000
 50
50.379722
 51
55.266726
  0
LINE
  8
Default
 62
     5
  6
CONTINUOUS
 10
12.421771
 20
2.560070
 30
0.000000
 11
12.385011
 21
2.590502
 31
0.000000
  0
LINE
  8
Default
 62
     5
  6
CONTINUOUS
 10
12.726127
 20
2.346588
 30
0.000000
 11
12.421771
 21
2.560070
 31
0.000000
  0
ARC
  8
Default
 62
     5
  6
CONTINUOUS
 10
9.791726
 20
-4.551408
 30
0.000000
 40
7.496202
 50
66.111980
 51
66.955141
  0
ARC
  8
Default
 62
     5
  6
CONTINUOUS
 10
14.861744
 20
4.438646
 30
0.000000
 40
2.949802
 50
225.790086
 51
226.394995
  0
LINE
  8
Default
 62
     5
  6
CONTINUOUS
 10
12.642122
 20
2.482586
 30
0.000000
 11
12.804879
 21
2.324257
 31
0.000000
  0
ARC
  8
Default
 62
     5
  6
CONTINUOUS
 10
12.694419
 20
2.536345
 30
0.000000
 40
0.075000
 50
222.644841
 51
225.790086
  0
LINE
  8
Default
 62
     5
  6
CONTINUOUS
 10
12.458525
 20
2.681766
 30
0.000000
 11
12.639252
 21
2.485536
 31
0.000000
  0
ARC
  8
Default
 62
     5
  6
CONTINUOUS
 10
12.513693
 20
2.732575
 30
0.000000
 40
0.075000
 50
210.935658
 51
222.644841
  0
LINE
  8
Default
 62
     5
  6
CONTINUOUS
 10
12.380257
 20
2.697528
 30
0.000000
 11
12.449362
 21
2.694019
 31
0.000000
  0
ARC
  8
Default
 62
     5
  6
CONTINUOUS
 10
12.384059
 20
2.772431
 30
0.000000
 40
0.075000
 50
262.957177
 51
267.093645
  0
LINE
  8
Default
 62
     5
  6
CONTINUOUS
 10
12.371830
 20
2.698372
 30
0.000000
 11
12.374864
 21
2.697997
 31
0.000000
  0
ENDSEC
  0
EOF
