999
dxfrw 0.6.3
  0
SECTION
  2
HEADER
  9
$ACADVER
  1
AC1021
  9
$DWGCODEPAGE
  3
ANSI_1252
  9
$INSBASE
 10
0
 20
0
 30
0
  9
$EXTMIN
 10
1
 20
1
 30
0
  9
$EXTMAX
 10
404
 20
256
 30
0
  9
$LIMMIN
 10
0
 20
0
  9
$LIMMAX
 10
402.5
 20
277.5
  9
$ORTHOMODE
 70
    0
  9
$REGENMODE
 70
    1
  9
$FILLMODE
 70
    1
  9
$QTEXTMODE
 70
    0
  9
$MIRRTEXT
 70
    1
  9
$LTSCALE
 40
0.5
  9
$ATTMODE
 70
    1
  9
$TEXTSIZE
 40
2.5
  9
$TRACEWID
 40
1
  9
$TEXTSTYLE
  7
Standard
  9
$CLAYER
  8
Johdot
  9
$CELTYPE
  6
ByLayer
  9
$CECOLOR
 62
  256
  9
$CELTSCALE
 40
1
  9
$DISPSILH
 70
    0
  9
$DIMSCALE
 40
1
  9
$DIMASZ
 40
2.5
  9
$DIMEXO
 40
0.625
  9
$DIMDLI
 40
3.75
  9
$DIMRND
 40
0
  9
$DIMDLE
 40
0
  9
$DIMEXE
 40
1.25
  9
$DIMTP
 40
0
  9
$DIMTM
 40
0
  9
$DIMTXT
 40
2.5
  9
$DIMCEN
 40
2.5
  9
$DIMTSZ
 40
0
  9
$DIMTOL
 70
    0
  9
$DIMLIM
 70
    0
  9
$DIMTIH
 70
    0
  9
$DIMTOH
 70
    0
  9
$DIMSE1
 70
    0
  9
$DIMSE2
 70
    0
  9
$DIMTAD
 70
    1
  9
$DIMZIN
 70
    8
  9
$DIMBLK
  1

  9
$DIMASO
 70
    1
  9
$DIMSHO
 70
    1
  9
$DIMPOST
  1

  9
$DIMAPOST
  1

  9
$DIMALT
 70
    0
  9
$DIMALTD
 70
    3
  9
$DIMALTF
 40
0.03937007874016
  9
$DIMLFAC
 40
1
  9
$DIMTOFL
 70
    1
  9
$DIMTVP
 40
0
  9
$DIMTIX
 70
    0
  9
$DIMSOXD
 70
    0
  9
$DIMSAH
 70
    0
  9
$DIMBLK1
  1

  9
$DIMBLK2
  1

  9
$DIMSTYLE
  2
ISO-25
  9
$DIMCLRD
 70
    0
  9
$DIMCLRE
 70
    0
  9
$DIMCLRT
 70
    0
  9
$DIMTFAC
 40
1
  9
$DIMGAP
 40
0.625
  9
$DIMJUST
 70
    0
  9
$DIMSD1
 70
    0
  9
$DIMSD2
 70
    0
  9
$DIMTOLJ
 70
    0
  9
$DIMTZIN
 70
    8
  9
$DIMALTZ
 70
    0
  9
$DIMALTTZ
 70
    0
  9
$DIMUPT
 70
    0
  9
$DIMDEC
 70
    2
  9
$DIMTDEC
 70
    2
  9
$DIMALTU
 70
    2
  9
$DIMALTTD
 70
    3
  9
$DIMTXSTY
  7
Standard
  9
$DIMAUNIT
 70
    0
  9
$DIMADEC
 70
    0
  9
$DIMALTRND
 40
0
  9
$DIMAZIN
 70
    0
  9
$DIMDSEP
 70
   44
  9
$DIMATFIT
 70
    3
  9
$DIMFRAC
 70
    0
  9
$DIMLDRBLK
  1

  9
$DIMLUNIT
 70
    2
  9
$DIMLWD
 70
   -2
  9
$DIMLWE
 70
   -2
  9
$DIMTMOVE
 70
    0
  9
$DIMFXL
 40
1
  9
$DIMFXLON
 70
    0
  9
$DIMJOGANG
 40
0.7853981633974483
  9
$DIMTFILL
 70
    0
  9
$DIMTFILLCLR
 70
    0
  9
$DIMARCSYM
 70
    0
  9
$DIMLTYPE
  6

  9
$DIMLTEX1
  6

  9
$DIMLTEX2
  6

  9
$LUNITS
 70
    2
  9
$LUPREC
 70
    4
  9
$SKETCHINC
 40
1
  9
$FILLETRAD
 40
0
  9
$AUNITS
 70
    0
  9
$AUPREC
 70
    0
  9
$MENU
  1
.
  9
$ELEVATION
 40
0
  9
$PELEVATION
 40
0
  9
$THICKNESS
 40
0
  9
$LIMCHECK
 70
    0
  9
$CHAMFERA
 40
10
  9
$CHAMFERB
 40
10
  9
$CHAMFERC
 40
20
  9
$CHAMFERD
 40
0
  9
$SKPOLY
 70
    0
  9
$USRTIMER
 70
    1
  9
$ANGBASE
 50
0
  9
$ANGDIR
 70
    0
  9
$PDMODE
 70
    0
  9
$PDSIZE
 40
0
  9
$PLINEWID
 40
0
  9
$SPLFRAME
 70
    0
  9
$SPLINETYPE
 70
    6
  9
$SPLINESEGS
 70
    8
  9
$HANDSEED
  5
20000
  9
$SURFTAB1
 70
    6
  9
$SURFTAB2
 70
    6
  9
$SURFTYPE
 70
    6
  9
$SURFU
 70
    6
  9
$SURFV
 70
    6
  9
$UCSBASE
  2

  9
$UCSNAME
  2

  9
$UCSORG
 10
0
 20
0
 30
0
  9
$UCSXDIR
 10
1
 20
0
 30
0
  9
$UCSYDIR
 10
0
 20
1
 30
0
  9
$UCSORTHOREF
  2

  9
$UCSORTHOVIEW
 70
    0
  9
$UCSORGTOP
 10
0
 20
0
 30
0
  9
$UCSORGBOTTOM
 10
0
 20
0
 30
0
  9
$UCSORGLEFT
 10
0
 20
0
 30
0
  9
$UCSORGRIGHT
 10
0
 20
0
 30
0
  9
$UCSORGFRONT
 10
0
 20
0
 30
0
  9
$UCSORGBACK
 10
0
 20
0
 30
0
  9
$PUCSBASE
  2

  9
$PUCSNAME
  2

  9
$PUCSORG
 10
0
 20
0
 30
0
  9
$PUCSXDIR
 10
1
 20
0
 30
0
  9
$PUCSYDIR
 10
0
 20
1
 30
0
  9
$PUCSORTHOREF
  2

  9
$PUCSORTHOVIEW
 70
    0
  9
$PUCSORGTOP
 10
0
 20
0
 30
0
  9
$PUCSORGBOTTOM
 10
0
 20
0
 30
0
  9
$PUCSORGLEFT
 10
0
 20
0
 30
0
  9
$PUCSORGRIGHT
 10
0
 20
0
 30
0
  9
$PUCSORGFRONT
 10
0
 20
0
 30
0
  9
$PUCSORGBACK
 10
0
 20
0
 30
0
  9
$USERI1
 70
    0
  9
$USERI2
 70
    0
  9
$USERI3
 70
    0
  9
$USERI4
 70
    0
  9
$USERI5
 70
    0
  9
$USERR1
 40
0
  9
$USERR2
 40
0
  9
$USERR3
 40
0
  9
$USERR4
 40
0
  9
$USERR5
 40
0
  9
$WORLDVIEW
 70
    1
  9
$SHADEDGE
 70
    3
  9
$SHADEDIF
 70
   70
  9
$TILEMODE
 70
    1
  9
$MAXACTVP
 70
   64
  9
$PINSBASE
 10
0
 20
0
 30
0
  9
$PLIMCHECK
 70
    0
  9
$PEXTMIN
 10
1
 20
1
 30
0
  9
$PEXTMAX
 10
404
 20
256
 30
0
  9
$GRIDMODE
 70
    1
  9
$SNAPSTYLE
 70
    0
  9
$PLIMMIN
 10
-5.793749809265136
 20
-17.79375076293945
  9
$PLIMMAX
 10
414.2062501907348
 20
279.2062492370606
  9
$UNITMODE
 70
    0
  9
$VISRETAIN
 70
    1
  9
$PLINEGEN
 70
    0
  9
$PSLTSCALE
 70
    1
  9
$TREEDEPTH
 70
 3020
  9
$CMLSTYLE
  2
Standard
  9
$CMLJUST
 70
    0
  9
$CMLSCALE
 40
20
  9
$PROXYGRAPHICS
 70
    1
  9
$MEASUREMENT
 70
    1
  9
$CELWEIGHT
370
   -1
  9
$ENDCAPS
280
    0
  9
$JOINSTYLE
280
    0
  9
$LWDISPLAY
290
    0
  9
$INSUNITS
 70
    4
  9
$HYPERLINKBASE
  1

  9
$STYLESHEET
  1

  9
$XEDIT
290
    1
  9
$CEPSNTYPE
380
    0
  9
$PSTYLEMODE
290
    1
  9
$EXTNAMES
290
    1
  9
$PSVPSCALE
 40
0
  9
$OLESTARTUP
290
    0
  9
$SORTENTS
280
  127
  9
$INDEXCTL
280
    0
  9
$HIDETEXT
280
    0
  9
$XCLIPFRAME
290
    0
  9
$HALOGAP
280
    0
  9
$OBSCOLOR
 70
  257
  9
$OBSLTYPE
280
    0
  9
$INTERSECTIONDISPLAY
280
    0
  9
$INTERSECTIONCOLOR
 70
  257
  9
$DIMASSOC
280
    1
  9
$PROJECTNAME
  1

  9
$CAMERADISPLAY
290
    0
  9
$LENSLENGTH
 40
50
  9
$CAMERAHEIGHT
 40
0
  9
$STEPSPERSEC
 40
2
  9
$STEPSIZE
 40
6
  9
$3DDWFPREC
 40
2
  9
$PSOLWIDTH
 40
0.25
  9
$PSOLHEIGHT
 40
4
  9
$LOFTANG1
 40
1.570796326794896
  9
$LOFTANG2
 40
1.570796326794896
  9
$LOFTMAG1
 40
0
  9
$LOFTMAG2
 40
0
  9
$LOFTPARAM
 70
    7
  9
$LOFTNORMALS
280
    1
  9
$LATITUDE
 40
37.795
  9
$LONGITUDE
 40
-122.394
  9
$NORTHDIRECTION
 40
0
  9
$TIMEZONE
 70
-8000
  9
$LIGHTGLYPHDISPLAY
280
    1
  9
$TILEMODELIGHTSYNCH
280
    1
  9
$SOLIDHIST
280
    0
  9
$SHOWHIST
280
    1
  9
$DWFFRAME
280
    2
  9
$DGNFRAME
280
    0
  9
$REALWORLDSCALE
290
    1
  9
$INTERFERECOLOR
 62
    1
  9
$CSHADOW
280
    0
  9
$SHADOWPLANELOCATION
 40
0
  0
ENDSEC
  0
SECTION
  2
CLASSES
  0
ENDSEC
  0
SECTION
  2
TABLES
  0
TABLE
  2
VPORT
  5
8
330
0
100
AcDbSymbolTable
 70
    1
  0
VPORT
  5
31
330
2
100
AcDbSymbolTableRecord
100
AcDbViewportTableRecord
  2
*ACTIVE
 70
    0
 10
0
 20
0
 11
1
 21
1
 12
209.6387823497788
 22
189.2212877725026
 13
0
 23
0
 14
10
 24
10
 15
10
 25
10
 16
0
 26
0
 36
1
 17
0
 27
0
 37
0
 40
481.3927594698623
 41
0.9283154121863799
 42
50
 43
0
 44
0
 50
0
 51
0
 71
    0
 72
  100
 73
    1
 74
    3
 75
    0
 76
    1
 77
    0
 78
    0
281
    0
 65
    1
110
0
120
0
130
0
111
1
121
0
131
0
112
0
122
1
132
0
 79
    0
146
0
348
10020
 60
    7
 61
    5
292
1
282
    1
141
0
142
0
 63
  250
421
3358443
  0
ENDTAB
  0
TABLE
  2
LTYPE
  5
5
330
0
100
AcDbSymbolTable
 70
    4
  0
LTYPE
  5
14
330
5
100
AcDbSymbolTableRecord
100
AcDbLinetypeTableRecord
  2
ByBlock
 70
    0
  3

 72
   65
 73
    0
 40
0
  0
LTYPE
  5
15
330
5
100
AcDbSymbolTableRecord
100
AcDbLinetypeTableRecord
  2
ByLayer
 70
    0
  3

 72
   65
 73
    0
 40
0
  0
LTYPE
  5
16
330
5
100
AcDbSymbolTableRecord
100
AcDbLinetypeTableRecord
  2
Continuous
 70
    0
  3
Solid line
 72
   65
 73
    0
 40
0
  0
LTYPE
  5
32
330
5
100
AcDbSymbolTableRecord
100
AcDbLinetypeTableRecord
  2
DOT
 70
    0
  3
Dot . . . . . . . . . . . . . . . . . . . . . .
 72
   65
 73
    2
 40
6.35
 49
0
 74
    0
 49
-6.35
 74
    0
  0
LTYPE
  5
33
330
5
100
AcDbSymbolTableRecord
100
AcDbLinetypeTableRecord
  2
DOTTINY
 70
    0
  3
Dot (.15x) .....................................
 72
   65
 73
    2
 40
0.9525
 49
0
 74
    0
 49
-0.9525
 74
    0
  0
LTYPE
  5
34
330
5
100
AcDbSymbolTableRecord
100
AcDbLinetypeTableRecord
  2
DOT2
 70
    0
  3
Dot (.5x) .....................................
 72
   65
 73
    2
 40
3.175
 49
0
 74
    0
 49
-3.175
 74
    0
  0
LTYPE
  5
35
330
5
100
AcDbSymbolTableRecord
100
AcDbLinetypeTableRecord
  2
DOTX2
 70
    0
  3
Dot (2x) .  .  .  .  .  .  .  .  .  .  .  .  .
 72
   65
 73
    2
 40
12.7
 49
0
 74
    0
 49
-12.7
 74
    0
  0
LTYPE
  5
36
330
5
100
AcDbSymbolTableRecord
100
AcDbLinetypeTableRecord
  2
DASHED
 70
    0
  3
Dashed _ _ _ _ _ _ _ _ _ _ _ _ _ _ _ _ _
 72
   65
 73
    2
 40
19.05
 49
12.7
 74
    0
 49
-6.35
 74
    0
  0
LTYPE
  5
37
330
5
100
AcDbSymbolTableRecord
100
AcDbLinetypeTableRecord
  2
DASHEDTINY
 70
    0
  3
Dashed (.15x) _ _ _ _ _ _ _ _ _ _ _ _ _ _ _ _ _
 72
   65
 73
    2
 40
2.8575
 49
1.905
 74
    0
 49
-0.9525
 74
    0
  0
LTYPE
  5
38
330
5
100
AcDbSymbolTableRecord
100
AcDbLinetypeTableRecord
  2
DASHED2
 70
    0
  3
Dashed (.5x) _ _ _ _ _ _ _ _ _ _ _ _ _ _ _ _ _
 72
   65
 73
    2
 40
9.524999999999999
 49
6.35
 74
    0
 49
-3.175
 74
    0
  0
LTYPE
  5
39
330
5
100
AcDbSymbolTableRecord
100
AcDbLinetypeTableRecord
  2
DASHEDX2
 70
    0
  3
Dashed (2x) ____  ____  ____  ____  ____  ___
 72
   65
 73
    2
 40
38.09999999999999
 49
25.4
 74
    0
 49
-12.7
 74
    0
  0
LTYPE
  5
3A
330
5
100
AcDbSymbolTableRecord
100
AcDbLinetypeTableRecord
  2
DASHDOT
 70
    0
  3
Dash dot __ . __ . __ . __ . __ . __ . __ . __
 72
   65
 73
    4
 40
25.4
 49
12.7
 74
    0
 49
-6.35
 74
    0
 49
0
 74
    0
 49
-6.35
 74
    0
  0
LTYPE
  5
3B
330
5
100
AcDbSymbolTableRecord
100
AcDbLinetypeTableRecord
  2
DASHDOTTINY
 70
    0
  3
Dash dot (.15x) _._._._._._._._._._._._._._._.
 72
   65
 73
    4
 40
3.81
 49
1.905
 74
    0
 49
-0.9525
 74
    0
 49
0
 74
    0
 49
-0.9525
 74
    0
  0
LTYPE
  5
3C
330
5
100
AcDbSymbolTableRecord
100
AcDbLinetypeTableRecord
  2
DASHDOT2
 70
    0
  3
Dash dot (.5x) _._._._._._._._._._._._._._._.
 72
   65
 73
    4
 40
12.7
 49
6.35
 74
    0
 49
-3.175
 74
    0
 49
0
 74
    0
 49
-3.175
 74
    0
  0
LTYPE
  5
3D
330
5
100
AcDbSymbolTableRecord
100
AcDbLinetypeTableRecord
  2
DASHDOTX2
 70
    0
  3
Dash dot (2x) ____  .  ____  .  ____  .  ___
 72
   65
 73
    4
 40
50.8
 49
25.4
 74
    0
 49
-12.7
 74
    0
 49
0
 74
    0
 49
-12.7
 74
    0
  0
LTYPE
  5
3E
330
5
100
AcDbSymbolTableRecord
100
AcDbLinetypeTableRecord
  2
DIVIDE
 70
    0
  3
Divide ____ . . ____ . . ____ . . ____ . . ____
 72
   65
 73
    6
 40
31.75
 49
12.7
 74
    0
 49
-6.35
 74
    0
 49
0
 74
    0
 49
-6.35
 74
    0
 49
0
 74
    0
 49
-6.35
 74
    0
  0
LTYPE
  5
3F
330
5
100
AcDbSymbolTableRecord
100
AcDbLinetypeTableRecord
  2
DIVIDETINY
 70
    0
  3
Divide (.15x) __..__..__..__..__..__..__..__.._
 72
   65
 73
    6
 40
4.7625
 49
1.905
 74
    0
 49
-0.9525
 74
    0
 49
0
 74
    0
 49
-0.9525
 74
    0
 49
0
 74
    0
 49
-0.9525
 74
    0
  0
LTYPE
  5
40
330
5
100
AcDbSymbolTableRecord
100
AcDbLinetypeTableRecord
  2
DIVIDE2
 70
    0
  3
Divide (.5x) __..__..__..__..__..__..__..__.._
 72
   65
 73
    6
 40
15.875
 49
6.35
 74
    0
 49
-3.175
 74
    0
 49
0
 74
    0
 49
-3.175
 74
    0
 49
0
 74
    0
 49
-3.175
 74
    0
  0
LTYPE
  5
41
330
5
100
AcDbSymbolTableRecord
100
AcDbLinetypeTableRecord
  2
DIVIDEX2
 70
    0
  3
Divide (2x) ________  .  .  ________  .  .  _
 72
   65
 73
    6
 40
63.5
 49
25.4
 74
    0
 49
-12.7
 74
    0
 49
0
 74
    0
 49
-12.7
 74
    0
 49
0
 74
    0
 49
-12.7
 74
    0
  0
LTYPE
  5
42
330
5
100
AcDbSymbolTableRecord
100
AcDbLinetypeTableRecord
  2
BORDER
 70
    0
  3
Border __ __ . __ __ . __ __ . __ __ . __ __ .
 72
   65
 73
    6
 40
44.45
 49
12.7
 74
    0
 49
-6.35
 74
    0
 49
12.7
 74
    0
 49
-6.35
 74
    0
 49
0
 74
    0
 49
-6.35
 74
    0
  0
LTYPE
  5
43
330
5
100
AcDbSymbolTableRecord
100
AcDbLinetypeTableRecord
  2
BORDERTINY
 70
    0
  3
Border (.15x) __.__.__.__.__.__.__.__.__.__.__.
 72
   65
 73
    6
 40
6.6675
 49
1.905
 74
    0
 49
-0.9525
 74
    0
 49
1.905
 74
    0
 49
-0.9525
 74
    0
 49
0
 74
    0
 49
-0.9525
 74
    0
  0
LTYPE
  5
44
330
5
100
AcDbSymbolTableRecord
100
AcDbLinetypeTableRecord
  2
BORDER2
 70
    0
  3
Border (.5x) __.__.__.__.__.__.__.__.__.__.__.
 72
   65
 73
    6
 40
22.225
 49
6.35
 74
    0
 49
-3.175
 74
    0
 49
6.35
 74
    0
 49
-3.175
 74
    0
 49
0
 74
    0
 49
-3.175
 74
    0
  0
LTYPE
  5
45
330
5
100
AcDbSymbolTableRecord
100
AcDbLinetypeTableRecord
  2
BORDERX2
 70
    0
  3
Border (2x) ____  ____  .  ____  ____  .  ___
 72
   65
 73
    6
 40
88.89999999999999
 49
25.4
 74
    0
 49
-12.7
 74
    0
 49
25.4
 74
    0
 49
-12.7
 74
    0
 49
0
 74
    0
 49
-12.7
 74
    0
  0
LTYPE
  5
46
330
5
100
AcDbSymbolTableRecord
100
AcDbLinetypeTableRecord
  2
CENTER
 70
    0
  3
Center ____ _ ____ _ ____ _ ____ _ ____ _ ____
 72
   65
 73
    4
 40
50.8
 49
31.75
 74
    0
 49
-6.35
 74
    0
 49
6.35
 74
    0
 49
-6.35
 74
    0
  0
LTYPE
  5
47
330
5
100
AcDbSymbolTableRecord
100
AcDbLinetypeTableRecord
  2
CENTERTINY
 70
    0
  3
Center (.15x) ___ _ ___ _ ___ _ ___ _ ___ _ ___
 72
   65
 73
    4
 40
7.62
 49
4.7625
 74
    0
 49
-0.9525
 74
    0
 49
0.9525
 74
    0
 49
-0.9525
 74
    0
  0
LTYPE
  5
48
330
5
100
AcDbSymbolTableRecord
100
AcDbLinetypeTableRecord
  2
CENTER2
 70
    0
  3
Center (.5x) ___ _ ___ _ ___ _ ___ _ ___ _ ___
 72
   65
 73
    4
 40
28.575
 49
19.05
 74
    0
 49
-3.175
 74
    0
 49
3.175
 74
    0
 49
-3.175
 74
    0
  0
LTYPE
  5
49
330
5
100
AcDbSymbolTableRecord
100
AcDbLinetypeTableRecord
  2
CENTERX2
 70
    0
  3
Center (2x) ________  __  ________  __  _____
 72
   65
 73
    4
 40
101.6
 49
63.5
 74
    0
 49
-12.7
 74
    0
 49
12.7
 74
    0
 49
-12.7
 74
    0
  0
ENDTAB
  0
TABLE
  2
LAYER
  5
2
330
0
100
AcDbSymbolTable
 70
    1
  0
LAYER
  5
10
330
2
100
AcDbSymbolTableRecord
100
AcDbLayerTableRecord
  2
0
 70
    0
 62
    7
  6
CONTINUOUS
370
   -3
390
F
  0
LAYER
  5
4A
330
2
100
AcDbSymbolTableRecord
100
AcDbLayerTableRecord
  2
Johdot
 70
    0
 62
    1
  6
CONTINUOUS
370
   30
390
F
  0
LAYER
  5
4B
330
2
100
AcDbSymbolTableRecord
100
AcDbLayerTableRecord
  2
Näyttöikkunat
 70
    0
 62
    9
  6
CONTINUOUS
290
0
370
   -3
390
F
  0
LAYER
  5
4C
330
2
100
AcDbSymbolTableRecord
100
AcDbLayerTableRecord
  2
Raami
 70
    0
 62
    8
  6
CONTINUOUS
370
   50
390
F
  0
LAYER
  5
4D
330
2
100
AcDbSymbolTableRecord
100
AcDbLayerTableRecord
  2
Raami-025
 70
    0
 62
    1
  6
CONTINUOUS
370
   25
390
F
  0
LAYER
  5
4E
330
2
100
AcDbSymbolTableRecord
100
AcDbLayerTableRecord
  2
Raami-035
 70
    0
 62
    2
  6
CONTINUOUS
370
   35
390
F
  0
LAYER
  5
4F
330
2
100
AcDbSymbolTableRecord
100
AcDbLayerTableRecord
  2
Raami-050
 70
    0
 62
    7
  6
CONTINUOUS
370
   50
390
F
  0
LAYER
  5
50
330
2
100
AcDbSymbolTableRecord
100
AcDbLayerTableRecord
  2
Symbolit
 70
    0
 62
    1
  6
CONTINUOUS
370
   30
390
F
  0
ENDTAB
  0
TABLE
  2
STYLE
  5
3
330
0
100
AcDbSymbolTable
 70
    3
  0
STYLE
  5
51
330
2
100
AcDbSymbolTableRecord
100
AcDbTextStyleTableRecord
  2
standard
 70
    0
 40
0
 41
1
 50
0
 71
    0
 42
1
  3
standard
  4

  0
STYLE
  5
52
330
2
100
AcDbSymbolTableRecord
100
AcDbTextStyleTableRecord
  2
huonetekstit
 70
    0
 40
0
 41
1
 50
0
 71
    0
 42
1
  3
huonetekstit
  4

  0
STYLE
  5
53
330
2
100
AcDbSymbolTableRecord
100
AcDbTextStyleTableRecord
  2
acisots
 70
    0
 40
0
 41
1
 50
0
 71
    0
 42
1
  3
acisots
  4

  0
ENDTAB
  0
TABLE
  2
VIEW
  5
6
330
0
100
AcDbSymbolTable
 70
    0
  0
ENDTAB
  0
TABLE
  2
UCS
  5
7
330
0
100
AcDbSymbolTable
 70
    0
  0
ENDTAB
  0
TABLE
  2
APPID
  5
9
330
0
100
AcDbSymbolTable
 70
    1
  0
APPID
  5
12
330
9
100
AcDbSymbolTableRecord
100
AcDbRegAppTableRecord
  2
ACAD
 70
    0
  0
APPID
  5
54
330
9
100
AcDbSymbolTableRecord
100
AcDbRegAppTableRecord
  2
LibreCad
 70
    0
  0
ENDTAB
  0
TABLE
  2
DIMSTYLE
  5
A
330
0
100
AcDbSymbolTable
 70
    1
100
AcDbDimStyleTable
 71
    1
  0
DIMSTYLE
105
55
330
A
100
AcDbSymbolTableRecord
100
AcDbDimStyleTableRecord
  2
Standard
 70
    0
 40
1
 41
2.5
 42
0.625
 43
0.38
 44
1.25
 45
0
 46
0
 47
0
 48
0
 49
1
140
2.5
141
0.09
142
0
143
25.4
144
1
145
0
146
1
147
0.625
148
0
 71
    0
 72
    0
 73
    0
 74
    1
 75
    0
 76
    0
 77
    0
 78
    8
 79
    0
170
    0
171
    2
172
    0
173
    0
174
    0
175
    0
176
    0
177
    0
178
    0
179
    0
271
    2
272
    4
273
    2
274
    2
275
    0
276
    0
277
    2
278
   44
279
    0
280
    0
281
    0
282
    0
283
    1
284
    0
285
    0
286
    0
288
    0
289
    3
340
Standard
341

371
   -2
372
   -2
  0
ENDTAB
  0
TABLE
  2
BLOCK_RECORD
  5
1
330
0
100
AcDbSymbolTable
 70
    2
  0
BLOCK_RECORD
  5
1F
330
1
100
AcDbSymbolTableRecord
100
AcDbBlockTableRecord
  2
*Model_Space
 70
    0
280
    1
281
    0
  0
BLOCK_RECORD
  5
1E
330
1
100
AcDbSymbolTableRecord
100
AcDbBlockTableRecord
  2
*Paper_Space
 70
    0
280
    1
281
    0
  0
BLOCK_RECORD
  5
56
330
1
100
AcDbSymbolTableRecord
100
AcDbBlockTableRecord
  2
vastus
 70
    0
280
    1
281
    0
  0
BLOCK_RECORD
  5
59
330
1
100
AcDbSymbolTableRecord
100
AcDbBlockTableRecord
  2
nand
 70
    0
280
    1
281
    0
  0
BLOCK_RECORD
  5
5C
330
1
100
AcDbSymbolTableRecord
100
AcDbBlockTableRecord
  2
loistediodi
 70
    0
280
    1
281
    0
  0
BLOCK_RECORD
  5
5F
330
1
100
AcDbSymbolTableRecord
100
AcDbBlockTableRecord
  2
transistori
 70
    0
280
    1
281
    0
  0
BLOCK_RECORD
  5
62
330
1
100
AcDbSymbolTableRecord
100
AcDbBlockTableRecord
  2
vahvistin
 70
    0
280
    1
281
    0
  0
BLOCK_RECORD
  5
65
330
1
100
AcDbSymbolTableRecord
100
AcDbBlockTableRecord
  2
diodi
 70
    0
280
    1
281
    0
  0
BLOCK_RECORD
  5
68
330
1
100
AcDbSymbolTableRecord
100
AcDbBlockTableRecord
  2
sulkukosketin
 70
    0
280
    1
281
    0
  0
BLOCK_RECORD
  5
6B
330
1
100
AcDbSymbolTableRecord
100
AcDbBlockTableRecord
  2
Raami-A3
 70
    0
280
    1
281
    0
  0
ENDTAB
  0
ENDSEC
  0
SECTION
  2
BLOCKS
  0
BLOCK
  5
20
330
1F
100
AcDbEntity
  8
0
100
AcDbBlockBegin
  2
*Model_Space
 70
    0
 10
0
 20
0
 30
0
  3
*Model_Space
  1

  0
ENDBLK
  5
21
330
1F
100
AcDbEntity
  8
0
100
AcDbBlockEnd
  0
BLOCK
  5
1C
330
1B
100
AcDbEntity
  8
0
100
AcDbBlockBegin
  2
*Paper_Space
 70
    0
 10
0
 20
0
 30
0
  3
*Paper_Space
  1

  0
ENDBLK
  5
1D
330
1F
100
AcDbEntity
  8
0
100
AcDbBlockEnd
  0
BLOCK
  5
57
330
56
100
AcDbEntity
  8
0
100
AcDbBlockBegin
  2
vastus
 70
    0
 10
0
 20
0
  3
vastus
  1

  0
LWPOLYLINE
  5
6E
100
AcDbEntity
  8
Symbolit
  6
ByLayer
 62
  256
370
   -1
100
AcDbPolyline
 90
    4
 70
    1
 43
0
 10
1.25
 20
-1.25
 10
8.75
 20
-1.25
 10
8.75
 20
1.25
 10
1.25
 20
1.25
  0
LINE
  5
6F
100
AcDbEntity
  8
Symbolit
  6
ByLayer
 62
  256
370
   -1
100
AcDbLine
 10
1.25
 20
0
 11
0
 21
0
  0
LINE
  5
70
100
AcDbEntity
  8
Symbolit
  6
ByLayer
 62
  256
370
   -1
100
AcDbLine
 10
8.75
 20
0
 11
10
 21
0
  0
ENDBLK
  5
58
330
56
100
AcDbEntity
  8
0
100
AcDbBlockEnd
  0
BLOCK
  5
5A
330
59
100
AcDbEntity
  8
0
100
AcDbBlockBegin
  2
nand
 70
    0
 10
0
 20
0
  3
nand
  1

  0
TEXT
  5
71
100
AcDbEntity
  8
Symbolit
  6
ByLayer
 62
  256
370
   -1
100
AcDbText
 10
-8.75
 20
0
 30
0
 40
4
  1
&
 50
0
 41
1
 51
0
  7
standard
 71
    0
210
0
220
0
230
1
100
AcDbText
  0
LINE
  5
72
100
AcDbEntity
  8
Symbolit
  6
ByLayer
 62
  256
370
   -1
100
AcDbLine
 10
-12.5
 20
-6.25
 11
-2.5
 21
-6.25
  0
LINE
  5
73
100
AcDbEntity
  8
Symbolit
  6
ByLayer
 62
  256
370
   -1
100
AcDbLine
 10
-2.5
 20
6.25
 11
-12.5
 21
6.25
  0
LINE
  5
74
100
AcDbEntity
  8
Symbolit
  6
ByLayer
 62
  256
370
   -1
100
AcDbLine
 10
-12.5
 20
6.25
 11
-12.5
 21
-6.25
  0
LINE
  5
75
100
AcDbEntity
  8
Symbolit
  6
ByLayer
 62
  256
370
   -1
100
AcDbLine
 10
-2.5
 20
-6.25
 11
-2.5
 21
6.25
  0
CIRCLE
  5
76
100
AcDbEntity
  8
Symbolit
  6
ByLayer
 62
  256
370
   -1
100
AcDbCircle
 10
-1.25
 20
0
 40
1.25
  0
ENDBLK
  5
5B
330
59
100
AcDbEntity
  8
0
100
AcDbBlockEnd
  0
BLOCK
  5
5D
330
5C
100
AcDbEntity
  8
0
100
AcDbBlockBegin
  2
loistediodi
 70
    0
 10
0
 20
0
  3
loistediodi
  1

  0
LINE
  5
77
100
AcDbEntity
  8
Symbolit
  6
ByLayer
 62
  256
370
   -1
100
AcDbLine
 10
0
 20
0
 11
10
 21
0
  0
LINE
  5
78
100
AcDbEntity
  8
Symbolit
  6
ByLayer
 62
  256
370
   -1
100
AcDbLine
 10
2.5
 20
-2.5
 11
7.5
 21
0
  0
LINE
  5
79
100
AcDbEntity
  8
Symbolit
  6
ByLayer
 62
  256
370
   -1
100
AcDbLine
 10
7.5
 20
0
 11
2.5
 21
2.5
  0
LINE
  5
7A
100
AcDbEntity
  8
Symbolit
  6
ByLayer
 62
  256
370
   -1
100
AcDbLine
 10
2.5
 20
2.5
 11
2.5
 21
-2.5
  0
LINE
  5
7B
100
AcDbEntity
  8
Symbolit
  6
ByLayer
 62
  256
370
   -1
100
AcDbLine
 10
5.659753447968029
 20
2.400806910797285
 11
7.593054821758755
 21
4.176467576042426
  0
LINE
  5
7C
100
AcDbEntity
  8
Symbolit
  6
ByLayer
 62
  256
370
   -1
100
AcDbLine
 10
9.813329309371539
 20
1.742237821571222
 11
10.38822123167537
 21
2.779421160075003
  0
LINE
  5
7D
100
AcDbEntity
  8
Symbolit
  6
ByLayer
 62
  256
370
   -1
100
AcDbLine
 10
10.38822123167537
 20
2.779421160075003
 11
9.305997690730067
 21
2.294609642654336
  0
SOLID
  5
7E
100
AcDbEntity
  8
Symbolit
  6
ByLayer
 62
  256
370
   -1
100
AcDbTrace
 10
9.813329309371568
 20
1.742237821571251
 30
0
 11
9.305997690730093
 21
2.294609642654307
 31
0
 12
10.3882212316754
 22
2.779421160074974
 32
0
 13
10.3882212316754
 23
2.779421160074974
 33
0
  0
LINE
  5
7F
100
AcDbEntity
  8
Symbolit
  6
ByLayer
 62
  256
370
   -1
100
AcDbLine
 10
9.305997690730067
 20
2.294609642654336
 11
9.813329309371539
 21
1.742237821571222
  0
LINE
  5
80
100
AcDbEntity
  8
Symbolit
  6
ByLayer
 62
  256
370
   -1
100
AcDbLine
 10
7.5
 20
-2.5
 11
7.5
 21
2.5
  0
LINE
  5
81
100
AcDbEntity
  8
Symbolit
  6
ByLayer
 62
  256
370
   -1
100
AcDbLine
 10
8.454919857884647
 20
1.003760494829862
 11
10.38822123167537
 21
2.779421160075003
  0
LINE
  5
82
100
AcDbEntity
  8
Symbolit
  6
ByLayer
 62
  256
370
   -1
100
AcDbLine
 10
7.593054821758755
 20
4.176467576042426
 11
6.510831280813448
 21
3.691656058621759
  0
SOLID
  5
83
100
AcDbEntity
  8
Symbolit
  6
ByLayer
 62
  256
370
   -1
100
AcDbTrace
 10
7.018162899454949
 20
3.139284237538674
 30
0
 11
6.510831280813476
 21
3.691656058621731
 31
0
 12
7.593054821758784
 22
4.176467576042398
 32
0
 13
7.593054821758784
 23
4.176467576042398
 33
0
  0
LINE
  5
84
100
AcDbEntity
  8
Symbolit
  6
ByLayer
 62
  256
370
   -1
100
AcDbLine
 10
6.510831280813448
 20
3.691656058621759
 11
7.018162899454921
 21
3.139284237538646
  0
LINE
  5
85
100
AcDbEntity
  8
Symbolit
  6
ByLayer
 62
  256
370
   -1
100
AcDbLine
 10
7.018162899454921
 20
3.139284237538646
 11
7.593054821758755
 21
4.176467576042426
  0
ENDBLK
  5
5E
330
5C
100
AcDbEntity
  8
0
100
AcDbBlockEnd
  0
BLOCK
  5
60
330
5F
100
AcDbEntity
  8
0
100
AcDbBlockBegin
  2
transistori
 70
    0
 10
0
 20
0
  3
transistori
  1

  0
LINE
  5
86
100
AcDbEntity
  8
Symbolit
  6
ByLayer
 62
  256
370
   -1
100
AcDbLine
 10
-1.25
 20
7.5
 11
-5
 21
12.5
  0
CIRCLE
  5
87
100
AcDbEntity
  8
Symbolit
  6
ByLayer
 62
  256
370
   -1
100
AcDbCircle
 10
0
 20
7.5
 40
5.625
  0
LINE
  5
88
100
AcDbEntity
  8
Symbolit
  6
ByLayer
 62
  256
370
   -1
100
AcDbLine
 10
1.25
 20
7.5
 11
5
 21
12.5
  0
LINE
  5
89
100
AcDbEntity
  8
Symbolit
  6
ByLayer
 62
  256
370
   -1
100
AcDbLine
 10
0
 20
7.5
 11
0
 21
0
  0
LINE
  5
8A
100
AcDbEntity
  8
Symbolit
  6
ByLayer
 62
  256
370
   -1
100
AcDbLine
 10
-2.5
 20
7.5
 11
2.5
 21
7.5
  0
LINE
  5
8B
100
AcDbEntity
  8
Symbolit
  6
ByLayer
 62
  256
370
   -1
100
AcDbLine
 10
3.536914586763657
 20
10.54921944901821
 11
3.408582220849098
 21
9.26323998231112
  0
LINE
  5
8C
100
AcDbEntity
  8
Symbolit
  6
ByLayer
 62
  256
370
   -1
100
AcDbLine
 10
3.536914586763657
 20
10.54921944901821
 11
2.338307361180937
 21
10.06594612706226
  0
ENDBLK
  5
61
330
5F
100
AcDbEntity
  8
0
100
AcDbBlockEnd
  0
BLOCK
  5
63
330
62
100
AcDbEntity
  8
0
100
AcDbBlockBegin
  2
vahvistin
 70
    0
 10
0
 20
0
  3
vahvistin
  1

  0
LINE
  5
8D
100
AcDbEntity
  8
Symbolit
  6
ByLayer
 62
  256
370
   -1
100
AcDbLine
 10
-17.5
 20
5
 11
-20
 21
5
  0
LINE
  5
8E
100
AcDbEntity
  8
Symbolit
  6
ByLayer
 62
  256
370
   -1
100
AcDbLine
 10
-17.5
 20
-5
 11
-20
 21
-5
  0
LINE
  5
8F
100
AcDbEntity
  8
Symbolit
  6
ByLayer
 62
  256
370
   -1
100
AcDbLine
 10
0
 20
0
 11
-17.5
 21
10
  0
LINE
  5
90
100
AcDbEntity
  8
Symbolit
  6
ByLayer
 62
  256
370
   -1
100
AcDbLine
 10
-17.5
 20
10
 11
-17.5
 21
-10
  0
LINE
  5
91
100
AcDbEntity
  8
Symbolit
  6
ByLayer
 62
  256
370
   -1
100
AcDbLine
 10
-17.5
 20
-10
 11
0
 21
0
  0
LINE
  5
92
100
AcDbEntity
  8
Symbolit
  6
ByLayer
 62
  256
370
   -1
100
AcDbLine
 10
-16.25
 20
-5
 11
-13.75
 21
-5
  0
LINE
  5
93
100
AcDbEntity
  8
Symbolit
  6
ByLayer
 62
  256
370
   -1
100
AcDbLine
 10
-16.25
 20
5
 11
-13.75
 21
5
  0
LINE
  5
94
100
AcDbEntity
  8
Symbolit
  6
ByLayer
 62
  256
370
   -1
100
AcDbLine
 10
-15
 20
6.25
 11
-15
 21
3.75
  0
ENDBLK
  5
64
330
62
100
AcDbEntity
  8
0
100
AcDbBlockEnd
  0
BLOCK
  5
66
330
65
100
AcDbEntity
  8
0
100
AcDbBlockBegin
  2
diodi
 70
    0
 10
0
 20
0
  3
diodi
  1

  0
LINE
  5
95
100
AcDbEntity
  8
Symbolit
  6
ByLayer
 62
  256
370
   -1
100
AcDbLine
 10
0
 20
0
 11
10
 21
0
  0
LINE
  5
96
100
AcDbEntity
  8
Symbolit
  6
ByLayer
 62
  256
370
   -1
100
AcDbLine
 10
2.5
 20
-2.5
 11
7.5
 21
0
  0
LINE
  5
97
100
AcDbEntity
  8
Symbolit
  6
ByLayer
 62
  256
370
   -1
100
AcDbLine
 10
7.5
 20
0
 11
2.5
 21
2.5
  0
LINE
  5
98
100
AcDbEntity
  8
Symbolit
  6
ByLayer
 62
  256
370
   -1
100
AcDbLine
 10
2.5
 20
2.5
 11
2.5
 21
-2.5
  0
LINE
  5
99
100
AcDbEntity
  8
Symbolit
  6
ByLayer
 62
  256
370
   -1
100
AcDbLine
 10
7.5
 20
-2.5
 11
7.5
 21
2.5
  0
ENDBLK
  5
67
330
65
100
AcDbEntity
  8
0
100
AcDbBlockEnd
  0
BLOCK
  5
69
330
68
100
AcDbEntity
  8
0
100
AcDbBlockBegin
  2
sulkukosketin
 70
    0
 10
0
 20
0
  3
sulkukosketin
  1

  0
LINE
  5
9A
100
AcDbEntity
  8
Symbolit
  6
ByLayer
 62
  256
370
   -1
100
AcDbLine
 10
0
 20
10
 11
0
 21
15
  0
LINE
  5
9B
100
AcDbEntity
  8
Symbolit
  6
ByLayer
 62
  256
370
   -1
100
AcDbLine
 10
0
 20
0
 11
0
 21
5
  0
LINE
  5
9C
100
AcDbEntity
  8
Symbolit
  6
ByLayer
 62
  256
370
   -1
100
AcDbLine
 10
0
 20
5
 11
-3.75
 21
10
  0
ENDBLK
  5
6A
330
68
100
AcDbEntity
  8
0
100
AcDbBlockEnd
  0
BLOCK
  5
6C
330
6B
100
AcDbEntity
  8
0
100
AcDbBlockBegin
  2
Raami-A3
 70
    0
 10
0
 20
0
  3
Raami-A3
  1

  0
LINE
  5
9D
100
AcDbEntity
  8
Raami-035
  6
ByLayer
 62
  256
370
   -1
100
AcDbLine
 10
146.6053667456046
 20
0.0959466711508022
 11
246.6053667456046
 21
0.0959466711508022
  0
LINE
  5
9E
100
AcDbEntity
  8
Raami-050
  6
ByLayer
 62
  256
370
   -1
100
AcDbLine
 10
5
 20
5
 11
396.6053667456047
 21
5
  0
LINE
  5
9F
100
AcDbEntity
  8
Raami-050
  6
ByLayer
 62
  256
370
   -1
100
AcDbLine
 10
396.6053667456046
 20
272
 11
5
 21
272
  0
LINE
  5
A0
100
AcDbEntity
  8
Raami-050
  6
ByLayer
 62
  256
370
   -1
100
AcDbLine
 10
5
 20
272
 11
5
 21
5
  0
TEXT
  5
A1
100
AcDbEntity
  8
Raami-025
  6
ByLayer
 62
  256
370
   -1
100
AcDbText
 10
2.5
 20
28.5
 30
0
 40
4
  1
F
 50
0
 41
1
 51
0
  7
acisots
 71
    0
 72
    4
 11
2.5
 21
28.5
 31
0
210
0
220
0
230
1
100
AcDbText
  0
LINE
  5
A2
100
AcDbEntity
  8
Raami-025
  6
ByLayer
 62
  256
370
   -1
100
AcDbLine
 10
5
 20
51.5
 11
0
 21
51.5
  0
TEXT
  5
A3
100
AcDbEntity
  8
Raami-025
  6
ByLayer
 62
  256
370
   -1
100
AcDbText
 10
24.60536674560464
 20
3.295946671150801
 30
0
 40
4
  1
1
 50
0
 41
1
 51
0
  7
acisots
 71
    0
 72
    4
 11
24.60536674560464
 21
3.295946671150801
 31
0
210
0
220
0
230
1
100
AcDbText
  0
LINE
  5
A4
100
AcDbEntity
  8
Raami-025
  6
ByLayer
 62
  256
370
   -1
100
AcDbLine
 10
46.60536674560467
 20
0
 11
46.60536674560467
 21
5
  0
TEXT
  5
A5
100
AcDbEntity
  8
Raami-025
  6
ByLayer
 62
  256
370
   -1
100
AcDbText
 10
71.60536674560464
 20
2.295946671150801
 30
0
 40
4
  1
2
 50
0
 41
1
 51
0
  7
acisots
 71
    0
 72
    4
 11
71.60536674560464
 21
2.295946671150801
 31
0
210
0
220
0
230
1
100
AcDbText
  0
TEXT
  5
A6
100
AcDbEntity
  8
Raami-025
  6
ByLayer
 62
  256
370
   -1
100
AcDbText
 10
2.5
 20
74.5
 30
0
 40
4
  1
E
 50
0
 41
1
 51
0
  7
acisots
 71
    0
 72
    4
 11
2.5
 21
74.5
 31
0
210
0
220
0
230
1
100
AcDbText
  0
LINE
  5
A7
100
AcDbEntity
  8
Raami-025
  6
ByLayer
 62
  256
370
   -1
100
AcDbLine
 10
5
 20
97.5
 11
0
 21
97.5
  0
TEXT
  5
A8
100
AcDbEntity
  8
Raami-025
  6
ByLayer
 62
  256
370
   -1
100
AcDbText
 10
2.5
 20
120.5
 30
0
 40
4
  1
D
 50
0
 41
1
 51
0
  7
acisots
 71
    0
 72
    4
 11
2.5
 21
120.5
 31
0
210
0
220
0
230
1
100
AcDbText
  0
LINE
  5
A9
100
AcDbEntity
  8
Raami-025
  6
ByLayer
 62
  256
370
   -1
100
AcDbLine
 10
96.60536674560464
 20
0
 11
96.60536674560464
 21
5
  0
TEXT
  5
AA
100
AcDbEntity
  8
Raami-025
  6
ByLayer
 62
  256
370
   -1
100
AcDbText
 10
121.6053667456046
 20
2.295946671150801
 30
0
 40
4
  1
3
 50
0
 41
1
 51
0
  7
acisots
 71
    0
 72
    4
 11
121.6053667456046
 21
2.295946671150801
 31
0
210
0
220
0
230
1
100
AcDbText
  0
LINE
  5
AB
100
AcDbEntity
  8
Raami-035
  6
ByLayer
 62
  256
370
   -1
100
AcDbLine
 10
196.6053667456046
 20
0.0959466711508022
 11
196.6053667456046
 21
9.795946671150801
  0
LINE
  5
AC
100
AcDbEntity
  8
Raami-035
  6
ByLayer
 62
  256
370
   -1
100
AcDbLine
 10
146.6053667456046
 20
0.0959466711508022
 11
146.6053667456046
 21
4.795946671150801
  0
LINE
  5
AD
100
AcDbEntity
  8
Raami-035
  6
ByLayer
 62
  256
370
   -1
100
AcDbLine
 10
156.6053667456046
 20
0.0959466711508022
 11
156.6053667456046
 21
4.795946671150801
  0
LINE
  5
AE
100
AcDbEntity
  8
Raami-035
  6
ByLayer
 62
  256
370
   -1
100
AcDbLine
 10
166.6053667456046
 20
0.0959466711508022
 11
166.6053667456046
 21
4.795946671150801
  0
LINE
  5
AF
100
AcDbEntity
  8
Raami-035
  6
ByLayer
 62
  256
370
   -1
100
AcDbLine
 10
176.6053667456046
 20
0.0959466711508022
 11
176.6053667456046
 21
4.795946671150801
  0
LINE
  5
B0
100
AcDbEntity
  8
Raami-035
  6
ByLayer
 62
  256
370
   -1
100
AcDbLine
 10
186.6053667456046
 20
0.0959466711508022
 11
186.6053667456046
 21
4.795946671150801
  0
LINE
  5
B1
100
AcDbEntity
  8
Raami-025
  6
ByLayer
 62
  256
370
   -1
100
AcDbLine
 10
199.1053667456046
 20
7.295946671150801
 11
196.6053667456046
 21
2.295946671150801
  0
LINE
  5
B2
100
AcDbEntity
  8
Raami-025
  6
ByLayer
 62
  256
370
   -1
100
AcDbLine
 10
196.6053667456046
 20
2.295946671150801
 11
194.1053667456046
 21
7.295946671150801
  0
LINE
  5
B3
100
AcDbEntity
  8
Raami-025
  6
ByLayer
 62
  256
370
   -1
100
AcDbLine
 10
194.1053667456046
 20
7.295946671150801
 11
199.1053667456046
 21
7.295946671150801
  0
LINE
  5
B4
100
AcDbEntity
  8
Raami-035
  6
ByLayer
 62
  256
370
   -1
100
AcDbLine
 10
0
 20
143.5
 11
10
 21
143.5
  0
LINE
  5
B5
100
AcDbEntity
  8
Raami-025
  6
ByLayer
 62
  256
370
   -1
100
AcDbLine
 10
7.5
 20
141
 11
2.5
 21
143.5
  0
LINE
  5
B6
100
AcDbEntity
  8
Raami-025
  6
ByLayer
 62
  256
370
   -1
100
AcDbLine
 10
2.5
 20
143.5
 11
7.5
 21
146
  0
LINE
  5
B7
100
AcDbEntity
  8
Raami-025
  6
ByLayer
 62
  256
370
   -1
100
AcDbLine
 10
7.5
 20
146
 11
7.5
 21
141
  0
TEXT
  5
B8
100
AcDbEntity
  8
Raami-025
  6
ByLayer
 62
  256
370
   -1
100
AcDbText
 10
2.5
 20
166.5
 30
0
 40
4
  1
C
 50
0
 41
1
 51
0
  7
acisots
 71
    0
 72
    4
 11
2.5
 21
166.5
 31
0
210
0
220
0
230
1
100
AcDbText
  0
LINE
  5
B9
100
AcDbEntity
  8
Raami-025
  6
ByLayer
 62
  256
370
   -1
100
AcDbLine
 10
5
 20
189.5
 11
0
 21
189.5
  0
TEXT
  5
BA
100
AcDbEntity
  8
Raami-025
  6
ByLayer
 62
  256
370
   -1
100
AcDbText
 10
2.5
 20
212.5
 30
0
 40
4
  1
B
 50
0
 41
1
 51
0
  7
acisots
 71
    0
 72
    4
 11
2.5
 21
212.5
 31
0
210
0
220
0
230
1
100
AcDbText
  0
LINE
  5
BB
100
AcDbEntity
  8
Raami-025
  6
ByLayer
 62
  256
370
   -1
100
AcDbLine
 10
5
 20
235.5
 11
0
 21
235.5
  0
TEXT
  5
BC
100
AcDbEntity
  8
Raami-025
  6
ByLayer
 62
  256
370
   -1
100
AcDbText
 10
2.5
 20
254.5
 30
0
 40
4
  1
A
 50
0
 41
1
 51
0
  7
acisots
 71
    0
 72
    4
 11
2.5
 21
254.5
 31
0
210
0
220
0
230
1
100
AcDbText
  0
TEXT
  5
BD
100
AcDbEntity
  8
Raami-025
  6
ByLayer
 62
  256
370
   -1
100
AcDbText
 10
24.60536674560464
 20
274.5061153931152
 30
0
 40
4
  1
1
 50
0
 41
1
 51
0
  7
acisots
 71
    0
 72
    4
 11
24.60536674560464
 21
274.5061153931152
 31
0
210
0
220
0
230
1
100
AcDbText
  0
LINE
  5
BE
100
AcDbEntity
  8
Raami-025
  6
ByLayer
 62
  256
370
   -1
100
AcDbLine
 10
46.60536674560467
 20
277
 11
46.60536674560467
 21
272
  0
TEXT
  5
BF
100
AcDbEntity
  8
Raami-025
  6
ByLayer
 62
  256
370
   -1
100
AcDbText
 10
71.60536674560464
 20
274.5756095412624
 30
0
 40
4
  1
2
 50
0
 41
1
 51
0
  7
acisots
 71
    0
 72
    4
 11
71.60536674560464
 21
274.5756095412624
 31
0
210
0
220
0
230
1
100
AcDbText
  0
LINE
  5
C0
100
AcDbEntity
  8
Raami-025
  6
ByLayer
 62
  256
370
   -1
100
AcDbLine
 10
96.60536674560464
 20
277
 11
96.60536674560464
 21
272
  0
TEXT
  5
C1
100
AcDbEntity
  8
Raami-025
  6
ByLayer
 62
  256
370
   -1
100
AcDbText
 10
121.6053667456046
 20
274.5756095412624
 30
0
 40
4
  1
3
 50
0
 41
1
 51
0
  7
acisots
 71
    0
 72
    4
 11
121.6053667456046
 21
274.5756095412624
 31
0
210
0
220
0
230
1
100
AcDbText
  0
LINE
  5
C2
100
AcDbEntity
  8
Raami-035
  6
ByLayer
 62
  256
370
   -1
100
AcDbLine
 10
196.6053667456046
 20
276.9040533288492
 11
196.6053667456046
 21
267.2040533288492
  0
LINE
  5
C3
100
AcDbEntity
  8
Raami-025
  6
ByLayer
 62
  256
370
   -1
100
AcDbLine
 10
146.6053667456046
 20
277
 11
146.6053667456046
 21
272
  0
TEXT
  5
C4
100
AcDbEntity
  8
Raami-025
  6
ByLayer
 62
  256
370
   -1
100
AcDbText
 10
171.6053667456046
 20
274.5756095412624
 30
0
 40
4
  1
4
 50
0
 41
1
 51
0
  7
acisots
 71
    0
 72
    4
 11
171.6053667456046
 21
274.5756095412624
 31
0
210
0
220
0
230
1
100
AcDbText
  0
LINE
  5
C5
100
AcDbEntity
  8
Raami-050
  6
ByLayer
 62
  256
370
   -1
100
AcDbLine
 10
396.6053667456047
 20
5
 11
396.6053667456046
 21
272
  0
LWPOLYLINE
  5
C6
100
AcDbEntity
  8
Raami-050
  6
ByLayer
 62
  256
370
   -1
100
AcDbPolyline
 90
    4
 70
    1
 43
0
 10
396.6053667456047
 20
5
 10
396.6053667456047
 20
55.00000000000023
 10
231.6053667456047
 20
55.00000000000023
 10
231.6053667456047
 20
5.000000000000227
  0
LINE
  5
C7
100
AcDbEntity
  8
Raami-025
  6
ByLayer
 62
  256
370
   -1
100
AcDbLine
 10
396.6053667456047
 20
45.34810252736292
 11
314.1053667456047
 21
45.34810252736292
  0
LINE
  5
C8
100
AcDbEntity
  8
Raami-025
  6
ByLayer
 62
  256
370
   -1
100
AcDbLine
 10
314.1053667456047
 20
18.29272283977928
 11
396.6053667456047
 21
18.29272283977928
  0
LINE
  5
C9
100
AcDbEntity
  8
Raami-025
  6
ByLayer
 62
  256
370
   -1
100
AcDbLine
 10
314.1053667456047
 20
34.01303461887068
 11
396.6053667456047
 21
34.01303461887068
  0
LINE
  5
CA
100
AcDbEntity
  8
Raami-025
  6
ByLayer
 62
  256
370
   -1
100
AcDbLine
 10
314.1053667456047
 20
5.000000000000227
 11
314.1053667456047
 21
55.00000000000023
  0
LINE
  5
CB
100
AcDbEntity
  8
Raami-025
  6
ByLayer
 62
  256
370
   -1
100
AcDbLine
 10
279.7476729625854
 20
55.00000000000023
 11
279.7476729625854
 21
47.38180881147843
  0
LINE
  5
CC
100
AcDbEntity
  8
Raami-025
  6
ByLayer
 62
  256
370
   -1
100
AcDbLine
 10
231.6053667456047
 20
47.38180881147843
 11
314.1053667456047
 21
47.38180881147843
  0
LINE
  5
CD
100
AcDbEntity
  8
Raami-025
  6
ByLayer
 62
  256
370
   -1
100
AcDbLine
 10
231.6053667456047
 20
41.38180881147843
 11
314.1053667456047
 21
41.38180881147843
  0
LINE
  5
CE
100
AcDbEntity
  8
Raami-025
  6
ByLayer
 62
  256
370
   -1
100
AcDbLine
 10
231.6053667456047
 20
35.38180881147844
 11
314.1053667456047
 21
35.38180881147844
  0
LINE
  5
CF
100
AcDbEntity
  8
Raami-025
  6
ByLayer
 62
  256
370
   -1
100
AcDbLine
 10
231.6053667456047
 20
29.38180881147843
 11
314.1053667456047
 21
29.38180881147843
  0
LINE
  5
D0
100
AcDbEntity
  8
Raami-025
  6
ByLayer
 62
  256
370
   -1
100
AcDbLine
 10
231.6053667456047
 20
23.38180881147843
 11
314.1053667456047
 21
23.38180881147843
  0
LINE
  5
D1
100
AcDbEntity
  8
Raami-025
  6
ByLayer
 62
  256
370
   -1
100
AcDbLine
 10
231.6053667456047
 20
17.38180881147843
 11
314.1053667456047
 21
17.38180881147843
  0
LINE
  5
D2
100
AcDbEntity
  8
Raami-025
  6
ByLayer
 62
  256
370
   -1
100
AcDbLine
 10
231.6053667456047
 20
11.38180881147843
 11
314.1053667456047
 21
11.38180881147843
  0
TEXT
  5
D3
100
AcDbEntity
  8
Raami-025
  6
ByLayer
 62
  256
370
   -1
100
AcDbText
 10
232.6333277863294
 20
6.992707767617844
 30
0
 40
2
  1
CONTRACT NO
 50
0
 41
0.6835185874663064
 51
0
  7
acisots
 71
    0
210
0
220
0
230
1
100
AcDbText
  0
LINE
  5
D4
100
AcDbEntity
  8
Raami-035
  6
ByLayer
 62
  256
370
   -1
100
AcDbLine
 10
206.6053667456047
 20
0.0959466711508022
 11
206.6053667456047
 21
4.795946671150801
  0
LINE
  5
D5
100
AcDbEntity
  8
Raami-035
  6
ByLayer
 62
  256
370
   -1
100
AcDbLine
 10
216.6053667456047
 20
0.0959466711508022
 11
216.6053667456047
 21
4.795946671150801
  0
LINE
  5
D6
100
AcDbEntity
  8
Raami-035
  6
ByLayer
 62
  256
370
   -1
100
AcDbLine
 10
226.6053667456046
 20
0.0959466711508022
 11
226.6053667456046
 21
4.795946671150801
  0
LINE
  5
D7
100
AcDbEntity
  8
Raami-035
  6
ByLayer
 62
  256
370
   -1
100
AcDbLine
 10
236.6053667456046
 20
0.0959466711508022
 11
236.6053667456046
 21
4.795946671150801
  0
LINE
  5
D8
100
AcDbEntity
  8
Raami-035
  6
ByLayer
 62
  256
370
   -1
100
AcDbLine
 10
246.6053667456046
 20
0.0959466711508022
 11
246.6053667456046
 21
4.795946671150801
  0
TEXT
  5
D9
100
AcDbEntity
  8
Raami-025
  6
ByLayer
 62
  256
370
   -1
100
AcDbText
 10
232.6333277863294
 20
18.99270776761784
 30
0
 40
2
  1
ISSUED
 50
0
 41
1
 51
0
  7
acisots
 71
    0
210
0
220
0
230
1
100
AcDbText
  0
TEXT
  5
DA
100
AcDbEntity
  8
Raami-025
  6
ByLayer
 62
  256
370
   -1
100
AcDbText
 10
232.6333277863294
 20
12.99270776761784
 30
0
 40
2
  1
REV
 50
0
 41
1
 51
0
  7
acisots
 71
    0
210
0
220
0
230
1
100
AcDbText
  0
TEXT
  5
DB
100
AcDbEntity
  8
Raami-025
  6
ByLayer
 62
  256
370
   -1
100
AcDbText
 10
232.6333277863295
 20
25.07943282522922
 30
0
 40
2
  1
APPR.
 50
0
 41
1
 51
0
  7
acisots
 71
    0
210
0
220
0
230
1
100
AcDbText
  0
TEXT
  5
DC
100
AcDbEntity
  8
Raami-025
  6
ByLayer
 62
  256
370
   -1
100
AcDbText
 10
232.6333277863295
 20
37.13874720688864
 30
0
 40
2
  1
DRAWN
 50
0
 41
1
 51
0
  7
acisots
 71
    0
210
0
220
0
230
1
100
AcDbText
  0
TEXT
  5
DD
100
AcDbEntity
  8
Raami-025
  6
ByLayer
 62
  256
370
   -1
100
AcDbText
 10
232.6333277863294
 20
31.05202214927726
 30
0
 40
2
  1
CHECK
 50
0
 41
1
 51
0
  7
acisots
 71
    0
210
0
220
0
230
1
100
AcDbText
  0
TEXT
  5
DE
100
AcDbEntity
  8
Raami-025
  6
ByLayer
 62
  256
370
   -1
100
AcDbText
 10
232.6333277863295
 20
43.13874720688864
 30
0
 40
2
  1
SIZE
 50
0
 41
1
 51
0
  7
acisots
 71
    0
210
0
220
0
230
1
100
AcDbText
  0
TEXT
  5
DF
100
AcDbEntity
  8
Raami-025
  6
ByLayer
 62
  256
370
   -1
100
AcDbText
 10
271.6053667456047
 20
2.295946671150801
 30
0
 40
4
  1
6
 50
0
 41
1
 51
0
  7
acisots
 71
    0
 72
    4
 11
271.6053667456047
 21
2.295946671150801
 31
0
210
0
220
0
230
1
100
AcDbText
  0
LINE
  5
E0
100
AcDbEntity
  8
Raami-025
  6
ByLayer
 62
  256
370
   -1
100
AcDbLine
 10
296.6053667456047
 20
0
 11
296.6053667456047
 21
5
  0
TEXT
  5
E1
100
AcDbEntity
  8
Raami-025
  6
ByLayer
 62
  256
370
   -1
100
AcDbText
 10
321.6053667456047
 20
2.295946671150801
 30
0
 40
4
  1
7
 50
0
 41
1
 51
0
  7
acisots
 71
    0
 72
    4
 11
321.6053667456047
 21
2.295946671150801
 31
0
210
0
220
0
230
1
100
AcDbText
  0
TEXT
  5
E2
100
AcDbEntity
  8
Raami-025
  6
ByLayer
 62
  256
370
   -1
100
AcDbText
 10
314.4856801187188
 20
14.40915375927807
 30
0
 40
2
  1
DWG NO
 50
0
 41
1
 51
0
  7
acisots
 71
    0
210
0
220
0
230
1
100
AcDbText
  0
TEXT
  5
E3
100
AcDbEntity
  8
Raami-025
  6
ByLayer
 62
  256
370
   -1
100
AcDbText
 10
232.6333277863295
 20
52.0432531104393
 30
0
 40
2
  1
FILE NAME
 50
0
 41
1
 51
0
  7
acisots
 71
    0
210
0
220
0
230
1
100
AcDbText
  0
TEXT
  5
E4
100
AcDbEntity
  8
Raami-025
  6
ByLayer
 62
  256
370
   -1
100
AcDbText
 10
280.9047733690977
 20
52.0432531104393
 30
0
 40
2
  1
FSCM NO
 50
0
 41
1
 51
0
  7
acisots
 71
    0
210
0
220
0
230
1
100
AcDbText
  0
TEXT
  5
E5
100
AcDbEntity
  8
Raami-025
  6
ByLayer
 62
  256
370
   -1
100
AcDbText
 10
315.0581068995059
 20
52.11201390977959
 30
0
 40
2
  1
SHEET
 50
0
 41
1
 51
0
  7
acisots
 71
    0
210
0
220
0
230
1
100
AcDbText
  0
LINE
  5
E6
100
AcDbEntity
  8
Raami-025
  6
ByLayer
 62
  256
370
   -1
100
AcDbLine
 10
355.3553667456047
 20
45.34810252736292
 11
355.3553667456047
 21
55.00000000000023
  0
LINE
  5
E7
100
AcDbEntity
  8
Raami-025
  6
ByLayer
 62
  256
370
   -1
100
AcDbLine
 10
346.6053667456047
 20
0
 11
346.6053667456047
 21
5
  0
TEXT
  5
E8
100
AcDbEntity
  8
Raami-025
  6
ByLayer
 62
  256
370
   -1
100
AcDbText
 10
371.6053667456047
 20
2.295946671150801
 30
0
 40
4
  1
8
 50
0
 41
1
 51
0
  7
acisots
 71
    0
 72
    4
 11
371.6053667456047
 21
2.295946671150801
 31
0
210
0
220
0
230
1
100
AcDbText
  0
TEXT
  5
E9
100
AcDbEntity
  8
Raami-025
  6
ByLayer
 62
  256
370
   -1
100
AcDbText
 10
399.1108983086317
 20
28.5
 30
0
 40
4
  1
F
 50
0
 41
1
 51
0
  7
acisots
 71
    0
 72
    4
 11
399.1108983086317
 21
28.5
 31
0
210
0
220
0
230
1
100
AcDbText
  0
LINE
  5
EA
100
AcDbEntity
  8
Raami-025
  6
ByLayer
 62
  256
370
   -1
100
AcDbLine
 10
396.6053667456047
 20
51.5
 11
401.6053667456047
 21
51.5
  0
TEXT
  5
EB
100
AcDbEntity
  8
Raami-025
  6
ByLayer
 62
  256
370
   -1
100
AcDbText
 10
356.6380043454067
 20
52.11201390977959
 30
0
 40
2
  1
SCALE
 50
0
 41
1
 51
0
  7
acisots
 71
    0
210
0
220
0
230
1
100
AcDbText
  0
TEXT
  5
EC
100
AcDbEntity
  8
Raami-025
  6
ByLayer
 62
  256
370
   -1
100
AcDbText
 10
399.1108983086317
 20
74.5
 30
0
 40
4
  1
E
 50
0
 41
1
 51
0
  7
acisots
 71
    0
 72
    4
 11
399.1108983086317
 21
74.5
 31
0
210
0
220
0
230
1
100
AcDbText
  0
LINE
  5
ED
100
AcDbEntity
  8
Raami-025
  6
ByLayer
 62
  256
370
   -1
100
AcDbLine
 10
396.6053667456047
 20
97.5
 11
401.6053667456047
 21
97.5
  0
TEXT
  5
EE
100
AcDbEntity
  8
Raami-025
  6
ByLayer
 62
  256
370
   -1
100
AcDbText
 10
399.1108983086317
 20
120.5
 30
0
 40
4
  1
D
 50
0
 41
1
 51
0
  7
acisots
 71
    0
 72
    4
 11
399.1108983086317
 21
120.5
 31
0
210
0
220
0
230
1
100
AcDbText
  0
TEXT
  5
EF
100
AcDbEntity
  8
Raami-025
  6
ByLayer
 62
  256
370
   -1
100
AcDbText
 10
221.6053667456047
 20
274.5756095412624
 30
0
 40
4
  1
5
 50
0
 41
1
 51
0
  7
acisots
 71
    0
 72
    4
 11
221.6053667456047
 21
274.5756095412624
 31
0
210
0
220
0
230
1
100
AcDbText
  0
LINE
  5
F0
100
AcDbEntity
  8
Raami-025
  6
ByLayer
 62
  256
370
   -1
100
AcDbLine
 10
246.6053667456047
 20
277
 11
246.6053667456047
 21
272
  0
TEXT
  5
F1
100
AcDbEntity
  8
Raami-025
  6
ByLayer
 62
  256
370
   -1
100
AcDbText
 10
271.6053667456047
 20
274.5756095412624
 30
0
 40
4
  1
6
 50
0
 41
1
 51
0
  7
acisots
 71
    0
 72
    4
 11
271.6053667456047
 21
274.5756095412624
 31
0
210
0
220
0
230
1
100
AcDbText
  0
LINE
  5
F2
100
AcDbEntity
  8
Raami-025
  6
ByLayer
 62
  256
370
   -1
100
AcDbLine
 10
296.6053667456047
 20
277
 11
296.6053667456047
 21
272
  0
TEXT
  5
F3
100
AcDbEntity
  8
Raami-025
  6
ByLayer
 62
  256
370
   -1
100
AcDbText
 10
321.6053667456047
 20
274.5756095412624
 30
0
 40
4
  1
7
 50
0
 41
1
 51
0
  7
acisots
 71
    0
 72
    4
 11
321.6053667456047
 21
274.5756095412624
 31
0
210
0
220
0
230
1
100
AcDbText
  0
LINE
  5
F4
100
AcDbEntity
  8
Raami-050
  6
ByLayer
 62
  256
370
   -1
100
AcDbLine
 10
391.6053667456047
 20
143.5
 11
401.6053667456047
 21
143.5
  0
TEXT
  5
F5
100
AcDbEntity
  8
Raami-025
  6
ByLayer
 62
  256
370
   -1
100
AcDbText
 10
399.1108983086317
 20
166.5
 30
0
 40
4
  1
C
 50
0
 41
1
 51
0
  7
acisots
 71
    0
 72
    4
 11
399.1108983086317
 21
166.5
 31
0
210
0
220
0
230
1
100
AcDbText
  0
LINE
  5
F6
100
AcDbEntity
  8
Raami-025
  6
ByLayer
 62
  256
370
   -1
100
AcDbLine
 10
396.6053667456047
 20
189.5
 11
401.6053667456047
 21
189.5
  0
TEXT
  5
F7
100
AcDbEntity
  8
Raami-025
  6
ByLayer
 62
  256
370
   -1
100
AcDbText
 10
399.1108983086317
 20
212.5
 30
0
 40
4
  1
B
 50
0
 41
1
 51
0
  7
acisots
 71
    0
 72
    4
 11
399.1108983086317
 21
212.5
 31
0
210
0
220
0
230
1
100
AcDbText
  0
LINE
  5
F8
100
AcDbEntity
  8
Raami-025
  6
ByLayer
 62
  256
370
   -1
100
AcDbLine
 10
346.6053667456047
 20
277
 11
346.6053667456047
 21
272
  0
TEXT
  5
F9
100
AcDbEntity
  8
Raami-025
  6
ByLayer
 62
  256
370
   -1
100
AcDbText
 10
371.6053667456047
 20
274.5756095412624
 30
0
 40
4
  1
8
 50
0
 41
1
 51
0
  7
acisots
 71
    0
 72
    4
 11
371.6053667456047
 21
274.5756095412624
 31
0
210
0
220
0
230
1
100
AcDbText
  0
LINE
  5
FA
100
AcDbEntity
  8
Raami-025
  6
ByLayer
 62
  256
370
   -1
100
AcDbLine
 10
396.6053667456047
 20
235.5
 11
401.6053667456047
 21
235.5
  0
TEXT
  5
FB
100
AcDbEntity
  8
Raami-025
  6
ByLayer
 62
  256
370
   -1
100
AcDbText
 10
399.1108983086317
 20
254.5
 30
0
 40
4
  1
A
 50
0
 41
1
 51
0
  7
acisots
 71
    0
 72
    4
 11
399.1108983086317
 21
254.5
 31
0
210
0
220
0
230
1
100
AcDbText
  0
ENDBLK
  5
6D
330
6B
100
AcDbEntity
  8
0
100
AcDbBlockEnd
  0
ENDSEC
  0
SECTION
  2
ENTITIES
  0
INSERT
  5
FC
100
AcDbEntity
  8
0
  6
ByLayer
 62
  256
370
   -1
100
AcDbBlockReference
  2
vastus
 10
90
 20
181.25
 30
0
 41
1
 42
1
 43
0
 50
270
 70
    1
 71
    1
 44
0
 45
0
  0
INSERT
  5
FD
100
AcDbEntity
  8
0
  6
ByLayer
 62
  256
370
   -1
100
AcDbBlockReference
  2
nand
 10
92.5
 20
140
 30
0
 41
1
 42
1
 43
0
 50
0
 70
    1
 71
    1
 44
0
 45
0
  0
INSERT
  5
FE
100
AcDbEntity
  8
0
  6
ByLayer
 62
  256
370
   -1
100
AcDbBlockReference
  2
loistediodi
 10
107.5
 20
157.5
 30
0
 41
1
 42
1
 43
0
 50
270
 70
    1
 71
    1
 44
0
 45
0
  0
INSERT
  5
FF
100
AcDbEntity
  8
0
  6
ByLayer
 62
  256
370
   -1
100
AcDbBlockReference
  2
transistori
 10
122.5
 20
152.5
 30
0
 41
1
 42
1
 43
0
 50
270
 70
    1
 71
    1
 44
0
 45
0
  0
INSERT
  5
100
100
AcDbEntity
  8
0
  6
ByLayer
 62
  256
370
   -1
100
AcDbBlockReference
  2
vastus
 10
157.5
 20
193.75
 30
0
 41
1
 42
1
 43
0
 50
270
 70
    1
 71
    1
 44
0
 45
0
  0
INSERT
  5
101
100
AcDbEntity
  8
0
  6
ByLayer
 62
  256
370
   -1
100
AcDbBlockReference
  2
vastus
 10
190
 20
193.75
 30
0
 41
1
 42
1
 43
0
 50
270
 70
    1
 71
    1
 44
0
 45
0
  0
INSERT
  5
102
100
AcDbEntity
  8
0
  6
ByLayer
 62
  256
370
   -1
100
AcDbBlockReference
  2
vastus
 10
216.25
 20
193.75
 30
0
 41
1
 42
1
 43
0
 50
270
 70
    1
 71
    1
 44
0
 45
0
  0
LINE
  5
103
100
AcDbEntity
  8
Johdot
  6
ByLayer
 62
  256
370
   -1
100
AcDbLine
 10
90
 20
171.25
 11
90
 21
160
  0
LINE
  5
104
100
AcDbEntity
  8
Johdot
  6
ByLayer
 62
  256
370
   -1
100
AcDbLine
 10
90
 20
160
 11
107.5
 21
160
  0
LINE
  5
105
100
AcDbEntity
  8
Johdot
  6
ByLayer
 62
  256
370
   -1
100
AcDbLine
 10
107.5
 20
160
 11
107.5
 21
157.5
  0
LINE
  5
106
100
AcDbEntity
  8
Johdot
  6
ByLayer
 62
  256
370
   -1
100
AcDbLine
 10
107.5
 20
147.5
 11
107.5
 21
140
  0
LINE
  5
107
100
AcDbEntity
  8
Johdot
  6
ByLayer
 62
  256
370
   -1
100
AcDbLine
 10
107.5
 20
140
 11
92.5
 21
140
  0
LINE
  5
108
100
AcDbEntity
  8
Johdot
  6
ByLayer
 62
  256
370
   -1
100
AcDbLine
 10
157.5
 20
183.75
 11
157.5
 21
157.5
  0
LINE
  5
109
100
AcDbEntity
  8
Johdot
  6
ByLayer
 62
  256
370
   -1
100
AcDbLine
 10
157.5
 20
157.5
 11
135
 21
157.5
  0
INSERT
  5
10A
100
AcDbEntity
  8
Johdot
  6
ByLayer
 62
  256
370
   -1
100
AcDbBlockReference
  2
vahvistin
 10
225
 20
152.5
 30
0
 41
1
 42
1
 43
0
 50
0
 70
    1
 71
    1
 44
0
 45
0
  0
LINE
  5
10B
100
AcDbEntity
  8
Johdot
  6
ByLayer
 62
  256
370
   -1
100
AcDbLine
 10
157.5
 20
193.75
 11
157.5
 21
197.5
  0
LINE
  5
10C
100
AcDbEntity
  8
Johdot
  6
ByLayer
 62
  256
370
   -1
100
AcDbLine
 10
157.5
 20
197.5
 11
292.5
 21
197.5
  0
LINE
  5
10D
100
AcDbEntity
  8
Johdot
  6
ByLayer
 62
  256
370
   -1
100
AcDbLine
 10
190
 20
193.75
 11
190
 21
197.5
  0
LINE
  5
10E
100
AcDbEntity
  8
Johdot
  6
ByLayer
 62
  256
370
   -1
100
AcDbLine
 10
216.25
 20
193.75
 11
216.25
 21
197.5
  0
INSERT
  5
10F
100
AcDbEntity
  8
Johdot
  6
ByLayer
 62
  256
370
   -1
100
AcDbBlockReference
  2
vastus
 10
166.25
 20
102.5
 30
0
 41
1
 42
1
 43
0
 50
0
 70
    1
 71
    1
 44
0
 45
0
  0
INSERT
  5
110
100
AcDbEntity
  8
0
  6
ByLayer
 62
  256
370
   -1
100
AcDbBlockReference
  2
vastus
 10
190
 20
133.75
 30
0
 41
1
 42
1
 43
0
 50
270
 70
    1
 71
    1
 44
0
 45
0
  0
LINE
  5
111
100
AcDbEntity
  8
Johdot
  6
ByLayer
 62
  256
370
   -1
100
AcDbLine
 10
166.25
 20
102.5
 11
150
 21
102.5
  0
LINE
  5
112
100
AcDbEntity
  8
Johdot
  6
ByLayer
 62
  256
370
   -1
100
AcDbLine
 10
150
 20
102.5
 11
150
 21
123.75
  0
LINE
  5
113
100
AcDbEntity
  8
Johdot
  6
ByLayer
 62
  256
370
   -1
100
AcDbLine
 10
150
 20
140
 11
117.5
 21
140
  0
LINE
  5
114
100
AcDbEntity
  8
Johdot
  6
ByLayer
 62
  256
370
   -1
100
AcDbLine
 10
117.5
 20
140
 11
117.5
 21
152.5
  0
LINE
  5
115
100
AcDbEntity
  8
Johdot
  6
ByLayer
 62
  256
370
   -1
100
AcDbLine
 10
117.5
 20
152.5
 11
122.5
 21
152.5
  0
LINE
  5
116
100
AcDbEntity
  8
Johdot
  6
ByLayer
 62
  256
370
   -1
100
AcDbLine
 10
135
 20
147.5
 11
205
 21
147.5
  0
LINE
  5
117
100
AcDbEntity
  8
Johdot
  6
ByLayer
 62
  256
370
   -1
100
AcDbLine
 10
205
 20
157.5
 11
190
 21
157.5
  0
LINE
  5
118
100
AcDbEntity
  8
Johdot
  6
ByLayer
 62
  256
370
   -1
100
AcDbLine
 10
190
 20
183.75
 11
190
 21
133.75
  0
LINE
  5
119
100
AcDbEntity
  8
Johdot
  6
ByLayer
 62
  256
370
   -1
100
AcDbLine
 10
190
 20
123.75
 11
190
 21
102.5
  0
LINE
  5
11A
100
AcDbEntity
  8
Johdot
  6
ByLayer
 62
  256
370
   -1
100
AcDbLine
 10
210
 20
197.5
 11
210
 21
161.25
  0
LINE
  5
11B
100
AcDbEntity
  8
Johdot
  6
ByLayer
 62
  256
370
   -1
100
AcDbLine
 10
216.25
 20
183.75
 11
216.25
 21
157.5
  0
LINE
  5
11C
100
AcDbEntity
  8
Johdot
  6
ByLayer
 62
  256
370
   -1
100
AcDbLine
 10
222.5
 20
153.75
 11
222.5
 21
165
  0
LINE
  5
11D
100
AcDbEntity
  8
Johdot
  6
ByLayer
 62
  256
370
   -1
100
AcDbLine
 10
222.5
 20
165
 11
280
 21
165
  0
LWPOLYLINE
  5
11E
100
AcDbEntity
  8
Johdot
  6
DASHDOT
 62
  256
370
   -1
100
AcDbPolyline
 90
    4
 70
    1
 43
0
 10
100
 20
135
 10
140
 20
135
 10
140
 20
165
 10
100
 20
165
  0
LINE
  5
11F
100
AcDbEntity
  8
Johdot
  6
ByLayer
 62
  256
370
   -1
100
AcDbLine
 10
157.5
 20
147.5
 11
157.5
 21
102.5
  0
INSERT
  5
120
100
AcDbEntity
  8
0
  6
ByLayer
 62
  256
370
   -1
100
AcDbBlockReference
  2
vastus
 10
150
 20
133.75
 30
0
 41
1
 42
1
 43
0
 50
270
 70
    1
 71
    1
 44
0
 45
0
  0
LINE
  5
121
100
AcDbEntity
  8
Johdot
  6
ByLayer
 62
  256
370
   -1
100
AcDbLine
 10
150
 20
133.75
 11
150
 21
140
  0
INSERT
  5
122
100
AcDbEntity
  8
0
  6
ByLayer
 62
  256
370
   -1
100
AcDbBlockReference
  2
vastus
 10
222.5
 20
133.75
 30
0
 41
1
 42
1
 43
0
 50
270
 70
    1
 71
    1
 44
0
 45
0
  0
LINE
  5
123
100
AcDbEntity
  8
Johdot
  6
ByLayer
 62
  256
370
   -1
100
AcDbLine
 10
222.5
 20
133.75
 11
222.5
 21
151.25
  0
INSERT
  5
124
100
AcDbEntity
  8
Johdot
  6
ByLayer
 62
  256
370
   -1
100
AcDbBlockReference
  2
loistediodi
 10
222.5
 20
120
 30
0
 41
1
 42
1
 43
0
 50
270
 70
    1
 71
    1
 44
0
 45
0
  0
LINE
  5
125
100
AcDbEntity
  8
Johdot
  6
ByLayer
 62
  256
370
   -1
100
AcDbLine
 10
222.5
 20
110
 11
222.5
 21
102.5
  0
LINE
  5
126
100
AcDbEntity
  8
Johdot
  6
ByLayer
 62
  256
370
   -1
100
AcDbLine
 10
222.5
 20
120
 11
222.5
 21
123.75
  0
LINE
  5
127
100
AcDbEntity
  8
Johdot
  6
ByLayer
 62
  256
370
   -1
100
AcDbLine
 10
210
 20
143.75
 11
210
 21
102.5
  0
LINE
  5
128
100
AcDbEntity
  8
Johdot
  6
ByLayer
 62
  256
370
   -1
100
AcDbLine
 10
222.5
 20
140
 11
215
 21
140
  0
LINE
  5
129
100
AcDbEntity
  8
Johdot
  6
ByLayer
 62
  256
370
   -1
100
AcDbLine
 10
215
 20
140
 11
215
 21
97.50000000000001
  0
INSERT
  5
12A
100
AcDbEntity
  8
Johdot
  6
ByLayer
 62
  256
370
   -1
100
AcDbBlockReference
  2
loistediodi
 10
237.5
 20
120
 30
0
 41
1
 42
1
 43
0
 50
270
 70
    1
 71
    1
 44
0
 45
0
  0
LINE
  5
12B
100
AcDbEntity
  8
Johdot
  6
ByLayer
 62
  256
370
   -1
100
AcDbLine
 10
237.5
 20
110
 11
237.5
 21
102.5
  0
LINE
  5
12C
100
AcDbEntity
  8
Johdot
  6
ByLayer
 62
  256
370
   -1
100
AcDbLine
 10
237.5
 20
120
 11
237.5
 21
123.75
  0
INSERT
  5
12D
100
AcDbEntity
  8
0
  6
ByLayer
 62
  256
370
   -1
100
AcDbBlockReference
  2
vastus
 10
237.5
 20
133.75
 30
0
 41
1
 42
1
 43
0
 50
270
 70
    1
 71
    1
 44
0
 45
0
  0
LINE
  5
12E
100
AcDbEntity
  8
Johdot
  6
ByLayer
 62
  256
370
   -1
100
AcDbLine
 10
237.5
 20
133.75
 11
237.5
 21
152.5
  0
LINE
  5
12F
100
AcDbEntity
  8
Johdot
  6
ByLayer
 62
  256
370
   -1
100
AcDbLine
 10
225
 20
152.5
 11
292.5
 21
152.5
  0
INSERT
  5
130
100
AcDbEntity
  8
Johdot
  6
ByLayer
 62
  256
370
   -1
100
AcDbBlockReference
  2
diodi
 10
255
 20
125
 30
0
 41
1
 42
1
 43
0
 50
90
 70
    1
 71
    1
 44
0
 45
0
  0
LINE
  5
131
100
AcDbEntity
  8
Johdot
  6
ByLayer
 62
  256
370
   -1
100
AcDbLine
 10
255
 20
135
 11
255
 21
152.5
  0
LINE
  5
132
100
AcDbEntity
  8
Johdot
  6
ByLayer
 62
  256
370
   -1
100
AcDbLine
 10
176.25
 20
102.5
 11
292.5
 21
102.5
  0
LINE
  5
133
100
AcDbEntity
  8
Johdot
  6
ByLayer
 62
  256
370
   -1
100
AcDbLine
 10
255
 20
125
 11
255
 21
102.5
  0
INSERT
  5
134
100
AcDbEntity
  8
0
  6
ByLayer
 62
  256
370
   -1
100
AcDbBlockReference
  2
vastus
 10
280
 20
133.75
 30
0
 41
1
 42
1
 43
0
 50
270
 70
    1
 71
    1
 44
0
 45
0
  0
LINE
  5
135
100
AcDbEntity
  8
Johdot
  6
ByLayer
 62
  256
370
   -1
100
AcDbLine
 10
280
 20
123.75
 11
280
 21
102.5
  0
INSERT
  5
136
100
AcDbEntity
  8
Johdot
  6
ByLayer
 62
  256
370
   -1
100
AcDbBlockReference
  2
sulkukosketin
 10
280
 20
175
 30
0
 41
1
 42
1
 43
0
 50
0
 70
    1
 71
    1
 44
0
 45
0
  0
LINE
  5
137
100
AcDbEntity
  8
Johdot
  6
ByLayer
 62
  256
370
   -1
100
AcDbLine
 10
280
 20
175
 11
280
 21
133.75
  0
LINE
  5
138
100
AcDbEntity
  8
Johdot
  6
ByLayer
 62
  256
370
   -1
100
AcDbLine
 10
280
 20
190
 11
280
 21
197.5
  0
LINE
  5
139
100
AcDbEntity
  8
Johdot
  6
ByLayer
 62
  256
370
   -1
100
AcDbLine
 10
90
 20
181.25
 11
90
 21
185
  0
TEXT
  5
13A
100
AcDbEntity
  8
Johdot
  6
ByLayer
 62
  256
370
   -1
100
AcDbText
 10
83.75
 20
175
 30
0
 40
2.5
  1
R1
 50
0
 41
1
 51
0
  7
standard
 71
    0
210
0
220
0
230
1
100
AcDbText
  0
TEXT
  5
13B
100
AcDbEntity
  8
Johdot
  6
ByLayer
 62
  256
370
   -1
100
AcDbText
 10
83.75
 20
147.5
 30
0
 40
2.5
  1
D1
 50
0
 41
1
 51
0
  7
standard
 71
    0
210
0
220
0
230
1
100
AcDbText
  0
TEXT
  5
13C
100
AcDbEntity
  8
Johdot
  6
ByLayer
 62
  256
370
   -1
100
AcDbText
 10
111.7084899158844
 20
152.7076710974643
 30
0
 40
2.5
  1
H1
 50
0
 41
1
 51
0
  7
standard
 71
    0
210
0
220
0
230
1
100
AcDbText
  0
TEXT
  5
13D
100
AcDbEntity
  8
Johdot
  6
ByLayer
 62
  256
370
   -1
100
AcDbText
 10
124.830647754131
 20
158.7286941325754
 30
0
 40
2.5
  1
V2
 50
0
 41
1
 51
0
  7
standard
 71
    0
210
0
220
0
230
1
100
AcDbText
  0
TEXT
  5
13E
100
AcDbEntity
  8
Johdot
  6
ByLayer
 62
  256
370
   -1
100
AcDbText
 10
96.9060823326534
 20
161.5390017527296
 30
0
 40
2.5
  1
1
 50
0
 41
1
 51
0
  7
standard
 71
    0
210
0
220
0
230
1
100
AcDbText
  0
TEXT
  5
13F
100
AcDbEntity
  8
Johdot
  6
ByLayer
 62
  256
370
   -1
100
AcDbText
 10
97.20724665110862
 20
141.0675238623048
 30
0
 40
2.5
  1
2
 50
0
 41
1
 51
0
  7
standard
 71
    0
210
0
220
0
230
1
100
AcDbText
  0
TEXT
  5
140
100
AcDbEntity
  8
Johdot
  6
ByLayer
 62
  256
370
   -1
100
AcDbText
 10
141.7795599184695
 20
149.045379383827
 30
0
 40
2.5
  1
4
 50
0
 41
1
 51
0
  7
standard
 71
    0
210
0
220
0
230
1
100
AcDbText
  0
TEXT
  5
141
100
AcDbEntity
  8
Johdot
  6
ByLayer
 62
  256
370
   -1
100
AcDbText
 10
142.0807242369246
 20
159.2811181145629
 30
0
 40
2.5
  1
5
 50
0
 41
1
 51
0
  7
standard
 71
    0
210
0
220
0
230
1
100
AcDbText
  0
TEXT
  5
142
100
AcDbEntity
  8
Johdot
  6
ByLayer
 62
  256
370
   -1
100
AcDbText
 10
141.8920182265169
 20
141.3685750140603
 30
0
 40
2.5
  1
6
 50
0
 41
1
 51
0
  7
standard
 71
    0
210
0
220
0
230
1
100
AcDbText
  0
TEXT
  5
143
100
AcDbEntity
  8
Johdot
  6
ByLayer
 62
  256
370
   -1
100
AcDbText
 10
151.25
 20
187.5
 30
0
 40
2.5
  1
R3
 50
0
 41
1
 51
0
  7
standard
 71
    0
210
0
220
0
230
1
100
AcDbText
  0
TEXT
  5
144
100
AcDbEntity
  8
Johdot
  6
ByLayer
 62
  256
370
   -1
100
AcDbText
 10
183.75
 20
187.5
 30
0
 40
2.5
  1
R5
 50
0
 41
1
 51
0
  7
standard
 71
    0
210
0
220
0
230
1
100
AcDbText
  0
TEXT
  5
145
100
AcDbEntity
  8
Johdot
  6
ByLayer
 62
  256
370
   -1
100
AcDbText
 10
218.4377847008934
 20
187.5
 30
0
 40
2.5
  1
R7
 50
0
 41
1
 51
0
  7
standard
 71
    0
210
0
220
0
230
1
100
AcDbText
  0
TEXT
  5
146
100
AcDbEntity
  8
Johdot
  6
ByLayer
 62
  256
370
   -1
100
AcDbText
 10
143.75
 20
127.5
 30
0
 40
2.5
  1
R2
 50
0
 41
1
 51
0
  7
standard
 71
    0
210
0
220
0
230
1
100
AcDbText
  0
TEXT
  5
147
100
AcDbEntity
  8
Johdot
  6
ByLayer
 62
  256
370
   -1
100
AcDbText
 10
183.75
 20
127.5
 30
0
 40
2.5
  1
R6
 50
0
 41
1
 51
0
  7
standard
 71
    0
210
0
220
0
230
1
100
AcDbText
  0
TEXT
  5
148
100
AcDbEntity
  8
Johdot
  6
ByLayer
 62
  256
370
   -1
100
AcDbText
 10
224.6877847008934
 20
127.5
 30
0
 40
2.5
  1
R8
 50
0
 41
1
 51
0
  7
standard
 71
    0
210
0
220
0
230
1
100
AcDbText
  0
TEXT
  5
149
100
AcDbEntity
  8
Johdot
  6
ByLayer
 62
  256
370
   -1
100
AcDbText
 10
239.6877847008934
 20
127.5
 30
0
 40
2.5
  1
R9
 50
0
 41
1
 51
0
  7
standard
 71
    0
210
0
220
0
230
1
100
AcDbText
  0
TEXT
  5
14A
100
AcDbEntity
  8
Johdot
  6
ByLayer
 62
  256
370
   -1
100
AcDbText
 10
272.7856818093941
 20
127.5
 30
0
 40
2.5
  1
R10
 50
0
 41
1
 51
0
  7
standard
 71
    0
210
0
220
0
230
1
100
AcDbText
  0
TEXT
  5
14B
100
AcDbEntity
  8
Johdot
  6
ByLayer
 62
  256
370
   -1
100
AcDbText
 10
266.7586931181072
 20
181.2405466101404
 30
0
 40
2.5
  1
RESET
 50
0
 41
1
 51
0
  7
standard
 71
    0
210
0
220
0
230
1
100
AcDbText
  0
TEXT
  5
14C
100
AcDbEntity
  8
Johdot
  6
ByLayer
 62
  256
370
   -1
100
AcDbText
 10
226.5979667413221
 20
114.9389066794983
 30
0
 40
2.5
  1
H2
 50
0
 41
1
 51
0
  7
standard
 71
    0
210
0
220
0
230
1
100
AcDbText
  0
TEXT
  5
14D
100
AcDbEntity
  8
Johdot
  6
ByLayer
 62
  256
370
   -1
100
AcDbText
 10
241.6483307557409
 20
114.9389066794983
 30
0
 40
2.5
  1
H3
 50
0
 41
1
 51
0
  7
standard
 71
    0
210
0
220
0
230
1
100
AcDbText
  0
TEXT
  5
14E
100
AcDbEntity
  8
Johdot
  6
ByLayer
 62
  256
370
   -1
100
AcDbText
 10
247.7052681404381
 20
127.5
 30
0
 40
2.5
  1
V1
 50
0
 41
1
 51
0
  7
standard
 71
    0
210
0
220
0
230
1
100
AcDbText
  0
TEXT
  5
14F
100
AcDbEntity
  8
Johdot
  6
ByLayer
 62
  256
370
   -1
100
AcDbText
 10
168.9809516990207
 20
105.4250520093072
 30
0
 40
2.5
  1
R4
 50
0
 41
1
 51
0
  7
standard
 71
    0
210
0
220
0
230
1
100
AcDbText
  0
TEXT
  5
150
100
AcDbEntity
  8
Johdot
  6
ByLayer
 62
  256
370
   -1
100
AcDbText
 10
203.3585815581028
 20
149.045379383827
 30
0
 40
2.5
  1
3
 50
0
 41
1
 51
0
  7
standard
 71
    0
210
0
220
0
230
1
100
AcDbText
  0
TEXT
  5
151
100
AcDbEntity
  8
Johdot
  6
ByLayer
 62
  256
370
   -1
100
AcDbText
 10
203.6597458765578
 20
159.2811181145629
 30
0
 40
2.5
  1
2
 50
0
 41
1
 51
0
  7
standard
 71
    0
210
0
220
0
230
1
100
AcDbText
  0
TEXT
  5
152
100
AcDbEntity
  8
Johdot
  6
ByLayer
 62
  256
370
   -1
100
AcDbText
 10
210.6007336953601
 20
162.1276332195546
 30
0
 40
2.5
  1
7
 50
0
 41
1
 51
0
  7
standard
 71
    0
210
0
220
0
230
1
100
AcDbText
  0
TEXT
  5
153
100
AcDbEntity
  8
Johdot
  6
ByLayer
 62
  256
370
   -1
100
AcDbText
 10
217.007799743318
 20
158.2136748429528
 30
0
 40
2.5
  1
8
 50
0
 41
1
 51
0
  7
standard
 71
    0
210
0
220
0
230
1
100
AcDbText
  0
TEXT
  5
154
100
AcDbEntity
  8
Johdot
  6
ByLayer
 62
  256
370
   -1
100
AcDbText
 10
223.2368915122667
 20
154.2997168953039
 30
0
 40
2.5
  1
5
 50
0
 41
1
 51
0
  7
standard
 71
    0
210
0
220
0
230
1
100
AcDbText
  0
TEXT
  5
155
100
AcDbEntity
  8
Johdot
  6
ByLayer
 62
  256
370
   -1
100
AcDbText
 10
227.1523203195535
 20
153.0543662687746
 30
0
 40
2.5
  1
6
 50
0
 41
1
 51
0
  7
standard
 71
    0
210
0
220
0
230
1
100
AcDbText
  0
TEXT
  5
156
100
AcDbEntity
  8
Johdot
  6
ByLayer
 62
  256
370
   -1
100
AcDbText
 10
223.0589172332575
 20
148.0729650495155
 30
0
 40
2.5
  1
1
 50
0
 41
1
 51
0
  7
standard
 71
    0
210
0
220
0
230
1
100
AcDbText
  0
TEXT
  5
157
100
AcDbEntity
  8
Johdot
  6
ByLayer
 62
  256
370
   -1
100
AcDbText
 10
210.7787079743693
 20
140.6008630061507
 30
0
 40
2.5
  1
4
 50
0
 41
1
 51
0
  7
standard
 71
    0
210
0
220
0
230
1
100
AcDbText
  0
INSERT
  5
158
100
AcDbEntity
  8
Johdot
  6
ByLayer
 62
  256
370
   -1
100
AcDbBlockReference
  2
Raami-A3
 10
0
 20
0
 30
0
 41
1
 42
1
 43
0
 50
0
 70
    1
 71
    1
 44
0
 45
0
  0
MTEXT
  5
159
100
AcDbEntity
  8
Raami
  6
ByLayer
 62
  256
370
   -1
100
AcDbMText
 10
342.1471776330188
 20
30.89597748517715
 30
0
 40
5
 41
7.222222222222532
 71
    1
 72
    5
  1
A3
  7
huonetekstit
210
0
220
0
230
1
 50
0
 73
    1
 44
1
  0
LINE
  5
15A
100
AcDbEntity
  8
Raami
  6
ByLayer
 62
  256
370
   -1
100
AcDbLine
 10
334.8799107312466
 20
34.99999976883769
 11
334.8799107312466
 21
4.999999768837689
  0
LINE
  5
15B
100
AcDbEntity
  8
Raami
  6
ByLayer
 62
  256
370
   -1
100
AcDbLine
 10
269.8799107312466
 20
19.9999997688377
 11
399.8799107312466
 21
19.99999976883768
  0
LWPOLYLINE
  5
15C
100
AcDbEntity
  8
Raami
  6
ByLayer
 62
  256
370
   -1
100
AcDbPolyline
 90
    4
 70
    1
 43
0
 10
399.8799107312465
 20
4.999999768837684
 10
269.8799107312465
 20
4.999999768837691
 10
269.8799107312465
 20
34.9999997688377
 10
399.8799107312465
 20
34.99999976883768
  0
LWPOLYLINE
  5
15D
100
AcDbEntity
  8
Raami
  6
ByLayer
 62
  256
370
   -1
100
AcDbPolyline
 90
    4
 70
    1
 43
0
 10
1
 20
1
 10
404
 20
1
 10
404
 20
256
 10
1
 20
256
  0
ENDSEC
  0
SECTION
  2
OBJECTS
  0
DICTIONARY
  5
C
330
0
100
AcDbDictionary
281
    1
  3
ACAD_GROUP
350
D
  0
DICTIONARY
  5
D
330
C
100
AcDbDictionary
281
    1
  0
ENDSEC
  0
EOF
