  0
SECTION
  2
HEADER
  9
$ACADVER
  1
AC1015
  9
$ACADMAINTVER
 70
     6
  9
$DWGCODEPAGE
  3
ANSI_1252
  9
$INSBASE
 10
0.0
 20
0.0
 30
0.0
  9
$EXTMIN
 10
74.714763408
 20
42.4990728502
 30
0.0
  9
$EXTMAX
 10
3913.1864299925
 20
1836.8653089944
 30
0.0
  9
$LIMMIN
 10
0.0
 20
0.0
  9
$LIMMAX
 10
420.0
 20
297.0
  9
$ORTHOMODE
 70
     0
  9
$REGENMODE
 70
     1
  9
$FILLMODE
 70
     1
  9
$QTEXTMODE
 70
     0
  9
$MIRRTEXT
 70
     1
  9
$LTSCALE
 40
1.0
  9
$ATTMODE
 70
     1
  9
$TEXTSIZE
 40
3.5
  9
$TRACEWID
 40
1.0
  9
$TEXTSTYLE
  7
Standard
  9
$CLAYER
  8
0
  9
$CELTYPE
  6
ByLayer
  9
$CECOLOR
 62
   256
  9
$CELTSCALE
 40
1.0
  9
$DISPSILH
 70
     0
  9
$DIMSCALE
 40
1.0
  9
$DIMASZ
 40
3.302
  9
$DIMEXO
 40
1.0
  9
$DIMDLI
 40
3.75
  9
$DIMRND
 40
0.0
  9
$DIMDLE
 40
0.0
  9
$DIMEXE
 40
1.0
  9
$DIMTP
 40
0.0
  9
$DIMTM
 40
0.0
  9
$DIMTXT
 40
3.5
  9
$DIMCEN
 40
2.5
  9
$DIMTSZ
 40
0.0
  9
$DIMTOL
 70
     0
  9
$DIMLIM
 70
     0
  9
$DIMTIH
 70
     1
  9
$DIMTOH
 70
     1
  9
$DIMSE1
 70
     0
  9
$DIMSE2
 70
     0
  9
$DIMTAD
 70
     1
  9
$DIMZIN
 70
     0
  9
$DIMBLK
  1

  9
$DIMASO
 70
     1
  9
$DIMSHO
 70
     1
  9
$DIMPOST
  1

  9
$DIMAPOST
  1

  9
$DIMALT
 70
     0
  9
$DIMALTD
 70
     3
  9
$DIMALTF
 40
0.0393700787
  9
$DIMLFAC
 40
1.0
  9
$DIMTOFL
 70
     1
  9
$DIMTVP
 40
0.0
  9
$DIMTIX
 70
     0
  9
$DIMSOXD
 70
     0
  9
$DIMSAH
 70
     0
  9
$DIMBLK1
  1

  9
$DIMBLK2
  1

  9
$DIMSTYLE
  2
ISO-25
  9
$DIMCLRD
 70
     0
  9
$DIMCLRE
 70
     0
  9
$DIMCLRT
 70
     0
  9
$DIMTFAC
 40
1.0
  9
$DIMGAP
 40
1.524
  9
$DIMJUST
 70
     0
  9
$DIMSD1
 70
     0
  9
$DIMSD2
 70
     0
  9
$DIMTOLJ
 70
     0
  9
$DIMTZIN
 70
     0
  9
$DIMALTZ
 70
     0
  9
$DIMALTTZ
 70
     0
  9
$DIMUPT
 70
     0
  9
$DIMDEC
 70
     2
  9
$DIMTDEC
 70
     2
  9
$DIMALTU
 70
     2
  9
$DIMALTTD
 70
     3
  9
$DIMTXSTY
  7
Standard
  9
$DIMAUNIT
 70
     0
  9
$DIMADEC
 70
     2
  9
$DIMALTRND
 40
0.0
  9
$DIMAZIN
 70
     0
  9
$DIMDSEP
 70
    44
  9
$DIMATFIT
 70
     3
  9
$DIMFRAC
 70
     0
  9
$DIMLDRBLK
  1

  9
$DIMLUNIT
 70
     2
  9
$DIMLWD
 70
    -2
  9
$DIMLWE
 70
    -2
  9
$DIMTMOVE
 70
     0
  9
$LUNITS
 70
     2
  9
$LUPREC
 70
     2
  9
$SKETCHINC
 40
1.0
  9
$FILLETRAD
 40
10.0
  9
$AUNITS
 70
     0
  9
$AUPREC
 70
     2
  9
$MENU
  1
.
  9
$ELEVATION
 40
0.0
  9
$PELEVATION
 40
0.0
  9
$THICKNESS
 40
0.0
  9
$LIMCHECK
 70
     0
  9
$CHAMFERA
 40
0.0
  9
$CHAMFERB
 40
0.0
  9
$CHAMFERC
 40
0.0
  9
$CHAMFERD
 40
0.0
  9
$SKPOLY
 70
     0
  9
$TDCREATE
 40
2458859.497244467
  9
$TDUCREATE
 40
2458859.268077801
  9
$TDUPDATE
 40
2458859.497308565
  9
$TDUUPDATE
 40
2458859.268141898
  9
$TDINDWG
 40
0.0000000116
  9
$TDUSRTIMER
 40
0.0000000116
  9
$USRTIMER
 70
     1
  9
$ANGBASE
 50
0.0
  9
$ANGDIR
 70
     0
  9
$PDMODE
 70
     0
  9
$PDSIZE
 40
-1.0
  9
$PLINEWID
 40
0.0
  9
$SPLFRAME
 70
     0
  9
$SPLINETYPE
 70
     6
  9
$SPLINESEGS
 70
     8
  9
$HANDSEED
  5
58A
  9
$SURFTAB1
 70
     6
  9
$SURFTAB2
 70
     6
  9
$SURFTYPE
 70
     6
  9
$SURFU
 70
     6
  9
$SURFV
 70
     6
  9
$UCSBASE
  2

  9
$UCSNAME
  2

  9
$UCSORG
 10
0.0
 20
0.0
 30
0.0
  9
$UCSXDIR
 10
1.0
 20
0.0
 30
0.0
  9
$UCSYDIR
 10
0.0
 20
1.0
 30
0.0
  9
$UCSORTHOREF
  2

  9
$UCSORTHOVIEW
 70
     0
  9
$UCSORGTOP
 10
0.0
 20
0.0
 30
0.0
  9
$UCSORGBOTTOM
 10
0.0
 20
0.0
 30
0.0
  9
$UCSORGLEFT
 10
0.0
 20
0.0
 30
0.0
  9
$UCSORGRIGHT
 10
0.0
 20
0.0
 30
0.0
  9
$UCSORGFRONT
 10
0.0
 20
0.0
 30
0.0
  9
$UCSORGBACK
 10
0.0
 20
0.0
 30
0.0
  9
$PUCSBASE
  2

  9
$PUCSNAME
  2

  9
$PUCSORG
 10
0.0
 20
0.0
 30
0.0
  9
$PUCSXDIR
 10
1.0
 20
0.0
 30
0.0
  9
$PUCSYDIR
 10
0.0
 20
1.0
 30
0.0
  9
$PUCSORTHOREF
  2

  9
$PUCSORTHOVIEW
 70
     0
  9
$PUCSORGTOP
 10
0.0
 20
0.0
 30
0.0
  9
$PUCSORGBOTTOM
 10
0.0
 20
0.0
 30
0.0
  9
$PUCSORGLEFT
 10
0.0
 20
0.0
 30
0.0
  9
$PUCSORGRIGHT
 10
0.0
 20
0.0
 30
0.0
  9
$PUCSORGFRONT
 10
0.0
 20
0.0
 30
0.0
  9
$PUCSORGBACK
 10
0.0
 20
0.0
 30
0.0
  9
$USERI1
 70
     0
  9
$USERI2
 70
     0
  9
$USERI3
 70
     0
  9
$USERI4
 70
     0
  9
$USERI5
 70
     0
  9
$USERR1
 40
0.0
  9
$USERR2
 40
0.0
  9
$USERR3
 40
0.0
  9
$USERR4
 40
0.0
  9
$USERR5
 40
0.0
  9
$WORLDVIEW
 70
     1
  9
$SHADEDGE
 70
     3
  9
$SHADEDIF
 70
    70
  9
$TILEMODE
 70
     1
  9
$MAXACTVP
 70
    64
  9
$PINSBASE
 10
0.0
 20
0.0
 30
0.0
  9
$PLIMCHECK
 70
     0
  9
$PEXTMIN
 10
1.0000000000E+20
 20
1.0000000000E+20
 30
1.0000000000E+20
  9
$PEXTMAX
 10
-1.0000000000E+20
 20
-1.0000000000E+20
 30
-1.0000000000E+20
  9
$PLIMMIN
 10
0.0
 20
0.0
  9
$PLIMMAX
 10
420.0
 20
297.0
  9
$UNITMODE
 70
     0
  9
$VISRETAIN
 70
     1
  9
$PLINEGEN
 70
     0
  9
$PSLTSCALE
 70
     1
  9
$TREEDEPTH
 70
  3020
  9
$CMLSTYLE
  2
Standard
  9
$CMLJUST
 70
     0
  9
$CMLSCALE
 40
20.0
  9
$PROXYGRAPHICS
 70
     1
  9
$MEASUREMENT
 70
     1
  9
$CELWEIGHT
370
    -1
  9
$ENDCAPS
280
     0
  9
$JOINSTYLE
280
     0
  9
$LWDISPLAY
290
     1
  9
$INSUNITS
 70
     4
  9
$HYPERLINKBASE
  1

  9
$STYLESHEET
  1

  9
$XEDIT
290
     1
  9
$CEPSNTYPE
380
     0
  9
$PSTYLEMODE
290
     1
  9
$FINGERPRINTGUID
  2
{C14085AA-2234-4EEA-B79A-21B2D660D6E1}
  9
$VERSIONGUID
  2
{FAEB1C32-E019-11D5-929B-00C0DF256EC4}
  9
$EXTNAMES
290
     1
  9
$PSVPSCALE
 40
0.0
  9
$OLESTARTUP
290
     0
  0
ENDSEC
  0
SECTION
  2
CLASSES
  0
CLASS
  1
ACDBDICTIONARYWDFLT
  2
AcDbDictionaryWithDefault
  3
ObjectDBX Classes
 90
        0
280
     0
281
     0
  0
CLASS
  1
VISUALSTYLE
  2
AcDbVisualStyle
  3
ObjectDBX Classes
 90
     4095
280
     0
281
     0
  0
CLASS
  1
MATERIAL
  2
AcDbMaterial
  3
ObjectDBX Classes
 90
     1153
280
     0
281
     0
  0
CLASS
  1
SCALE
  2
AcDbScale
  3
ObjectDBX Classes
 90
     1153
280
     0
281
     0
  0
CLASS
  1
TABLESTYLE
  2
AcDbTableStyle
  3
ObjectDBX Classes
 90
     4095
280
     0
281
     0
  0
CLASS
  1
MLEADERSTYLE
  2
AcDbMLeaderStyle
  3
ACDB_MLEADERSTYLE_CLASS
 90
     4095
280
     0
281
     0
  0
CLASS
  1
SUN
  2
AcDbSun
  3
SCENEOE
 90
     1153
280
     0
281
     0
  0
CLASS
  1
ACDBPLACEHOLDER
  2
AcDbPlaceHolder
  3
ObjectDBX Classes
 90
        0
280
     0
281
     0
  0
CLASS
  1
LAYOUT
  2
AcDbLayout
  3
ObjectDBX Classes
 90
        0
280
     0
281
     0
  0
ENDSEC
  0
SECTION
  2
TABLES
  0
TABLE
  2
VPORT
  5
8
330
0
100
AcDbSymbolTable
 70
     1
  0
VPORT
  5
29
330
8
100
AcDbSymbolTableRecord
100
AcDbViewportTableRecord
  2
*Active
 70
     0
 10
0.0
 20
0.0
 11
1.0
 21
1.0
 12
1993.9505967003
 22
939.6821909223
 13
0.0
 23
0.0
 14
10.0
 24
10.0
 15
10.0
 25
10.0
 16
0.0
 26
0.0
 36
1.0
 17
0.0
 27
0.0
 37
0.0
 40
1830.2535608671
 41
2.1391796108
 42
50.0
 43
0.0
 44
0.0
 50
0.0
 51
0.0
 71
     0
 72
   100
 73
     1
 74
     3
 75
     0
 76
     0
 77
     0
 78
     0
281
     0
 65
     1
110
0.0
120
0.0
130
0.0
111
1.0
121
0.0
131
0.0
112
0.0
122
1.0
132
0.0
 79
     0
146
0.0
  0
ENDTAB
  0
TABLE
  2
LTYPE
  5
5
330
0
100
AcDbSymbolTable
 70
     6
  0
LTYPE
  5
14
330
5
100
AcDbSymbolTableRecord
100
AcDbLinetypeTableRecord
  2
ByBlock
 70
     0
  3

 72
    65
 73
     0
 40
0.0
  0
LTYPE
  5
15
330
5
100
AcDbSymbolTableRecord
100
AcDbLinetypeTableRecord
  2
ByLayer
 70
     0
  3

 72
    65
 73
     0
 40
0.0
  0
LTYPE
  5
16
330
5
100
AcDbSymbolTableRecord
100
AcDbLinetypeTableRecord
  2
Continuous
 70
     0
  3
Solid line
 72
    65
 73
     0
 40
0.0
  0
LTYPE
  5
6E
330
5
100
AcDbSymbolTableRecord
100
AcDbLinetypeTableRecord
  2
HIDDEN
 70
     0
  3
Hidden __ __ __ __ __ __ __ __ __ __ __ __ __ __
 72
    65
 73
     2
 40
1.905
 49
1.27
 74
     0
 49
-0.635
 74
     0
  0
LTYPE
  5
6F
330
5
100
AcDbSymbolTableRecord
100
AcDbLinetypeTableRecord
  2
PHANTOM
 70
     0
  3
Phantom ______  __  __  ______  __  __  ______
 72
    65
 73
     6
 40
12.7
 49
6.35
 74
     0
 49
-1.27
 74
     0
 49
1.27
 74
     0
 49
-1.27
 74
     0
 49
1.27
 74
     0
 49
-1.27
 74
     0
  0
LTYPE
  5
70
330
5
100
AcDbSymbolTableRecord
100
AcDbLinetypeTableRecord
  2
CENTER
 70
     0
  3
Center ____ _ ____ _ ____ _ ____ _ ____ _ ____
 72
    65
 73
     4
 40
10.16
 49
6.35
 74
     0
 49
-1.27
 74
     0
 49
1.27
 74
     0
 49
-1.27
 74
     0
  0
LTYPE
  5
71
330
5
100
AcDbSymbolTableRecord
100
AcDbLinetypeTableRecord
  2
CENTERX2
 70
     0
  3
Center (2x) ________  __  ________  __  _____
 72
    65
 73
     4
 40
20.32
 49
12.7
 74
     0
 49
-2.54
 74
     0
 49
2.54
 74
     0
 49
-2.54
 74
     0
  0
LTYPE
  5
72
330
5
100
AcDbSymbolTableRecord
100
AcDbLinetypeTableRecord
  2
DOT2
 70
     0
  3
Dot (.5x) ........................................
 72
    65
 73
     2
 40
0.635
 49
0.0
 74
     0
 49
-0.635
 74
     0
  0
ENDTAB
  0
TABLE
  2
LAYER
  5
2
330
0
100
AcDbSymbolTable
 70
     1
  0
LAYER
  5
10
330
2
100
AcDbSymbolTableRecord
100
AcDbLayerTableRecord
  2
0
 70
     0
 62
     7
  6
Continuous
370
    -3
390
F
  0
ENDTAB
  0
TABLE
  2
STYLE
  5
3
330
0
100
AcDbSymbolTable
 70
     1
  0
STYLE
  5
11
330
3
100
AcDbSymbolTableRecord
100
AcDbTextStyleTableRecord
  2
Standard
 70
     0
 40
0.0
 41
1.0
 50
0.0
 71
     0
 42
3.5
  3
txt
  4

  0
ENDTAB
  0
TABLE
  2
VIEW
  5
6
330
0
100
AcDbSymbolTable
 70
     0
  0
ENDTAB
  0
TABLE
  2
UCS
  5
7
330
0
100
AcDbSymbolTable
 70
     0
  0
ENDTAB
  0
TABLE
  2
APPID
  5
9
330
0
100
AcDbSymbolTable
 70
     1
  0
APPID
  5
12
330
9
100
AcDbSymbolTableRecord
100
AcDbRegAppTableRecord
  2
ACAD
 70
     0
  0
ENDTAB
  0
TABLE
  2
DIMSTYLE
  5
A
330
0
100
AcDbSymbolTable
 70
     1
100
AcDbDimStyleTable
  0
DIMSTYLE
105
27
330
A
100
AcDbSymbolTableRecord
100
AcDbDimStyleTableRecord
  2
ISO-25
 70
     0
 41
2.5
 42
0.625
 43
3.75
 44
1.25
 73
     0
 74
     0
 77
     1
 78
     8
140
2.5
141
2.5
143
0.0393700787
147
0.625
171
     3
172
     1
178
     0
271
     2
272
     2
274
     3
278
    44
283
     0
284
     8
340
11
  0
ENDTAB
  0
TABLE
  2
BLOCK_RECORD
  5
1
330
0
100
AcDbSymbolTable
 70
     1
  0
BLOCK_RECORD
  5
1F
330
1
100
AcDbSymbolTableRecord
100
AcDbBlockTableRecord
  2
*Model_Space
340
22
  0
BLOCK_RECORD
  5
1B
330
1
100
AcDbSymbolTableRecord
100
AcDbBlockTableRecord
  2
*Paper_Space
340
1E
  0
BLOCK_RECORD
  5
23
330
1
100
AcDbSymbolTableRecord
100
AcDbBlockTableRecord
  2
*Paper_Space0
340
26
  0
ENDTAB
  0
ENDSEC
  0
SECTION
  2
BLOCKS
  0
BLOCK
  5
20
330
1F
100
AcDbEntity
  8
0
100
AcDbBlockBegin
  2
*Model_Space
 70
     0
 10
0.0
 20
0.0
 30
0.0
  3
*Model_Space
  1

  0
ENDBLK
  5
21
330
1F
100
AcDbEntity
  8
0
100
AcDbBlockEnd
  0
BLOCK
  5
1C
330
1B
100
AcDbEntity
 67
     1
  8
0
100
AcDbBlockBegin
  2
*Paper_Space
 70
     0
 10
0.0
 20
0.0
 30
0.0
  3
*Paper_Space
  1

  0
ENDBLK
  5
1D
330
1B
100
AcDbEntity
 67
     1
  8
0
100
AcDbBlockEnd
  0
BLOCK
  5
24
330
23
100
AcDbEntity
  8
0
100
AcDbBlockBegin
  2
*Paper_Space0
 70
     0
 10
0.0
 20
0.0
 30
0.0
  3
*Paper_Space0
  1

  0
ENDBLK
  5
25
330
23
100
AcDbEntity
  8
0
100
AcDbBlockEnd
  0
ENDSEC
  0
SECTION
  2
ENTITIES
  0
SPLINE
  5
2C1
330
1F
100
AcDbEntity
  8
0
  6
Continuous
 62
     7
370
    15
100
AcDbSpline
210
0.0
220
0.0
230
1.0
 70
     8
 71
     3
 72
     8
 73
     4
 74
     0
 42
0.000000001
 43
0.00000001
 40
0.0
 40
0.0
 40
0.0
 40
0.0
 40
1.0
 40
1.0
 40
1.0
 40
1.0
 10
3498.897943050375
 20
387.3393880136657
 30
0.0
 10
3536.103325622152
 20
391.6260988405891
 30
0.0
 10
3559.265089671628
 20
377.3765772461005
 30
0.0
 10
3568.3832351988
 20
344.5908232302
 30
0.0
  0
SPLINE
  5
2C3
330
1F
100
AcDbEntity
  8
0
  6
Continuous
 62
     7
370
    15
100
AcDbSpline
210
0.0
220
0.0
230
1.0
 70
     8
 71
     3
 72
     8
 73
     4
 74
     0
 42
0.000000001
 43
0.00000001
 40
0.0
 40
0.0
 40
0.0
 40
0.0
 40
1.0
 40
1.0
 40
1.0
 40
1.0
 10
3506.795922246501
 20
288.9823473600001
 30
0.0
 10
3542.119934158972
 20
288.2623406084845
 30
0.0
 10
3562.843042039538
 20
304.6468233498179
 30
0.0
 10
3568.965245888201
 20
338.135795584
 30
0.0
  0
SPLINE
  5
2C6
330
1F
100
AcDbEntity
  8
0
  6
Continuous
 62
     7
370
    15
100
AcDbSpline
210
0.0
220
0.0
230
1.0
 70
     8
 71
     3
 72
     8
 73
     4
 74
     0
 42
0.000000001
 43
0.00000001
 40
0.0
 40
0.0
 40
0.0
 40
0.0
 40
1.0
 40
1.0
 40
1.0
 40
1.0
 10
3498.277402156
 20
257.9240889005
 30
0.0
 10
3535.594336950622
 20
259.2353797074697
 30
0.0
 10
3556.105804580522
 20
237.8950049856697
 30
0.0
 10
3559.8118050457
 20
193.9029647350999
 30
0.0
  0
SPLINE
  5
2C9
330
1F
100
AcDbEntity
  8
0
  6
Continuous
 62
     7
370
    15
100
AcDbSpline
210
0.0
220
0.0
230
1.0
 70
     8
 71
     3
 72
     8
 73
     4
 74
     0
 42
0.000000001
 43
0.00000001
 40
0.0
 40
0.0
 40
0.0
 40
0.0
 40
1.0
 40
1.0
 40
1.0
 40
1.0
 10
3568.5948754495
 20
268.4532430425
 30
0.0
 10
3608.305242742245
 20
234.8536828239966
 30
0.0
 10
3633.005664793746
 20
191.8461896307633
 30
0.0
 10
3642.696141604
 20
139.4307634628
 30
0.0
  0
SPLINE
  5
2CB
330
1F
100
AcDbEntity
  8
0
  6
Continuous
 62
     7
370
    15
100
AcDbSpline
210
0.0
220
0.0
230
1.0
 70
     8
 71
     3
 72
    10
 73
     6
 74
     0
 42
0.000000001
 43
0.00000001
 40
0.0
 40
0.0
 40
0.0
 40
0.0
 40
0.4841751776143116
 40
0.6888732684861496
 40
1.0
 40
1.0
 40
1.0
 40
1.0
 10
3504.188949317774
 20
420.0907168087656
 30
0.0
 10
3540.655385437002
 20
430.0735619306714
 30
0.0
 10
3606.78229328125
 20
400.7951643317268
 30
0.0
 10
3610.13520214153
 20
315.4098791124244
 30
0.0
 10
3581.004512782094
 20
281.3672403054201
 30
0.0
 10
3558.2245031654
 20
271.7336669283
 30
0.0
  0
SPLINE
  5
2DC
330
1F
100
AcDbEntity
  8
0
  6
Continuous
 62
     7
370
    15
100
AcDbSpline
210
0.0
220
0.0
230
1.0
 70
     8
 71
     3
 72
     9
 73
     5
 74
     0
 42
0.000000001
 43
0.00000001
 40
0.0
 40
0.0
 40
0.0
 40
0.0
 40
0.5142732405933408
 40
1.0
 40
1.0
 40
1.0
 40
1.0
 10
1063.5824427345
 20
1399.8607404062
 30
0.0
 10
1109.758463566638
 20
1335.759604592879
 30
0.0
 10
1225.32620945161
 20
1213.75921837704
 30
0.0
 10
1393.747068996145
 20
1203.645966830258
 30
0.0
 10
1467.829071612645
 20
1230.122542423334
 30
0.0
  0
SPLINE
  5
2DD
330
1F
100
AcDbEntity
  8
0
  6
Continuous
 62
     7
370
    15
100
AcDbSpline
210
0.0
220
0.0
230
1.0
 70
     8
 71
     3
 72
    11
 73
     7
 74
     0
 42
0.000000001
 43
0.00000001
 40
0.0
 40
0.0
 40
0.0
 40
0.0
 40
0.3726949316550789
 40
0.5194915937455379
 40
0.6996616126197901
 40
1.0
 40
1.0
 40
1.0
 40
1.0
 10
960.8149084635
 20
1690.47880018
 30
0.0
 10
971.2391490708042
 20
1637.587815676362
 30
0.0
 10
1011.316960570963
 20
1574.093338986186
 30
0.0
 10
1080.628088297084
 20
1502.786709728512
 30
0.0
 10
1155.922080037621
 20
1454.329700870069
 30
0.0
 10
1222.275214584655
 20
1433.117518950776
 30
0.0
 10
1265.0586274346
 20
1432.4183494623
 30
0.0
  0
SPLINE
  5
2DE
330
1F
100
AcDbEntity
  8
0
  6
Continuous
 62
     7
370
    15
100
AcDbSpline
210
0.0
220
0.0
230
1.0
 70
     8
 71
     3
 72
    10
 73
     6
 74
     0
 42
0.000000001
 43
0.00000001
 40
0.0
 40
0.0
 40
0.0
 40
0.0
 40
0.4251997697086867
 40
0.6427179350324639
 40
1.0
 40
1.0
 40
1.0
 40
1.0
 10
2368.168873787796
 20
1126.268321754002
 30
0.0
 10
2462.344699876654
 20
1093.184307540048
 30
0.0
 10
2611.282981184438
 20
1097.977529407089
 30
0.0
 10
2840.217417401213
 20
1080.333454382034
 30
0.0
 10
2973.376441729532
 20
1080.911809354058
 30
0.0
 10
3053.860055454036
 20
1099.315292873051
 30
0.0
  0
SPLINE
  5
2DF
330
1F
100
AcDbEntity
  8
0
  6
Continuous
 62
     7
370
    15
100
AcDbSpline
210
0.0
220
0.0
230
1.0
 70
     8
 71
     3
 72
    10
 73
     6
 74
     0
 42
0.000000001
 43
0.00000001
 40
0.0
 40
0.0
 40
0.0
 40
0.0
 40
0.3149603976522537
 40
0.5279811573407788
 40
0.9590855885516328
 40
0.9590855885516328
 40
0.9590855885516328
 40
0.9590855885516328
 10
2358.781387998823
 20
1116.610313033002
 30
0.0
 10
2410.583079463493
 20
1099.630899555889
 30
0.0
 10
2500.902534931263
 20
1082.877296906658
 30
0.0
 10
2666.651819110988
 20
1076.395199605763
 30
0.0
 10
2777.693734414826
 20
1066.99719031008
 30
0.0
 10
2852.302444571299
 20
1069.365715410531
 30
0.0
  0
SPLINE
  5
2E0
330
1F
100
AcDbEntity
  8
0
  6
Continuous
 62
     7
370
    15
100
AcDbSpline
210
0.0
220
0.0
230
1.0
 70
     8
 71
     3
 72
     8
 73
     4
 74
     0
 42
0.000000001
 43
0.00000001
 40
0.0
 40
0.0
 40
0.0
 40
0.0
 40
1.0
 40
1.0
 40
1.0
 40
1.0
 10
1455.496024894547
 20
1192.264714680837
 30
0.0
 10
1435.786485020778
 20
1088.555555785732
 30
0.0
 10
1474.091550720593
 20
984.2872420380118
 30
0.0
 10
1501.562180970491
 20
885.6215666918742
 30
0.0
  0
SPLINE
  5
2E1
330
1F
100
AcDbEntity
  8
0
  6
Continuous
 62
     7
370
    15
100
AcDbSpline
210
0.0
220
0.0
230
1.0
 70
     8
 71
     3
 72
    10
 73
     6
 74
     0
 42
0.000000001
 43
0.00000001
 40
0.0
 40
0.0
 40
0.0
 40
0.0
 40
0.439216547290562
 40
0.6702695045334943
 40
1.0
 40
1.0
 40
1.0
 40
1.0
 10
2141.722027168304
 20
1330.327682850662
 30
0.0
 10
2143.983812805262
 20
1321.427387994118
 30
0.0
 10
2158.308213958327
 20
1312.204628887197
 30
0.0
 10
2178.074225572021
 20
1321.790112133054
 30
0.0
 10
2181.974216699591
 20
1334.163150009083
 30
0.0
 10
2179.881454193692
 20
1340.614137092289
 30
0.0
  0
SPLINE
  5
2E2
330
1F
100
AcDbEntity
  8
0
  6
Continuous
 62
     7
370
    15
100
AcDbSpline
210
0.0
220
0.0
230
1.0
 70
     8
 71
     3
 72
     9
 73
     5
 74
     0
 42
0.000000001
 43
0.00000001
 40
0.0
 40
0.0
 40
0.0
 40
0.0
 40
0.559644806430233
 40
1.0
 40
1.0
 40
1.0
 40
1.0
 10
1886.807225585615
 20
1528.412112496401
 30
0.0
 10
1967.209777265434
 20
1543.32020153283
 30
0.0
 10
2117.81147894296
 20
1533.513741628735
 30
0.0
 10
2250.314945216986
 20
1466.612040714472
 30
0.0
 10
2301.797880005189
 20
1427.957494352791
 30
0.0
  0
SPLINE
  5
2E4
330
1F
100
AcDbEntity
  8
0
  6
Continuous
 62
     7
370
    15
100
AcDbSpline
210
0.0
220
0.0
230
1.0
 70
     8
 71
     3
 72
    14
 73
    10
 74
     0
 42
0.000000001
 43
0.00000001
 40
0.0
 40
0.0
 40
0.0
 40
0.0
 40
0.1622220801093209
 40
0.2350957339244781
 40
0.3469056838000075
 40
0.5020177821076137
 40
0.6484743765895127
 40
0.7761927097585491
 40
1.0
 40
1.0
 40
1.0
 40
1.0
 10
1787.757935907116
 20
646.5872219443246
 30
0.0
 10
1752.719615769384
 20
684.1298229949766
 30
0.0
 10
1735.580844909158
 20
759.4395697818737
 30
0.0
 10
1740.198975584068
 20
866.1257769782243
 30
0.0
 10
1771.386830118049
 20
971.6058559982681
 30
0.0
 10
1882.830407706553
 20
1049.26778080336
 30
0.0
 10
2007.405282087142
 20
1093.767053354575
 30
0.0
 10
2159.095382832036
 20
1124.736995662278
 30
0.0
 10
2268.313570041567
 20
1130.305223692735
 30
0.0
 10
2337.514299232293
 20
1126.268321754002
 30
0.0
  0
SPLINE
  5
2E6
330
1F
100
AcDbEntity
  8
0
  6
Continuous
 62
     7
370
    15
100
AcDbSpline
210
0.0
220
0.0
230
1.0
 70
     8
 71
     3
 72
     8
 73
     4
 74
     0
 42
0.000000001
 43
0.00000001
 40
0.0
 40
0.0
 40
0.0
 40
0.0
 40
1.0
 40
1.0
 40
1.0
 40
1.0
 10
1133.7553289899
 20
1700.5703471718
 30
0.0
 10
1130.201105023781
 20
1650.585934939178
 30
0.0
 10
1133.18890335058
 20
1601.033532179428
 30
0.0
 10
1142.718723970337
 20
1551.913138892545
 30
0.0
  0
SPLINE
  5
2E7
330
1F
100
AcDbEntity
  8
0
  6
Continuous
 62
     7
370
    15
100
AcDbSpline
210
0.0
220
0.0
230
1.0
 70
     8
 71
     3
 72
     9
 73
     5
 74
     0
 42
0.000000001
 43
0.00000001
 40
0.0
 40
0.0
 40
0.0
 40
0.0
 40
0.3745578573367965
 40
1.0
 40
1.0
 40
1.0
 40
1.0
 10
2403.640946393723
 20
1272.802964577424
 30
0.0
 10
2402.132224654946
 20
1252.449023945204
 30
0.0
 10
2388.53453050632
 20
1199.270020956289
 30
0.0
 10
2359.726459771167
 20
1151.993945021349
 30
0.0
 10
2337.514299232293
 20
1126.268321754002
 30
0.0
  0
SPLINE
  5
2E8
330
1F
100
AcDbEntity
  8
0
  6
Continuous
 62
     7
370
    15
100
AcDbSpline
210
0.0
220
0.0
230
1.0
 70
     8
 71
     3
 72
     8
 73
     4
 74
     0
 42
0.000000001
 43
0.00000001
 40
0.0
 40
0.0
 40
0.0
 40
0.0
 40
1.0
 40
1.0
 40
1.0
 40
1.0
 10
2328.7625857646
 20
1343.2965563408
 30
0.0
 10
2352.973676207012
 20
1319.008411146085
 30
0.0
 10
2377.93312975004
 20
1295.510547224946
 30
0.0
 10
2403.640946393723
 20
1272.802964577424
 30
0.0
  0
SPLINE
  5
2EA
330
1F
100
AcDbEntity
  8
0
  6
Continuous
 62
     7
370
    15
100
AcDbSpline
210
0.0
220
0.0
230
1.0
 70
     8
 71
     3
 72
    14
 73
    10
 74
     0
 42
0.000000001
 43
0.00000001
 40
0.0
 40
0.0
 40
0.0
 40
0.0
 40
0.2869718352406311
 40
0.45569576850368
 40
0.5718180937653502
 40
0.6785351663754843
 40
0.7733776764429895
 40
0.8832098997341524
 40
1.0
 40
1.0
 40
1.0
 40
1.0
 10
1550.940727439835
 20
1161.68102039767
 30
0.0
 10
1629.058818567894
 20
1196.06485006808
 30
0.0
 10
1763.184113433969
 20
1245.590746166558
 30
0.0
 10
1937.490250868721
 20
1218.130096090202
 30
0.0
 10
2045.033803499249
 20
1168.388788874229
 30
0.0
 10
2141.560908945575
 20
1158.244473803058
 30
0.0
 10
2235.467291671261
 20
1169.330098234122
 30
0.0
 10
2323.046412030038
 20
1222.920453428767
 30
0.0
 10
2344.804577336236
 20
1296.300473466903
 30
0.0
 10
2332.6852948718
 20
1330.3276828507
 30
0.0
  0
SPLINE
  5
2EB
330
1F
100
AcDbEntity
  8
0
  6
Continuous
 62
     7
370
    15
100
AcDbSpline
210
0.0
220
0.0
230
1.0
 70
     8
 71
     3
 72
     9
 73
     5
 74
     0
 42
0.000000001
 43
0.00000001
 40
0.0
 40
0.0
 40
0.0
 40
0.0
 40
0.5330153901634345
 40
1.0
 40
1.0
 40
1.0
 40
1.0
 10
1656.624684401776
 20
725.460959832493
 30
0.0
 10
1603.480035270682
 20
793.1472400722348
 30
0.0
 10
1575.323008459705
 20
940.1177305961882
 30
0.0
 10
1505.598618127773
 20
1096.246293966201
 30
0.0
 10
1550.940727439835
 20
1161.68102039767
 30
0.0
  0
SPLINE
  5
2EC
330
1F
100
AcDbEntity
  8
0
  6
Continuous
 62
     7
370
    15
100
AcDbSpline
210
0.0
220
0.0
230
1.0
 70
     8
 71
     3
 72
     8
 73
     4
 74
     0
 42
0.000000001
 43
0.00000001
 40
0.0
 40
0.0
 40
0.0
 40
0.0
 40
1.0
 40
1.0
 40
1.0
 40
1.0
 10
1656.624684401776
 20
725.460959832493
 30
0.0
 10
1695.895226635205
 20
691.944530591136
 30
0.0
 10
1739.606310470318
 20
665.6532846284131
 30
0.0
 10
1787.757935907116
 20
646.5872219443246
 30
0.0
  0
SPLINE
  5
2ED
330
1F
100
AcDbEntity
  8
0
  6
Continuous
 62
     7
370
    15
100
AcDbSpline
210
0.0
220
0.0
230
1.0
 70
     8
 71
     3
 72
     9
 73
     5
 74
     0
 42
0.000000001
 43
0.00000001
 40
0.0
 40
0.0
 40
0.0
 40
0.0
 40
0.5352215466938159
 40
1.0
 40
1.0
 40
1.0
 40
1.0
 10
1186.854837006476
 20
1580.816037204694
 30
0.0
 10
1230.778796306699
 20
1528.476318479829
 30
0.0
 10
1342.77580505445
 20
1460.331398376172
 30
0.0
 10
1470.660295883822
 20
1442.262052012031
 30
0.0
 10
1529.500486344
 20
1446.6439196326
 30
0.0
  0
SPLINE
  5
2EE
330
1F
100
AcDbEntity
  8
0
  6
Continuous
 62
     7
370
    15
100
AcDbSpline
210
0.0
220
0.0
230
1.0
 70
     8
 71
     3
 72
    11
 73
     7
 74
     0
 42
0.000000001
 43
0.00000001
 40
0.0
 40
0.0
 40
0.0
 40
0.0
 40
0.4505548277032797
 40
0.5861043609979282
 40
0.7354111010136757
 40
1.0
 40
1.0
 40
1.0
 40
1.0
 10
1550.940727439835
 20
1207.707744914085
 30
0.0
 10
1638.574024541156
 20
1215.907731787776
 30
0.0
 10
1729.311864100791
 20
1285.441603816419
 30
0.0
 10
1863.714888999608
 20
1326.644015630748
 30
0.0
 10
1944.538126752571
 20
1395.371735120653
 30
0.0
 10
2024.34945987441
 20
1411.444561613451
 30
0.0
 10
2067.455626566004
 20
1436.728502073802
 30
0.0
  0
SPLINE
  5
2EF
330
1F
100
AcDbEntity
  8
0
  6
Continuous
 62
     7
370
    15
100
AcDbSpline
210
0.0
220
0.0
230
1.0
 70
     8
 71
     3
 72
    15
 73
    11
 74
     0
 42
0.000000001
 43
0.00000001
 40
0.0
 40
0.0
 40
0.0
 40
0.0
 40
0.1776439535597863
 40
0.3169952956811566
 40
0.4559335599004982
 40
0.5627110261742474
 40
0.6410197048559645
 40
0.7551998491274166
 40
0.8329221088244039
 40
1.0
 40
1.0
 40
1.0
 40
1.0
 10
1455.496024894547
 20
1559.025923977677
 30
0.0
 10
1497.174583212397
 20
1519.6525272844
 30
0.0
 10
1592.025959895337
 20
1503.969792971626
 30
0.0
 10
1729.658654118129
 20
1507.695106814914
 30
0.0
 10
1838.717652520338
 20
1548.162640239535
 30
0.0
 10
1935.100780333936
 20
1559.653616975151
 30
0.0
 10
2025.129445628754
 20
1562.312358279961
 30
0.0
 10
2103.303049618209
 20
1539.541097769024
 30
0.0
 10
2207.150331107318
 20
1510.37664181278
 30
0.0
 10
2263.88285660477
 20
1458.995467018507
 30
0.0
 10
2301.797880005189
 20
1427.957494352791
 30
0.0
  0
SPLINE
  5
2F0
330
1F
100
AcDbEntity
  8
0
  6
Continuous
 62
     7
370
    15
100
AcDbSpline
210
0.0
220
0.0
230
1.0
 70
     8
 71
     3
 72
    11
 73
     7
 74
     0
 42
0.000000001
 43
0.00000001
 40
0.0
 40
0.0
 40
0.0
 40
0.0
 40
0.3477464337838231
 40
0.4853936546101985
 40
0.6866433174978205
 40
1.0
 40
1.0
 40
1.0
 40
1.0
 10
1455.496024894547
 20
1559.025923977677
 30
0.0
 10
1488.527362182663
 20
1514.71405491323
 30
0.0
 10
1561.214393009479
 20
1484.746364244732
 30
0.0
 10
1666.295795108854
 20
1472.879966475431
 30
0.0
 10
1766.842041535094
 20
1485.372187553902
 30
0.0
 10
1842.415150849012
 20
1509.539535454853
 30
0.0
 10
1886.807225585615
 20
1528.412112496401
 30
0.0
  0
SPLINE
  5
2F1
330
1F
100
AcDbEntity
  8
0
  6
Continuous
 62
     7
370
    15
100
AcDbSpline
210
0.0
220
0.0
230
1.0
 70
     8
 71
     3
 72
    13
 73
     9
 74
     0
 42
0.000000001
 43
0.00000001
 40
0.0
 40
0.0
 40
0.0
 40
0.0
 40
0.1486010737555959
 40
0.2616447218781714
 40
0.4090008426664027
 40
0.5186995138322923
 40
0.7454236450907971
 40
1.0
 40
1.0
 40
1.0
 40
1.0
 10
2141.722027168304
 20
1330.327682850662
 30
0.0
 10
2130.011634270533
 20
1323.261486063622
 30
0.0
 10
2112.170475871221
 20
1306.928366411856
 30
0.0
 10
2104.165770270697
 20
1264.041354251289
 30
0.0
 10
2142.363445824912
 20
1245.058804229735
 30
0.0
 10
2185.365276100987
 20
1252.15908345702
 30
0.0
 10
2236.921915256131
 20
1292.360582018193
 30
0.0
 10
2210.752788461927
 20
1349.220050821818
 30
0.0
 10
2179.881454193692
 20
1340.614137092289
 30
0.0
  0
SPLINE
  5
2F2
330
1F
100
AcDbEntity
  8
0
  6
Continuous
 62
     7
370
    15
100
AcDbSpline
210
0.0
220
0.0
230
1.0
 70
     8
 71
     3
 72
     8
 73
     4
 74
     0
 42
0.000000001
 43
0.00000001
 40
0.0
 40
0.0
 40
0.0
 40
0.0
 40
1.0
 40
1.0
 40
1.0
 40
1.0
 10
1300.135655383519
 20
1181.384105001817
 30
0.0
 10
1351.999486794905
 20
1172.050982820144
 30
0.0
 10
1403.786276631915
 20
1175.67785271315
 30
0.0
 10
1455.496024894547
 20
1192.264714680837
 30
0.0
  0
SPLINE
  5
2F3
330
1F
100
AcDbEntity
  8
0
  6
Continuous
 62
     7
370
    15
100
AcDbSpline
210
0.0
220
0.0
230
1.0
 70
     8
 71
     3
 72
     8
 73
     4
 74
     0
 42
0.000000001
 43
0.00000001
 40
0.0
 40
0.0
 40
0.0
 40
0.0
 40
1.0
 40
1.0
 40
1.0
 40
1.0
 10
1300.135655383519
 20
1181.384105001817
 30
0.0
 10
1322.487029574136
 20
1080.543893134133
 30
0.0
 10
1360.122778002195
 20
985.4007211079993
 30
0.0
 10
1413.042900667696
 20
895.9545889234168
 30
0.0
  0
SPLINE
  5
2F4
330
1F
100
AcDbEntity
  8
0
  6
Continuous
 62
     7
370
    15
100
AcDbSpline
210
0.0
220
0.0
230
1.0
 70
     8
 71
     3
 72
     8
 73
     4
 74
     0
 42
0.000000001
 43
0.00000001
 40
0.0
 40
0.0
 40
0.0
 40
0.0
 40
1.0
 40
1.0
 40
1.0
 40
1.0
 10
1413.042900667696
 20
895.9545889234168
 30
0.0
 10
1456.305553180983
 20
819.5025376028946
 30
0.0
 10
1521.681976693945
 20
760.839911020539
 30
0.0
 10
1586.436196823219
 20
703.3533884785171
 30
0.0
  0
SPLINE
  5
2F5
330
1F
100
AcDbEntity
  8
0
  6
Continuous
 62
     7
370
    15
100
AcDbSpline
210
0.0
220
0.0
230
1.0
 70
     8
 71
     3
 72
     8
 73
     4
 74
     0
 42
0.000000001
 43
0.00000001
 40
0.0
 40
0.0
 40
0.0
 40
0.0
 40
1.0
 40
1.0
 40
1.0
 40
1.0
 10
1399.0866077182
 20
1061.2507960195
 30
0.0
 10
1431.208507194684
 20
929.2378536666059
 30
0.0
 10
1496.962976192242
 20
805.5017514670462
 30
0.0
 10
1586.436196823219
 20
703.3533884785171
 30
0.0
  0
SPLINE
  5
2F7
330
1F
100
AcDbEntity
  8
0
  6
Continuous
 62
     7
370
    15
100
AcDbSpline
210
0.0
220
0.0
230
1.0
 70
     8
 71
     3
 72
     9
 73
     5
 74
     0
 42
0.000000001
 43
0.00000001
 40
0.0
 40
0.0
 40
0.0
 40
0.0
 40
0.6508995404690667
 40
1.0
 40
1.0
 40
1.0
 40
1.0
 10
1390.4614516109
 20
1127.8779898742
 30
0.0
 10
1414.322218831368
 20
1075.872347577708
 30
0.0
 10
1422.095879995692
 20
978.707668639727
 30
0.0
 10
1490.375360585991
 20
915.3321914421442
 30
0.0
 10
1501.562180970491
 20
885.6215666918742
 30
0.0
  0
SPLINE
  5
2F8
330
1F
100
AcDbEntity
  8
0
  6
Continuous
 62
     7
370
    15
100
AcDbSpline
210
0.0
220
0.0
230
1.0
 70
     8
 71
     3
 72
     8
 73
     4
 74
     0
 42
0.000000001
 43
0.00000001
 40
0.0
 40
0.0
 40
0.0
 40
0.0
 40
1.0
 40
1.0
 40
1.0
 40
1.0
 10
2301.797880005189
 20
1052.176970921321
 30
0.0
 10
2327.239398387641
 20
1067.804197994675
 30
0.0
 10
2346.233901052186
 20
1089.281978698569
 30
0.0
 10
2358.781387998823
 20
1116.610313033002
 30
0.0
  0
SPLINE
  5
2F9
330
1F
100
AcDbEntity
  8
0
  6
Continuous
 62
     7
370
    15
100
AcDbSpline
210
0.0
220
0.0
230
1.0
 70
     8
 71
     3
 72
    10
 73
     6
 74
     0
 42
0.000000001
 43
0.00000001
 40
0.0
 40
0.0
 40
0.0
 40
0.0
 40
0.3128820357629735
 40
0.4427941291009014
 40
0.9627847964619816
 40
0.9627847964619816
 40
0.9627847964619816
 40
0.9627847964619816
 10
2301.797880005189
 20
1052.176970921321
 30
0.0
 10
2360.874488061385
 20
1039.833009885622
 30
0.0
 10
2445.75290971099
 20
1045.626804172806
 30
0.0
 10
2629.756437310812
 20
1041.477384932548
 30
0.0
 10
2753.334799457396
 20
1064.120679790817
 30
0.0
 10
2852.302444571299
 20
1069.365715410531
 30
0.0
  0
SPLINE
  5
2FA
330
1F
100
AcDbEntity
  8
0
  6
Continuous
 62
     7
370
    15
100
AcDbSpline
210
0.0
220
0.0
230
1.0
 70
     8
 71
     3
 72
     9
 73
     5
 74
     0
 42
0.000000001
 43
0.00000001
 40
0.0
 40
0.0
 40
0.0
 40
0.0
 40
0.4802570989101397
 40
1.0
 40
1.0
 40
1.0
 40
1.0
 10
2422.399141506708
 20
1313.952333932145
 30
0.0
 10
2513.690846111957
 20
1257.572796772969
 30
0.0
 10
2717.454652609391
 20
1158.542019482384
 30
0.0
 10
2940.13508432319
 20
1122.011484815575
 30
0.0
 10
3053.860055454036
 20
1099.315292873051
 30
0.0
  0
SPLINE
  5
2FB
330
1F
100
AcDbEntity
  8
0
  6
Continuous
 62
     7
370
    15
100
AcDbSpline
210
0.0
220
0.0
230
1.0
 70
     8
 71
     3
 72
     8
 73
     4
 74
     0
 42
0.000000001
 43
0.00000001
 40
0.0
 40
0.0
 40
0.0
 40
0.0
 40
1.0
 40
1.0
 40
1.0
 40
1.0
 10
2422.399141506708
 20
1313.952333932145
 30
0.0
 10
2439.050965963228
 20
1245.192771870307
 30
0.0
 10
2420.974210056925
 20
1182.631434477593
 30
0.0
 10
2368.168873787796
 20
1126.268321754002
 30
0.0
  0
SPLINE
  5
2FD
330
1F
100
AcDbEntity
  8
0
  6
Continuous
 62
     7
370
    15
100
AcDbSpline
210
0.0
220
0.0
230
1.0
 70
     8
 71
     3
 72
    10
 73
     6
 74
     0
 42
0.000000001
 43
0.00000001
 40
0.0
 40
0.0
 40
0.0
 40
0.0
 40
0.3979770598715038
 40
0.6511870692632516
 40
1.0
 40
1.0
 40
1.0
 40
1.0
 10
962.7652613164998
 20
1700.5703471718
 30
0.0
 10
973.3847499357129
 20
1645.473235499941
 30
0.0
 10
1021.887231866811
 20
1569.317555082845
 30
0.0
 10
1127.718503109568
 20
1479.663027372938
 30
0.0
 10
1208.776243195477
 20
1455.95430732311
 30
0.0
 10
1255.1007283154
 20
1446.6439196326
 30
0.0
  0
SPLINE
  5
2FF
330
1F
100
AcDbEntity
  8
0
  6
Continuous
 62
     7
370
    15
100
AcDbSpline
210
0.0
220
0.0
230
1.0
 70
     8
 71
     3
 72
    12
 73
     8
 74
     0
 42
0.000000001
 43
0.00000001
 40
0.0
 40
0.0
 40
0.0
 40
0.0
 40
0.274699697603453
 40
0.4458229325187658
 40
0.634339763112718
 40
0.7982370225027191
 40
1.0
 40
1.0
 40
1.0
 40
1.0
 10
1521.704035036467
 20
1222.326091115769
 30
0.0
 10
1574.045424613357
 20
1236.927913178936
 30
0.0
 10
1651.931858965321
 20
1278.013597595651
 30
0.0
 10
1765.691749917571
 20
1329.401840383934
 30
0.0
 10
1852.330917675723
 20
1386.826913230452
 30
0.0
 10
1957.753843132416
 20
1417.80062694124
 30
0.0
 10
2027.107198548441
 20
1436.266787466164
 30
0.0
 10
2067.455626566004
 20
1436.728502073802
 30
0.0
  0
SPLINE
  5
300
330
1F
100
AcDbEntity
  8
0
  6
Continuous
 62
     7
370
    15
100
AcDbSpline
210
0.0
220
0.0
230
1.0
 70
     8
 71
     3
 72
     8
 73
     4
 74
     0
 42
0.000000001
 43
0.00000001
 40
0.0
 40
0.0
 40
0.0
 40
0.0
 40
1.0
 40
1.0
 40
1.0
 40
1.0
 10
1521.704035036467
 20
1222.326091115769
 30
0.0
 10
1525.21842937391
 20
1207.256559335516
 30
0.0
 10
1534.963993508366
 20
1202.383777268288
 30
0.0
 10
1550.940727439835
 20
1207.707744914085
 30
0.0
  0
SPLINE
  5
301
330
1F
100
AcDbEntity
  8
0
  6
Continuous
 62
     7
370
    15
100
AcDbSpline
210
0.0
220
0.0
230
1.0
 70
     8
 71
     3
 72
    12
 73
     8
 74
     0
 42
0.000000001
 43
0.00000001
 40
0.0
 40
0.0
 40
0.0
 40
0.0
 40
0.2390750356365305
 40
0.3721530430808407
 40
0.5390461337307463
 40
0.7425628355464128
 40
1.0
 40
1.0
 40
1.0
 40
1.0
 10
1966.6571846847
 20
608.0292263095
 30
0.0
 10
1920.027071364518
 20
653.4313112722202
 30
0.0
 10
1866.261450996484
 20
745.9864222256166
 30
0.0
 10
1878.314506504466
 20
898.9276176272398
 30
0.0
 10
1968.448004852621
 20
1010.124756580574
 30
0.0
 10
2120.633301333915
 20
1095.139044260933
 30
0.0
 10
2249.290148392918
 20
1103.585264292356
 30
0.0
 10
2318.6233219242
 20
1099.3152928731
 30
0.0
  0
SPLINE
  5
303
330
1F
100
AcDbEntity
  8
0
  6
Continuous
 62
     7
370
    15
100
AcDbSpline
210
0.0
220
0.0
230
1.0
 70
     8
 71
     3
 72
    10
 73
     6
 74
     0
 42
0.000000001
 43
0.00000001
 40
0.0
 40
0.0
 40
0.0
 40
0.0
 40
0.3031794595079987
 40
0.6830607511878362
 40
1.0
 40
1.0
 40
1.0
 40
1.0
 10
1186.854837006476
 20
1580.816037204694
 30
0.0
 10
1208.266043970745
 20
1545.41537055852
 30
0.0
 10
1277.66183651245
 20
1479.521567681896
 30
0.0
 10
1408.638456530117
 20
1432.600214408153
 30
0.0
 10
1504.38136721623
 20
1423.731941658998
 30
0.0
 10
1546.9924472358
 20
1432.4183494623
 30
0.0
  0
SPLINE
  5
306
330
1F
100
AcDbEntity
  8
0
  6
Continuous
 62
     7
370
    15
100
AcDbSpline
210
0.0
220
0.0
230
1.0
 70
     8
 71
     3
 72
     8
 73
     4
 74
     0
 42
0.000000001
 43
0.00000001
 40
0.0
 40
0.0
 40
0.0
 40
0.0
 40
1.0
 40
1.0
 40
1.0
 40
1.0
 10
1142.7187239703
 20
1700.5703471718
 30
0.0
 10
1211.359051314026
 20
1606.411438946273
 30
0.0
 10
1303.190339893242
 20
1542.159280343918
 30
0.0
 10
1418.212589707984
 20
1507.81387136473
 30
0.0
  0
SPLINE
  5
307
330
1F
100
AcDbEntity
  8
0
  6
Continuous
 62
     7
370
    15
100
AcDbSpline
210
0.0
220
0.0
230
1.0
 70
     8
 71
     3
 72
     8
 73
     4
 74
     0
 42
0.000000001
 43
0.00000001
 40
0.0
 40
0.0
 40
0.0
 40
0.0
 40
1.0
 40
1.0
 40
1.0
 40
1.0
 10
1390.461451610861
 20
1690.478800179991
 30
0.0
 10
1376.462300933596
 20
1628.955356194089
 30
0.0
 10
1393.402665769704
 20
1564.273941511163
 30
0.0
 10
1418.212589707984
 20
1507.81387136473
 30
0.0
  0
SPLINE
  5
308
330
1F
100
AcDbEntity
  8
0
  6
Continuous
 62
     7
370
    15
100
AcDbSpline
210
0.0
220
0.0
230
1.0
 70
     8
 71
     3
 72
    13
 73
     9
 74
     0
 42
0.000000001
 43
0.00000001
 40
0.0
 40
0.0
 40
0.0
 40
0.0
 40
0.2124429025074654
 40
0.3574997754392975
 40
0.4362184255337986
 40
0.5338735859823758
 40
0.6629371338858786
 40
1.0
 40
1.0
 40
1.0
 40
1.0
 10
1390.461451610861
 20
1690.478800179991
 30
0.0
 10
1434.110650858224
 20
1609.620780302
 30
0.0
 10
1575.955622180916
 20
1562.259565306405
 30
0.0
 10
1752.680369717028
 20
1565.752476580527
 30
0.0
 10
1869.857381339508
 20
1618.003766615772
 30
0.0
 10
1990.217141005734
 20
1639.271017096758
 30
0.0
 10
2216.928884360338
 20
1609.481837887514
 30
0.0
 10
2362.911873823291
 20
1469.916798675477
 30
0.0
 10
2441.34186156041
 20
1367.029574207136
 30
0.0
  0
SPLINE
  5
309
330
1F
100
AcDbEntity
  8
0
  6
Continuous
 62
     7
370
    15
100
AcDbSpline
210
0.0
220
0.0
230
1.0
 70
     8
 71
     3
 72
     8
 73
     4
 74
     0
 42
0.000000001
 43
0.00000001
 40
0.0
 40
0.0
 40
0.0
 40
0.0
 40
1.0
 40
1.0
 40
1.0
 40
1.0
 10
2441.34186156041
 20
1367.029574207136
 30
0.0
 10
2648.096079559008
 20
1217.754108550869
 30
0.0
 10
2906.056146756738
 20
1155.503440281196
 30
0.0
 10
3154.187442137918
 20
1116.610313033002
 30
0.0
  0
SPLINE
  5
30A
330
1F
100
AcDbEntity
  8
0
  6
Continuous
 62
     7
370
    15
100
AcDbSpline
210
0.0
220
0.0
230
1.0
 70
     8
 71
     3
 72
    12
 73
     8
 74
     0
 42
0.000000001
 43
0.00000001
 40
0.0
 40
0.0
 40
0.0
 40
0.0
 40
0.4542672237476633
 40
0.643017854781904
 40
0.7543873705295139
 40
0.8608297903149706
 40
1.0
 40
1.0
 40
1.0
 40
1.0
 10
2368.168873787796
 20
995.6109845792448
 30
0.0
 10
2489.414069761239
 20
991.8316391602434
 30
0.0
 10
2663.58219737429
 20
991.4810126504938
 30
0.0
 10
2861.723255850425
 20
1031.947413656526
 30
0.0
 10
2969.225925009597
 20
1051.421715252676
 30
0.0
 10
3061.66282761122
 20
1071.77626721347
 30
0.0
 10
3128.838436773808
 20
1087.767751012931
 30
0.0
 10
3154.187442137918
 20
1116.610313033002
 30
0.0
  0
SPLINE
  5
30B
330
1F
100
AcDbEntity
  8
0
  6
Continuous
 62
     7
370
    15
100
AcDbSpline
210
0.0
220
0.0
230
1.0
 70
     8
 71
     3
 72
    14
 73
    10
 74
     0
 42
0.000000001
 43
0.00000001
 40
0.0
 40
0.0
 40
0.0
 40
0.0
 40
0.2004334508441686
 40
0.2701652559552499
 40
0.355401018887229
 40
0.4989889399203319
 40
0.6657632524677966
 40
0.7950262122404899
 40
1.0
 40
1.0
 40
1.0
 40
1.0
 10
2162.294935651557
 20
584.0488801482668
 30
0.0
 10
2113.765232994257
 20
603.7927553017142
 30
0.0
 10
2081.652869892495
 20
662.9105939011184
 30
0.0
 10
2019.509277815852
 20
725.6425315788189
 30
0.0
 10
2006.749460233402
 20
802.6515545336962
 30
0.0
 10
2048.747956031626
 20
892.5816028873822
 30
0.0
 10
2115.918140366363
 20
981.3417289904355
 30
0.0
 10
2237.574478163693
 20
1020.278316324946
 30
0.0
 10
2319.923933072813
 20
1008.355294960883
 30
0.0
 10
2368.168873787796
 20
995.6109845792448
 30
0.0
  0
SPLINE
  5
30C
330
1F
100
AcDbEntity
  8
0
  6
Continuous
 62
     7
370
    15
100
AcDbSpline
210
0.0
220
0.0
230
1.0
 70
     8
 71
     3
 72
     9
 73
     5
 74
     0
 42
0.000000001
 43
0.00000001
 40
0.0
 40
0.0
 40
0.0
 40
0.0
 40
0.5180896903810097
 40
1.0
 40
1.0
 40
1.0
 40
1.0
 10
1720.853552974219
 20
639.9310856236192
 30
0.0
 10
1787.17349472735
 20
595.2876170921121
 30
0.0
 10
1936.967616459779
 20
552.5318299724493
 30
0.0
 10
2091.939596297874
 20
561.7607336550801
 30
0.0
 10
2162.294935651557
 20
584.0488801482668
 30
0.0
  0
SPLINE
  5
30D
330
1F
100
AcDbEntity
  8
0
  6
Continuous
 62
     7
370
    15
100
AcDbSpline
210
0.0
220
0.0
230
1.0
 70
     8
 71
     3
 72
     8
 73
     4
 74
     0
 42
0.000000001
 43
0.00000001
 40
0.0
 40
0.0
 40
0.0
 40
0.0
 40
1.0
 40
1.0
 40
1.0
 40
1.0
 10
1720.853552974219
 20
639.9310856236192
 30
0.0
 10
1759.891730295166
 20
596.7301026405102
 30
0.0
 10
1804.302219484062
 20
560.5634767142237
 30
0.0
 10
1854.085020540906
 20
531.4312078447598
 30
0.0
  0
SPLINE
  5
30E
330
1F
100
AcDbEntity
  8
0
  6
Continuous
 62
     7
370
    15
100
AcDbSpline
210
0.0
220
0.0
230
1.0
 70
     8
 71
     3
 72
    10
 73
     6
 74
     0
 42
0.000000001
 43
0.00000001
 40
0.0
 40
0.0
 40
0.0
 40
0.0
 40
0.4104172094263063
 40
0.7356001131754021
 40
1.0
 40
1.0
 40
1.0
 40
1.0
 10
1265.058627434599
 20
1181.384105001817
 30
0.0
 10
1285.154000889283
 20
1058.287083814454
 30
0.0
 10
1374.237841293023
 20
838.0495130538886
 30
0.0
 10
1619.728325086133
 20
646.5714041813479
 30
0.0
 10
1774.413431942703
 20
550.1099183799486
 30
0.0
 10
1854.085020540906
 20
531.4312078447598
 30
0.0
  0
SPLINE
  5
30F
330
1F
100
AcDbEntity
  8
0
  6
Continuous
 62
     7
370
    15
100
AcDbSpline
210
0.0
220
0.0
230
1.0
 70
     8
 71
     3
 72
    12
 73
     8
 74
     0
 42
0.000000001
 43
0.00000001
 40
0.0
 40
0.0
 40
0.0
 40
0.0
 40
0.2160223113911653
 40
0.3601452230043963
 40
0.6083636497279994
 40
0.7623084999370631
 40
1.0
 40
1.0
 40
1.0
 40
1.0
 10
986.9487306059561
 20
1836.865308994381
 30
0.0
 10
930.8250365169863
 20
1800.223479906605
 30
0.0
 10
907.0354443639195
 20
1695.181791841307
 30
0.0
 10
898.5353963344573
 20
1521.588887538856
 30
0.0
 10
963.9101635375966
 20
1372.119526179506
 30
0.0
 10
1089.584749632484
 20
1235.225474648032
 30
0.0
 10
1202.540273742377
 20
1203.80288569155
 30
0.0
 10
1265.058627434599
 20
1181.384105001817
 30
0.0
  0
SPLINE
  5
310
330
1F
100
AcDbEntity
  8
0
  6
Continuous
 62
     7
370
    15
100
AcDbSpline
210
0.0
220
0.0
230
1.0
 70
     8
 71
     3
 72
     8
 73
     4
 74
     0
 42
0.000000001
 43
0.00000001
 40
0.0
 40
0.0
 40
0.0
 40
0.0
 40
1.0
 40
1.0
 40
1.0
 40
1.0
 10
986.9487306059561
 20
1836.865308994381
 30
0.0
 10
983.4052351188665
 20
1724.109228242958
 30
0.0
 10
1054.362450616515
 20
1616.581949521519
 30
0.0
 10
1142.718723970337
 20
1551.913138892545
 30
0.0
  0
SPLINE
  5
311
330
1F
100
AcDbEntity
  8
0
  6
Continuous
 62
     7
370
    15
100
AcDbSpline
210
0.0
220
0.0
230
1.0
 70
     8
 71
     3
 72
    14
 73
    10
 74
     0
 42
0.000000001
 43
0.00000001
 40
0.0
 40
0.0
 40
0.0
 40
0.0
 40
0.3596761423867112
 40
0.4630194783884808
 40
0.5557307115260224
 40
0.6646158141889625
 40
0.7875570603698484
 40
0.8859139367433314
 40
1.0
 40
1.0
 40
1.0
 40
1.0
 10
1467.829071612645
 20
1230.122542423334
 30
0.0
 10
1556.671218804831
 20
1257.664903117896
 30
0.0
 10
1669.963955063744
 20
1298.970372412214
 30
0.0
 10
1797.583473094992
 20
1365.433611144116
 30
0.0
 10
1866.827441995292
 20
1403.719202628612
 30
0.0
 10
1946.885628736458
 20
1430.55255045761
 30
0.0
 10
2030.652331610109
 20
1448.601718262816
 30
0.0
 10
2118.439504404779
 20
1450.722310731483
 30
0.0
 10
2171.838523581602
 20
1433.502813553048
 30
0.0
 10
2201.678237713759
 20
1436.728502073802
 30
0.0
  0
SPLINE
  5
312
330
1F
100
AcDbEntity
  8
0
  6
Continuous
 62
     7
370
    15
100
AcDbSpline
210
0.0
220
0.0
230
1.0
 70
     8
 71
     3
 72
    10
 73
     6
 74
     0
 42
0.000000001
 43
0.00000001
 40
0.0
 40
0.0
 40
0.0
 40
0.0
 40
0.407888649538791
 40
0.6333639847098879
 40
1.0
 40
1.0
 40
1.0
 40
1.0
 10
1596.873212103485
 20
1361.204689881499
 30
0.0
 10
1683.623259700372
 20
1354.577376574264
 30
0.0
 10
1808.577056224715
 20
1403.043785551453
 30
0.0
 10
2003.852809623126
 20
1473.040247252536
 30
0.0
 10
2132.527679609791
 20
1479.073203522949
 30
0.0
 10
2201.678237713759
 20
1436.728502073802
 30
0.0
  0
SPLINE
  5
313
330
1F
100
AcDbEntity
  8
0
  6
Continuous
 62
     7
370
    15
100
AcDbSpline
210
0.0
220
0.0
230
1.0
 70
     8
 71
     3
 72
     8
 73
     4
 74
     0
 42
0.000000001
 43
0.00000001
 40
0.0
 40
0.0
 40
0.0
 40
0.0
 40
1.0
 40
1.0
 40
1.0
 40
1.0
 10
1331.749684063089
 20
1446.643919632598
 30
0.0
 10
1405.463100217348
 20
1386.494473600967
 30
0.0
 10
1502.508894847452
 20
1358.108664694784
 30
0.0
 10
1596.873212103485
 20
1361.204689881499
 30
0.0
  0
SPLINE
  5
314
330
1F
100
AcDbEntity
  8
0
  6
Continuous
 62
     7
370
    15
100
AcDbSpline
210
0.0
220
0.0
230
1.0
 70
     8
 71
     3
 72
     8
 73
     4
 74
     0
 42
0.000000001
 43
0.00000001
 40
0.0
 40
0.0
 40
0.0
 40
0.0
 40
1.0
 40
1.0
 40
1.0
 40
1.0
 10
1331.749684063089
 20
1446.643919632598
 30
0.0
 10
1357.113782525922
 20
1414.687771275468
 30
0.0
 10
1384.211521394125
 20
1384.295157431953
 30
0.0
 10
1413.042900667697
 20
1355.466078102054
 30
0.0
  0
SPLINE
  5
315
330
1F
100
AcDbEntity
  8
0
  6
Continuous
 62
     7
370
    15
100
AcDbSpline
210
0.0
220
0.0
230
1.0
 70
     8
 71
     3
 72
     8
 73
     4
 74
     0
 42
0.000000001
 43
0.00000001
 40
0.0
 40
0.0
 40
0.0
 40
0.0
 40
1.0
 40
1.0
 40
1.0
 40
1.0
 10
1224.51575244935
 20
1424.748882524811
 30
0.0
 10
1282.991182505565
 20
1390.028316699069
 30
0.0
 10
1345.833565245014
 20
1366.93404855815
 30
0.0
 10
1413.042900667697
 20
1355.466078102054
 30
0.0
  0
SPLINE
  5
316
330
1F
100
AcDbEntity
  8
0
  6
Continuous
 62
     7
370
    15
100
AcDbSpline
210
0.0
220
0.0
230
1.0
 70
     8
 71
     3
 72
     8
 73
     4
 74
     0
 42
0.000000001
 43
0.00000001
 40
0.0
 40
0.0
 40
0.0
 40
0.0
 40
1.0
 40
1.0
 40
1.0
 40
1.0
 10
1224.51575244935
 20
1424.748882524811
 30
0.0
 10
1257.394547277156
 20
1381.790456793098
 30
0.0
 10
1305.630567265824
 20
1360.940330901572
 30
0.0
 10
1349.5803957333
 20
1333.6458938963
 30
0.0
  0
SPLINE
  5
318
330
1F
100
AcDbEntity
  8
0
  6
Continuous
 62
     7
370
    15
100
AcDbSpline
210
0.0
220
0.0
230
1.0
 70
     8
 71
     3
 72
     8
 73
     4
 74
     0
 42
0.000000001
 43
0.00000001
 40
0.0
 40
0.0
 40
0.0
 40
0.0
 40
1.0
 40
1.0
 40
1.0
 40
1.0
 10
999.0404652507
 20
1551.9131388925
 30
0.0
 10
1071.389257088305
 20
1432.306022804543
 30
0.0
 10
1208.886275514744
 20
1370.604605721314
 30
0.0
 10
1338.072489799
 20
1330.3276828507
 30
0.0
  0
SPLINE
  5
31A
330
1F
100
AcDbEntity
  8
0
  6
Continuous
 62
     7
370
    15
100
AcDbSpline
210
0.0
220
0.0
230
1.0
 70
     8
 71
     3
 72
    14
 73
    10
 74
     0
 42
0.000000001
 43
0.00000001
 40
0.0
 40
0.0
 40
0.0
 40
0.0
 40
0.1613624179069233
 40
0.3153711273836273
 40
0.4347074559426392
 40
0.5426994455882131
 40
0.6863017288891889
 40
0.8188684030559569
 40
1.0
 40
1.0
 40
1.0
 40
1.0
 10
2057.7912737913
 20
605.9341897783
 30
0.0
 10
2028.498283168475
 20
625.8645336448781
 30
0.0
 10
1974.941933275031
 20
678.8044006184907
 30
0.0
 10
1963.351226355015
 20
779.0526226487708
 30
0.0
 10
1971.775061519963
 20
865.1468393023151
 30
0.0
 10
2016.408666579368
 20
937.112660386031
 30
0.0
 10
2077.943867205089
 20
998.1038461486818
 30
0.0
 10
2170.915690833208
 20
1044.709967870989
 30
0.0
 10
2241.707345253311
 20
1052.357524776824
 30
0.0
 10
2281.9601826284
 20
1054.2720074525
 30
0.0
  0
LINE
  5
31B
330
1F
100
AcDbEntity
  8
0
  6
Continuous
 62
     7
370
    15
100
AcDbLine
 10
3084.055103495
 20
139.4849136051
 30
0.0
 11
3318.5918727874
 21
139.4849136051
 31
0.0
  0
LINE
  5
31C
330
1F
100
AcDbEntity
  8
0
  6
Continuous
 62
     7
370
    15
100
AcDbLine
 10
3318.5918727874
 20
139.4849136051
 30
0.0
 11
3318.5918727874
 21
182.5273012602
 31
0.0
  0
LINE
  5
31D
330
1F
100
AcDbEntity
  8
0
  6
Continuous
 62
     7
370
    15
100
AcDbLine
 10
3318.5918727874
 20
182.5273012602
 30
0.0
 11
3136.3896124616
 21
182.5273012602
 31
0.0
  0
LINE
  5
31E
330
1F
100
AcDbEntity
  8
0
  6
Continuous
 62
     7
370
    15
100
AcDbLine
 10
3136.3896124616
 20
182.5273012602
 30
0.0
 11
3136.3896124616
 21
257.9240889005
 31
0.0
  0
LINE
  5
31F
330
1F
100
AcDbEntity
  8
0
  6
Continuous
 62
     7
370
    15
100
AcDbLine
 10
3136.3896124616
 20
257.9240889005
 30
0.0
 11
3318.5918727874
 21
257.9240889005
 31
0.0
  0
LINE
  5
320
330
1F
100
AcDbEntity
  8
0
  6
Continuous
 62
     7
370
    15
100
AcDbLine
 10
3318.5918727874
 20
257.9240889005
 30
0.0
 11
3318.5918727874
 21
288.98234736
 31
0.0
  0
LINE
  5
321
330
1F
100
AcDbEntity
  8
0
  6
Continuous
 62
     7
370
    15
100
AcDbLine
 10
3318.5918727874
 20
288.98234736
 30
0.0
 11
3136.3896124616
 21
288.98234736
 31
0.0
  0
LINE
  5
322
330
1F
100
AcDbEntity
  8
0
  6
Continuous
 62
     7
370
    15
100
AcDbLine
 10
3136.3896124616
 20
288.98234736
 30
0.0
 11
3136.3896124616
 21
384.2973451077
 31
0.0
  0
LINE
  5
323
330
1F
100
AcDbEntity
  8
0
  6
Continuous
 62
     7
370
    15
100
AcDbLine
 10
3136.3896124616
 20
384.2973451077
 30
0.0
 11
3318.5918727874
 21
384.2973451077
 31
0.0
  0
LINE
  5
324
330
1F
100
AcDbEntity
  8
0
  6
Continuous
 62
     7
370
    15
100
AcDbLine
 10
3318.5918727874
 20
384.2973451077
 30
0.0
 11
3318.5918727874
 21
413.9030053329
 31
0.0
  0
LINE
  5
325
330
1F
100
AcDbEntity
  8
0
  6
Continuous
 62
     7
370
    15
100
AcDbLine
 10
3318.5918727874
 20
413.9030053329
 30
0.0
 11
3084.055103495
 21
416.574911828
 31
0.0
  0
LINE
  5
326
330
1F
100
AcDbEntity
  8
0
  6
Continuous
 62
     7
370
    15
100
AcDbLine
 10
3084.055103495
 20
416.574911828
 30
0.0
 11
3084.055103495
 21
139.4849136051
 31
0.0
  0
LINE
  5
327
330
1F
100
AcDbEntity
  8
0
  6
Continuous
 62
     7
370
    15
100
AcDbLine
 10
2804.6477478669
 20
242.5775355559
 30
0.0
 11
2819.5091717403
 21
242.5775355559
 31
0.0
  0
LINE
  5
328
330
1F
100
AcDbEntity
  8
0
  6
Continuous
 62
     7
370
    15
100
AcDbLine
 10
2819.5091717403
 20
242.5775355559
 30
0.0
 11
2919.8785227423
 21
146.6914177962
 31
0.0
  0
LINE
  5
329
330
1F
100
AcDbEntity
  8
0
  6
Continuous
 62
     7
370
    15
100
AcDbLine
 10
2999.4979050432
 20
146.6914177962
 30
0.0
 11
2919.8785227423
 21
146.6914177962
 31
0.0
  0
LINE
  5
32A
330
1F
100
AcDbEntity
  8
0
  6
Continuous
 62
     7
370
    15
100
AcDbLine
 10
2852.3024445713
 20
271.6972053249
 30
0.0
 11
2999.4979050432
 21
146.6914177962
 31
0.0
  0
LINE
  5
32B
330
1F
100
AcDbEntity
  8
0
  6
Continuous
 62
     7
370
    15
100
AcDbLine
 10
2978.0134450912
 20
419.7230605571
 30
0.0
 11
2852.3024445713
 21
271.6972053249
 31
0.0
  0
LINE
  5
32C
330
1F
100
AcDbEntity
  8
0
  6
Continuous
 62
     7
370
    15
100
AcDbLine
 10
2930.1705809356
 20
419.7230605571
 30
0.0
 11
2978.0134450912
 21
419.7230605571
 31
0.0
  0
LINE
  5
32D
330
1F
100
AcDbEntity
  8
0
  6
Continuous
 62
     7
370
    15
100
AcDbLine
 10
2804.6477478669
 20
288.3313055732
 30
0.0
 11
2930.1705809356
 21
419.7230605571
 31
0.0
  0
LINE
  5
32E
330
1F
100
AcDbEntity
  8
0
  6
Continuous
 62
     7
370
    15
100
AcDbLine
 10
2804.6477478669
 20
288.3313055732
 30
0.0
 11
2804.6477478669
 21
419.7230605571
 31
0.0
  0
LINE
  5
32F
330
1F
100
AcDbEntity
  8
0
  6
Continuous
 62
     7
370
    15
100
AcDbLine
 10
2804.6477478669
 20
419.7230605571
 30
0.0
 11
2744.7534535802
 21
419.7230605571
 31
0.0
  0
LINE
  5
330
330
1F
100
AcDbEntity
  8
0
  6
Continuous
 62
     7
370
    15
100
AcDbLine
 10
2744.7534535802
 20
419.7230605571
 30
0.0
 11
2744.7534535802
 21
139.7230605571
 31
0.0
  0
LINE
  5
331
330
1F
100
AcDbEntity
  8
0
  6
Continuous
 62
     7
370
    15
100
AcDbLine
 10
2744.7534535802
 20
139.7230605571
 30
0.0
 11
2804.6477478669
 21
139.7230605571
 31
0.0
  0
LINE
  5
332
330
1F
100
AcDbEntity
  8
0
  6
Continuous
 62
     7
370
    15
100
AcDbLine
 10
2804.6477478669
 20
139.7230605571
 30
0.0
 11
2804.6477478669
 21
242.5775355559
 31
0.0
  0
LINE
  5
333
330
1F
100
AcDbEntity
  8
0
  6
Continuous
 62
     7
370
    15
100
AcDbLine
 10
2310.7719746856
 20
172.7654463669
 30
0.0
 11
2156.5206441374
 21
172.7654463669
 31
0.0
  0
LINE
  5
334
330
1F
100
AcDbEntity
  8
0
  6
Continuous
 62
     7
370
    15
100
AcDbLine
 10
2156.5206441374
 20
172.7654463669
 30
0.0
 11
2156.5206441374
 21
268.1621343579
 31
0.0
  0
LINE
  5
335
330
1F
100
AcDbEntity
  8
0
  6
Continuous
 62
     7
370
    15
100
AcDbLine
 10
2156.5206441374
 20
268.1621343579
 30
0.0
 11
2293.8606992434
 21
268.1621343579
 31
0.0
  0
LINE
  5
336
330
1F
100
AcDbEntity
  8
0
  6
Continuous
 62
     7
370
    15
100
AcDbLine
 10
2293.8606992434
 20
268.1621343579
 30
0.0
 11
2293.8606992434
 21
301.4426671197
 31
0.0
  0
LINE
  5
337
330
1F
100
AcDbEntity
  8
0
  6
Continuous
 62
     7
370
    15
100
AcDbLine
 10
2293.8606992434
 20
301.4426671197
 30
0.0
 11
2156.5206441374
 21
301.4426671197
 31
0.0
  0
LINE
  5
338
330
1F
100
AcDbEntity
  8
0
  6
Continuous
 62
     7
370
    15
100
AcDbLine
 10
2156.5206441374
 20
301.4426671197
 30
0.0
 11
2156.5206441374
 21
383.2943790662
 31
0.0
  0
LINE
  5
339
330
1F
100
AcDbEntity
  8
0
  6
Continuous
 62
     7
370
    15
100
AcDbLine
 10
2156.5206441374
 20
383.2943790662
 30
0.0
 11
2302.0601055184
 21
383.2943790662
 31
0.0
  0
LINE
  5
33A
330
1F
100
AcDbEntity
  8
0
  6
Continuous
 62
     7
370
    15
100
AcDbLine
 10
2302.0601055184
 20
383.2943790662
 30
0.0
 11
2302.0601055184
 21
416.574911828
 31
0.0
  0
LINE
  5
33B
330
1F
100
AcDbEntity
  8
0
  6
Continuous
 62
     7
370
    15
100
AcDbLine
 10
2302.0601055184
 20
416.574911828
 30
0.0
 11
2096.6263498506
 21
416.574911828
 31
0.0
  0
LINE
  5
33C
330
1F
100
AcDbEntity
  8
0
  6
Continuous
 62
     7
370
    15
100
AcDbLine
 10
2096.6263498506
 20
416.574911828
 30
0.0
 11
2096.6263498506
 21
139.4849136051
 31
0.0
  0
LINE
  5
33D
330
1F
100
AcDbEntity
  8
0
  6
Continuous
 62
     7
370
    15
100
AcDbLine
 10
2096.6263498506
 20
139.4849136051
 30
0.0
 11
2310.7719746856
 21
139.4849136051
 31
0.0
  0
LINE
  5
33E
330
1F
100
AcDbEntity
  8
0
  6
Continuous
 62
     7
370
    15
100
AcDbLine
 10
2310.7719746856
 20
139.4849136051
 30
0.0
 11
2310.7719746856
 21
172.7654463669
 31
0.0
  0
LINE
  5
33F
330
1F
100
AcDbEntity
  8
0
  6
Continuous
 62
     7
370
    15
100
AcDbLine
 10
1879.7056749004
 20
282.0511291497
 30
0.0
 11
1874.097208257
 21
247.9770487878
 31
0.0
  0
LINE
  5
340
330
1F
100
AcDbEntity
  8
0
  6
Continuous
 62
     7
370
    15
100
AcDbLine
 10
1874.097208257
 20
247.9770487878
 30
0.0
 11
1887.3776339881
 21
248.8236097905
 31
0.0
  0
LINE
  5
341
330
1F
100
AcDbEntity
  8
0
  6
Continuous
 62
     7
370
    15
100
AcDbLine
 10
1887.3776339881
 20
248.8236097905
 30
0.0
 11
1900.2876892805
 21
250.3050915454
 31
0.0
  0
LINE
  5
342
330
1F
100
AcDbEntity
  8
0
  6
Continuous
 62
     7
370
    15
100
AcDbLine
 10
1900.2876892805
 20
250.3050915454
 30
0.0
 11
1912.9331942596
 21
252.474404115
 31
0.0
  0
LINE
  5
343
330
1F
100
AcDbEntity
  8
0
  6
Continuous
 62
     7
370
    15
100
AcDbLine
 10
1912.9331942596
 20
252.474404115
 30
0.0
 11
1925.2083287999
 21
255.3315474994
 31
0.0
  0
LINE
  5
344
330
1F
100
AcDbEntity
  8
0
  6
Continuous
 62
     7
370
    15
100
AcDbLine
 10
1925.2083287999
 20
255.3315474994
 30
0.0
 11
1937.1130929015
 21
258.8236116359
 31
0.0
  0
LINE
  5
345
330
1F
100
AcDbEntity
  8
0
  6
Continuous
 62
     7
370
    15
100
AcDbLine
 10
1937.1130929015
 20
258.8236116359
 30
0.0
 11
1948.7003966271
 21
262.9505965245
 31
0.0
  0
LINE
  5
346
330
1F
100
AcDbEntity
  8
0
  6
Continuous
 62
     7
370
    15
100
AcDbLine
 10
1948.7003966271
 20
262.9505965245
 30
0.0
 11
1959.9702399766
 21
267.7654122278
 31
0.0
  0
LINE
  5
347
330
1F
100
AcDbEntity
  8
0
  6
Continuous
 62
     7
370
    15
100
AcDbLine
 10
1959.9702399766
 20
267.7654122278
 30
0.0
 11
1965.3670663694
 21
270.4638254241
 31
0.0
  0
LINE
  5
348
330
1F
100
AcDbEntity
  8
0
  6
Continuous
 62
     7
370
    15
100
AcDbLine
 10
1965.3670663694
 20
270.4638254241
 30
0.0
 11
1970.3935223234
 21
273.3738788712
 31
0.0
  0
LINE
  5
349
330
1F
100
AcDbEntity
  8
0
  6
Continuous
 62
     7
370
    15
100
AcDbLine
 10
1970.3935223234
 20
273.3738788712
 30
0.0
 11
1975.1025179014
 21
276.5484826316
 31
0.0
  0
LINE
  5
34A
330
1F
100
AcDbEntity
  8
0
  6
Continuous
 62
     7
370
    15
100
AcDbLine
 10
1975.1025179014
 20
276.5484826316
 30
0.0
 11
1979.4940531033
 21
279.8818165801
 31
0.0
  0
LINE
  5
34B
330
1F
100
AcDbEntity
  8
0
  6
Continuous
 62
     7
370
    15
100
AcDbLine
 10
1979.4940531033
 20
279.8818165801
 30
0.0
 11
1983.5681279292
 21
283.4797008419
 31
0.0
  0
LINE
  5
34C
330
1F
100
AcDbEntity
  8
0
  6
Continuous
 62
     7
370
    15
100
AcDbLine
 10
1983.5681279292
 20
283.4797008419
 30
0.0
 11
1987.324742379
 21
287.3421354171
 31
0.0
  0
LINE
  5
34D
330
1F
100
AcDbEntity
  8
0
  6
Continuous
 62
     7
370
    15
100
AcDbLine
 10
1987.324742379
 20
287.3421354171
 30
0.0
 11
1990.7638964528
 21
291.3633001803
 31
0.0
  0
LINE
  5
34E
330
1F
100
AcDbEntity
  8
0
  6
Continuous
 62
     7
370
    15
100
AcDbLine
 10
1990.7638964528
 20
291.3633001803
 30
0.0
 11
1993.8326800879
 21
295.6490152569
 31
0.0
  0
LINE
  5
34F
330
1F
100
AcDbEntity
  8
0
  6
Continuous
 62
     7
370
    15
100
AcDbLine
 10
1993.8326800879
 20
295.6490152569
 30
0.0
 11
1996.5840033469
 21
300.1463705842
 31
0.0
  0
LINE
  5
350
330
1F
100
AcDbEntity
  8
0
  6
Continuous
 62
     7
370
    15
100
AcDbLine
 10
1996.5840033469
 20
300.1463705842
 30
0.0
 11
1999.0178662299
 21
304.9082762248
 31
0.0
  0
LINE
  5
351
330
1F
100
AcDbEntity
  8
0
  6
Continuous
 62
     7
370
    15
100
AcDbLine
 10
1999.0178662299
 20
304.9082762248
 30
0.0
 11
2001.1342687369
 21
309.8289120535
 31
0.0
  0
LINE
  5
352
330
1F
100
AcDbEntity
  8
0
  6
Continuous
 62
     7
370
    15
100
AcDbLine
 10
2001.1342687369
 20
309.8289120535
 30
0.0
 11
2002.9332108678
 21
315.0140981955
 31
0.0
  0
LINE
  5
353
330
1F
100
AcDbEntity
  8
0
  6
Continuous
 62
     7
370
    15
100
AcDbLine
 10
2002.9332108678
 20
315.0140981955
 30
0.0
 11
2004.4146926227
 21
320.4638346509
 31
0.0
  0
LINE
  5
354
330
1F
100
AcDbEntity
  8
0
  6
Continuous
 62
     7
370
    15
100
AcDbLine
 10
2004.4146926227
 20
320.4638346509
 30
0.0
 11
2005.5258039388
 21
326.0723012944
 31
0.0
  0
LINE
  5
355
330
1F
100
AcDbEntity
  8
0
  6
Continuous
 62
     7
370
    15
100
AcDbLine
 10
2005.5258039388
 20
326.0723012944
 30
0.0
 11
2006.3723649416
 21
331.9453182512
 31
0.0
  0
LINE
  5
356
330
1F
100
AcDbEntity
  8
0
  6
Continuous
 62
     7
370
    15
100
AcDbLine
 10
2006.3723649416
 20
331.9453182512
 30
0.0
 11
2006.8485555057
 21
338.0299754586
 31
0.0
  0
LINE
  5
357
330
1F
100
AcDbEntity
  8
0
  6
Continuous
 62
     7
370
    15
100
AcDbLine
 10
2006.8485555057
 20
338.0299754586
 30
0.0
 11
2006.2136347536
 21
347.2892364266
 31
0.0
  0
LINE
  5
358
330
1F
100
AcDbEntity
  8
0
  6
Continuous
 62
     7
370
    15
100
AcDbLine
 10
2006.2136347536
 20
347.2892364266
 30
0.0
 11
2004.4146926227
 21
356.0723068304
 31
0.0
  0
LINE
  5
359
330
1F
100
AcDbEntity
  8
0
  6
Continuous
 62
     7
370
    15
100
AcDbLine
 10
2004.4146926227
 20
356.0723068304
 30
0.0
 11
2001.4517291129
 21
364.3791866702
 31
0.0
  0
LINE
  5
35A
330
1F
100
AcDbEntity
  8
0
  6
Continuous
 62
     7
370
    15
100
AcDbLine
 10
2001.4517291129
 20
364.3791866702
 30
0.0
 11
1997.3247442244
 21
372.2098759459
 31
0.0
  0
LINE
  5
35B
330
1F
100
AcDbEntity
  8
0
  6
Continuous
 62
     7
370
    15
100
AcDbLine
 10
1997.3247442244
 20
372.2098759459
 30
0.0
 11
1992.192468145
 21
379.5114645949
 31
0.0
  0
LINE
  5
35C
330
1F
100
AcDbEntity
  8
0
  6
Continuous
 62
     7
370
    15
100
AcDbLine
 10
1992.192468145
 20
379.5114645949
 30
0.0
 11
1986.1607210002
 21
386.1781324918
 31
0.0
  0
LINE
  5
35D
330
1F
100
AcDbEntity
  8
0
  6
Continuous
 62
     7
370
    15
100
AcDbLine
 10
1986.1607210002
 20
386.1781324918
 30
0.0
 11
1979.1236826646
 21
392.2098796367
 31
0.0
  0
LINE
  5
35E
330
1F
100
AcDbEntity
  8
0
  6
Continuous
 62
     7
370
    15
100
AcDbLine
 10
1979.1236826646
 20
392.2098796367
 30
0.0
 11
1971.1871732635
 21
397.6067060294
 31
0.0
  0
LINE
  5
35F
330
1F
100
AcDbEntity
  8
0
  6
Continuous
 62
     7
370
    15
100
AcDbLine
 10
1971.1871732635
 20
397.6067060294
 30
0.0
 11
1961.6633619822
 21
402.8448022341
 31
0.0
  0
LINE
  5
360
330
1F
100
AcDbEntity
  8
0
  6
Continuous
 62
     7
370
    15
100
AcDbLine
 10
1961.6633619822
 20
402.8448022341
 30
0.0
 11
1951.0284393848
 21
407.3950676241
 31
0.0
  0
LINE
  5
361
330
1F
100
AcDbEntity
  8
0
  6
Continuous
 62
     7
370
    15
100
AcDbLine
 10
1951.0284393848
 20
407.3950676241
 30
0.0
 11
1939.2824054712
 21
411.2575021992
 31
0.0
  0
LINE
  5
362
330
1F
100
AcDbEntity
  8
0
  6
Continuous
 62
     7
370
    15
100
AcDbLine
 10
1939.2824054712
 20
411.2575021992
 30
0.0
 11
1926.3723501787
 21
414.4321059597
 31
0.0
  0
LINE
  5
363
330
1F
100
AcDbEntity
  8
0
  6
Continuous
 62
     7
370
    15
100
AcDbLine
 10
1926.3723501787
 20
414.4321059597
 30
0.0
 11
1912.3511835702
 21
416.8659688427
 31
0.0
  0
LINE
  5
364
330
1F
100
AcDbEntity
  8
0
  6
Continuous
 62
     7
370
    15
100
AcDbLine
 10
1912.3511835702
 20
416.8659688427
 30
0.0
 11
1897.1659955828
 21
418.5590908482
 31
0.0
  0
LINE
  5
365
330
1F
100
AcDbEntity
  8
0
  6
Continuous
 62
     7
370
    15
100
AcDbLine
 10
1897.1659955828
 20
418.5590908482
 30
0.0
 11
1880.8696962792
 21
419.6172921017
 31
0.0
  0
LINE
  5
366
330
1F
100
AcDbEntity
  8
0
  6
Continuous
 62
     7
370
    15
100
AcDbLine
 10
1880.8696962792
 20
419.6172921017
 30
0.0
 11
1875.8432403252
 21
419.7089599915
 31
0.0
  0
LINE
  5
367
330
1F
100
AcDbEntity
  8
0
  6
Continuous
 62
     7
370
    15
100
AcDbLine
 10
1875.8432403252
 20
419.7089599915
 30
0.0
 11
1875.8432403252
 21
386.4426828052
 31
0.0
  0
LINE
  5
368
330
1F
100
AcDbEntity
  8
0
  6
Continuous
 62
     7
370
    15
100
AcDbLine
 10
1875.8432403252
 20
386.4426828052
 30
0.0
 11
1884.2030302277
 21
385.8606721158
 31
0.0
  0
LINE
  5
369
330
1F
100
AcDbEntity
  8
0
  6
Continuous
 62
     7
370
    15
100
AcDbLine
 10
1884.2030302277
 20
385.8606721158
 30
0.0
 11
1892.0866295661
 21
384.855380925
 31
0.0
  0
LINE
  5
36A
330
1F
100
AcDbEntity
  8
0
  6
Continuous
 62
     7
370
    15
100
AcDbLine
 10
1892.0866295661
 20
384.855380925
 30
0.0
 11
1899.4940383404
 21
383.4797192955
 31
0.0
  0
LINE
  5
36B
330
1F
100
AcDbEntity
  8
0
  6
Continuous
 62
     7
370
    15
100
AcDbLine
 10
1899.4940383404
 20
383.4797192955
 30
0.0
 11
1906.4781666134
 21
381.7336872272
 31
0.0
  0
LINE
  5
36C
330
1F
100
AcDbEntity
  8
0
  6
Continuous
 62
     7
370
    15
100
AcDbLine
 10
1906.4781666134
 20
381.7336872272
 30
0.0
 11
1913.0390143849
 21
379.5643746576
 31
0.0
  0
LINE
  5
36D
330
1F
100
AcDbEntity
  8
0
  6
Continuous
 62
     7
370
    15
100
AcDbLine
 10
1913.0390143849
 20
379.5643746576
 30
0.0
 11
1919.1236715924
 21
376.9717815866
 31
0.0
  0
LINE
  5
36E
330
1F
100
AcDbEntity
  8
0
  6
Continuous
 62
     7
370
    15
100
AcDbLine
 10
1919.1236715924
 20
376.9717815866
 30
0.0
 11
1924.7321382359
 21
374.0088180769
 31
0.0
  0
LINE
  5
36F
330
1F
100
AcDbEntity
  8
0
  6
Continuous
 62
     7
370
    15
100
AcDbLine
 10
1924.7321382359
 20
374.0088180769
 30
0.0
 11
1929.8115042525
 21
370.6754841284
 31
0.0
  0
LINE
  5
370
330
1F
100
AcDbEntity
  8
0
  6
Continuous
 62
     7
370
    15
100
AcDbLine
 10
1929.8115042525
 20
370.6754841284
 30
0.0
 11
1934.2559495171
 21
366.9188696786
 31
0.0
  0
LINE
  5
371
330
1F
100
AcDbEntity
  8
0
  6
Continuous
 62
     7
370
    15
100
AcDbLine
 10
1934.2559495171
 20
366.9188696786
 30
0.0
 11
1938.012563967
 21
362.79188479
 31
0.0
  0
LINE
  5
372
330
1F
100
AcDbEntity
  8
0
  6
Continuous
 62
     7
370
    15
100
AcDbLine
 10
1938.012563967
 20
362.79188479
 30
0.0
 11
1941.1342576647
 21
358.2416194001
 31
0.0
  0
LINE
  5
373
330
1F
100
AcDbEntity
  8
0
  6
Continuous
 62
     7
370
    15
100
AcDbLine
 10
1941.1342576647
 20
358.2416194001
 30
0.0
 11
1943.5681205477
 21
353.3209835714
 31
0.0
  0
LINE
  5
374
330
1F
100
AcDbEntity
  8
0
  6
Continuous
 62
     7
370
    15
100
AcDbLine
 10
1943.5681205477
 20
353.3209835714
 30
0.0
 11
1945.3670626787
 21
348.029977304
 31
0.0
  0
LINE
  5
375
330
1F
100
AcDbEntity
  8
0
  6
Continuous
 62
     7
370
    15
100
AcDbLine
 10
1945.3670626787
 20
348.029977304
 30
0.0
 11
1946.4781739948
 21
342.3156905352
 31
0.0
  0
LINE
  5
376
330
1F
100
AcDbEntity
  8
0
  6
Continuous
 62
     7
370
    15
100
AcDbLine
 10
1946.4781739948
 20
342.3156905352
 30
0.0
 11
1946.9543645589
 21
336.2310333277
 31
0.0
  0
LINE
  5
377
330
1F
100
AcDbEntity
  8
0
  6
Continuous
 62
     7
370
    15
100
AcDbLine
 10
1946.9543645589
 20
336.2310333277
 30
0.0
 11
1946.5310840575
 21
329.7760056815
 31
0.0
  0
LINE
  5
378
330
1F
100
AcDbEntity
  8
0
  6
Continuous
 62
     7
370
    15
100
AcDbLine
 10
1946.5310840575
 20
329.7760056815
 30
0.0
 11
1945.3670626787
 21
323.691348474
 31
0.0
  0
LINE
  5
379
330
1F
100
AcDbEntity
  8
0
  6
Continuous
 62
     7
370
    15
100
AcDbLine
 10
1945.3670626787
 20
323.691348474
 30
0.0
 11
1943.5152104851
 21
318.0299717679
 31
0.0
  0
LINE
  5
37A
330
1F
100
AcDbEntity
  8
0
  6
Continuous
 62
     7
370
    15
100
AcDbLine
 10
1943.5152104851
 20
318.0299717679
 30
0.0
 11
1941.0284375394
 21
312.7389655005
 31
0.0
  0
LINE
  5
37B
330
1F
100
AcDbEntity
  8
0
  6
Continuous
 62
     7
370
    15
100
AcDbLine
 10
1941.0284375394
 20
312.7389655005
 30
0.0
 11
1937.7480136536
 21
307.8183296719
 31
0.0
  0
LINE
  5
37C
330
1F
100
AcDbEntity
  8
0
  6
Continuous
 62
     7
370
    15
100
AcDbLine
 10
1937.7480136536
 20
307.8183296719
 30
0.0
 11
1933.8326690158
 21
303.3209743446
 31
0.0
  0
LINE
  5
37D
330
1F
100
AcDbEntity
  8
0
  6
Continuous
 62
     7
370
    15
100
AcDbLine
 10
1933.8326690158
 20
303.3209743446
 30
0.0
 11
1929.2294935631
 21
299.193989456
 31
0.0
  0
LINE
  5
37E
330
1F
100
AcDbEntity
  8
0
  6
Continuous
 62
     7
370
    15
100
AcDbLine
 10
1929.2294935631
 20
299.193989456
 30
0.0
 11
1923.8855772331
 21
295.4373750062
 31
0.0
  0
LINE
  5
37F
330
1F
100
AcDbEntity
  8
0
  6
Continuous
 62
     7
370
    15
100
AcDbLine
 10
1923.8855772331
 20
295.4373750062
 30
0.0
 11
1917.9596502136
 21
292.1040410577
 31
0.0
  0
LINE
  5
380
330
1F
100
AcDbEntity
  8
0
  6
Continuous
 62
     7
370
    15
100
AcDbLine
 10
1917.9596502136
 20
292.1040410577
 30
0.0
 11
1911.4517125047
 21
289.2468976734
 31
0.0
  0
LINE
  5
381
330
1F
100
AcDbEntity
  8
0
  6
Continuous
 62
     7
370
    15
100
AcDbLine
 10
1911.4517125047
 20
289.2468976734
 30
0.0
 11
1904.3617641064
 21
286.7601247277
 31
0.0
  0
LINE
  5
382
330
1F
100
AcDbEntity
  8
0
  6
Continuous
 62
     7
370
    15
100
AcDbLine
 10
1904.3617641064
 20
286.7601247277
 30
0.0
 11
1896.6898050187
 21
284.7495423461
 31
0.0
  0
LINE
  5
383
330
1F
100
AcDbEntity
  8
0
  6
Continuous
 62
     7
370
    15
100
AcDbLine
 10
1896.6898050187
 20
284.7495423461
 30
0.0
 11
1888.4887453043
 21
283.2151505285
 31
0.0
  0
LINE
  5
384
330
1F
100
AcDbEntity
  8
0
  6
Continuous
 62
     7
370
    15
100
AcDbLine
 10
1888.4887453043
 20
283.2151505285
 30
0.0
 11
1879.7056749004
 21
282.0511291497
 31
0.0
  0
LINE
  5
385
330
1F
100
AcDbEntity
  8
0
  6
Continuous
 62
     7
370
    15
100
AcDbLine
 10
1827.3777262559
 20
384.1547359544
 30
0.0
 11
1830.6051367391
 21
384.5908306116
 31
0.0
  0
LINE
  5
386
330
1F
100
AcDbEntity
  8
0
  6
Continuous
 62
     7
370
    15
100
AcDbLine
 10
1830.6051367391
 20
384.5908306116
 30
0.0
 11
1834.3088411263
 21
385.0670211757
 31
0.0
  0
LINE
  5
387
330
1F
100
AcDbEntity
  8
0
  6
Continuous
 62
     7
370
    15
100
AcDbLine
 10
1834.3088411263
 20
385.0670211757
 30
0.0
 11
1838.4887360775
 21
385.4373916144
 31
0.0
  0
LINE
  5
388
330
1F
100
AcDbEntity
  8
0
  6
Continuous
 62
     7
370
    15
100
AcDbLine
 10
1838.4887360775
 20
385.4373916144
 30
0.0
 11
1843.1977316555
 21
385.8077620531
 31
0.0
  0
LINE
  5
389
330
1F
100
AcDbEntity
  8
0
  6
Continuous
 62
     7
370
    15
100
AcDbLine
 10
1843.1977316555
 20
385.8077620531
 30
0.0
 11
1848.4358278602
 21
386.0723123665
 31
0.0
  0
LINE
  5
38A
330
1F
100
AcDbEntity
  8
0
  6
Continuous
 62
     7
370
    15
100
AcDbLine
 10
1848.4358278602
 20
386.0723123665
 30
0.0
 11
1854.1501146289
 21
386.3368626799
 31
0.0
  0
LINE
  5
38B
330
1F
100
AcDbEntity
  8
0
  6
Continuous
 62
     7
370
    15
100
AcDbLine
 10
1854.1501146289
 20
386.3368626799
 30
0.0
 11
1860.3405919618
 21
386.4955928679
 31
0.0
  0
LINE
  5
38C
330
1F
100
AcDbEntity
  8
0
  6
Continuous
 62
     7
370
    15
100
AcDbLine
 10
1860.3405919618
 20
386.4955928679
 30
0.0
 11
1867.0601699214
 21
386.6543230559
 31
0.0
  0
LINE
  5
38D
330
1F
100
AcDbEntity
  8
0
  6
Continuous
 62
     7
370
    15
100
AcDbLine
 10
1867.0601699214
 20
419.8691375672
 30
0.0
 11
1867.0601699214
 21
386.6543230559
 31
0.0
  0
LINE
  5
38E
330
1F
100
AcDbEntity
  8
0
  6
Continuous
 62
     7
370
    15
100
AcDbLine
 10
1867.0601699214
 20
419.8691375672
 30
0.0
 11
1863.4622856595
 21
419.9347524778
 31
0.0
  0
LINE
  5
38F
330
1F
100
AcDbEntity
  8
0
  6
Continuous
 62
     7
370
    15
100
AcDbLine
 10
1863.4622856595
 20
419.9347524778
 30
0.0
 11
1848.8061982989
 21
419.7231122273
 31
0.0
  0
LINE
  5
390
330
1F
100
AcDbEntity
  8
0
  6
Continuous
 62
     7
370
    15
100
AcDbLine
 10
1848.8061982989
 20
419.7231122273
 30
0.0
 11
1834.8908518157
 21
419.4056518513
 31
0.0
  0
LINE
  5
391
330
1F
100
AcDbEntity
  8
0
  6
Continuous
 62
     7
370
    15
100
AcDbLine
 10
1834.8908518157
 20
419.4056518513
 30
0.0
 11
1821.7162462099
 21
418.9294612874
 31
0.0
  0
LINE
  5
392
330
1F
100
AcDbEntity
  8
0
  6
Continuous
 62
     7
370
    15
100
AcDbLine
 10
1821.7162462099
 20
418.9294612874
 30
0.0
 11
1809.3352915442
 21
418.2945405355
 31
0.0
  0
LINE
  5
393
330
1F
100
AcDbEntity
  8
0
  6
Continuous
 62
     7
370
    15
100
AcDbLine
 10
1809.3352915442
 20
418.2945405355
 30
0.0
 11
1797.7479878186
 21
417.5537996581
 31
0.0
  0
LINE
  5
394
330
1F
100
AcDbEntity
  8
0
  6
Continuous
 62
     7
370
    15
100
AcDbLine
 10
1797.7479878186
 20
417.5537996581
 30
0.0
 11
1786.9014249705
 21
416.6543285928
 31
0.0
  0
LINE
  5
395
330
1F
100
AcDbEntity
  8
0
  6
Continuous
 62
     7
370
    15
100
AcDbLine
 10
1786.9014249705
 20
416.6543285928
 30
0.0
 11
1776.7956029997
 21
415.5961273394
 31
0.0
  0
LINE
  5
396
330
1F
100
AcDbEntity
  8
0
  6
Continuous
 62
     7
370
    15
100
AcDbLine
 10
1776.7956029997
 20
415.5961273394
 30
0.0
 11
1767.4834319691
 21
414.4321059607
 31
0.0
  0
LINE
  5
397
330
1F
100
AcDbEntity
  8
0
  6
Continuous
 62
     7
370
    15
100
AcDbLine
 10
1767.4834319691
 20
414.4321059607
 30
0.0
 11
1767.4834319691
 21
139.9572289214
 31
0.0
  0
LINE
  5
398
330
1F
100
AcDbEntity
  8
0
  6
Continuous
 62
     7
370
    15
100
AcDbLine
 10
1767.4834319691
 20
139.9572289214
 30
0.0
 11
1827.3777262559
 21
139.9572289214
 31
0.0
  0
LINE
  5
399
330
1F
100
AcDbEntity
  8
0
  6
Continuous
 62
     7
370
    15
100
AcDbLine
 10
1827.3777262559
 20
139.9572289214
 30
0.0
 11
1827.3777262559
 21
249.6533780488
 31
0.0
  0
LINE
  5
39A
330
1F
100
AcDbEntity
  8
0
  6
Continuous
 62
     7
370
    15
100
AcDbLine
 10
1827.3777262559
 20
249.6533780488
 30
0.0
 11
1834.9437618783
 21
248.7706997279
 31
0.0
  0
LINE
  5
39B
330
1F
100
AcDbEntity
  8
0
  6
Continuous
 62
     7
370
    15
100
AcDbLine
 10
1834.9437618783
 20
248.7706997279
 30
0.0
 11
1842.9331813421
 21
248.1886890385
 31
0.0
  0
LINE
  5
39C
330
1F
100
AcDbEntity
  8
0
  6
Continuous
 62
     7
370
    15
100
AcDbLine
 10
1842.9331813421
 20
248.1886890385
 30
0.0
 11
1851.4517014326
 21
247.8712286624
 31
0.0
  0
LINE
  5
39D
330
1F
100
AcDbEntity
  8
0
  6
Continuous
 62
     7
370
    15
100
AcDbLine
 10
1851.4517014326
 20
247.8712286624
 30
0.0
 11
1860.4464120871
 21
247.8183185997
 31
0.0
  0
LINE
  5
39E
330
1F
100
AcDbEntity
  8
0
  6
Continuous
 62
     7
370
    15
100
AcDbLine
 10
1860.4464120871
 20
247.8183185997
 30
0.0
 11
1870.3405938071
 21
247.9333672244
 31
0.0
  0
LINE
  5
39F
330
1F
100
AcDbEntity
  8
0
  6
Continuous
 62
     7
370
    15
100
AcDbLine
 10
1870.3405938071
 20
281.363298335
 30
0.0
 11
1870.3405938071
 21
247.9333672244
 31
0.0
  0
LINE
  5
3A0
330
1F
100
AcDbEntity
  8
0
  6
Continuous
 62
     7
370
    15
100
AcDbLine
 10
1870.3405938071
 20
281.363298335
 30
0.0
 11
1860.4464120871
 21
281.0987480216
 31
0.0
  0
LINE
  5
3A1
330
1F
100
AcDbEntity
  8
0
  6
Continuous
 62
     7
370
    15
100
AcDbLine
 10
1860.4464120871
 20
281.0987480216
 30
0.0
 11
1850.7638706178
 21
281.1516580843
 31
0.0
  0
LINE
  5
3A2
330
1F
100
AcDbEntity
  8
0
  6
Continuous
 62
     7
370
    15
100
AcDbLine
 10
1850.7638706178
 20
281.1516580843
 30
0.0
 11
1841.980800214
 21
281.522028523
 31
0.0
  0
LINE
  5
3A3
330
1F
100
AcDbEntity
  8
0
  6
Continuous
 62
     7
370
    15
100
AcDbLine
 10
1841.980800214
 20
281.522028523
 30
0.0
 11
1834.2030210009
 21
282.2098593377
 31
0.0
  0
LINE
  5
3A4
330
1F
100
AcDbEntity
  8
0
  6
Continuous
 62
     7
370
    15
100
AcDbLine
 10
1834.2030210009
 20
282.2098593377
 30
0.0
 11
1827.377622916
 21
283.2680605912
 31
0.0
  0
LINE
  5
3A5
330
1F
100
AcDbEntity
  8
0
  6
Continuous
 62
     7
370
    15
100
AcDbLine
 10
1827.377622916
 20
283.2680605912
 30
0.0
 11
1827.3777262559
 21
384.1547359544
 31
0.0
  0
LINE
  5
3A6
330
1F
100
AcDbEntity
  8
0
  6
Continuous
 62
     7
370
    15
100
AcDbLine
 10
1562.3831957082
 20
300.4103008577
 30
0.0
 11
1691.0113816471
 21
419.7230605571
 31
0.0
  0
LINE
  5
3A7
330
1F
100
AcDbEntity
  8
0
  6
Continuous
 62
     7
370
    15
100
AcDbLine
 10
1691.0113816471
 20
419.7230605571
 30
0.0
 11
1618.7541138487
 21
419.7230605571
 31
0.0
  0
LINE
  5
3A8
330
1F
100
AcDbEntity
  8
0
  6
Continuous
 62
     7
370
    15
100
AcDbLine
 10
1618.7541138487
 20
419.7230605571
 30
0.0
 11
1517.7989240879
 21
319.4438691849
 31
0.0
  0
LINE
  5
3A9
330
1F
100
AcDbEntity
  8
0
  6
Continuous
 62
     7
370
    15
100
AcDbLine
 10
1517.7989240879
 20
319.4438691849
 30
0.0
 11
1503.6844414899
 21
304.2733554727
 31
0.0
  0
LINE
  5
3AA
330
1F
100
AcDbEntity
  8
0
  6
Continuous
 62
     7
370
    15
100
AcDbLine
 10
1503.6844414899
 20
304.2733554727
 30
0.0
 11
1489.6103648187
 21
288.2945165452
 31
0.0
  0
LINE
  5
3AB
330
1F
100
AcDbEntity
  8
0
  6
Continuous
 62
     7
370
    15
100
AcDbLine
 10
1489.6103648187
 20
288.2945165452
 30
0.0
 11
1488.0760763411
 21
288.3313055732
 31
0.0
  0
LINE
  5
3AC
330
1F
100
AcDbEntity
  8
0
  6
Continuous
 62
     7
370
    15
100
AcDbLine
 10
1488.0760763411
 20
288.3313055732
 30
0.0
 11
1488.0760763411
 21
419.7230605571
 31
0.0
  0
LINE
  5
3AD
330
1F
100
AcDbEntity
  8
0
  6
Continuous
 62
     7
370
    15
100
AcDbLine
 10
1488.0760763411
 20
419.7230605571
 30
0.0
 11
1428.1817820544
 21
419.7230605571
 31
0.0
  0
LINE
  5
3AE
330
1F
100
AcDbEntity
  8
0
  6
Continuous
 62
     7
370
    15
100
AcDbLine
 10
1428.1817820544
 20
419.7230605571
 30
0.0
 11
1428.1817820544
 21
139.7230605571
 31
0.0
  0
LINE
  5
3AF
330
1F
100
AcDbEntity
  8
0
  6
Continuous
 62
     7
370
    15
100
AcDbLine
 10
1428.1817820544
 20
139.7230605571
 30
0.0
 11
1488.0760763411
 21
139.7230605571
 31
0.0
  0
LINE
  5
3B0
330
1F
100
AcDbEntity
  8
0
  6
Continuous
 62
     7
370
    15
100
AcDbLine
 10
1488.0760763411
 20
139.7230605571
 30
0.0
 11
1488.0760763411
 21
242.5775355559
 31
0.0
  0
LINE
  5
3B1
330
1F
100
AcDbEntity
  8
0
  6
Continuous
 62
     7
370
    15
100
AcDbLine
 10
1488.0760763411
 20
242.5775355559
 30
0.0
 11
1520.8737014411
 21
271.859948367
 31
0.0
  0
LINE
  5
3B2
330
1F
100
AcDbEntity
  8
0
  6
Continuous
 62
     7
370
    15
100
AcDbLine
 10
1520.8737014411
 20
271.859948367
 30
0.0
 11
1629.5158345846
 21
139.7230605571
 31
0.0
  0
LINE
  5
3B3
330
1F
100
AcDbEntity
  8
0
  6
Continuous
 62
     7
370
    15
100
AcDbLine
 10
1629.5158345846
 20
139.7230605571
 30
0.0
 11
1698.6983250299
 21
139.7230605571
 31
0.0
  0
LINE
  5
3B4
330
1F
100
AcDbEntity
  8
0
  6
Continuous
 62
     7
370
    15
100
AcDbLine
 10
1698.6983250299
 20
139.7230605571
 30
0.0
 11
1562.3831957082
 21
300.4103008577
 31
0.0
  0
LINE
  5
3B5
330
1F
100
AcDbEntity
  8
0
  6
Continuous
 62
     7
370
    15
100
AcDbLine
 10
1294.7769043073
 20
139.1939599303
 30
0.0
 11
1301.2082136497
 21
139.9876108704
 31
0.0
  0
LINE
  5
3B6
330
1F
100
AcDbEntity
  8
0
  6
Continuous
 62
     7
370
    15
100
AcDbLine
 10
1301.2082136497
 20
139.9876108704
 30
0.0
 11
1312.3722368739
 21
141.839463064
 31
0.0
  0
LINE
  5
3B7
330
1F
100
AcDbEntity
  8
0
  6
Continuous
 62
     7
370
    15
100
AcDbLine
 10
1312.3722368739
 20
141.839463064
 30
0.0
 11
1322.1605984685
 21
143.797135383
 31
0.0
  0
LINE
  5
3B8
330
1F
100
AcDbEntity
  8
0
  6
Continuous
 62
     7
370
    15
100
AcDbLine
 10
1322.1605984685
 20
143.797135383
 30
0.0
 11
1330.520388371
 21
145.9135378899
 31
0.0
  0
LINE
  5
3B9
330
1F
100
AcDbEntity
  8
0
  6
Continuous
 62
     7
370
    15
100
AcDbLine
 10
1330.520388371
 20
145.9135378899
 30
0.0
 11
1337.5045166439
 21
148.1357605222
 31
0.0
  0
LINE
  5
3BA
330
1F
100
AcDbEntity
  8
0
  6
Continuous
 62
     7
370
    15
100
AcDbLine
 10
1337.5045166439
 20
148.1357605222
 30
0.0
 11
1327.298558246
 21
182.4491762458
 31
0.0
  0
LINE
  5
3BB
330
1F
100
AcDbEntity
  8
0
  6
Continuous
 62
     7
370
    15
100
AcDbLine
 10
1327.298558246
 20
182.4491762458
 30
0.0
 11
1320.4145664003
 21
180.3050786279
 31
0.0
  0
LINE
  5
3BC
330
1F
100
AcDbEntity
  8
0
  6
Continuous
 62
     7
370
    15
100
AcDbLine
 10
1320.4145664003
 20
180.3050786279
 30
0.0
 11
1312.8484274379
 21
178.4003163717
 31
0.0
  0
LINE
  5
3BD
330
1F
100
AcDbEntity
  8
0
  6
Continuous
 62
     7
370
    15
100
AcDbLine
 10
1312.8484274379
 20
178.4003163717
 30
0.0
 11
1304.5415475981
 21
176.7071943661
 31
0.0
  0
LINE
  5
3BE
330
1F
100
AcDbEntity
  8
0
  6
Continuous
 62
     7
370
    15
100
AcDbLine
 10
1304.5415475981
 20
176.7071943661
 30
0.0
 11
1295.5468369436
 21
175.2786226739
 31
0.0
  0
LINE
  5
3BF
330
1F
100
AcDbEntity
  8
0
  6
Continuous
 62
     7
370
    15
100
AcDbLine
 10
1295.5468369436
 20
175.2786226739
 30
0.0
 11
1286.1288457876
 21
174.1146012951
 31
0.0
  0
LINE
  5
3C0
330
1F
100
AcDbEntity
  8
0
  6
Continuous
 62
     7
370
    15
100
AcDbLine
 10
1286.1288457876
 20
174.1146012951
 30
0.0
 11
1276.4463043183
 21
173.2680402923
 31
0.0
  0
LINE
  5
3C1
330
1F
100
AcDbEntity
  8
0
  6
Continuous
 62
     7
370
    15
100
AcDbLine
 10
1276.4463043183
 20
173.2680402923
 30
0.0
 11
1266.605032661
 21
172.7389396656
 31
0.0
  0
LINE
  5
3C2
330
1F
100
AcDbEntity
  8
0
  6
Continuous
 62
     7
370
    15
100
AcDbLine
 10
1266.605032661
 20
172.7389396656
 30
0.0
 11
1256.5521207529
 21
172.5272994149
 31
0.0
  0
LINE
  5
3C3
330
1F
100
AcDbEntity
  8
0
  6
Continuous
 62
     7
370
    15
100
AcDbLine
 10
1256.5521207529
 20
172.5272994149
 30
0.0
 11
1241.6314830789
 21
173.0034899789
 31
0.0
  0
LINE
  5
3C4
330
1F
100
AcDbEntity
  8
0
  6
Continuous
 62
     7
370
    15
100
AcDbLine
 10
1241.6314830789
 20
173.0034899789
 30
0.0
 11
1227.5574064077
 21
174.3262415458
 31
0.0
  0
LINE
  5
3C5
330
1F
100
AcDbEntity
  8
0
  6
Continuous
 62
     7
370
    15
100
AcDbLine
 10
1227.5574064077
 20
174.3262415458
 30
0.0
 11
1214.3298907392
 21
176.5484641781
 31
0.0
  0
LINE
  5
3C6
330
1F
100
AcDbEntity
  8
0
  6
Continuous
 62
     7
370
    15
100
AcDbLine
 10
1214.3298907392
 20
176.5484641781
 30
0.0
 11
1201.8960260109
 21
179.6172478132
 31
0.0
  0
LINE
  5
3C7
330
1F
100
AcDbEntity
  8
0
  6
Continuous
 62
     7
370
    15
100
AcDbLine
 10
1201.8960260109
 20
179.6172478132
 30
0.0
 11
1190.3087222853
 21
183.532592451
 31
0.0
  0
LINE
  5
3C8
330
1F
100
AcDbEntity
  8
0
  6
Continuous
 62
     7
370
    15
100
AcDbLine
 10
1190.3087222853
 20
183.532592451
 30
0.0
 11
1179.5679795625
 21
188.2944980917
 31
0.0
  0
LINE
  5
3C9
330
1F
100
AcDbEntity
  8
0
  6
Continuous
 62
     7
370
    15
100
AcDbLine
 10
1179.5679795625
 20
188.2944980917
 30
0.0
 11
1169.6737978425
 21
193.9029647351
 31
0.0
  0
LINE
  5
3CA
330
1F
100
AcDbEntity
  8
0
  6
Continuous
 62
     7
370
    15
100
AcDbLine
 10
1169.6737978425
 20
193.9029647351
 30
0.0
 11
1160.5732670626
 21
200.410902444
 31
0.0
  0
LINE
  5
3CB
330
1F
100
AcDbEntity
  8
0
  6
Continuous
 62
     7
370
    15
100
AcDbLine
 10
1160.5732670626
 20
200.410902444
 30
0.0
 11
1152.4780274735
 21
207.712491093
 31
0.0
  0
LINE
  5
3CC
330
1F
100
AcDbEntity
  8
0
  6
Continuous
 62
     7
370
    15
100
AcDbLine
 10
1152.4780274735
 20
207.712491093
 30
0.0
 11
1145.3880790752
 21
215.7548206194
 31
0.0
  0
LINE
  5
3CD
330
1F
100
AcDbEntity
  8
0
  6
Continuous
 62
     7
370
    15
100
AcDbLine
 10
1145.3880790752
 20
215.7548206194
 30
0.0
 11
1139.4092419931
 21
224.5908010859
 31
0.0
  0
LINE
  5
3CE
330
1F
100
AcDbEntity
  8
0
  6
Continuous
 62
     7
370
    15
100
AcDbLine
 10
1139.4092419931
 20
224.5908010859
 30
0.0
 11
1134.4886061644
 21
234.1675224299
 31
0.0
  0
LINE
  5
3CF
330
1F
100
AcDbEntity
  8
0
  6
Continuous
 62
     7
370
    15
100
AcDbLine
 10
1134.4886061644
 20
234.1675224299
 30
0.0
 11
1130.6261715892
 21
244.537894714
 31
0.0
  0
LINE
  5
3D0
330
1F
100
AcDbEntity
  8
0
  6
Continuous
 62
     7
370
    15
100
AcDbLine
 10
1130.6261715892
 20
244.537894714
 30
0.0
 11
1127.8219382675
 21
255.6490078755
 31
0.0
  0
LINE
  5
3D1
330
1F
100
AcDbEntity
  8
0
  6
Continuous
 62
     7
370
    15
100
AcDbLine
 10
1127.8219382675
 20
255.6490078755
 30
0.0
 11
1126.0759061992
 21
267.5008619144
 31
0.0
  0
LINE
  5
3D2
330
1F
100
AcDbEntity
  8
0
  6
Continuous
 62
     7
370
    15
100
AcDbLine
 10
1126.0759061992
 20
267.5008619144
 30
0.0
 11
1125.3880753845
 21
280.1463668935
 31
0.0
  0
LINE
  5
3D3
330
1F
100
AcDbEntity
  8
0
  6
Continuous
 62
     7
370
    15
100
AcDbLine
 10
1125.3880753845
 20
280.1463668935
 30
0.0
 11
1126.2346363873
 21
293.4267926246
 31
0.0
  0
LINE
  5
3D4
330
1F
100
AcDbEntity
  8
0
  6
Continuous
 62
     7
370
    15
100
AcDbLine
 10
1126.2346363873
 20
293.4267926246
 30
0.0
 11
1128.1393986436
 21
305.8606573529
 31
0.0
  0
LINE
  5
3D5
330
1F
100
AcDbEntity
  8
0
  6
Continuous
 62
     7
370
    15
100
AcDbLine
 10
1128.1393986436
 20
305.8606573529
 30
0.0
 11
1131.2081822787
 21
317.4479610785
 31
0.0
  0
LINE
  5
3D6
330
1F
100
AcDbEntity
  8
0
  6
Continuous
 62
     7
370
    15
100
AcDbLine
 10
1131.2081822787
 20
317.4479610785
 30
0.0
 11
1135.3351671673
 21
328.1887038013
 31
0.0
  0
LINE
  5
3D7
330
1F
100
AcDbEntity
  8
0
  6
Continuous
 62
     7
370
    15
100
AcDbLine
 10
1135.3351671673
 20
328.1887038013
 30
0.0
 11
1140.6261734347
 21
338.0299754586
 31
0.0
  0
LINE
  5
3D8
330
1F
100
AcDbEntity
  8
0
  6
Continuous
 62
     7
370
    15
100
AcDbLine
 10
1140.6261734347
 20
338.0299754586
 30
0.0
 11
1146.9753809555
 21
347.0775961759
 31
0.0
  0
LINE
  5
3D9
330
1F
100
AcDbEntity
  8
0
  6
Continuous
 62
     7
370
    15
100
AcDbLine
 10
1146.9753809555
 20
347.0775961759
 30
0.0
 11
1154.4356997925
 21
355.2257458276
 31
0.0
  0
LINE
  5
3DA
330
1F
100
AcDbEntity
  8
0
  6
Continuous
 62
     7
370
    15
100
AcDbLine
 10
1154.4356997925
 20
355.2257458276
 30
0.0
 11
1163.0071299457
 21
362.5273344766
 31
0.0
  0
LINE
  5
3DB
330
1F
100
AcDbEntity
  8
0
  6
Continuous
 62
     7
370
    15
100
AcDbLine
 10
1163.0071299457
 20
362.5273344766
 30
0.0
 11
1172.4780311643
 21
368.9823621228
 31
0.0
  0
LINE
  5
3DC
330
1F
100
AcDbEntity
  8
0
  6
Continuous
 62
     7
370
    15
100
AcDbLine
 10
1172.4780311643
 20
368.9823621228
 30
0.0
 11
1182.583853135
 21
374.5908287663
 31
0.0
  0
LINE
  5
3DD
330
1F
100
AcDbEntity
  8
0
  6
Continuous
 62
     7
370
    15
100
AcDbLine
 10
1182.583853135
 20
374.5908287663
 30
0.0
 11
1193.4304159831
 21
379.2998243442
 31
0.0
  0
LINE
  5
3DE
330
1F
100
AcDbEntity
  8
0
  6
Continuous
 62
     7
370
    15
100
AcDbLine
 10
1193.4304159831
 20
379.2998243442
 30
0.0
 11
1204.9118995834
 21
383.1622589194
 31
0.0
  0
LINE
  5
3DF
330
1F
100
AcDbEntity
  8
0
  6
Continuous
 62
     7
370
    15
100
AcDbLine
 10
1204.9118995834
 20
383.1622589194
 30
0.0
 11
1217.0283039357
 21
386.1781324918
 31
0.0
  0
LINE
  5
3E0
330
1F
100
AcDbEntity
  8
0
  6
Continuous
 62
     7
370
    15
100
AcDbLine
 10
1217.0283039357
 20
386.1781324918
 30
0.0
 11
1229.8854491654
 21
388.3474450615
 31
0.0
  0
LINE
  5
3E1
330
1F
100
AcDbEntity
  8
0
  6
Continuous
 62
     7
370
    15
100
AcDbLine
 10
1229.8854491654
 20
388.3474450615
 30
0.0
 11
1243.3775151473
 21
389.6172865656
 31
0.0
  0
LINE
  5
3E2
330
1F
100
AcDbEntity
  8
0
  6
Continuous
 62
     7
370
    15
100
AcDbLine
 10
1243.3775151473
 20
389.6172865656
 30
0.0
 11
1257.5574119438
 21
390.040567067
 31
0.0
  0
LINE
  5
3E3
330
1F
100
AcDbEntity
  8
0
  6
Continuous
 62
     7
370
    15
100
AcDbLine
 10
1257.5574119438
 20
390.040567067
 30
0.0
 11
1268.245244604
 21
389.8289268163
 31
0.0
  0
LINE
  5
3E4
330
1F
100
AcDbEntity
  8
0
  6
Continuous
 62
     7
370
    15
100
AcDbLine
 10
1268.245244604
 20
389.8289268163
 30
0.0
 11
1278.3510665747
 21
389.2469161269
 31
0.0
  0
LINE
  5
3E5
330
1F
100
AcDbEntity
  8
0
  6
Continuous
 62
     7
370
    15
100
AcDbLine
 10
1278.3510665747
 20
389.2469161269
 30
0.0
 11
1287.8219677933
 21
388.2945349988
 31
0.0
  0
LINE
  5
3E6
330
1F
100
AcDbEntity
  8
0
  6
Continuous
 62
     7
370
    15
100
AcDbLine
 10
1287.8219677933
 20
388.2945349988
 30
0.0
 11
1296.7108583225
 21
386.971783432
 31
0.0
  0
LINE
  5
3E7
330
1F
100
AcDbEntity
  8
0
  6
Continuous
 62
     7
370
    15
100
AcDbLine
 10
1296.7108583225
 20
386.971783432
 30
0.0
 11
1305.0177381623
 21
385.4373916144
 31
0.0
  0
LINE
  5
3E8
330
1F
100
AcDbEntity
  8
0
  6
Continuous
 62
     7
370
    15
100
AcDbLine
 10
1305.0177381623
 20
385.4373916144
 30
0.0
 11
1312.68969725
 21
383.6913595462
 31
0.0
  0
LINE
  5
3E9
330
1F
100
AcDbEntity
  8
0
  6
Continuous
 62
     7
370
    15
100
AcDbLine
 10
1312.68969725
 20
383.6913595462
 30
0.0
 11
1319.7796456483
 21
381.8395073526
 31
0.0
  0
LINE
  5
3EA
330
1F
100
AcDbEntity
  8
0
  6
Continuous
 62
     7
370
    15
100
AcDbLine
 10
1319.7796456483
 20
381.8395073526
 30
0.0
 11
1326.2346732945
 21
379.7760149083
 31
0.0
  0
LINE
  5
3EB
330
1F
100
AcDbEntity
  8
0
  6
Continuous
 62
     7
370
    15
100
AcDbLine
 10
1326.2346732945
 20
379.7760149083
 30
0.0
 11
1339.0852047664
 21
413.053809161
 31
0.0
  0
LINE
  5
3EC
330
1F
100
AcDbEntity
  8
0
  6
Continuous
 62
     7
370
    15
100
AcDbLine
 10
1339.0852047664
 20
413.053809161
 30
0.0
 11
1334.2240927581
 21
414.5908361477
 31
0.0
  0
LINE
  5
3ED
330
1F
100
AcDbEntity
  8
0
  6
Continuous
 62
     7
370
    15
100
AcDbLine
 10
1334.2240927581
 20
414.5908361477
 30
0.0
 11
1327.8219751746
 21
416.2310480906
 31
0.0
  0
LINE
  5
3EE
330
1F
100
AcDbEntity
  8
0
  6
Continuous
 62
     7
370
    15
100
AcDbLine
 10
1327.8219751746
 20
416.2310480906
 30
0.0
 11
1319.7796456482
 21
417.8712600335
 31
0.0
  0
LINE
  5
3EF
330
1F
100
AcDbEntity
  8
0
  6
Continuous
 62
     7
370
    15
100
AcDbLine
 10
1319.7796456482
 20
417.8712600335
 30
0.0
 11
1310.1500142415
 21
419.564382039
 31
0.0
  0
LINE
  5
3F0
330
1F
100
AcDbEntity
  8
0
  6
Continuous
 62
     7
370
    15
100
AcDbLine
 10
1310.1500142415
 20
419.564382039
 30
0.0
 11
1304.7531878488
 21
420.4109430418
 31
0.0
  0
LINE
  5
3F1
330
1F
100
AcDbEntity
  8
0
  6
Continuous
 62
     7
370
    15
100
AcDbLine
 10
1304.7531878488
 20
420.4109430418
 30
0.0
 11
1298.9330809547
 21
421.0987738566
 31
0.0
  0
LINE
  5
3F2
330
1F
100
AcDbEntity
  8
0
  6
Continuous
 62
     7
370
    15
100
AcDbLine
 10
1298.9330809547
 20
421.0987738566
 30
0.0
 11
1292.7426036219
 21
421.7336946087
 31
0.0
  0
LINE
  5
3F3
330
1F
100
AcDbEntity
  8
0
  6
Continuous
 62
     7
370
    15
100
AcDbLine
 10
1292.7426036219
 20
421.7336946087
 30
0.0
 11
1286.1288457876
 21
422.2627952354
 31
0.0
  0
LINE
  5
3F4
330
1F
100
AcDbEntity
  8
0
  6
Continuous
 62
     7
370
    15
100
AcDbLine
 10
1286.1288457876
 20
422.2627952354
 30
0.0
 11
1279.091807452
 21
422.6860757368
 31
0.0
  0
LINE
  5
3F5
330
1F
100
AcDbEntity
  8
0
  6
Continuous
 62
     7
370
    15
100
AcDbLine
 10
1279.091807452
 20
422.6860757368
 30
0.0
 11
1271.631488615
 21
423.0035361128
 31
0.0
  0
LINE
  5
3F6
330
1F
100
AcDbEntity
  8
0
  6
Continuous
 62
     7
370
    15
100
AcDbLine
 10
1271.631488615
 20
423.0035361128
 30
0.0
 11
1263.8007993393
 21
423.2151763635
 31
0.0
  0
LINE
  5
3F7
330
1F
100
AcDbEntity
  8
0
  6
Continuous
 62
     7
370
    15
100
AcDbLine
 10
1263.8007993393
 20
423.2151763635
 30
0.0
 11
1255.5468295621
 21
423.3209964889
 31
0.0
  0
LINE
  5
3F8
330
1F
100
AcDbEntity
  8
0
  6
Continuous
 62
     7
370
    15
100
AcDbLine
 10
1255.5468295621
 20
423.3209964889
 30
0.0
 11
1235.2293654954
 21
422.7389857995
 31
0.0
  0
LINE
  5
3F9
330
1F
100
AcDbEntity
  8
0
  6
Continuous
 62
     7
370
    15
100
AcDbLine
 10
1235.2293654954
 20
422.7389857995
 30
0.0
 11
1215.8113724941
 21
420.9929537312
 31
0.0
  0
LINE
  5
3FA
330
1F
100
AcDbEntity
  8
0
  6
Continuous
 62
     7
370
    15
100
AcDbLine
 10
1215.8113724941
 20
420.9929537312
 30
0.0
 11
1197.3986706836
 21
418.0829002842
 31
0.0
  0
LINE
  5
3FB
330
1F
100
AcDbEntity
  8
0
  6
Continuous
 62
     7
370
    15
100
AcDbLine
 10
1197.3986706836
 20
418.0829002842
 30
0.0
 11
1179.9383500012
 21
414.061735521
 31
0.0
  0
LINE
  5
3FC
330
1F
100
AcDbEntity
  8
0
  6
Continuous
 62
     7
370
    15
100
AcDbLine
 10
1179.9383500012
 20
414.061735521
 30
0.0
 11
1163.3775003843
 21
408.8765493789
 31
0.0
  0
LINE
  5
3FD
330
1F
100
AcDbEntity
  8
0
  6
Continuous
 62
     7
370
    15
100
AcDbLine
 10
1163.3775003843
 20
408.8765493789
 30
0.0
 11
1147.7690318955
 21
402.5802519207
 31
0.0
  0
LINE
  5
3FE
330
1F
100
AcDbEntity
  8
0
  6
Continuous
 62
     7
370
    15
100
AcDbLine
 10
1147.7690318955
 20
402.5802519207
 30
0.0
 11
1133.1658545975
 21
395.1199330837
 31
0.0
  0
LINE
  5
3FF
330
1F
100
AcDbEntity
  8
0
  6
Continuous
 62
     7
370
    15
100
AcDbLine
 10
1133.1658545975
 20
395.1199330837
 30
0.0
 11
1119.462148365
 21
386.4955928679
 31
0.0
  0
LINE
  5
400
330
1F
100
AcDbEntity
  8
0
  6
Continuous
 62
     7
370
    15
100
AcDbLine
 10
1119.462148365
 20
386.4955928679
 30
0.0
 11
1113.0600307815
 21
381.7865972899
 31
0.0
  0
LINE
  5
401
330
1F
100
AcDbEntity
  8
0
  6
Continuous
 62
     7
370
    15
100
AcDbLine
 10
1113.0600307815
 20
381.7865972899
 30
0.0
 11
1107.0282836367
 21
376.7601413359
 31
0.0
  0
LINE
  5
402
330
1F
100
AcDbEntity
  8
0
  6
Continuous
 62
     7
370
    15
100
AcDbLine
 10
1107.0282836367
 20
376.7601413359
 30
0.0
 11
1101.4198169932
 21
371.4691350685
 31
0.0
  0
LINE
  5
403
330
1F
100
AcDbEntity
  8
0
  6
Continuous
 62
     7
370
    15
100
AcDbLine
 10
1101.4198169932
 20
371.4691350685
 30
0.0
 11
1096.2346308512
 21
365.9664885504
 31
0.0
  0
LINE
  5
404
330
1F
100
AcDbEntity
  8
0
  6
Continuous
 62
     7
370
    15
100
AcDbLine
 10
1096.2346308512
 20
365.9664885504
 30
0.0
 11
1091.4198151479
 21
360.1463816563
 31
0.0
  0
LINE
  5
405
330
1F
100
AcDbEntity
  8
0
  6
Continuous
 62
     7
370
    15
100
AcDbLine
 10
1091.4198151479
 20
360.1463816563
 30
0.0
 11
1086.9753698833
 21
354.0088143861
 31
0.0
  0
LINE
  5
406
330
1F
100
AcDbEntity
  8
0
  6
Continuous
 62
     7
370
    15
100
AcDbLine
 10
1086.9753698833
 20
354.0088143861
 30
0.0
 11
1082.9542051201
 21
347.6596068653
 31
0.0
  0
LINE
  5
407
330
1F
100
AcDbEntity
  8
0
  6
Continuous
 62
     7
370
    15
100
AcDbLine
 10
1082.9542051201
 20
347.6596068653
 30
0.0
 11
1079.3563208582
 21
340.9929389684
 31
0.0
  0
LINE
  5
408
330
1F
100
AcDbEntity
  8
0
  6
Continuous
 62
     7
370
    15
100
AcDbLine
 10
1079.3563208582
 20
340.9929389684
 30
0.0
 11
1076.1288070351
 21
334.0617207581
 31
0.0
  0
LINE
  5
409
330
1F
100
AcDbEntity
  8
0
  6
Continuous
 62
     7
370
    15
100
AcDbLine
 10
1076.1288070351
 20
334.0617207581
 30
0.0
 11
1073.3245737134
 21
326.9188622971
 31
0.0
  0
LINE
  5
40A
330
1F
100
AcDbEntity
  8
0
  6
Continuous
 62
     7
370
    15
100
AcDbLine
 10
1073.3245737134
 20
326.9188622971
 30
0.0
 11
1070.9436208931
 21
319.4056333975
 31
0.0
  0
LINE
  5
40B
330
1F
100
AcDbEntity
  8
0
  6
Continuous
 62
     7
370
    15
100
AcDbLine
 10
1070.9436208931
 20
319.4056333975
 30
0.0
 11
1068.9330385115
 21
311.6807642471
 31
0.0
  0
LINE
  5
40C
330
1F
100
AcDbEntity
  8
0
  6
Continuous
 62
     7
370
    15
100
AcDbLine
 10
1068.9330385115
 20
311.6807642471
 30
0.0
 11
1067.2928265686
 21
303.6913447833
 31
0.0
  0
LINE
  5
40D
330
1F
100
AcDbEntity
  8
0
  6
Continuous
 62
     7
370
    15
100
AcDbLine
 10
1067.2928265686
 20
303.6913447833
 30
0.0
 11
1066.0758951271
 21
295.3844649435
 31
0.0
  0
LINE
  5
40E
330
1F
100
AcDbEntity
  8
0
  6
Continuous
 62
     7
370
    15
100
AcDbLine
 10
1066.0758951271
 20
295.3844649435
 30
0.0
 11
1065.282244187
 21
286.8130347904
 31
0.0
  0
LINE
  5
40F
330
1F
100
AcDbEntity
  8
0
  6
Continuous
 62
     7
370
    15
100
AcDbLine
 10
1065.282244187
 20
286.8130347904
 30
0.0
 11
1064.8589636856
 21
277.9770543238
 31
0.0
  0
LINE
  5
410
330
1F
100
AcDbEntity
  8
0
  6
Continuous
 62
     7
370
    15
100
AcDbLine
 10
1064.8589636856
 20
277.9770543238
 30
0.0
 11
1065.1764240617
 21
269.6172644214
 31
0.0
  0
LINE
  5
411
330
1F
100
AcDbEntity
  8
0
  6
Continuous
 62
     7
370
    15
100
AcDbLine
 10
1065.1764240617
 20
269.6172644214
 30
0.0
 11
1065.8642548764
 21
261.5220248323
 31
0.0
  0
LINE
  5
412
330
1F
100
AcDbEntity
  8
0
  6
Continuous
 62
     7
370
    15
100
AcDbLine
 10
1065.8642548764
 20
261.5220248323
 30
0.0
 11
1066.9224561299
 21
253.6913355565
 31
0.0
  0
LINE
  5
413
330
1F
100
AcDbEntity
  8
0
  6
Continuous
 62
     7
370
    15
100
AcDbLine
 10
1066.9224561299
 20
253.6913355565
 30
0.0
 11
1068.2981177594
 21
246.0722865315
 31
0.0
  0
LINE
  5
414
330
1F
100
AcDbEntity
  8
0
  6
Continuous
 62
     7
370
    15
100
AcDbLine
 10
1068.2981177594
 20
246.0722865315
 30
0.0
 11
1070.0970598903
 21
238.6648777572
 31
0.0
  0
LINE
  5
415
330
1F
100
AcDbEntity
  8
0
  6
Continuous
 62
     7
370
    15
100
AcDbLine
 10
1070.0970598903
 20
238.6648777572
 30
0.0
 11
1072.2663724599
 21
231.5220192962
 31
0.0
  0
LINE
  5
416
330
1F
100
AcDbEntity
  8
0
  6
Continuous
 62
     7
370
    15
100
AcDbLine
 10
1072.2663724599
 20
231.5220192962
 30
0.0
 11
1074.8060554683
 21
224.6437111486
 31
0.0
  0
LINE
  5
417
330
1F
100
AcDbEntity
  8
0
  6
Continuous
 62
     7
370
    15
100
AcDbLine
 10
1074.8060554683
 20
224.6437111486
 30
0.0
 11
1077.6631988527
 21
218.0299533144
 31
0.0
  0
LINE
  5
418
330
1F
100
AcDbEntity
  8
0
  6
Continuous
 62
     7
370
    15
100
AcDbLine
 10
1077.6631988527
 20
218.0299533144
 30
0.0
 11
1080.9436227385
 21
211.5749256682
 31
0.0
  0
LINE
  5
419
330
1F
100
AcDbEntity
  8
0
  6
Continuous
 62
     7
370
    15
100
AcDbLine
 10
1080.9436227385
 20
211.5749256682
 30
0.0
 11
1084.594417063
 21
205.437358398
 31
0.0
  0
LINE
  5
41A
330
1F
100
AcDbEntity
  8
0
  6
Continuous
 62
     7
370
    15
100
AcDbLine
 10
1084.594417063
 20
205.437358398
 30
0.0
 11
1088.5626717635
 21
199.5114313785
 31
0.0
  0
LINE
  5
41B
330
1F
100
AcDbEntity
  8
0
  6
Continuous
 62
     7
370
    15
100
AcDbLine
 10
1088.5626717635
 20
199.5114313785
 30
0.0
 11
1092.9542069654
 21
193.8500546724
 31
0.0
  0
LINE
  5
41C
330
1F
100
AcDbEntity
  8
0
  6
Continuous
 62
     7
370
    15
100
AcDbLine
 10
1092.9542069654
 20
193.8500546724
 30
0.0
 11
1097.6632025434
 21
188.400318217
 31
0.0
  0
LINE
  5
41D
330
1F
100
AcDbEntity
  8
0
  6
Continuous
 62
     7
370
    15
100
AcDbLine
 10
1097.6632025434
 20
188.400318217
 30
0.0
 11
1102.7954786228
 21
183.215132075
 31
0.0
  0
LINE
  5
41E
330
1F
100
AcDbEntity
  8
0
  6
Continuous
 62
     7
370
    15
100
AcDbLine
 10
1102.7954786228
 20
183.215132075
 30
0.0
 11
1108.2452150782
 21
178.2415861836
 31
0.0
  0
LINE
  5
41F
330
1F
100
AcDbEntity
  8
0
  6
Continuous
 62
     7
370
    15
100
AcDbLine
 10
1108.2452150782
 20
178.2415861836
 30
0.0
 11
1114.118232035
 21
173.5325906057
 31
0.0
  0
LINE
  5
420
330
1F
100
AcDbEntity
  8
0
  6
Continuous
 62
     7
370
    15
100
AcDbLine
 10
1114.118232035
 20
173.5325906057
 30
0.0
 11
1126.7108269513
 21
164.9082503898
 31
0.0
  0
LINE
  5
421
330
1F
100
AcDbEntity
  8
0
  6
Continuous
 62
     7
370
    15
100
AcDbLine
 10
1126.7108269513
 20
164.9082503898
 30
0.0
 11
1140.4145331839
 21
157.3950214901
 31
0.0
  0
LINE
  5
422
330
1F
100
AcDbEntity
  8
0
  6
Continuous
 62
     7
370
    15
100
AcDbLine
 10
1140.4145331839
 20
157.3950214901
 30
0.0
 11
1155.1764406699
 21
151.0458139693
 31
0.0
  0
LINE
  5
423
330
1F
100
AcDbEntity
  8
0
  6
Continuous
 62
     7
370
    15
100
AcDbLine
 10
1155.1764406699
 20
151.0458139693
 30
0.0
 11
1171.049459472
 21
145.8606278272
 31
0.0
  0
LINE
  5
424
330
1F
100
AcDbEntity
  8
0
  6
Continuous
 62
     7
370
    15
100
AcDbLine
 10
1171.049459472
 20
145.8606278272
 30
0.0
 11
1187.9806795276
 21
141.7865530014
 31
0.0
  0
LINE
  5
425
330
1F
100
AcDbEntity
  8
0
  6
Continuous
 62
     7
370
    15
100
AcDbLine
 10
1187.9806795276
 20
141.7865530014
 30
0.0
 11
1203.7214231733
 21
139.1939599303
 31
0.0
  0
LINE
  5
426
330
1F
100
AcDbEntity
  8
0
  6
Continuous
 62
     7
370
    15
100
AcDbLine
 10
1203.7214231733
 20
139.1939599303
 30
0.0
 11
1294.7769043073
 21
139.1939599303
 31
0.0
  0
LINE
  5
427
330
1F
100
AcDbEntity
  8
0
  6
Continuous
 62
     7
370
    15
100
AcDbLine
 10
814.1816687495
 20
170.1992566572
 30
0.0
 11
806.5041667029
 21
139.1939599303
 31
0.0
  0
LINE
  5
428
330
1F
100
AcDbEntity
  8
0
  6
Continuous
 62
     7
370
    15
100
AcDbLine
 10
814.1816687495
 20
170.1992566572
 30
0.0
 11
802.4356348359
 21
171.9981987881
 31
0.0
  0
LINE
  5
429
330
1F
100
AcDbEntity
  8
0
  6
Continuous
 62
     7
370
    15
100
AcDbLine
 10
802.4356348359
 20
171.9981987881
 30
0.0
 11
791.4832518624
 21
174.7495220472
 31
0.0
  0
LINE
  5
42A
330
1F
100
AcDbEntity
  8
0
  6
Continuous
 62
     7
370
    15
100
AcDbLine
 10
791.4832518624
 20
174.7495220472
 30
0.0
 11
781.324519829
 21
178.4532264343
 31
0.0
  0
LINE
  5
42B
330
1F
100
AcDbEntity
  8
0
  6
Continuous
 62
     7
370
    15
100
AcDbLine
 10
781.324519829
 20
178.4532264343
 30
0.0
 11
771.9594387357
 21
183.056401887
 31
0.0
  0
LINE
  5
42C
330
1F
100
AcDbEntity
  8
0
  6
Continuous
 62
     7
370
    15
100
AcDbLine
 10
771.9594387357
 20
183.056401887
 30
0.0
 11
763.3350985199
 21
188.6648685304
 31
0.0
  0
LINE
  5
42D
330
1F
100
AcDbEntity
  8
0
  6
Continuous
 62
     7
370
    15
100
AcDbLine
 10
763.3350985199
 20
188.6648685304
 30
0.0
 11
755.5044092442
 21
195.1728062393
 31
0.0
  0
LINE
  5
42E
330
1F
100
AcDbEntity
  8
0
  6
Continuous
 62
     7
370
    15
100
AcDbLine
 10
755.5044092442
 20
195.1728062393
 30
0.0
 11
748.4673709086
 21
202.686035139
 31
0.0
  0
LINE
  5
42F
330
1F
100
AcDbEntity
  8
0
  6
Continuous
 62
     7
370
    15
100
AcDbLine
 10
748.4673709086
 20
202.686035139
 30
0.0
 11
742.223983513
 21
210.8341847907
 31
0.0
  0
LINE
  5
430
330
1F
100
AcDbEntity
  8
0
  6
Continuous
 62
     7
370
    15
100
AcDbLine
 10
742.223983513
 20
210.8341847907
 30
0.0
 11
736.8271571203
 21
219.4056149439
 31
0.0
  0
LINE
  5
431
330
1F
100
AcDbEntity
  8
0
  6
Continuous
 62
     7
370
    15
100
AcDbLine
 10
736.8271571203
 20
219.4056149439
 30
0.0
 11
732.2239816677
 21
228.3474155358
 31
0.0
  0
LINE
  5
432
330
1F
100
AcDbEntity
  8
0
  6
Continuous
 62
     7
370
    15
100
AcDbLine
 10
732.2239816677
 20
228.3474155358
 30
0.0
 11
728.4673672178
 21
237.712496629
 31
0.0
  0
LINE
  5
433
330
1F
100
AcDbEntity
  8
0
  6
Continuous
 62
     7
370
    15
100
AcDbLine
 10
728.4673672178
 20
237.712496629
 30
0.0
 11
725.5573137708
 21
247.447948161
 31
0.0
  0
LINE
  5
434
330
1F
100
AcDbEntity
  8
0
  6
Continuous
 62
     7
370
    15
100
AcDbLine
 10
725.5573137708
 20
247.447948161
 30
0.0
 11
723.4409112638
 21
257.5537701317
 31
0.0
  0
LINE
  5
435
330
1F
100
AcDbEntity
  8
0
  6
Continuous
 62
     7
370
    15
100
AcDbLine
 10
723.4409112638
 20
257.5537701317
 30
0.0
 11
722.1710697597
 21
268.0299625412
 31
0.0
  0
LINE
  5
436
330
1F
100
AcDbEntity
  8
0
  6
Continuous
 62
     7
370
    15
100
AcDbLine
 10
722.1710697597
 20
268.0299625412
 30
0.0
 11
721.7477892583
 21
278.929435452
 31
0.0
  0
LINE
  5
437
330
1F
100
AcDbEntity
  8
0
  6
Continuous
 62
     7
370
    15
100
AcDbLine
 10
721.7477892583
 20
278.929435452
 30
0.0
 11
722.0652496343
 21
289.5643580494
 31
0.0
  0
LINE
  5
438
330
1F
100
AcDbEntity
  8
0
  6
Continuous
 62
     7
370
    15
100
AcDbLine
 10
722.0652496343
 20
289.5643580494
 30
0.0
 11
723.2292710131
 21
299.9347303335
 31
0.0
  0
LINE
  5
439
330
1F
100
AcDbEntity
  8
0
  6
Continuous
 62
     7
370
    15
100
AcDbLine
 10
723.2292710131
 20
299.9347303335
 30
0.0
 11
725.1869433321
 21
309.9347321788
 31
0.0
  0
LINE
  5
43A
330
1F
100
AcDbEntity
  8
0
  6
Continuous
 62
     7
370
    15
100
AcDbLine
 10
725.1869433321
 20
309.9347321788
 30
0.0
 11
727.9911766538
 21
319.6701837108
 31
0.0
  0
LINE
  5
43B
330
1F
100
AcDbEntity
  8
0
  6
Continuous
 62
     7
370
    15
100
AcDbLine
 10
727.9911766538
 20
319.6701837108
 30
0.0
 11
731.5890609156
 21
329.0352648041
 31
0.0
  0
LINE
  5
43C
330
1F
100
AcDbEntity
  8
0
  6
Continuous
 62
     7
370
    15
100
AcDbLine
 10
731.5890609156
 20
329.0352648041
 30
0.0
 11
735.9805961175
 21
338.0828855213
 31
0.0
  0
LINE
  5
43D
330
1F
100
AcDbEntity
  8
0
  6
Continuous
 62
     7
370
    15
100
AcDbLine
 10
735.9805961175
 20
338.0828855213
 30
0.0
 11
741.2186923222
 21
346.8659559252
 31
0.0
  0
LINE
  5
43E
330
1F
100
AcDbEntity
  8
0
  6
Continuous
 62
     7
370
    15
100
AcDbLine
 10
741.2186923222
 20
346.8659559252
 30
0.0
 11
747.2504394671
 21
355.2786558903
 31
0.0
  0
LINE
  5
43F
330
1F
100
AcDbEntity
  8
0
  6
Continuous
 62
     7
370
    15
100
AcDbLine
 10
747.2504394671
 20
355.2786558903
 30
0.0
 11
754.1287476147
 21
363.0564351034
 31
0.0
  0
LINE
  5
440
330
1F
100
AcDbEntity
  8
0
  6
Continuous
 62
     7
370
    15
100
AcDbLine
 10
754.1287476147
 20
363.0564351034
 30
0.0
 11
761.9594368904
 21
369.8289231256
 31
0.0
  0
LINE
  5
441
330
1F
100
AcDbEntity
  8
0
  6
Continuous
 62
     7
370
    15
100
AcDbLine
 10
761.9594368904
 20
369.8289231256
 30
0.0
 11
770.6366871689
 21
375.6490300197
 31
0.0
  0
LINE
  5
442
330
1F
100
AcDbEntity
  8
0
  6
Continuous
 62
     7
370
    15
100
AcDbLine
 10
770.6366871689
 20
375.6490300197
 30
0.0
 11
780.2663185755
 21
380.4638457231
 31
0.0
  0
LINE
  5
443
330
1F
100
AcDbEntity
  8
0
  6
Continuous
 62
     7
370
    15
100
AcDbLine
 10
780.2663185755
 20
380.4638457231
 30
0.0
 11
790.742510985
 21
384.3262802983
 31
0.0
  0
LINE
  5
444
330
1F
100
AcDbEntity
  8
0
  6
Continuous
 62
     7
370
    15
100
AcDbLine
 10
790.742510985
 20
384.3262802983
 30
0.0
 11
802.1710845225
 21
387.2363337453
 31
0.0
  0
LINE
  5
445
330
1F
100
AcDbEntity
  8
0
  6
Continuous
 62
     7
370
    15
100
AcDbLine
 10
802.1710845225
 20
387.2363337453
 30
0.0
 11
814.4462190628
 21
389.1410960016
 31
0.0
  0
LINE
  5
446
330
1F
100
AcDbEntity
  8
0
  6
Continuous
 62
     7
370
    15
100
AcDbLine
 10
814.4462190628
 20
389.1410960016
 30
0.0
 11
827.6737347313
 21
390.040567067
 31
0.0
  0
LINE
  5
447
330
1F
100
AcDbEntity
  8
0
  6
Continuous
 62
     7
370
    15
100
AcDbLine
 10
829.7872206884
 20
423.3193750777
 30
0.0
 11
827.6737347313
 21
390.040567067
 31
0.0
  0
LINE
  5
448
330
1F
100
AcDbEntity
  8
0
  6
Continuous
 62
     7
370
    15
100
AcDbLine
 10
829.7872206884
 20
423.3193750777
 30
0.0
 11
829.7372271756
 21
423.3209964889
 31
0.0
  0
LINE
  5
449
330
1F
100
AcDbEntity
  8
0
  6
Continuous
 62
     7
370
    15
100
AcDbLine
 10
829.7372271756
 20
423.3209964889
 30
0.0
 11
829.7890004986
 21
423.3473998502
 31
0.0
  0
LINE
  5
44A
330
1F
100
AcDbEntity
  8
0
  6
Continuous
 62
     7
370
    15
100
AcDbLine
 10
829.7890004986
 20
423.3473998502
 30
0.0
 11
810.9012448637
 21
422.5273455488
 31
0.0
  0
LINE
  5
44B
330
1F
100
AcDbEntity
  8
0
  6
Continuous
 62
     7
370
    15
100
AcDbLine
 10
810.9012448637
 20
422.5273455488
 30
0.0
 11
793.1234638053
 21
420.5696732298
 31
0.0
  0
LINE
  5
44C
330
1F
100
AcDbEntity
  8
0
  6
Continuous
 62
     7
370
    15
100
AcDbLine
 10
793.1234638053
 20
420.5696732298
 30
0.0
 11
776.298063875
 21
417.4479795321
 31
0.0
  0
LINE
  5
44D
330
1F
100
AcDbEntity
  8
0
  6
Continuous
 62
     7
370
    15
100
AcDbLine
 10
776.298063875
 20
417.4479795321
 30
0.0
 11
760.4779551355
 21
413.1093543928
 31
0.0
  0
LINE
  5
44E
330
1F
100
AcDbEntity
  8
0
  6
Continuous
 62
     7
370
    15
100
AcDbLine
 10
760.4779551355
 20
413.1093543928
 30
0.0
 11
745.6631375868
 21
407.6067078748
 31
0.0
  0
LINE
  5
44F
330
1F
100
AcDbEntity
  8
0
  6
Continuous
 62
     7
370
    15
100
AcDbLine
 10
745.6631375868
 20
407.6067078748
 30
0.0
 11
731.9065212916
 21
400.8871299152
 31
0.0
  0
LINE
  5
450
330
1F
100
AcDbEntity
  8
0
  6
Continuous
 62
     7
370
    15
100
AcDbLine
 10
731.9065212916
 20
400.8871299152
 30
0.0
 11
719.1022861246
 21
393.0035305768
 31
0.0
  0
LINE
  5
451
330
1F
100
AcDbEntity
  8
0
  6
Continuous
 62
     7
370
    15
100
AcDbLine
 10
719.1022861246
 20
393.0035305768
 30
0.0
 11
707.3033421483
 21
383.9559098595
 31
0.0
  0
LINE
  5
452
330
1F
100
AcDbEntity
  8
0
  6
Continuous
 62
     7
370
    15
100
AcDbLine
 10
707.3033421483
 20
383.9559098595
 30
0.0
 11
701.8536056929
 21
379.0352740309
 31
0.0
  0
LINE
  5
453
330
1F
100
AcDbEntity
  8
0
  6
Continuous
 62
     7
370
    15
100
AcDbLine
 10
701.8536056929
 20
379.0352740309
 30
0.0
 11
696.7213296135
 21
373.8500878888
 31
0.0
  0
LINE
  5
454
330
1F
100
AcDbEntity
  8
0
  6
Continuous
 62
     7
370
    15
100
AcDbLine
 10
696.7213296135
 20
373.8500878888
 30
0.0
 11
691.9065139102
 21
368.4532614961
 31
0.0
  0
LINE
  5
455
330
1F
100
AcDbEntity
  8
0
  6
Continuous
 62
     7
370
    15
100
AcDbLine
 10
691.9065139102
 20
368.4532614961
 30
0.0
 11
687.5149787083
 21
362.8447948527
 31
0.0
  0
LINE
  5
456
330
1F
100
AcDbEntity
  8
0
  6
Continuous
 62
     7
370
    15
100
AcDbLine
 10
687.5149787083
 20
362.8447948527
 30
0.0
 11
683.3879938197
 21
356.9717778959
 31
0.0
  0
LINE
  5
457
330
1F
100
AcDbEntity
  8
0
  6
Continuous
 62
     7
370
    15
100
AcDbLine
 10
683.3879938197
 20
356.9717778959
 30
0.0
 11
679.6842894326
 21
350.8871206884
 31
0.0
  0
LINE
  5
458
330
1F
100
AcDbEntity
  8
0
  6
Continuous
 62
     7
370
    15
100
AcDbLine
 10
679.6842894326
 20
350.8871206884
 30
0.0
 11
676.2451353588
 21
344.5908232302
 31
0.0
  0
LINE
  5
459
330
1F
100
AcDbEntity
  8
0
  6
Continuous
 62
     7
370
    15
100
AcDbLine
 10
676.2451353588
 20
344.5908232302
 30
0.0
 11
673.2292617863
 21
338.0828855213
 31
0.0
  0
LINE
  5
45A
330
1F
100
AcDbEntity
  8
0
  6
Continuous
 62
     7
370
    15
100
AcDbLine
 10
673.2292617863
 20
338.0828855213
 30
0.0
 11
670.53084859
 21
331.3633075617
 31
0.0
  0
LINE
  5
45B
330
1F
100
AcDbEntity
  8
0
  6
Continuous
 62
     7
370
    15
100
AcDbLine
 10
670.53084859
 20
331.3633075617
 30
0.0
 11
668.1498957697
 21
324.3791792888
 31
0.0
  0
LINE
  5
45C
330
1F
100
AcDbEntity
  8
0
  6
Continuous
 62
     7
370
    15
100
AcDbLine
 10
668.1498957697
 20
324.3791792888
 30
0.0
 11
666.1393133881
 21
317.1834107652
 31
0.0
  0
LINE
  5
45D
330
1F
100
AcDbEntity
  8
0
  6
Continuous
 62
     7
370
    15
100
AcDbLine
 10
666.1393133881
 20
317.1834107652
 30
0.0
 11
664.4461913825
 21
309.7760019908
 31
0.0
  0
LINE
  5
45E
330
1F
100
AcDbEntity
  8
0
  6
Continuous
 62
     7
370
    15
100
AcDbLine
 10
664.4461913825
 20
309.7760019908
 30
0.0
 11
663.1234398156
 21
302.1569529658
 31
0.0
  0
LINE
  5
45F
330
1F
100
AcDbEntity
  8
0
  6
Continuous
 62
     7
370
    15
100
AcDbLine
 10
663.1234398156
 20
302.1569529658
 30
0.0
 11
662.1710586875
 21
294.2733536274
 31
0.0
  0
LINE
  5
460
330
1F
100
AcDbEntity
  8
0
  6
Continuous
 62
     7
370
    15
100
AcDbLine
 10
662.1710586875
 20
294.2733536274
 30
0.0
 11
661.5361379354
 21
286.1781140383
 31
0.0
  0
LINE
  5
461
330
1F
100
AcDbEntity
  8
0
  6
Continuous
 62
     7
370
    15
100
AcDbLine
 10
661.5361379354
 20
286.1781140383
 30
0.0
 11
661.2186775594
 21
277.8712341985
 31
0.0
  0
LINE
  5
462
330
1F
100
AcDbEntity
  8
0
  6
Continuous
 62
     7
370
    15
100
AcDbLine
 10
661.2186775594
 20
277.8712341985
 30
0.0
 11
661.4832278728
 21
269.8818147347
 31
0.0
  0
LINE
  5
463
330
1F
100
AcDbEntity
  8
0
  6
Continuous
 62
     7
370
    15
100
AcDbLine
 10
661.4832278728
 20
269.8818147347
 30
0.0
 11
662.0652385622
 21
262.1040355217
 31
0.0
  0
LINE
  5
464
330
1F
100
AcDbEntity
  8
0
  6
Continuous
 62
     7
370
    15
100
AcDbLine
 10
662.0652385622
 20
262.1040355217
 30
0.0
 11
662.9647096276
 21
254.4849864966
 31
0.0
  0
LINE
  5
465
330
1F
100
AcDbEntity
  8
0
  6
Continuous
 62
     7
370
    15
100
AcDbLine
 10
662.9647096276
 20
254.4849864966
 30
0.0
 11
664.2345511318
 21
247.130487785
 31
0.0
  0
LINE
  5
466
330
1F
100
AcDbEntity
  8
0
  6
Continuous
 62
     7
370
    15
100
AcDbLine
 10
664.2345511318
 20
247.130487785
 30
0.0
 11
665.7689429493
 21
239.987629324
 31
0.0
  0
LINE
  5
467
330
1F
100
AcDbEntity
  8
0
  6
Continuous
 62
     7
370
    15
100
AcDbLine
 10
665.7689429493
 20
239.987629324
 30
0.0
 11
667.6737052056
 21
233.0035010511
 31
0.0
  0
LINE
  5
468
330
1F
100
AcDbEntity
  8
0
  6
Continuous
 62
     7
370
    15
100
AcDbLine
 10
667.6737052056
 20
233.0035010511
 30
0.0
 11
669.9488379006
 21
226.2839230915
 31
0.0
  0
LINE
  5
469
330
1F
100
AcDbEntity
  8
0
  6
Continuous
 62
     7
370
    15
100
AcDbLine
 10
669.9488379006
 20
226.2839230915
 30
0.0
 11
672.4885209089
 21
219.7759853826
 31
0.0
  0
LINE
  5
46A
330
1F
100
AcDbEntity
  8
0
  6
Continuous
 62
     7
370
    15
100
AcDbLine
 10
672.4885209089
 20
219.7759853826
 30
0.0
 11
675.398574356
 21
213.4267778617
 31
0.0
  0
LINE
  5
46B
330
1F
100
AcDbEntity
  8
0
  6
Continuous
 62
     7
370
    15
100
AcDbLine
 10
675.398574356
 20
213.4267778617
 30
0.0
 11
678.6260881791
 21
207.2892105916
 31
0.0
  0
LINE
  5
46C
330
1F
100
AcDbEntity
  8
0
  6
Continuous
 62
     7
370
    15
100
AcDbLine
 10
678.6260881791
 20
207.2892105916
 30
0.0
 11
682.1710623782
 21
201.4161936348
 31
0.0
  0
LINE
  5
46D
330
1F
100
AcDbEntity
  8
0
  6
Continuous
 62
     7
370
    15
100
AcDbLine
 10
682.1710623782
 20
201.4161936348
 30
0.0
 11
686.0864070161
 21
195.701906866
 31
0.0
  0
LINE
  5
46E
330
1F
100
AcDbEntity
  8
0
  6
Continuous
 62
     7
370
    15
100
AcDbLine
 10
686.0864070161
 20
195.701906866
 30
0.0
 11
690.2663019673
 21
190.1992603479
 31
0.0
  0
LINE
  5
46F
330
1F
100
AcDbEntity
  8
0
  6
Continuous
 62
     7
370
    15
100
AcDbLine
 10
690.2663019673
 20
190.1992603479
 30
0.0
 11
694.8165673573
 21
184.9611641432
 31
0.0
  0
LINE
  5
470
330
1F
100
AcDbEntity
  8
0
  6
Continuous
 62
     7
370
    15
100
AcDbLine
 10
694.8165673573
 20
184.9611641432
 30
0.0
 11
699.7372031859
 21
179.8817981265
 31
0.0
  0
LINE
  5
471
330
1F
100
AcDbEntity
  8
0
  6
Continuous
 62
     7
370
    15
100
AcDbLine
 10
699.7372031859
 20
179.8817981265
 30
0.0
 11
704.922389328
 21
175.0140723605
 31
0.0
  0
LINE
  5
472
330
1F
100
AcDbEntity
  8
0
  6
Continuous
 62
     7
370
    15
100
AcDbLine
 10
704.922389328
 20
175.0140723605
 30
0.0
 11
716.1922326775
 21
166.0722717687
 31
0.0
  0
LINE
  5
473
330
1F
100
AcDbEntity
  8
0
  6
Continuous
 62
     7
370
    15
100
AcDbLine
 10
716.1922326775
 20
166.0722717687
 30
0.0
 11
728.5202772805
 21
158.2944925556
 31
0.0
  0
LINE
  5
474
330
1F
100
AcDbEntity
  8
0
  6
Continuous
 62
     7
370
    15
100
AcDbLine
 10
728.5202772805
 20
158.2944925556
 30
0.0
 11
741.906523137
 21
151.6807347214
 31
0.0
  0
LINE
  5
475
330
1F
100
AcDbEntity
  8
0
  6
Continuous
 62
     7
370
    15
100
AcDbLine
 10
741.906523137
 20
151.6807347214
 30
0.0
 11
756.2980601843
 21
146.230998266
 31
0.0
  0
LINE
  5
476
330
1F
100
AcDbEntity
  8
0
  6
Continuous
 62
     7
370
    15
100
AcDbLine
 10
756.2980601843
 20
146.230998266
 30
0.0
 11
771.8007085477
 21
141.9452831894
 31
0.0
  0
LINE
  5
477
330
1F
100
AcDbEntity
  8
0
  6
Continuous
 62
     7
370
    15
100
AcDbLine
 10
771.8007085477
 20
141.9452831894
 30
0.0
 11
788.308648102
 21
138.8235894916
 31
0.0
  0
LINE
  5
478
330
1F
100
AcDbEntity
  8
0
  6
Continuous
 62
     7
370
    15
100
AcDbLine
 10
788.308648102
 20
138.8235894916
 30
0.0
 11
806.5041667029
 21
139.1939599303
 31
0.0
  0
LINE
  5
479
330
1F
100
AcDbEntity
  8
0
  6
Continuous
 62
     7
370
    15
100
AcDbLine
 10
449.0069981871
 20
257.7654103824
 30
0.0
 11
455.9911264601
 21
257.2363097557
 31
0.0
  0
LINE
  5
47A
330
1F
100
AcDbEntity
  8
0
  6
Continuous
 62
     7
370
    15
100
AcDbLine
 10
455.9911264601
 20
257.2363097557
 30
0.0
 11
462.5519742316
 21
256.3897487529
 31
0.0
  0
LINE
  5
47B
330
1F
100
AcDbEntity
  8
0
  6
Continuous
 62
     7
370
    15
100
AcDbLine
 10
462.5519742316
 20
256.3897487529
 30
0.0
 11
468.6366314391
 21
255.1199072487
 31
0.0
  0
LINE
  5
47C
330
1F
100
AcDbEntity
  8
0
  6
Continuous
 62
     7
370
    15
100
AcDbLine
 10
468.6366314391
 20
255.1199072487
 30
0.0
 11
474.2980081452
 21
253.4267852432
 31
0.0
  0
LINE
  5
47D
330
1F
100
AcDbEntity
  8
0
  6
Continuous
 62
     7
370
    15
100
AcDbLine
 10
474.2980081452
 20
253.4267852432
 30
0.0
 11
479.4831942873
 21
251.3632927989
 31
0.0
  0
LINE
  5
47E
330
1F
100
AcDbEntity
  8
0
  6
Continuous
 62
     7
370
    15
100
AcDbLine
 10
479.4831942873
 20
251.3632927989
 30
0.0
 11
484.2450999279
 21
248.9294299159
 31
0.0
  0
LINE
  5
47F
330
1F
100
AcDbEntity
  8
0
  6
Continuous
 62
     7
370
    15
100
AcDbLine
 10
484.2450999279
 20
248.9294299159
 30
0.0
 11
488.5837250672
 21
246.1251965942
 31
0.0
  0
LINE
  5
480
330
1F
100
AcDbEntity
  8
0
  6
Continuous
 62
     7
370
    15
100
AcDbLine
 10
488.5837250672
 20
246.1251965942
 30
0.0
 11
492.5519797677
 21
242.8447727084
 31
0.0
  0
LINE
  5
481
330
1F
100
AcDbEntity
  8
0
  6
Continuous
 62
     7
370
    15
100
AcDbLine
 10
492.5519797677
 20
242.8447727084
 30
0.0
 11
496.2556841549
 21
239.0881582586
 31
0.0
  0
LINE
  5
482
330
1F
100
AcDbEntity
  8
0
  6
Continuous
 62
     7
370
    15
100
AcDbLine
 10
496.2556841549
 20
239.0881582586
 30
0.0
 11
499.641928166
 21
234.8553532447
 31
0.0
  0
LINE
  5
483
330
1F
100
AcDbEntity
  8
0
  6
Continuous
 62
     7
370
    15
100
AcDbLine
 10
499.641928166
 20
234.8553532447
 30
0.0
 11
502.8165319264
 21
230.1463576667
 31
0.0
  0
LINE
  5
484
330
1F
100
AcDbEntity
  8
0
  6
Continuous
 62
     7
370
    15
100
AcDbLine
 10
502.8165319264
 20
230.1463576667
 30
0.0
 11
505.6736753108
 21
224.908261462
 31
0.0
  0
LINE
  5
485
330
1F
100
AcDbEntity
  8
0
  6
Continuous
 62
     7
370
    15
100
AcDbLine
 10
505.6736753108
 20
224.908261462
 30
0.0
 11
508.2662683818
 21
219.1939746932
 31
0.0
  0
LINE
  5
486
330
1F
100
AcDbEntity
  8
0
  6
Continuous
 62
     7
370
    15
100
AcDbLine
 10
508.2662683818
 20
219.1939746932
 30
0.0
 11
510.5414010768
 21
213.0034973604
 31
0.0
  0
LINE
  5
487
330
1F
100
AcDbEntity
  8
0
  6
Continuous
 62
     7
370
    15
100
AcDbLine
 10
510.5414010768
 20
213.0034973604
 30
0.0
 11
512.6048935211
 21
206.3368294634
 31
0.0
  0
LINE
  5
488
330
1F
100
AcDbEntity
  8
0
  6
Continuous
 62
     7
370
    15
100
AcDbLine
 10
512.6048935211
 20
206.3368294634
 30
0.0
 11
516.2556878456
 21
193.9029647351
 31
0.0
  0
LINE
  5
489
330
1F
100
AcDbEntity
  8
0
  6
Continuous
 62
     7
370
    15
100
AcDbLine
 10
516.2556878456
 20
193.9029647351
 30
0.0
 11
519.8006620447
 21
182.5273012602
 31
0.0
  0
LINE
  5
48A
330
1F
100
AcDbEntity
  8
0
  6
Continuous
 62
     7
370
    15
100
AcDbLine
 10
519.8006620447
 20
182.5273012602
 30
0.0
 11
523.1869060559
 21
172.2098390388
 31
0.0
  0
LINE
  5
48B
330
1F
100
AcDbEntity
  8
0
  6
Continuous
 62
     7
370
    15
100
AcDbLine
 10
523.1869060559
 20
172.2098390388
 30
0.0
 11
526.4673299416
 21
163.0034881336
 31
0.0
  0
LINE
  5
48C
330
1F
100
AcDbEntity
  8
0
  6
Continuous
 62
     7
370
    15
100
AcDbLine
 10
526.4673299416
 20
163.0034881336
 30
0.0
 11
529.5890236394
 21
155.0140686698
 31
0.0
  0
LINE
  5
48D
330
1F
100
AcDbEntity
  8
0
  6
Continuous
 62
     7
370
    15
100
AcDbLine
 10
529.5890236394
 20
155.0140686698
 30
0.0
 11
532.3932569611
 21
148.4532208983
 31
0.0
  0
LINE
  5
48E
330
1F
100
AcDbEntity
  8
0
  6
Continuous
 62
     7
370
    15
100
AcDbLine
 10
532.3932569611
 20
148.4532208983
 30
0.0
 11
534.9858500321
 21
143.2151246936
 31
0.0
  0
LINE
  5
48F
330
1F
100
AcDbEntity
  8
0
  6
Continuous
 62
     7
370
    15
100
AcDbLine
 10
534.9858500321
 20
143.2151246936
 30
0.0
 11
537.2609827271
 21
139.405600181
 31
0.0
  0
LINE
  5
490
330
1F
100
AcDbEntity
  8
0
  6
Continuous
 62
     7
370
    15
100
AcDbLine
 10
537.2609827271
 20
139.405600181
 30
0.0
 11
599.1400244039
 21
139.4307634628
 31
0.0
  0
LINE
  5
491
330
1F
100
AcDbEntity
  8
0
  6
Continuous
 62
     7
370
    15
100
AcDbLine
 10
599.1400244039
 20
139.4307634628
 30
0.0
 11
596.1498824831
 21
144.273325947
 31
0.0
  0
LINE
  5
492
330
1F
100
AcDbEntity
  8
0
  6
Continuous
 62
     7
370
    15
100
AcDbLine
 10
596.1498824831
 20
144.273325947
 30
0.0
 11
592.9752787227
 21
150.6225334679
 31
0.0
  0
LINE
  5
493
330
1F
100
AcDbEntity
  8
0
  6
Continuous
 62
     7
370
    15
100
AcDbLine
 10
592.9752787227
 20
150.6225334679
 30
0.0
 11
589.5890347115
 21
158.4532227436
 31
0.0
  0
LINE
  5
494
330
1F
100
AcDbEntity
  8
0
  6
Continuous
 62
     7
370
    15
100
AcDbLine
 10
589.5890347115
 20
158.4532227436
 30
0.0
 11
586.0440605124
 21
167.7124837115
 31
0.0
  0
LINE
  5
495
330
1F
100
AcDbEntity
  8
0
  6
Continuous
 62
     7
370
    15
100
AcDbLine
 10
586.0440605124
 20
167.7124837115
 30
0.0
 11
582.2874460625
 21
178.188676121
 31
0.0
  0
LINE
  5
496
330
1F
100
AcDbEntity
  8
0
  6
Continuous
 62
     7
370
    15
100
AcDbLine
 10
582.2874460625
 20
178.188676121
 30
0.0
 11
578.319191362
 21
189.6701597212
 31
0.0
  0
LINE
  5
497
330
1F
100
AcDbEntity
  8
0
  6
Continuous
 62
     7
370
    15
100
AcDbLine
 10
578.319191362
 20
189.6701597212
 30
0.0
 11
574.1392964108
 21
202.1040244495
 31
0.0
  0
LINE
  5
498
330
1F
100
AcDbEntity
  8
0
  6
Continuous
 62
     7
370
    15
100
AcDbLine
 10
574.1392964108
 20
202.1040244495
 30
0.0
 11
569.8006712715
 21
215.490270306
 31
0.0
  0
LINE
  5
499
330
1F
100
AcDbEntity
  8
0
  6
Continuous
 62
     7
370
    15
100
AcDbLine
 10
569.8006712715
 20
215.490270306
 30
0.0
 11
565.991146759
 21
226.1251929035
 31
0.0
  0
LINE
  5
49A
330
1F
100
AcDbEntity
  8
0
  6
Continuous
 62
     7
370
    15
100
AcDbLine
 10
565.991146759
 20
226.1251929035
 30
0.0
 11
561.3879713064
 21
235.7548243101
 31
0.0
  0
LINE
  5
49B
330
1F
100
AcDbEntity
  8
0
  6
Continuous
 62
     7
370
    15
100
AcDbLine
 10
561.3879713064
 20
235.7548243101
 30
0.0
 11
555.938234851
 21
244.3791645259
 31
0.0
  0
LINE
  5
49C
330
1F
100
AcDbEntity
  8
0
  6
Continuous
 62
     7
370
    15
100
AcDbLine
 10
555.938234851
 20
244.3791645259
 30
0.0
 11
549.7477575181
 21
251.998213551
 31
0.0
  0
LINE
  5
49D
330
1F
100
AcDbEntity
  8
0
  6
Continuous
 62
     7
370
    15
100
AcDbLine
 10
549.7477575181
 20
251.998213551
 30
0.0
 11
542.5519889945
 21
258.5590613225
 31
0.0
  0
LINE
  5
49E
330
1F
100
AcDbEntity
  8
0
  6
Continuous
 62
     7
370
    15
100
AcDbLine
 10
542.5519889945
 20
258.5590613225
 30
0.0
 11
534.35092928
 21
264.0617078406
 31
0.0
  0
LINE
  5
49F
330
1F
100
AcDbEntity
  8
0
  6
Continuous
 62
     7
370
    15
100
AcDbLine
 10
534.35092928
 20
264.0617078406
 30
0.0
 11
525.0387582494
 21
268.4532430425
 31
0.0
  0
LINE
  5
4A0
330
1F
100
AcDbEntity
  8
0
  6
Continuous
 62
     7
370
    15
100
AcDbLine
 10
525.0387582494
 20
268.4532430425
 30
0.0
 11
514.6683859654
 21
271.7336669283
 31
0.0
  0
LINE
  5
4A1
330
1F
100
AcDbEntity
  8
0
  6
Continuous
 62
     7
370
    15
100
AcDbLine
 10
514.6683859654
 20
271.7336669283
 30
0.0
 11
514.6778932423
 21
272.4314700498
 31
0.0
  0
LINE
  5
4A2
330
1F
100
AcDbEntity
  8
0
  6
Continuous
 62
     7
370
    15
100
AcDbLine
 10
514.6778932423
 20
272.4314700498
 30
0.0
 11
522.1287048024
 21
274.4849901874
 31
0.0
  0
LINE
  5
4A3
330
1F
100
AcDbEntity
  8
0
  6
Continuous
 62
     7
370
    15
100
AcDbLine
 10
522.1287048024
 20
274.4849901874
 30
0.0
 11
529.2186532007
 21
276.8659430077
 31
0.0
  0
LINE
  5
4A4
330
1F
100
AcDbEntity
  8
0
  6
Continuous
 62
     7
370
    15
100
AcDbLine
 10
529.2186532007
 20
276.8659430077
 30
0.0
 11
535.9911412229
 21
279.5114461414
 31
0.0
  0
LINE
  5
4A5
330
1F
100
AcDbEntity
  8
0
  6
Continuous
 62
     7
370
    15
100
AcDbLine
 10
535.9911412229
 20
279.5114461414
 30
0.0
 11
542.4461688691
 21
282.5273197138
 31
0.0
  0
LINE
  5
4A6
330
1F
100
AcDbEntity
  8
0
  6
Continuous
 62
     7
370
    15
100
AcDbLine
 10
542.4461688691
 20
282.5273197138
 30
0.0
 11
548.5308260766
 21
285.8606536622
 31
0.0
  0
LINE
  5
4A7
330
1F
100
AcDbEntity
  8
0
  6
Continuous
 62
     7
370
    15
100
AcDbLine
 10
548.5308260766
 20
285.8606536622
 30
0.0
 11
554.2980229081
 21
289.5114479867
 31
0.0
  0
LINE
  5
4A8
330
1F
100
AcDbEntity
  8
0
  6
Continuous
 62
     7
370
    15
100
AcDbLine
 10
554.2980229081
 20
289.5114479867
 30
0.0
 11
559.7477593635
 21
293.4797026873
 31
0.0
  0
LINE
  5
4A9
330
1F
100
AcDbEntity
  8
0
  6
Continuous
 62
     7
370
    15
100
AcDbLine
 10
559.7477593635
 20
293.4797026873
 30
0.0
 11
564.8271253802
 21
297.7654177639
 31
0.0
  0
LINE
  5
4AA
330
1F
100
AcDbEntity
  8
0
  6
Continuous
 62
     7
370
    15
100
AcDbLine
 10
564.8271253802
 20
297.7654177639
 30
0.0
 11
569.4832108955
 21
302.3685932165
 31
0.0
  0
LINE
  5
4AB
330
1F
100
AcDbEntity
  8
0
  6
Continuous
 62
     7
370
    15
100
AcDbLine
 10
569.4832108955
 20
302.3685932165
 30
0.0
 11
573.5043756587
 21
307.2363189825
 31
0.0
  0
LINE
  5
4AC
330
1F
100
AcDbEntity
  8
0
  6
Continuous
 62
     7
370
    15
100
AcDbLine
 10
573.5043756587
 20
307.2363189825
 30
0.0
 11
576.9435297325
 21
312.3685950618
 31
0.0
  0
LINE
  5
4AD
330
1F
100
AcDbEntity
  8
0
  6
Continuous
 62
     7
370
    15
100
AcDbLine
 10
576.9435297325
 20
312.3685950618
 30
0.0
 11
579.8006731169
 21
317.8712415799
 31
0.0
  0
LINE
  5
4AE
330
1F
100
AcDbEntity
  8
0
  6
Continuous
 62
     7
370
    15
100
AcDbLine
 10
579.8006731169
 20
317.8712415799
 30
0.0
 11
582.0758058119
 21
323.5855283487
 31
0.0
  0
LINE
  5
4AF
330
1F
100
AcDbEntity
  8
0
  6
Continuous
 62
     7
370
    15
100
AcDbLine
 10
582.0758058119
 20
323.5855283487
 30
0.0
 11
583.7689278174
 21
329.6172754935
 31
0.0
  0
LINE
  5
4B0
330
1F
100
AcDbEntity
  8
0
  6
Continuous
 62
     7
370
    15
100
AcDbLine
 10
583.7689278174
 20
329.6172754935
 30
0.0
 11
584.8271290709
 21
335.9135729517
 31
0.0
  0
LINE
  5
4B1
330
1F
100
AcDbEntity
  8
0
  6
Continuous
 62
     7
370
    15
100
AcDbLine
 10
584.8271290709
 20
335.9135729517
 30
0.0
 11
585.303319635
 21
342.5273307859
 31
0.0
  0
LINE
  5
4B2
330
1F
100
AcDbEntity
  8
0
  6
Continuous
 62
     7
370
    15
100
AcDbLine
 10
585.303319635
 20
342.5273307859
 30
0.0
 11
584.7742190082
 21
350.9929408137
 31
0.0
  0
LINE
  5
4B3
330
1F
100
AcDbEntity
  8
0
  6
Continuous
 62
     7
370
    15
100
AcDbLine
 10
584.7742190082
 20
350.9929408137
 30
0.0
 11
583.2398271907
 21
359.0352703402
 31
0.0
  0
LINE
  5
4B4
330
1F
100
AcDbEntity
  8
0
  6
Continuous
 62
     7
370
    15
100
AcDbLine
 10
583.2398271907
 20
359.0352703402
 30
0.0
 11
580.753054245
 21
366.6014093025
 31
0.0
  0
LINE
  5
4B5
330
1F
100
AcDbEntity
  8
0
  6
Continuous
 62
     7
370
    15
100
AcDbLine
 10
580.753054245
 20
366.6014093025
 30
0.0
 11
577.3139001712
 21
373.6913577008
 31
0.0
  0
LINE
  5
4B6
330
1F
100
AcDbEntity
  8
0
  6
Continuous
 62
     7
370
    15
100
AcDbLine
 10
577.3139001712
 20
373.6913577008
 30
0.0
 11
572.8694549066
 21
380.305115535
 31
0.0
  0
LINE
  5
4B7
330
1F
100
AcDbEntity
  8
0
  6
Continuous
 62
     7
370
    15
100
AcDbLine
 10
572.8694549066
 20
380.305115535
 30
0.0
 11
567.4726285139
 21
386.4955928679
 31
0.0
  0
LINE
  5
4B8
330
1F
100
AcDbEntity
  8
0
  6
Continuous
 62
     7
370
    15
100
AcDbLine
 10
567.4726285139
 20
386.4955928679
 30
0.0
 11
561.123420993
 21
392.2098796367
 31
0.0
  0
LINE
  5
4B9
330
1F
100
AcDbEntity
  8
0
  6
Continuous
 62
     7
370
    15
100
AcDbLine
 10
561.123420993
 20
392.2098796367
 30
0.0
 11
553.7689222813
 21
397.4479758414
 31
0.0
  0
LINE
  5
4BA
330
1F
100
AcDbEntity
  8
0
  6
Continuous
 62
     7
370
    15
100
AcDbLine
 10
553.7689222813
 20
397.4479758414
 30
0.0
 11
543.9805606867
 21
402.8977122968
 31
0.0
  0
LINE
  5
4BB
330
1F
100
AcDbEntity
  8
0
  6
Continuous
 62
     7
370
    15
100
AcDbLine
 10
543.9805606867
 20
402.8977122968
 30
0.0
 11
533.0281777132
 21
407.5537978121
 31
0.0
  0
LINE
  5
4BC
330
1F
100
AcDbEntity
  8
0
  6
Continuous
 62
     7
370
    15
100
AcDbLine
 10
533.0281777132
 20
407.5537978121
 30
0.0
 11
520.9646834236
 21
411.4162323873
 31
0.0
  0
LINE
  5
4BD
330
1F
100
AcDbEntity
  8
0
  6
Continuous
 62
     7
370
    15
100
AcDbLine
 10
520.9646834236
 20
411.4162323873
 30
0.0
 11
507.7900778178
 21
414.4850160224
 31
0.0
  0
LINE
  5
4BE
330
1F
100
AcDbEntity
  8
0
  6
Continuous
 62
     7
370
    15
100
AcDbLine
 10
507.7900778178
 20
414.4850160224
 30
0.0
 11
493.3456307078
 21
416.81305878
 31
0.0
  0
LINE
  5
4BF
330
1F
100
AcDbEntity
  8
0
  6
Continuous
 62
     7
370
    15
100
AcDbLine
 10
493.3456307078
 20
416.81305878
 30
0.0
 11
477.6313420937
 21
418.5061807856
 31
0.0
  0
LINE
  5
4C0
330
1F
100
AcDbEntity
  8
0
  6
Continuous
 62
     7
370
    15
100
AcDbLine
 10
477.6313420937
 20
418.5061807856
 30
0.0
 11
460.4884817874
 21
419.4585619137
 31
0.0
  0
LINE
  5
4C1
330
1F
100
AcDbEntity
  8
0
  6
Continuous
 62
     7
370
    15
100
AcDbLine
 10
460.4884817874
 20
419.4585619137
 30
0.0
 11
451.2821308822
 21
419.6172921017
 31
0.0
  0
LINE
  5
4C2
330
1F
100
AcDbEntity
  8
0
  6
Continuous
 62
     7
370
    15
100
AcDbLine
 10
451.2821308822
 20
419.6172921017
 30
0.0
 11
447.2080560562
 21
386.8130532439
 31
0.0
  0
LINE
  5
4C3
330
1F
100
AcDbEntity
  8
0
  6
Continuous
 62
     7
370
    15
100
AcDbLine
 10
447.2080560562
 20
386.8130532439
 30
0.0
 11
455.19747552
 21
386.7072331186
 31
0.0
  0
LINE
  5
4C4
330
1F
100
AcDbEntity
  8
0
  6
Continuous
 62
     7
370
    15
100
AcDbLine
 10
455.19747552
 20
386.7072331186
 30
0.0
 11
462.9223446704
 21
386.2839526172
 31
0.0
  0
LINE
  5
4C5
330
1F
100
AcDbEntity
  8
0
  6
Continuous
 62
     7
370
    15
100
AcDbLine
 10
462.9223446704
 20
386.2839526172
 30
0.0
 11
470.276843382
 21
385.4903016771
 31
0.0
  0
LINE
  5
4C6
330
1F
100
AcDbEntity
  8
0
  6
Continuous
 62
     7
370
    15
100
AcDbLine
 10
470.276843382
 20
385.4903016771
 30
0.0
 11
477.3138817176
 21
384.3262802983
 31
0.0
  0
LINE
  5
4C7
330
1F
100
AcDbEntity
  8
0
  6
Continuous
 62
     7
370
    15
100
AcDbLine
 10
477.3138817176
 20
384.3262802983
 30
0.0
 11
484.0334596772
 21
382.7918884807
 31
0.0
  0
LINE
  5
4C8
330
1F
100
AcDbEntity
  8
0
  6
Continuous
 62
     7
370
    15
100
AcDbLine
 10
484.0334596772
 20
382.7918884807
 30
0.0
 11
490.3826671981
 21
380.8871262245
 31
0.0
  0
LINE
  5
4C9
330
1F
100
AcDbEntity
  8
0
  6
Continuous
 62
     7
370
    15
100
AcDbLine
 10
490.3826671981
 20
380.8871262245
 30
0.0
 11
496.4673244056
 21
378.6649035922
 31
0.0
  0
LINE
  5
4CA
330
1F
100
AcDbEntity
  8
0
  6
Continuous
 62
     7
370
    15
100
AcDbLine
 10
496.4673244056
 20
378.6649035922
 30
0.0
 11
502.1816111743
 21
376.0723105211
 31
0.0
  0
LINE
  5
4CB
330
1F
100
AcDbEntity
  8
0
  6
Continuous
 62
     7
370
    15
100
AcDbLine
 10
502.1816111743
 20
376.0723105211
 30
0.0
 11
507.4197073791
 21
373.0564369487
 31
0.0
  0
LINE
  5
4CC
330
1F
100
AcDbEntity
  8
0
  6
Continuous
 62
     7
370
    15
100
AcDbLine
 10
507.4197073791
 20
373.0564369487
 30
0.0
 11
511.969972769
 21
369.5114627496
 31
0.0
  0
LINE
  5
4CD
330
1F
100
AcDbEntity
  8
0
  6
Continuous
 62
     7
370
    15
100
AcDbLine
 10
511.969972769
 20
369.5114627496
 30
0.0
 11
515.8853174069
 21
365.543208049
 31
0.0
  0
LINE
  5
4CE
330
1F
100
AcDbEntity
  8
0
  6
Continuous
 62
     7
370
    15
100
AcDbLine
 10
515.8853174069
 20
365.543208049
 30
0.0
 11
519.11283123
 21
361.0458527218
 31
0.0
  0
LINE
  5
4CF
330
1F
100
AcDbEntity
  8
0
  6
Continuous
 62
     7
370
    15
100
AcDbLine
 10
519.11283123
 20
361.0458527218
 30
0.0
 11
521.705424301
 21
356.0193967678
 31
0.0
  0
LINE
  5
4D0
330
1F
100
AcDbEntity
  8
0
  6
Continuous
 62
     7
370
    15
100
AcDbLine
 10
521.705424301
 20
356.0193967678
 30
0.0
 11
523.6101865573
 21
350.5696603123
 31
0.0
  0
LINE
  5
4D1
330
1F
100
AcDbEntity
  8
0
  6
Continuous
 62
     7
370
    15
100
AcDbLine
 10
523.6101865573
 20
350.5696603123
 30
0.0
 11
524.8271179988
 21
344.5908232302
 31
0.0
  0
LINE
  5
4D2
330
1F
100
AcDbEntity
  8
0
  6
Continuous
 62
     7
370
    15
100
AcDbLine
 10
524.8271179988
 20
344.5908232302
 30
0.0
 11
525.4091286882
 21
338.135795584
 31
0.0
  0
LINE
  5
4D3
330
1F
100
AcDbEntity
  8
0
  6
Continuous
 62
     7
370
    15
100
AcDbLine
 10
525.4091286882
 20
338.135795584
 30
0.0
 11
524.9858481868
 21
332.5802390032
 31
0.0
  0
LINE
  5
4D4
330
1F
100
AcDbEntity
  8
0
  6
Continuous
 62
     7
370
    15
100
AcDbLine
 10
524.9858481868
 20
332.5802390032
 30
0.0
 11
523.9276469333
 21
327.2892327359
 31
0.0
  0
LINE
  5
4D5
330
1F
100
AcDbEntity
  8
0
  6
Continuous
 62
     7
370
    15
100
AcDbLine
 10
523.9276469333
 20
327.2892327359
 30
0.0
 11
522.1816148651
 21
322.3156868445
 31
0.0
  0
LINE
  5
4D6
330
1F
100
AcDbEntity
  8
0
  6
Continuous
 62
     7
370
    15
100
AcDbLine
 10
522.1816148651
 20
322.3156868445
 30
0.0
 11
519.8535721074
 21
317.6066912665
 31
0.0
  0
LINE
  5
4D7
330
1F
100
AcDbEntity
  8
0
  6
Continuous
 62
     7
370
    15
100
AcDbLine
 10
519.8535721074
 20
317.6066912665
 30
0.0
 11
516.837698535
 21
313.2151560646
 31
0.0
  0
LINE
  5
4D8
330
1F
100
AcDbEntity
  8
0
  6
Continuous
 62
     7
370
    15
100
AcDbLine
 10
516.837698535
 20
313.2151560646
 30
0.0
 11
513.1869042105
 21
309.1410812387
 31
0.0
  0
LINE
  5
4D9
330
1F
100
AcDbEntity
  8
0
  6
Continuous
 62
     7
370
    15
100
AcDbLine
 10
513.1869042105
 20
309.1410812387
 30
0.0
 11
508.8482790713
 21
305.3315567262
 31
0.0
  0
LINE
  5
4DA
330
1F
100
AcDbEntity
  8
0
  6
Continuous
 62
     7
370
    15
100
AcDbLine
 10
508.8482790713
 20
305.3315567262
 30
0.0
 11
503.9276432426
 21
301.7865825271
 31
0.0
  0
LINE
  5
4DB
330
1F
100
AcDbEntity
  8
0
  6
Continuous
 62
     7
370
    15
100
AcDbLine
 10
503.9276432426
 20
301.7865825271
 30
0.0
 11
498.4249967245
 21
298.6119787666
 31
0.0
  0
LINE
  5
4DC
330
1F
100
AcDbEntity
  8
0
  6
Continuous
 62
     7
370
    15
100
AcDbLine
 10
498.4249967245
 20
298.6119787666
 30
0.0
 11
492.3932495797
 21
295.8606555076
 31
0.0
  0
LINE
  5
4DD
330
1F
100
AcDbEntity
  8
0
  6
Continuous
 62
     7
370
    15
100
AcDbLine
 10
492.3932495797
 20
295.8606555076
 30
0.0
 11
485.8324018081
 21
293.5326127499
 31
0.0
  0
LINE
  5
4DE
330
1F
100
AcDbEntity
  8
0
  6
Continuous
 62
     7
370
    15
100
AcDbLine
 10
485.8324018081
 20
293.5326127499
 30
0.0
 11
478.7953634725
 21
291.574940431
 31
0.0
  0
LINE
  5
4DF
330
1F
100
AcDbEntity
  8
0
  6
Continuous
 62
     7
370
    15
100
AcDbLine
 10
478.7953634725
 20
291.574940431
 30
0.0
 11
471.2821345728
 21
290.0934586761
 31
0.0
  0
LINE
  5
4E0
330
1F
100
AcDbEntity
  8
0
  6
Continuous
 62
     7
370
    15
100
AcDbLine
 10
471.2821345728
 20
290.0934586761
 30
0.0
 11
463.2398050464
 21
288.98234736
 31
0.0
  0
LINE
  5
4E1
330
1F
100
AcDbEntity
  8
0
  6
Continuous
 62
     7
370
    15
100
AcDbLine
 10
463.2398050464
 20
288.98234736
 30
0.0
 11
454.7212849559
 21
288.2416064826
 31
0.0
  0
LINE
  5
4E2
330
1F
100
AcDbEntity
  8
0
  6
Continuous
 62
     7
370
    15
100
AcDbLine
 10
454.7212849559
 20
288.2416064826
 30
0.0
 11
449.0069981871
 21
257.7654103824
 31
0.0
  0
LINE
  5
4E3
330
1F
100
AcDbEntity
  8
0
  6
Continuous
 62
     7
370
    15
100
AcDbLine
 10
160.1868045667
 20
531.4312078448
 30
0.0
 11
1811.0041867169
 21
525.7530019777
 31
0.0
  0
LINE
  5
4E4
330
1F
100
AcDbEntity
  8
0
  6
Continuous
 62
     7
370
    15
100
AcDbLine
 10
1811.0041867169
 20
525.7530019777
 30
0.0
 11
1971.9702769103
 21
525.7530019777
 31
0.0
  0
LINE
  5
4E5
330
1F
100
AcDbEntity
  8
0
  6
Continuous
 62
     7
370
    15
100
AcDbLine
 10
1971.9702769103
 20
525.7530019777
 30
0.0
 11
3913.1864299925
 21
531.4312078448
 31
0.0
  0
LINE
  5
4E6
330
1F
100
AcDbEntity
  8
0
  6
Continuous
 62
     7
370
    15
100
AcDbLine
 10
3913.1864299925
 20
531.4312078448
 30
0.0
 11
3827.7143888337
 21
42.4990728502
 31
0.0
  0
LINE
  5
4E7
330
1F
100
AcDbEntity
  8
0
  6
Continuous
 62
     7
370
    15
100
AcDbLine
 10
74.714763408
 20
42.4990728502
 30
0.0
 11
3827.7143888337
 21
42.4990728502
 31
0.0
  0
LINE
  5
4E8
330
1F
100
AcDbEntity
  8
0
  6
Continuous
 62
     7
370
    15
100
AcDbLine
 10
160.1868045667
 20
531.4312078448
 30
0.0
 11
74.714763408
 21
42.4990728502
 31
0.0
  0
LINE
  5
4E9
330
1F
100
AcDbEntity
  8
0
  6
Continuous
 62
     7
370
    15
100
AcDbLine
 10
445.6736642387
 20
287.9770561692
 30
0.0
 11
405.8324903852
 21
287.9770561692
 31
0.0
  0
LINE
  5
4EA
330
1F
100
AcDbEntity
  8
0
  6
Continuous
 62
     7
370
    15
100
AcDbLine
 10
405.8324903852
 20
287.9770561692
 30
0.0
 11
405.8324903852
 21
384.2973451077
 31
0.0
  0
LINE
  5
4EB
330
1F
100
AcDbEntity
  8
0
  6
Continuous
 62
     7
370
    15
100
AcDbLine
 10
405.8324903852
 20
384.2973451077
 30
0.0
 11
408.9011706804
 21
384.855380925
 31
0.0
  0
LINE
  5
4EC
330
1F
100
AcDbEntity
  8
0
  6
Continuous
 62
     7
370
    15
100
AcDbLine
 10
408.9011706804
 20
384.855380925
 30
0.0
 11
412.6048750675
 21
385.3315714891
 31
0.0
  0
LINE
  5
4ED
330
1F
100
AcDbEntity
  8
0
  6
Continuous
 62
     7
370
    15
100
AcDbLine
 10
412.6048750675
 20
385.3315714891
 30
0.0
 11
416.8376800814
 21
385.7548519905
 31
0.0
  0
LINE
  5
4EE
330
1F
100
AcDbEntity
  8
0
  6
Continuous
 62
     7
370
    15
100
AcDbLine
 10
416.8376800814
 20
385.7548519905
 30
0.0
 11
421.7583159101
 21
386.1252224292
 31
0.0
  0
LINE
  5
4EF
330
1F
100
AcDbEntity
  8
0
  6
Continuous
 62
     7
370
    15
100
AcDbLine
 10
421.7583159101
 20
386.1252224292
 30
0.0
 11
427.2080523655
 21
386.3897727425
 31
0.0
  0
LINE
  5
4F0
330
1F
100
AcDbEntity
  8
0
  6
Continuous
 62
     7
370
    15
100
AcDbLine
 10
427.2080523655
 20
386.3897727425
 30
0.0
 11
433.292709573
 21
386.6014129932
 31
0.0
  0
LINE
  5
4F1
330
1F
100
AcDbEntity
  8
0
  6
Continuous
 62
     7
370
    15
100
AcDbLine
 10
433.292709573
 20
386.6014129932
 30
0.0
 11
439.9593774699
 21
386.7601431813
 31
0.0
  0
LINE
  5
4F2
330
1F
100
AcDbEntity
  8
0
  6
Continuous
 62
     7
370
    15
100
AcDbLine
 10
439.9593774699
 20
386.7601431813
 30
0.0
 11
442.0757799769
 21
419.7760222897
 31
0.0
  0
LINE
  5
4F3
330
1F
100
AcDbEntity
  8
0
  6
Continuous
 62
     7
370
    15
100
AcDbLine
 10
442.0757799769
 20
419.7760222897
 30
0.0
 11
415.779478828
 21
419.2998317257
 31
0.0
  0
LINE
  5
4F4
330
1F
100
AcDbEntity
  8
0
  6
Continuous
 62
     7
370
    15
100
AcDbLine
 10
415.779478828
 20
419.2998317257
 30
0.0
 11
390.3297386818
 21
418.0829002842
 31
0.0
  0
LINE
  5
4F5
330
1F
100
AcDbEntity
  8
0
  6
Continuous
 62
     7
370
    15
100
AcDbLine
 10
390.3297386818
 20
418.0829002842
 30
0.0
 11
378.2133343295
 21
417.1834292187
 31
0.0
  0
LINE
  5
4F6
330
1F
100
AcDbEntity
  8
0
  6
Continuous
 62
     7
370
    15
100
AcDbLine
 10
378.2133343295
 20
417.1834292187
 30
0.0
 11
366.7318507293
 21
416.2310480906
 31
0.0
  0
LINE
  5
4F7
330
1F
100
AcDbEntity
  8
0
  6
Continuous
 62
     7
370
    15
100
AcDbLine
 10
366.7318507293
 20
416.2310480906
 30
0.0
 11
355.9911080065
 21
415.1199367744
 31
0.0
  0
LINE
  5
4F8
330
1F
100
AcDbEntity
  8
0
  6
Continuous
 62
     7
370
    15
100
AcDbLine
 10
355.9911080065
 20
415.1199367744
 30
0.0
 11
345.9381960985
 21
413.9030053329
 31
0.0
  0
LINE
  5
4F9
330
1F
100
AcDbEntity
  8
0
  6
Continuous
 62
     7
370
    15
100
AcDbLine
 10
345.9381960985
 20
413.9030053329
 30
0.0
 11
345.9381960985
 21
139.4307634628
 31
0.0
  0
LINE
  5
4FA
330
1F
100
AcDbEntity
  8
0
  6
Continuous
 62
     7
370
    15
100
AcDbLine
 10
345.9381960985
 20
139.4307634628
 30
0.0
 11
405.8324903852
 21
139.4307634628
 31
0.0
  0
LINE
  5
4FB
330
1F
100
AcDbEntity
  8
0
  6
Continuous
 62
     7
370
    15
100
AcDbLine
 10
405.8324903852
 20
139.4307634628
 30
0.0
 11
405.8324903852
 21
257.9240889005
 31
0.0
  0
LINE
  5
4FC
330
1F
100
AcDbEntity
  8
0
  6
Continuous
 62
     7
370
    15
100
AcDbLine
 10
405.8324903852
 20
257.9240889005
 30
0.0
 11
441.6025862718
 21
257.9240889005
 31
0.0
  0
LINE
  5
4FD
330
1F
100
AcDbEntity
  8
0
  6
Continuous
 62
     7
370
    15
100
AcDbLine
 10
445.6736642387
 20
287.9770561692
 30
0.0
 11
441.6025862718
 21
257.9240889005
 31
0.0
  0
LINE
  5
4FE
330
1F
100
AcDbEntity
  8
0
  6
Continuous
 62
     7
370
    15
100
AcDbLine
 10
840.530879961
 20
389.0881859389
 30
0.0
 11
852.541464188
 21
387.2363337453
 31
0.0
  0
LINE
  5
4FF
330
1F
100
AcDbEntity
  8
0
  6
Continuous
 62
     7
370
    15
100
AcDbLine
 10
852.541464188
 20
387.2363337453
 30
0.0
 11
863.7054874122
 21
384.3791903609
 31
0.0
  0
LINE
  5
500
330
1F
100
AcDbEntity
  8
0
  6
Continuous
 62
     7
370
    15
100
AcDbLine
 10
863.7054874122
 20
384.3791903609
 30
0.0
 11
874.0229496336
 21
380.5696658484
 31
0.0
  0
LINE
  5
501
330
1F
100
AcDbEntity
  8
0
  6
Continuous
 62
     7
370
    15
100
AcDbLine
 10
874.0229496336
 20
380.5696658484
 30
0.0
 11
883.4409407895
 21
375.7548501451
 31
0.0
  0
LINE
  5
502
330
1F
100
AcDbEntity
  8
0
  6
Continuous
 62
     7
370
    15
100
AcDbLine
 10
883.4409407895
 20
375.7548501451
 30
0.0
 11
892.0123709427
 21
370.0405633763
 31
0.0
  0
LINE
  5
503
330
1F
100
AcDbEntity
  8
0
  6
Continuous
 62
     7
370
    15
100
AcDbLine
 10
892.0123709427
 20
370.0405633763
 30
0.0
 11
899.7372400931
 21
363.3209854167
 31
0.0
  0
LINE
  5
504
330
1F
100
AcDbEntity
  8
0
  6
Continuous
 62
     7
370
    15
100
AcDbLine
 10
899.7372400931
 20
363.3209854167
 30
0.0
 11
906.562638178
 21
355.649026329
 31
0.0
  0
LINE
  5
505
330
1F
100
AcDbEntity
  8
0
  6
Continuous
 62
     7
370
    15
100
AcDbLine
 10
906.562638178
 20
355.649026329
 30
0.0
 11
912.5943853228
 21
347.3421464892
 31
0.0
  0
LINE
  5
506
330
1F
100
AcDbEntity
  8
0
  6
Continuous
 62
     7
370
    15
100
AcDbLine
 10
912.5943853228
 20
347.3421464892
 30
0.0
 11
917.7795714649
 21
338.7178062734
 31
0.0
  0
LINE
  5
507
330
1F
100
AcDbEntity
  8
0
  6
Continuous
 62
     7
370
    15
100
AcDbLine
 10
917.7795714649
 20
338.7178062734
 30
0.0
 11
922.1711066668
 21
329.8289157442
 31
0.0
  0
LINE
  5
508
330
1F
100
AcDbEntity
  8
0
  6
Continuous
 62
     7
370
    15
100
AcDbLine
 10
922.1711066668
 20
329.8289157442
 30
0.0
 11
925.7689909286
 21
320.622564839
 31
0.0
  0
LINE
  5
509
330
1F
100
AcDbEntity
  8
0
  6
Continuous
 62
     7
370
    15
100
AcDbLine
 10
925.7689909286
 20
320.622564839
 30
0.0
 11
928.5732242503
 21
311.0987535577
 31
0.0
  0
LINE
  5
50A
330
1F
100
AcDbEntity
  8
0
  6
Continuous
 62
     7
370
    15
100
AcDbLine
 10
928.5732242503
 20
311.0987535577
 30
0.0
 11
930.5838066319
 21
301.310391963
 31
0.0
  0
LINE
  5
50B
330
1F
100
AcDbEntity
  8
0
  6
Continuous
 62
     7
370
    15
100
AcDbLine
 10
930.5838066319
 20
301.310391963
 30
0.0
 11
931.7478280108
 21
291.2045699923
 31
0.0
  0
LINE
  5
50C
330
1F
100
AcDbEntity
  8
0
  6
Continuous
 62
     7
370
    15
100
AcDbLine
 10
931.7478280108
 20
291.2045699923
 30
0.0
 11
932.1181984495
 21
280.7812876455
 31
0.0
  0
LINE
  5
50D
330
1F
100
AcDbEntity
  8
0
  6
Continuous
 62
     7
370
    15
100
AcDbLine
 10
932.1181984495
 20
280.7812876455
 30
0.0
 11
931.6949179481
 21
269.4056241707
 31
0.0
  0
LINE
  5
50E
330
1F
100
AcDbEntity
  8
0
  6
Continuous
 62
     7
370
    15
100
AcDbLine
 10
931.6949179481
 20
269.4056241707
 30
0.0
 11
930.4250764439
 21
258.5061512599
 31
0.0
  0
LINE
  5
50F
330
1F
100
AcDbEntity
  8
0
  6
Continuous
 62
     7
370
    15
100
AcDbLine
 10
930.4250764439
 20
258.5061512599
 30
0.0
 11
928.308673937
 21
248.0299588504
 31
0.0
  0
LINE
  5
510
330
1F
100
AcDbEntity
  8
0
  6
Continuous
 62
     7
370
    15
100
AcDbLine
 10
928.308673937
 20
248.0299588504
 30
0.0
 11
925.3986204899
 21
238.0299570051
 31
0.0
  0
LINE
  5
511
330
1F
100
AcDbEntity
  8
0
  6
Continuous
 62
     7
370
    15
100
AcDbLine
 10
925.3986204899
 20
238.0299570051
 30
0.0
 11
921.64200604
 21
228.4532356611
 31
0.0
  0
LINE
  5
512
330
1F
100
AcDbEntity
  8
0
  6
Continuous
 62
     7
370
    15
100
AcDbLine
 10
921.64200604
 20
228.4532356611
 30
0.0
 11
917.0917406501
 21
219.3527048812
 31
0.0
  0
LINE
  5
513
330
1F
100
AcDbEntity
  8
0
  6
Continuous
 62
     7
370
    15
100
AcDbLine
 10
917.0917406501
 20
219.3527048812
 30
0.0
 11
911.6949142574
 21
210.7283646654
 31
0.0
  0
LINE
  5
514
330
1F
100
AcDbEntity
  8
0
  6
Continuous
 62
     7
370
    15
100
AcDbLine
 10
911.6949142574
 20
210.7283646654
 30
0.0
 11
905.4515268619
 21
202.5273049509
 31
0.0
  0
LINE
  5
515
330
1F
100
AcDbEntity
  8
0
  6
Continuous
 62
     7
370
    15
100
AcDbLine
 10
905.4515268619
 20
202.5273049509
 30
0.0
 11
898.4144885262
 21
195.0669861139
 31
0.0
  0
LINE
  5
516
330
1F
100
AcDbEntity
  8
0
  6
Continuous
 62
     7
370
    15
100
AcDbLine
 10
898.4144885262
 20
195.0669861139
 30
0.0
 11
890.5837992505
 21
188.5061383424
 31
0.0
  0
LINE
  5
517
330
1F
100
AcDbEntity
  8
0
  6
Continuous
 62
     7
370
    15
100
AcDbLine
 10
890.5837992505
 20
188.5061383424
 30
0.0
 11
881.906548972
 21
182.9505817616
 31
0.0
  0
LINE
  5
518
330
1F
100
AcDbEntity
  8
0
  6
Continuous
 62
     7
370
    15
100
AcDbLine
 10
881.906548972
 20
182.9505817616
 30
0.0
 11
872.488557816
 21
178.2944962463
 31
0.0
  0
LINE
  5
519
330
1F
100
AcDbEntity
  8
0
  6
Continuous
 62
     7
370
    15
100
AcDbLine
 10
872.488557816
 20
178.2944962463
 30
0.0
 11
862.2240056573
 21
174.6437019218
 31
0.0
  0
LINE
  5
51A
330
1F
100
AcDbEntity
  8
0
  6
Continuous
 62
     7
370
    15
100
AcDbLine
 10
862.2240056573
 20
174.6437019218
 30
0.0
 11
851.1658025585
 21
171.9452887254
 31
0.0
  0
LINE
  5
51B
330
1F
100
AcDbEntity
  8
0
  6
Continuous
 62
     7
370
    15
100
AcDbLine
 10
851.1658025585
 20
171.9452887254
 30
0.0
 11
839.3139485195
 21
170.1463465945
 31
0.0
  0
LINE
  5
51C
330
1F
100
AcDbEntity
  8
0
  6
Continuous
 62
     7
370
    15
100
AcDbLine
 10
839.3139485195
 20
170.1463465945
 30
0.0
 11
826.6684435405
 21
169.3526956544
 31
0.0
  0
LINE
  5
51D
330
1F
100
AcDbEntity
  8
0
  6
Continuous
 62
     7
370
    15
100
AcDbLine
 10
826.6684435405
 20
169.3526956544
 30
0.0
 11
824.5520410335
 21
136.0722662326
 31
0.0
  0
LINE
  5
51E
330
1F
100
AcDbEntity
  8
0
  6
Continuous
 62
     7
370
    15
100
AcDbLine
 10
824.5520410335
 20
136.0722662326
 30
0.0
 11
842.5943724053
 21
136.654276922
 31
0.0
  0
LINE
  5
51F
330
1F
100
AcDbEntity
  8
0
  6
Continuous
 62
     7
370
    15
100
AcDbLine
 10
842.5943724053
 20
136.654276922
 30
0.0
 11
859.7901427743
 21
138.3473989276
 31
0.0
  0
LINE
  5
520
330
1F
100
AcDbEntity
  8
0
  6
Continuous
 62
     7
370
    15
100
AcDbLine
 10
859.7901427743
 20
138.3473989276
 30
0.0
 11
876.0864420779
 21
141.1516322493
 31
0.0
  0
LINE
  5
521
330
1F
100
AcDbEntity
  8
0
  6
Continuous
 62
     7
370
    15
100
AcDbLine
 10
876.0864420779
 20
141.1516322493
 30
0.0
 11
891.5890904413
 21
145.1198869498
 31
0.0
  0
LINE
  5
522
330
1F
100
AcDbEntity
  8
0
  6
Continuous
 62
     7
370
    15
100
AcDbLine
 10
891.5890904413
 20
145.1198869498
 30
0.0
 11
906.1922677393
 21
150.2521630292
 31
0.0
  0
LINE
  5
523
330
1F
100
AcDbEntity
  8
0
  6
Continuous
 62
     7
370
    15
100
AcDbLine
 10
906.1922677393
 20
150.2521630292
 30
0.0
 11
919.8959739718
 21
156.4955504247
 31
0.0
  0
LINE
  5
524
330
1F
100
AcDbEntity
  8
0
  6
Continuous
 62
     7
370
    15
100
AcDbLine
 10
919.8959739718
 20
156.4955504247
 30
0.0
 11
932.8060292642
 21
163.8500491364
 31
0.0
  0
LINE
  5
525
330
1F
100
AcDbEntity
  8
0
  6
Continuous
 62
     7
370
    15
100
AcDbLine
 10
932.8060292642
 20
163.8500491364
 30
0.0
 11
944.8166134912
 21
172.3685692268
 31
0.0
  0
LINE
  5
526
330
1F
100
AcDbEntity
  8
0
  6
Continuous
 62
     7
370
    15
100
AcDbLine
 10
944.8166134912
 20
172.3685692268
 30
0.0
 11
950.4250801346
 21
177.0775648048
 31
0.0
  0
LINE
  5
527
330
1F
100
AcDbEntity
  8
0
  6
Continuous
 62
     7
370
    15
100
AcDbLine
 10
950.4250801346
 20
177.0775648048
 30
0.0
 11
955.716086402
 21
182.0511106962
 31
0.0
  0
LINE
  5
528
330
1F
100
AcDbEntity
  8
0
  6
Continuous
 62
     7
370
    15
100
AcDbLine
 10
955.716086402
 20
182.0511106962
 30
0.0
 11
960.6367222307
 21
187.2892069009
 31
0.0
  0
LINE
  5
529
330
1F
100
AcDbEntity
  8
0
  6
Continuous
 62
     7
370
    15
100
AcDbLine
 10
960.6367222307
 20
187.2892069009
 30
0.0
 11
965.1869876206
 21
192.8447634816
 31
0.0
  0
LINE
  5
52A
330
1F
100
AcDbEntity
  8
0
  6
Continuous
 62
     7
370
    15
100
AcDbLine
 10
965.1869876206
 20
192.8447634816
 30
0.0
 11
969.4197926345
 21
198.7177804384
 31
0.0
  0
LINE
  5
52B
330
1F
100
AcDbEntity
  8
0
  6
Continuous
 62
     7
370
    15
100
AcDbLine
 10
969.4197926345
 20
198.7177804384
 30
0.0
 11
973.2822272097
 21
204.8553477086
 31
0.0
  0
LINE
  5
52C
330
1F
100
AcDbEntity
  8
0
  6
Continuous
 62
     7
370
    15
100
AcDbLine
 10
973.2822272097
 20
204.8553477086
 30
0.0
 11
976.7742913462
 21
211.3103753548
 31
0.0
  0
LINE
  5
52D
330
1F
100
AcDbEntity
  8
0
  6
Continuous
 62
     7
370
    15
100
AcDbLine
 10
976.7742913462
 20
211.3103753548
 30
0.0
 11
979.9488951066
 21
218.0299533144
 31
0.0
  0
LINE
  5
52E
330
1F
100
AcDbEntity
  8
0
  6
Continuous
 62
     7
370
    15
100
AcDbLine
 10
979.9488951066
 20
218.0299533144
 30
0.0
 11
982.7531284283
 21
225.0140815873
 31
0.0
  0
LINE
  5
52F
330
1F
100
AcDbEntity
  8
0
  6
Continuous
 62
     7
370
    15
100
AcDbLine
 10
982.7531284283
 20
225.0140815873
 30
0.0
 11
985.239901374
 21
232.3156702363
 31
0.0
  0
LINE
  5
530
330
1F
100
AcDbEntity
  8
0
  6
Continuous
 62
     7
370
    15
100
AcDbLine
 10
985.239901374
 20
232.3156702363
 30
0.0
 11
987.356303881
 21
239.9347192613
 31
0.0
  0
LINE
  5
531
330
1F
100
AcDbEntity
  8
0
  6
Continuous
 62
     7
370
    15
100
AcDbLine
 10
987.356303881
 20
239.9347192613
 30
0.0
 11
989.1023359492
 21
247.8183185997
 31
0.0
  0
LINE
  5
532
330
1F
100
AcDbEntity
  8
0
  6
Continuous
 62
     7
370
    15
100
AcDbLine
 10
989.1023359492
 20
247.8183185997
 30
0.0
 11
990.5309076414
 21
255.9664682515
 31
0.0
  0
LINE
  5
533
330
1F
100
AcDbEntity
  8
0
  6
Continuous
 62
     7
370
    15
100
AcDbLine
 10
990.5309076414
 20
255.9664682515
 30
0.0
 11
991.5891088949
 21
264.4320782793
 31
0.0
  0
LINE
  5
534
330
1F
100
AcDbEntity
  8
0
  6
Continuous
 62
     7
370
    15
100
AcDbLine
 10
991.5891088949
 20
264.4320782793
 30
0.0
 11
992.2769397096
 21
273.2151486832
 31
0.0
  0
LINE
  5
535
330
1F
100
AcDbEntity
  8
0
  6
Continuous
 62
     7
370
    15
100
AcDbLine
 10
992.2769397096
 20
273.2151486832
 30
0.0
 11
992.6473101483
 21
282.2627694004
 31
0.0
  0
LINE
  5
536
330
1F
100
AcDbEntity
  8
0
  6
Continuous
 62
     7
370
    15
100
AcDbLine
 10
992.6473101483
 20
282.2627694004
 30
0.0
 11
991.9065692709
 21
297.4479573878
 31
0.0
  0
LINE
  5
537
330
1F
100
AcDbEntity
  8
0
  6
Continuous
 62
     7
370
    15
100
AcDbLine
 10
991.9065692709
 20
297.4479573878
 30
0.0
 11
989.8959868893
 21
311.8924044978
 31
0.0
  0
LINE
  5
538
330
1F
100
AcDbEntity
  8
0
  6
Continuous
 62
     7
370
    15
100
AcDbLine
 10
989.8959868893
 20
311.8924044978
 30
0.0
 11
986.6155630035
 21
325.5961107303
 31
0.0
  0
LINE
  5
539
330
1F
100
AcDbEntity
  8
0
  6
Continuous
 62
     7
370
    15
100
AcDbLine
 10
986.6155630035
 20
325.5961107303
 30
0.0
 11
982.0123875509
 21
338.5590760854
 31
0.0
  0
LINE
  5
53A
330
1F
100
AcDbEntity
  8
0
  6
Continuous
 62
     7
370
    15
100
AcDbLine
 10
982.0123875509
 20
338.5590760854
 30
0.0
 11
976.0864605314
 21
350.8342106257
 31
0.0
  0
LINE
  5
53B
330
1F
100
AcDbEntity
  8
0
  6
Continuous
 62
     7
370
    15
100
AcDbLine
 10
976.0864605314
 20
350.8342106257
 30
0.0
 11
968.9436020705
 21
362.3686042886
 31
0.0
  0
LINE
  5
53C
330
1F
100
AcDbEntity
  8
0
  6
Continuous
 62
     7
370
    15
100
AcDbLine
 10
968.9436020705
 20
362.3686042886
 30
0.0
 11
960.4779920426
 21
373.1622570741
 31
0.0
  0
LINE
  5
53D
330
1F
100
AcDbEntity
  8
0
  6
Continuous
 62
     7
370
    15
100
AcDbLine
 10
960.4779920426
 20
373.1622570741
 30
0.0
 11
950.689630448
 21
383.2680790448
 31
0.0
  0
LINE
  5
53E
330
1F
100
AcDbEntity
  8
0
  6
Continuous
 62
     7
370
    15
100
AcDbLine
 10
950.689630448
 20
383.2680790448
 30
0.0
 11
945.3457141179
 21
387.9770746228
 31
0.0
  0
LINE
  5
53F
330
1F
100
AcDbEntity
  8
0
  6
Continuous
 62
     7
370
    15
100
AcDbLine
 10
945.3457141179
 20
387.9770746228
 30
0.0
 11
939.6843374118
 21
392.3686098247
 31
0.0
  0
LINE
  5
540
330
1F
100
AcDbEntity
  8
0
  6
Continuous
 62
     7
370
    15
100
AcDbLine
 10
939.6843374118
 20
392.3686098247
 30
0.0
 11
933.7584103924
 21
396.4955947132
 31
0.0
  0
LINE
  5
541
330
1F
100
AcDbEntity
  8
0
  6
Continuous
 62
     7
370
    15
100
AcDbLine
 10
933.7584103924
 20
396.4955947132
 30
0.0
 11
927.5150229968
 21
400.3580292884
 31
0.0
  0
LINE
  5
542
330
1F
100
AcDbEntity
  8
0
  6
Continuous
 62
     7
370
    15
100
AcDbLine
 10
927.5150229968
 20
400.3580292884
 30
0.0
 11
921.007085288
 21
403.8500934249
 31
0.0
  0
LINE
  5
543
330
1F
100
AcDbEntity
  8
0
  6
Continuous
 62
     7
370
    15
100
AcDbLine
 10
921.007085288
 20
403.8500934249
 30
0.0
 11
914.181687203
 21
407.1305173107
 31
0.0
  0
LINE
  5
544
330
1F
100
AcDbEntity
  8
0
  6
Continuous
 62
     7
370
    15
100
AcDbLine
 10
914.181687203
 20
407.1305173107
 30
0.0
 11
907.0388287421
 21
410.0405707577
 31
0.0
  0
LINE
  5
545
330
1F
100
AcDbEntity
  8
0
  6
Continuous
 62
     7
370
    15
100
AcDbLine
 10
907.0388287421
 20
410.0405707577
 30
0.0
 11
899.6314199677
 21
412.6860738914
 31
0.0
  0
LINE
  5
546
330
1F
100
AcDbEntity
  8
0
  6
Continuous
 62
     7
370
    15
100
AcDbLine
 10
899.6314199677
 20
412.6860738914
 30
0.0
 11
891.9065508173
 21
415.0670267118
 31
0.0
  0
LINE
  5
547
330
1F
100
AcDbEntity
  8
0
  6
Continuous
 62
     7
370
    15
100
AcDbLine
 10
891.9065508173
 20
415.0670267118
 30
0.0
 11
883.9171313536
 21
417.130519156
 31
0.0
  0
LINE
  5
548
330
1F
100
AcDbEntity
  8
0
  6
Continuous
 62
     7
370
    15
100
AcDbLine
 10
883.9171313536
 20
417.130519156
 30
0.0
 11
875.6102515138
 21
418.8765512243
 31
0.0
  0
LINE
  5
549
330
1F
100
AcDbEntity
  8
0
  6
Continuous
 62
     7
370
    15
100
AcDbLine
 10
875.6102515138
 20
418.8765512243
 30
0.0
 11
867.0388213606
 21
420.3580329791
 31
0.0
  0
LINE
  5
54A
330
1F
100
AcDbEntity
  8
0
  6
Continuous
 62
     7
370
    15
100
AcDbLine
 10
867.0388213606
 20
420.3580329791
 30
0.0
 11
858.1499308314
 21
421.522054358
 31
0.0
  0
LINE
  5
54B
330
1F
100
AcDbEntity
  8
0
  6
Continuous
 62
     7
370
    15
100
AcDbLine
 10
858.1499308314
 20
421.522054358
 30
0.0
 11
848.9964899889
 21
422.4215254234
 31
0.0
  0
LINE
  5
54C
330
1F
100
AcDbEntity
  8
0
  6
Continuous
 62
     7
370
    15
100
AcDbLine
 10
848.9964899889
 20
422.4215254234
 30
0.0
 11
839.5255887702
 21
423.0035361128
 31
0.0
  0
LINE
  5
54D
330
1F
100
AcDbEntity
  8
0
  6
Continuous
 62
     7
370
    15
100
AcDbLine
 10
840.530879961
 20
389.0881859389
 30
0.0
 11
839.5255887702
 21
423.0035361128
 31
0.0
  0
LINE
  5
54E
330
1F
100
AcDbEntity
  8
0
  6
Continuous
 62
     7
370
    15
100
AcDbLine
 10
2560.6330876021
 20
375.8344877217
 30
0.0
 11
2577.1830483814
 21
410.4609045903
 31
0.0
  0
LINE
  5
54F
330
1F
100
AcDbEntity
  8
0
  6
Continuous
 62
     7
370
    15
100
AcDbLine
 10
2584.0265670537
 20
206.5583321434
 30
0.0
 11
2603.3824623309
 21
172.7654463669
 31
0.0
  0
LINE
  5
550
330
1F
100
AcDbEntity
  8
0
  6
Continuous
 62
     7
370
    15
100
AcDbLine
 10
3489.2297814388
 20
287.9770561692
 30
0.0
 11
3449.3886075853
 21
287.9770561692
 31
0.0
  0
LINE
  5
551
330
1F
100
AcDbEntity
  8
0
  6
Continuous
 62
     7
370
    15
100
AcDbLine
 10
3449.3886075853
 20
287.9770561692
 30
0.0
 11
3449.3886075853
 21
384.2973451077
 31
0.0
  0
LINE
  5
552
330
1F
100
AcDbEntity
  8
0
  6
Continuous
 62
     7
370
    15
100
AcDbLine
 10
3449.3886075853
 20
384.2973451077
 30
0.0
 11
3452.4572878804
 21
384.855380925
 31
0.0
  0
LINE
  5
553
330
1F
100
AcDbEntity
  8
0
  6
Continuous
 62
     7
370
    15
100
AcDbLine
 10
3452.4572878804
 20
384.855380925
 30
0.0
 11
3456.1609922676
 21
385.3315714891
 31
0.0
  0
LINE
  5
554
330
1F
100
AcDbEntity
  8
0
  6
Continuous
 62
     7
370
    15
100
AcDbLine
 10
3456.1609922676
 20
385.3315714891
 30
0.0
 11
3460.3937972815
 21
385.7548519905
 31
0.0
  0
LINE
  5
555
330
1F
100
AcDbEntity
  8
0
  6
Continuous
 62
     7
370
    15
100
AcDbLine
 10
3460.3937972815
 20
385.7548519905
 30
0.0
 11
3465.3144331102
 21
386.1252224292
 31
0.0
  0
LINE
  5
556
330
1F
100
AcDbEntity
  8
0
  6
Continuous
 62
     7
370
    15
100
AcDbLine
 10
3465.3144331102
 20
386.1252224292
 30
0.0
 11
3470.7641695656
 21
386.3897727425
 31
0.0
  0
LINE
  5
557
330
1F
100
AcDbEntity
  8
0
  6
Continuous
 62
     7
370
    15
100
AcDbLine
 10
3470.7641695656
 20
386.3897727425
 30
0.0
 11
3476.8488267731
 21
386.6014129932
 31
0.0
  0
LINE
  5
558
330
1F
100
AcDbEntity
  8
0
  6
Continuous
 62
     7
370
    15
100
AcDbLine
 10
3476.8488267731
 20
386.6014129932
 30
0.0
 11
3483.51549467
 21
386.7601431813
 31
0.0
  0
LINE
  5
559
330
1F
100
AcDbEntity
  8
0
  6
Continuous
 62
     7
370
    15
100
AcDbLine
 10
3483.51549467
 20
386.7601431813
 30
0.0
 11
3490.7641732563
 21
386.8130532439
 31
0.0
  0
LINE
  5
55A
330
1F
100
AcDbEntity
  8
0
  6
Continuous
 62
     7
370
    15
100
AcDbLine
 10
3485.6318971769
 20
419.7760222897
 30
0.0
 11
3490.7641732563
 21
386.8130532439
 31
0.0
  0
LINE
  5
55B
330
1F
100
AcDbEntity
  8
0
  6
Continuous
 62
     7
370
    15
100
AcDbLine
 10
3485.6318971769
 20
419.7760222897
 30
0.0
 11
3459.335596028
 21
419.2998317257
 31
0.0
  0
LINE
  5
55C
330
1F
100
AcDbEntity
  8
0
  6
Continuous
 62
     7
370
    15
100
AcDbLine
 10
3459.335596028
 20
419.2998317257
 30
0.0
 11
3433.8858558819
 21
418.0829002842
 31
0.0
  0
LINE
  5
55D
330
1F
100
AcDbEntity
  8
0
  6
Continuous
 62
     7
370
    15
100
AcDbLine
 10
3433.8858558819
 20
418.0829002842
 30
0.0
 11
3421.7694515296
 21
417.1834292187
 31
0.0
  0
LINE
  5
55E
330
1F
100
AcDbEntity
  8
0
  6
Continuous
 62
     7
370
    15
100
AcDbLine
 10
3421.7694515296
 20
417.1834292187
 30
0.0
 11
3410.2879679294
 21
416.2310480906
 31
0.0
  0
LINE
  5
55F
330
1F
100
AcDbEntity
  8
0
  6
Continuous
 62
     7
370
    15
100
AcDbLine
 10
3410.2879679294
 20
416.2310480906
 30
0.0
 11
3399.5472252066
 21
415.1199367744
 31
0.0
  0
LINE
  5
560
330
1F
100
AcDbEntity
  8
0
  6
Continuous
 62
     7
370
    15
100
AcDbLine
 10
3399.5472252066
 20
415.1199367744
 30
0.0
 11
3389.4943132986
 21
413.9030053329
 31
0.0
  0
LINE
  5
561
330
1F
100
AcDbEntity
  8
0
  6
Continuous
 62
     7
370
    15
100
AcDbLine
 10
3389.4943132986
 20
413.9030053329
 30
0.0
 11
3389.4943132986
 21
139.4307634628
 31
0.0
  0
LINE
  5
562
330
1F
100
AcDbEntity
  8
0
  6
Continuous
 62
     7
370
    15
100
AcDbLine
 10
3389.4943132986
 20
139.4307634628
 30
0.0
 11
3449.3886075853
 21
139.4307634628
 31
0.0
  0
LINE
  5
563
330
1F
100
AcDbEntity
  8
0
  6
Continuous
 62
     7
370
    15
100
AcDbLine
 10
3449.3886075853
 20
139.4307634628
 30
0.0
 11
3449.3886075853
 21
257.9240889005
 31
0.0
  0
LINE
  5
564
330
1F
100
AcDbEntity
  8
0
  6
Continuous
 62
     7
370
    15
100
AcDbLine
 10
3449.3886075853
 20
257.9240889005
 30
0.0
 11
3485.1587034719
 21
257.9240889005
 31
0.0
  0
LINE
  5
565
330
1F
100
AcDbEntity
  8
0
  6
Continuous
 62
     7
370
    15
100
AcDbLine
 10
3489.2297814388
 20
287.9770561692
 30
0.0
 11
3485.1587034719
 21
257.9240889005
 31
0.0
  0
LINE
  5
566
330
1F
100
AcDbEntity
  8
0
  6
Continuous
 62
     7
370
    15
100
AcDbLine
 10
3504.1889493178
 20
420.0907168088
 30
0.0
 11
3498.8979430504
 21
387.3393880137
 31
0.0
  0
LINE
  5
567
330
1F
100
AcDbEntity
  8
0
  6
Continuous
 62
     7
370
    15
100
AcDbLine
 10
3568.3832351988
 20
344.5908232302
 30
0.0
 11
3568.9652458882
 21
338.135795584
 31
0.0
  0
LINE
  5
568
330
1F
100
AcDbEntity
  8
0
  6
Continuous
 62
     7
370
    15
100
AcDbLine
 10
3506.7959222465
 20
288.98234736
 30
0.0
 11
3498.277402156
 21
288.2416064826
 31
0.0
  0
LINE
  5
569
330
1F
100
AcDbEntity
  8
0
  6
Continuous
 62
     7
370
    15
100
AcDbLine
 10
3498.277402156
 20
288.2416064826
 30
0.0
 11
3498.277402156
 21
257.9240889005
 31
0.0
  0
LINE
  5
56A
330
1F
100
AcDbEntity
  8
0
  6
Continuous
 62
     7
370
    15
100
AcDbLine
 10
3559.8118050457
 20
193.9029647351
 30
0.0
 11
3580.8170999272
 21
139.405600181
 31
0.0
  0
LINE
  5
56B
330
1F
100
AcDbEntity
  8
0
  6
Continuous
 62
     7
370
    15
100
AcDbLine
 10
3580.8170999272
 20
139.405600181
 30
0.0
 11
3642.696141604
 21
139.4307634628
 31
0.0
  0
LINE
  5
56C
330
1F
100
AcDbEntity
  8
0
  6
Continuous
 62
     7
370
    15
100
AcDbLine
 10
3568.5948754495
 20
268.4532430425
 30
0.0
 11
3558.2245031654
 21
271.7336669283
 31
0.0
  0
LINE
  5
56D
330
1F
100
AcDbEntity
  8
0
  6
Continuous
 62
     7
370
    15
100
AcDbLine
 10
187.3824540264
 20
493.1698353237
 30
0.0
 11
153.9495905815
 21
276.8395424453
 31
0.0
  0
LINE
  5
56E
330
1F
100
AcDbEntity
  8
0
  6
Continuous
 62
     7
370
    15
100
AcDbLine
 10
153.9495905815
 20
276.8395424453
 30
0.0
 11
181.8280097825
 21
271.937842366
 31
0.0
  0
LINE
  5
56F
330
1F
100
AcDbEntity
  8
0
  6
Continuous
 62
     7
370
    15
100
AcDbLine
 10
214.578103486
 20
458.2040003042
 30
0.0
 11
181.8280097825
 21
271.937842366
 31
0.0
  0
LINE
  5
570
330
1F
100
AcDbEntity
  8
0
  6
Continuous
 62
     7
370
    15
100
AcDbLine
 10
214.578103486
 20
458.2040003042
 30
0.0
 11
3832.6849249116
 21
458.2040003042
 31
0.0
  0
LINE
  5
571
330
1F
100
AcDbEntity
  8
0
  6
Continuous
 62
     7
370
    15
100
AcDbLine
 10
3804.4038321541
 20
297.3552852455
 30
0.0
 11
3832.6849249116
 21
458.2040003042
 31
0.0
  0
LINE
  5
572
330
1F
100
AcDbEntity
  8
0
  6
Continuous
 62
     7
370
    15
100
AcDbLine
 10
3804.4038321541
 20
297.3552852455
 30
0.0
 11
3840.1881607646
 21
297.3552852455
 31
0.0
  0
LINE
  5
573
330
1F
100
AcDbEntity
  8
0
  6
Continuous
 62
     7
370
    15
100
AcDbLine
 10
3870.4504094131
 20
493.1698353237
 30
0.0
 11
3840.1881607646
 21
297.3552852455
 31
0.0
  0
LINE
  5
574
330
1F
100
AcDbEntity
  8
0
  6
Continuous
 62
     7
370
    15
100
AcDbLine
 10
187.3824540264
 20
493.1698353237
 30
0.0
 11
3870.4504094131
 21
493.1698353237
 31
0.0
  0
LINE
  5
575
330
1F
100
AcDbEntity
  8
0
  6
Continuous
 62
     7
370
    15
100
AcDbLine
 10
149.6611248448
 20
249.0906465013
 30
0.0
 11
121.3358767673
 21
65.8096295299
 31
0.0
  0
LINE
  5
576
330
1F
100
AcDbEntity
  8
0
  6
Continuous
 62
     7
370
    15
100
AcDbLine
 10
121.3358767673
 20
65.8096295299
 30
0.0
 11
3804.4038321541
 21
65.8096295299
 31
0.0
  0
LINE
  5
577
330
1F
100
AcDbEntity
  8
0
  6
Continuous
 62
     7
370
    15
100
AcDbLine
 10
3833.9407620344
 20
256.9309405205
 30
0.0
 11
3804.4038321541
 21
65.8096295299
 31
0.0
  0
LINE
  5
578
330
1F
100
AcDbEntity
  8
0
  6
Continuous
 62
     7
370
    15
100
AcDbLine
 10
3797.2962550596
 20
256.9309405205
 30
0.0
 11
3833.9407620344
 21
256.9309405205
 31
0.0
  0
LINE
  5
579
330
1F
100
AcDbEntity
  8
0
  6
Continuous
 62
     7
370
    15
100
AcDbLine
 10
3770.5234404325
 20
104.6605573293
 30
0.0
 11
3797.2962550596
 21
256.9309405205
 31
0.0
  0
LINE
  5
57A
330
1F
100
AcDbEntity
  8
0
  6
Continuous
 62
     7
370
    15
100
AcDbLine
 10
152.4166190069
 20
104.6605573293
 30
0.0
 11
3770.5234404325
 21
104.6605573293
 31
0.0
  0
LINE
  5
57B
330
1F
100
AcDbEntity
  8
0
  6
Continuous
 62
     7
370
    15
100
AcDbLine
 10
176.9667892457
 20
244.2896505627
 30
0.0
 11
152.4166190069
 21
104.6605573293
 31
0.0
  0
LINE
  5
57C
330
1F
100
AcDbEntity
  8
0
  6
Continuous
 62
     7
370
    15
100
AcDbLine
 10
149.6611248448
 20
249.0906465013
 30
0.0
 11
176.9667892457
 21
244.2896505627
 31
0.0
  0
LINE
  5
57D
330
1F
100
AcDbEntity
  8
0
  6
Continuous
 62
     7
370
    15
100
AcDbLine
 10
1529.500486344
 20
1446.6439196326
 30
0.0
 11
1546.9924472358
 21
1432.4183494623
 31
0.0
  0
LINE
  5
57E
330
1F
100
AcDbEntity
  8
0
  6
Continuous
 62
     7
370
    15
100
AcDbLine
 10
2281.9601826284
 20
1054.2720074525
 30
0.0
 11
2318.6233219242
 21
1099.3152928731
 31
0.0
  0
LINE
  5
57F
330
1F
100
AcDbEntity
  8
0
  6
Continuous
 62
     7
370
    15
100
AcDbLine
 10
2332.6852948718
 20
1330.3276828507
 30
0.0
 11
2328.7625857646
 21
1343.2965563408
 31
0.0
  0
LINE
  5
580
330
1F
100
AcDbEntity
  8
0
  6
Continuous
 62
     7
370
    15
100
AcDbLine
 10
1390.4614516109
 20
1127.8779898742
 30
0.0
 11
1399.0866077182
 21
1061.2507960195
 31
0.0
  0
LINE
  5
581
330
1F
100
AcDbEntity
  8
0
  6
Continuous
 62
     7
370
    15
100
AcDbLine
 10
1255.1007283154
 20
1446.6439196326
 30
0.0
 11
1265.0586274346
 21
1432.4183494623
 31
0.0
  0
LINE
  5
582
330
1F
100
AcDbEntity
  8
0
  6
Continuous
 62
     7
370
    15
100
AcDbLine
 10
962.7652613165
 20
1700.5703471718
 30
0.0
 11
960.8149084635
 21
1690.47880018
 31
0.0
  0
LINE
  5
583
330
1F
100
AcDbEntity
  8
0
  6
Continuous
 62
     7
370
    15
100
AcDbLine
 10
1966.6571846847
 20
608.0292263095
 30
0.0
 11
2057.7912737913
 21
605.9341897783
 31
0.0
  0
LINE
  5
584
330
1F
100
AcDbEntity
  8
0
  6
Continuous
 62
     7
370
    15
100
AcDbLine
 10
1133.7553289899
 20
1700.5703471718
 30
0.0
 11
1135.0994200291
 21
1705.3335311651
 31
0.0
  0
LINE
  5
585
330
1F
100
AcDbEntity
  8
0
  6
Continuous
 62
     7
370
    15
100
AcDbLine
 10
1135.0994200291
 20
1705.3335311651
 30
0.0
 11
1142.7187239703
 21
1700.5703471718
 31
0.0
  0
LINE
  5
586
330
1F
100
AcDbEntity
  8
0
  6
Continuous
 62
     7
370
    15
100
AcDbLine
 10
1338.072489799
 20
1330.3276828507
 30
0.0
 11
1349.5803957333
 21
1333.6458938963
 31
0.0
  0
LINE
  5
587
330
1F
100
AcDbEntity
  8
0
  6
Continuous
 62
     7
370
    15
100
AcDbLine
 10
999.0404652507
 20
1551.9131388925
 30
0.0
 11
1063.5824427345
 21
1399.8607404062
 31
0.0
  0
ARC
  5
588
330
1F
100
AcDbEntity
  8
0
  6
Continuous
 62
     7
370
    15
100
AcDbCircle
 10
2516.4914108458
 20
283.4797008419
 30
0.0
 40
140.7398343474084
100
AcDbArc
 50
64.4541756842
 51
308.125625016
  0
ARC
  5
589
330
1F
100
AcDbEntity
  8
0
  6
Continuous
 62
     7
370
    15
100
AcDbCircle
 10
2516.4914108458
 20
283.4797008419
 30
0.0
 40
102.3615859904007
100
AcDbArc
 50
64.4541756842
 51
311.2823732379
  0
ENDSEC
  0
SECTION
  2
OBJECTS
  0
DICTIONARY
  5
C
330
0
100
AcDbDictionary
281
     1
  3
ACAD_GROUP
350
D
  3
ACAD_LAYOUT
350
1A
  3
ACAD_MLINESTYLE
350
17
  3
ACAD_PLOTSETTINGS
350
19
  3
ACAD_PLOTSTYLENAME
350
E
  3
ACAD_SCALELIST
350
47
  0
DICTIONARY
  5
D
102
{ACAD_REACTORS
330
C
102
}
330
C
100
AcDbDictionary
281
     1
  0
DICTIONARY
  5
1A
102
{ACAD_REACTORS
330
C
102
}
330
C
100
AcDbDictionary
281
     1
  3
Layout1
350
1E
  3
Layout2
350
26
  3
Model
350
22
  0
DICTIONARY
  5
17
102
{ACAD_REACTORS
330
C
102
}
330
C
100
AcDbDictionary
281
     1
  3
Standard
350
18
  0
DICTIONARY
  5
19
102
{ACAD_REACTORS
330
C
102
}
330
C
100
AcDbDictionary
281
     1
  0
ACDBDICTIONARYWDFLT
  5
E
102
{ACAD_REACTORS
330
C
102
}
330
C
100
AcDbDictionary
281
     1
  3
Normal
350
F
100
AcDbDictionaryWithDefault
340
F
  0
DICTIONARY
  5
47
102
{ACAD_REACTORS
330
C
102
}
330
C
100
AcDbDictionary
281
     1
  3
A0
350
48
  3
A1
350
49
  3
A2
350
4A
  3
A3
350
4B
  3
A4
350
4C
  3
A5
350
4D
  3
A6
350
4E
  3
A7
350
4F
  3
A8
350
50
  3
A9
350
51
  3
B0
350
52
  3
B1
350
53
  3
B2
350
54
  3
B3
350
55
  3
B4
350
56
  3
B5
350
57
  3
B6
350
58
  3
B7
350
59
  3
B8
350
5A
  3
B9
350
5B
  3
C0
350
5C
  3
C1
350
5D
  3
C2
350
5E
  3
C3
350
5F
  3
C4
350
60
  3
C5
350
61
  3
C6
350
62
  3
C7
350
63
  3
C8
350
64
  3
C9
350
65
  3
D0
350
66
  3
D1
350
67
  3
D2
350
68
  0
LAYOUT
  5
1E
102
{ACAD_REACTORS
330
1A
102
}
330
1A
100
AcDbPlotSettings
  1

  2
none_device
  4

  6

 40
0.0
 41
0.0
 42
0.0
 43
0.0
 44
0.0
 45
0.0
 46
0.0
 47
0.0
 48
0.0
 49
0.0
140
0.0
141
0.0
142
1.0
143
1.0
 70
   688
 72
     1
 73
     0
 74
     5
  7

 75
    16
147
1.0
148
0.0
149
0.0
100
AcDbLayout
  1
Layout1
 70
     1
 71
     1
 10
0.0
 20
0.0
 11
420.0
 21
297.0
 12
0.0
 22
0.0
 32
0.0
 14
1.0000000000E+20
 24
1.0000000000E+20
 34
1.0000000000E+20
 15
-1.0000000000E+20
 25
-1.0000000000E+20
 35
-1.0000000000E+20
146
0.0
 13
0.0
 23
0.0
 33
0.0
 16
1.0
 26
0.0
 36
0.0
 17
0.0
 27
1.0
 37
0.0
 76
     0
330
1B
  0
LAYOUT
  5
26
102
{ACAD_REACTORS
330
1A
102
}
330
1A
100
AcDbPlotSettings
  1

  2
none_device
  4

  6

 40
0.0
 41
0.0
 42
0.0
 43
0.0
 44
0.0
 45
0.0
 46
0.0
 47
0.0
 48
0.0
 49
0.0
140
0.0
141
0.0
142
1.0
143
1.0
 70
   688
 72
     1
 73
     0
 74
     5
  7

 75
    16
147
1.0
148
0.0
149
0.0
100
AcDbLayout
  1
Layout2
 70
     1
 71
     2
 10
0.0
 20
0.0
 11
0.0
 21
0.0
 12
0.0
 22
0.0
 32
0.0
 14
0.0
 24
0.0
 34
0.0
 15
0.0
 25
0.0
 35
0.0
146
0.0
 13
0.0
 23
0.0
 33
0.0
 16
1.0
 26
0.0
 36
0.0
 17
0.0
 27
1.0
 37
0.0
 76
     0
330
23
  0
LAYOUT
  5
22
102
{ACAD_REACTORS
330
1A
102
}
330
1A
100
AcDbPlotSettings
  1

  2
none_device
  4
ANSI_A_(11.00_x_8.50_Inches)
  6

 40
6.35
 41
19.05
 42
6.35000508
 43
19.05000254
 44
279.4
 45
215.9
 46
-10.3370599572
 47
21.1850968942
 48
0.0
 49
0.0
140
0.0
141
0.0
142
0.0028370667
143
1.0
 70
  1696
 72
     0
 73
     0
 74
     0
  7

 75
     0
147
0.0179189148
148
-1300.4909072572
149
0.0
100
AcDbLayout
  1
Model
 70
     1
 71
     0
 10
0.0
 20
0.0
 11
420.0
 21
297.0
 12
0.0
 22
0.0
 32
0.0
 14
74.714763408
 24
42.4990728502
 34
0.0
 15
3913.1864299925
 25
1836.8653089944
 35
0.0
146
0.0
 13
0.0
 23
0.0
 33
0.0
 16
1.0
 26
0.0
 36
0.0
 17
0.0
 27
1.0
 37
0.0
 76
     0
330
1F
331
29
  0
MLINESTYLE
  5
18
102
{ACAD_REACTORS
330
17
102
}
330
17
100
AcDbMlineStyle
  2
Standard
 70
     0
  3

 62
   256
 51
90.0
 52
90.0
 71
     2
 49
0.5
 62
   256
  6
BYLAYER
 49
-0.5
 62
   256
  6
BYLAYER
  0
ACDBPLACEHOLDER
  5
F
102
{ACAD_REACTORS
330
E
102
}
330
E
  0
SCALE
  5
48
102
{ACAD_REACTORS
330
47
102
}
330
47
100
AcDbScale
 70
     0
300
1:1
140
1.0
141
1.0
290
     1
  0
SCALE
  5
49
102
{ACAD_REACTORS
330
47
102
}
330
47
100
AcDbScale
 70
     0
300
1:2
140
1.0
141
2.0
290
     0
  0
SCALE
  5
4A
102
{ACAD_REACTORS
330
47
102
}
330
47
100
AcDbScale
 70
     0
300
1:4
140
1.0
141
4.0
290
     0
  0
SCALE
  5
4B
102
{ACAD_REACTORS
330
47
102
}
330
47
100
AcDbScale
 70
     0
300
1:5
140
1.0
141
5.0
290
     0
  0
SCALE
  5
4C
102
{ACAD_REACTORS
330
47
102
}
330
47
100
AcDbScale
 70
     0
300
1:8
140
1.0
141
8.0
290
     0
  0
SCALE
  5
4D
102
{ACAD_REACTORS
330
47
102
}
330
47
100
AcDbScale
 70
     0
300
1:10
140
1.0
141
10.0
290
     0
  0
SCALE
  5
4E
102
{ACAD_REACTORS
330
47
102
}
330
47
100
AcDbScale
 70
     0
300
1:16
140
1.0
141
16.0
290
     0
  0
SCALE
  5
4F
102
{ACAD_REACTORS
330
47
102
}
330
47
100
AcDbScale
 70
     0
300
1:20
140
1.0
141
20.0
290
     0
  0
SCALE
  5
50
102
{ACAD_REACTORS
330
47
102
}
330
47
100
AcDbScale
 70
     0
300
1:30
140
1.0
141
30.0
290
     0
  0
SCALE
  5
51
102
{ACAD_REACTORS
330
47
102
}
330
47
100
AcDbScale
 70
     0
300
1:40
140
1.0
141
40.0
290
     0
  0
SCALE
  5
52
102
{ACAD_REACTORS
330
47
102
}
330
47
100
AcDbScale
 70
     0
300
1:50
140
1.0
141
50.0
290
     0
  0
SCALE
  5
53
102
{ACAD_REACTORS
330
47
102
}
330
47
100
AcDbScale
 70
     0
300
1:100
140
1.0
141
100.0
290
     0
  0
SCALE
  5
54
102
{ACAD_REACTORS
330
47
102
}
330
47
100
AcDbScale
 70
     0
300
2:1
140
2.0
141
1.0
290
     0
  0
SCALE
  5
55
102
{ACAD_REACTORS
330
47
102
}
330
47
100
AcDbScale
 70
     0
300
4:1
140
4.0
141
1.0
290
     0
  0
SCALE
  5
56
102
{ACAD_REACTORS
330
47
102
}
330
47
100
AcDbScale
 70
     0
300
8:1
140
8.0
141
1.0
290
     0
  0
SCALE
  5
57
102
{ACAD_REACTORS
330
47
102
}
330
47
100
AcDbScale
 70
     0
300
10:1
140
10.0
141
1.0
290
     0
  0
SCALE
  5
58
102
{ACAD_REACTORS
330
47
102
}
330
47
100
AcDbScale
 70
     0
300
100:1
140
100.0
141
1.0
290
     0
  0
SCALE
  5
59
102
{ACAD_REACTORS
330
47
102
}
330
47
100
AcDbScale
 70
     0
300
1/128" = 1'-0"
140
0.0078125
141
12.0
290
     0
  0
SCALE
  5
5A
102
{ACAD_REACTORS
330
47
102
}
330
47
100
AcDbScale
 70
     0
300
1/64" = 1'-0"
140
0.015625
141
12.0
290
     0
  0
SCALE
  5
5B
102
{ACAD_REACTORS
330
47
102
}
330
47
100
AcDbScale
 70
     0
300
1/32" = 1'-0"
140
0.03125
141
12.0
290
     0
  0
SCALE
  5
5C
102
{ACAD_REACTORS
330
47
102
}
330
47
100
AcDbScale
 70
     0
300
1/16" = 1'-0"
140
0.0625
141
12.0
290
     0
  0
SCALE
  5
5D
102
{ACAD_REACTORS
330
47
102
}
330
47
100
AcDbScale
 70
     0
300
3/32" = 1'-0"
140
0.09375
141
12.0
290
     0
  0
SCALE
  5
5E
102
{ACAD_REACTORS
330
47
102
}
330
47
100
AcDbScale
 70
     0
300
1/8" = 1'-0"
140
0.125
141
12.0
290
     0
  0
SCALE
  5
5F
102
{ACAD_REACTORS
330
47
102
}
330
47
100
AcDbScale
 70
     0
300
3/16" = 1'-0"
140
0.1875
141
12.0
290
     0
  0
SCALE
  5
60
102
{ACAD_REACTORS
330
47
102
}
330
47
100
AcDbScale
 70
     0
300
1/4" = 1'-0"
140
0.25
141
12.0
290
     0
  0
SCALE
  5
61
102
{ACAD_REACTORS
330
47
102
}
330
47
100
AcDbScale
 70
     0
300
3/8" = 1'-0"
140
0.375
141
12.0
290
     0
  0
SCALE
  5
62
102
{ACAD_REACTORS
330
47
102
}
330
47
100
AcDbScale
 70
     0
300
1/2" = 1'-0"
140
0.5
141
12.0
290
     0
  0
SCALE
  5
63
102
{ACAD_REACTORS
330
47
102
}
330
47
100
AcDbScale
 70
     0
300
3/4" = 1'-0"
140
0.75
141
12.0
290
     0
  0
SCALE
  5
64
102
{ACAD_REACTORS
330
47
102
}
330
47
100
AcDbScale
 70
     0
300
1" = 1'-0"
140
1.0
141
12.0
290
     0
  0
SCALE
  5
65
102
{ACAD_REACTORS
330
47
102
}
330
47
100
AcDbScale
 70
     0
300
1-1/2" = 1'-0"
140
1.5
141
12.0
290
     0
  0
SCALE
  5
66
102
{ACAD_REACTORS
330
47
102
}
330
47
100
AcDbScale
 70
     0
300
3" = 1'-0"
140
3.0
141
12.0
290
     0
  0
SCALE
  5
67
102
{ACAD_REACTORS
330
47
102
}
330
47
100
AcDbScale
 70
     0
300
6" = 1'-0"
140
6.0
141
12.0
290
     0
  0
SCALE
  5
68
102
{ACAD_REACTORS
330
47
102
}
330
47
100
AcDbScale
 70
     0
300
1'-0" = 1'-0"
140
12.0
141
12.0
290
     0
  0
ENDSEC
  0
EOF
