  0
SECTION
  2
HEADER
  9
$ACADVER
  1
AC1009
  9
$DWGCODEPAGE
  3
ansi_1252
  9
$INSBASE
 10
0.0
 20
0.0
 30
0.0
  9
$EXTMIN
 10
0.072774552972815
 20
0.0155320754744853
 30
0.0
  9
$EXTMAX
 10
13.73625851419205
 20
13.55452303754723
 30
0.0
  9
$LIMMIN
 10
0.0
 20
0.0
  9
$LIMMAX
 10
420.0
 20
297.0
  9
$ORTHOMODE
 70
     0
  9
$REGENMODE
 70
     1
  9
$FILLMODE
 70
     1
  9
$QTEXTMODE
 70
     0
  9
$MIRRTEXT
 70
     0
  9
$DRAGMODE
 70
     2
  9
$LTSCALE
 40
1.0
  9
$OSMODE
 70
    37
  9
$ATTMODE
 70
     1
  9
$TEXTSIZE
 40
2.5
  9
$TRACEWID
 40
1.0
  9
$TEXTSTYLE
  7
STANDARD
  9
$CLAYER
  8
2
  9
$CELTYPE
  6
BYLAYER
  9
$CECOLOR
 62
   256
  9
$DIMSCALE
 40
1.0
  9
$DIMASZ
 40
2.5
  9
$DIMEXO
 40
0.625
  9
$DIMDLI
 40
3.75
  9
$DIMRND
 40
0.0
  9
$DIMDLE
 40
0.0
  9
$DIMEXE
 40
1.25
  9
$DIMTP
 40
0.0
  9
$DIMTM
 40
0.0
  9
$DIMTXT
 40
2.5
  9
$DIMCEN
 40
2.5
  9
$DIMTSZ
 40
0.0
  9
$DIMTOL
 70
     0
  9
$DIMLIM
 70
     0
  9
$DIMTIH
 70
     0
  9
$DIMTOH
 70
     0
  9
$DIMSE1
 70
     0
  9
$DIMSE2
 70
     0
  9
$DIMTAD
 70
     1
  9
$DIMZIN
 70
     8
  9
$DIMBLK
  1

  9
$DIMASO
 70
     1
  9
$DIMSHO
 70
     1
  9
$DIMPOST
  1

  9
$DIMAPOST
  1

  9
$DIMALT
 70
     0
  9
$DIMALTD
 70
     3
  9
$DIMALTF
 40
0.03937007874016
  9
$DIMLFAC
 40
1.0
  9
$DIMTOFL
 70
     1
  9
$DIMTVP
 40
0.0
  9
$DIMTIX
 70
     0
  9
$DIMSOXD
 70
     0
  9
$DIMSAH
 70
     0
  9
$DIMBLK1
  1

  9
$DIMBLK2
  1

  9
$DIMSTYLE
  2
STANDARD
  9
$DIMCLRD
 70
     0
  9
$DIMCLRE
 70
     0
  9
$DIMCLRT
 70
     0
  9
$DIMTFAC
 40
1.0
  9
$DIMGAP
 40
0.09
  9
$LUNITS
 70
     2
  9
$LUPREC
 70
     4
  9
$SKETCHINC
 40
1.0
  9
$FILLETRAD
 40
0.0
  9
$AUNITS
 70
     0
  9
$AUPREC
 70
     0
  9
$MENU
  1
.
  9
$ELEVATION
 40
0.0
  9
$PELEVATION
 40
0.0
  9
$THICKNESS
 40
0.0
  9
$LIMCHECK
 70
     0
  9
$CHAMFERA
 40
0.0
  9
$CHAMFERB
 40
0.0
  9
$SKPOLY
 70
     0
  9
$TDCREATE
 40
2453353.550459155
  9
$TDUPDATE
 40
2440710.887961482
  9
$TDINDWG
 40
4881544.065984908
  9
$TDUSRTIMER
 40
4881544.065984908
  9
$USRTIMER
 70
     1
  9
$ANGBASE
 50
0.0
  9
$ANGDIR
 70
     0
  9
$PDMODE
 70
     0
  9
$PDSIZE
 40
0.0
  9
$PLINEWID
 40
0.0
  9
$COORDS
 70
     1
  9
$SPLFRAME
 70
     0
  9
$SPLINETYPE
 70
     6
  9
$SPLINESEGS
 70
     8
  9
$ATTDIA
 70
     0
  9
$ATTREQ
 70
     1
  9
$HANDLING
 70
     1
  9
$HANDSEED
  5
243
  9
$SURFTAB1
 70
     6
  9
$SURFTAB2
 70
     6
  9
$SURFTYPE
 70
     6
  9
$SURFU
 70
     6
  9
$SURFV
 70
     6
  9
$UCSNAME
  2

  9
$UCSORG
 10
0.0
 20
0.0
 30
0.0
  9
$UCSXDIR
 10
1.0
 20
0.0
 30
0.0
  9
$UCSYDIR
 10
0.0
 20
1.0
 30
0.0
  9
$PUCSNAME
  2

  9
$PUCSORG
 10
0.0
 20
0.0
 30
0.0
  9
$PUCSXDIR
 10
1.0
 20
0.0
 30
0.0
  9
$PUCSYDIR
 10
0.0
 20
1.0
 30
0.0
  9
$USERI1
 70
     0
  9
$USERI2
 70
     0
  9
$USERI3
 70
     0
  9
$USERI4
 70
     0
  9
$USERI5
 70
     0
  9
$USERR1
 40
0.0
  9
$USERR2
 40
0.0
  9
$USERR3
 40
0.0
  9
$USERR4
 40
0.0
  9
$USERR5
 40
0.0
  9
$WORLDVIEW
 70
     1
  9
$SHADEDGE
 70
     3
  9
$SHADEDIF
 70
    70
  9
$TILEMODE
 70
     1
  9
$MAXACTVP
 70
    64
  9
$PLIMCHECK
 70
     0
  9
$PEXTMIN
 10
0.0
 20
0.0
 30
0.0
  9
$PEXTMAX
 10
0.0
 20
0.0
 30
0.0
  9
$PLIMMIN
 10
0.0
 20
0.0
  9
$PLIMMAX
 10
0.0
 20
0.0
  9
$UNITMODE
 70
     0
  9
$VISRETAIN
 70
     1
  9
$PLINEGEN
 70
     0
  9
$PSLTSCALE
 70
     1
  0
ENDSEC
  0
SECTION
  2
TABLES
  0
TABLE
  2
VPORT
 70
     1
  0
VPORT
  2
*ACTIVE
 70
     0
 10
0.0
 20
0.0
 11
1.0
 21
1.0
 12
6.698536278191735
 22
6.982153450883708
 13
0.0
 23
0.0
 14
10.0
 24
10.0
 15
10.0
 25
10.0
 16
0.0
 26
0.0
 36
1.0
 17
0.0
 27
0.0
 37
0.0
 40
14.35895475766779
 41
1.664827586206897
 42
50.0
 43
0.0
 44
0.0
 50
0.0
 51
0.0
 71
    16
 72
  1000
 73
     1
 74
     1
 75
     0
 76
     0
 77
     0
 78
     0
  0
ENDTAB
  0
TABLE
  2
LTYPE
 70
     1
  0
LTYPE
  2
CONTINUOUS
 70
     0
  3
Solid line
 72
    65
 73
     0
 40
0.0
  0
ENDTAB
  0
TABLE
  2
LAYER
 70
     3
  0
LAYER
  2
0
 70
     0
 62
     7
  6
CONTINUOUS
  0
LAYER
  2
1
 70
     0
 62
     7
  6
CONTINUOUS
  0
LAYER
  2
2
 70
     0
 62
     7
  6
CONTINUOUS
  0
ENDTAB
  0
TABLE
  2
STYLE
 70
     1
  0
STYLE
  2
STANDARD
 70
     0
 40
0.0
 41
1.0
 50
0.0
 71
     0
 42
2.5
  3
txt
  4

  0
ENDTAB
  0
TABLE
  2
VIEW
 70
     0
  0
ENDTAB
  0
TABLE
  2
UCS
 70
     0
  0
ENDTAB
  0
TABLE
  2
APPID
 70
     1
  0
APPID
  2
ACAD
 70
     0
  0
ENDTAB
  0
TABLE
  2
DIMSTYLE
 70
     1
  0
DIMSTYLE
  2
STANDARD
 70
     0
  3

  4

  5

  6

  7

 40
1.0
 41
0.18
 42
0.0625
 43
0.38
 44
0.18
 45
0.0
 46
0.0
 47
0.0
 48
0.0
140
0.18
141
0.09
142
0.0
143
25.4
144
1.0
145
0.0
146
1.0
147
0.09
 71
     0
 72
     0
 73
     1
 74
     1
 75
     0
 76
     0
 77
     0
 78
     0
170
     0
171
     2
172
     0
173
     0
174
     0
175
     0
176
     0
177
     0
178
     0
  0
ENDTAB
  0
ENDSEC
  0
SECTION
  2
BLOCKS
  0
BLOCK
  8
0
  2
$MODEL_SPACE
 70
     0
 10
0.0
 20
0.0
 30
0.0
  3
$MODEL_SPACE
  1

  0
ENDBLK
  5
21
  8
0
  0
BLOCK
 67
     1
  8
0
  2
$PAPER_SPACE
 70
     0
 10
0.0
 20
0.0
 30
0.0
  3
$PAPER_SPACE
  1

  0
ENDBLK
  5
76
 67
     1
  8
0
  0
ENDSEC
  0
SECTION
  2
ENTITIES
  0
LINE
  5
175
  8
1
 62
     2
 10
4.173593693938847
 20
10.46715576772726
 30
0.0
 11
3.104112691253795
 21
8.497059183833752
 31
0.0
  0
LINE
  5
176
  8
1
 62
     2
 10
3.104112691253795
 20
8.497059183833752
 30
0.0
 11
3.800456141366884
 21
8.500132909857372
 31
0.0
  0
LINE
  5
177
  8
1
 62
     2
 10
5.299363170449425
 20
8.497059183833752
 30
0.0
 11
4.173593693938847
 21
10.46715576772726
 31
0.0
  0
LINE
  5
178
  8
1
 62
     2
 10
6.948348337998938
 20
6.04528646858176
 30
0.0
 11
7.115744160085936
 21
6.088378226093099
 31
0.0
  0
LINE
  5
179
  8
1
 62
     2
 10
6.109674359943744
 20
6.249764009082934
 30
0.0
 11
6.357461920715206
 21
6.19033214063034
 31
0.0
  0
ARC
  5
17A
  8
1
 62
     2
 10
6.932108188933997
 20
7.204865873270765
 30
0.0
 40
4.759310065296026
 50
214.6679516698519
 51
326.8201667359254
  0
LINE
  5
17B
  8
1
 62
     2
 10
5.78813858315405
 20
3.957704503061728
 30
0.0
 11
6.597499476716521
 21
3.930792904581691
 31
0.0
  0
LINE
  5
17C
  8
1
 62
     2
 10
6.597499476716521
 20
3.930792904581691
 30
0.0
 11
6.599400864732221
 21
3.308226535887335
 31
0.0
  0
LINE
  5
17D
  8
1
 62
     2
 10
6.599400864732221
 20
3.308226535887335
 30
0.0
 11
7.251042593495448
 21
3.308226535887335
 31
0.0
  0
LINE
  5
17E
  8
1
 62
     2
 10
7.251042593495448
 20
3.308226535887335
 30
0.0
 11
7.252761783740741
 21
3.891962545646909
 31
0.0
  0
LINE
  5
17F
  8
1
 62
     2
 10
7.252761783740741
 20
3.891962545646909
 30
0.0
 11
8.120275404356127
 21
3.914113160609352
 31
0.0
  0
LINE
  5
180
  8
1
 62
     2
 10
8.120275404356127
 20
3.914113160609352
 30
0.0
 11
8.121901661886545
 21
3.367448044707606
 31
0.0
  0
LINE
  5
181
  8
1
 62
     2
 10
8.121901661886545
 20
3.367448044707606
 30
0.0
 11
8.735325110373511
 21
3.3671950000884
 31
0.0
  0
LINE
  5
182
  8
1
 62
     2
 10
8.735325110373511
 20
3.3671950000884
 30
0.0
 11
8.734253054235481
 21
3.940591739223742
 31
0.0
  0
LINE
  5
183
  8
1
 62
     2
 10
5.174968177275257
 20
3.970279126168685
 30
0.0
 11
5.175869777941821
 21
3.401704229404631
 31
0.0
  0
LINE
  5
184
  8
1
 62
     2
 10
5.175869777941821
 20
3.401704229404631
 30
0.0
 11
5.789547347598692
 21
3.403430638296555
 31
0.0
  0
LINE
  5
185
  8
1
 62
     2
 10
5.789547347598692
 20
3.403430638296555
 30
0.0
 11
5.78813858315405
 21
3.957704503061728
 31
0.0
  0
ARC
  5
186
  8
1
 62
     2
 10
8.768249338048126
 20
7.76414811196702
 30
0.0
 40
3.823707504877797
 50
269.4905810022419
 51
304.1629449708237
  0
ARC
  5
187
  8
1
 62
     2
 10
4.939090301009423
 20
7.680986871982362
 30
0.0
 40
3.718197190488059
 50
238.8862746562328
 51
273.6372165223055
  0
ARC
  5
188
  8
1
 62
     2
 10
4.182511540642065
 20
8.743785080406566
 30
0.0
 40
0.4531365228368306
 50
327.4584033613624
 51
212.5273040250225
  0
LINE
  5
189
  8
1
 62
     2
 10
4.564506148225402
 20
8.500037612510166
 30
0.0
 11
5.299363170449425
 21
8.497059183833752
 31
0.0
  0
LINE
  5
18A
  8
1
 62
     2
 10
9.71608693122611
 20
10.46715576772726
 30
0.0
 11
8.646605928541057
 21
8.497059183833752
 31
0.0
  0
LINE
  5
18B
  8
1
 62
     2
 10
8.646605928541057
 20
8.497059183833752
 30
0.0
 11
9.342949378654145
 21
8.500132909857372
 31
0.0
  0
LINE
  5
18C
  8
1
 62
     2
 10
10.84185640773669
 20
8.497059183833752
 30
0.0
 11
9.71608693122611
 21
10.46715576772726
 31
0.0
  0
ARC
  5
18D
  8
1
 62
     2
 10
9.725004777929328
 20
8.743785080406566
 30
0.0
 40
0.4531365228368314
 50
327.4584033613625
 51
212.5273040250225
  0
LINE
  5
18E
  8
1
 62
     2
 10
10.10699938551266
 20
8.500037612510166
 30
0.0
 11
10.84185640773669
 21
8.497059183833752
 31
0.0
  0
ARC
  5
18F
  8
1
 62
     2
 10
6.924458360191855
 20
6.016707006565067
 30
0.0
 40
0.8474600483107918
 50
15.58791928049888
 51
164.0375998335664
  0
ARC
  5
190
  8
1
 62
     2
 10
6.564294072174008
 20
6.160283437746773
 30
0.0
 40
0.209003500980395
 50
340.6193193161311
 51
171.7338662292372
  0
ARC
  5
191
  8
1
 62
     2
 10
7.313912181921762
 20
6.142643914327854
 30
0.0
 40
0.2054636945981346
 50
12.32709966612947
 51
195.3142698191057
  0
LINE
  5
192
  8
1
 62
     2
 10
7.514638850712894
 20
6.186508868835194
 30
0.0
 11
7.740748189519716
 21
6.244433702450333
 31
0.0
  0
LINE
  5
193
  8
1
 62
     2
 10
6.761454307069024
 20
6.09092707395653
 30
0.0
 11
6.948348337998938
 21
6.04528646858176
 31
0.0
  0
ARC
  5
1D0
  8
2
 62
    30
 10
4.065238936509655
 20
8.89384999680164
 30
0.0
 40
3.343692390255945
 50
53.01204981800558
 51
137.5869782850297
  0
ARC
  5
1D1
  8
2
 62
    30
 10
6.904533347197416
 20
6.846801297223459
 30
0.0
 40
6.832558133331523
 50
140.9740830285038
 51
39.04416253818434
  0
ARC
  5
1D2
  8
2
 62
     3
 10
8.144989097603734
 20
11.54725741631361
 30
0.0
 40
2.068100759178855
 50
103.9315493804362
 51
179.5177358298547
  0
LINE
  5
1D3
  8
2
 62
     3
 10
7.647067943273274
 20
13.55452303754723
 30
0.0
 11
8.674801085418428
 21
13.36865640545715
 31
0.0
  0
ARC
  5
1D4
  8
2
 62
     3
 10
9.327705433927415
 20
11.46235355955394
 30
0.0
 40
2.015012314751604
 50
108.9062143131896
 51
178.0182342226485
  0
ARC
  5
1D5
  8
2
 62
    30
 10
9.536370661467791
 20
8.436850953912488
 30
0.0
 40
3.810452884816768
 50
45.41645519870826
 51
125.6799319528973
  0
ENDSEC
  0
EOF
