0
SECTION
2
HEADER
9
$EXTMIN
10
0.203857
20
0.296143
9
$EXTMAX
10
32.180176
20
38.155762
0
ENDSEC
0
SECTION
2
TABLES
0
TABLE
2
LTYPE
70
1
0
LTYPE
2
0
70
0
3
Solid Line
72
65
73
0
40
0.0
0
ENDTAB
0
TABLE
2
LAYER
70
1
0
LAYER
2
1
70
0
62
7
6
0
0
ENDTAB
0
ENDSEC
0
SECTION
2
BLOCKS
0
ENDSEC
0
SECTION
2
ENTITIES
0
POLYLINE
8
1
66
1
70
1
0
VERTEX
8
1
10
2.964612
20
3.693803
0
VERTEX
8
1
10
2.964612
20
0.190141
0
VERTEX
8
1
10
0.832105
20
0.190141
0
VERTEX
8
1
10
0.832105
20
3.693803
0
SEQEND
0
POLYLINE
8
1
66
1
70
1
0
VERTEX
8
1
10
2.849250
20
4.322650
42
0.120385
0
VERTEX
8
1
10
2.423021
20
4.479328
42
0.084965
0
VERTEX
8
1
10
2.269050
20
4.462650
42
-0.277703
0
VERTEX
8
1
10
2.508196
20
4.526587
42
-0.138676
0
VERTEX
8
1
10
2.839150
20
4.344300
0
SEQEND
0
POLYLINE
8
1
66
1
70
1
0
VERTEX
8
1
10
1.635001
20
4.545850
42
-0.010244
0
VERTEX
8
1
10
2.414001
20
5.587602
42
0.043975
0
VERTEX
8
1
10
2.627360
20
5.964865
42
0.027736
0
VERTEX
8
1
10
2.880000
20
6.565150
42
-0.066935
0
VERTEX
8
1
10
2.785156
20
6.070770
42
-0.063072
0
VERTEX
8
1
10
2.475850
20
5.393100
42
-0.009752
0
VERTEX
8
1
10
1.568301
20
4.435100
42
-0.035851
0
SEQEND
0
POLYLINE
8
1
66
1
70
1
0
VERTEX
8
1
10
1.760700
20
4.941800
42
-0.132623
0
VERTEX
8
1
10
1.910250
20
5.167650
42
-0.086480
0
VERTEX
8
1
10
1.989400
20
5.205400
42
0.076817
0
VERTEX
8
1
10
1.817011
20
4.938332
42
-0.081062
0
VERTEX
8
1
10
1.689350
20
4.774350
42
-0.128568
0
VERTEX
8
1
10
1.610450
20
4.744200
42
0.068623
0
SEQEND
0
POLYLINE
8
1
66
1
70
1
0
VERTEX
8
1
10
1.438250
20
6.159600
42
0.064609
0
VERTEX
8
1
10
0.920750
20
7.830900
42
-0.157156
0
VERTEX
8
1
10
1.600260
20
6.292965
42
-0.109051
0
VERTEX
8
1
10
1.443225
20
4.694717
42
-0.046085
0
VERTEX
8
1
10
1.357800
20
4.513250
0
VERTEX
8
1
10
1.340050
20
4.497550
42
0.082705
0
VERTEX
8
1
10
1.493119
20
5.361087
42
0.049952
0
SEQEND
0
POLYLINE
8
1
66
1
70
1
0
VERTEX
8
1
10
2.038600
20
7.846850
42
0.091636
0
VERTEX
8
1
10
1.996246
20
8.119409
42
0.056708
0
VERTEX
8
1
10
1.857250
20
8.442500
0
VERTEX
8
1
10
1.840550
20
8.477200
42
0.051188
0
VERTEX
8
1
10
1.297000
20
9.220450
42
-0.116750
0
VERTEX
8
1
10
1.465509
20
9.143561
42
-0.093403
0
VERTEX
8
1
10
1.698924
20
8.910657
42
-0.101892
0
VERTEX
8
1
10
2.089011
20
8.049740
42
-0.091188
0
VERTEX
8
1
10
2.089423
20
7.878359
42
-0.351056
0
SEQEND
0
POLYLINE
8
1
66
1
70
1
0
VERTEX
8
1
10
1.890300
20
9.046300
42
-0.309199
0
VERTEX
8
1
10
2.059125
20
9.239758
42
0.078409
0
VERTEX
8
1
10
2.006344
20
9.101413
42
0.107485
0
VERTEX
8
1
10
1.986150
20
8.653800
42
-0.268276
0
VERTEX
8
1
10
1.964750
20
8.657800
42
-0.151326
0
SEQEND
0
POLYLINE
8
1
66
1
70
1
0
VERTEX
8
1
10
1.744900
20
9.557700
42
-0.023193
0
VERTEX
8
1
10
1.881350
20
9.193400
42
-0.198983
0
VERTEX
8
1
10
1.780300
20
9.056100
42
-0.111751
0
VERTEX
8
1
10
1.771550
20
9.079150
42
-0.017310
0
VERTEX
8
1
10
1.693128
20
9.615021
42
-0.250396
0
SEQEND
0
POLYLINE
8
1
66
1
70
1
0
VERTEX
8
1
10
0.641767
20
0.713120
0
VERTEX
8
1
10
0.641800
20
0.000000
0
VERTEX
8
1
10
3.155100
20
0.000000
42
0.000019
0
VERTEX
8
1
10
3.155092
20
3.883190
42
0.001851
0
VERTEX
8
1
10
1.800403
20
3.886140
0
VERTEX
8
1
10
1.826250
20
3.904550
42
0.008591
0
VERTEX
8
1
10
2.208250
20
4.210250
0
VERTEX
8
1
10
2.252200
20
4.243100
42
-0.192284
0
VERTEX
8
1
10
2.865695
20
4.227583
42
-0.081906
0
VERTEX
8
1
10
3.271059
20
3.985013
42
-0.051976
0
VERTEX
8
1
10
3.724705
20
3.534060
0
VERTEX
8
1
10
3.761044
20
3.495116
0
VERTEX
8
1
10
3.798250
20
3.457000
42
0.057407
0
VERTEX
8
1
10
3.703868
20
3.798847
42
0.066967
0
VERTEX
8
1
10
3.291338
20
4.571923
42
0.269314
0
VERTEX
8
1
10
2.698289
20
4.796418
42
0.093134
0
VERTEX
8
1
10
2.245286
20
4.642946
42
0.043532
0
VERTEX
8
1
10
1.743338
20
4.317999
42
-0.025826
0
VERTEX
8
1
10
1.631550
20
4.247100
42
-0.032949
0
VERTEX
8
1
10
1.822100
20
4.427650
42
-0.006615
0
VERTEX
8
1
10
2.530180
20
4.970392
42
0.076852
0
VERTEX
8
1
10
2.769120
20
5.224298
42
0.088156
0
VERTEX
8
1
10
3.010255
20
5.734517
42
0.064986
0
VERTEX
8
1
10
3.111017
20
6.348986
42
0.075456
0
VERTEX
8
1
10
2.996714
20
7.574369
42
0.050131
0
VERTEX
8
1
10
2.956250
20
7.671150
42
0.058072
0
VERTEX
8
1
10
2.948500
20
7.630250
42
-0.137608
0
VERTEX
8
1
10
2.396942
20
5.814749
42
-0.047762
0
VERTEX
8
1
10
2.123322
20
5.479072
42
-0.054865
0
VERTEX
8
1
10
2.047250
20
5.424500
42
-0.059709
0
VERTEX
8
1
10
2.114487
20
5.593386
42
0.061012
0
VERTEX
8
1
10
2.411100
20
6.565600
0
VERTEX
8
1
10
2.413300
20
6.593050
42
0.094016
0
VERTEX
8
1
10
2.393293
20
7.528326
42
0.036155
0
VERTEX
8
1
10
2.321484
20
7.753680
42
-0.151013
0
VERTEX
8
1
10
2.388613
20
7.792424
42
0.288974
0
VERTEX
8
1
10
2.731195
20
8.312260
42
0.074094
0
VERTEX
8
1
10
2.709414
20
8.607154
42
0.045018
0
VERTEX
8
1
10
2.604000
20
8.976250
0
VERTEX
8
1
10
2.581950
20
9.043450
42
-0.221143
0
VERTEX
8
1
10
2.580259
20
9.436754
42
-0.043724
0
VERTEX
8
1
10
2.711166
20
9.706003
42
0.030652
0
VERTEX
8
1
10
2.744700
20
9.782011
42
0.208468
0
VERTEX
8
1
10
2.136363
20
9.438189
42
-0.012973
0
VERTEX
8
1
10
2.075285
20
9.367785
42
0.223920
0
VERTEX
8
1
10
1.569544
20
9.884604
42
0.212175
0
VERTEX
8
1
10
1.520556
20
9.881570
42
0.140702
0
VERTEX
8
1
10
1.348686
20
9.754995
42
0.122726
0
VERTEX
8
1
10
1.173330
20
9.406908
42
0.064541
0
VERTEX
8
1
10
1.175031
20
9.389761
42
0.276031
0
VERTEX
8
1
10
0.686552
20
9.360621
42
0.108382
0
VERTEX
8
1
10
0.648232
20
9.309212
42
-0.125218
0
VERTEX
8
1
10
0.823984
20
9.166599
42
-0.076759
0
VERTEX
8
1
10
0.968919
20
8.921349
42
-0.015619
0
VERTEX
8
1
10
1.118739
20
8.550364
42
-0.049437
0
VERTEX
8
1
10
1.153225
20
8.448005
42
0.081469
0
VERTEX
8
1
10
1.370479
20
7.969754
42
0.224730
0
VERTEX
8
1
10
1.982836
20
7.633778
42
0.017228
0
VERTEX
8
1
10
2.062613
20
7.628371
42
-0.103989
0
VERTEX
8
1
10
2.183112
20
7.179192
42
-0.080132
0
VERTEX
8
1
10
2.126731
20
6.504879
42
-0.064518
0
VERTEX
8
1
10
1.785153
20
5.546155
0
VERTEX
8
1
10
1.779833
20
5.537915
0
VERTEX
8
1
10
1.774400
20
5.529750
42
0.023610
0
VERTEX
8
1
10
1.806350
20
5.813086
42
0.038363
0
VERTEX
8
1
10
1.815387
20
6.765141
42
0.074251
0
VERTEX
8
1
10
1.794293
20
6.828507
42
0.046691
0
VERTEX
8
1
10
1.139434
20
7.959630
42
0.051454
0
VERTEX
8
1
10
0.570973
20
8.592633
42
0.061321
0
VERTEX
8
1
10
0.154068
20
8.871188
42
0.064863
0
VERTEX
8
1
10
0.000000
20
8.917650
42
-0.032294
0
VERTEX
8
1
10
0.547550
20
8.129350
42
-0.040081
0
VERTEX
8
1
10
1.015515
20
7.079179
0
VERTEX
8
1
10
1.088590
20
6.852891
42
-0.063793
0
VERTEX
8
1
10
1.294995
20
5.659196
42
-0.087314
0
VERTEX
8
1
10
1.140695
20
4.456889
42
-0.058771
0
VERTEX
8
1
10
0.915513
20
3.943418
0
VERTEX
8
1
10
0.883883
20
3.894193
42
-0.011118
0
VERTEX
8
1
10
0.642910
20
3.884841
0
VERTEX
8
1
10
0.641191
20
3.706294
42
-0.000207
0
SEQEND
0
ENDSEC
0
EOF
