  0
SECTION
  2
HEADER
  9
$ACADVER
  1
AC1021
  9
$ACADMAINTVER
 70
    25
  9
$DWGCODEPAGE
  3
ANSI_936
  9
$INSBASE
 10
0.0
 20
0.0
 30
0.0
  9
$EXTMIN
 10
-50.369
 20
-62.99245
 30
0.0
  9
$EXTMAX
 10
43.3566
 20
30.6737
 30
0.0
  9
$LIMMIN
 10
0.0
 20
0.0
  9
$LIMMAX
 10
12.0
 20
9.0
  9
$ORTHOMODE
 70
     0
  9
$REGENMODE
 70
     1
  9
$FILLMODE
 70
     1
  9
$QTEXTMODE
 70
     0
  9
$MIRRTEXT
 70
     1
  9
$LTSCALE
 40
1.0
  9
$ATTMODE
 70
     1
  9
$TEXTSIZE
 40
0.2
  9
$TRACEWID
 40
0.05
  9
$TEXTSTYLE
  7
Standard
  9
$CLAYER
  8
0
  9
$CELTYPE
  6
ByLayer
  9
$CECOLOR
 62
   256
  9
$CELTSCALE
 40
1.0
  9
$DISPSILH
 70
     0
  9
$DIMSCALE
 40
1.0
  9
$DIMASZ
 40
0.18
  9
$DIMEXO
 40
0.0625
  9
$DIMDLI
 40
0.38
  9
$DIMRND
 40
0.0
  9
$DIMDLE
 40
0.0
  9
$DIMEXE
 40
0.18
  9
$DIMTP
 40
0.0
  9
$DIMTM
 40
0.0
  9
$DIMTXT
 40
0.18
  9
$DIMCEN
 40
0.09
  9
$DIMTSZ
 40
0.0
  9
$DIMTOL
 70
     0
  9
$DIMLIM
 70
     0
  9
$DIMTIH
 70
     1
  9
$DIMTOH
 70
     1
  9
$DIMSE1
 70
     0
  9
$DIMSE2
 70
     0
  9
$DIMTAD
 70
     0
  9
$DIMZIN
 70
     0
  9
$DIMBLK
  1

  9
$DIMASO
 70
     1
  9
$DIMSHO
 70
     1
  9
$DIMPOST
  1

  9
$DIMAPOST
  1

  9
$DIMALT
 70
     0
  9
$DIMALTD
 70
     2
  9
$DIMALTF
 40
25.4
  9
$DIMLFAC
 40
1.0
  9
$DIMTOFL
 70
     0
  9
$DIMTVP
 40
0.0
  9
$DIMTIX
 70
     0
  9
$DIMSOXD
 70
     0
  9
$DIMSAH
 70
     0
  9
$DIMBLK1
  1

  9
$DIMBLK2
  1

  9
$DIMSTYLE
  2
Standard
  9
$DIMCLRD
 70
     0
  9
$DIMCLRE
 70
     0
  9
$DIMCLRT
 70
     0
  9
$DIMTFAC
 40
1.0
  9
$DIMGAP
 40
0.09
  9
$DIMJUST
 70
     0
  9
$DIMSD1
 70
     0
  9
$DIMSD2
 70
     0
  9
$DIMTOLJ
 70
     1
  9
$DIMTZIN
 70
     0
  9
$DIMALTZ
 70
     0
  9
$DIMALTTZ
 70
     0
  9
$DIMUPT
 70
     0
  9
$DIMDEC
 70
     4
  9
$DIMTDEC
 70
     4
  9
$DIMALTU
 70
     2
  9
$DIMALTTD
 70
     2
  9
$DIMTXSTY
  7
Standard
  9
$DIMAUNIT
 70
     0
  9
$DIMADEC
 70
     0
  9
$DIMALTRND
 40
0.0
  9
$DIMAZIN
 70
     0
  9
$DIMDSEP
 70
    46
  9
$DIMATFIT
 70
     3
  9
$DIMFRAC
 70
     0
  9
$DIMLDRBLK
  1

  9
$DIMLUNIT
 70
     2
  9
$DIMLWD
 70
    -2
  9
$DIMLWE
 70
    -2
  9
$DIMTMOVE
 70
     0
  9
$DIMFXL
 40
1.0
  9
$DIMFXLON
 70
     0
  9
$DIMJOGANG
 40
0.7853981633974483
  9
$DIMTFILL
 70
     0
  9
$DIMTFILLCLR
 70
     0
  9
$DIMARCSYM
 70
     0
  9
$DIMLTYPE
  6

  9
$DIMLTEX1
  6

  9
$DIMLTEX2
  6

  9
$LUNITS
 70
     2
  9
$LUPREC
 70
     4
  9
$SKETCHINC
 40
0.1
  9
$FILLETRAD
 40
0.5
  9
$AUNITS
 70
     0
  9
$AUPREC
 70
     0
  9
$MENU
  1
.
  9
$ELEVATION
 40
0.0
  9
$PELEVATION
 40
0.0
  9
$THICKNESS
 40
0.0
  9
$LIMCHECK
 70
     0
  9
$CHAMFERA
 40
0.5
  9
$CHAMFERB
 40
0.5
  9
$CHAMFERC
 40
1.0
  9
$CHAMFERD
 40
0.0
  9
$SKPOLY
 70
     0
  9
$TDCREATE
 40
2455663.77541522
  9
$TDUCREATE
 40
2455663.442081886
  9
$TDUPDATE
 40
2455663.775415231
  9
$TDUUPDATE
 40
2455663.442081898
  9
$TDINDWG
 40
0.0000000116
  9
$TDUSRTIMER
 40
0.0000000116
  9
$USRTIMER
 70
     1
  9
$ANGBASE
 50
0.0
  9
$ANGDIR
 70
     0
  9
$PDMODE
 70
     0
  9
$PDSIZE
 40
0.0
  9
$PLINEWID
 40
0.0
  9
$SPLFRAME
 70
     0
  9
$SPLINETYPE
 70
     6
  9
$SPLINESEGS
 70
     8
  9
$HANDSEED
  5
6B
  9
$SURFTAB1
 70
     6
  9
$SURFTAB2
 70
     6
  9
$SURFTYPE
 70
     6
  9
$SURFU
 70
     6
  9
$SURFV
 70
     6
  9
$UCSBASE
  2

  9
$UCSNAME
  2

  9
$UCSORG
 10
0.0
 20
0.0
 30
0.0
  9
$UCSXDIR
 10
1.0
 20
0.0
 30
0.0
  9
$UCSYDIR
 10
0.0
 20
1.0
 30
0.0
  9
$UCSORTHOREF
  2

  9
$UCSORTHOVIEW
 70
     0
  9
$UCSORGTOP
 10
0.0
 20
0.0
 30
0.0
  9
$UCSORGBOTTOM
 10
0.0
 20
0.0
 30
0.0
  9
$UCSORGLEFT
 10
0.0
 20
0.0
 30
0.0
  9
$UCSORGRIGHT
 10
0.0
 20
0.0
 30
0.0
  9
$UCSORGFRONT
 10
0.0
 20
0.0
 30
0.0
  9
$UCSORGBACK
 10
0.0
 20
0.0
 30
0.0
  9
$PUCSBASE
  2

  9
$PUCSNAME
  2

  9
$PUCSORG
 10
0.0
 20
0.0
 30
0.0
  9
$PUCSXDIR
 10
1.0
 20
0.0
 30
0.0
  9
$PUCSYDIR
 10
0.0
 20
1.0
 30
0.0
  9
$PUCSORTHOREF
  2

  9
$PUCSORTHOVIEW
 70
     0
  9
$PUCSORGTOP
 10
0.0
 20
0.0
 30
0.0
  9
$PUCSORGBOTTOM
 10
0.0
 20
0.0
 30
0.0
  9
$PUCSORGLEFT
 10
0.0
 20
0.0
 30
0.0
  9
$PUCSORGRIGHT
 10
0.0
 20
0.0
 30
0.0
  9
$PUCSORGFRONT
 10
0.0
 20
0.0
 30
0.0
  9
$PUCSORGBACK
 10
0.0
 20
0.0
 30
0.0
  9
$USERI1
 70
     0
  9
$USERI2
 70
     0
  9
$USERI3
 70
     0
  9
$USERI4
 70
     0
  9
$USERI5
 70
     0
  9
$USERR1
 40
0.0
  9
$USERR2
 40
0.0
  9
$USERR3
 40
0.0
  9
$USERR4
 40
0.0
  9
$USERR5
 40
0.0
  9
$WORLDVIEW
 70
     1
  9
$SHADEDGE
 70
     3
  9
$SHADEDIF
 70
    70
  9
$TILEMODE
 70
     1
  9
$MAXACTVP
 70
    64
  9
$PINSBASE
 10
0.0
 20
0.0
 30
0.0
  9
$PLIMCHECK
 70
     0
  9
$PEXTMIN
 10
1.000000000000000E+20
 20
1.000000000000000E+20
 30
1.000000000000000E+20
  9
$PEXTMAX
 10
-1.000000000000000E+20
 20
-1.000000000000000E+20
 30
-1.000000000000000E+20
  9
$PLIMMIN
 10
0.0
 20
0.0
  9
$PLIMMAX
 10
12.0
 20
9.0
  9
$UNITMODE
 70
     0
  9
$VISRETAIN
 70
     1
  9
$PLINEGEN
 70
     0
  9
$PSLTSCALE
 70
     1
  9
$TREEDEPTH
 70
  3020
  9
$CMLSTYLE
  2
Standard
  9
$CMLJUST
 70
     0
  9
$CMLSCALE
 40
1.0
  9
$PROXYGRAPHICS
 70
     1
  9
$MEASUREMENT
 70
     0
  9
$CELWEIGHT
370
    -1
  9
$ENDCAPS
280
     0
  9
$JOINSTYLE
280
     0
  9
$LWDISPLAY
290
     0
  9
$INSUNITS
 70
     5
  9
$HYPERLINKBASE
  1

  9
$STYLESHEET
  1

  9
$XEDIT
290
     1
  9
$CEPSNTYPE
380
     0
  9
$PSTYLEMODE
290
     1
  9
$FINGERPRINTGUID
  2
{1C641ED3-3294-4605-897B-944B0A0BB4EC}
  9
$VERSIONGUID
  2
{FAEB1C32-E019-11D5-929B-00C0DF256EC4}
  9
$EXTNAMES
290
     1
  9
$PSVPSCALE
 40
0.0
  9
$OLESTARTUP
290
     0
  9
$SORTENTS
280
   127
  9
$INDEXCTL
280
     0
  9
$HIDETEXT
280
     1
  9
$XCLIPFRAME
290
     0
  9
$HALOGAP
280
     0
  9
$OBSCOLOR
 70
   257
  9
$OBSLTYPE
280
     0
  9
$INTERSECTIONDISPLAY
280
     0
  9
$INTERSECTIONCOLOR
 70
   257
  9
$DIMASSOC
280
     2
  9
$PROJECTNAME
  1

  9
$CAMERADISPLAY
290
     0
  9
$LENSLENGTH
 40
50.0
  9
$CAMERAHEIGHT
 40
0.0
  9
$STEPSPERSEC
 40
2.0
  9
$STEPSIZE
 40
6.0
  9
$3DDWFPREC
 40
2.0
  9
$PSOLWIDTH
 40
0.25
  9
$PSOLHEIGHT
 40
4.0
  9
$LOFTANG1
 40
1.570796326794897
  9
$LOFTANG2
 40
1.570796326794897
  9
$LOFTMAG1
 40
0.0
  9
$LOFTMAG2
 40
0.0
  9
$LOFTPARAM
 70
     7
  9
$LOFTNORMALS
280
     1
  9
$LATITUDE
 40
37.795
  9
$LONGITUDE
 40
-122.394
  9
$NORTHDIRECTION
 40
0.0
  9
$TIMEZONE
 70
 -8000
  9
$LIGHTGLYPHDISPLAY
280
     1
  9
$TILEMODELIGHTSYNCH
280
     1
  9
$SOLIDHIST
280
     1
  9
$SHOWHIST
280
     1
  9
$DWFFRAME
280
     2
  9
$DGNFRAME
280
     2
  9
$REALWORLDSCALE
290
     1
  9
$INTERFERECOLOR
 62
   256
  9
$CSHADOW
280
     0
  9
$SHADOWPLANELOCATION
 40
0.0
  0
ENDSEC
  0
SECTION
  2
CLASSES
  0
CLASS
  1
ACDBDICTIONARYWDFLT
  2
AcDbDictionaryWithDefault
  3
ObjectDBX Classes
 90
        0
 91
        3
280
     0
281
     0
  0
CLASS
  1
VISUALSTYLE
  2
AcDbVisualStyle
  3
ObjectDBX Classes
 90
     4095
 91
        3
280
     0
281
     0
  0
CLASS
  1
SCALE
  2
AcDbScale
  3
ObjectDBX Classes
 90
     1153
 91
        3
280
     0
281
     0
  0
ENDSEC
  0
SECTION
  2
TABLES
  0
TABLE
  2
VPORT
  5
8
330
0
100
AcDbSymbolTable
 70
     1
  0
VPORT
  5
29
330
8
100
AcDbSymbolTableRecord
100
AcDbViewportTableRecord
  2
*Active
 70
     0
 10
0.0
 20
0.0
 11
1.0
 21
1.0
 12
10.42990654205607
 22
4.5
 13
0.0
 23
0.0
 14
0.5
 24
0.5
 15
0.5
 25
0.5
 16
0.0
 26
0.0
 36
1.0
 17
0.0
 27
0.0
 37
0.0
 40
9.0
 41
1.972972972850329
 42
50.0
 43
0.0
 44
0.0
 50
0.0
 51
0.0
 71
     0
 72
   100
 73
     1
 74
     3
 75
     0
 76
     0
 77
     0
 78
     0
281
     0
 65
     1
110
0.0
120
0.0
130
0.0
111
1.0
121
0.0
131
0.0
112
0.0
122
1.0
132
0.0
 79
     0
146
0.0
 60
     3
 61
     5
292
     1
282
     1
141
0.0
142
0.0
 63
   256
  0
ENDTAB
  0
TABLE
  2
LTYPE
  5
5
330
0
100
AcDbSymbolTable
 70
     1
  0
LTYPE
  5
14
330
5
100
AcDbSymbolTableRecord
100
AcDbLinetypeTableRecord
  2
ByBlock
 70
     0
  3

 72
    65
 73
     0
 40
0.0
  0
LTYPE
  5
15
330
5
100
AcDbSymbolTableRecord
100
AcDbLinetypeTableRecord
  2
ByLayer
 70
     0
  3

 72
    65
 73
     0
 40
0.0
  0
LTYPE
  5
16
330
5
100
AcDbSymbolTableRecord
100
AcDbLinetypeTableRecord
  2
Continuous
 70
     0
  3
Solid line
 72
    65
 73
     0
 40
0.0
  0
ENDTAB
  0
TABLE
  2
LAYER
  5
2
330
0
100
AcDbSymbolTable
 70
     2
  0
LAYER
  5
10
330
2
100
AcDbSymbolTableRecord
100
AcDbLayerTableRecord
  2
0
 70
     0
 62
     7
  6
Continuous
370
    -3
390
F
347
0
  0
LAYER
  5
5E
330
2
100
AcDbSymbolTableRecord
100
AcDbLayerTableRecord
  2
layer 1
 70
     0
 62
     7
  6
Continuous
370
    -3
390
F
347
0
  0
ENDTAB
  0
TABLE
  2
STYLE
  5
3
330
0
100
AcDbSymbolTable
 70
     1
  0
STYLE
  5
11
330
3
100
AcDbSymbolTableRecord
100
AcDbTextStyleTableRecord
  2
Standard
 70
     0
 40
0.0
 41
1.0
 50
0.0
 71
     0
 42
0.2
  3
txt
  4

  0
ENDTAB
  0
TABLE
  2
VIEW
  5
6
330
0
100
AcDbSymbolTable
 70
     0
  0
ENDTAB
  0
TABLE
  2
UCS
  5
7
330
0
100
AcDbSymbolTable
 70
     0
  0
ENDTAB
  0
TABLE
  2
APPID
  5
9
330
0
100
AcDbSymbolTable
 70
     2
  0
APPID
  5
12
330
9
100
AcDbSymbolTableRecord
100
AcDbRegAppTableRecord
  2
ACAD
 70
     0
  0
APPID
  5
5D
330
9
100
AcDbSymbolTableRecord
100
AcDbRegAppTableRecord
  2
ODA
 70
     0
  0
ENDTAB
  0
TABLE
  2
DIMSTYLE
  5
A
330
0
100
AcDbSymbolTable
 70
     1
100
AcDbDimStyleTable
  0
DIMSTYLE
105
27
330
A
100
AcDbSymbolTableRecord
100
AcDbDimStyleTableRecord
  2
Standard
 70
     0
340
11
  0
ENDTAB
  0
TABLE
  2
BLOCK_RECORD
  5
1
330
0
100
AcDbSymbolTable
 70
     1
  0
BLOCK_RECORD
  5
1F
330
1
100
AcDbSymbolTableRecord
100
AcDbBlockTableRecord
  2
*Model_Space
340
22
 70
     0
280
     1
281
     0
  0
BLOCK_RECORD
  5
1B
330
1
100
AcDbSymbolTableRecord
100
AcDbBlockTableRecord
  2
*Paper_Space
340
1E
 70
     0
280
     1
281
     0
  0
BLOCK_RECORD
  5
23
330
1
100
AcDbSymbolTableRecord
100
AcDbBlockTableRecord
  2
*Paper_Space0
340
26
 70
     0
280
     1
281
     0
  0
ENDTAB
  0
ENDSEC
  0
SECTION
  2
BLOCKS
  0
BLOCK
  5
20
330
1F
100
AcDbEntity
  8
0
100
AcDbBlockBegin
  2
*Model_Space
 70
     0
 10
0.0
 20
0.0
 30
0.0
  3
*Model_Space
  1

  0
ENDBLK
  5
21
330
1F
100
AcDbEntity
  8
0
100
AcDbBlockEnd
  0
BLOCK
  5
1C
330
1B
100
AcDbEntity
 67
     1
  8
0
100
AcDbBlockBegin
  2
*Paper_Space
 70
     0
 10
0.0
 20
0.0
 30
0.0
  3
*Paper_Space
  1

  0
ENDBLK
  5
1D
330
1B
100
AcDbEntity
 67
     1
  8
0
100
AcDbBlockEnd
  0
BLOCK
  5
24
330
23
100
AcDbEntity
  8
0
100
AcDbBlockBegin
  2
*Paper_Space0
 70
     0
 10
0.0
 20
0.0
 30
0.0
  3
*Paper_Space0
  1

  0
ENDBLK
  5
25
330
23
100
AcDbEntity
  8
0
100
AcDbBlockEnd
  0
ENDSEC
  0
SECTION
  2
ENTITIES
  0
SPLINE
  5
5F
330
1F
100
AcDbEntity
  8
layer 1
 62
   251
100
AcDbSpline
210
0.0
220
0.0
230
1.0
 70
    11
 71
     3
 72
   108
 73
   104
 74
     0
 42
0.0000000001
 43
0.0000000001
 40
0.0
 40
0.0
 40
0.0
 40
0.0
 40
0.0384615384615385
 40
0.0384615384615385
 40
0.0384615384615385
 40
0.0384615384615385
 40
0.0769230769230769
 40
0.0769230769230769
 40
0.0769230769230769
 40
0.0769230769230769
 40
0.1153846153846154
 40
0.1153846153846154
 40
0.1153846153846154
 40
0.1153846153846154
 40
0.1538461538461539
 40
0.1538461538461539
 40
0.1538461538461539
 40
0.1538461538461539
 40
0.1923076923076923
 40
0.1923076923076923
 40
0.1923076923076923
 40
0.1923076923076923
 40
0.2307692307692308
 40
0.2307692307692308
 40
0.2307692307692308
 40
0.2307692307692308
 40
0.2692307692307692
 40
0.2692307692307692
 40
0.2692307692307692
 40
0.2692307692307692
 40
0.3076923076923077
 40
0.3076923076923077
 40
0.3076923076923077
 40
0.3076923076923077
 40
0.3461538461538461
 40
0.3461538461538461
 40
0.3461538461538461
 40
0.3461538461538461
 40
0.3846153846153845
 40
0.3846153846153845
 40
0.3846153846153845
 40
0.3846153846153845
 40
0.423076923076923
 40
0.423076923076923
 40
0.423076923076923
 40
0.423076923076923
 40
0.4615384615384614
 40
0.4615384615384614
 40
0.4615384615384614
 40
0.4615384615384614
 40
0.4999999999999998
 40
0.4999999999999998
 40
0.4999999999999998
 40
0.4999999999999998
 40
0.5384615384615383
 40
0.5384615384615383
 40
0.5384615384615383
 40
0.5384615384615383
 40
0.5769230769230768
 40
0.5769230769230768
 40
0.5769230769230768
 40
0.5769230769230768
 40
0.6153846153846152
 40
0.6153846153846152
 40
0.6153846153846152
 40
0.6153846153846152
 40
0.6538461538461536
 40
0.6538461538461536
 40
0.6538461538461536
 40
0.6538461538461536
 40
0.6923076923076921
 40
0.6923076923076921
 40
0.6923076923076921
 40
0.6923076923076921
 40
0.7307692307692305
 40
0.7307692307692305
 40
0.7307692307692305
 40
0.7307692307692305
 40
0.7692307692307689
 40
0.7692307692307689
 40
0.7692307692307689
 40
0.7692307692307689
 40
0.8076923076923074
 40
0.8076923076923074
 40
0.8076923076923074
 40
0.8076923076923074
 40
0.8461538461538458
 40
0.8461538461538458
 40
0.8461538461538458
 40
0.8461538461538458
 40
0.8846153846153842
 40
0.8846153846153842
 40
0.8846153846153842
 40
0.8846153846153842
 40
0.9230769230769227
 40
0.9230769230769227
 40
0.9230769230769227
 40
0.9230769230769227
 40
0.9615384615384611
 40
0.9615384615384611
 40
0.9615384615384611
 40
0.9615384615384611
 40
1.0
 40
1.0
 40
1.0
 40
1.0
 10
42.39202
 20
-26.68725
 30
0.0
 10
41.60305
 20
-30.17203
 30
0.0
 10
38.12655
 20
-32.36566
 30
0.0
 10
34.64177
 20
-31.57669
 30
0.0
 10
34.64177
 20
-31.57669
 30
0.0
 10
31.93628
 20
-30.96423
 30
0.0
 10
30.2329
 20
-28.26449
 30
0.0
 10
30.84578
 20
-25.55859
 30
0.0
 10
30.84578
 20
-25.55859
 30
0.0
 10
31.31653
 20
-23.47566
 30
0.0
 10
33.3951
 20
-22.16473
 30
0.0
 10
35.47859
 20
-22.63646
 30
0.0
 10
35.47859
 20
-22.63646
 30
0.0
 10
37.06313
 20
-22.99467
 30
0.0
 10
38.06074
 20
-24.57626
 30
0.0
 10
37.70168
 20
-26.16179
 30
0.0
 10
37.70168
 20
-26.16179
 30
0.0
 10
37.43341
 20
-27.34756
 30
0.0
 10
36.25002
 20
-28.09345
 30
0.0
 10
35.06383
 20
-27.82518
 30
0.0
 10
35.06383
 20
-27.82518
 30
0.0
 10
34.19656
 20
-27.62888
 30
0.0
 10
33.65131
 20
-26.76358
 30
0.0
 10
33.84761
 20
-25.89589
 30
0.0
 10
33.84761
 20
-25.89589
 30
0.0
 10
33.98637
 20
-25.28442
 30
0.0
 10
34.59687
 20
-24.89968
 30
0.0
 10
35.20975
 20
-25.03845
 30
0.0
 10
35.20975
 20
-25.03845
 30
0.0
 10
35.61736
 20
-25.13021
 30
0.0
 10
35.87342
 20
-25.53782
 30
0.0
 10
35.7811
 20
-25.94669
 30
0.0
 10
35.7811
 20
-25.94669
 30
0.0
 10
35.73283
 20
-26.16038
 30
0.0
 10
35.53948
 20
-26.30448
 30
0.0
 10
35.32775
 20
-26.29957
 30
0.0
 10
35.32775
 20
-26.29957
 30
0.0
 10
34.62002
 20
-26.28512
 30
0.0
 10
34.51801
 20
-27.00576
 30
0.0
 10
35.25577
 20
-27.05613
 30
0.0
 10
35.25577
 20
-27.05613
 30
0.0
 10
35.84199
 20
-27.09668
 30
0.0
 10
36.38739
 20
-26.70521
 30
0.0
 10
36.52124
 20
-26.11394
 30
0.0
 10
36.52124
 20
-26.11394
 30
0.0
 10
36.70589
 20
-25.29705
 30
0.0
 10
36.19488
 20
-24.48296
 30
0.0
 10
35.377
 20
-24.29789
 30
0.0
 10
35.377
 20
-24.29789
 30
0.0
 10
34.35511
 20
-24.06679
 30
0.0
 10
33.33813
 20
-24.70633
 30
0.0
 10
33.1076
 20
-25.72822
 30
0.0
 10
33.1076
 20
-25.72822
 30
0.0
 10
32.818
 20
-27.00534
 30
0.0
 10
33.61848
 20
-28.27614
 30
0.0
 10
34.89559
 20
-28.56518
 30
0.0
 10
34.89559
 20
-28.56518
 30
0.0
 10
36.49276
 20
-28.92676
 30
0.0
 10
38.08109
 20
-27.92564
 30
0.0
 10
38.44225
 20
-26.32904
 30
0.0
 10
38.44225
 20
-26.32904
 30
0.0
 10
38.89419
 20
-24.3331
 30
0.0
 10
37.64219
 20
-22.34784
 30
0.0
 10
35.64584
 20
-21.89589
 30
0.0
 10
35.64584
 20
-21.89589
 30
0.0
 10
33.15152
 20
-21.33128
 30
0.0
 10
30.66983
 20
-22.89505
 30
0.0
 10
30.10522
 20
-25.39077
 30
0.0
 10
30.10522
 20
-25.39077
 30
0.0
 10
29.52994
 20
-27.93294
 30
0.0
 10
30.72301
 20
-30.46247
 30
0.0
 10
32.87412
 20
-31.69371
 30
0.0
 10
32.87412
 20
-31.69371
 30
0.0
 10
32.92239
 20
-31.72079
 30
0.0
 10
32.9012
 20
-31.7445
 30
0.0
 10
32.84213
 20
-31.73047
 30
0.0
 10
32.84213
 20
-31.73047
 30
0.0
 10
31.04208
 20
-31.30799
 30
0.0
 10
29.08094
 20
-31.56939
 30
0.0
 10
27.38429
 20
-32.61892
 30
0.0
 10
27.38429
 20
-32.61892
 30
0.0
 10
26.74475
 20
-33.01376
 30
0.0
 10
26.17579
 20
-33.47889
 30
0.0
 10
25.67263
 20
-33.99313
 30
0.0
 10
25.67263
 20
-33.99313
 30
0.0
 10
28.83483
 20
-28.81171
 30
0.0
 10
30.65776
 20
-22.72345
 30
0.0
 10
30.65776
 20
-16.20892
 30
0.0
 10
30.65776
 20
-16.20892
 30
0.0
 10
30.65776
 20
-14.71334
 30
0.0
 10
30.56109
 20
-13.23993
 30
0.0
 10
30.37489
 20
-11.79514
 30
0.0
 10
30.37489
 20
-11.79514
 30
0.0
 10
31.3756
 20
-14.00659
 30
0.0
 10
33.25311
 20
-15.79416
 30
0.0
 10
35.67095
 20
-16.62411
 30
0.0
 10
35.67095
 20
-16.62411
 30
0.0
 10
35.8246
 20
-16.67728
 30
0.0
 10
36.43172
 20
-16.84412
 30
0.0
 10
36.57723
 20
-16.88565
 30
0.0
 10
36.57723
 20
-16.88565
 30
0.0
 10
40.77787
 20
-18.07858
 30
0.0
 10
43.36648
 20
-22.37786
 30
0.0
 10
42.39202
 20
-26.68725
 30
0.0
  0
SPLINE
  5
60
330
1F
100
AcDbEntity
  8
layer 1
 62
   251
100
AcDbSpline
210
0.0
220
0.0
230
1.0
 70
    11
 71
     3
 72
   104
 73
   100
 74
     0
 42
0.0000000001
 43
0.0000000001
 40
0.0
 40
0.0
 40
0.0
 40
0.0
 40
0.04
 40
0.04
 40
0.04
 40
0.04
 40
0.08
 40
0.08
 40
0.08
 40
0.08
 40
0.12
 40
0.12
 40
0.12
 40
0.12
 40
0.16
 40
0.16
 40
0.16
 40
0.16
 40
0.2
 40
0.2
 40
0.2
 40
0.2
 40
0.24
 40
0.24
 40
0.24
 40
0.24
 40
0.28
 40
0.28
 40
0.28
 40
0.28
 40
0.32
 40
0.32
 40
0.32
 40
0.32
 40
0.36
 40
0.36
 40
0.36
 40
0.36
 40
0.4
 40
0.4
 40
0.4
 40
0.4
 40
0.4399999999999999
 40
0.4399999999999999
 40
0.4399999999999999
 40
0.4399999999999999
 40
0.4799999999999999
 40
0.4799999999999999
 40
0.4799999999999999
 40
0.4799999999999999
 40
0.5199999999999999
 40
0.5199999999999999
 40
0.5199999999999999
 40
0.5199999999999999
 40
0.5599999999999999
 40
0.5599999999999999
 40
0.5599999999999999
 40
0.5599999999999999
 40
0.6
 40
0.6
 40
0.6
 40
0.6
 40
0.64
 40
0.64
 40
0.64
 40
0.64
 40
0.68
 40
0.68
 40
0.68
 40
0.68
 40
0.7200000000000001
 40
0.7200000000000001
 40
0.7200000000000001
 40
0.7200000000000001
 40
0.7600000000000001
 40
0.7600000000000001
 40
0.7600000000000001
 40
0.7600000000000001
 40
0.8000000000000002
 40
0.8000000000000002
 40
0.8000000000000002
 40
0.8000000000000002
 40
0.8400000000000002
 40
0.8400000000000002
 40
0.8400000000000002
 40
0.8400000000000002
 40
0.8800000000000002
 40
0.8800000000000002
 40
0.8800000000000002
 40
0.8800000000000002
 40
0.9200000000000003
 40
0.9200000000000003
 40
0.9200000000000003
 40
0.9200000000000003
 40
0.9600000000000003
 40
0.9600000000000003
 40
0.9600000000000003
 40
0.9600000000000003
 40
1.0
 40
1.0
 40
1.0
 40
1.0
 10
23.97107
 20
-44.20375
 30
0.0
 10
24.04067
 20
-44.35023
 30
0.0
 10
24.34767
 20
-44.90124
 30
0.0
 10
24.41965
 20
-45.03327
 30
0.0
 10
24.41965
 20
-45.03327
 30
0.0
 10
26.51071
 20
-48.86644
 30
0.0
 10
25.25689
 20
-53.72697
 30
0.0
 10
21.49808
 20
-56.04955
 30
0.0
 10
21.49808
 20
-56.04955
 30
0.0
 10
18.4595
 20
-57.92804
 30
0.0
 10
14.45893
 20
-56.98403
 30
0.0
 10
12.5796
 20
-53.94544
 30
0.0
 10
12.5796
 20
-53.94544
 30
0.0
 10
11.12162
 20
-51.58554
 30
0.0
 10
11.85447
 20
-48.47876
 30
0.0
 10
14.21479
 20
-47.01994
 30
0.0
 10
14.21479
 20
-47.01994
 30
0.0
 10
16.03098
 20
-45.89703
 30
0.0
 10
18.42316
 20
-46.46122
 30
0.0
 10
19.54607
 20
-48.27868
 30
0.0
 10
19.54607
 20
-48.27868
 30
0.0
 10
20.40071
 20
-49.66074
 30
0.0
 10
19.97107
 20
-51.48016
 30
0.0
 10
18.58802
 20
-52.33424
 30
0.0
 10
18.58802
 20
-52.33424
 30
0.0
 10
17.55407
 20
-52.97378
 30
0.0
 10
16.19234
 20
-52.65191
 30
0.0
 10
15.55238
 20
-51.61795
 30
0.0
 10
15.55238
 20
-51.61795
 30
0.0
 10
15.08542
 20
-50.86139
 30
0.0
 10
15.32087
 20
-49.86616
 30
0.0
 10
16.07729
 20
-49.39822
 30
0.0
 10
16.07729
 20
-49.39822
 30
0.0
 10
16.61103
 20
-49.06849
 30
0.0
 10
17.31385
 20
-49.2349
 30
0.0
 10
17.64401
 20
-49.76892
 30
0.0
 10
17.64401
 20
-49.76892
 30
0.0
 10
17.86387
 20
-50.12476
 30
0.0
 10
17.75275
 20
-50.59269
 30
0.0
 10
17.3965
 20
-50.81312
 30
0.0
 10
17.3965
 20
-50.81312
 30
0.0
 10
17.20988
 20
-50.9286
 30
0.0
 10
16.97163
 20
-50.89142
 30
0.0
 10
16.82655
 20
-50.73722
 30
0.0
 10
16.82655
 20
-50.73722
 30
0.0
 10
16.34121
 20
-50.22241
 30
0.0
 10
15.75541
 20
-50.65401
 30
0.0
 10
16.23584
 20
-51.21568
 30
0.0
 10
16.23584
 20
-51.21568
 30
0.0
 10
16.61819
 20
-51.66285
 30
0.0
 10
17.27906
 20
-51.77748
 30
0.0
 10
17.79526
 20
-51.4594
 30
0.0
 10
17.79526
 20
-51.4594
 30
0.0
 10
18.50776
 20
-51.01854
 30
0.0
 10
18.73016
 20
-50.08322
 30
0.0
 10
18.2893
 20
-49.37016
 30
0.0
 10
18.2893
 20
-49.37016
 30
0.0
 10
17.73872
 20
-48.47876
 30
0.0
 10
16.56992
 20
-48.20179
 30
0.0
 10
15.67852
 20
-48.75237
 30
0.0
 10
15.67852
 20
-48.75237
 30
0.0
 10
14.56431
 20
-49.4413
 30
0.0
 10
14.2183
 20
-50.9025
 30
0.0
 10
14.90653
 20
-52.01672
 30
0.0
 10
14.90653
 20
-52.01672
 30
0.0
 10
15.76804
 20
-53.40931
 30
0.0
 10
17.59518
 20
-53.84105
 30
0.0
 10
18.98735
 20
-52.98066
 30
0.0
 10
18.98735
 20
-52.98066
 30
0.0
 10
20.72847
 20
-51.90461
 30
0.0
 10
21.26797
 20
-49.62062
 30
0.0
 10
20.19192
 20
-47.87851
 30
0.0
 10
20.19192
 20
-47.87851
 30
0.0
 10
18.84662
 20
-45.70326
 30
0.0
 10
15.99226
 20
-45.02794
 30
0.0
 10
13.8156
 20
-46.37367
 30
0.0
 10
13.8156
 20
-46.37367
 30
0.0
 10
11.56978
 20
-47.76149
 30
0.0
 10
10.60486
 20
-50.43555
 30
0.0
 10
11.28214
 20
-52.85732
 30
0.0
 10
11.28214
 20
-52.85732
 30
0.0
 10
11.3001
 20
-52.92215
 30
0.0
 10
11.27835
 20
-52.93898
 30
0.0
 10
11.24538
 20
-52.883
 30
0.0
 10
11.24538
 20
-52.883
 30
0.0
 10
10.27232
 20
-51.20277
 30
0.0
 10
8.63123
 20
-49.91541
 30
0.0
 10
6.58844
 20
-49.45084
 30
0.0
 10
6.58844
 20
-49.45084
 30
0.0
 10
6.14561
 20
-49.35038
 30
0.0
 10
5.70293
 20
-49.28513
 30
0.0
 10
5.26305
 20
-49.25075
 30
0.0
 10
5.26305
 20
-49.25075
 30
0.0
 10
12.80382
 20
-47.25005
 30
0.0
 10
19.32227
 20
-42.73805
 30
0.0
 10
23.8657
 20
-36.66284
 30
0.0
 10
23.8657
 20
-36.66284
 30
0.0
 10
22.83118
 20
-39.0132
 30
0.0
 10
22.80803
 20
-41.76696
 30
0.0
 10
23.97107
 20
-44.20375
 30
0.0
  0
SPLINE
  5
61
330
1F
100
AcDbEntity
  8
layer 1
 62
   251
100
AcDbSpline
210
0.0
220
0.0
230
1.0
 70
    11
 71
     3
 72
    20
 73
    16
 74
     0
 42
0.0000000001
 43
0.0000000001
 40
0.0
 40
0.0
 40
0.0
 40
0.0
 40
0.25
 40
0.25
 40
0.25
 40
0.25
 40
0.5
 40
0.5
 40
0.5
 40
0.5
 40
0.75
 40
0.75
 40
0.75
 40
0.75
 40
1.0
 40
1.0
 40
1.0
 40
1.0
 10
-3.52789
 20
-49.3682
 30
0.0
 10
-21.84051
 20
-49.3682
 30
0.0
 10
-36.68716
 20
-34.52253
 30
0.0
 10
-36.68716
 20
-16.20892
 30
0.0
 10
-36.68716
 20
-16.20892
 30
0.0
 10
-36.68716
 20
2.10468
 30
0.0
 10
-21.84051
 20
16.95091
 30
0.0
 10
-3.52789
 20
16.95091
 30
0.0
 10
-3.52789
 20
16.95091
 30
0.0
 10
14.78572
 20
16.95091
 30
0.0
 10
29.63251
 20
2.10468
 30
0.0
 10
29.63251
 20
-16.20892
 30
0.0
 10
29.63251
 20
-16.20892
 30
0.0
 10
29.63251
 20
-34.52253
 30
0.0
 10
14.78572
 20
-49.3682
 30
0.0
 10
-3.52789
 20
-49.3682
 30
0.0
  0
SPLINE
  5
62
330
1F
100
AcDbEntity
  8
layer 1
 62
   251
100
AcDbSpline
210
0.0
220
0.0
230
1.0
 70
    11
 71
     3
 72
   108
 73
   104
 74
     0
 42
0.0000000001
 43
0.0000000001
 40
0.0
 40
0.0
 40
0.0
 40
0.0
 40
0.0384615384615385
 40
0.0384615384615385
 40
0.0384615384615385
 40
0.0384615384615385
 40
0.0769230769230769
 40
0.0769230769230769
 40
0.0769230769230769
 40
0.0769230769230769
 40
0.1153846153846154
 40
0.1153846153846154
 40
0.1153846153846154
 40
0.1153846153846154
 40
0.1538461538461539
 40
0.1538461538461539
 40
0.1538461538461539
 40
0.1538461538461539
 40
0.1923076923076923
 40
0.1923076923076923
 40
0.1923076923076923
 40
0.1923076923076923
 40
0.2307692307692308
 40
0.2307692307692308
 40
0.2307692307692308
 40
0.2307692307692308
 40
0.2692307692307692
 40
0.2692307692307692
 40
0.2692307692307692
 40
0.2692307692307692
 40
0.3076923076923077
 40
0.3076923076923077
 40
0.3076923076923077
 40
0.3076923076923077
 40
0.3461538461538461
 40
0.3461538461538461
 40
0.3461538461538461
 40
0.3461538461538461
 40
0.3846153846153845
 40
0.3846153846153845
 40
0.3846153846153845
 40
0.3846153846153845
 40
0.423076923076923
 40
0.423076923076923
 40
0.423076923076923
 40
0.423076923076923
 40
0.4615384615384614
 40
0.4615384615384614
 40
0.4615384615384614
 40
0.4615384615384614
 40
0.4999999999999998
 40
0.4999999999999998
 40
0.4999999999999998
 40
0.4999999999999998
 40
0.5384615384615383
 40
0.5384615384615383
 40
0.5384615384615383
 40
0.5384615384615383
 40
0.5769230769230768
 40
0.5769230769230768
 40
0.5769230769230768
 40
0.5769230769230768
 40
0.6153846153846152
 40
0.6153846153846152
 40
0.6153846153846152
 40
0.6153846153846152
 40
0.6538461538461536
 40
0.6538461538461536
 40
0.6538461538461536
 40
0.6538461538461536
 40
0.6923076923076921
 40
0.6923076923076921
 40
0.6923076923076921
 40
0.6923076923076921
 40
0.7307692307692305
 40
0.7307692307692305
 40
0.7307692307692305
 40
0.7307692307692305
 40
0.7692307692307689
 40
0.7692307692307689
 40
0.7692307692307689
 40
0.7692307692307689
 40
0.8076923076923074
 40
0.8076923076923074
 40
0.8076923076923074
 40
0.8076923076923074
 40
0.8461538461538458
 40
0.8461538461538458
 40
0.8461538461538458
 40
0.8461538461538458
 40
0.8846153846153842
 40
0.8846153846153842
 40
0.8846153846153842
 40
0.8846153846153842
 40
0.9230769230769227
 40
0.9230769230769227
 40
0.9230769230769227
 40
0.9230769230769227
 40
0.9615384615384611
 40
0.9615384615384611
 40
0.9615384615384611
 40
0.9615384615384611
 40
1.0
 40
1.0
 40
1.0
 40
1.0
 10
-3.97015
 20
-55.3153
 30
0.0
 10
-4.02291
 20
-55.46852
 30
0.0
 10
-4.19058
 20
-56.07621
 30
0.0
 10
-4.23169
 20
-56.22115
 30
0.0
 10
-4.23169
 20
-56.22115
 30
0.0
 10
-5.42995
 20
-60.4204
 30
0.0
 10
-9.7326
 20
-63.0055
 30
0.0
 10
-14.04101
 20
-62.02472
 30
0.0
 10
-14.04101
 20
-62.02472
 30
0.0
 10
-17.52481
 20
-61.23252
 30
0.0
 10
-19.71451
 20
-57.75307
 30
0.0
 10
-18.92175
 20
-54.26984
 30
0.0
 10
-18.92175
 20
-54.26984
 30
0.0
 10
-18.30648
 20
-51.56379
 30
0.0
 10
-15.60478
 20
-49.8642
 30
0.0
 10
-12.8993
 20
-50.4796
 30
0.0
 10
-12.8993
 20
-50.4796
 30
0.0
 10
-10.81679
 20
-50.95329
 30
0.0
 10
-9.50825
 20
-53.03327
 30
0.0
 10
-9.98208
 20
-55.1162
 30
0.0
 10
-9.98208
 20
-55.1162
 30
0.0
 10
-10.34268
 20
-56.70032
 30
0.0
 10
-11.92525
 20
-57.69597
 30
0.0
 10
-13.50979
 20
-57.33537
 30
0.0
 10
-13.50979
 20
-57.33537
 30
0.0
 10
-14.695
 20
-57.06569
 30
0.0
 10
-15.44048
 20
-55.88188
 30
0.0
 10
-15.17066
 20
-54.6947
 30
0.0
 10
-15.17066
 20
-54.6947
 30
0.0
 10
-14.97352
 20
-53.82898
 30
0.0
 10
-14.10724
 20
-53.28415
 30
0.0
 10
-13.24011
 20
-53.48143
 30
0.0
 10
-13.24011
 20
-53.48143
 30
0.0
 10
-12.62864
 20
-53.62062
 30
0.0
 10
-12.24432
 20
-54.2321
 30
0.0
 10
-12.38351
 20
-54.84456
 30
0.0
 10
-12.38351
 20
-54.84456
 30
0.0
 10
-12.47626
 20
-55.2516
 30
0.0
 10
-12.88428
 20
-55.50781
 30
0.0
 10
-13.29231
 20
-55.41492
 30
0.0
 10
-13.29231
 20
-55.41492
 30
0.0
 10
-13.50586
 20
-55.36665
 30
0.0
 10
-13.64996
 20
-55.17274
 30
0.0
 10
-13.64561
 20
-54.96158
 30
0.0
 10
-13.64561
 20
-54.96158
 30
0.0
 10
-13.62962
 20
-54.25384
 30
0.0
 10
-14.35082
 20
-54.15086
 30
0.0
 10
-14.40217
 20
-54.88805
 30
0.0
 10
-14.40217
 20
-54.88805
 30
0.0
 10
-14.44272
 20
-55.47483
 30
0.0
 10
-14.0521
 20
-56.02065
 30
0.0
 10
-13.46054
 20
-56.15549
 30
0.0
 10
-13.46054
 20
-56.15549
 30
0.0
 10
-12.64351
 20
-56.34112
 30
0.0
 10
-11.82956
 20
-55.83067
 30
0.0
 10
-11.64393
 20
-55.01279
 30
0.0
 10
-11.64393
 20
-55.01279
 30
0.0
 10
-11.41087
 20
-53.99132
 30
0.0
 10
-12.04999
 20
-52.97378
 30
0.0
 10
-13.07132
 20
-52.74129
 30
0.0
 10
-13.07132
 20
-52.74129
 30
0.0
 10
-14.349
 20
-52.45126
 30
0.0
 10
-15.6198
 20
-53.24977
 30
0.0
 10
-15.9108
 20
-54.52689
 30
0.0
 10
-15.9108
 20
-54.52689
 30
0.0
 10
-16.27379
 20
-56.12364
 30
0.0
 10
-15.27463
 20
-57.71294
 30
0.0
 10
-13.67803
 20
-58.07593
 30
0.0
 10
-13.67803
 20
-58.07593
 30
0.0
 10
-11.68265
 20
-58.52984
 30
0.0
 10
-9.69584
 20
-57.28036
 30
0.0
 10
-9.24151
 20
-55.28443
 30
0.0
 10
-9.24151
 20
-55.28443
 30
0.0
 10
-8.67395
 20
-52.79011
 30
0.0
 10
-10.23632
 20
-50.30702
 30
0.0
 10
-12.73106
 20
-49.73946
 30
0.0
 10
-12.73106
 20
-49.73946
 30
0.0
 10
-15.2867
 20
-49.15843
 30
0.0
 10
-17.83125
 20
-50.36455
 30
0.0
 10
-19.05715
 20
-52.53587
 30
0.0
 10
-19.05715
 20
-52.53587
 30
0.0
 10
-19.08956
 20
-52.59199
 30
0.0
 10
-19.10977
 20
-52.55285
 30
0.0
 10
-19.09195
 20
-52.47497
 30
0.0
 10
-19.09195
 20
-52.47497
 30
0.0
 10
-18.6675
 20
-50.67436
 30
0.0
 10
-18.92764
 20
-48.7128
 30
0.0
 10
-19.97465
 20
-47.01461
 30
0.0
 10
-19.97465
 20
-47.01461
 30
0.0
 10
-20.31392
 20
-46.46557
 30
0.0
 10
-20.70357
 20
-45.96662
 30
0.0
 10
-21.1318
 20
-45.51664
 30
0.0
 10
-21.1318
 20
-45.51664
 30
0.0
 10
-15.98952
 20
-48.61276
 30
0.0
 10
-9.96707
 20
-50.39401
 30
0.0
 10
-3.52789
 20
-50.39401
 30
0.0
 10
-3.52789
 20
-50.39401
 30
0.0
 10
-2.12603
 20
-50.39401
 30
0.0
 10
-0.74453
 20
-50.30744
 30
0.0
 10
0.61285
 20
-50.14454
 30
0.0
 10
0.61285
 20
-50.14454
 30
0.0
 10
-1.48313
 20
-51.16881
 30
0.0
 10
-3.16869
 20
-52.9902
 30
0.0
 10
-3.97015
 20
-55.3153
 30
0.0
  0
SPLINE
  5
63
330
1F
100
AcDbEntity
  8
layer 1
 62
   251
100
AcDbSpline
210
0.0
220
0.0
230
1.0
 70
    11
 71
     3
 72
   104
 73
   100
 74
     0
 42
0.0000000001
 43
0.0000000001
 40
0.0
 40
0.0
 40
0.0
 40
0.0
 40
0.04
 40
0.04
 40
0.04
 40
0.04
 40
0.08
 40
0.08
 40
0.08
 40
0.08
 40
0.12
 40
0.12
 40
0.12
 40
0.12
 40
0.16
 40
0.16
 40
0.16
 40
0.16
 40
0.2
 40
0.2
 40
0.2
 40
0.2
 40
0.24
 40
0.24
 40
0.24
 40
0.24
 40
0.28
 40
0.28
 40
0.28
 40
0.28
 40
0.32
 40
0.32
 40
0.32
 40
0.32
 40
0.36
 40
0.36
 40
0.36
 40
0.36
 40
0.4
 40
0.4
 40
0.4
 40
0.4
 40
0.4399999999999999
 40
0.4399999999999999
 40
0.4399999999999999
 40
0.4399999999999999
 40
0.4799999999999999
 40
0.4799999999999999
 40
0.4799999999999999
 40
0.4799999999999999
 40
0.5199999999999999
 40
0.5199999999999999
 40
0.5199999999999999
 40
0.5199999999999999
 40
0.5599999999999999
 40
0.5599999999999999
 40
0.5599999999999999
 40
0.5599999999999999
 40
0.6
 40
0.6
 40
0.6
 40
0.6
 40
0.64
 40
0.64
 40
0.64
 40
0.64
 40
0.68
 40
0.68
 40
0.68
 40
0.68
 40
0.7200000000000001
 40
0.7200000000000001
 40
0.7200000000000001
 40
0.7200000000000001
 40
0.7600000000000001
 40
0.7600000000000001
 40
0.7600000000000001
 40
0.7600000000000001
 40
0.8000000000000002
 40
0.8000000000000002
 40
0.8000000000000002
 40
0.8000000000000002
 40
0.8400000000000002
 40
0.8400000000000002
 40
0.8400000000000002
 40
0.8400000000000002
 40
0.8800000000000002
 40
0.8800000000000002
 40
0.8800000000000002
 40
0.8800000000000002
 40
0.9200000000000003
 40
0.9200000000000003
 40
0.9200000000000003
 40
0.9200000000000003
 40
0.9600000000000003
 40
0.9600000000000003
 40
0.9600000000000003
 40
0.9600000000000003
 40
1.0
 40
1.0
 40
1.0
 40
1.0
 10
-31.55652
 20
-43.59129
 30
0.0
 10
-31.70259
 20
-43.66144
 30
0.0
 10
-32.25359
 20
-43.96732
 30
0.0
 10
-32.38647
 20
-44.03986
 30
0.0
 10
-32.38647
 20
-44.03986
 30
0.0
 10
-36.22118
 20
-46.12714
 30
0.0
 10
-41.08017
 20
-44.86882
 30
0.0
 10
-43.4005
 20
-41.10904
 30
0.0
 10
-43.4005
 20
-41.10904
 30
0.0
 10
-45.27605
 20
-38.06806
 30
0.0
 10
-44.32867
 20
-34.06806
 30
0.0
 10
-41.28755
 20
-32.19252
 30
0.0
 10
-41.28755
 20
-32.19252
 30
0.0
 10
-38.92681
 20
-30.73566
 30
0.0
 10
-35.82003
 20
-31.47188
 30
0.0
 10
-34.36402
 20
-33.8336
 30
0.0
 10
-34.36402
 20
-33.8336
 30
0.0
 10
-33.24265
 20
-35.65064
 30
0.0
 10
-33.80909
 20
-38.04154
 30
0.0
 10
-35.6271
 20
-39.16348
 30
0.0
 10
-35.6271
 20
-39.16348
 30
0.0
 10
-37.01015
 20
-40.01671
 30
0.0
 10
-38.82957
 20
-39.58497
 30
0.0
 10
-39.68225
 20
-38.20206
 30
0.0
 10
-39.68225
 20
-38.20206
 30
0.0
 10
-40.32081
 20
-37.16754
 30
0.0
 10
-39.99795
 20
-35.80582
 30
0.0
 10
-38.96301
 20
-35.16684
 30
0.0
 10
-38.96301
 20
-35.16684
 30
0.0
 10
-38.20603
 20
-34.70031
 30
0.0
 10
-37.21122
 20
-34.93673
 30
0.0
 10
-36.74426
 20
-35.69371
 30
0.0
 10
-36.74426
 20
-35.69371
 30
0.0
 10
-36.41453
 20
-36.22732
 30
0.0
 10
-36.58178
 20
-36.92972
 30
0.0
 10
-37.11651
 20
-37.25945
 30
0.0
 10
-37.11651
 20
-37.25945
 30
0.0
 10
-37.4722
 20
-37.47889
 30
0.0
 10
-37.94014
 20
-37.36763
 30
0.0
 10
-38.16015
 20
-37.01096
 30
0.0
 10
-38.16015
 20
-37.01096
 30
0.0
 10
-38.2752
 20
-36.82434
 30
0.0
 10
-38.23788
 20
-36.58651
 30
0.0
 10
-38.08368
 20
-36.44157
 30
0.0
 10
-38.08368
 20
-36.44157
 30
0.0
 10
-37.56789
 20
-35.95665
 30
0.0
 10
-38.00005
 20
-35.37029
 30
0.0
 10
-38.56186
 20
-35.85086
 30
0.0
 10
-38.56186
 20
-35.85086
 30
0.0
 10
-39.00847
 20
-36.23265
 30
0.0
 10
-39.12451
 20
-36.89352
 30
0.0
 10
-38.80642
 20
-37.4093
 30
0.0
 10
-38.80642
 20
-37.4093
 30
0.0
 10
-38.36655
 20
-38.12278
 30
0.0
 10
-37.43165
 20
-38.34602
 30
0.0
 10
-36.7176
 20
-37.90572
 30
0.0
 10
-36.7176
 20
-37.90572
 30
0.0
 10
-35.82635
 20
-37.35556
 30
0.0
 10
-35.54783
 20
-36.18733
 30
0.0
 10
-36.09799
 20
-35.29537
 30
0.0
 10
-36.09799
 20
-35.29537
 30
0.0
 10
-36.7858
 20
-34.18073
 30
0.0
 10
-38.24658
 20
-33.8336
 30
0.0
 10
-39.36136
 20
-34.52099
 30
0.0
 10
-39.36136
 20
-34.52099
 30
0.0
 10
-40.75437
 20
-35.38054
 30
0.0
 10
-41.18849
 20
-37.20725
 30
0.0
 10
-40.32852
 20
-38.60026
 30
0.0
 10
-40.32852
 20
-38.60026
 30
0.0
 10
-39.25402
 20
-40.34195
 30
0.0
 10
-36.97045
 20
-40.88426
 30
0.0
 10
-35.2289
 20
-39.80975
 30
0.0
 10
-35.2289
 20
-39.80975
 30
0.0
 10
-33.05112
 20
-38.46599
 30
0.0
 10
-32.3744
 20
-35.61247
 30
0.0
 10
-33.71774
 20
-33.43484
 30
0.0
 10
-33.71774
 20
-33.43484
 30
0.0
 10
-35.07905
 20
-31.22773
 30
0.0
 10
-37.68197
 20
-30.25509
 30
0.0
 10
-40.06993
 20
-30.86222
 30
0.0
 10
-40.06993
 20
-30.86222
 30
0.0
 10
-40.14443
 20
-30.8806
 30
0.0
 10
-40.16716
 20
-30.84482
 30
0.0
 10
-40.10529
 20
-30.80427
 30
0.0
 10
-40.10529
 20
-30.80427
 30
0.0
 10
-38.61055
 20
-29.82785
 30
0.0
 10
-37.4722
 20
-28.30027
 30
0.0
 10
-37.02559
 20
-26.42571
 30
0.0
 10
-37.02559
 20
-26.42571
 30
0.0
 10
-36.84487
 20
-25.66831
 30
0.0
 10
-36.76742
 20
-24.90979
 30
0.0
 10
-36.78004
 20
-24.16501
 30
0.0
 10
-36.78004
 20
-24.16501
 30
0.0
 10
-34.92625
 20
-31.94122
 30
0.0
 10
-30.41621
 20
-38.68543
 30
0.0
 10
-24.26131
 20
-43.38727
 30
0.0
 10
-24.26131
 20
-43.38727
 30
0.0
 10
-26.5554
 20
-42.45533
 30
0.0
 10
-29.20336
 20
-42.47132
 30
0.0
 10
-31.55652
 20
-43.59129
 30
0.0
  0
SPLINE
  5
64
330
1F
100
AcDbEntity
  8
layer 1
 62
   251
100
AcDbSpline
210
0.0
220
0.0
230
1.0
 70
    11
 71
     3
 72
   108
 73
   104
 74
     0
 42
0.0000000001
 43
0.0000000001
 40
0.0
 40
0.0
 40
0.0
 40
0.0
 40
0.0384615384615385
 40
0.0384615384615385
 40
0.0384615384615385
 40
0.0384615384615385
 40
0.0769230769230769
 40
0.0769230769230769
 40
0.0769230769230769
 40
0.0769230769230769
 40
0.1153846153846154
 40
0.1153846153846154
 40
0.1153846153846154
 40
0.1153846153846154
 40
0.1538461538461539
 40
0.1538461538461539
 40
0.1538461538461539
 40
0.1538461538461539
 40
0.1923076923076923
 40
0.1923076923076923
 40
0.1923076923076923
 40
0.1923076923076923
 40
0.2307692307692308
 40
0.2307692307692308
 40
0.2307692307692308
 40
0.2307692307692308
 40
0.2692307692307692
 40
0.2692307692307692
 40
0.2692307692307692
 40
0.2692307692307692
 40
0.3076923076923077
 40
0.3076923076923077
 40
0.3076923076923077
 40
0.3076923076923077
 40
0.3461538461538461
 40
0.3461538461538461
 40
0.3461538461538461
 40
0.3461538461538461
 40
0.3846153846153845
 40
0.3846153846153845
 40
0.3846153846153845
 40
0.3846153846153845
 40
0.423076923076923
 40
0.423076923076923
 40
0.423076923076923
 40
0.423076923076923
 40
0.4615384615384614
 40
0.4615384615384614
 40
0.4615384615384614
 40
0.4615384615384614
 40
0.4999999999999998
 40
0.4999999999999998
 40
0.4999999999999998
 40
0.4999999999999998
 40
0.5384615384615383
 40
0.5384615384615383
 40
0.5384615384615383
 40
0.5384615384615383
 40
0.5769230769230768
 40
0.5769230769230768
 40
0.5769230769230768
 40
0.5769230769230768
 40
0.6153846153846152
 40
0.6153846153846152
 40
0.6153846153846152
 40
0.6153846153846152
 40
0.6538461538461536
 40
0.6538461538461536
 40
0.6538461538461536
 40
0.6538461538461536
 40
0.6923076923076921
 40
0.6923076923076921
 40
0.6923076923076921
 40
0.6923076923076921
 40
0.7307692307692305
 40
0.7307692307692305
 40
0.7307692307692305
 40
0.7307692307692305
 40
0.7692307692307689
 40
0.7692307692307689
 40
0.7692307692307689
 40
0.7692307692307689
 40
0.8076923076923074
 40
0.8076923076923074
 40
0.8076923076923074
 40
0.8076923076923074
 40
0.8461538461538458
 40
0.8461538461538458
 40
0.8461538461538458
 40
0.8461538461538458
 40
0.8846153846153842
 40
0.8846153846153842
 40
0.8846153846153842
 40
0.8846153846153842
 40
0.9230769230769227
 40
0.9230769230769227
 40
0.9230769230769227
 40
0.9230769230769227
 40
0.9615384615384611
 40
0.9615384615384611
 40
0.9615384615384611
 40
0.9615384615384611
 40
1.0
 40
1.0
 40
1.0
 40
1.0
 10
-42.77794
 20
-15.80721
 30
0.0
 10
-42.93116
 20
-15.75305
 30
0.0
 10
-43.53675
 20
-15.57907
 30
0.0
 10
-43.68141
 20
-15.53655
 30
0.0
 10
-43.68141
 20
-15.53655
 30
0.0
 10
-47.86746
 20
-14.29367
 30
0.0
 10
-50.40668
 20
-9.9645
 30
0.0
 10
-49.38199
 20
-5.66676
 30
0.0
 10
-49.38199
 20
-5.66676
 30
0.0
 10
-48.55246
 20
-2.19166
 30
0.0
 10
-45.05071
 20
-0.03914
 30
0.0
 10
-41.57519
 20
-0.86712
 30
0.0
 10
-41.57519
 20
-0.86712
 30
0.0
 10
-38.877
 20
-1.51157
 30
0.0
 10
-37.20547
 20
-4.23109
 30
0.0
 10
-37.84922
 20
-6.92984
 30
0.0
 10
-37.84922
 20
-6.92984
 30
0.0
 10
-38.34424
 20
-9.00687
 30
0.0
 10
-40.43825
 20
-10.29367
 30
0.0
 10
-42.51584
 20
-9.79823
 30
0.0
 10
-42.51584
 20
-9.79823
 30
0.0
 10
-44.09659
 20
-9.42121
 30
0.0
 10
-45.07498
 20
-7.8284
 30
0.0
 10
-44.69797
 20
-6.24779
 30
0.0
 10
-44.69797
 20
-6.24779
 30
0.0
 10
-44.41608
 20
-5.06482
 30
0.0
 10
-43.22357
 20
-4.33211
 30
0.0
 10
-42.04018
 20
-4.61484
 30
0.0
 10
-42.04018
 20
-4.61484
 30
0.0
 10
-41.176
 20
-4.82082
 30
0.0
 10
-40.64086
 20
-5.69285
 30
0.0
 10
-40.84725
 20
-6.55759
 30
0.0
 10
-40.84725
 20
-6.55759
 30
0.0
 10
-40.99276
 20
-7.16767
 30
0.0
 10
-41.60816
 20
-7.54511
 30
0.0
 10
-42.21908
 20
-7.3996
 30
0.0
 10
-42.21908
 20
-7.3996
 30
0.0
 10
-42.62514
 20
-7.30195
 30
0.0
 10
-42.877
 20
-6.8921
 30
0.0
 10
-42.77977
 20
-6.48463
 30
0.0
 10
-42.77977
 20
-6.48463
 30
0.0
 10
-42.72911
 20
-6.27192
 30
0.0
 10
-42.53422
 20
-6.12978
 30
0.0
 10
-42.32249
 20
-6.13708
 30
0.0
 10
-42.32249
 20
-6.13708
 30
0.0
 10
-41.61532
 20
-6.15981
 30
0.0
 10
-41.50461
 20
-5.43945
 30
0.0
 10
-42.24139
 20
-5.38052
 30
0.0
 10
-42.24139
 20
-5.38052
 30
0.0
 10
-42.82761
 20
-5.33408
 30
0.0
 10
-43.37735
 20
-5.71839
 30
0.0
 10
-43.51851
 20
-6.30868
 30
0.0
 10
-43.51851
 20
-6.30868
 30
0.0
 10
-43.7127
 20
-7.12361
 30
0.0
 10
-43.21052
 20
-7.94345
 30
0.0
 10
-42.39503
 20
-8.13778
 30
0.0
 10
-42.39503
 20
-8.13778
 30
0.0
 10
-41.37609
 20
-8.38094
 30
0.0
 10
-40.35224
 20
-7.75305
 30
0.0
 10
-40.10865
 20
-6.73397
 30
0.0
 10
-40.10865
 20
-6.73397
 30
0.0
 10
-39.80502
 20
-5.46036
 30
0.0
 10
-40.59006
 20
-4.1803
 30
0.0
 10
-41.86423
 20
-3.87624
 30
0.0
 10
-41.86423
 20
-3.87624
 30
0.0
 10
-43.45663
 20
-3.49628
 30
0.0
 10
-45.0566
 20
-4.4786
 30
0.0
 10
-45.43657
 20
-6.07127
 30
0.0
 10
-45.43657
 20
-6.07127
 30
0.0
 10
-45.91124
 20
-8.06244
 30
0.0
 10
-44.68337
 20
-10.06159
 30
0.0
 10
-42.69179
 20
-10.53641
 30
0.0
 10
-42.69179
 20
-10.53641
 30
0.0
 10
-40.20336
 20
-11.12993
 30
0.0
 10
-37.70428
 20
-9.59464
 30
0.0
 10
-37.11062
 20
-7.10579
 30
0.0
 10
-37.11062
 20
-7.10579
 30
0.0
 10
-36.5098
 20
-4.58678
 30
0.0
 10
-37.65503
 20
-2.06159
 30
0.0
 10
-39.76447
 20
-0.79612
 30
0.0
 10
-39.76447
 20
-0.79612
 30
0.0
 10
-39.81863
 20
-0.76413
 30
0.0
 10
-39.80839
 20
-0.7313
 30
0.0
 10
-39.74805
 20
-0.74491
 30
0.0
 10
-39.74805
 20
-0.74491
 30
0.0
 10
-37.95656
 20
-1.15097
 30
0.0
 10
-36.01043
 20
-0.88017
 30
0.0
 10
-34.32782
 20
0.16726
 30
0.0
 10
-34.32782
 20
0.16726
 30
0.0
 10
-33.81779
 20
0.48436
 30
0.0
 10
-33.35083
 20
0.84496
 30
0.0
 10
-32.92737
 20
1.24036
 30
0.0
 10
-32.92737
 20
1.24036
 30
0.0
 10
-35.96596
 20
-3.86796
 30
0.0
 10
-37.71297
 20
-9.83401
 30
0.0
 10
-37.71297
 20
-16.20892
 30
0.0
 10
-37.71297
 20
-16.20892
 30
0.0
 10
-37.71297
 20
-17.88523
 30
0.0
 10
-37.5902
 20
-19.53319
 30
0.0
 10
-37.35672
 20
-21.14523
 30
0.0
 10
-37.35672
 20
-21.14523
 30
0.0
 10
-38.27085
 20
-18.71868
 30
0.0
 10
-40.21066
 20
-16.72275
 30
0.0
 10
-42.77794
 20
-15.80721
 30
0.0
  0
SPLINE
  5
65
330
1F
100
AcDbEntity
  8
layer 1
 62
   251
100
AcDbSpline
210
0.0
220
0.0
230
1.0
 70
    11
 71
     3
 72
   104
 73
   100
 74
     0
 42
0.0000000001
 43
0.0000000001
 40
0.0
 40
0.0
 40
0.0
 40
0.0
 40
0.04
 40
0.04
 40
0.04
 40
0.04
 40
0.08
 40
0.08
 40
0.08
 40
0.08
 40
0.12
 40
0.12
 40
0.12
 40
0.12
 40
0.16
 40
0.16
 40
0.16
 40
0.16
 40
0.2
 40
0.2
 40
0.2
 40
0.2
 40
0.24
 40
0.24
 40
0.24
 40
0.24
 40
0.28
 40
0.28
 40
0.28
 40
0.28
 40
0.32
 40
0.32
 40
0.32
 40
0.32
 40
0.36
 40
0.36
 40
0.36
 40
0.36
 40
0.4
 40
0.4
 40
0.4
 40
0.4
 40
0.4399999999999999
 40
0.4399999999999999
 40
0.4399999999999999
 40
0.4399999999999999
 40
0.4799999999999999
 40
0.4799999999999999
 40
0.4799999999999999
 40
0.4799999999999999
 40
0.5199999999999999
 40
0.5199999999999999
 40
0.5199999999999999
 40
0.5199999999999999
 40
0.5599999999999999
 40
0.5599999999999999
 40
0.5599999999999999
 40
0.5599999999999999
 40
0.6
 40
0.6
 40
0.6
 40
0.6
 40
0.64
 40
0.64
 40
0.64
 40
0.64
 40
0.68
 40
0.68
 40
0.68
 40
0.68
 40
0.7200000000000001
 40
0.7200000000000001
 40
0.7200000000000001
 40
0.7200000000000001
 40
0.7600000000000001
 40
0.7600000000000001
 40
0.7600000000000001
 40
0.7600000000000001
 40
0.8000000000000002
 40
0.8000000000000002
 40
0.8000000000000002
 40
0.8000000000000002
 40
0.8400000000000002
 40
0.8400000000000002
 40
0.8400000000000002
 40
0.8400000000000002
 40
0.8800000000000002
 40
0.8800000000000002
 40
0.8800000000000002
 40
0.8800000000000002
 40
0.9200000000000003
 40
0.9200000000000003
 40
0.9200000000000003
 40
0.9200000000000003
 40
0.9600000000000003
 40
0.9600000000000003
 40
0.9600000000000003
 40
0.9600000000000003
 40
1.0
 40
1.0
 40
1.0
 40
1.0
 10
-30.9494
 20
11.76233
 30
0.0
 10
-31.01899
 20
11.90825
 30
0.0
 10
-31.3274
 20
12.45785
 30
0.0
 10
-31.39994
 20
12.58988
 30
0.0
 10
-31.39994
 20
12.58988
 30
0.0
 10
-33.50222
 20
16.4173
 30
0.0
 10
-32.26229
 20
21.2812
 30
0.0
 10
-28.5112
 20
23.61486
 30
0.0
 10
-28.5112
 20
23.61486
 30
0.0
 10
-25.47753
 20
25.50205
 30
0.0
 10
-21.47402
 20
24.57011
 30
0.0
 10
-19.58598
 20
21.53643
 30
0.0
 10
-19.58598
 20
21.53643
 30
0.0
 10
-18.12085
 20
19.18088
 30
0.0
 10
-18.84542
 20
16.07171
 30
0.0
 10
-21.20097
 20
14.60602
 30
0.0
 10
-21.20097
 20
14.60602
 30
0.0
 10
-23.01408
 20
13.47735
 30
0.0
 10
-25.40737
 20
14.03565
 30
0.0
 10
-26.53604
 20
15.84974
 30
0.0
 10
-26.53604
 20
15.84974
 30
0.0
 10
-27.3946
 20
17.22886
 30
0.0
 10
-26.97016
 20
19.04941
 30
0.0
 10
-25.58963
 20
19.90825
 30
0.0
 10
-25.58963
 20
19.90825
 30
0.0
 10
-24.55764
 20
20.55032
 30
0.0
 10
-23.19494
 20
20.23265
 30
0.0
 10
-22.55203
 20
19.19968
 30
0.0
 10
-22.55203
 20
19.19968
 30
0.0
 10
-22.08311
 20
18.44565
 30
0.0
 10
-22.31518
 20
17.44929
 30
0.0
 10
-23.07076
 20
16.97953
 30
0.0
 10
-23.07076
 20
16.97953
 30
0.0
 10
-23.60296
 20
16.64741
 30
0.0
 10
-24.30578
 20
16.8127
 30
0.0
 10
-24.6379
 20
17.34546
 30
0.0
 10
-24.6379
 20
17.34546
 30
0.0
 10
-24.85875
 20
17.70073
 30
0.0
 10
-24.74847
 20
18.16909
 30
0.0
 10
-24.39278
 20
18.3905
 30
0.0
 10
-24.39278
 20
18.3905
 30
0.0
 10
-24.20715
 20
18.50598
 30
0.0
 10
-23.9689
 20
18.4702
 30
0.0
 10
-23.82339
 20
18.316
 30
0.0
 10
-23.82339
 20
18.316
 30
0.0
 10
-23.33651
 20
17.80274
 30
0.0
 10
-22.75169
 20
18.23672
 30
0.0
 10
-23.23451
 20
18.79656
 30
0.0
 10
-23.23451
 20
18.79656
 30
0.0
 10
-23.61784
 20
19.24219
 30
0.0
 10
-24.27912
 20
19.35529
 30
0.0
 10
-24.79393
 20
19.03481
 30
0.0
 10
-24.79393
 20
19.03481
 30
0.0
 10
-25.50545
 20
18.59199
 30
0.0
 10
-25.72504
 20
17.65667
 30
0.0
 10
-25.28221
 20
16.94473
 30
0.0
 10
-25.28221
 20
16.94473
 30
0.0
 10
-24.72924
 20
16.05474
 30
0.0
 10
-23.55947
 20
15.78169
 30
0.0
 10
-22.67003
 20
16.33508
 30
0.0
 10
-22.67003
 20
16.33508
 30
0.0
 10
-21.55764
 20
17.02682
 30
0.0
 10
-21.21598
 20
18.48858
 30
0.0
 10
-21.90772
 20
19.60083
 30
0.0
 10
-21.90772
 20
19.60083
 30
0.0
 10
-22.77246
 20
20.99118
 30
0.0
 10
-24.60058
 20
21.41801
 30
0.0
 10
-25.99079
 20
20.55313
 30
0.0
 10
-25.99079
 20
20.55313
 30
0.0
 10
-27.72854
 20
19.47132
 30
0.0
 10
-28.26173
 20
17.18635
 30
0.0
 10
-27.18091
 20
15.44817
 30
0.0
 10
-27.18091
 20
15.44817
 30
0.0
 10
-25.82943
 20
13.27629
 30
0.0
 10
-22.97254
 20
12.61009
 30
0.0
 10
-20.80024
 20
13.96115
 30
0.0
 10
-20.80024
 20
13.96115
 30
0.0
 10
-18.59595
 20
15.33255
 30
0.0
 10
-17.63411
 20
17.94333
 30
0.0
 10
-18.25274
 20
20.32989
 30
0.0
 10
-18.25274
 20
20.32989
 30
0.0
 10
-18.27014
 20
20.3971
 30
0.0
 10
-18.23338
 20
20.40383
 30
0.0
 10
-18.19381
 20
20.34196
 30
0.0
 10
-18.19381
 20
20.34196
 30
0.0
 10
-17.2077
 20
18.77482
 30
0.0
 10
-15.62555
 20
17.58231
 30
0.0
 10
-13.67746
 20
17.13906
 30
0.0
 10
-13.67746
 20
17.13906
 30
0.0
 10
-13.11538
 20
17.01096
 30
0.0
 10
-12.55455
 20
16.93884
 30
0.0
 10
-11.99878
 20
16.91765
 30
0.0
 10
-11.99878
 20
16.91765
 30
0.0
 10
-19.54249
 20
14.99426
 30
0.0
 10
-26.08171
 20
10.56112
 30
0.0
 10
-30.67874
 20
4.56182
 30
0.0
 10
-30.67874
 20
4.56182
 30
0.0
 10
-29.79309
 20
6.83655
 30
0.0
 10
-29.83476
 20
9.44494
 30
0.0
 10
-30.9494
 20
11.76233
 30
0.0
  0
SPLINE
  5
66
330
1F
100
AcDbEntity
  8
layer 1
 62
   251
100
AcDbSpline
210
0.0
220
0.0
230
1.0
 70
    11
 71
     3
 72
   108
 73
   104
 74
     0
 42
0.0000000001
 43
0.0000000001
 40
0.0
 40
0.0
 40
0.0
 40
0.0
 40
0.0384615384615385
 40
0.0384615384615385
 40
0.0384615384615385
 40
0.0384615384615385
 40
0.0769230769230769
 40
0.0769230769230769
 40
0.0769230769230769
 40
0.0769230769230769
 40
0.1153846153846154
 40
0.1153846153846154
 40
0.1153846153846154
 40
0.1153846153846154
 40
0.1538461538461539
 40
0.1538461538461539
 40
0.1538461538461539
 40
0.1538461538461539
 40
0.1923076923076923
 40
0.1923076923076923
 40
0.1923076923076923
 40
0.1923076923076923
 40
0.2307692307692308
 40
0.2307692307692308
 40
0.2307692307692308
 40
0.2307692307692308
 40
0.2692307692307692
 40
0.2692307692307692
 40
0.2692307692307692
 40
0.2692307692307692
 40
0.3076923076923077
 40
0.3076923076923077
 40
0.3076923076923077
 40
0.3076923076923077
 40
0.3461538461538461
 40
0.3461538461538461
 40
0.3461538461538461
 40
0.3461538461538461
 40
0.3846153846153845
 40
0.3846153846153845
 40
0.3846153846153845
 40
0.3846153846153845
 40
0.423076923076923
 40
0.423076923076923
 40
0.423076923076923
 40
0.423076923076923
 40
0.4615384615384614
 40
0.4615384615384614
 40
0.4615384615384614
 40
0.4615384615384614
 40
0.4999999999999998
 40
0.4999999999999998
 40
0.4999999999999998
 40
0.4999999999999998
 40
0.5384615384615383
 40
0.5384615384615383
 40
0.5384615384615383
 40
0.5384615384615383
 40
0.5769230769230768
 40
0.5769230769230768
 40
0.5769230769230768
 40
0.5769230769230768
 40
0.6153846153846152
 40
0.6153846153846152
 40
0.6153846153846152
 40
0.6153846153846152
 40
0.6538461538461536
 40
0.6538461538461536
 40
0.6538461538461536
 40
0.6538461538461536
 40
0.6923076923076921
 40
0.6923076923076921
 40
0.6923076923076921
 40
0.6923076923076921
 40
0.7307692307692305
 40
0.7307692307692305
 40
0.7307692307692305
 40
0.7307692307692305
 40
0.7692307692307689
 40
0.7692307692307689
 40
0.7692307692307689
 40
0.7692307692307689
 40
0.8076923076923074
 40
0.8076923076923074
 40
0.8076923076923074
 40
0.8076923076923074
 40
0.8461538461538458
 40
0.8461538461538458
 40
0.8461538461538458
 40
0.8461538461538458
 40
0.8846153846153842
 40
0.8846153846153842
 40
0.8846153846153842
 40
0.8846153846153842
 40
0.9230769230769227
 40
0.9230769230769227
 40
0.9230769230769227
 40
0.9230769230769227
 40
0.9615384615384611
 40
0.9615384615384611
 40
0.9615384615384611
 40
0.9615384615384611
 40
1.0
 40
1.0
 40
1.0
 40
1.0
 10
-3.1179
 20
23.00002
 30
0.0
 10
-3.06472
 20
23.15324
 30
0.0
 10
-2.89648
 20
23.76037
 30
0.0
 10
-2.85551
 20
23.90545
 30
0.0
 10
-2.85551
 20
23.90545
 30
0.0
 10
-1.65613
 20
28.10413
 30
0.0
 10
2.64694
 20
30.68783
 30
0.0
 10
6.95493
 20
29.70663
 30
0.0
 10
6.95493
 20
29.70663
 30
0.0
 10
10.43859
 20
28.91289
 30
0.0
 10
12.62688
 20
25.43246
 30
0.0
 10
11.83314
 20
21.94923
 30
0.0
 10
11.83314
 20
21.94923
 30
0.0
 10
11.21731
 20
19.24416
 30
0.0
 10
8.51519
 20
17.54456
 30
0.0
 10
5.80929
 20
18.16137
 30
0.0
 10
5.80929
 20
18.16137
 30
0.0
 10
3.72776
 20
18.63563
 30
0.0
 10
2.41922
 20
20.71603
 30
0.0
 10
2.89389
 20
22.79853
 30
0.0
 10
2.89389
 20
22.79853
 30
0.0
 10
3.25505
 20
24.38251
 30
0.0
 10
4.83763
 20
25.3783
 30
0.0
 10
6.42217
 20
25.01672
 30
0.0
 10
6.42217
 20
25.01672
 30
0.0
 10
7.60738
 20
24.74704
 30
0.0
 10
8.35285
 20
23.56225
 30
0.0
 10
8.08219
 20
22.37605
 30
0.0
 10
8.08219
 20
22.37605
 30
0.0
 10
7.88492
 20
21.50977
 30
0.0
 10
7.01863
 20
20.9655
 30
0.0
 10
6.15151
 20
21.1632
 30
0.0
 10
6.15151
 20
21.1632
 30
0.0
 10
5.54003
 20
21.30239
 30
0.0
 10
5.15614
 20
21.91387
 30
0.0
 10
5.29547
 20
22.52633
 30
0.0
 10
5.29547
 20
22.52633
 30
0.0
 10
5.38821
 20
22.93337
 30
0.0
 10
5.79624
 20
23.18958
 30
0.0
 10
6.20468
 20
23.09669
 30
0.0
 10
6.20468
 20
23.09669
 30
0.0
 10
6.41838
 20
23.04786
 30
0.0
 10
6.56234
 20
22.85409
 30
0.0
 10
6.55757
 20
22.64279
 30
0.0
 10
6.55757
 20
22.64279
 30
0.0
 10
6.54199
 20
21.93519
 30
0.0
 10
7.26277
 20
21.83178
 30
0.0
 10
7.31357
 20
22.5694
 30
0.0
 10
7.31357
 20
22.5694
 30
0.0
 10
7.3551
 20
23.15576
 30
0.0
 10
6.96447
 20
23.70144
 30
0.0
 10
6.37334
 20
23.83628
 30
0.0
 10
6.37334
 20
23.83628
 30
0.0
 10
5.55588
 20
24.02247
 30
0.0
 10
4.74138
 20
23.51202
 30
0.0
 10
4.55532
 20
22.69456
 30
0.0
 10
4.55532
 20
22.69456
 30
0.0
 10
4.32325
 20
21.67323
 30
0.0
 10
4.9604
 20
20.65611
 30
0.0
 10
5.98271
 20
20.42264
 30
0.0
 10
5.98271
 20
20.42264
 30
0.0
 10
7.25941
 20
20.13261
 30
0.0
 10
8.53119
 20
20.93014
 30
0.0
 10
8.82262
 20
22.20726
 30
0.0
 10
8.82262
 20
22.20726
 30
0.0
 10
9.18574
 20
23.80344
 30
0.0
 10
8.18757
 20
25.39373
 30
0.0
 10
6.59138
 20
25.75686
 30
0.0
 10
6.59138
 20
25.75686
 30
0.0
 10
4.59545
 20
26.21175
 30
0.0
 10
2.60878
 20
24.96312
 30
0.0
 10
2.15389
 20
22.96719
 30
0.0
 10
2.15389
 20
22.96719
 30
0.0
 10
1.58535
 20
20.47343
 30
0.0
 10
3.14673
 20
17.98921
 30
0.0
 10
5.64105
 20
17.42081
 30
0.0
 10
5.64105
 20
17.42081
 30
0.0
 10
8.18364
 20
16.84217
 30
0.0
 10
10.71472
 20
18.03327
 30
0.0
 10
11.9482
 20
20.18242
 30
0.0
 10
11.9482
 20
20.18242
 30
0.0
 10
11.9691
 20
20.2182
 30
0.0
 10
11.983
 20
20.19252
 30
0.0
 10
11.97149
 20
20.1437
 30
0.0
 10
11.97149
 20
20.1437
 30
0.0
 10
11.52768
 20
18.31263
 30
0.0
 10
11.79259
 20
16.31193
 30
0.0
 10
12.87439
 20
14.5896
 30
0.0
 10
12.87439
 20
14.5896
 30
0.0
 10
13.20609
 20
14.06077
 30
0.0
 10
13.58591
 20
13.5788
 30
0.0
 10
14.00124
 20
13.14383
 30
0.0
 10
14.00124
 20
13.14383
 30
0.0
 10
8.87537
 20
16.21132
 30
0.0
 10
2.88042
 20
17.97672
 30
0.0
 10
-3.52789
 20
17.97672
 30
0.0
 10
-3.52789
 20
17.97672
 30
0.0
 10
-5.04957
 20
17.97672
 30
0.0
 10
-6.54809
 20
17.87612
 30
0.0
 10
-8.01758
 20
17.68277
 30
0.0
 10
-8.01758
 20
17.68277
 30
0.0
 10
-5.77554
 20
18.67421
 30
0.0
 10
-3.95949
 20
20.56042
 30
0.0
 10
-3.1179
 20
23.00002
 30
0.0
  0
SPLINE
  5
67
330
1F
100
AcDbEntity
  8
layer 1
 62
   251
100
AcDbSpline
210
0.0
220
0.0
230
1.0
 70
    11
 71
     3
 72
   104
 73
   100
 74
     0
 42
0.0000000001
 43
0.0000000001
 40
0.0
 40
0.0
 40
0.0
 40
0.0
 40
0.04
 40
0.04
 40
0.04
 40
0.04
 40
0.08
 40
0.08
 40
0.08
 40
0.08
 40
0.12
 40
0.12
 40
0.12
 40
0.12
 40
0.16
 40
0.16
 40
0.16
 40
0.16
 40
0.2
 40
0.2
 40
0.2
 40
0.2
 40
0.24
 40
0.24
 40
0.24
 40
0.24
 40
0.28
 40
0.28
 40
0.28
 40
0.28
 40
0.32
 40
0.32
 40
0.32
 40
0.32
 40
0.36
 40
0.36
 40
0.36
 40
0.36
 40
0.4
 40
0.4
 40
0.4
 40
0.4
 40
0.4399999999999999
 40
0.4399999999999999
 40
0.4399999999999999
 40
0.4399999999999999
 40
0.4799999999999999
 40
0.4799999999999999
 40
0.4799999999999999
 40
0.4799999999999999
 40
0.5199999999999999
 40
0.5199999999999999
 40
0.5199999999999999
 40
0.5199999999999999
 40
0.5599999999999999
 40
0.5599999999999999
 40
0.5599999999999999
 40
0.5599999999999999
 40
0.6
 40
0.6
 40
0.6
 40
0.6
 40
0.64
 40
0.64
 40
0.64
 40
0.64
 40
0.68
 40
0.68
 40
0.68
 40
0.68
 40
0.7200000000000001
 40
0.7200000000000001
 40
0.7200000000000001
 40
0.7200000000000001
 40
0.7600000000000001
 40
0.7600000000000001
 40
0.7600000000000001
 40
0.7600000000000001
 40
0.8000000000000002
 40
0.8000000000000002
 40
0.8000000000000002
 40
0.8000000000000002
 40
0.8400000000000002
 40
0.8400000000000002
 40
0.8400000000000002
 40
0.8400000000000002
 40
0.8800000000000002
 40
0.8800000000000002
 40
0.8800000000000002
 40
0.8800000000000002
 40
0.9200000000000003
 40
0.9200000000000003
 40
0.9200000000000003
 40
0.9200000000000003
 40
0.9600000000000003
 40
0.9600000000000003
 40
0.9600000000000003
 40
0.9600000000000003
 40
1.0
 40
1.0
 40
1.0
 40
1.0
 10
24.48251
 20
11.25762
 30
0.0
 10
24.62801
 20
11.32876
 30
0.0
 10
25.17663
 20
11.63857
 30
0.0
 10
25.30909
 20
11.71195
 30
0.0
 10
25.30909
 20
11.71195
 30
0.0
 10
29.12738
 20
13.82968
 30
0.0
 10
33.99648
 20
12.60925
 30
0.0
 10
36.34571
 20
8.86728
 30
0.0
 10
36.34571
 20
8.86728
 30
0.0
 10
38.24455
 20
5.84132
 30
0.0
 10
37.32845
 20
1.83402
 30
0.0
 10
34.30193
 20
-0.06622
 30
0.0
 10
34.30193
 20
-0.06622
 30
0.0
 10
31.9527
 20
-1.54047
 30
0.0
 10
28.84073
 20
-0.82853
 30
0.0
 10
27.36591
 20
1.52028
 30
0.0
 10
27.36591
 20
1.52028
 30
0.0
 10
26.23037
 20
3.33016
 30
0.0
 10
26.77801
 20
5.72528
 30
0.0
 10
28.58733
 20
6.86124
 30
0.0
 10
28.58733
 20
6.86124
 30
0.0
 10
29.96308
 20
7.72458
 30
0.0
 10
31.78643
 20
7.30785
 30
0.0
 10
32.64977
 20
5.93126
 30
0.0
 10
32.64977
 20
5.93126
 30
0.0
 10
33.2966
 20
4.90165
 30
0.0
 10
32.98427
 20
3.5374
 30
0.0
 10
31.95466
 20
2.89071
 30
0.0
 10
31.95466
 20
2.89071
 30
0.0
 10
31.20161
 20
2.418
 30
0.0
 10
30.20428
 20
2.64713
 30
0.0
 10
29.73115
 20
3.40018
 30
0.0
 10
29.73115
 20
3.40018
 30
0.0
 10
29.39805
 20
3.93098
 30
0.0
 10
29.55996
 20
4.63478
 30
0.0
 10
30.09175
 20
4.96872
 30
0.0
 10
30.09175
 20
4.96872
 30
0.0
 10
30.44505
 20
5.19069
 30
0.0
 10
30.91439
 20
5.08335
 30
0.0
 10
31.13777
 20
4.72809
 30
0.0
 10
31.13777
 20
4.72809
 30
0.0
 10
31.25381
 20
4.54287
 30
0.0
 10
31.21803
 20
4.30463
 30
0.0
 10
31.06523
 20
4.15772
 30
0.0
 10
31.06523
 20
4.15772
 30
0.0
 10
30.55337
 20
3.66944
 30
0.0
 10
30.98932
 20
3.08644
 30
0.0
 10
31.54762
 20
3.5708
 30
0.0
 10
31.54762
 20
3.5708
 30
0.0
 10
31.99142
 20
3.95651
 30
0.0
 10
32.10255
 20
4.6178
 30
0.0
 10
31.77969
 20
5.13218
 30
0.0
 10
31.77969
 20
5.13218
 30
0.0
 10
31.33406
 20
5.84174
 30
0.0
 10
30.39819
 20
6.05782
 30
0.0
 10
29.68765
 20
5.61163
 30
0.0
 10
29.68765
 20
5.61163
 30
0.0
 10
28.80102
 20
5.05431
 30
0.0
 10
28.53134
 20
3.88355
 30
0.0
 10
29.08866
 20
2.99608
 30
0.0
 10
29.08866
 20
2.99608
 30
0.0
 10
29.78474
 20
1.8872
 30
0.0
 10
31.24791
 20
1.55129
 30
0.0
 10
32.35778
 20
2.24738
 30
0.0
 10
32.35778
 20
2.24738
 30
0.0
 10
33.7442
 20
3.11843
 30
0.0
 10
34.16373
 20
4.94795
 30
0.0
 10
33.29366
 20
6.33479
 30
0.0
 10
33.29366
 20
6.33479
 30
0.0
 10
32.20512
 20
8.0682
 30
0.0
 10
29.91762
 20
8.59227
 30
0.0
 10
28.18421
 20
7.50359
 30
0.0
 10
28.18421
 20
7.50359
 30
0.0
 10
26.01724
 20
6.14383
 30
0.0
 10
25.36226
 20
3.28414
 30
0.0
 10
26.72244
 20
1.11759
 30
0.0
 10
26.72244
 20
1.11759
 30
0.0
 10
28.1069
 20
-1.08657
 30
0.0
 10
30.73072
 20
-2.03942
 30
0.0
 10
33.12065
 20
-1.40086
 30
0.0
 10
33.12065
 20
-1.40086
 30
0.0
 10
33.20568
 20
-1.37757
 30
0.0
 10
33.2395
 20
-1.40185
 30
0.0
 10
33.17383
 20
-1.44141
 30
0.0
 10
33.17383
 20
-1.44141
 30
0.0
 10
31.51871
 20
-2.42023
 30
0.0
 10
30.2531
 20
-4.04981
 30
0.0
 10
29.79541
 20
-6.07366
 30
0.0
 10
29.79541
 20
-6.07366
 30
0.0
 10
29.6746
 20
-6.60642
 30
0.0
 10
29.60641
 20
-7.13862
 30
0.0
 10
29.58213
 20
-7.66648
 30
0.0
 10
29.58213
 20
-7.66648
 30
0.0
 10
27.63896
 20
-0.11449
 30
0.0
 10
23.1793
 20
6.42515
 30
0.0
 10
17.15235
 20
11.01208
 30
0.0
 10
17.15235
 20
11.01208
 30
0.0
 10
19.46202
 20
10.08209
 30
0.0
 10
22.12542
 20
10.11198
 30
0.0
 10
24.48251
 20
11.25762
 30
0.0
  0
SPLINE
  5
68
330
1F
100
AcDbEntity
  8
layer 1
 62
   251
100
AcDbSpline
210
0.0
220
0.0
230
1.0
 70
    11
 71
     3
 72
   772
 73
   768
 74
     0
 42
0.0000000001
 43
0.0000000001
 40
0.0
 40
0.0
 40
0.0
 40
0.0
 40
0.0052083333333333
 40
0.0052083333333333
 40
0.0052083333333333
 40
0.0052083333333333
 40
0.0104166666666667
 40
0.0104166666666667
 40
0.0104166666666667
 40
0.0104166666666667
 40
0.015625
 40
0.015625
 40
0.015625
 40
0.015625
 40
0.0208333333333333
 40
0.0208333333333333
 40
0.0208333333333333
 40
0.0208333333333333
 40
0.0260416666666667
 40
0.0260416666666667
 40
0.0260416666666667
 40
0.0260416666666667
 40
0.03125
 40
0.03125
 40
0.03125
 40
0.03125
 40
0.0364583333333333
 40
0.0364583333333333
 40
0.0364583333333333
 40
0.0364583333333333
 40
0.0416666666666667
 40
0.0416666666666667
 40
0.0416666666666667
 40
0.0416666666666667
 40
0.046875
 40
0.046875
 40
0.046875
 40
0.046875
 40
0.0520833333333333
 40
0.0520833333333333
 40
0.0520833333333333
 40
0.0520833333333333
 40
0.0572916666666667
 40
0.0572916666666667
 40
0.0572916666666667
 40
0.0572916666666667
 40
0.0625
 40
0.0625
 40
0.0625
 40
0.0625
 40
0.0677083333333333
 40
0.0677083333333333
 40
0.0677083333333333
 40
0.0677083333333333
 40
0.0729166666666667
 40
0.0729166666666667
 40
0.0729166666666667
 40
0.0729166666666667
 40
0.078125
 40
0.078125
 40
0.078125
 40
0.078125
 40
0.0833333333333333
 40
0.0833333333333333
 40
0.0833333333333333
 40
0.0833333333333333
 40
0.0885416666666666
 40
0.0885416666666666
 40
0.0885416666666666
 40
0.0885416666666666
 40
0.09375
 40
0.09375
 40
0.09375
 40
0.09375
 40
0.0989583333333333
 40
0.0989583333333333
 40
0.0989583333333333
 40
0.0989583333333333
 40
0.1041666666666666
 40
0.1041666666666666
 40
0.1041666666666666
 40
0.1041666666666666
 40
0.109375
 40
0.109375
 40
0.109375
 40
0.109375
 40
0.1145833333333333
 40
0.1145833333333333
 40
0.1145833333333333
 40
0.1145833333333333
 40
0.1197916666666666
 40
0.1197916666666666
 40
0.1197916666666666
 40
0.1197916666666666
 40
0.1249999999999999
 40
0.1249999999999999
 40
0.1249999999999999
 40
0.1249999999999999
 40
0.1302083333333333
 40
0.1302083333333333
 40
0.1302083333333333
 40
0.1302083333333333
 40
0.1354166666666666
 40
0.1354166666666666
 40
0.1354166666666666
 40
0.1354166666666666
 40
0.140625
 40
0.140625
 40
0.140625
 40
0.140625
 40
0.1458333333333333
 40
0.1458333333333333
 40
0.1458333333333333
 40
0.1458333333333333
 40
0.1510416666666667
 40
0.1510416666666667
 40
0.1510416666666667
 40
0.1510416666666667
 40
0.15625
 40
0.15625
 40
0.15625
 40
0.15625
 40
0.1614583333333333
 40
0.1614583333333333
 40
0.1614583333333333
 40
0.1614583333333333
 40
0.1666666666666667
 40
0.1666666666666667
 40
0.1666666666666667
 40
0.1666666666666667
 40
0.171875
 40
0.171875
 40
0.171875
 40
0.171875
 40
0.1770833333333334
 40
0.1770833333333334
 40
0.1770833333333334
 40
0.1770833333333334
 40
0.1822916666666667
 40
0.1822916666666667
 40
0.1822916666666667
 40
0.1822916666666667
 40
0.1875000000000001
 40
0.1875000000000001
 40
0.1875000000000001
 40
0.1875000000000001
 40
0.1927083333333334
 40
0.1927083333333334
 40
0.1927083333333334
 40
0.1927083333333334
 40
0.1979166666666667
 40
0.1979166666666667
 40
0.1979166666666667
 40
0.1979166666666667
 40
0.2031250000000001
 40
0.2031250000000001
 40
0.2031250000000001
 40
0.2031250000000001
 40
0.2083333333333334
 40
0.2083333333333334
 40
0.2083333333333334
 40
0.2083333333333334
 40
0.2135416666666668
 40
0.2135416666666668
 40
0.2135416666666668
 40
0.2135416666666668
 40
0.2187500000000001
 40
0.2187500000000001
 40
0.2187500000000001
 40
0.2187500000000001
 40
0.2239583333333335
 40
0.2239583333333335
 40
0.2239583333333335
 40
0.2239583333333335
 40
0.2291666666666668
 40
0.2291666666666668
 40
0.2291666666666668
 40
0.2291666666666668
 40
0.2343750000000001
 40
0.2343750000000001
 40
0.2343750000000001
 40
0.2343750000000001
 40
0.2395833333333335
 40
0.2395833333333335
 40
0.2395833333333335
 40
0.2395833333333335
 40
0.2447916666666668
 40
0.2447916666666668
 40
0.2447916666666668
 40
0.2447916666666668
 40
0.2500000000000002
 40
0.2500000000000002
 40
0.2500000000000002
 40
0.2500000000000002
 40
0.2552083333333335
 40
0.2552083333333335
 40
0.2552083333333335
 40
0.2552083333333335
 40
0.2604166666666668
 40
0.2604166666666668
 40
0.2604166666666668
 40
0.2604166666666668
 40
0.2656250000000001
 40
0.2656250000000001
 40
0.2656250000000001
 40
0.2656250000000001
 40
0.2708333333333334
 40
0.2708333333333334
 40
0.2708333333333334
 40
0.2708333333333334
 40
0.2760416666666667
 40
0.2760416666666667
 40
0.2760416666666667
 40
0.2760416666666667
 40
0.2812500000000001
 40
0.2812500000000001
 40
0.2812500000000001
 40
0.2812500000000001
 40
0.2864583333333334
 40
0.2864583333333334
 40
0.2864583333333334
 40
0.2864583333333334
 40
0.2916666666666667
 40
0.2916666666666667
 40
0.2916666666666667
 40
0.2916666666666667
 40
0.296875
 40
0.296875
 40
0.296875
 40
0.296875
 40
0.3020833333333333
 40
0.3020833333333333
 40
0.3020833333333333
 40
0.3020833333333333
 40
0.3072916666666666
 40
0.3072916666666666
 40
0.3072916666666666
 40
0.3072916666666666
 40
0.3124999999999999
 40
0.3124999999999999
 40
0.3124999999999999
 40
0.3124999999999999
 40
0.3177083333333333
 40
0.3177083333333333
 40
0.3177083333333333
 40
0.3177083333333333
 40
0.3229166666666666
 40
0.3229166666666666
 40
0.3229166666666666
 40
0.3229166666666666
 40
0.3281249999999999
 40
0.3281249999999999
 40
0.3281249999999999
 40
0.3281249999999999
 40
0.3333333333333332
 40
0.3333333333333332
 40
0.3333333333333332
 40
0.3333333333333332
 40
0.3385416666666665
 40
0.3385416666666665
 40
0.3385416666666665
 40
0.3385416666666665
 40
0.3437499999999998
 40
0.3437499999999998
 40
0.3437499999999998
 40
0.3437499999999998
 40
0.3489583333333331
 40
0.3489583333333331
 40
0.3489583333333331
 40
0.3489583333333331
 40
0.3541666666666665
 40
0.3541666666666665
 40
0.3541666666666665
 40
0.3541666666666665
 40
0.3593749999999998
 40
0.3593749999999998
 40
0.3593749999999998
 40
0.3593749999999998
 40
0.3645833333333331
 40
0.3645833333333331
 40
0.3645833333333331
 40
0.3645833333333331
 40
0.3697916666666664
 40
0.3697916666666664
 40
0.3697916666666664
 40
0.3697916666666664
 40
0.3749999999999997
 40
0.3749999999999997
 40
0.3749999999999997
 40
0.3749999999999997
 40
0.380208333333333
 40
0.380208333333333
 40
0.380208333333333
 40
0.380208333333333
 40
0.3854166666666664
 40
0.3854166666666664
 40
0.3854166666666664
 40
0.3854166666666664
 40
0.3906249999999997
 40
0.3906249999999997
 40
0.3906249999999997
 40
0.3906249999999997
 40
0.395833333333333
 40
0.395833333333333
 40
0.395833333333333
 40
0.395833333333333
 40
0.4010416666666663
 40
0.4010416666666663
 40
0.4010416666666663
 40
0.4010416666666663
 40
0.4062499999999996
 40
0.4062499999999996
 40
0.4062499999999996
 40
0.4062499999999996
 40
0.4114583333333329
 40
0.4114583333333329
 40
0.4114583333333329
 40
0.4114583333333329
 40
0.4166666666666662
 40
0.4166666666666662
 40
0.4166666666666662
 40
0.4166666666666662
 40
0.4218749999999996
 40
0.4218749999999996
 40
0.4218749999999996
 40
0.4218749999999996
 40
0.4270833333333329
 40
0.4270833333333329
 40
0.4270833333333329
 40
0.4270833333333329
 40
0.4322916666666662
 40
0.4322916666666662
 40
0.4322916666666662
 40
0.4322916666666662
 40
0.4374999999999995
 40
0.4374999999999995
 40
0.4374999999999995
 40
0.4374999999999995
 40
0.4427083333333328
 40
0.4427083333333328
 40
0.4427083333333328
 40
0.4427083333333328
 40
0.4479166666666661
 40
0.4479166666666661
 40
0.4479166666666661
 40
0.4479166666666661
 40
0.4531249999999994
 40
0.4531249999999994
 40
0.4531249999999994
 40
0.4531249999999994
 40
0.4583333333333328
 40
0.4583333333333328
 40
0.4583333333333328
 40
0.4583333333333328
 40
0.4635416666666661
 40
0.4635416666666661
 40
0.4635416666666661
 40
0.4635416666666661
 40
0.4687499999999994
 40
0.4687499999999994
 40
0.4687499999999994
 40
0.4687499999999994
 40
0.4739583333333327
 40
0.4739583333333327
 40
0.4739583333333327
 40
0.4739583333333327
 40
0.479166666666666
 40
0.479166666666666
 40
0.479166666666666
 40
0.479166666666666
 40
0.4843749999999993
 40
0.4843749999999993
 40
0.4843749999999993
 40
0.4843749999999993
 40
0.4895833333333326
 40
0.4895833333333326
 40
0.4895833333333326
 40
0.4895833333333326
 40
0.494791666666666
 40
0.494791666666666
 40
0.494791666666666
 40
0.494791666666666
 40
0.4999999999999993
 40
0.4999999999999993
 40
0.4999999999999993
 40
0.4999999999999993
 40
0.5052083333333326
 40
0.5052083333333326
 40
0.5052083333333326
 40
0.5052083333333326
 40
0.510416666666666
 40
0.510416666666666
 40
0.510416666666666
 40
0.510416666666666
 40
0.5156249999999993
 40
0.5156249999999993
 40
0.5156249999999993
 40
0.5156249999999993
 40
0.5208333333333327
 40
0.5208333333333327
 40
0.5208333333333327
 40
0.5208333333333327
 40
0.5260416666666661
 40
0.5260416666666661
 40
0.5260416666666661
 40
0.5260416666666661
 40
0.5312499999999994
 40
0.5312499999999994
 40
0.5312499999999994
 40
0.5312499999999994
 40
0.5364583333333328
 40
0.5364583333333328
 40
0.5364583333333328
 40
0.5364583333333328
 40
0.5416666666666662
 40
0.5416666666666662
 40
0.5416666666666662
 40
0.5416666666666662
 40
0.5468749999999996
 40
0.5468749999999996
 40
0.5468749999999996
 40
0.5468749999999996
 40
0.5520833333333329
 40
0.5520833333333329
 40
0.5520833333333329
 40
0.5520833333333329
 40
0.5572916666666663
 40
0.5572916666666663
 40
0.5572916666666663
 40
0.5572916666666663
 40
0.5624999999999997
 40
0.5624999999999997
 40
0.5624999999999997
 40
0.5624999999999997
 40
0.567708333333333
 40
0.567708333333333
 40
0.567708333333333
 40
0.567708333333333
 40
0.5729166666666664
 40
0.5729166666666664
 40
0.5729166666666664
 40
0.5729166666666664
 40
0.5781249999999998
 40
0.5781249999999998
 40
0.5781249999999998
 40
0.5781249999999998
 40
0.5833333333333331
 40
0.5833333333333331
 40
0.5833333333333331
 40
0.5833333333333331
 40
0.5885416666666665
 40
0.5885416666666665
 40
0.5885416666666665
 40
0.5885416666666665
 40
0.5937499999999999
 40
0.5937499999999999
 40
0.5937499999999999
 40
0.5937499999999999
 40
0.5989583333333333
 40
0.5989583333333333
 40
0.5989583333333333
 40
0.5989583333333333
 40
0.6041666666666666
 40
0.6041666666666666
 40
0.6041666666666666
 40
0.6041666666666666
 40
0.609375
 40
0.609375
 40
0.609375
 40
0.609375
 40
0.6145833333333334
 40
0.6145833333333334
 40
0.6145833333333334
 40
0.6145833333333334
 40
0.6197916666666667
 40
0.6197916666666667
 40
0.6197916666666667
 40
0.6197916666666667
 40
0.6250000000000001
 40
0.6250000000000001
 40
0.6250000000000001
 40
0.6250000000000001
 40
0.6302083333333335
 40
0.6302083333333335
 40
0.6302083333333335
 40
0.6302083333333335
 40
0.6354166666666669
 40
0.6354166666666669
 40
0.6354166666666669
 40
0.6354166666666669
 40
0.6406250000000002
 40
0.6406250000000002
 40
0.6406250000000002
 40
0.6406250000000002
 40
0.6458333333333336
 40
0.6458333333333336
 40
0.6458333333333336
 40
0.6458333333333336
 40
0.651041666666667
 40
0.651041666666667
 40
0.651041666666667
 40
0.651041666666667
 40
0.6562500000000003
 40
0.6562500000000003
 40
0.6562500000000003
 40
0.6562500000000003
 40
0.6614583333333337
 40
0.6614583333333337
 40
0.6614583333333337
 40
0.6614583333333337
 40
0.6666666666666671
 40
0.6666666666666671
 40
0.6666666666666671
 40
0.6666666666666671
 40
0.6718750000000004
 40
0.6718750000000004
 40
0.6718750000000004
 40
0.6718750000000004
 40
0.6770833333333338
 40
0.6770833333333338
 40
0.6770833333333338
 40
0.6770833333333338
 40
0.6822916666666672
 40
0.6822916666666672
 40
0.6822916666666672
 40
0.6822916666666672
 40
0.6875000000000006
 40
0.6875000000000006
 40
0.6875000000000006
 40
0.6875000000000006
 40
0.6927083333333339
 40
0.6927083333333339
 40
0.6927083333333339
 40
0.6927083333333339
 40
0.6979166666666673
 40
0.6979166666666673
 40
0.6979166666666673
 40
0.6979166666666673
 40
0.7031250000000007
 40
0.7031250000000007
 40
0.7031250000000007
 40
0.7031250000000007
 40
0.708333333333334
 40
0.708333333333334
 40
0.708333333333334
 40
0.708333333333334
 40
0.7135416666666674
 40
0.7135416666666674
 40
0.7135416666666674
 40
0.7135416666666674
 40
0.7187500000000008
 40
0.7187500000000008
 40
0.7187500000000008
 40
0.7187500000000008
 40
0.7239583333333341
 40
0.7239583333333341
 40
0.7239583333333341
 40
0.7239583333333341
 40
0.7291666666666675
 40
0.7291666666666675
 40
0.7291666666666675
 40
0.7291666666666675
 40
0.7343750000000009
 40
0.7343750000000009
 40
0.7343750000000009
 40
0.7343750000000009
 40
0.7395833333333343
 40
0.7395833333333343
 40
0.7395833333333343
 40
0.7395833333333343
 40
0.7447916666666676
 40
0.7447916666666676
 40
0.7447916666666676
 40
0.7447916666666676
 40
0.750000000000001
 40
0.750000000000001
 40
0.750000000000001
 40
0.750000000000001
 40
0.7552083333333344
 40
0.7552083333333344
 40
0.7552083333333344
 40
0.7552083333333344
 40
0.7604166666666677
 40
0.7604166666666677
 40
0.7604166666666677
 40
0.7604166666666677
 40
0.7656250000000011
 40
0.7656250000000011
 40
0.7656250000000011
 40
0.7656250000000011
 40
0.7708333333333345
 40
0.7708333333333345
 40
0.7708333333333345
 40
0.7708333333333345
 40
0.7760416666666679
 40
0.7760416666666679
 40
0.7760416666666679
 40
0.7760416666666679
 40
0.7812500000000012
 40
0.7812500000000012
 40
0.7812500000000012
 40
0.7812500000000012
 40
0.7864583333333346
 40
0.7864583333333346
 40
0.7864583333333346
 40
0.7864583333333346
 40
0.791666666666668
 40
0.791666666666668
 40
0.791666666666668
 40
0.791666666666668
 40
0.7968750000000013
 40
0.7968750000000013
 40
0.7968750000000013
 40
0.7968750000000013
 40
0.8020833333333347
 40
0.8020833333333347
 40
0.8020833333333347
 40
0.8020833333333347
 40
0.8072916666666681
 40
0.8072916666666681
 40
0.8072916666666681
 40
0.8072916666666681
 40
0.8125000000000014
 40
0.8125000000000014
 40
0.8125000000000014
 40
0.8125000000000014
 40
0.8177083333333348
 40
0.8177083333333348
 40
0.8177083333333348
 40
0.8177083333333348
 40
0.8229166666666682
 40
0.8229166666666682
 40
0.8229166666666682
 40
0.8229166666666682
 40
0.8281250000000016
 40
0.8281250000000016
 40
0.8281250000000016
 40
0.8281250000000016
 40
0.8333333333333349
 40
0.8333333333333349
 40
0.8333333333333349
 40
0.8333333333333349
 40
0.8385416666666683
 40
0.8385416666666683
 40
0.8385416666666683
 40
0.8385416666666683
 40
0.8437500000000017
 40
0.8437500000000017
 40
0.8437500000000017
 40
0.8437500000000017
 40
0.848958333333335
 40
0.848958333333335
 40
0.848958333333335
 40
0.848958333333335
 40
0.8541666666666684
 40
0.8541666666666684
 40
0.8541666666666684
 40
0.8541666666666684
 40
0.8593750000000018
 40
0.8593750000000018
 40
0.8593750000000018
 40
0.8593750000000018
 40
0.8645833333333351
 40
0.8645833333333351
 40
0.8645833333333351
 40
0.8645833333333351
 40
0.8697916666666685
 40
0.8697916666666685
 40
0.8697916666666685
 40
0.8697916666666685
 40
0.8750000000000019
 40
0.8750000000000019
 40
0.8750000000000019
 40
0.8750000000000019
 40
0.8802083333333353
 40
0.8802083333333353
 40
0.8802083333333353
 40
0.8802083333333353
 40
0.8854166666666686
 40
0.8854166666666686
 40
0.8854166666666686
 40
0.8854166666666686
 40
0.890625000000002
 40
0.890625000000002
 40
0.890625000000002
 40
0.890625000000002
 40
0.8958333333333354
 40
0.8958333333333354
 40
0.8958333333333354
 40
0.8958333333333354
 40
0.9010416666666687
 40
0.9010416666666687
 40
0.9010416666666687
 40
0.9010416666666687
 40
0.9062500000000021
 40
0.9062500000000021
 40
0.9062500000000021
 40
0.9062500000000021
 40
0.9114583333333355
 40
0.9114583333333355
 40
0.9114583333333355
 40
0.9114583333333355
 40
0.9166666666666689
 40
0.9166666666666689
 40
0.9166666666666689
 40
0.9166666666666689
 40
0.9218750000000022
 40
0.9218750000000022
 40
0.9218750000000022
 40
0.9218750000000022
 40
0.9270833333333356
 40
0.9270833333333356
 40
0.9270833333333356
 40
0.9270833333333356
 40
0.932291666666669
 40
0.932291666666669
 40
0.932291666666669
 40
0.932291666666669
 40
0.9375000000000023
 40
0.9375000000000023
 40
0.9375000000000023
 40
0.9375000000000023
 40
0.9427083333333357
 40
0.9427083333333357
 40
0.9427083333333357
 40
0.9427083333333357
 40
0.9479166666666691
 40
0.9479166666666691
 40
0.9479166666666691
 40
0.9479166666666691
 40
0.9531250000000024
 40
0.9531250000000024
 40
0.9531250000000024
 40
0.9531250000000024
 40
0.9583333333333358
 40
0.9583333333333358
 40
0.9583333333333358
 40
0.9583333333333358
 40
0.9635416666666692
 40
0.9635416666666692
 40
0.9635416666666692
 40
0.9635416666666692
 40
0.9687500000000026
 40
0.9687500000000026
 40
0.9687500000000026
 40
0.9687500000000026
 40
0.9739583333333359
 40
0.9739583333333359
 40
0.9739583333333359
 40
0.9739583333333359
 40
0.9791666666666693
 40
0.9791666666666693
 40
0.9791666666666693
 40
0.9791666666666693
 40
0.9843750000000027
 40
0.9843750000000027
 40
0.9843750000000027
 40
0.9843750000000027
 40
0.989583333333336
 40
0.989583333333336
 40
0.989583333333336
 40
0.989583333333336
 40
0.9947916666666694
 40
0.9947916666666694
 40
0.9947916666666694
 40
0.9947916666666694
 40
1.0
 40
1.0
 40
1.0
 40
1.0
 10
37.28636
 20
-16.3143
 30
0.0
 10
37.10999
 20
-16.25284
 30
0.0
 10
36.45305
 20
-16.07352
 30
0.0
 10
36.29408
 20
-16.02708
 30
0.0
 10
36.29408
 20
-16.02708
 30
0.0
 10
32.12767
 20
-14.81086
 30
0.0
 10
29.56474
 20
-10.53108
 30
0.0
 10
30.53639
 20
-6.24091
 30
0.0
 10
30.53639
 20
-6.24091
 30
0.0
 10
31.32438
 20
-2.75669
 30
0.0
 10
34.8013
 20
-0.56264
 30
0.0
 10
38.2851
 20
-1.35147
 30
0.0
 10
38.2851
 20
-1.35147
 30
0.0
 10
40.99157
 20
-1.96393
 30
0.0
 10
42.69411
 20
-4.66367
 30
0.0
 10
42.08263
 20
-7.37014
 30
0.0
 10
42.08263
 20
-7.37014
 30
0.0
 10
41.61076
 20
-9.45264
 30
0.0
 10
39.53177
 20
-10.76357
 30
0.0
 10
37.44884
 20
-10.29227
 30
0.0
 10
37.44884
 20
-10.29227
 30
0.0
 10
35.8643
 20
-9.93307
 30
0.0
 10
34.86711
 20
-8.3519
 30
0.0
 10
35.22532
 20
-6.76694
 30
0.0
 10
35.22532
 20
-6.76694
 30
0.0
 10
35.49402
 20
-5.58117
 30
0.0
 10
36.67741
 20
-4.83485
 30
0.0
 10
37.8636
 20
-5.10312
 30
0.0
 10
37.8636
 20
-5.10312
 30
0.0
 10
38.73129
 20
-5.29928
 30
0.0
 10
39.27598
 20
-6.165
 30
0.0
 10
39.08024
 20
-7.03269
 30
0.0
 10
39.08024
 20
-7.03269
 30
0.0
 10
38.94148
 20
-7.64375
 30
0.0
 10
38.33098
 20
-8.02904
 30
0.0
 10
37.71754
 20
-7.88985
 30
0.0
 10
37.71754
 20
-7.88985
 30
0.0
 10
37.31064
 20
-7.79795
 30
0.0
 10
37.05443
 20
-7.39048
 30
0.0
 10
37.14675
 20
-6.98204
 30
0.0
 10
37.14675
 20
-6.98204
 30
0.0
 10
37.19502
 20
-6.76834
 30
0.0
 10
37.38795
 20
-6.62424
 30
0.0
 10
37.6001
 20
-6.62859
 30
0.0
 10
37.6001
 20
-6.62859
 30
0.0
 10
38.30727
 20
-6.64361
 30
0.0
 10
38.40927
 20
-5.9224
 30
0.0
 10
37.67222
 20
-5.87217
 30
0.0
 10
37.67222
 20
-5.87217
 30
0.0
 10
37.08586
 20
-5.83204
 30
0.0
 10
36.54004
 20
-6.22309
 30
0.0
 10
36.40563
 20
-6.81479
 30
0.0
 10
36.40563
 20
-6.81479
 30
0.0
 10
36.22154
 20
-7.63168
 30
0.0
 10
36.73241
 20
-8.44521
 30
0.0
 10
37.55029
 20
-8.63084
 30
0.0
 10
37.55029
 20
-8.63084
 30
0.0
 10
38.57218
 20
-8.86193
 30
0.0
 10
39.58873
 20
-8.22141
 30
0.0
 10
39.82039
 20
-7.19952
 30
0.0
 10
39.82039
 20
-7.19952
 30
0.0
 10
40.10943
 20
-5.92282
 30
0.0
 10
39.30993
 20
-4.65258
 30
0.0
 10
38.03184
 20
-4.36298
 30
0.0
 10
38.03184
 20
-4.36298
 30
0.0
 10
36.43523
 20
-4.00196
 30
0.0
 10
34.84719
 20
-5.00308
 30
0.0
 10
34.48518
 20
-6.59913
 30
0.0
 10
34.48518
 20
-6.59913
 30
0.0
 10
34.03366
 20
-8.59548
 30
0.0
 10
35.28524
 20
-10.58075
 30
0.0
 10
37.28117
 20
-11.03227
 30
0.0
 10
37.28117
 20
-11.03227
 30
0.0
 10
39.77689
 20
-11.5973
 30
0.0
 10
42.2576
 20
-10.03311
 30
0.0
 10
42.8232
 20
-7.53739
 30
0.0
 10
42.8232
 20
-7.53739
 30
0.0
 10
43.5284
 20
-4.41812
 30
0.0
 10
41.57316
 20
-1.31766
 30
0.0
 10
38.45333
 20
-0.61147
 30
0.0
 10
38.45333
 20
-0.61147
 30
0.0
 10
37.19165
 20
-0.32524
 30
0.0
 10
35.93193
 20
-0.3895
 30
0.0
 10
34.77478
 20
-0.73761
 30
0.0
 10
34.77478
 20
-0.73761
 30
0.0
 10
34.68863
 20
-0.76413
 30
0.0
 10
34.75486
 20
-0.6777
 30
0.0
 10
34.77956
 20
-0.6617
 30
0.0
 10
34.77956
 20
-0.6617
 30
0.0
 10
38.10676
 20
1.48156
 30
0.0
 10
39.0982
 20
5.90951
 30
0.0
 10
36.9882
 20
9.27039
 30
0.0
 10
36.9882
 20
9.27039
 30
0.0
 10
34.51465
 20
13.21104
 30
0.0
 10
29.50384
 20
14.58918
 30
0.0
 10
25.40871
 20
12.61696
 30
0.0
 10
25.40871
 20
12.61696
 30
0.0
 10
25.23949
 20
12.53572
 30
0.0
 10
24.6478
 20
12.20024
 30
0.0
 10
24.50229
 20
12.12096
 30
0.0
 10
24.50229
 20
12.12096
 30
0.0
 10
20.69129
 20
10.04197
 30
0.0
 10
15.85602
 20
11.26773
 30
0.0
 10
13.51632
 20
14.9937
 30
0.0
 10
13.51632
 20
14.9937
 30
0.0
 10
11.6172
 20
18.01924
 30
0.0
 10
12.53414
 20
22.02696
 30
0.0
 10
15.55912
 20
23.92678
 30
0.0
 10
15.55912
 20
23.92678
 30
0.0
 10
17.90933
 20
25.40159
 30
0.0
 10
21.02145
 20
24.68993
 30
0.0
 10
22.49668
 20
22.33971
 30
0.0
 10
22.49668
 20
22.33971
 30
0.0
 10
23.63166
 20
20.53096
 30
0.0
 10
23.0836
 20
18.1357
 30
0.0
 10
21.27429
 20
16.99974
 30
0.0
 10
21.27429
 20
16.99974
 30
0.0
 10
19.89853
 20
16.13598
 30
0.0
 10
18.0756
 20
16.5527
 30
0.0
 10
17.21142
 20
17.92986
 30
0.0
 10
17.21142
 20
17.92986
 30
0.0
 10
16.56515
 20
18.95947
 30
0.0
 10
16.87776
 20
20.32358
 30
0.0
 10
17.90835
 20
20.97027
 30
0.0
 10
17.90835
 20
20.97027
 30
0.0
 10
18.66056
 20
21.44256
 30
0.0
 10
19.65776
 20
21.21441
 30
0.0
 10
20.13103
 20
20.4608
 30
0.0
 10
20.13103
 20
20.4608
 30
0.0
 10
20.46455
 20
19.92958
 30
0.0
 10
20.30221
 20
19.22578
 30
0.0
 10
19.77043
 20
18.8917
 30
0.0
 10
19.77043
 20
18.8917
 30
0.0
 10
19.41656
 20
18.66944
 30
0.0
 10
18.94722
 20
18.77762
 30
0.0
 10
18.7244
 20
19.13247
 30
0.0
 10
18.7244
 20
19.13247
 30
0.0
 10
18.60837
 20
19.3181
 30
0.0
 10
18.64316
 20
19.55635
 30
0.0
 10
18.79695
 20
19.70284
 30
0.0
 10
18.79695
 20
19.70284
 30
0.0
 10
19.30824
 20
20.19112
 30
0.0
 10
18.87229
 20
20.77454
 30
0.0
 10
18.31441
 20
20.29018
 30
0.0
 10
18.31441
 20
20.29018
 30
0.0
 10
17.86977
 20
19.90447
 30
0.0
 10
17.75948
 20
19.24276
 30
0.0
 10
18.08192
 20
18.72879
 30
0.0
 10
18.08192
 20
18.72879
 30
0.0
 10
18.52769
 20
18.01924
 30
0.0
 10
19.46441
 20
17.80372
 30
0.0
 10
20.17452
 20
18.24879
 30
0.0
 10
20.17452
 20
18.24879
 30
0.0
 10
21.06101
 20
18.80625
 30
0.0
 10
21.33083
 20
19.97644
 30
0.0
 10
20.77394
 20
20.86448
 30
0.0
 10
20.77394
 20
20.86448
 30
0.0
 10
20.07743
 20
21.97336
 30
0.0
 10
18.61412
 20
22.30983
 30
0.0
 10
17.50383
 20
21.61318
 30
0.0
 10
17.50383
 20
21.61318
 30
0.0
 10
16.11798
 20
20.74311
 30
0.0
 10
15.69887
 20
18.91302
 30
0.0
 10
16.56894
 20
17.52618
 30
0.0
 10
16.56894
 20
17.52618
 30
0.0
 10
17.65705
 20
15.79278
 30
0.0
 10
19.94441
 20
15.26871
 30
0.0
 10
21.6788
 20
16.35739
 30
0.0
 10
21.6788
 20
16.35739
 30
0.0
 10
23.84437
 20
17.71757
 30
0.0
 10
24.49991
 20
20.57642
 30
0.0
 10
23.13959
 20
22.74339
 30
0.0
 10
23.13959
 20
22.74339
 30
0.0
 10
21.43901
 20
25.45182
 30
0.0
 10
17.86486
 20
26.27012
 30
0.0
 10
15.156
 20
24.56968
 30
0.0
 10
15.156
 20
24.56968
 30
0.0
 10
14.07027
 20
23.88805
 30
0.0
 10
13.22924
 20
22.9648
 30
0.0
 10
12.65551
 20
21.91485
 30
0.0
 10
12.65551
 20
21.91485
 30
0.0
 10
12.62408
 20
21.85732
 30
0.0
 10
12.61047
 20
21.954
 30
0.0
 10
12.61538
 20
21.97869
 30
0.0
 10
12.61538
 20
21.97869
 30
0.0
 10
13.3791
 20
25.80849
 30
0.0
 10
10.95535
 20
29.57319
 30
0.0
 10
7.12302
 20
30.44621
 30
0.0
 10
7.12302
 20
30.44621
 30
0.0
 10
2.58801
 20
31.47961
 30
0.0
 10
-1.92833
 20
28.907
 30
0.0
 10
-3.42588
 20
24.61557
 30
0.0
 10
-3.42588
 20
24.61557
 30
0.0
 10
-3.4872
 20
24.43863
 30
0.0
 10
-3.66806
 20
23.78268
 30
0.0
 10
-3.7145
 20
23.6237
 30
0.0
 10
-3.7145
 20
23.6237
 30
0.0
 10
-4.93647
 20
19.45827
 30
0.0
 10
-9.22019
 20
16.90166
 30
0.0
 10
-13.50881
 20
17.87907
 30
0.0
 10
-13.50881
 20
17.87907
 30
0.0
 10
-16.99261
 20
18.67281
 30
0.0
 10
-19.1809
 20
22.15268
 30
0.0
 10
-18.38758
 20
25.63591
 30
0.0
 10
-18.38758
 20
25.63591
 30
0.0
 10
-17.77133
 20
28.34098
 30
0.0
 10
-15.06865
 20
30.04057
 30
0.0
 10
-12.36373
 20
29.42376
 30
0.0
 10
-12.36373
 20
29.42376
 30
0.0
 10
-10.28178
 20
28.94965
 30
0.0
 10
-8.97366
 20
26.86953
 30
0.0
 10
-9.44735
 20
24.78661
 30
0.0
 10
-9.44735
 20
24.78661
 30
0.0
 10
-9.80893
 20
23.20263
 30
0.0
 10
-11.39165
 20
22.20726
 30
0.0
 10
-12.97619
 20
22.56786
 30
0.0
 10
-12.97619
 20
22.56786
 30
0.0
 10
-14.1614
 20
22.8381
 30
0.0
 10
-14.90631
 20
24.02345
 30
0.0
 10
-14.63607
 20
25.20908
 30
0.0
 10
-14.63607
 20
25.20908
 30
0.0
 10
-14.43879
 20
26.07537
 30
0.0
 10
-13.57265
 20
26.61964
 30
0.0
 10
-12.70539
 20
26.4225
 30
0.0
 10
-12.70539
 20
26.4225
 30
0.0
 10
-12.09349
 20
26.28275
 30
0.0
 10
-11.70959
 20
25.67169
 30
0.0
 10
-11.84991
 20
25.05881
 30
0.0
 10
-11.84991
 20
25.05881
 30
0.0
 10
-11.94223
 20
24.65177
 30
0.0
 10
-12.3497
 20
24.39612
 30
0.0
 10
-12.75856
 20
24.48886
 30
0.0
 10
-12.75856
 20
24.48886
 30
0.0
 10
-12.97184
 20
24.53769
 30
0.0
 10
-13.11636
 20
24.73104
 30
0.0
 10
-13.11145
 20
24.94277
 30
0.0
 10
-13.11145
 20
24.94277
 30
0.0
 10
-13.09601
 20
25.64994
 30
0.0
 10
-13.81623
 20
25.75349
 30
0.0
 10
-13.86745
 20
25.01573
 30
0.0
 10
-13.86745
 20
25.01573
 30
0.0
 10
-13.90856
 20
24.42937
 30
0.0
 10
-13.51849
 20
23.8837
 30
0.0
 10
-12.9268
 20
23.7483
 30
0.0
 10
-12.9268
 20
23.7483
 30
0.0
 10
-12.1099
 20
23.56267
 30
0.0
 10
-11.29539
 20
24.07312
 30
0.0
 10
-11.10934
 20
24.89016
 30
0.0
 10
-11.10934
 20
24.89016
 30
0.0
 10
-10.87628
 20
25.91204
 30
0.0
 10
-11.51484
 20
26.92958
 30
0.0
 10
-12.53631
 20
27.1625
 30
0.0
 10
-12.53631
 20
27.1625
 30
0.0
 10
-13.81343
 20
27.45309
 30
0.0
 10
-15.08521
 20
26.65542
 30
0.0
 10
-15.37622
 20
25.37788
 30
0.0
 10
-15.37622
 20
25.37788
 30
0.0
 10
-15.74018
 20
23.78169
 30
0.0
 10
-14.74145
 20
22.19182
 30
0.0
 10
-13.14484
 20
21.82828
 30
0.0
 10
-13.14484
 20
21.82828
 30
0.0
 10
-11.14891
 20
21.37395
 30
0.0
 10
-9.16224
 20
22.62258
 30
0.0
 10
-8.70777
 20
24.61795
 30
0.0
 10
-8.70777
 20
24.61795
 30
0.0
 10
-8.13937
 20
27.11227
 30
0.0
 10
-9.70019
 20
29.59592
 30
0.0
 10
-12.19493
 20
30.16433
 30
0.0
 10
-12.19493
 20
30.16433
 30
0.0
 10
-15.3128
 20
30.87444
 30
0.0
 10
-18.41719
 20
28.92299
 30
0.0
 10
-19.12773
 20
25.80471
 30
0.0
 10
-19.12773
 20
25.80471
 30
0.0
 10
-19.412
 20
24.55748
 30
0.0
 10
-19.35447
 20
23.31235
 30
0.0
 10
-19.01842
 20
22.16671
 30
0.0
 10
-19.01842
 20
22.16671
 30
0.0
 10
-18.99724
 20
22.09473
 30
0.0
 10
-19.0267
 20
22.07045
 30
0.0
 10
-19.06585
 20
22.12896
 30
0.0
 10
-19.06585
 20
22.12896
 30
0.0
 10
-21.22412
 20
25.37016
 30
0.0
 10
-25.58192
 20
26.33158
 30
0.0
 10
-28.91249
 20
24.25974
 30
0.0
 10
-28.91249
 20
24.25974
 30
0.0
 10
-32.8617
 20
21.80176
 30
0.0
 10
-34.26061
 20
16.79628
 30
0.0
 10
-32.30481
 20
12.69329
 30
0.0
 10
-32.30481
 20
12.69329
 30
0.0
 10
-32.22455
 20
12.52464
 30
0.0
 10
-31.89103
 20
11.93154
 30
0.0
 10
-31.81231
 20
11.78548
 30
0.0
 10
-31.81231
 20
11.78548
 30
0.0
 10
-29.74875
 20
7.9662
 30
0.0
 10
-30.99388
 20
3.13527
 30
0.0
 10
-34.72897
 20
0.81171
 30
0.0
 10
-34.72897
 20
0.81171
 30
0.0
 10
-37.76222
 20
-1.07548
 30
0.0
 10
-41.76615
 20
-0.14311
 30
0.0
 10
-43.65377
 20
2.89014
 30
0.0
 10
-43.65377
 20
2.89014
 30
0.0
 10
-45.11946
 20
5.2457
 30
0.0
 10
-44.39489
 20
8.35486
 30
0.0
 10
-42.03934
 20
9.82097
 30
0.0
 10
-42.03934
 20
9.82097
 30
0.0
 10
-40.22567
 20
10.9488
 30
0.0
 10
-37.83238
 20
10.39134
 30
0.0
 10
-36.70371
 20
8.57767
 30
0.0
 10
-36.70371
 20
8.57767
 30
0.0
 10
-35.84571
 20
7.19771
 30
0.0
 10
-36.27057
 20
5.37717
 30
0.0
 10
-37.65012
 20
4.51874
 30
0.0
 10
-37.65012
 20
4.51874
 30
0.0
 10
-38.68267
 20
3.87625
 30
0.0
 10
-40.04481
 20
4.19336
 30
0.0
 10
-40.68772
 20
5.22689
 30
0.0
 10
-40.68772
 20
5.22689
 30
0.0
 10
-41.15706
 20
5.98093
 30
0.0
 10
-40.92457
 20
6.97826
 30
0.0
 10
-40.16955
 20
7.44704
 30
0.0
 10
-40.16955
 20
7.44704
 30
0.0
 10
-39.63679
 20
7.77874
 30
0.0
 10
-38.93397
 20
7.61429
 30
0.0
 10
-38.60185
 20
7.08069
 30
0.0
 10
-38.60185
 20
7.08069
 30
0.0
 10
-38.381
 20
6.7264
 30
0.0
 10
-38.49128
 20
6.25748
 30
0.0
 10
-38.84697
 20
6.03607
 30
0.0
 10
-38.84697
 20
6.03607
 30
0.0
 10
-39.03261
 20
5.92059
 30
0.0
 10
-39.27085
 20
5.95679
 30
0.0
 10
-39.41692
 20
6.11001
 30
0.0
 10
-39.41692
 20
6.11001
 30
0.0
 10
-39.90366
 20
6.62384
 30
0.0
 10
-40.48764
 20
6.19027
 30
0.0
 10
-40.00609
 20
5.63001
 30
0.0
 10
-40.00609
 20
5.63001
 30
0.0
 10
-39.62233
 20
5.18438
 30
0.0
 10
-38.96105
 20
5.07129
 30
0.0
 10
-38.44582
 20
5.39176
 30
0.0
 10
-38.44582
 20
5.39176
 30
0.0
 10
-37.7343
 20
5.83458
 30
0.0
 10
-37.51471
 20
6.7699
 30
0.0
 10
-37.95754
 20
7.48184
 30
0.0
 10
-37.95754
 20
7.48184
 30
0.0
 10
-38.51107
 20
8.37128
 30
0.0
 10
-39.68028
 20
8.64544
 30
0.0
 10
-40.5707
 20
8.09192
 30
0.0
 10
-40.5707
 20
8.09192
 30
0.0
 10
-41.68253
 20
7.39976
 30
0.0
 10
-42.02433
 20
5.93799
 30
0.0
 10
-41.33259
 20
4.82574
 30
0.0
 10
-41.33259
 20
4.82574
 30
0.0
 10
-40.46729
 20
3.43596
 30
0.0
 10
-38.63917
 20
3.00871
 30
0.0
 10
-37.24896
 20
3.87387
 30
0.0
 10
-37.24896
 20
3.87387
 30
0.0
 10
-35.51163
 20
4.95525
 30
0.0
 10
-34.97802
 20
7.24022
 30
0.0
 10
-36.05926
 20
8.97798
 30
0.0
 10
-36.05926
 20
8.97798
 30
0.0
 10
-37.41088
 20
11.15029
 30
0.0
 10
-40.26721
 20
11.81649
 30
0.0
 10
-42.44007
 20
10.46543
 30
0.0
 10
-42.44007
 20
10.46543
 30
0.0
 10
-45.15524
 20
8.77593
 30
0.0
 10
-45.98757
 20
5.20472
 30
0.0
 10
-44.29808
 20
2.48941
 30
0.0
 10
-44.29808
 20
2.48941
 30
0.0
 10
-43.61223
 20
1.38783
 30
0.0
 10
-42.67874
 20
0.53558
 30
0.0
 10
-41.61434
 20
-0.04293
 30
0.0
 10
-41.61434
 20
-0.04293
 30
0.0
 10
-41.57238
 20
-0.06664
 30
0.0
 10
-41.60816
 20
-0.08404
 30
0.0
 10
-41.6685
 20
-0.07253
 30
0.0
 10
-41.6685
 20
-0.07253
 30
0.0
 10
-45.46645
 20
0.68459
 30
0.0
 10
-49.21375
 20
-1.69187
 30
0.0
 10
-50.12002
 20
-5.49081
 30
0.0
 10
-50.12002
 20
-5.49081
 30
0.0
 10
-51.19944
 20
-10.01627
 30
0.0
 10
-48.67327
 20
-14.5576
 30
0.0
 10
-44.39728
 20
-16.0992
 30
0.0
 10
-44.39728
 20
-16.0992
 30
0.0
 10
-44.22133
 20
-16.16206
 30
0.0
 10
-43.56677
 20
-16.34952
 30
0.0
 10
-43.40822
 20
-16.39792
 30
0.0
 10
-43.40822
 20
-16.39792
 30
0.0
 10
-39.255
 20
-17.66143
 30
0.0
 10
-36.74328
 20
-21.97138
 30
0.0
 10
-37.76377
 20
-26.25032
 30
0.0
 10
-37.76377
 20
-26.25032
 30
0.0
 10
-38.59273
 20
-29.72528
 30
0.0
 10
-42.09434
 20
-31.8778
 30
0.0
 10
-45.57
 20
-31.0494
 30
0.0
 10
-45.57
 20
-31.0494
 30
0.0
 10
-48.26819
 20
-30.40495
 30
0.0
 10
-49.93972
 20
-27.68599
 30
0.0
 10
-49.2964
 20
-24.98724
 30
0.0
 10
-49.2964
 20
-24.98724
 30
0.0
 10
-48.80096
 20
-22.90964
 30
0.0
 10
-46.70681
 20
-21.62327
 30
0.0
 10
-44.62921
 20
-22.11871
 30
0.0
 10
-44.62921
 20
-22.11871
 30
0.0
 10
-43.04902
 20
-22.4953
 30
0.0
 10
-42.07021
 20
-24.08854
 30
0.0
 10
-42.44723
 20
-25.66971
 30
0.0
 10
-42.44723
 20
-25.66971
 30
0.0
 10
-42.72953
 20
-26.85254
 30
0.0
 10
-43.92162
 20
-27.5844
 30
0.0
 10
-45.10487
 20
-27.30266
 30
0.0
 10
-45.10487
 20
-27.30266
 30
0.0
 10
-45.96919
 20
-27.09668
 30
0.0
 10
-46.50476
 20
-26.22464
 30
0.0
 10
-46.29794
 20
-25.35892
 30
0.0
 10
-46.29794
 20
-25.35892
 30
0.0
 10
-46.15286
 20
-24.74885
 30
0.0
 10
-45.53703
 20
-24.37225
 30
0.0
 10
-44.92611
 20
-24.51733
 30
0.0
 10
-44.92611
 20
-24.51733
 30
0.0
 10
-44.52005
 20
-24.61401
 30
0.0
 10
-44.26819
 20
-25.02442
 30
0.0
 10
-44.36529
 20
-25.43245
 30
0.0
 10
-44.36529
 20
-25.43245
 30
0.0
 10
-44.41664
 20
-25.64558
 30
0.0
 10
-44.61083
 20
-25.78715
 30
0.0
 10
-44.82256
 20
-25.78042
 30
0.0
 10
-44.82256
 20
-25.78042
 30
0.0
 10
-45.52987
 20
-25.75769
 30
0.0
 10
-45.64058
 20
-26.47692
 30
0.0
 10
-44.9038
 20
-26.536
 30
0.0
 10
-44.9038
 20
-26.536
 30
0.0
 10
-44.318
 20
-26.58286
 30
0.0
 10
-43.76784
 20
-26.19813
 30
0.0
 10
-43.62725
 20
-25.60882
 30
0.0
 10
-43.62725
 20
-25.60882
 30
0.0
 10
-43.43235
 20
-24.79291
 30
0.0
 10
-43.93509
 20
-23.97349
 30
0.0
 10
-44.75016
 20
-23.77873
 30
0.0
 10
-44.75016
 20
-23.77873
 30
0.0
 10
-45.7691
 20
-23.53599
 30
0.0
 10
-46.79296
 20
-24.16403
 30
0.0
 10
-47.03654
 20
-25.18297
 30
0.0
 10
-47.03654
 20
-25.18297
 30
0.0
 10
-47.34003
 20
-26.45714
 30
0.0
 10
-46.55513
 20
-27.73664
 30
0.0
 10
-45.28082
 20
-28.04126
 30
0.0
 10
-45.28082
 20
-28.04126
 30
0.0
 10
-43.68856
 20
-28.42122
 30
0.0
 10
-42.08859
 20
-27.43848
 30
0.0
 10
-41.70863
 20
-25.84566
 30
0.0
 10
-41.70863
 20
-25.84566
 30
0.0
 10
-41.23395
 20
-23.85506
 30
0.0
 10
-42.46224
 20
-21.85534
 30
0.0
 10
-44.45326
 20
-21.38067
 30
0.0
 10
-44.45326
 20
-21.38067
 30
0.0
 10
-46.94183
 20
-20.78701
 30
0.0
 10
-49.44092
 20
-22.32174
 30
0.0
 10
-50.03443
 20
-24.81073
 30
0.0
 10
-50.03443
 20
-24.81073
 30
0.0
 10
-50.77696
 20
-27.92185
 30
0.0
 10
-48.85694
 20
-31.04547
 30
0.0
 10
-45.74595
 20
-31.78744
 30
0.0
 10
-45.74595
 20
-31.78744
 30
0.0
 10
-44.44077
 20
-32.09879
 30
0.0
 10
-43.13461
 20
-32.03453
 30
0.0
 10
-41.93874
 20
-31.66466
 30
0.0
 10
-41.93874
 20
-31.66466
 30
0.0
 10
-41.8923
 20
-31.65119
 30
0.0
 10
-41.88654
 20
-31.67631
 30
0.0
 10
-41.92807
 20
-31.70535
 30
0.0
 10
-41.92807
 20
-31.70535
 30
0.0
 10
-45.1363
 20
-33.86265
 30
0.0
 10
-46.09392
 20
-38.18747
 30
0.0
 10
-44.04636
 20
-41.50738
 30
0.0
 10
-44.04636
 20
-41.50738
 30
0.0
 10
-41.60325
 20
-45.46683
 30
0.0
 10
-36.60353
 20
-46.88412
 30
0.0
 10
-32.49282
 20
-44.94375
 30
0.0
 10
-32.49282
 20
-44.94375
 30
0.0
 10
-32.32417
 20
-44.86447
 30
0.0
 10
-31.72967
 20
-44.53292
 30
0.0
 10
-31.5836
 20
-44.45462
 30
0.0
 10
-31.5836
 20
-44.45462
 30
0.0
 10
-27.75619
 20
-42.4065
 30
0.0
 10
-22.93003
 20
-43.67014
 30
0.0
 10
-20.62092
 20
-47.41295
 30
0.0
 10
-20.62092
 20
-47.41295
 30
0.0
 10
-18.74482
 20
-50.45393
 30
0.0
 10
-19.69234
 20
-54.45393
 30
0.0
 10
-22.73373
 20
-56.32947
 30
0.0
 10
-22.73373
 20
-56.32947
 30
0.0
 10
-25.09462
 20
-57.78647
 30
0.0
 10
-28.20083
 20
-57.05025
 30
0.0
 10
-29.65783
 20
-54.68895
 30
0.0
 10
-29.65783
 20
-54.68895
 30
0.0
 10
-30.77878
 20
-52.87135
 30
0.0
 10
-30.21178
 20
-50.48059
 30
0.0
 10
-28.39418
 20
-49.35907
 30
0.0
 10
-28.39418
 20
-49.35907
 30
0.0
 10
-27.01127
 20
-48.50542
 30
0.0
 10
-25.19227
 20
-48.93702
 30
0.0
 10
-24.33862
 20
-50.32007
 30
0.0
 10
-24.33862
 20
-50.32007
 30
0.0
 10
-23.70062
 20
-51.35445
 30
0.0
 10
-24.02348
 20
-52.71617
 30
0.0
 10
-25.05842
 20
-53.35529
 30
0.0
 10
-25.05842
 20
-53.35529
 30
0.0
 10
-25.81484
 20
-53.82168
 30
0.0
 10
-26.81021
 20
-53.58484
 30
0.0
 10
-27.27716
 20
-52.82828
 30
0.0
 10
-27.27716
 20
-52.82828
 30
0.0
 10
-27.60633
 20
-52.29467
 30
0.0
 10
-27.43908
 20
-51.59283
 30
0.0
 10
-26.90449
 20
-51.26268
 30
0.0
 10
-26.90449
 20
-51.26268
 30
0.0
 10
-26.54965
 20
-51.04323
 30
0.0
 10
-26.08073
 20
-51.15478
 30
0.0
 10
-25.86128
 20
-51.51159
 30
0.0
 10
-25.86128
 20
-51.51159
 30
0.0
 10
-25.74622
 20
-51.69765
 30
0.0
 10
-25.78298
 20
-51.93604
 30
0.0
 10
-25.93719
 20
-52.08056
 30
0.0
 10
-25.93719
 20
-52.08056
 30
0.0
 10
-26.45297
 20
-52.56533
 30
0.0
 10
-26.02081
 20
-53.1517
 30
0.0
 10
-25.45957
 20
-52.67169
 30
0.0
 10
-25.45957
 20
-52.67169
 30
0.0
 10
-25.01239
 20
-52.28934
 30
0.0
 10
-24.8965
 20
-51.62861
 30
0.0
 10
-25.215
 20
-51.11227
 30
0.0
 10
-25.215
 20
-51.11227
 30
0.0
 10
-25.6553
 20
-50.39934
 30
0.0
 10
-26.5902
 20
-50.17597
 30
0.0
 10
-27.30368
 20
-50.61641
 30
0.0
 10
-27.30368
 20
-50.61641
 30
0.0
 10
-28.19508
 20
-51.16643
 30
0.0
 10
-28.47346
 20
-52.3348
 30
0.0
 10
-27.92344
 20
-53.22718
 30
0.0
 10
-27.92344
 20
-53.22718
 30
0.0
 10
-27.23549
 20
-54.3414
 30
0.0
 10
-25.77471
 20
-54.68895
 30
0.0
 10
-24.66007
 20
-54.00156
 30
0.0
 10
-24.66007
 20
-54.00156
 30
0.0
 10
-23.2665
 20
-53.14159
 30
0.0
 10
-22.83293
 20
-51.31488
 30
0.0
 10
-23.69276
 20
-49.92172
 30
0.0
 10
-23.69276
 20
-49.92172
 30
0.0
 10
-24.76685
 20
-48.17962
 30
0.0
 10
-27.05042
 20
-47.63815
 30
0.0
 10
-28.79253
 20
-48.71224
 30
0.0
 10
-28.79253
 20
-48.71224
 30
0.0
 10
-30.96974
 20
-50.05614
 30
0.0
 10
-31.64646
 20
-52.91008
 30
0.0
 10
-30.30354
 20
-55.08772
 30
0.0
 10
-30.30354
 20
-55.08772
 30
0.0
 10
-28.62429
 20
-57.80864
 30
0.0
 10
-25.05687
 20
-58.65514
 30
0.0
 10
-22.33497
 20
-56.97575
 30
0.0
 10
-22.33497
 20
-56.97575
 30
0.0
 10
-21.22174
 20
-56.28836
 30
0.0
 10
-20.36036
 20
-55.34827
 30
0.0
 10
-19.77835
 20
-54.27517
 30
0.0
 10
-19.77835
 20
-54.27517
 30
0.0
 10
-19.7291
 20
-54.18467
 30
0.0
 10
-19.69234
 20
-54.23785
 30
0.0
 10
-19.70581
 20
-54.30646
 30
0.0
 10
-19.70581
 20
-54.30646
 30
0.0
 10
-20.46279
 20
-58.13444
 30
0.0
 10
-18.03919
 20
-61.89381
 30
0.0
 10
-14.20924
 20
-62.76584
 30
0.0
 10
-14.20924
 20
-62.76584
 30
0.0
 10
-9.67269
 20
-63.79727
 30
0.0
 10
-5.15789
 20
-61.22326
 30
0.0
 10
-3.66132
 20
-56.93085
 30
0.0
 10
-3.66132
 20
-56.93085
 30
0.0
 10
-3.60043
 20
-56.75434
 30
0.0
 10
-3.41957
 20
-56.09796
 30
0.0
 10
-3.37312
 20
-55.93899
 30
0.0
 10
-3.37312
 20
-55.93899
 30
0.0
 10
-2.15311
 20
-51.77314
 30
0.0
 10
2.13074
 20
-49.21554
 30
0.0
 10
6.41978
 20
-50.19098
 30
0.0
 10
6.41978
 20
-50.19098
 30
0.0
 10
9.904
 20
-50.98318
 30
0.0
 10
12.09328
 20
-54.46319
 30
0.0
 10
11.30052
 20
-57.94642
 30
0.0
 10
11.30052
 20
-57.94642
 30
0.0
 10
10.68567
 20
-60.65247
 30
0.0
 10
7.98355
 20
-62.35207
 30
0.0
 10
5.27807
 20
-61.73708
 30
0.0
 10
5.27807
 20
-61.73708
 30
0.0
 10
3.19598
 20
-61.26339
 30
0.0
 10
1.88702
 20
-59.18299
 30
0.0
 10
2.36071
 20
-57.10006
 30
0.0
 10
2.36071
 20
-57.10006
 30
0.0
 10
2.72089
 20
-55.51595
 30
0.0
 10
4.30402
 20
-54.51973
 30
0.0
 10
5.88856
 20
-54.88076
 30
0.0
 10
5.88856
 20
-54.88076
 30
0.0
 10
7.0742
 20
-55.15001
 30
0.0
 10
7.81911
 20
-56.33438
 30
0.0
 10
7.54943
 20
-57.521
 30
0.0
 10
7.54943
 20
-57.521
 30
0.0
 10
7.35215
 20
-58.38728
 30
0.0
 10
6.48601
 20
-58.93211
 30
0.0
 10
5.61874
 20
-58.73525
 30
0.0
 10
5.61874
 20
-58.73525
 30
0.0
 10
5.00783
 20
-58.59564
 30
0.0
 10
4.62295
 20
-57.98417
 30
0.0
 10
4.76228
 20
-57.37171
 30
0.0
 10
4.76228
 20
-57.37171
 30
0.0
 10
4.85503
 20
-56.96424
 30
0.0
 10
5.26305
 20
-56.70845
 30
0.0
 10
5.67192
 20
-56.80176
 30
0.0
 10
5.67192
 20
-56.80176
 30
0.0
 10
5.88519
 20
-56.84961
 30
0.0
 10
6.02915
 20
-57.04296
 30
0.0
 10
6.02438
 20
-57.25469
 30
0.0
 10
6.02438
 20
-57.25469
 30
0.0
 10
6.00937
 20
-57.96242
 30
0.0
 10
6.73015
 20
-58.06485
 30
0.0
 10
6.7808
 20
-57.32821
 30
0.0
 10
6.7808
 20
-57.32821
 30
0.0
 10
6.82149
 20
-56.74087
 30
0.0
 10
6.43143
 20
-56.19604
 30
0.0
 10
5.84015
 20
-56.06078
 30
0.0
 10
5.84015
 20
-56.06078
 30
0.0
 10
5.02284
 20
-55.87514
 30
0.0
 10
4.20833
 20
-56.3856
 30
0.0
 10
4.0227
 20
-57.20347
 30
0.0
 10
4.0227
 20
-57.20347
 30
0.0
 10
3.78964
 20
-58.2248
 30
0.0
 10
4.42876
 20
-59.2429
 30
0.0
 10
5.45051
 20
-59.47484
 30
0.0
 10
5.45051
 20
-59.47484
 30
0.0
 10
6.72763
 20
-59.76542
 30
0.0
 10
7.99899
 20
-58.96691
 30
0.0
 10
8.28999
 20
-57.68979
 30
0.0
 10
8.28999
 20
-57.68979
 30
0.0
 10
8.65256
 20
-56.09319
 30
0.0
 10
7.6534
 20
-54.50374
 30
0.0
 10
6.0568
 20
-54.14019
 30
0.0
 10
6.0568
 20
-54.14019
 30
0.0
 10
4.06128
 20
-53.68684
 30
0.0
 10
2.07461
 20
-54.9359
 30
0.0
 10
1.62071
 20
-56.93183
 30
0.0
 10
1.62071
 20
-56.93183
 30
0.0
 10
1.05272
 20
-59.42601
 30
0.0
 10
2.61495
 20
-61.90924
 30
0.0
 10
5.10983
 20
-62.47666
 30
0.0
 10
5.10983
 20
-62.47666
 30
0.0
 10
8.22854
 20
-63.18636
 30
0.0
 10
11.33139
 20
-61.2335
 30
0.0
 10
12.04108
 20
-58.11508
 30
0.0
 10
12.04108
 20
-58.11508
 30
0.0
 10
12.33209
 20
-56.83516
 30
0.0
 10
12.2639
 20
-55.55748
 30
0.0
 10
11.90372
 20
-54.38728
 30
0.0
 10
11.90372
 20
-54.38728
 30
0.0
 10
11.88113
 20
-54.31432
 30
0.0
 10
11.95788
 20
-54.38237
 30
0.0
 10
11.96953
 20
-54.40075
 30
0.0
 10
11.96953
 20
-54.40075
 30
0.0
 10
14.08584
 20
-57.75644
 30
0.0
 10
18.51604
 20
-58.78605
 30
0.0
 10
21.89783
 20
-56.69541
 30
0.0
 10
21.89783
 20
-56.69541
 30
0.0
 10
25.85532
 20
-54.24949
 30
0.0
 10
27.26826
 20
-49.24795
 30
0.0
 10
25.32452
 20
-45.13906
 30
0.0
 10
25.32452
 20
-45.13906
 30
0.0
 10
25.24426
 20
-44.96985
 30
0.0
 10
24.91271
 20
-44.37577
 30
0.0
 10
24.83441
 20
-44.23027
 30
0.0
 10
24.83441
 20
-44.23027
 30
0.0
 10
22.78193
 20
-40.40439
 30
0.0
 10
24.04165
 20
-35.57725
 30
0.0
 10
27.78306
 20
-33.26464
 30
0.0
 10
27.78306
 20
-33.26464
 30
0.0
 10
30.82207
 20
-31.38629
 30
0.0
 10
34.82305
 20
-32.32988
 30
0.0
 10
36.70154
 20
-35.36889
 30
0.0
 10
36.70154
 20
-35.36889
 30
0.0
 10
38.16036
 20
-37.72879
 30
0.0
 10
37.42709
 20
-40.83599
 30
0.0
 10
35.06677
 20
-42.29439
 30
0.0
 10
35.06677
 20
-42.29439
 30
0.0
 10
33.25016
 20
-43.4173
 30
0.0
 10
30.85841
 20
-42.85311
 30
0.0
 10
29.73592
 20
-41.03607
 30
0.0
 10
29.73592
 20
-41.03607
 30
0.0
 10
28.88086
 20
-39.65358
 30
0.0
 10
29.31147
 20
-37.83416
 30
0.0
 10
30.69396
 20
-36.97953
 30
0.0
 10
30.69396
 20
-36.97953
 30
0.0
 10
31.72792
 20
-36.33999
 30
0.0
 10
33.08964
 20
-36.66242
 30
0.0
 10
33.7296
 20
-37.69694
 30
0.0
 10
33.7296
 20
-37.69694
 30
0.0
 10
34.19656
 20
-38.45336
 30
0.0
 10
33.96126
 20
-39.44817
 30
0.0
 10
33.2047
 20
-39.91653
 30
0.0
 10
33.2047
 20
-39.91653
 30
0.0
 10
32.67109
 20
-40.2457
 30
0.0
 10
31.96813
 20
-40.07943
 30
0.0
 10
31.63756
 20
-39.5454
 30
0.0
 10
31.63756
 20
-39.5454
 30
0.0
 10
31.41811
 20
-39.18999
 30
0.0
 10
31.52924
 20
-38.72163
 30
0.0
 10
31.88647
 20
-38.50078
 30
0.0
 10
31.88647
 20
-38.50078
 30
0.0
 10
32.07168
 20
-38.38573
 30
0.0
 10
32.31049
 20
-38.42249
 30
0.0
 10
32.45543
 20
-38.57711
 30
0.0
 10
32.45543
 20
-38.57711
 30
0.0
 10
32.94035
 20
-39.09192
 30
0.0
 10
33.52657
 20
-38.65976
 30
0.0
 10
33.04615
 20
-38.09809
 30
0.0
 10
33.04615
 20
-38.09809
 30
0.0
 10
32.6638
 20
-37.65148
 30
0.0
 10
32.00307
 20
-37.53642
 30
0.0
 10
31.48672
 20
-37.85549
 30
0.0
 10
31.48672
 20
-37.85549
 30
0.0
 10
30.77422
 20
-38.29579
 30
0.0
 10
30.55183
 20
-39.23167
 30
0.0
 10
30.99269
 20
-39.94459
 30
0.0
 10
30.99269
 20
-39.94459
 30
0.0
 10
31.54285
 20
-40.83557
 30
0.0
 10
32.71206
 20
-41.11254
 30
0.0
 10
33.60402
 20
-40.56196
 30
0.0
 10
33.60402
 20
-40.56196
 30
0.0
 10
34.71768
 20
-39.87303
 30
0.0
 10
35.06383
 20
-38.41183
 30
0.0
 10
34.37504
 20
-37.29803
 30
0.0
 10
34.37504
 20
-37.29803
 30
0.0
 10
33.51409
 20
-35.90502
 30
0.0
 10
31.68681
 20
-35.47328
 30
0.0
 10
30.29422
 20
-36.33423
 30
0.0
 10
30.29422
 20
-36.33423
 30
0.0
 10
28.55351
 20
-37.40972
 30
0.0
 10
28.01359
 20
-39.69371
 30
0.0
 10
29.09006
 20
-41.4354
 30
0.0
 10
29.09006
 20
-41.4354
 30
0.0
 10
30.43537
 20
-43.61107
 30
0.0
 10
33.28973
 20
-44.28639
 30
0.0
 10
35.46596
 20
-42.94066
 30
0.0
 10
35.46596
 20
-42.94066
 30
0.0
 10
38.18646
 20
-41.25889
 30
0.0
 10
39.02861
 20
-37.69063
 30
0.0
 10
37.34782
 20
-34.97012
 30
0.0
 10
37.34782
 20
-34.97012
 30
0.0
 10
36.66282
 20
-33.86265
 30
0.0
 10
35.72792
 20
-33.00506
 30
0.0
 10
34.66113
 20
-32.42361
 30
0.0
 10
34.66113
 20
-32.42361
 30
0.0
 10
34.58859
 20
-32.38446
 30
0.0
 10
34.59547
 20
-32.34433
 30
0.0
 10
34.6558
 20
-32.35598
 30
0.0
 10
34.6558
 20
-32.35598
 30
0.0
 10
38.4929
 20
-33.12264
 30
0.0
 10
42.26335
 20
-30.69357
 30
0.0
 10
43.13202
 20
-26.85492
 30
0.0
 10
43.13202
 20
-26.85492
 30
0.0
 10
44.15924
 20
-22.31795
 30
0.0
 10
41.5799
 20
-17.80553
 30
0.0
 10
37.28636
 20
-16.3143
 30
0.0
  0
ENDSEC
  0
SECTION
  2
OBJECTS
  0
DICTIONARY
  5
C
330
0
100
AcDbDictionary
281
     1
  3
ACAD_GROUP
350
D
  3
ACAD_LAYOUT
350
1A
  3
ACAD_MLEADERSTYLE
350
6A
  3
ACAD_MLINESTYLE
350
17
  3
ACAD_PLOTSETTINGS
350
19
  3
ACAD_PLOTSTYLENAME
350
E
  3
ACAD_SCALELIST
350
3B
  3
ACAD_TABLESTYLE
350
69
  3
ACAD_VISUALSTYLE
350
2A
  0
DICTIONARY
  5
D
102
{ACAD_REACTORS
330
C
102
}
330
C
100
AcDbDictionary
281
     1
  0
DICTIONARY
  5
1A
102
{ACAD_REACTORS
330
C
102
}
330
C
100
AcDbDictionary
281
     1
  3
Layout1
350
1E
  3
Layout2
350
26
  3
Model
350
22
  0
DICTIONARY
  5
6A
102
{ACAD_REACTORS
330
C
102
}
330
C
100
AcDbDictionary
281
     1
  0
DICTIONARY
  5
17
102
{ACAD_REACTORS
330
C
102
}
330
C
100
AcDbDictionary
281
     1
  3
Standard
350
18
  0
DICTIONARY
  5
19
102
{ACAD_REACTORS
330
C
102
}
330
C
100
AcDbDictionary
281
     1
  0
ACDBDICTIONARYWDFLT
  5
E
102
{ACAD_REACTORS
330
C
102
}
330
C
100
AcDbDictionary
281
     1
  3
Normal
350
F
100
AcDbDictionaryWithDefault
340
F
  0
DICTIONARY
  5
3B
102
{ACAD_REACTORS
330
C
102
}
330
C
100
AcDbDictionary
281
     1
  3
A0
350
3C
  3
A1
350
3D
  3
A2
350
3E
  3
A3
350
3F
  3
A4
350
40
  3
A5
350
41
  3
A6
350
42
  3
A7
350
43
  3
A8
350
44
  3
A9
350
45
  3
B0
350
46
  3
B1
350
47
  3
B2
350
48
  3
B3
350
49
  3
B4
350
4A
  3
B5
350
4B
  3
B6
350
4C
  3
B7
350
4D
  3
B8
350
4E
  3
B9
350
4F
  3
C0
350
50
  3
C1
350
51
  3
C2
350
52
  3
C3
350
53
  3
C4
350
54
  3
C5
350
55
  3
C6
350
56
  3
C7
350
57
  3
C8
350
58
  3
C9
350
59
  3
D0
350
5A
  3
D1
350
5B
  3
D2
350
5C
  0
DICTIONARY
  5
69
102
{ACAD_REACTORS
330
C
102
}
330
C
100
AcDbDictionary
281
     1
  0
DICTIONARY
  5
2A
102
{ACAD_REACTORS
330
C
102
}
330
C
100
AcDbDictionary
281
     1
  3
2dWireframe
350
2F
  3
3D Hidden
350
31
  3
3dWireframe
350
30
  3
Basic
350
32
  3
Brighten
350
36
  3
ColorChange
350
3A
  3
Conceptual
350
34
  3
Dim
350
35
  3
Facepattern
350
39
  3
Flat
350
2B
  3
FlatWithEdges
350
2C
  3
Gouraud
350
2D
  3
GouraudWithEdges
350
2E
  3
Linepattern
350
38
  3
Realistic
350
33
  3
Thicken
350
37
  0
LAYOUT
  5
1E
102
{ACAD_REACTORS
330
1A
102
}
330
1A
100
AcDbPlotSettings
  1

  2
none_device
  4

  6

 40
0.0
 41
0.0
 42
0.0
 43
0.0
 44
0.0
 45
0.0
 46
0.0
 47
0.0
 48
0.0
 49
0.0
140
0.0
141
0.0
142
1.0
143
1.0
 70
   688
 72
     0
 73
     0
 74
     5
  7

 75
    16
 76
     0
 77
     2
 78
   300
147
1.0
148
0.0
149
0.0
100
AcDbLayout
  1
Layout1
 70
     1
 71
     1
 10
0.0
 20
0.0
 11
12.0
 21
9.0
 12
0.0
 22
0.0
 32
0.0
 14
1.000000000000000E+20
 24
1.000000000000000E+20
 34
1.000000000000000E+20
 15
-1.000000000000000E+20
 25
-1.000000000000000E+20
 35
-1.000000000000000E+20
146
0.0
 13
0.0
 23
0.0
 33
0.0
 16
1.0
 26
0.0
 36
0.0
 17
0.0
 27
1.0
 37
0.0
 76
     0
330
1B
  0
LAYOUT
  5
26
102
{ACAD_REACTORS
330
1A
102
}
330
1A
100
AcDbPlotSettings
  1

  2
none_device
  4

  6

 40
0.0
 41
0.0
 42
0.0
 43
0.0
 44
0.0
 45
0.0
 46
0.0
 47
0.0
 48
0.0
 49
0.0
140
0.0
141
0.0
142
1.0
143
1.0
 70
   688
 72
     0
 73
     0
 74
     5
  7

 75
    16
 76
     0
 77
     2
 78
   300
147
1.0
148
0.0
149
0.0
100
AcDbLayout
  1
Layout2
 70
     1
 71
     2
 10
0.0
 20
0.0
 11
0.0
 21
0.0
 12
0.0
 22
0.0
 32
0.0
 14
0.0
 24
0.0
 34
0.0
 15
0.0
 25
0.0
 35
0.0
146
0.0
 13
0.0
 23
0.0
 33
0.0
 16
1.0
 26
0.0
 36
0.0
 17
0.0
 27
1.0
 37
0.0
 76
     0
330
23
  0
LAYOUT
  5
22
102
{ACAD_REACTORS
330
1A
102
}
330
1A
100
AcDbPlotSettings
  1

  2
none_device
  4

  6

 40
0.0
 41
0.0
 42
0.0
 43
0.0
 44
0.0
 45
0.0
 46
0.0
 47
0.0
 48
0.0
 49
0.0
140
0.0
141
0.0
142
1.0
143
1.0
 70
  1712
 72
     0
 73
     0
 74
     0
  7

 75
     0
 76
     0
 77
     2
 78
   300
147
1.0
148
0.0
149
0.0
100
AcDbLayout
  1
Model
 70
     1
 71
     0
 10
0.0
 20
0.0
 11
12.0
 21
9.0
 12
0.0
 22
0.0
 32
0.0
 14
-50.369
 24
-62.99245
 34
0.0
 15
43.3566
 25
30.6737
 35
0.0
146
0.0
 13
0.0
 23
0.0
 33
0.0
 16
1.0
 26
0.0
 36
0.0
 17
0.0
 27
1.0
 37
0.0
 76
     0
330
1F
331
29
  0
MLINESTYLE
  5
18
102
{ACAD_REACTORS
330
17
102
}
330
17
100
AcDbMlineStyle
  2
Standard
 70
     0
  3

 62
   256
 51
90.0
 52
90.0
 71
     2
 49
0.5
 62
   256
  6
BYLAYER
 49
-0.5
 62
   256
  6
BYLAYER
  0
ACDBPLACEHOLDER
  5
F
102
{ACAD_REACTORS
330
E
102
}
330
E
  0
SCALE
  5
3C
102
{ACAD_REACTORS
330
3B
102
}
330
3B
100
AcDbScale
 70
     0
300
1:1
140
1.0
141
1.0
290
     1
  0
SCALE
  5
3D
102
{ACAD_REACTORS
330
3B
102
}
330
3B
100
AcDbScale
 70
     0
300
1:2
140
1.0
141
2.0
290
     0
  0
SCALE
  5
3E
102
{ACAD_REACTORS
330
3B
102
}
330
3B
100
AcDbScale
 70
     0
300
1:4
140
1.0
141
4.0
290
     0
  0
SCALE
  5
3F
102
{ACAD_REACTORS
330
3B
102
}
330
3B
100
AcDbScale
 70
     0
300
1:5
140
1.0
141
5.0
290
     0
  0
SCALE
  5
40
102
{ACAD_REACTORS
330
3B
102
}
330
3B
100
AcDbScale
 70
     0
300
1:8
140
1.0
141
8.0
290
     0
  0
SCALE
  5
41
102
{ACAD_REACTORS
330
3B
102
}
330
3B
100
AcDbScale
 70
     0
300
1:10
140
1.0
141
10.0
290
     0
  0
SCALE
  5
42
102
{ACAD_REACTORS
330
3B
102
}
330
3B
100
AcDbScale
 70
     0
300
1:16
140
1.0
141
16.0
290
     0
  0
SCALE
  5
43
102
{ACAD_REACTORS
330
3B
102
}
330
3B
100
AcDbScale
 70
     0
300
1:20
140
1.0
141
20.0
290
     0
  0
SCALE
  5
44
102
{ACAD_REACTORS
330
3B
102
}
330
3B
100
AcDbScale
 70
     0
300
1:30
140
1.0
141
30.0
290
     0
  0
SCALE
  5
45
102
{ACAD_REACTORS
330
3B
102
}
330
3B
100
AcDbScale
 70
     0
300
1:40
140
1.0
141
40.0
290
     0
  0
SCALE
  5
46
102
{ACAD_REACTORS
330
3B
102
}
330
3B
100
AcDbScale
 70
     0
300
1:50
140
1.0
141
50.0
290
     0
  0
SCALE
  5
47
102
{ACAD_REACTORS
330
3B
102
}
330
3B
100
AcDbScale
 70
     0
300
1:100
140
1.0
141
100.0
290
     0
  0
SCALE
  5
48
102
{ACAD_REACTORS
330
3B
102
}
330
3B
100
AcDbScale
 70
     0
300
2:1
140
2.0
141
1.0
290
     0
  0
SCALE
  5
49
102
{ACAD_REACTORS
330
3B
102
}
330
3B
100
AcDbScale
 70
     0
300
4:1
140
4.0
141
1.0
290
     0
  0
SCALE
  5
4A
102
{ACAD_REACTORS
330
3B
102
}
330
3B
100
AcDbScale
 70
     0
300
8:1
140
8.0
141
1.0
290
     0
  0
SCALE
  5
4B
102
{ACAD_REACTORS
330
3B
102
}
330
3B
100
AcDbScale
 70
     0
300
10:1
140
10.0
141
1.0
290
     0
  0
SCALE
  5
4C
102
{ACAD_REACTORS
330
3B
102
}
330
3B
100
AcDbScale
 70
     0
300
100:1
140
100.0
141
1.0
290
     0
  0
SCALE
  5
4D
102
{ACAD_REACTORS
330
3B
102
}
330
3B
100
AcDbScale
 70
     0
300
1/128\" = 1\'-0\"
140
0.0078125
141
12.0
290
     0
  0
SCALE
  5
4E
102
{ACAD_REACTORS
330
3B
102
}
330
3B
100
AcDbScale
 70
     0
300
1/64\" = 1\'-0\"
140
0.015625
141
12.0
290
     0
  0
SCALE
  5
4F
102
{ACAD_REACTORS
330
3B
102
}
330
3B
100
AcDbScale
 70
     0
300
1/32\" = 1\'-0\"
140
0.03125
141
12.0
290
     0
  0
SCALE
  5
50
102
{ACAD_REACTORS
330
3B
102
}
330
3B
100
AcDbScale
 70
     0
300
1/16\" = 1\'-0\"
140
0.0625
141
12.0
290
     0
  0
SCALE
  5
51
102
{ACAD_REACTORS
330
3B
102
}
330
3B
100
AcDbScale
 70
     0
300
3/32\" = 1\'-0\"
140
0.09375
141
12.0
290
     0
  0
SCALE
  5
52
102
{ACAD_REACTORS
330
3B
102
}
330
3B
100
AcDbScale
 70
     0
300
1/8\" = 1\'-0\"
140
0.125
141
12.0
290
     0
  0
SCALE
  5
53
102
{ACAD_REACTORS
330
3B
102
}
330
3B
100
AcDbScale
 70
     0
300
3/16\" = 1\'-0\"
140
0.1875
141
12.0
290
     0
  0
SCALE
  5
54
102
{ACAD_REACTORS
330
3B
102
}
330
3B
100
AcDbScale
 70
     0
300
1/4\" = 1\'-0\"
140
0.25
141
12.0
290
     0
  0
SCALE
  5
55
102
{ACAD_REACTORS
330
3B
102
}
330
3B
100
AcDbScale
 70
     0
300
3/8\" = 1\'-0\"
140
0.375
141
12.0
290
     0
  0
SCALE
  5
56
102
{ACAD_REACTORS
330
3B
102
}
330
3B
100
AcDbScale
 70
     0
300
1/2\" = 1\'-0\"
140
0.5
141
12.0
290
     0
  0
SCALE
  5
57
102
{ACAD_REACTORS
330
3B
102
}
330
3B
100
AcDbScale
 70
     0
300
3/4\" = 1\'-0\"
140
0.75
141
12.0
290
     0
  0
SCALE
  5
58
102
{ACAD_REACTORS
330
3B
102
}
330
3B
100
AcDbScale
 70
     0
300
1\" = 1\'-0\"
140
1.0
141
12.0
290
     0
  0
SCALE
  5
59
102
{ACAD_REACTORS
330
3B
102
}
330
3B
100
AcDbScale
 70
     0
300
1-1/2\" = 1\'-0\"
140
1.5
141
12.0
290
     0
  0
SCALE
  5
5A
102
{ACAD_REACTORS
330
3B
102
}
330
3B
100
AcDbScale
 70
     0
300
3\" = 1\'-0\"
140
3.0
141
12.0
290
     0
  0
SCALE
  5
5B
102
{ACAD_REACTORS
330
3B
102
}
330
3B
100
AcDbScale
 70
     0
300
6\" = 1\'-0\"
140
6.0
141
12.0
290
     0
  0
SCALE
  5
5C
102
{ACAD_REACTORS
330
3B
102
}
330
3B
100
AcDbScale
 70
     0
300
1\'-0\" = 1\'-0\"
140
12.0
141
12.0
290
     0
  0
VISUALSTYLE
  5
2F
102
{ACAD_REACTORS
330
2A
102
}
330
2A
100
AcDbVisualStyle
  2
2dWireframe
 70
     4
 71
     0
 72
     2
 73
     0
 90
        0
 40
-0.6
 41
-30.0
 62
     5
 63
     7
421
 16777215
 74
     1
 91
        4
 64
     7
 65
   257
 75
     1
175
     1
 42
1.0
 92
        0
 66
   257
 43
1.0
 76
     1
 77
     6
 78
     2
 67
     7
 79
     5
170
     0
171
     0
290
     0
174
     0
 93
        1
 44
0.0
173
     0
291
     0
 45
0.0
  0
VISUALSTYLE
  5
31
102
{ACAD_REACTORS
330
2A
102
}
330
2A
100
AcDbVisualStyle
  2
3D Hidden
 70
     6
 71
     1
 72
     2
 73
     2
 90
        0
 40
-0.6
 41
-30.0
 62
     5
 63
     7
421
 16777215
 74
     2
 91
        2
 64
     7
 65
   257
 75
     2
175
     1
 42
40.0
 92
        0
 66
   257
 43
1.0
 76
     1
 77
     6
 78
     2
 67
     7
 79
     3
170
     0
171
     0
290
     0
174
     0
 93
        1
 44
0.0
173
     0
291
     0
 45
0.0
  0
VISUALSTYLE
  5
30
102
{ACAD_REACTORS
330
2A
102
}
330
2A
100
AcDbVisualStyle
  2
3dWireframe
 70
     5
 71
     0
 72
     2
 73
     0
 90
        0
 40
-0.6
 41
-30.0
 62
     5
 63
     7
421
 16777215
 74
     1
 91
        4
 64
     7
 65
   257
 75
     1
175
     1
 42
1.0
 92
        0
 66
   257
 43
1.0
 76
     1
 77
     6
 78
     2
 67
     7
 79
     5
170
     0
171
     0
290
     0
174
     0
 93
        1
 44
0.0
173
     0
291
     0
 45
0.0
  0
VISUALSTYLE
  5
32
102
{ACAD_REACTORS
330
2A
102
}
330
2A
100
AcDbVisualStyle
  2
Basic
 70
     7
 71
     1
 72
     0
 73
     1
 90
        0
 40
-0.6
 41
-30.0
 62
     5
 63
     7
421
 16777215
 74
     0
 91
        4
 64
     7
 65
   257
 75
     1
175
     1
 42
1.0
 92
        8
 66
     7
 43
1.0
 76
     1
 77
     6
 78
     2
 67
     7
 79
     5
170
     0
171
     0
290
     0
174
     0
 93
        1
 44
0.0
173
     0
291
     1
 45
0.0
  0
VISUALSTYLE
  5
36
102
{ACAD_REACTORS
330
2A
102
}
330
2A
100
AcDbVisualStyle
  2
Brighten
 70
    12
 71
     2
 72
     2
 73
     0
 90
        0
 40
-0.6
 41
-30.0
 62
     5
 63
     7
421
 16777215
 74
     1
 91
        4
 64
     7
 65
   257
 75
     1
175
     1
 42
1.0
 92
        8
 66
     7
 43
1.0
 76
     1
 77
     6
 78
     2
 67
     7
 79
     5
170
     0
171
     0
290
     0
174
     0
 93
        1
 44
50.0
173
     0
291
     1
 45
0.0
  0
VISUALSTYLE
  5
3A
102
{ACAD_REACTORS
330
2A
102
}
330
2A
100
AcDbVisualStyle
  2
ColorChange
 70
    16
 71
     2
 72
     2
 73
     3
 90
        0
 40
-0.6
 41
-30.0
 62
     5
 63
     8
421
  8421504
 74
     1
 91
        4
 64
     7
 65
   257
 75
     1
175
     1
 42
1.0
 92
        8
 66
     8
424
  8421504
 43
1.0
 76
     1
 77
     6
 78
     2
 67
     7
 79
     5
170
     0
171
     0
290
     0
174
     0
 93
        1
 44
0.0
173
     0
291
     1
 45
0.0
  0
VISUALSTYLE
  5
34
102
{ACAD_REACTORS
330
2A
102
}
330
2A
100
AcDbVisualStyle
  2
Conceptual
 70
     9
 71
     3
 72
     2
 73
     0
 90
        0
 40
-0.6
 41
-30.0
 62
     5
 63
     7
421
 16777215
 74
     2
 91
        2
 64
     7
 65
   257
 75
     1
175
     1
 42
40.0
 92
        8
 66
     7
 43
1.0
 76
     1
 77
     6
 78
     2
 67
     7
 79
     3
170
     0
171
     0
290
     0
174
     0
 93
        1
 44
0.0
173
     0
291
     0
 45
0.0
  0
VISUALSTYLE
  5
35
102
{ACAD_REACTORS
330
2A
102
}
330
2A
100
AcDbVisualStyle
  2
Dim
 70
    11
 71
     2
 72
     2
 73
     0
 90
        0
 40
-0.6
 41
-30.0
 62
     5
 63
     7
421
 16777215
 74
     1
 91
        4
 64
     7
 65
   257
 75
     1
175
     1
 42
1.0
 92
        8
 66
     7
 43
1.0
 76
     1
 77
     6
 78
     2
 67
     7
 79
     5
170
     0
171
     0
290
     0
174
     0
 93
        1
 44
-50.0
173
     0
291
     1
 45
0.0
  0
VISUALSTYLE
  5
39
102
{ACAD_REACTORS
330
2A
102
}
330
2A
100
AcDbVisualStyle
  2
Facepattern
 70
    15
 71
     2
 72
     2
 73
     0
 90
        0
 40
-0.6
 41
-30.0
 62
     5
 63
     7
421
 16777215
 74
     1
 91
        4
 64
     7
 65
   257
 75
     1
175
     1
 42
1.0
 92
        8
 66
     7
 43
1.0
 76
     1
 77
     6
 78
     2
 67
     7
 79
     5
170
     0
171
     0
290
     0
174
     0
 93
        1
 44
0.0
173
     0
291
     1
 45
0.0
  0
VISUALSTYLE
  5
2B
102
{ACAD_REACTORS
330
2A
102
}
330
2A
100
AcDbVisualStyle
  2
Flat
 70
     0
 71
     2
 72
     1
 73
     1
 90
        2
 40
-0.6
 41
30.0
 62
     5
 63
     7
421
 16777215
 74
     0
 91
        4
 64
     7
 65
   257
 75
     1
175
     1
 42
1.0
 92
        8
 66
     7
 43
1.0
 76
     1
 77
     6
 78
     2
 67
     7
 79
     5
170
     0
171
     0
290
     0
174
     0
 93
       13
 44
0.0
173
     0
291
     1
 45
0.0
  0
VISUALSTYLE
  5
2C
102
{ACAD_REACTORS
330
2A
102
}
330
2A
100
AcDbVisualStyle
  2
FlatWithEdges
 70
     1
 71
     2
 72
     1
 73
     1
 90
        2
 40
-0.6
 41
30.0
 62
     5
 63
     7
421
 16777215
 74
     1
 91
        4
 64
     7
 65
   257
 75
     1
175
     1
 42
1.0
 92
        0
 66
   257
 43
1.0
 76
     1
 77
     6
 78
     2
 67
     7
 79
     5
170
     0
171
     0
290
     0
174
     0
 93
       13
 44
0.0
173
     0
291
     1
 45
0.0
  0
VISUALSTYLE
  5
2D
102
{ACAD_REACTORS
330
2A
102
}
330
2A
100
AcDbVisualStyle
  2
Gouraud
 70
     2
 71
     2
 72
     2
 73
     1
 90
        2
 40
-0.6
 41
30.0
 62
     5
 63
     7
421
 16777215
 74
     0
 91
        4
 64
     7
 65
   257
 75
     1
175
     1
 42
1.0
 92
        0
 66
     7
 43
1.0
 76
     1
 77
     6
 78
     2
 67
     7
 79
     5
170
     0
171
     0
290
     0
174
     0
 93
       13
 44
0.0
173
     0
291
     1
 45
0.0
  0
VISUALSTYLE
  5
2E
102
{ACAD_REACTORS
330
2A
102
}
330
2A
100
AcDbVisualStyle
  2
GouraudWithEdges
 70
     3
 71
     2
 72
     2
 73
     1
 90
        2
 40
-0.6
 41
30.0
 62
     5
 63
     7
421
 16777215
 74
     1
 91
        4
 64
     7
 65
   257
 75
     1
175
     1
 42
1.0
 92
        0
 66
   257
 43
1.0
 76
     1
 77
     6
 78
     2
 67
     7
 79
     5
170
     0
171
     0
290
     0
174
     0
 93
       13
 44
0.0
173
     0
291
     1
 45
0.0
  0
VISUALSTYLE
  5
38
102
{ACAD_REACTORS
330
2A
102
}
330
2A
100
AcDbVisualStyle
  2
Linepattern
 70
    14
 71
     2
 72
     2
 73
     0
 90
        0
 40
-0.6
 41
-30.0
 62
     5
 63
     7
421
 16777215
 74
     1
 91
        4
 64
     7
 65
   257
 75
     7
175
     7
 42
1.0
 92
        8
 66
     7
 43
1.0
 76
     1
 77
     6
 78
     2
 67
     7
 79
     5
170
     0
171
     0
290
     0
174
     0
 93
        1
 44
0.0
173
     0
291
     1
 45
0.0
  0
VISUALSTYLE
  5
33
102
{ACAD_REACTORS
330
2A
102
}
330
2A
100
AcDbVisualStyle
  2
Realistic
 70
     8
 71
     2
 72
     2
 73
     0
 90
        0
 40
-0.6
 41
-30.0
 62
     5
 63
     7
421
 16777215
 74
     1
 91
        0
 64
     7
 65
   257
 75
     1
175
     1
 42
1.0
 92
        8
 66
     8
424
  7895160
 43
1.0
 76
     1
 77
     6
 78
     2
 67
     7
 79
     5
170
     0
171
     0
290
     0
174
     0
 93
       13
 44
0.0
173
     0
291
     0
 45
0.0
  0
VISUALSTYLE
  5
37
102
{ACAD_REACTORS
330
2A
102
}
330
2A
100
AcDbVisualStyle
  2
Thicken
 70
    13
 71
     2
 72
     2
 73
     0
 90
        0
 40
-0.6
 41
-30.0
 62
     5
 63
     7
421
 16777215
 74
     1
 91
        4
 64
     7
 65
   257
 75
     1
175
     1
 42
1.0
 92
       12
 66
     7
 43
1.0
 76
     1
 77
     6
 78
     2
 67
     7
 79
     5
170
     0
171
     0
290
     0
174
     0
 93
        1
 44
0.0
173
     0
291
     1
 45
0.0
  0
ENDSEC
  0
EOF
